<svg xmlns="http://www.w3.org/2000/svg" width="44" height="44" viewBox="0 0 44 44">
  <defs>
    <style>
      .cls-1 {
        fill: #f83939;
        fill-rule: evenodd;
      }
    </style>
  </defs>
  <path id="btn_common_delete" class="cls-1" d="M5796.5,2789h-32a1.5,1.5,0,0,1,0-3h32A1.5,1.5,0,0,1,5796.5,2789Zm-9-5h-15a1.5,1.5,0,0,1,0-3h15A1.5,1.5,0,0,1,5787.5,2784Zm-12.5,25.5v-12a1.5,1.5,0,0,1,3,0v12A1.5,1.5,0,0,1,5775,2809.5Zm8,0v-12a1.5,1.5,0,0,1,3,0v12A1.5,1.5,0,0,1,5783,2809.5Zm-15.5-17.5a1.492,1.492,0,0,1,1.4,1h0.1v21a2.006,2.006,0,0,0,2,2h19a2.006,2.006,0,0,0,2-2v-21h0.1a1.48,1.48,0,0,1,2.8,0h0.1v22a4,4,0,0,1-4,4h-21a4,4,0,0,1-4-4v-22h0.1A1.492,1.492,0,0,1,5767.5,2792Z" transform="translate(-5758.5 -2778)"/>
</svg>
