<svg xmlns="http://www.w3.org/2000/svg" width="180.03" height="34" viewBox="0 0 180.03 34">
  <defs>
    <style>
      .cls-1 {
        fill: #ecf3fd;
        fill-rule: evenodd;
      }
    </style>
  </defs>
  <path id="btn_train_time" class="cls-1" d="M4614.03,1808.93c-3.19.93-8.86,3.06-11.01,4.99a7.794,7.794,0,0,1,.98-3.92h-34v12a4,4,0,0,1-4,4h-87a4,4,0,0,1-4-4v-12h-41v-2h41v-12a4,4,0,0,1,4-4h87a4,4,0,0,1,4,4v12h34a7.574,7.574,0,0,1-.98-4.07C4605.05,1805.92,4610.84,1807.95,4614.03,1808.93Zm-116.52-8.84h-6.85v17.32h2.09v-1.93h2.69v1.39h2.07v-16.78Zm13.06,2.39h-2.52v-3.76h-2.18v3.76h-7.48v2.04h7.48v11.66a0.744,0.744,0,0,1-.81.87c-1.19,0-2.43-.04-3.73-0.11l0.47,2.06h3.98a2.012,2.012,0,0,0,2.27-2.28v-12.2h2.52v-2.04Zm-11.46,5.47a54.117,54.117,0,0,1,3.14,5.61l1.78-1.24a44.122,44.122,0,0,0-3.15-5.47Zm25.66-7.17h-4.67a21.512,21.512,0,0,0-1.02-2.42l-2.29.36a17.266,17.266,0,0,1,1.06,2.06h-5.15v2h3.64a12.85,12.85,0,0,1-2.81,4.01,1.847,1.847,0,0,1-.47.18l0.52,1.97c1.66-.13,3.24-0.27,4.76-0.45a14.7,14.7,0,0,1-5.73,3.68l1.17,1.81a16.937,16.937,0,0,0,9.26-8.81l-1.8-.94c-0.4.76-.83,1.53-1.3,2.27-1.33.18-2.65,0.33-3.98,0.44a24.667,24.667,0,0,0,2.63-4.16h6.18v-2Zm0.13,8.5-1.86-.95a18.45,18.45,0,0,1-10.81,9.15l1.21,1.84a20.238,20.238,0,0,0,6.59-3.79,23.7,23.7,0,0,1,3.5,3.63l1.6-1.59a35.946,35.946,0,0,0-3.64-3.45A21.572,21.572,0,0,0,4524.9,1809.28Zm3.06-8.77h-2.04v13.83h2.04v-13.83Zm4.36-1.9h-2.11v17.59a0.8,0.8,0,0,1-.88.92c-0.97,0-2-.04-3.08-0.13l0.5,2.04h3.32a2.017,2.017,0,0,0,2.25-2.29v-18.13Zm21.55,13-1.48-1.44a11.567,11.567,0,0,1-3.35,2.6,14.671,14.671,0,0,1-1.98-3.29h7.93v-1.95h-8.69v-1.64h6.6v-1.97h-6.6v-1.64h7.91v-1.97h-7.91v-1.73h-2.16v1.73h-7.91v1.97h7.91v1.64h-6.61v1.97h6.61v1.64h-8.7v1.95h6.81a18.012,18.012,0,0,1-7.43,4.3l1.12,1.86a30.763,30.763,0,0,0,3.68-1.81v2.53a1.211,1.211,0,0,1-.89,1.08l0.71,1.81a56.588,56.588,0,0,0,7.33-2.31l-0.4-1.95c-1.56.61-3.11,1.14-4.66,1.64v-4.22a15.066,15.066,0,0,0,2.84-2.93h0.56q2.865,7.125,9.01,9.66l1.17-1.88a14.065,14.065,0,0,1-5.02-3.12A13.2,13.2,0,0,0,4553.87,1811.61Zm-61.12-2.96h2.69v4.86h-2.69v-4.86Zm0-6.64h2.69v4.64h-2.69v-4.64Z" transform="translate(-4434 -1792)"/>
</svg>
