<svg xmlns="http://www.w3.org/2000/svg" width="32" height="32" viewBox="0 0 32 32">
  <defs>
    <style>
      .cls-1 {
        fill: #28b159;
        fill-rule: evenodd;
      }
    </style>
  </defs>
  <path id="icon_route_plane" class="cls-1" d="M3014,1881h-25a1.875,1.875,0,0,1-2-1.84v-18a2.142,2.142,0,0,1,2-2.16h25a2.142,2.142,0,0,1,2,2.16v18A1.875,1.875,0,0,1,3014,1881Zm0.07-19a1,1,0,0,0-1-1h-19.1a0.758,0.758,0,0,1,.03.16v2a1,1,0,0,1-2,0v-2a0.758,0.758,0,0,1,.03-0.16h-2.1a0.945,0.945,0,0,0-.93,1v16a0.945,0.945,0,0,0,.93,1H2992v-1.84a1,1,0,1,1,2,0V1879h19.07a1,1,0,0,0,1-1v-16Zm-12.76,9.95a1.4,1.4,0,0,1-1.4.03l-2.73-1.52a0.312,0.312,0,0,1,.06-0.57l0.34-.11a1.139,1.139,0,0,1,.55-0.02l1.6,0.35a1.257,1.257,0,0,0,.98-0.18l2.06-1.42-3.83-2.92a0.6,0.6,0,0,1,.07-0.94,0.976,0.976,0,0,1,.73-0.11c0.78,0.15,4.24,1.53,5.27,1.94a0.976,0.976,0,0,0,.61.05l0.04-.01,2.85-1.95a2.231,2.231,0,0,1,1.04-.39,3.017,3.017,0,0,1,2.3.68h0a0.427,0.427,0,0,1-.05.69Zm2.19,2.21h4a0.5,0.5,0,0,1,.5.5h0a0.5,0.5,0,0,1-.5.5h-4a0.5,0.5,0,0,1-.5-0.5h0A0.5,0.5,0,0,1,3003.5,1874.16Zm-10.5,0a1,1,0,0,1-1-1v-0.97a1,1,0,0,1,2,0v0.97A1,1,0,0,1,2993,1874.16Zm0-5a1,1,0,0,1-1-1v-1a1,1,0,1,1,2,0v1A1,1,0,0,1,2993,1869.16Z" transform="translate(-2985.5 -1854)"/>
</svg>
