<svg xmlns="http://www.w3.org/2000/svg" width="150" height="16" viewBox="0 0 150 16">
  <defs>
    <style>
      .cls-1 {
        fill: #fff;
        fill-rule: evenodd;
      }
    </style>
  </defs>
  <path id="icon_common_arrow2" class="cls-1" d="M3363.66,1998.83c-3.19.94-8.86,3.07-11,5a7.482,7.482,0,0,1,1-3.82h-57.73a7,7,0,0,1-13.86,0h-68.41v-2h68.41a7,7,0,0,1,13.86,0h57.73a7.878,7.878,0,0,1-1-4.18C3354.69,1995.82,3360.47,1997.86,3363.66,1998.83ZM3289,1994a5,5,0,1,0,5,5A5,5,0,0,0,3289,1994Z" transform="translate(-3213.66 -1991)"/>
</svg>
