<svg xmlns="http://www.w3.org/2000/svg" width="100" height="100" viewBox="0 0 100 100">
  <defs>
    <style>
      .cls-1 {
        fill: #28b159;
        fill-rule: evenodd;
      }
    </style>
  </defs>
  <path id="icon_work_pass" class="cls-1" d="M1877.5,259h13a2.5,2.5,0,0,0,0-5h-13A2.5,2.5,0,0,0,1877.5,259Zm6.5-31h0a50,50,0,0,0-50,50h0a50,50,0,0,0,50,50h0a50,50,0,0,0,50-50h0A50,50,0,0,0,1884,228Zm5,76h-22a6.005,6.005,0,0,1-6-6V261a6.005,6.005,0,0,1,6-6h4.18a6.506,6.506,0,0,1,6.32-5h13a6.506,6.506,0,0,1,6.32,5H1901a6.005,6.005,0,0,1,6,6v12a2,2,0,0,1-4,0V261a2,2,0,0,0-2-2h-4.5a6.509,6.509,0,0,1-6,4h-13a6.509,6.509,0,0,1-6-4H1867a2,2,0,0,0-2,2v37a2,2,0,0,0,2,2h22A2,2,0,0,1,1889,304Zm-16-30a2,2,0,0,1,0-4h22a2,2,0,0,1,0,4h-22Zm12,13a2,2,0,0,1-2,2h-10a2,2,0,0,1,0-4h10A2,2,0,0,1,1885,287Zm18.5,18a13.5,13.5,0,1,1,13.5-13.5A13.5,13.5,0,0,1,1903.5,305Zm8.61-19.106a1.5,1.5,0,0,0-2.11.253l-8.28,7.648a0.644,0.644,0,0,1-.93.087l-3.3-3.14a1.5,1.5,0,0,0-1.98,2.258l5.68,5.223a0.644,0.644,0,0,0,.93-0.087L1912.36,288A1.5,1.5,0,0,0,1912.11,285.894Z" transform="translate(-1834 -228)"/>
</svg>
