<svg id="icon_route_train" xmlns="http://www.w3.org/2000/svg" width="32" height="32" viewBox="0 0 32 32">
  <defs>
    <style>
      .cls-1 {
        fill: #fff;
        fill-opacity: 0.53;
      }

      .cls-2 {
        fill: #00a2e6;
        fill-rule: evenodd;
      }
    </style>
  </defs>
  <rect id="_" data-name="#" class="cls-1" width="32" height="32"/>
  <path id="形状_4" data-name="形状 4" class="cls-2" d="M3013.62,1158.74h-1.03l2.84,2.93h0a0.754,0.754,0,0,1,0,1.06l-0.05.05a0.744,0.744,0,0,1-.52.22,0.709,0.709,0,0,1-.52-0.22l-3.8-4.04h-16.4l-3.83,4.04a0.709,0.709,0,0,1-.52.22,0.744,0.744,0,0,1-.52-0.22l-0.05-.05a0.754,0.754,0,0,1,0-1.06l2.87-2.93h-1.02a2.5,2.5,0,0,1-2.06-1.93l0.01-20.68a2.962,2.962,0,0,1,2.95-2.98h20.71a2.962,2.962,0,0,1,2.95,2.98l0.02,20.68A2.461,2.461,0,0,1,3013.62,1158.74Zm-0.01-2.12v-6.43h-22.53v6.43h22.53Zm-1.41-21.35h-19.72a1.408,1.408,0,0,0-1.4,1.42v11.37h22.53v-11.37A1.417,1.417,0,0,0,3012.2,1135.27Zm-17.04,17.11a1.046,1.046,0,1,1-1,1.04A1.018,1.018,0,0,1,2995.16,1152.38Zm14.36,0a1.046,1.046,0,0,1,0,2.09A1.045,1.045,0,0,1,3009.52,1152.38Zm-12.97,8.5h11.56a0.39,0.39,0,0,1,.39.39v0.27a0.4,0.4,0,0,1-.39.4h-11.56a0.393,0.393,0,0,1-.39-0.4v-0.27A0.384,0.384,0,0,1,2996.55,1160.88Z" transform="translate(-2986 -1131)"/>
</svg>
