<?xml version="1.0" encoding="UTF-8"?>
<svg width="22px" height="22px" viewBox="0 0 22 22" version="1.1" xmlns="http://www.w3.org/2000/svg" xmlns:xlink="http://www.w3.org/1999/xlink">
    <!-- Generator: Sketch 60 (88103) - https://sketch.com -->
    <title>btn/nav/refresh_nor@2x</title>
    <desc>Created with Sketch.</desc>
    <g id="btn/nav/refresh_nor" stroke="none" stroke-width="1" fill-rule="evenodd" opacity="0.700404576">
        <g id="透明度层" transform="translate(2.000000, 1.500000)" fill-rule="nonzero">
            <path d="M13.21875,7.54375 C12.8321507,7.54375 12.51875,7.23034932 12.51875,6.84375 C12.51875,6.48936729 12.7820936,6.19649177 13.1237641,6.15014017 L13.21875,6.14375 L15.4181548,6.14344382 C14.1822153,3.77050009 11.7170989,2.23125 8.96875,2.23125 C4.95433022,2.23125 1.7,5.48558022 1.7,9.5 C1.7,13.5144198 4.95433022,16.76875 8.96875,16.76875 C12.4933786,16.76875 15.4931045,14.2418275 16.1189428,10.8151981 C16.1884022,10.4348898 16.5530109,10.1828969 16.9333193,10.2523563 C17.3136276,10.3218156 17.5656205,10.6864244 17.4961611,11.0667327 C16.7493591,15.1556707 13.1725133,18.16875 8.96875,18.16875 C4.18113158,18.16875 0.3,14.2876184 0.3,9.5 C0.3,4.71238158 4.18113158,0.83125 8.96875,0.83125 C11.9580338,0.83125 14.6665572,2.35844897 16.2379329,4.77406345 L16.2375,3.125 C16.2375,2.73840068 16.5509007,2.425 16.9375,2.425 C17.2918827,2.425 17.5847582,2.68834362 17.6311098,3.03001415 L17.6375,3.125 L17.6375,6.84375 C17.6375,6.91118011 17.6279658,6.97638339 17.6101719,7.03808528 C17.6060011,7.05256971 17.6012812,7.06712157 17.5961067,7.08145604 C17.5904039,7.09723648 17.5842499,7.11252887 17.5775832,7.12754307 C17.5710996,7.14215197 17.5640715,7.15660911 17.5565713,7.17077784 C17.5490559,7.1849752 17.5410664,7.19888299 17.5326239,7.21248013 C17.5252927,7.22429543 17.5175,7.23604514 17.5093696,7.24753895 C17.4990302,7.2621606 17.4880707,7.27645696 17.4765879,7.2903037 C17.4674537,7.30130245 17.4583387,7.31164359 17.4489301,7.32170683 C17.4373587,7.33414763 17.4240652,7.34734059 17.4102631,7.3599873 C17.4007392,7.36870234 17.3913403,7.37685628 17.381727,7.38475899 C17.3663267,7.39743167 17.3500931,7.40965381 17.3333332,7.42116519 C17.3232305,7.42810652 17.3128404,7.43484839 17.3022653,7.44131744 C17.2892162,7.4492962 17.2760144,7.45679181 17.2625541,7.46386202 C17.2473636,7.47184247 17.2317977,7.47930119 17.2159266,7.48618901 C17.1927843,7.49624252 17.1687463,7.50515864 17.1441286,7.51275333 C17.14208,7.51338429 17.1403651,7.51390512 17.1386475,7.51441953 C17.1373253,7.51485216 17.1304778,7.51685008 17.1235877,7.51874532 L17.0324859,7.53735983 L17.0324859,7.53735983 L16.9375,7.54375 L16.9375,7.54375 L13.21875,7.54375 Z" id="形状结合"></path>
        </g>
    </g>
</svg>