<?xml version="1.0" encoding="UTF-8"?>
<svg width="22px" height="22px" viewBox="0 0 22 22" version="1.1" xmlns="http://www.w3.org/2000/svg" xmlns:xlink="http://www.w3.org/1999/xlink">
    <!-- Generator: Sketch 58 (84663) - https://sketch.com -->
    <title>btn_common_checkbox_sel</title>
    <desc>Created with Sketch.</desc>
    <g id="btn_common_checkbox_sel" stroke="none" stroke-width="1" fill-rule="evenodd">
        <g id="icon_checkbox_sel" transform="translate(0.500000, 0.500000)" fill-rule="nonzero">
            <path d="M4.2,0 L16.8,0 C19.1195959,0 21,1.88040405 21,4.2 L21,16.8 C21,19.1195959 19.1195959,21 16.8,21 L4.2,21 C1.88040405,21 0,19.1195959 0,16.8 L0,4.2 C0,1.88040405 1.88040405,0 4.2,0 Z M4.2,0.525 C2.17035354,0.525 0.525,2.17035354 0.525,4.2 L0.525,16.8 C0.525,18.8296465 2.17035354,20.475 4.2,20.475 L16.8,20.475 C18.8296465,20.475 20.475,18.8296465 20.475,16.8 L20.475,4.2 C20.475,2.17035354 18.8296465,0.525 16.8,0.525 L4.2,0.525 Z" id="矩形"></path>
            <path d="M9.6965925,13.5378123 L6.20617017,10.610059 C5.76187542,10.2373862 5.09959237,10.2954473 4.72691958,10.739742 C4.35424679,11.1840368 4.41230785,11.8463198 4.85660261,12.2189926 L9.20380561,15.8654104 C9.66801177,16.2547848 10.3645235,16.1715596 10.723919,15.6837741 L17.4448356,6.56188693 C17.7888153,6.09502428 17.6891991,5.4377066 17.2223365,5.09372681 C16.7554738,4.74974701 16.0981561,4.84936324 15.7541763,5.31622589 L9.6965925,13.5378123 Z" id="路径"></path>
        </g>
    </g>
</svg>