<?xml version="1.0" encoding="UTF-8"?>
<svg width="22px" height="22px" viewBox="0 0 22 22" version="1.1" xmlns="http://www.w3.org/2000/svg" xmlns:xlink="http://www.w3.org/1999/xlink">
    <!-- Generator: Sketch 60 (88103) - https://sketch.com -->
    <title>h5 svg/icon/zixun/dianzan_sel</title>
    <desc>Created with Sketch.</desc>
    <defs>
        <linearGradient x1="38.3335604%" y1="37.4018265%" x2="90.9899047%" y2="92.447167%" id="linearGradient-1">
            <stop stop-color="#FFC334" offset="0%"></stop>
            <stop stop-color="#FF930E" offset="100%"></stop>
        </linearGradient>
    </defs>
    <g id="h5-svg/icon/zixun/dianzan_sel" stroke="none" stroke-width="1" fill="none" fill-rule="evenodd">
        <g id="点赞" transform="translate(0.533333, 0.533333)" fill="url(#linearGradient-1)">
            <path d="M12.5355276,1.24344979e-14 L12.6500029,0.00692475852 C13.3003119,0.104713574 14.0380753,0.524192546 14.572947,1.45466816 C15.2775175,2.68035568 15.4164627,4.52169344 14.8524381,7.09371396 L14.8524381,7.09371396 L14.7636719,7.4742275 L19.161748,7.4735383 C19.9972722,7.49038737 20.7517459,7.87614679 20.9554488,8.88942392 L20.9554488,8.88942392 L20.9887065,9.10052287 L21,9.38559951 C20.9888404,9.72075161 20.9180941,10.3022778 20.7501828,11.1830412 L20.7501828,11.1830412 L20.682796,11.5259028 C20.4696947,12.5797837 20.1575106,13.8622053 19.7296024,15.3967377 L19.7296024,15.3967377 L19.4270033,16.4573677 L19.058016,17.6954344 C19.0468749,17.7301304 19.03144,17.775721 19.0118884,17.8304803 L19.0118884,17.8304803 L18.8450781,18.2574572 C18.7782865,18.4148784 18.7059009,18.5706257 18.6279967,18.7209473 C18.295542,19.362442 17.9361334,19.7981335 17.3481951,19.9705285 L17.3481951,19.9705285 L17.115467,19.9987443 L9.50498038,20 L5.906,19.996 L5.906,7.469 L7.26630064,7.47156072 L7.57071531,7.22661769 C9.21026326,5.85794625 10.5100154,4.09047735 10.636213,2.23171254 L10.636213,2.23171254 L10.6462649,1.9366904 L10.6462649,1.75154105 L10.6789696,1.69398898 L10.7084845,1.39683247 C10.7219204,1.30168771 10.7405246,1.22042635 10.7716954,1.11746065 C10.9630405,0.48539575 11.4751493,0.075046699 12.3209004,0.00610749005 L12.3209004,0.00610749005 L12.5355276,1.24344979e-14 Z M1.18346932,7.46491955 L4.593,7.468 L4.593,19.995 L1.6156099,19.9929393 L1.50093709,19.9765835 C1.03092441,19.8837559 0.629528374,19.5507976 0.530714758,18.8924679 L0.530714758,18.8924679 L0.519340249,18.7331766 L6.1284311e-13,8.72714848 C0.00209639942,8.56853289 0.0327025876,8.37255472 0.126347612,8.16072674 C0.270460853,7.83473807 0.530978579,7.5832468 0.983534629,7.48280524 L0.983534629,7.48280524 L1.18346932,7.46491955 Z" id="形状结合"></path>
        </g>
    </g>
</svg>