<?xml version="1.0" encoding="UTF-8"?>
<svg width="22px" height="22px" viewBox="0 0 22 22" version="1.1" xmlns="http://www.w3.org/2000/svg" xmlns:xlink="http://www.w3.org/1999/xlink">
    <!-- Generator: Sketch 60 (88103) - https://sketch.com -->
    <title>h5 svg/icon/zixun/caiyicai</title>
    <desc>Created with Sketch.</desc>
    <g id="h5-svg/icon/zixun/caiyicai" stroke="none" stroke-width="1" fill-rule="evenodd">
        <g id="点赞" transform="translate(11.033333, 11.033333) scale(1, -1) translate(-11.033333, -11.033333) translate(0.533333, 0.533333)">
            <path d="M12.5355276,0.0333333333 L12.6500029,0.0402580918 C13.3003119,0.138046907 14.0380753,0.557525879 14.572947,1.48800149 C15.2775175,2.71368901 15.4164627,4.55502678 14.8524381,7.1270473 L14.8524381,7.1270473 L14.7636719,7.50756083 L19.161748,7.50687163 C19.9972722,7.52372071 20.7517459,7.90948012 20.9554488,8.92275725 L20.9554488,8.92275725 L20.9887065,9.13385621 L21,9.41893284 C20.9888404,9.75408495 20.9180941,10.3356111 20.7501828,11.2163746 L20.7501828,11.2163746 L20.682796,11.5592361 C20.4696947,12.6131171 20.1575106,13.8955386 19.7296024,15.430071 L19.7296024,15.430071 L19.4270033,16.4907011 L19.058016,17.7287677 C19.0468749,17.7634637 19.03144,17.8090543 19.0118884,17.8638137 L19.0118884,17.8638137 L18.8450781,18.2907906 C18.7782865,18.4482117 18.7059009,18.603959 18.6279967,18.7542806 C18.295542,19.3957754 17.9361334,19.8314668 17.3481951,20.0038619 L17.3481951,20.0038619 L17.115467,20.0320776 L9.50498038,20.0333333 L1.6156099,20.0262726 L1.50093709,20.0099168 C1.03092441,19.9170892 0.629528374,19.5841309 0.530714758,18.9258012 L0.530714758,18.9258012 L0.519340249,18.76651 L6.1284311e-13,8.76048181 C0.00209639942,8.60186622 0.0327025876,8.40588805 0.126347612,8.19406007 C0.270460853,7.8680714 0.530978579,7.61658014 0.983534629,7.51613858 L0.983534629,7.51613858 L1.18346932,7.49825288 L7.26630064,7.50489406 L7.57071531,7.25995102 C9.21026326,5.89127958 10.5100154,4.12381069 10.636213,2.26504587 L10.636213,2.26504587 L10.6462649,1.97002374 L10.6462649,1.78487438 L10.6789696,1.72732231 L10.7084845,1.4301658 C10.7219204,1.33502105 10.7405246,1.25375968 10.7716954,1.15079398 C10.9630405,0.518729083 11.4751493,0.108380032 12.3209004,0.0394408234 L12.3209004,0.0394408234 L12.5355276,0.0333333333 Z M12.4981847,1.36730746 L12.3924825,1.37037321 C12.112412,1.3935153 12.058329,1.4368516 12.0262737,1.54273893 C12.0152029,1.57930871 12.0083941,1.61341939 12.0021941,1.67167976 L12.0021941,1.67167976 L11.9828428,1.91839194 L11.9660852,2.05880402 L11.9547828,2.10333783 L11.9481704,2.31450597 C11.8703007,3.57406802 11.3690959,4.79417306 10.5534249,5.95757178 L10.5534249,5.95757178 L10.3232543,6.27344344 C9.63422814,7.18451952 8.84393033,7.94918907 8.09141112,8.54372341 L8.09141112,8.54372341 L7.70364252,8.8394395 L5.906,8.83633333 L5.906,18.6973333 L17.0612,18.7061533 C17.1048649,18.6928336 17.247008,18.5254729 17.40039,18.2551319 L17.4665588,18.1331155 C17.625204,17.8269985 17.7466746,17.5129765 17.8059425,17.3288981 L17.8059425,17.3288981 L18.2918895,15.6853723 C19.2067057,12.4972585 19.5958369,10.5635858 19.6748488,9.64513792 L19.6748488,9.64513792 L19.6885675,9.42841521 L19.681577,9.2453376 C19.646944,8.95225361 19.4537358,8.84641087 19.1489269,8.84012864 L19.1489269,8.84012864 L13.0514656,8.84205519 L13.3837795,7.61552673 C14.0891643,4.91948347 14.0160063,3.16331625 13.4394887,2.16039258 C13.2568733,1.84271053 13.0363739,1.62830129 12.7952501,1.49120267 C12.7227468,1.44997858 12.6561174,1.41966282 12.5987479,1.39831988 L12.5987479,1.39831988 L12.4981847,1.36730746 Z M4.593,8.83333333 L1.31644354,8.82761531 L1.82965645,18.6973559 L4.593,18.6973333 L4.593,8.83333333 Z" id="形状结合"></path>
        </g>
    </g>
</svg>