<?xml version="1.0" encoding="UTF-8"?>
<svg width="22px" height="22px" viewBox="0 0 22 22" version="1.1" xmlns="http://www.w3.org/2000/svg" xmlns:xlink="http://www.w3.org/1999/xlink">
    <!-- Generator: Sketch 60 (88103) - https://sketch.com -->
    <title>icon/tpan/forward</title>
    <desc>Created with Sketch.</desc>
    <g id="icon/tpan/forward" stroke="none" stroke-width="1" fill-rule="evenodd">
        <g id="icon_tpan_forward" transform="translate(1.000000, 1.000000)" fill-rule="nonzero">
            <g id="形状结合">
                <path d="M8.21882104,12.1016601 C9.46245561,8.99085443 10.7986753,6.7144686 12.2440391,5.26910483 C13.4720856,4.04105826 15.0254971,2.92830321 16.9029428,1.92854972 L15.2588609,1.58712015 C14.9344112,1.51974758 14.7260091,1.20211291 14.7933816,0.877663253 C14.8540169,0.585658566 15.1173646,0.387652356 15.4059515,0.400085765 L15.5028385,0.412184022 L18.2028385,0.972844022 C18.347593,1.00290255 18.4692478,1.08277657 18.5536179,1.19084593 C18.7422046,1.29860867 18.8618084,1.50349421 18.8569084,1.72600966 L18.8470238,1.82222105 L18.3498118,4.52221961 L18.3244627,4.61651109 C18.2271,4.88846242 17.9443713,5.0576455 17.6510693,5.00363315 C17.3577674,4.9496208 17.1538529,4.69082107 17.159753,4.40202666 L17.1696558,4.30489071 L17.4050758,3.02080134 C15.6558171,3.95844855 14.2187406,4.99145955 13.0925672,6.11763297 C11.7802543,7.42994589 10.5215715,9.57423969 9.33307798,12.5471166 C9.21006858,12.8548101 8.86091484,13.0045262 8.55322128,12.8815168 C8.24552772,12.7585074 8.09581163,12.4093537 8.21882104,12.1016601 Z M0.00552725798,17.0498647 L7.27595761e-12,16.8936456 L7.27595761e-12,3.22697892 C7.27595761e-12,2.01870249 0.985366805,1.04457626 2.21593866,0.965496773 L2.37777778,0.960312256 L9.54930556,0.960312256 C9.88067641,0.960312256 10.1493056,1.22894141 10.1493056,1.56031226 C10.1493056,1.85854602 9.93171594,2.10595901 9.64662867,2.15245927 L9.54930556,2.16031226 L2.37777778,2.16031226 C1.76288387,2.16031226 1.26981661,2.58413194 1.20680718,3.1123157 L1.2,3.22697892 L1.2,16.8936456 C1.2,17.4351086 1.65207433,17.8950258 2.24799182,17.9539416 L2.37777778,17.9603123 L16.8222222,17.9603123 C17.4371161,17.9603123 17.9301834,17.5364926 17.9931928,17.0083088 L18,16.8936456 L18,7.84636369 C18,7.51499284 18.2686292,7.24636369 18.6,7.24636369 C18.8982338,7.24636369 19.1456468,7.4639533 19.192147,7.74904057 L19.2,7.84636369 L19.2,16.8936456 C19.2,18.101922 18.2146332,19.0760483 16.9840613,19.1551277 L16.8222222,19.1603123 L2.37777778,19.1603123 C1.12728291,19.1603123 0.0898121564,18.2365309 0.00552725798,17.0498647 Z" id="形状"></path>
            </g>
        </g>
    </g>
</svg>