<?xml version="1.0" encoding="UTF-8"?>
<svg width="22px" height="22px" viewBox="0 0 22 22" version="1.1" xmlns="http://www.w3.org/2000/svg" xmlns:xlink="http://www.w3.org/1999/xlink">
    <title>btn/common/VS</title>
    <g id="btn/common/VS" stroke="none" stroke-width="1" fill="none" fill-rule="evenodd">
        <g id="btn/common/gouwuche" transform="translate(0.500000, 4.000000)">
            <polygon id="路径" fill="#FFFFFF" points="4.90939949 14 11.2453416 9.9475983e-14 7.8905961 9.9475983e-14 4.09628475 8.7063363 2.79010148 9.9475983e-14 0 9.9475983e-14 2.0725829 14"></polygon>
            <path d="M15.1751561,-1.38378198e-12 L21,-1.38378198e-12 L21,2.62757142 L15.3795248,2.62757142 C13.9479586,2.62757142 13.2631915,4.48148149 14.7055297,5.04458006 C16.5751721,5.87517966 17.7774808,6.40208241 18.3124557,6.62528832 C21.9321574,8.13552535 21.4171364,13.6570932 15.565304,13.855659 L15.3623479,13.8590881 L9.71980809,13.8885918 L9.71980809,11.2610204 L15.565304,11.2315166 C17.7928226,11.2315166 18.271034,9.42431756 16.8459754,8.69028739 C16.3081469,8.41325848 14.1495836,7.63078404 13.8028265,7.51176162 C9.40588101,6.00253466 10.9036737,0.17856466 14.9848705,0.0040452236 L15.1751561,-1.38378198e-12 Z" id="路径-30" fill="#FFFFFF"></path>
        </g>
    </g>
</svg>