<?xml version="1.0" encoding="UTF-8"?>
<svg width="32px" height="32px" viewBox="0 0 32 32" version="1.1" xmlns="http://www.w3.org/2000/svg" xmlns:xlink="http://www.w3.org/1999/xlink">
    <title>btn/wode/daishouhuo</title>
    <defs>
        <radialGradient cx="14.425617%" cy="-12.4511645%" fx="14.425617%" fy="-12.4511645%" r="172.38152%" gradientTransform="translate(0.144256,-0.124512),scale(0.500379,1.000000),rotate(35.899440),translate(-0.144256,0.124512)" id="radialGradient-1">
            <stop stop-color="#FFB093" offset="0%"></stop>
            <stop stop-color="#F30300" offset="100%"></stop>
        </radialGradient>
    </defs>
    <g id="21商城" stroke="none" stroke-width="1" fill="none" fill-rule="evenodd">
        <g id="02商云-我的" transform="translate(-213.000000, -237.000000)">
            <g id="06卡片/b应用按钮卡片备份" transform="translate(15.000000, 191.000000)">
                <g id="编组-5" transform="translate(27.500000, 46.000000)">
                    <g id="btn/wode/daishouhuo" transform="translate(170.500000, 0.000000)">
                        <g id="轮廓" transform="translate(2.110504, 3.545455)">
                            <path d="M22.8481735,0 C24.9903689,0 26.7392524,1.68396847 26.8432782,3.80035966 L26.8481735,4 L26.8481735,19 C26.8481735,20.9057563 25.5154179,22.5002308 23.7311008,22.9022295 C23.3331479,24.3977324 21.9693849,25.5 20.3481735,25.5 C18.7629698,25.5 17.4239055,24.4461522 16.9933626,23.0008388 L9.70298439,23.0008388 C9.2724415,24.4461522 7.93337716,25.5 6.34817349,25.5 C4.7122856,25.5 3.33852846,24.3776849 2.95487291,22.8610255 C1.02780158,22.3421293 -0.250987068,20.4526605 0.0416494573,18.4278445 L1.48689948,8.42784455 C1.77127784,6.4601687 3.45764824,5 5.44576777,5 L8.84800011,5 L8.84817349,4 C8.84817349,1.85780461 10.532142,0.108921124 12.6485331,0.00489530723 L12.8481735,0 L22.8481735,0 Z M6.34817349,20.5 C5.51974636,20.5 4.84817349,21.1715729 4.84817349,22 C4.84817349,22.8284271 5.51974636,23.5 6.34817349,23.5 C7.17660061,23.5 7.84817349,22.8284271 7.84817349,22 C7.84817349,21.1715729 7.17660061,20.5 6.34817349,20.5 Z M20.3481735,20.5 C19.5197464,20.5 18.8481735,21.1715729 18.8481735,22 C18.8481735,22.8284271 19.5197464,23.5 20.3481735,23.5 C21.1766006,23.5 21.8481735,22.8284271 21.8481735,22 C21.8481735,21.1715729 21.1766006,20.5 20.3481735,20.5 Z M9.02583987,15.182492 L2.53100011,15.182 L2.0210836,18.7139223 C1.89656392,19.5755011 2.34108405,20.3880685 3.07019806,20.7710691 C3.56801821,19.4440078 4.84785343,18.5 6.34817349,18.5 C7.93374326,18.5 9.27305999,19.5543346 9.70328255,21.0001626 L16.9930644,21.0001626 C17.423287,19.5543346 18.7626037,18.5 20.3481735,18.5 C21.8717195,18.5 23.1679013,19.4734617 23.6486611,20.8323272 C24.354464,20.5250618 24.8481735,19.8201869 24.8481735,19 L24.8481735,18 L12.8481735,18 C11.0506822,18 9.53010975,16.8143694 9.02583987,15.182492 Z M22.8481735,7 L10.8480001,7 L10.8481735,14 C10.8481735,15.0543618 11.6640513,15.9181651 12.6989111,15.9945143 L12.8481735,16 L24.8477734,16 L24.8480001,8.99 L24.8426878,8.85073766 C24.7663386,7.81587779 23.9025353,7 22.8481735,7 Z M8.84800011,7 L5.44576777,7 C4.45170801,7 3.60852281,7.73008435 3.46633363,8.71392227 L2.82000011,13.182 L8.84800011,13.182 L8.84800011,7 Z M22.8481735,2 L12.8481735,2 C11.7938117,2 10.9300084,2.81587779 10.8536592,3.85073766 L10.8481735,4 L10.8480001,5 L22.8481735,5 C23.5767975,5 24.25992,5.19481516 24.8482939,5.53519846 L24.8482939,4 C24.8482939,2.99835629 24.1118438,2.16869161 23.1509478,2.0227694 L22.9974358,2.00548574 L22.8481735,2 Z" id="形状" fill="#222222" fill-rule="nonzero"></path>
                            <rect id="矩形" fill="url(#radialGradient-1)" x="10.8481735" y="4.94283781" width="13.9894003" height="7"></rect>
                        </g>
                    </g>
                </g>
            </g>
        </g>
    </g>
</svg>