<?xml version="1.0" encoding="UTF-8"?>
<svg width="22px" height="22px" viewBox="0 0 22 22" version="1.1" xmlns="http://www.w3.org/2000/svg" xmlns:xlink="http://www.w3.org/1999/xlink">
    <title>btn/wode/shoucang</title>
    <g id="btn/wode/shoucang" stroke="none" stroke-width="1" fill="none" fill-rule="evenodd">
        <g id="btn/common/soucang_nor">
            <rect id="矩形" x="0" y="0" width="22" height="22"></rect>
            <g id="轮廓" transform="translate(0.612455, 0.608392)" fill="#222222">
                <path d="M10.3943217,1.95399252e-14 C11.2616311,1.95399252e-14 12.0831518,0.538701969 12.3964773,1.30968017 L12.3964773,1.30968017 L14.4135518,5.57276923 L19.0216459,6.41050507 C19.7697028,6.56818363 20.3891254,7.12382494 20.623713,7.82436754 L20.623713,7.82436754 L20.7097152,8.12257147 C20.9035671,8.90703422 20.6845454,9.7345389 20.1076656,10.3341309 L20.1076656,10.3341309 L16.8817825,13.4961538 L17.698944,18.0706355 C17.843847,18.8838094 17.5505917,19.6876696 16.9881022,20.1914724 L16.9881022,20.1914724 L16.8720645,20.288146 C16.5068669,20.6080577 16.0293823,20.7832168 15.5237164,20.7832168 C15.179073,20.7832168 14.8137347,20.6801935 14.479654,20.5086737 L14.479654,20.5086737 L10.3917825,18.3826923 L6.29461164,20.4976007 C6.02667978,20.6465032 5.73069634,20.735864 5.42664669,20.7615148 L5.42664669,20.7615148 L5.24340883,20.7692267 C4.76412851,20.7692267 4.29387509,20.6137979 3.92008331,20.3198924 C3.24888713,19.7985028 2.89617532,18.9036994 3.05581941,18.0646595 L3.05581941,18.0646595 L3.90347484,13.4961538 L0.663300913,10.349857 C0.121853686,9.786619 -0.108871059,8.95187898 0.048550458,8.16717679 L0.048550458,8.16717679 L0.0882528702,7.99990938 C0.361483337,7.14722909 1.04323406,6.53301056 1.87175727,6.42503373 L1.87175727,6.42503373 L6.3700133,5.57361538 L8.39250551,1.30054818 C8.74906492,0.562850751 9.4504728,0.0652760776 10.2361417,0.00596087395 L10.2361417,0.00596087395 Z M10.3943217,1.69230769 C10.2128028,1.69230769 10.0212084,1.81967616 9.91919752,2.03066293 L9.91919752,2.03066293 L7.71627446,6.68657275 C7.60051992,6.93122165 7.37471732,7.10573469 7.1087882,7.15607256 L7.1087882,7.15607256 L2.13980859,8.09530826 C1.93947009,8.12173964 1.78034264,8.2651044 1.7101445,8.48163942 C1.64777784,8.70934368 1.72065495,9.00784589 1.86269426,9.15633 L1.86269426,9.15633 L5.40781342,12.597898 C5.61101029,12.7951595 5.7020511,13.0809955 5.65036932,13.3594378 L5.65036932,13.3594378 L4.71900648,18.3772289 C4.67925661,18.5861533 4.78184004,18.8463998 4.96215203,18.9864857 C5.03483512,19.0436314 5.13554742,19.076919 5.24340883,19.076919 C5.3247946,19.076919 5.40363041,19.0566731 5.49551476,19.006068 L5.49551476,19.006068 L10.006262,16.6781131 C10.2505574,16.5520344 10.5408762,16.5524959 10.7847696,16.6793504 L10.7847696,16.6793504 L15.2565422,19.0052344 C15.3633503,19.0600662 15.4727243,19.0909091 15.5237164,19.0909091 C15.6239024,19.0909091 15.7040875,19.0614942 15.7954256,18.9834368 C15.9823926,18.8381996 16.0754489,18.606403 16.0329448,18.3678755 L16.0329448,18.3678755 L15.1372508,13.3538188 C15.0880609,13.0784561 15.1781359,12.7965772 15.3778907,12.6007653 L15.3778907,12.6007653 L18.9053329,9.14347132 C19.0719004,8.97020023 19.1298509,8.71997667 19.0397808,8.43388659 C18.989076,8.23531531 18.8227151,8.08565324 18.6053909,8.05534084 L18.6053909,8.05534084 L13.6831086,7.15997357 C13.4147293,7.11115516 13.1863455,6.93594659 13.0696792,6.68937076 L13.0696792,6.68937076 L10.8482048,1.99132376 C10.7790811,1.82196703 10.5813505,1.69230769 10.3943217,1.69230769 Z M11.9575388,11.7236802 C12.3908283,11.8987405 12.6001645,12.3919056 12.4251041,12.8251951 C11.8341869,14.2877667 10.1695052,14.9943822 8.7069336,14.4034649 C8.27364402,14.2284045 8.06430787,13.7352395 8.23936822,13.3019499 C8.40192426,12.8996096 8.83876447,12.690372 9.24725674,12.8026968 L9.34088322,12.8343845 C9.90181728,13.0610166 10.5357061,12.8192841 10.809094,12.293178 L10.8560238,12.1912455 C11.0310841,11.7579559 11.5242492,11.5486198 11.9575388,11.7236802 Z" id="形状结合"></path>
            </g>
        </g>
    </g>
</svg>