<?xml version="1.0" encoding="UTF-8"?>
<svg width="32px" height="32px" viewBox="0 0 32 32" version="1.1" xmlns="http://www.w3.org/2000/svg" xmlns:xlink="http://www.w3.org/1999/xlink">
    <title>btn/wode/daifukuai</title>
    <defs>
        <radialGradient cx="21.2341258%" cy="18.7952386%" fx="21.2341258%" fy="18.7952386%" r="134.650265%" gradientTransform="translate(0.212341,0.187952),scale(0.733333,1.000000),rotate(37.090742),translate(-0.212341,-0.187952)" id="radialGradient-1">
            <stop stop-color="#FFB093" offset="0%"></stop>
            <stop stop-color="#F30300" offset="100%"></stop>
        </radialGradient>
    </defs>
    <g id="21商城" stroke="none" stroke-width="1" fill="none" fill-rule="evenodd">
        <g id="02商云-我的" transform="translate(-47.000000, -237.000000)">
            <g id="06卡片/b应用按钮卡片备份" transform="translate(15.000000, 191.000000)">
                <g id="编组-5" transform="translate(27.500000, 46.000000)">
                    <g id="btn/wode/daifukuai" transform="translate(4.500000, 0.000000)">
                        <g id="轮廓" transform="translate(2.950000, 1.782625)">
                            <path d="M23.9446762,3.0890329 C23.9971636,3.31321254 24.0301645,3.54136504 24.0433845,3.77094126 L24.05,4.00089764 L22.05,4.00089764 C22.05,3.84740289 22.0323297,3.69441836 21.9973381,3.54496527 C21.7569793,2.51836582 20.7656664,1.86329981 19.7406503,2.02487407 L19.5940676,2.05355954 L10.565,4.167 L23.05,4.16737535 C25.2189728,4.16737535 26.9897174,5.87239343 27.0950435,8.0152395 L27.1,8.21737535 L27.1,22.2173754 C27.1,24.3863482 25.3949819,26.1570927 23.2521358,26.2624189 L23.05,26.2673754 L4.05,26.2673754 C1.88102716,26.2673754 0.110282638,24.5623573 0.00495649857,22.4195112 L-7.10542736e-15,22.2173754 L-7.10542736e-15,8.21737535 C-7.10542736e-15,7.13579381 0.423974071,6.15323671 1.11479289,5.42683339 C1.62526077,4.66633921 2.39555897,4.08072128 3.32881391,3.81278546 L3.52332256,3.76213437 L19.1381353,0.106221441 C21.2891055,-0.397387547 23.4410672,0.938062633 23.9446762,3.0890329 Z M23.05,6.26737535 L4.05,6.26737535 C3.02199725,6.26737535 2.17978901,7.0628562 2.10534859,8.07184456 L2.1,8.21737535 L2.1,22.2173754 C2.1,23.2453781 2.89548085,24.0875863 3.90446921,24.1620268 L4.05,24.1673754 L23.05,24.1673754 C24.0780028,24.1673754 24.920211,23.3718945 24.9946514,22.3629061 L25,22.2173754 L25,8.21737535 C25,7.1893726 24.2045192,6.34716436 23.1955308,6.27272394 L23.05,6.26737535 Z" id="形状" fill="#222222"></path>
                            <path d="M27.2198816,8.41119802 L27.6438804,8.41119802 C28.0187972,8.41119802 28.3227273,8.71512813 28.3227273,9.09004492 L28.3227273,9.09004492 L28.3227273,9.09004492 C28.3118969,9.8438097 28.2434448,10.2362627 28.1173708,10.267404 C27.9912968,10.2985453 27.6921337,10.1622994 27.2198816,9.85866619 L27.2198816,8.41119802 Z" id="矩形" fill="#830900"></path>
                            <path d="M18.4823257,9.95876527 L26.8328112,9.95876527 L26.8328112,9.95876527 C27.8260886,9.95876527 28.3227273,9.7432021 28.3227273,9.31207575 C28.3227273,8.8809494 28.3227273,12.5362449 28.3227273,20.2779622 L18.4823257,20.2779622 C15.6327582,20.2779622 13.3227273,17.9679313 13.3227273,15.1183637 C13.3227273,12.2687962 15.6327582,9.95876527 18.4823257,9.95876527 Z" id="矩形" fill="url(#radialGradient-1)"></path>
                            <circle id="椭圆形" fill="#FFFFFF" cx="18.05" cy="14.7173754" r="2"></circle>
                        </g>
                    </g>
                </g>
            </g>
        </g>
    </g>
</svg>