<?xml version="1.0" encoding="UTF-8"?>
<svg width="22px" height="22px" viewBox="0 0 22 22" version="1.1" xmlns="http://www.w3.org/2000/svg" xmlns:xlink="http://www.w3.org/1999/xlink">
    <title>btn/wode/fapiaozhushou</title>
    <g id="btn/wode/fapiaozhushou" stroke="none" stroke-width="1" fill="none" fill-rule="evenodd">
        <rect id="矩形" x="0" y="0" width="22" height="22"></rect>
        <g id="轮廓" transform="translate(2.153846, 1.153846)" fill="#222222">
            <path d="M15.2422947,-1.0658141e-14 C16.6253738,-1.0658141e-14 17.6923077,1.23637029 17.6923077,2.70471675 L17.6923077,2.70471675 L17.6923077,18.5188279 C17.6923077,19.8063054 16.349607,20.6781635 15.2715797,19.9134693 L15.2715797,19.9134693 L13.7728462,18.8506154 L11.7744248,19.9504813 C11.3722431,20.2106912 10.8825452,20.2616156 10.3954372,20.0685709 L10.3954372,20.0685709 L10.2627215,20.0098474 L10.1072066,19.9146521 L8.66123077,18.8912308 L7.14882362,19.9278735 C6.75156944,20.2000704 6.26070856,20.2640351 5.76682004,20.0811392 L5.76682004,20.0811392 L5.63211616,20.0251089 L5.47395302,19.9328493 L3.91853846,18.8802308 L2.40347171,19.9255351 C1.4320386,20.5949781 0.229396492,19.949191 0.025372049,18.8008524 L0.025372049,18.8008524 L0.00738955184,18.6759301 L2.13162821e-14,18.5188279 L2.13162821e-14,2.70471675 C2.13162821e-14,1.23637029 1.06693389,-1.0658141e-14 2.45001294,-1.0658141e-14 L2.45001294,-1.0658141e-14 Z M15.2422947,1.69230769 L2.45001294,1.69230769 C2.06151816,1.69230769 1.69230769,2.12015131 1.69230769,2.70471675 L1.69230769,2.70471675 L1.69061538,18.3606923 L3.43462784,17.1592749 C3.68970548,16.9834383 4.01742539,16.96262 4.28982724,17.0973674 L4.28982724,17.0973674 L4.38913498,17.1551909 L6.30384615,18.4546154 L8.19006893,17.1621807 C8.44974059,16.984154 8.78354857,16.9666341 9.05758685,17.1086283 L9.05758685,17.1086283 L9.15728796,17.1693514 L10.9763077,18.4596923 L13.4224566,17.1127588 C13.6751737,16.9735248 13.978892,16.9737069 14.2292049,17.107376 L14.2292049,17.107376 L14.3203649,17.1637476 L16,18.3547692 L16,2.70471675 C16,2.15912234 15.6783767,1.75005005 15.3196329,1.69793194 L15.3196329,1.69793194 L15.2422947,1.69230769 Z M11.8461538,10.5 C12.3134717,10.5 12.6923077,10.878836 12.6923077,11.3461538 C12.6923077,11.7800919 12.3656583,12.1377368 11.9448333,12.186615 L11.8461538,12.1923077 L5.84615385,12.1923077 C5.37883598,12.1923077 5,11.8134717 5,11.3461538 C5,10.9122158 5.32664939,10.5545709 5.74747443,10.5056927 L5.84615385,10.5 L11.8461538,10.5 Z M11.8461538,5.5 C12.3134717,5.5 12.6923077,5.87883598 12.6923077,6.34615385 C12.6923077,6.78009186 12.3656583,7.13773683 11.9448333,7.186615 L11.8461538,7.19230769 L5.84615385,7.19230769 C5.37883598,7.19230769 5,6.81347171 5,6.34615385 C5,5.91221583 5.32664939,5.55457086 5.74747443,5.5056927 L5.84615385,5.5 L11.8461538,5.5 Z" id="形状结合"></path>
        </g>
    </g>
</svg>