<?xml version="1.0" encoding="UTF-8"?>
<svg width="22px" height="22px" viewBox="0 0 22 22" version="1.1" xmlns="http://www.w3.org/2000/svg" xmlns:xlink="http://www.w3.org/1999/xlink">
    <title>btn/wode/dizhiguanli</title>
    <g id="btn/wode/dizhiguanli" stroke="none" stroke-width="1" fill="none" fill-rule="evenodd">
        <rect id="矩形" x="0" y="0" width="22" height="22"></rect>
        <g id="btn/common/weizhi" transform="translate(0.000000, -0.000000)">
            <rect id="矩形" x="0" y="0" width="22" height="22"></rect>
            <g id="轮廓" transform="translate(2.538462, -0.000000)" fill="#222222">
                <path d="M12.4529182,19.5380066 C12.9202139,19.5334553 13.3027215,19.9085838 13.3073137,20.3758795 C13.311499,20.8097969 12.9883482,21.1706062 12.5680192,21.2235806 L12.4693999,21.230234 L4.46977928,21.3081472 C4.00248358,21.3126985 3.61997602,20.93757 3.61538377,20.4702743 C3.61119856,20.0363569 3.9343493,19.6755476 4.35467835,19.6225733 L4.45329764,19.6159198 L12.4529182,19.5380066 Z M8.46153846,-4.61852778e-14 C13.1384165,-4.61852778e-14 16.9230769,3.85851485 16.9230769,8.61014613 C16.9230769,11.4565818 15.3625611,13.9300397 12.8059123,16.0274896 C11.9323379,16.7441616 11.000208,17.3663239 10.0679627,17.8935196 C9.74118602,18.0783156 9.43699783,18.2384098 9.16272779,18.3735397 L9.16272779,18.3735397 L8.9106036,18.4946017 L8.46129156,18.6931233 L8.0729286,18.5223457 L7.93940505,18.4601585 L7.54880633,18.2670232 C7.33224422,18.1562099 7.09988402,18.0313875 6.85481794,17.8926696 C5.92263118,17.365012 4.99055895,16.7424724 4.11704008,16.0255677 C1.56046707,13.9273655 0,11.454482 0,8.61014613 C0,3.85851485 3.78466046,-4.61852778e-14 8.46153846,-4.61852778e-14 Z M8.46153846,1.69230769 C4.72669489,1.69230769 1.69230769,4.78590834 1.69230769,8.61014613 C1.69230769,10.8566843 2.98760986,12.909359 5.19065223,14.7174155 C5.98299874,15.3677013 6.83578228,15.9372833 7.68845129,16.4199304 C7.98639603,16.5885798 8.26230762,16.7339475 8.50864193,16.8554596 L8.50864193,16.8554596 L8.46153846,16.8316923 L8.60495874,16.7600016 L9.01572881,16.5424308 L9.23492187,16.4204452 C10.0875324,15.9382839 10.9402583,15.3691207 11.7325492,14.719133 C13.9355158,12.9118406 15.2307692,10.8588304 15.2307692,8.61014613 C15.2307692,4.78590834 12.196382,1.69230769 8.46153846,1.69230769 Z M8.41452991,5.55555556 C10.0477823,5.55555556 11.3717949,6.87956818 11.3717949,8.51282051 C11.3717949,10.1460728 10.0477823,11.4700855 8.41452991,11.4700855 C6.78127758,11.4700855 5.45726496,10.1460728 5.45726496,8.51282051 C5.45726496,6.87956818 6.78127758,5.55555556 8.41452991,5.55555556 Z M8.41452991,7.24786325 C7.71591331,7.24786325 7.14957265,7.81420391 7.14957265,8.51282051 C7.14957265,9.21143712 7.71591331,9.77777778 8.41452991,9.77777778 C9.11314652,9.77777778 9.67948718,9.21143712 9.67948718,8.51282051 C9.67948718,7.81420391 9.11314652,7.24786325 8.41452991,7.24786325 Z" id="形状结合"></path>
            </g>
        </g>
    </g>
</svg>