<?xml version="1.0" encoding="UTF-8"?>
<svg width="32px" height="32px" viewBox="0 0 32 32" version="1.1" xmlns="http://www.w3.org/2000/svg" xmlns:xlink="http://www.w3.org/1999/xlink">
    <title>btn/wode/shouhou</title>
    <defs>
        <linearGradient x1="45.8207946%" y1="0%" x2="45.8207946%" y2="100%" id="linearGradient-1">
            <stop stop-color="#FFB093" offset="0%"></stop>
            <stop stop-color="#F30300" offset="100%"></stop>
        </linearGradient>
        <filter id="filter-2">
            <feColorMatrix in="SourceGraphic" type="matrix" values="0 0 0 0 1.000000 0 0 0 0 1.000000 0 0 0 0 1.000000 0 0 0 1.000000 0"></feColorMatrix>
        </filter>
    </defs>
    <g id="21商城" stroke="none" stroke-width="1" fill="none" fill-rule="evenodd">
        <g id="02商云-我的" transform="translate(-296.000000, -237.000000)">
            <g id="06卡片/b应用按钮卡片备份" transform="translate(15.000000, 191.000000)">
                <g id="编组-5" transform="translate(27.500000, 46.000000)">
                    <g id="btn/wode/shouhou" transform="translate(253.500000, 0.000000)">
                        <g id="轮廓" transform="translate(3.762645, 2.390485)">
                            <path d="M18.4388004,0.114498339 C19.7680937,0.114498339 21.0105423,0.774856848 21.7542296,1.87664695 L24.0349012,5.25300412 C24.3482055,5.71600517 24.5636435,6.07655459 24.6895004,6.3594496 C24.7705233,6.54156909 24.8242275,6.70648344 24.8431648,6.88291355 C24.9449069,7.23792269 25,7.6125275 25,8 L25,8 L25,22 C25,24.209139 23.209139,26 21,26 L21,26 L4,26 C1.790861,26 0,24.209139 0,22 L0,22 L0,8 C0,7.29423479 0.182783206,6.63116088 0.503593723,6.05553417 C0.600228483,5.84040568 0.719132129,5.61372252 0.860527421,5.37442494 L1.03853916,5.08080884 L1.2511164,4.74399082 L1.49836299,4.36378658 L1.93446509,3.7117279 L2.26883942,3.22225181 L3.04279049,2.11102157 C3.11314829,2.01103956 3.18497446,1.90920755 3.25827115,1.80552171 C3.96385288,0.807404069 5.08417507,0.190165368 6.29628974,0.121002745 L6.5245581,0.114498339 L18.4388004,0.114498339 Z M21,6 L4,6 C3.27993784,6 2.64875258,6.38052726 2.29656932,6.95145667 C2.26408132,7.03393028 2.24178532,7.10281866 2.22909483,7.15903445 L2.2183291,7.22146354 L2.16015538,7.21448889 C2.05706558,7.45563665 2,7.72115413 2,8 L2,8 L2,22 C2,23.1045695 2.8954305,24 4,24 L4,24 L21,24 C22.1045695,24 23,23.1045695 23,22 L23,22 L23,8 C23,6.8954305 22.1045695,6 21,6 L21,6 Z M18.4388004,2.11449834 L6.5245581,2.11449834 C5.87519669,2.11449834 5.26625453,2.42976019 4.89141439,2.96000996 L4.163,3.99949834 L20.774,3.99949834 L20.0965176,2.99557092 C19.7556619,2.49058521 19.2052565,2.17106093 18.6039392,2.12131372 L18.4388004,2.11449834 Z" id="形状结合" fill="#222222" fill-rule="nonzero"></path>
                            <rect id="矩形" fill="url(#linearGradient-1)" x="5" y="9" width="15" height="11" rx="2"></rect>
                            <g filter="url(#filter-2)" id="编组-10">
                                <g transform="translate(7.253572, 11.253626)">
                                    <path d="M2.761641,3.06594796 L2.8377056,3.14622367 C3.06780014,3.42806322 3.06293375,3.84338013 2.81050802,4.12034087 C2.53283971,4.42499769 2.06077192,4.44687619 1.75611511,4.16920788 L1.75611511,4.16920788 L0.243665453,2.79074097 L0.167600862,2.71046526 C0.0439581057,2.559017 -0.0118392565,2.36902691 0.00216358001,2.18267338 C-0.012037962,1.99560213 0.0437377086,1.80520454 0.167600862,1.65348632 L0.243665453,1.57321061 L1.75611511,0.194743703 C2.06077192,-0.0829246069 2.53283971,-0.0610461005 2.81050802,0.243610715 C3.06293375,0.520571456 3.06780014,0.935888371 2.8377056,1.21772792 L2.789,1.268 L6.88050672,1.26816162 C8.32323484,1.26816162 9.49279708,2.43772385 9.49279708,3.88045198 C9.49279708,5.26769056 8.41147105,6.40237192 7.04571207,6.48760297 L6.88050672,6.49274234 L4.59372295,6.49274234 C4.18151492,6.49274234 3.84735428,6.1585817 3.84735428,5.74637366 C3.84735428,5.3685163 4.12814204,5.05624043 4.49244514,5.00681846 L4.59372295,5.00000499 L6.88050672,5.00000499 C7.49881877,5.00000499 8.00005973,4.49876403 8.00005973,3.88045198 C8.00005973,3.30336073 7.56342316,2.82825141 7.00249435,2.76746835 L6.88050672,2.76089897 L2.426,2.76 L2.761641,3.06594796 Z" id="形状结合" fill="#222222" fill-rule="nonzero"></path>
                                </g>
                            </g>
                        </g>
                    </g>
                </g>
            </g>
        </g>
    </g>
</svg>