<?xml version="1.0" encoding="UTF-8"?>
<svg width="22px" height="22px" viewBox="0 0 22 22" version="1.1" xmlns="http://www.w3.org/2000/svg" xmlns:xlink="http://www.w3.org/1999/xlink">
    <title>btn/wode/youhuiquan</title>
    <g id="btn/wode/youhuiquan" stroke="none" stroke-width="1" fill="none" fill-rule="evenodd">
        <rect id="矩形" x="0" y="0" width="22" height="22"></rect>
        <g id="轮廓" transform="translate(0.238462, 3.238462)" fill="#222222">
            <path d="M18.7615385,-4.156675e-13 C20.286694,-4.156675e-13 21.5230769,1.23638288 21.5230769,2.76153846 L21.5230769,2.76153846 L21.5230769,6.02307692 L20.7615385,6.02307692 C19.8014127,6.02307692 19.0230769,6.80141267 19.0230769,7.76153846 C19.0230769,8.68351099 19.7431948,9.44398589 20.6366369,9.49607371 L20.6366369,9.49607371 L21.5230769,9.52168383 L21.5230769,12.7615385 C21.5230769,14.286694 20.286694,15.5230769 18.7615385,15.5230769 L18.7615385,15.5230769 L2.76153846,15.5230769 C1.23638288,15.5230769 -3.62376795e-13,14.286694 -3.62376795e-13,12.7615385 L-3.62376795e-13,12.7615385 L-3.62376795e-13,9.5 L0.761538462,9.5 C1.72166426,9.5 2.5,8.72166426 2.5,7.76153846 C2.5,6.83956593 1.7798821,6.07909103 0.886440036,6.02700321 L0.886440036,6.02700321 L-3.62376795e-13,6.00139309 L-3.62376795e-13,2.76153846 C-3.62376795e-13,1.23638288 1.23638288,-4.156675e-13 2.76153846,-4.156675e-13 L2.76153846,-4.156675e-13 Z M18.7615385,1.52307692 L2.76153846,1.52307692 C2.07755504,1.52307692 1.52307692,2.07755504 1.52307692,2.76153846 L1.52307692,2.76153846 L1.52223077,4.59038462 L1.59772348,4.60816224 C2.9466373,4.96460441 3.94666761,6.1614135 4.01889357,7.59509661 L4.01889357,7.59509661 L4.02307692,7.76153846 C4.02307692,9.28138361 2.98351117,10.5584252 1.57664774,10.9203951 L1.57664774,10.9203951 L1.52223077,10.9323077 L1.52307692,12.7615385 C1.52307692,13.4052876 2.01424093,13.9343192 2.64226635,13.9943307 L2.64226635,13.9943307 L2.76153846,14 L18.7615385,14 C19.4455219,14 20,13.4455219 20,12.7615385 L20,12.7615385 L19.9996923,10.9323077 L19.9253534,10.9149147 C18.5764396,10.5584725 17.5764093,9.36166342 17.5041834,7.92798032 L17.5041834,7.92798032 L17.5,7.76153846 C17.5,6.24169331 18.5395658,4.96465176 19.9464292,4.60268186 L19.9464292,4.60268186 L19.9996923,4.58953846 L20,2.76153846 C20,2.11778936 19.508836,1.58875776 18.8808106,1.52874625 L18.8808106,1.52874625 L18.7615385,1.52307692 Z M12.4658647,4.1051656 C12.7632639,3.80776633 13.2454434,3.80776633 13.5428427,4.1051656 C13.840242,4.40256487 13.840242,4.88474435 13.5428427,5.18214362 L13.5428427,5.18214362 L12.556,6.168 L13.5043537,6.16827051 C13.9249398,6.16827051 14.2658921,6.50922289 14.2658921,6.92980897 C14.2658921,7.31804227 13.9753765,7.63842201 13.5998794,7.68541397 L13.5043537,7.69134743 L11.765,7.691 L11.765,8.296 L13.5043537,8.29632971 C13.9249398,8.29632971 14.2658921,8.63728209 14.2658921,9.05786817 C14.2658921,9.44610147 13.9753765,9.76648121 13.5998794,9.81347317 L13.5043537,9.81940663 L11.765,9.819 L11.7658921,11.0578682 C11.7658921,11.4784542 11.4249398,11.8194066 11.0043537,11.8194066 C10.6161204,11.8194066 10.2957406,11.528891 10.2487487,11.1533939 L10.2428152,11.0578682 L10.242,9.819 L8.50435368,9.81940663 C8.0837676,9.81940663 7.74281522,9.47845425 7.74281522,9.05786817 C7.74281522,8.66963487 8.03333086,8.34925513 8.40882791,8.30226317 L8.50435368,8.29632971 L10.242,8.296 L10.242,7.691 L8.50435368,7.69134743 C8.0837676,7.69134743 7.74281522,7.35039505 7.74281522,6.92980897 C7.74281522,6.54157567 8.03333086,6.22119593 8.40882791,6.17420397 L8.50435368,6.16827051 L9.537,6.168 L8.55165111,5.18214362 C8.25425184,4.88474435 8.25425184,4.40256487 8.55165111,4.1051656 C8.8242671,3.8325496 9.25214981,3.8098316 9.55064359,4.0370116 L9.62862913,4.1051656 L11.047,5.524 L11.0516511,5.51937916 Z" id="形状结合"></path>
        </g>
    </g>
</svg>