<?xml version="1.0" encoding="UTF-8"?>
<svg width="32px" height="32px" viewBox="0 0 32 32" version="1.1" xmlns="http://www.w3.org/2000/svg" xmlns:xlink="http://www.w3.org/1999/xlink">
    <title>btn/wode/daifahuo</title>
    <defs>
        <radialGradient cx="14.425617%" cy="-12.4511645%" fx="14.425617%" fy="-12.4511645%" r="122.877452%" id="radialGradient-1">
            <stop stop-color="#FFB093" offset="0%"></stop>
            <stop stop-color="#F30300" offset="100%"></stop>
        </radialGradient>
    </defs>
    <g id="21商城" stroke="none" stroke-width="1" fill="none" fill-rule="evenodd">
        <g id="02商云-我的" transform="translate(-130.000000, -237.000000)">
            <g id="06卡片/b应用按钮卡片备份" transform="translate(15.000000, 191.000000)">
                <g id="编组-5" transform="translate(27.500000, 46.000000)">
                    <g id="btn/wode/daifahuo" transform="translate(87.500000, 0.000000)">
                        <g id="轮廓" transform="translate(3.762645, 2.390485)">
                            <path d="M18.4388004,0.114498339 C19.7680937,0.114498339 21.0105423,0.774856848 21.7542296,1.87664695 L24.0349012,5.25300412 C24.3482055,5.71600517 24.5636435,6.07655459 24.6895004,6.3594496 C24.7705233,6.54156909 24.8242275,6.70648344 24.8431648,6.88291355 C24.9245584,7.16692086 24.9760968,7.4634694 24.9934564,7.76911445 L25,8 L25,22 C25,24.1421954 23.3160315,25.8910789 21.1996403,25.9951047 L21,26 L4,26 C1.85780461,26 0.108921124,24.3160315 0.00489530723,22.1996403 L0,22 L0,8 C0,7.29423479 0.182783206,6.63116088 0.503593723,6.05553417 C0.600228483,5.84040568 0.719132129,5.61372252 0.860527421,5.37442494 L1.03853916,5.08080884 L1.2511164,4.74399082 L1.49836299,4.36378658 L1.93446509,3.7117279 L2.26883942,3.22225181 L3.25827115,1.80552171 C3.96385288,0.807404069 5.08417507,0.190165368 6.29628974,0.121002745 L6.5245581,0.114498339 L18.4388004,0.114498339 Z M21,6 L4,6 C3.27993784,6 2.64875258,6.38052726 2.29656932,6.95145667 C2.26408132,7.03393028 2.24178532,7.10281866 2.22909483,7.15903445 L2.2183291,7.22146354 L2.16015538,7.21448889 C2.07768354,7.40740709 2.0246672,7.61592193 2.00675954,7.83438022 L2,8 L2,22 C2,23.0543618 2.81587779,23.9181651 3.85073766,23.9945143 L4,24 L21,24 C22.0543618,24 22.9181651,23.1841222 22.9945143,22.1492623 L23,22 L23,8 C23,6.9456382 22.1841222,6.08183488 21.1492623,6.00548574 L21,6 Z M18.4388004,2.11449834 L6.5245581,2.11449834 C5.87519669,2.11449834 5.26625453,2.42976019 4.89141439,2.96000996 L4.163,3.99949834 L20.774,3.99949834 L20.0965176,2.99557092 C19.7556619,2.49058521 19.2052565,2.17106093 18.6039392,2.12131372 L18.4388004,2.11449834 Z" id="形状" fill="#222222" fill-rule="nonzero"></path>
                            <path d="M6,6.11449834 L19,6.11449834 L19,17.5625404 C19.0000042,18.1148274 18.5522871,18.5625445 18,18.5625445 C17.8619685,18.5625445 17.7254317,18.5339688 17.5989849,18.4786164 C15.1731394,17.4166949 13.4460438,16.8857342 12.4176982,16.8857342 C11.3976827,16.8857342 9.7287727,17.4081277 7.41096831,18.4529147 C6.90747022,18.6798998 6.315306,18.4557169 6.08834199,17.9522093 C6.03011245,17.8230302 6,17.6829513 6,17.5412546 L6,6.11449834 L6,6.11449834 Z" id="矩形" fill="url(#radialGradient-1)"></path>
                            <circle id="椭圆形" fill="#FFFFFF" cx="10" cy="11.5" r="1.5"></circle>
                            <circle id="椭圆形备份-2" fill="#FFFFFF" cx="15" cy="11.5" r="1.5"></circle>
                        </g>
                    </g>
                </g>
            </g>
        </g>
    </g>
</svg>