<?xml version="1.0" encoding="UTF-8"?>
<svg width="22px" height="22px" viewBox="0 0 22 22" version="1.1" xmlns="http://www.w3.org/2000/svg" xmlns:xlink="http://www.w3.org/1999/xlink">
    <title>btn/wode/kefu</title>
    <g id="btn/wode/kefu" stroke="none" stroke-width="1" fill="none" fill-rule="evenodd">
        <g id="轮廓" fill="#222222" transform="translate(0.700000, 0.921136)">
            <path d="M10.1063084,-6.66133815e-15 C13.5874977,-6.66133815e-15 16.6103999,2.37304906 17.7446035,5.78391152 L17.9,5.77886392 C19.5016258,5.77886392 20.8,7.07723814 20.8,8.67886392 L20.8,8.67886392 L20.8,9.67886392 C20.8,11.2804897 19.5016258,12.5788639 17.9,12.5788639 L18.0471687,12.5747776 C17.0412523,15.399334 15.126023,17.4889193 12.8182885,18.2430973 C12.575408,19.0731983 11.8084344,19.6788639 10.9,19.6788639 L9.56666667,19.6788639 C8.46209717,19.6788639 7.56666667,18.7834334 7.56666667,17.6788639 C7.56666667,16.5742944 8.46209717,15.6788639 9.56666667,15.6788639 L10.9,15.6788639 C11.5411846,15.6788639 12.1118975,15.9805894 12.4778996,16.4498014 C14.0991455,15.8279619 15.5028265,14.2632364 16.3047882,12.0997995 C15.5182147,11.5815276 15,10.6907135 15,9.67886392 L15,9.67886392 L15,8.67886392 C15,7.77490183 15.4135978,6.96754068 16.0618795,6.4356944 C15.1870887,3.68890629 12.8087983,1.8 10.1063084,1.8 C7.50726346,1.8 5.21082479,3.54678528 4.25836599,6.11724805 C5.17571821,6.6035046 5.8,7.56827985 5.8,8.67886392 L5.8,8.67886392 L5.8,9.67886392 C5.8,11.2804897 4.50162577,12.5788639 2.9,12.5788639 C1.29837423,12.5788639 -4.61852778e-14,11.2804897 -4.61852778e-14,9.67886392 L-4.61852778e-14,9.67886392 L-4.61852778e-14,8.67886392 C-4.61852778e-14,7.22700055 1.06691367,6.02432823 2.45948076,5.8121072 C3.58387894,2.38990467 6.6122485,-6.66133815e-15 10.1063084,-6.66133815e-15 Z M11.9,10.9288639 C12.3142136,10.9288639 12.65,11.2646504 12.65,11.6788639 C12.65,13.197647 11.4187831,14.4288639 9.9,14.4288639 C8.38121694,14.4288639 7.15,13.197647 7.15,11.6788639 C7.15,11.2646504 7.48578644,10.9288639 7.9,10.9288639 C8.27969577,10.9288639 8.59349096,11.2110178 8.64315338,11.5770934 L8.65,11.6788639 C8.65,12.3692199 9.20964406,12.9288639 9.9,12.9288639 C10.5472087,12.9288639 11.0795339,12.4369893 11.1435464,11.8066692 L11.15,11.6788639 C11.15,11.2646504 11.4857864,10.9288639 11.9,10.9288639 Z M2.9,7.57886392 C2.29248678,7.57886392 1.8,8.07135069 1.8,8.67886392 L1.8,8.67886392 L1.8,9.67886392 C1.8,10.2863771 2.29248678,10.7788639 2.9,10.7788639 C3.50751322,10.7788639 4,10.2863771 4,9.67886392 L4,9.67886392 L4,8.67886392 C4,8.07135069 3.50751322,7.57886392 2.9,7.57886392 Z M17.9,7.57886392 C17.2924868,7.57886392 16.8,8.07135069 16.8,8.67886392 L16.8,8.67886392 L16.8,9.67886392 C16.8,10.2863771 17.2924868,10.7788639 17.9,10.7788639 C18.5075132,10.7788639 19,10.2863771 19,9.67886392 L19,9.67886392 L19,8.67886392 C19,8.07135069 18.5075132,7.57886392 17.9,7.57886392 Z" id="形状结合"></path>
        </g>
    </g>
</svg>