<?xml version="1.0" encoding="UTF-8"?>
<svg width="155px" height="120px" viewBox="0 0 155 120" version="1.1" xmlns="http://www.w3.org/2000/svg" xmlns:xlink="http://www.w3.org/1999/xlink">
    <!-- Generator: Sketch 60 (88103) - https://sketch.com -->
    <title>bg_mall_circle1</title>
    <desc>Created with Sketch.</desc>
    <defs>
        <linearGradient x1="92.943189%" y1="74.1571269%" x2="39.9054457%" y2="40.6166049%" id="linearGradient-1">
            <stop stop-color="#FFFFFF" stop-opacity="0.0706402972" offset="0%"></stop>
            <stop stop-color="#37D1ED" stop-opacity="0.564138986" offset="100%"></stop>
        </linearGradient>
        <path d="M29.5,-68 C67.8837901,-68 99,-37.555363 99,0 C99,37.555363 67.8837901,68 29.5,68 C-8.88379011,68 -40,37.555363 -40,0 C-40,-37.555363 -8.88379011,-68 29.5,-68 Z M30.5,-49 C3.16190488,-49 -19,-27.2858104 -19,-0.5 C-19,26.2858104 3.16190488,48 30.5,48 C57.8380951,48 80,26.2858104 80,-0.5 C80,-27.2858104 57.8380951,-49 30.5,-49 Z" id="path-2"></path>
        <filter x="-63.3%" y="-63.2%" width="226.6%" height="229.4%" filterUnits="objectBoundingBox" id="filter-3">
            <feOffset dx="0" dy="2" in="SourceAlpha" result="shadowOffsetOuter1"></feOffset>
            <feGaussianBlur stdDeviation="29" in="shadowOffsetOuter1" result="shadowBlurOuter1"></feGaussianBlur>
            <feColorMatrix values="0 0 0 0 0   0 0 0 0 0.290831845   0 0 0 0 0.517889493  0 0 0 1 0" type="matrix" in="shadowBlurOuter1"></feColorMatrix>
        </filter>
    </defs>
    <g id="17商城" stroke="none" stroke-width="1" fill="none" fill-rule="evenodd" opacity="0.232886905">
        <g id="35.1弹框大小" transform="translate(-40.000000, -1203.000000)">
            <g id="弹框备份-8" transform="translate(40.000000, 1203.000000)">
                <g id="弹框">
                    <g id="编组-11">
                        <g id="bg_mall_fuwushouquan">
                            <g id="bg_mall_circle1">
                                <use fill="black" fill-opacity="1" filter="url(#filter-3)" xlink:href="#path-2"></use>
                                <use fill="url(#linearGradient-1)" fill-rule="evenodd" xlink:href="#path-2"></use>
                            </g>
                        </g>
                    </g>
                </g>
            </g>
        </g>
    </g>
</svg>