<svg id="icon_route_people" xmlns="http://www.w3.org/2000/svg" width="24" height="24" viewBox="0 0 24 24">
  <defs>
    <style>
      .cls-1, .cls-2 {
       
      }

      .cls-2 {
        
      }
    </style>
  </defs>
  <circle id="椭圆_1110" data-name="椭圆 1110" class="cls-1" cx="8.92" cy="3.095" r="3.08"/>
  <path id="形状_1112" data-name="形状 1112" class="cls-2" d="M4257.88,1917.58l-3.86-9.29a1.38,1.38,0,0,1,.78-1.55,1.35,1.35,0,0,1,1.54.78l3.86,9.29h5.4s1.54,0.09,1.54.77c0.01,1.99-1.54,1.55-1.54,1.55h-6.17S4258.6,1919.2,4257.88,1917.58Z" transform="translate(-4250.5 -1899)"/>
  <path id="形状_1113" data-name="形状 1113" class="cls-2" d="M4257.88,1908.29l3.09,6.97h6.94v6.97s0.04,0.77,1.55.77,1.54-.77,1.54-0.77v-7.75s-0.31-2.32-2.31-2.32h-3.86l-2.32-5.42s-1.48-1.63-3.08-.77A2.68,2.68,0,0,0,4257.88,1908.29Z" transform="translate(-4250.5 -1899)"/>
</svg>
