<?xml version="1.0" encoding="UTF-8"?>
<svg width="22px" height="22px" viewBox="0 0 22 22" version="1.1" xmlns="http://www.w3.org/2000/svg" xmlns:xlink="http://www.w3.org/1999/xlink">
    <!-- Generator: Sketch 60 (88103) - https://sketch.com -->
    <title>h5 svg/icon/search/clean</title>
    <desc>Created with Sketch.</desc>
    <g id="h5-svg/icon/search/clean" stroke="none" stroke-width="1">
        <g id="编组">
            <circle id="椭圆形" cx="11" cy="11" r="11"></circle>
            <g id="h5-svg/btn/common/关闭" fill="#FFFFFF">
                <path d="M11.0284138,3.47368421 C11.5133586,3.47368421 11.906484,3.86680962 11.906484,4.35175439 L11.9056842,10.2126842 L17.6482456,10.2133132 C18.1331904,10.2133132 18.5263158,10.6064386 18.5263158,11.0913834 C18.5263158,11.5763281 18.1331904,11.9694535 17.6482456,11.9694535 L11.9056842,11.9686842 L11.906484,17.6482456 C11.906484,18.1331904 11.5133586,18.5263158 11.0284138,18.5263158 C10.5434691,18.5263158 10.1503437,18.1331904 10.1503437,17.6482456 L10.1496842,11.9686842 L4.35175439,11.9694535 C3.86680962,11.9694535 3.47368421,11.5763281 3.47368421,11.0913834 C3.47368421,10.6064386 3.86680962,10.2133132 4.35175439,10.2133132 L10.1496842,10.2126842 L10.1503437,4.35175439 C10.1503437,3.86680962 10.5434691,3.47368421 11.0284138,3.47368421 Z" id="合并形状" transform="translate(11.000000, 11.000000) rotate(45.000000) translate(-11.000000, -11.000000) "></path>
            </g>
        </g>
    </g>
</svg>