<?xml version="1.0" encoding="UTF-8"?>
<svg width="22px" height="22px" viewBox="0 0 22 22" version="1.1" xmlns="http://www.w3.org/2000/svg" xmlns:xlink="http://www.w3.org/1999/xlink">
    <!-- Generator: Sketch 60 (88103) - https://sketch.com -->
    <title>h5 svg/icon/mall/lianxiren</title>
    <desc>Created with Sketch.</desc>
    <g id="h5-svg/icon/mall/lianxiren" stroke="none" stroke-width="1" fill="none" fill-rule="evenodd">
        <g id="编组-5" transform="translate(1.375000, 1.375000)" fill="#666666">
            <path d="M9.625,0.48125 C12.6815509,0.48125 15.159375,2.95907409 15.159375,6.015625 C15.159375,8.61150644 13.3721596,10.7899613 10.9610692,11.3876492 C15.3102429,11.8963336 18.76875,14.8456869 18.76875,18.390625 C18.76875,18.8842295 18.3686045,19.284375 17.875,19.284375 C17.3813955,19.284375 16.98125,18.8842295 16.98125,18.390625 C16.98125,15.600564 13.6832568,13.096875 9.625,13.096875 C5.56674325,13.096875 2.26875,15.600564 2.26875,18.390625 C2.26875,18.8842295 1.8686045,19.284375 1.375,19.284375 C0.881395505,19.284375 0.48125,18.8842295 0.48125,18.390625 C0.48125,14.8456869 3.93975713,11.8963336 8.28896959,11.3870994 C5.87767672,10.7897618 4.090625,8.61138753 4.090625,6.015625 C4.090625,2.95907409 6.56844909,0.48125 9.625,0.48125 Z M9.625,2.26875 C7.55565808,2.26875 5.878125,3.94628308 5.878125,6.015625 C5.878125,8.08496692 7.55565808,9.7625 9.625,9.7625 C11.6943419,9.7625 13.371875,8.08496692 13.371875,6.015625 C13.371875,3.94628308 11.6943419,2.26875 9.625,2.26875 Z" id="形状结合"></path>
        </g>
    </g>
</svg>