<?xml version="1.0" encoding="UTF-8"?>
<svg width="22px" height="22px" viewBox="0 0 22 22" version="1.1" xmlns="http://www.w3.org/2000/svg" xmlns:xlink="http://www.w3.org/1999/xlink">
    <g stroke="none" stroke-width="1" fill-rule="evenodd">
        <path d="M11,1.22222222 C16.4001176,1.22222222 20.7777778,5.59988245 20.7777778,11 C20.7777778,16.4001176 16.4001176,20.7777778 11,20.7777778 C5.59988245,20.7777778 1.22222222,16.4001176 1.22222222,11 C1.22222222,5.59988245 5.59988245,1.22222222 11,1.22222222 Z M11.4522222,4.70555556 L10.5477778,4.70555556 L10.5477778,6.64888889 L6.33111111,6.64888889 L6.33111111,7.50444444 L10.5477778,7.50444444 L10.5477778,9.81444444 L5.56111111,9.81444444 L5.56111111,10.67 L9.61888889,10.67 C8.51888889,12.87 7.44333333,14.2511111 6.39222222,14.8255556 L6.55111111,15.5466667 C9.09333333,15.4 11.7822222,15.18 14.6177778,14.8866667 C14.8377778,15.2533333 15.0455556,15.62 15.2411111,15.9744444 L15.9866667,15.4488889 C15.3266667,14.2511111 14.3733333,12.8577778 13.1266667,11.2444444 L12.4177778,11.6966667 C13.0655556,12.5522222 13.6522222,13.3711111 14.1655556,14.1533333 L13.74098,14.203597 C12.5196296,14.3413443 10.5858025,14.5091358 7.95666667,14.7155556 C8.84888889,13.8477778 9.72888889,12.5033333 10.5966667,10.67 L16.4266667,10.67 L16.4266667,9.81444444 L11.4522222,9.81444444 L11.4522222,7.50444444 L15.6444444,7.50444444 L15.6444444,6.64888889 L11.4522222,6.64888889 L11.4522222,4.70555556 Z"></path>
    </g>
</svg>