<?xml version="1.0" encoding="UTF-8"?>
<svg width="22px" height="22px" viewBox="0 0 22 22" version="1.1" xmlns="http://www.w3.org/2000/svg" xmlns:xlink="http://www.w3.org/1999/xlink">
    <!-- Generator: Sketch 60 (88103) - https://sketch.com -->
    <title>h5 svg/icon/plane/supplier</title>
    <desc>Created with Sketch.</desc>
    <g id="h5-svg/icon/plane/supplier" stroke="none" stroke-width="1" fill-rule="evenodd">
        <g id="我的供应商" >
            <path d="M11,0 C15.6566738,0 19.4455508,3.72777539 19.4455508,8.32332617 C19.4455508,9.64332617 19.1277754,10.89 18.5777754,11.99 L18.5777754,11.99 L22,17.8322031 C22,17.8322031 19.8244492,18.2722031 17.6244492,18.7244492 L17.6244492,18.7244492 L14.6911016,22 L11.5377754,16.6222246 C11.3544492,16.6344277 11.1833262,16.6466738 11,16.6466738 L11,16.6466738 L10.4622246,16.6222246 L7.30889844,22 L4.37555078,18.7244492 C2.17555078,18.2722246 0,17.8322246 0,17.8322246 L0,17.8322246 L3.42220313,11.99 C2.87220312,10.8777754 2.55444922,9.64332617 2.55444922,8.32332617 C2.55444922,3.72777539 6.33110156,0 11,0 Z M11,1.36889844 C7.21110156,1.36889844 4.13110156,4.44889844 4.13110156,8.25 C4.13110156,12.0511016 7.21110156,15.1311016 11,15.1311016 C14.7888984,15.1311016 17.8688984,12.0511016 17.8688984,8.25 C17.8688984,4.44889844 14.7888984,1.36889844 11,1.36889844 Z M10.9272727,9.41853035 L11.740107,9.81043663 C11.3037433,10.6453674 10.7903743,11.3780618 10.1914439,12 L10.1914439,12 L9.41283422,11.4376997 C9.99465241,10.8753994 10.4994652,10.2023429 10.9272727,9.41853035 L10.9272727,9.41853035 Z M13.3315508,9.34185304 C14.0331551,10.1341853 14.5636364,10.8242812 14.940107,11.4121406 L14.940107,11.4121406 L14.1358289,11.9744409 C13.7593583,11.3269436 13.2459893,10.6027689 12.5957219,9.80191693 L12.5957219,9.80191693 Z M8.92513369,4 L9.77219251,4.39190628 C9.55828877,5.03940362 9.27593583,5.66134185 8.93368984,6.24920128 L8.93368984,6.24920128 L8.93368984,11.9659212 L8.02673797,11.9659212 L8.02673797,7.55271565 C7.79572193,7.82534611 7.54759358,8.09797657 7.29090909,8.37060703 L7.29090909,8.37060703 L7,7.41640043 C7.86417112,6.45367412 8.50588235,5.31203408 8.92513369,4 L8.92513369,4 Z M11.5604278,4.10223642 L11.5604278,5.79765708 L12.8181818,5.79765708 L12.8181818,4.10223642 L13.7165775,4.10223642 L13.7165775,5.79765708 L14.7604278,5.79765708 L14.7604278,6.66666667 L13.7165775,6.66666667 L13.7165775,8.38764643 L15,8.38764643 L15,9.24813632 L9.41283422,9.24813632 L9.41283422,8.38764643 L10.6534759,8.38764643 L10.6534759,6.66666667 L9.64385027,6.66666667 L9.64385027,5.79765708 L10.6534759,5.79765708 L10.6534759,4.10223642 L11.5604278,4.10223642 Z M12.8181818,6.66666667 L11.5604278,6.66666667 L11.5604278,8.38764643 L12.8181818,8.38764643 L12.8181818,6.66666667 Z" id="形状结合"></path>
        </g>
    </g>
</svg>