<?xml version="1.0" encoding="UTF-8"?>
<svg width="22px" height="22px" viewBox="0 0 22 22" version="1.1" xmlns="http://www.w3.org/2000/svg" xmlns:xlink="http://www.w3.org/1999/xlink">
    <!-- Generator: Sketch 60 (88103) - https://sketch.com -->
    <title>h5 svg/icon/plane/bao</title>
    <desc>Created with Sketch.</desc>
    <g id="h5-svg/icon/plane/bao" stroke="none" stroke-width="1" fill-rule="evenodd">
        <path d="M10.8575481,0.458333333 L20.6586785,3.21254781 L20.733989,3.75048033 C20.8092996,4.58965505 21.0352313,7.80649149 20.1960565,11.2600182 C18.8942598,16.6931366 15.752734,20.372595 11.0834797,21.9003234 L11.0834797,21.9003234 L10.8575481,21.9756339 L10.6316164,21.9003234 C5.81174108,20.1466634 2.74552574,16.6178261 1.51903961,11.2600182 C0.755175439,7.80649149 0.905796543,4.82634536 0.981107095,3.75048033 L0.981107095,3.75048033 L1.05641765,3.21254781 L10.8575481,0.458333333 Z M8.48066667,5.71833333 L8.3808207,5.71948547 C8.2427657,5.72878094 8.13776127,5.77525831 8.06029899,5.86993443 C7.96347114,5.98827959 7.87740194,6.17117664 7.81285004,6.4401429 C7.74829813,6.77366106 7.66222893,7.08566192 7.57615973,7.38690413 C7.49009053,7.68814634 7.38250402,7.97862989 7.26415887,8.26911345 C7.14581372,8.55959701 7.00595126,8.83932192 6.85533016,9.11904683 C6.70470905,9.39877173 6.53257065,9.68925529 6.33891494,9.97973885 C6.14525924,10.2809811 6.04843139,10.4961541 6.04843139,10.6467752 C6.04843139,10.7973963 6.13450059,10.9265001 6.32815629,11.0340866 C6.4787774,11.1309144 6.6078812,11.173949 6.73698501,11.1631904 C6.85533016,11.1524317 6.99519261,11.0663625 7.14581372,10.9049828 L7.14581372,10.9049828 L7.14581372,14.5306479 C7.14581372,14.928718 7.33946942,15.1223737 7.73753948,15.1223737 C7.89891924,15.1223737 8.03878169,15.0685804 8.15712685,14.9717526 C8.275472,14.8749247 8.32926525,14.7243036 8.32926525,14.5198893 L8.32926525,14.5198893 L8.32926525,13.8743703 C8.3400239,13.8958876 8.3615412,13.9174049 8.3830585,13.9604395 C8.47988635,14.1325779 8.61974881,14.2186471 8.81340451,14.2401644 C9.00706022,14.250923 9.25450918,14.1648538 9.56651003,13.9711981 C9.9645801,13.7022319 10.2980983,13.4655415 10.5563059,13.2503685 C10.8145135,13.0244369 11.0512038,12.7877466 11.2556181,12.529539 L11.2556181,12.529539 L11.2663768,14.5306479 C11.2663768,14.7350623 11.32017,14.8856834 11.4169979,14.9717526 C11.5138257,15.0578218 11.6536882,15.1008564 11.8473439,15.1008564 C12.0409996,15.1008564 12.1808621,15.0578218 12.2776899,14.9717526 C12.3745178,14.8856834 12.4175524,14.7350623 12.4175524,14.5306479 L12.4175524,14.5306479 L12.4067937,12.28209 C12.6542427,12.6048495 12.9339676,12.9060917 13.2352098,13.1965753 C13.536452,13.4870588 13.9130048,13.7883011 14.3541094,14.1003019 C14.5800411,14.2616817 14.7736968,14.3477509 14.9458352,14.3585095 C15.1179736,14.3692682 15.2685947,14.2939576 15.3976985,14.1218192 L15.3976985,14.1218192 L15.4084571,14.1003019 C15.473009,14.0034741 15.5268023,13.9066462 15.5483196,13.820577 C15.5698369,13.7237492 15.5698369,13.6484386 15.537561,13.5623694 C15.505285,13.4763002 15.4407331,13.390231 15.3439052,13.3041618 C15.2470774,13.2180926 15.1179736,13.1105061 14.9458352,13.0029196 C14.6768689,12.8307812 14.3756267,12.6048495 14.0528672,12.314366 C13.7301077,12.0346411 13.3750722,11.6796056 13.0092781,11.2707769 L13.0092781,11.2707769 L14.9135592,11.2707769 C15.1287322,11.2707769 15.2685947,11.2169836 15.3546639,11.1093971 C15.4407331,11.0018106 15.4837677,10.8619482 15.4837677,10.6898098 C15.4837677,10.5069127 15.4407331,10.3562916 15.3654225,10.2594638 C15.2793533,10.1626359 15.1394909,10.1088427 14.9135592,10.1088427 L14.9135592,10.1088427 L12.3960351,10.1088427 L12.3960351,9.58166879 L13.6010039,9.58166879 C13.9775567,9.58166879 14.2250056,9.49559959 14.3648681,9.32346118 C14.5047305,9.16208143 14.5692824,8.90387382 14.5692824,8.54883836 L14.5692824,8.54883836 L14.5692824,7.11793787 C14.5692824,6.76290241 14.5047305,6.49393615 14.3541094,6.3325564 C14.214247,6.17117664 13.966798,6.08510744 13.6117625,6.08510744 L13.6117625,6.08510744 L10.1905118,6.08510744 C9.81395899,6.08510744 9.55575138,6.17117664 9.41588893,6.3325564 C9.27602648,6.49393615 9.20071592,6.75214376 9.20071592,7.10717922 L9.20071592,7.10717922 L9.20071592,8.54883836 C9.20071592,8.89311517 9.27602648,9.15132278 9.41588893,9.32346118 C9.56651003,9.49559959 9.82471764,9.58166879 10.1905118,9.58166879 L10.1905118,9.58166879 L11.2448595,9.58166879 L11.2448595,10.1088427 L9.24375053,10.1088427 C9.01781887,10.1088427 8.86719776,10.1626359 8.79188721,10.2594638 C8.71657666,10.3562916 8.68430071,10.4961541 8.68430071,10.6898098 C8.68430071,10.8619482 8.72733531,11.0018106 8.80264586,11.1093971 C8.87795642,11.2169836 9.02857752,11.2707769 9.24375053,11.2707769 L9.24375053,11.2707769 L10.7499616,11.2707769 C10.4056848,11.6580883 10.0721666,11.9916065 9.73864844,12.2605727 C9.40513028,12.5402976 9.11464672,12.744712 8.85643911,12.8845744 C8.58747286,13.0351955 8.41533445,13.175058 8.32926525,13.3149204 L8.32926525,13.3149204 L8.32926525,8.71021811 C8.4691277,8.37669995 8.59823151,8.03242314 8.71657666,7.68814634 C8.83492181,7.34386953 8.92099102,6.99959272 8.99630157,6.64455726 C9.05009482,6.3971083 9.02857752,6.19269394 8.94250832,6.00979689 C8.86719776,5.82689983 8.70581801,5.73007198 8.47988635,5.71931333 L8.48066667,5.71833333 Z M13.07383,7.23628302 C13.1491406,7.23628302 13.2136925,7.25780032 13.2567271,7.27931762 C13.3105203,7.31159357 13.3427963,7.34386953 13.3643136,7.37614548 C13.3858309,7.40842143 13.4073482,7.45145603 13.4073482,7.49449063 C13.4181068,7.53752523 13.4181068,7.56980118 13.4073482,7.60207713 L13.4073482,7.60207713 L13.4073482,8.03242314 C13.4073482,8.1722856 13.3750722,8.2798721 13.321279,8.344424 C13.2674857,8.40897591 13.1921752,8.44125186 13.0845887,8.43049321 L10.7392029,8.43049321 C10.6100991,8.43049321 10.5132713,8.39821726 10.459478,8.344424 C10.4056848,8.2798721 10.3841675,8.18304425 10.3841675,8.03242314 L10.3841675,8.03242314 L10.3626502,8.03242314 L10.3626502,7.51600793 C10.3626502,7.33311088 10.4702367,7.23628302 10.674651,7.23628302 L10.674651,7.23628302 Z" id="形状结合" ></path>
    </g>
</svg>