<?xml version="1.0" encoding="UTF-8"?>
<svg width="31px" height="17px" viewBox="0 0 31 17" version="1.1" xmlns="http://www.w3.org/2000/svg" xmlns:xlink="http://www.w3.org/1999/xlink">
    <!-- Generator: Sketch 60 (88103) - https://sketch.com -->
    <title>h5 svg/icon/mall/company@2x</title>
    <desc>Created with Sketch.</desc>
    <g id="08飞机票" stroke="none" stroke-width="1" fill-rule="evenodd">
        <g id="21支付" transform="translate(-247.000000, -256.000000)" fill-rule="nonzero">
            <g id="结果" transform="translate(0.000000, 62.000000)">
                <g id="h5-svg/icon/mall/company" transform="translate(247.000000, 194.000000)">
                    <g id="icon/common_-icon/common_default备份-2">
                        <path d="M30.5,0.5 L30.5,10.5 C30.5,13.8137085 27.8137085,16.5 24.5,16.5 L0.5,16.5 L0.5,6.5 C0.5,3.1862915 3.1862915,0.5 6.5,0.5 L30.5,0.5 Z M29.8,1.2 L6.5,1.2 C3.64606856,1.2 1.31899093,3.45572934 1.20442075,6.28153439 L1.2,6.5 L1.2,15.8 L24.5,15.8 C27.3539314,15.8 29.6810091,13.5442707 29.7955792,10.7184656 L29.8,10.5 L29.8,1.2 Z M18.62,3.86 L18.62,5.75 L19.78,5.75 L19.78,6.44 L18.62,6.44 L18.62,7.21 C19.11,7.71 19.6,8.27 20.09,8.88 L20.09,8.88 L19.68,9.49 C19.27,8.86 18.92,8.36 18.62,7.98 L18.62,7.98 L18.62,12.99 L17.91,12.99 L17.91,8.01 C17.59,8.95 17.18,9.81 16.68,10.59 L16.68,10.59 L16.37,9.81 C17.09,8.83 17.6,7.7 17.91,6.44 L17.91,6.44 L16.69,6.44 L16.69,5.75 L17.91,5.75 L17.91,3.86 L18.62,3.86 Z M9.05,3.82 L9.05,5.18 L10.55,5.18 L10.55,5.82 L9.05,5.82 L9.05,7.3 L10.53,7.3 L10.53,7.96 L9.25,7.96 L9.25,9.37 L10.54,9.37 L10.54,10.03 L9.25,10.03 L9.25,11.77 C9.31,11.8 9.36,11.82 9.41,11.84 C10,12.04 11.36,12.15 13.48,12.15 C14.4,12.14 15.09,12.13 15.54,12.11 L15.54,12.11 L15.42,12.83 L13.3062199,12.8290721 C11.010124,12.816095 9.56181818,12.6672727 8.97,12.4 C8.43,12.15 7.94,11.71 7.52,11.08 C7.38,11.76 7.2,12.39 6.96,12.98 L6.96,12.98 L6.44,12.51 C6.88,11.35 7.13,10.04 7.17,8.6 L7.17,8.6 L7.79,8.67 C7.77,9.19 7.73,9.69 7.67,10.17 C7.93,10.66 8.23,11.05 8.57,11.34 L8.57,11.34 L8.57,7.96 L6.72,7.96 L6.72,7.3 L8.36,7.3 L8.36,5.82 L6.84,5.82 L6.84,5.18 L8.36,5.18 L8.36,3.82 L9.05,3.82 Z M25.57,6.86 L25.57,7.55 L23.12,7.55 L23.12,12 C23.12,12.59 22.82,12.89 22.24,12.89 L22.24,12.89 L21.22,12.89 L21.08,12.22 C21.4,12.24 21.7,12.26 21.99,12.26 C22.26,12.26 22.4,12.11 22.4,11.82 L22.4,11.82 L22.4,7.55 L19.96,7.55 L19.96,6.86 L25.57,6.86 Z M24.48,8.33 C24.9,9.46 25.26,10.67 25.56,11.95 L25.56,11.95 L24.91,12.24 C24.58,10.85 24.22,9.62 23.83,8.54 L23.83,8.54 Z M20.86,8.38 L21.52,8.53 C21.2,9.93 20.73,11.13 20.13,12.15 L20.13,12.15 L19.51,11.75 C20.13,10.74 20.58,9.62 20.86,8.38 L20.86,8.38 Z M14.99,8.42 L14.99,11.53 L11.15,11.53 L11.15,8.42 L14.99,8.42 Z M14.33,9.06 L11.79,9.06 L11.79,10.9 L14.33,10.9 L14.33,9.06 Z M15.13,4.32 C15.13,6.02 15.03,7.04 14.84,7.38 C14.66,7.72 14.34,7.89 13.88,7.89 C13.68,7.89 13.45,7.87 13.17,7.85 L13.17,7.85 L12.99,7.22 L13.72,7.27 C14.03,7.26 14.22,7.13 14.3,6.88 C14.38,6.64 14.43,6.01 14.44,4.98 L14.44,4.98 L12.94,4.98 C12.81,5.69 12.64,6.25 12.42,6.67 C12.14,7.16 11.73,7.6 11.19,7.98 L11.19,7.98 L10.72,7.39 C11.2,7.07 11.56,6.72 11.8,6.34 C12.01,5.99 12.17,5.54 12.27,4.98 L12.27,4.98 L10.89,4.98 L10.89,4.32 Z M25.05,4.43 L25.05,5.11 L20.49,5.11 L20.49,4.43 L25.05,4.43 Z" id="icon_plane_chaobiao"></path>
                    </g>
                </g>
            </g>
        </g>
    </g>
</svg>