<?xml version="1.0" encoding="UTF-8"?>
<svg width="22px" height="22px" viewBox="0 0 22 22" version="1.1" xmlns="http://www.w3.org/2000/svg" xmlns:xlink="http://www.w3.org/1999/xlink">
    <!-- Generator: Sketch 60 (88103) - https://sketch.com -->
    <title>h5 svg/icon/mall/shangchuan</title>
    <desc>Created with Sketch.</desc>
    <g id="h5-svg/icon/mall/shangchuan" stroke="none" stroke-width="1" fill-rule="evenodd">
        <g transform="translate(0.000000, 1.833333)" id="形状结合">
            <path d="M12.5024421,0.366666667 C13.7094321,0.366666667 14.2946966,0.875582918 15.1828723,2.21511022 L15.1828723,2.21511022 L15.4573685,2.62173825 L15.5228333,2.71333333 L19.4695208,2.71379099 C20.6075481,2.712737 21.5516079,3.58166042 21.6283038,4.68233965 L21.6283038,4.68233965 L21.6333333,4.82716836 L21.6333333,15.8524673 C21.6333333,17.0205229 20.6573971,17.9666667 19.4699974,17.9666667 L19.4699974,17.9666667 L2.53000263,17.9666667 C1.34242772,17.9666667 0.366666667,17.0203486 0.366666667,15.8516423 L0.366666667,15.8516423 L0.366666667,4.82716514 C0.366666667,3.65976023 1.34277818,2.71379075 2.53000263,2.71379075 L2.53000263,2.71379075 L6.47716667,2.71333333 L6.55664452,2.60222638 L6.94937674,2.01957258 C7.76591638,0.826631478 8.34999217,0.36791461 9.49364275,0.366666667 L9.49364275,0.366666667 Z M12.5024421,1.46666634 L9.49484275,1.46666634 C8.78055861,1.46744556 8.43317353,1.76984025 7.73502853,2.8221822 L7.73502853,2.8221822 L7.44979953,3.24464294 C7.4007242,3.31483962 7.35578715,3.37708412 7.31126245,3.43638348 L7.31126245,3.43638348 L7.17519947,3.61045315 C7.07076299,3.73909101 6.91389847,3.81379075 6.74820394,3.81379075 L6.74820394,3.81379075 L2.53000263,3.81379075 C1.94270429,3.81379075 1.46666667,4.27512847 1.46666667,4.82716514 L1.46666667,4.82716514 L1.46666667,15.8516423 C1.46666667,16.4051655 1.94252665,16.8666667 2.53000263,16.8666667 L2.53000263,16.8666667 L19.4699974,16.8666667 C20.0573846,16.8666667 20.5333333,16.4052472 20.5333333,15.8524673 L20.5333333,15.8524673 L20.5333333,4.82716836 C20.5333333,4.27439248 20.0575013,3.8132469 19.4700302,3.81379075 L19.4700302,3.81379075 L15.2518289,3.81379075 C15.0859737,3.81379075 14.9289749,3.73894678 14.8245446,3.61009714 C14.7064691,3.46441174 14.6088761,3.33146485 14.4740605,3.13363774 L14.4740605,3.13363774 L14.1462915,2.64474312 C13.5252154,1.73473322 13.1772392,1.46666634 12.5024421,1.46666634 L12.5024421,1.46666634 Z M11,5.79079997 C13.3705703,5.79079997 15.2925334,7.7126489 15.2925334,10.0830067 C15.2925334,12.453906 13.3706947,14.3758667 11,14.3758667 C8.62931385,14.3758667 6.70746663,12.4539019 6.70746663,10.0830067 C6.70746663,7.71264482 8.62942114,5.79079997 11,5.79079997 Z M11,6.89079997 C9.23692032,6.89079997 7.80746663,8.32017209 7.80746663,10.0830067 C7.80746663,11.8464037 9.23684214,13.2758667 11,13.2758667 C12.7631659,13.2758667 14.1925334,11.8464084 14.1925334,10.0830067 C14.1925334,8.32017675 12.7630717,6.89079997 11,6.89079997 Z M5.21719632,0.689044189 C5.52095293,0.689044189 5.76719632,0.935287577 5.76719632,1.23904419 C5.76719632,1.51242514 5.56773917,1.73922038 5.30640917,1.78184562 L5.21719632,1.78904419 L3.20833333,1.78904419 C2.90457672,1.78904419 2.65833333,1.5428008 2.65833333,1.23904419 C2.65833333,0.965663238 2.85779048,0.738867999 3.11912048,0.696242761 L3.20833333,0.689044189 L5.21719632,0.689044189 Z"></path>
        </g>
    </g>
</svg>