<?xml version="1.0" encoding="UTF-8"?>
<svg width="22px" height="22px" viewBox="0 0 22 22" version="1.1" xmlns="http://www.w3.org/2000/svg" xmlns:xlink="http://www.w3.org/1999/xlink">
    <!-- Generator: Sketch 60 (88103) - https://sketch.com -->
    <title>h5 svg/icon/common/calendar</title>
    <desc>Created with Sketch.</desc>
    <g id="h5-svg/icon/common/calendar" stroke="none" stroke-width="1" fill-rule="evenodd">
        <g id="请假" transform="translate(0.000000, 0.000000)">
            <rect id="矩形" opacity="0" x="0" y="0" width="22" height="22"></rect>
            <path d="M2.85185185,20.5555556 C2.0270397,20.5555556 1.33333333,19.9174686 1.33333333,19.0964276 L1.33333333,6.01468353 C1.33333333,5.19364246 2.0270397,4.55555556 2.85185185,4.55555556 L19.1481481,4.55555556 C19.9729603,4.55555556 20.6666667,5.19364246 20.6666667,6.01468353 L20.6666667,18.6666667 C20.6666667,19.7098712 19.8209823,20.5555556 18.7777778,20.5555556 L2.85185185,20.5555556 Z M2.88888889,19 L18.7777778,19 C18.9618727,19 19.1111111,18.8507616 19.1111111,18.6666667 L19.1111111,6.11111111 L2.88888889,6.11111111 L2.88888889,19 Z" id="Path" fill-rule="nonzero"></path>
            <path d="M5.77777778,3.11111111 L5.77777778,7.37505276 C5.77777778,7.80460756 6.15087382,8.15283053 6.61111111,8.15283053 C7.0713484,8.15283053 7.44444444,7.80460756 7.44444444,7.37505276 L7.44444444,3.11111111 C7.44444444,2.68155631 7.0713484,2.33333333 6.61111111,2.33333333 C6.15087382,2.33333333 5.77777778,2.68155631 5.77777778,3.11111111 Z" id="Path-17" fill-rule="nonzero"></path>
            <path d="M14.6666667,3.11111111 L14.6666667,7.37505276 C14.6666667,7.80460756 15.0397627,8.15283053 15.5,8.15283053 C15.9602373,8.15283053 16.3333333,7.80460756 16.3333333,7.37505276 L16.3333333,3.11111111 C16.3333333,2.68155631 15.9602373,2.33333333 15.5,2.33333333 C15.0397627,2.33333333 14.6666667,2.68155631 14.6666667,3.11111111 Z" id="Path-17-Copy" fill-rule="nonzero"></path>
            <path d="M5.7071455,12.1610366 L16.1504026,12.1610366 C16.5799574,12.1610366 16.9281804,11.7879406 16.9281804,11.3277033 C16.9281804,10.867466 16.5799574,10.4943699 16.1504026,10.4943699 L5.7071455,10.4943699 C5.27759069,10.4943699 4.92936772,10.867466 4.92936772,11.3277033 C4.92936772,11.7879406 5.27759069,12.1610366 5.7071455,12.1610366 Z" id="Path-18" fill-rule="nonzero" opacity="0.7"></path>
            <path d="M5.7071455,16.0711001 L10.9893056,16.0711001 C11.4188604,16.0711001 11.7670833,15.6980041 11.7670833,15.2377668 C11.7670833,14.7775295 11.4188604,14.4044334 10.9893056,14.4044334 L5.7071455,14.4044334 C5.27759069,14.4044334 4.92936772,14.7775295 4.92936772,15.2377668 C4.92936772,15.6980041 5.27759069,16.0711001 5.7071455,16.0711001 Z" id="Path-18-Copy" fill-rule="nonzero" opacity="0.7"></path>
        </g>
    </g>
</svg>