<?xml version="1.0" encoding="UTF-8"?>
<svg width="22px" height="22px" viewBox="0 0 22 22" version="1.1" xmlns="http://www.w3.org/2000/svg" xmlns:xlink="http://www.w3.org/1999/xlink">
    <g stroke="none" stroke-width="1" fill-rule="evenodd">
        <g transform="translate(2.000000, 1.000000)">
            <path d="M18.5937643,7.91236618 L18.6,8 L18.6,16.4427342 C18.6,16.6362 18.5069361,16.8156359 18.3536744,16.9274335 L18.2721793,16.9774476 L13.248269,19.5347134 C13.1220196,19.5989768 12.9782184,19.6159996 12.8422581,19.5848887 L12.7421548,19.5525165 L6.937,17.095 L1.23738347,19.5510436 C0.869626141,19.7094694 0.462817084,19.4703692 0.406577817,19.090135 L0.4,19 L0.4,9.89303418 C0.4,9.72910911 0.466960199,9.57386043 0.582821966,9.46178924 L0.658062746,9.40000384 L2.04087719,8.44096392 C2.31317033,8.25211719 2.68699805,8.31976387 2.87584478,8.59205701 C3.04580684,8.83712083 3.00800924,9.16442767 2.8002484,9.36510767 L2.7247517,9.4270246 L1.6,10.206 L1.6,18.087 L6.69885563,15.8916905 C6.81911823,15.8398827 6.95213716,15.8291806 7.07770802,15.8596474 L7.17017396,15.8902177 L12.953,18.338 L17.4,16.074 L17.4,8.864 L16.7859684,9.09448314 C16.5066217,9.19892848 16.1986747,9.08176604 16.055278,8.83101831 L16.0138385,8.74260887 C15.9093932,8.46326222 16.0265556,8.15531517 16.2773034,8.0119185 L16.3657128,7.97047903 L17.7898722,7.43799794 C18.154022,7.30184545 18.5404222,7.54212976 18.5937643,7.91236618 Z M10,0.4 C13.0903657,0.4 15.6,2.8641981 15.6,5.90947639 C15.6,8.44569417 13.8256736,10.9618748 10.3526941,13.4853935 C10.142392,13.6382022 9.85760801,13.6382022 9.64730585,13.4853935 C6.17432642,10.9618748 4.4,8.44569417 4.4,5.90947639 C4.4,2.8641981 6.90963433,0.4 10,0.4 Z M10,1.6 C7.56751818,1.6 5.6,3.53189681 5.6,5.90947639 C5.6,7.84494306 6.95806824,9.89985716 9.73573002,12.0519617 L9.73573002,12.0519617 L10,12.253 L10.26427,12.0519617 C12.9427296,9.97671804 14.3011844,7.99184661 14.3948005,6.11730388 L14.3948005,6.11730388 L14.4,5.90947639 C14.4,3.53189681 12.4324818,1.6 10,1.6 Z"></path>
            <circle fill="#868686" cx="10" cy="6" r="1.5"></circle>
        </g>
    </g>
</svg>