<?xml version="1.0" encoding="UTF-8"?>
<svg width="22px" height="22px" viewBox="0 0 22 22" version="1.1" xmlns="http://www.w3.org/2000/svg" xmlns:xlink="http://www.w3.org/1999/xlink">
    <g stroke="none" stroke-width="1" fill-rule="evenodd">
        <g transform="translate(2.000000, 2.000000)" fill-rule="nonzero">
            <g>
                <path d="M9,18.675 C14.343355,18.675 18.675,14.343355 18.675,9 C18.675,3.65664505 14.343355,-0.675 9,-0.675 C3.65664505,-0.675 -0.675,3.65664505 -0.675,9 C-0.675,14.343355 3.65664505,18.675 9,18.675 Z M9,17.325 C4.40222946,17.325 0.675,13.5977705 0.675,9 C0.675,4.40222946 4.40222946,0.675 9,0.675 C13.5977705,0.675 17.325,4.40222946 17.325,9 C17.325,13.5977705 13.5977705,17.325 9,17.325 Z"></path>
                <path d="M4.09090909,9.675 L13.9090909,9.675 C14.2818831,9.675 14.5840909,9.37279221 14.5840909,9 C14.5840909,8.62720779 14.2818831,8.325 13.9090909,8.325 L4.09090909,8.325 C3.71811688,8.325 3.41590909,8.62720779 3.41590909,9 C3.41590909,9.37279221 3.71811688,9.675 4.09090909,9.675 Z"></path>
            </g>
        </g>
    </g>
</svg>