<?xml version="1.0" encoding="UTF-8"?>
<svg width="44px" height="44px" viewBox="0 0 44 44" version="1.1" xmlns="http://www.w3.org/2000/svg" xmlns:xlink="http://www.w3.org/1999/xlink">
    <g stroke="none" stroke-width="1" fill-rule="evenodd">
        <g transform="translate(2.000000, 2.000000)" fill-rule="nonzero">
            <path d="M19.4816564,-1.77635684e-15 C30.2410782,-1.77635684e-15 38.9633129,8.72223469 38.9633129,19.4816564 C38.9633129,30.2410782 30.2410782,38.9633129 19.4816564,38.9633129 C8.72223469,38.9633129 -1.77635684e-15,30.2410782 -1.77635684e-15,19.4816564 C-1.77635684e-15,8.72223469 8.72223469,-1.77635684e-15 19.4816564,-1.77635684e-15 Z M19.4816564,1.66956512 C9.64431004,1.66956512 1.66956512,9.64431004 1.66956512,19.4816564 C1.66956512,29.3190029 9.64431004,37.2937478 19.4816564,37.2937478 C29.3190029,37.2937478 37.2937478,29.3190029 37.2937478,19.4816564 C37.2937478,9.64431004 29.3190029,1.66956512 19.4816564,1.66956512 Z"></path>
            <g transform="translate(10.434782, 10.434782)">
                <path d="M8.20869516,2.22044605e-16 L8.20869516,18.0869554 C8.20869516,18.5479931 8.58244005,18.921738 9.04347772,18.921738 C9.5045154,18.921738 9.87826028,18.5479931 9.87826028,18.0869554 L9.87826028,-2.22044605e-16 C9.87826028,-0.461037677 9.5045154,-0.834782559 9.04347772,-0.834782559 C8.58244005,-0.834782559 8.20869516,-0.461037677 8.20869516,2.22044605e-16 Z"></path>
                <path d="M8.20869516,2.22044605e-16 L8.20869516,18.0869554 C8.20869516,18.5479931 8.58244005,18.921738 9.04347772,18.921738 C9.5045154,18.921738 9.87826028,18.5479931 9.87826028,18.0869554 L9.87826028,-2.22044605e-16 C9.87826028,-0.461037677 9.5045154,-0.834782559 9.04347772,-0.834782559 C8.58244005,-0.834782559 8.20869516,-0.461037677 8.20869516,2.22044605e-16 Z" transform="translate(9.078260, 9.043478) rotate(-270.000000) translate(-9.078260, -9.043478) "></path>
            </g>
        </g>
    </g>
</svg>