<?xml version="1.0" encoding="UTF-8"?>
<svg width="22px" height="22px" viewBox="0 0 22 22" version="1.1" xmlns="http://www.w3.org/2000/svg" xmlns:xlink="http://www.w3.org/1999/xlink">
    <g stroke="none" stroke-width="1" fill-rule="evenodd">
        <g transform="translate(2.666667, 0.000000)">
            <path d="M6.5164765,1.33736806 C6.68799428,1.52628874 6.79831388,1.76089017 6.83558101,2.01047976 L6.8496488,2.20000266 L6.8496488,20.7628388 C6.8496488,21.2690998 6.43924315,21.6795055 5.93298213,21.6795055 C5.48297233,21.6795055 5.10870012,21.3552344 5.03108419,20.9276108 L5.01631546,20.7628388 L5.015,3.443 L1.61616757,6.52912941 C1.28298696,6.83161826 0.787911871,6.84311205 0.443004991,6.57867799 L0.321313544,6.46661052 C0.0188246985,6.13342992 0.00733090315,5.63835482 0.271764967,5.29344795 L0.383832431,5.1717565 L4.70368087,1.24984162 C5.22844032,0.773421689 6.04005657,0.812608611 6.5164765,1.33736806 Z M11.9999711,0.916637803 C12.4499809,0.916637803 12.8242531,1.24090893 12.9018691,1.66853248 L12.9166378,1.83330447 L12.9170938,19.0833024 L15.6126075,16.8857632 C15.9615563,16.6016091 16.456534,16.6167268 16.7867378,16.899307 L16.9022334,17.0177498 C17.1863874,17.3666986 17.1712698,17.8616763 16.8886896,18.1918801 L16.7702468,18.3073757 L13.1769853,21.2334196 C12.6273909,21.6809622 11.8190516,21.5982328 11.371509,21.0486384 C11.2223755,20.8654984 11.1274047,20.645704 11.0953817,20.4139566 L11.0833045,20.2382908 L11.0833045,1.83330447 C11.0833045,1.32704345 11.4937101,0.916637803 11.9999711,0.916637803 Z"></path>
        </g>
    </g>
</svg>