<svg xmlns="http://www.w3.org/2000/svg" width="50" height="50" viewBox="0 0 50 50">
  <defs>
    <style>
      .cls-1 {
        fill: #f83939;
        fill-rule: evenodd;
      }
    </style>
  </defs>
  <path id="btn_taxi_alarm" class="cls-1" d="M7749.09,1587.75v11.03h24.56v-11.71a12.287,12.287,0,0,0-24.56,0v0.68Zm24.81-9.42,5.59-4.07a1.072,1.072,0,0,0,.25-1.36,1.035,1.035,0,0,0-1.34-.26l-5.59,4.08a1.07,1.07,0,0,0-.25,1.36A1.044,1.044,0,0,0,7773.9,1578.33Zm-29.06,25.37v2.3h33.06v-2.21a3.549,3.549,0,0,0-3.5-3.56h-25.97A3.439,3.439,0,0,0,7744.84,1603.7Zm16.53-30.89a0.933,0.933,0,0,0,.92-0.93v-6.96a0.92,0.92,0,1,0-1.84,0v6.96A0.933,0.933,0,0,0,7761.37,1572.81Zm-12.53,5.86a1.006,1.006,0,0,0,1.34-.09,1.043,1.043,0,0,0-.08-1.35l-5.26-4.5a1.006,1.006,0,0,0-1.34.08,1.055,1.055,0,0,0,.08,1.36Zm-2.17,10.1a0.941,0.941,0,0,0-.92-0.94h-6.84a0.935,0.935,0,0,0,0,1.87h6.84A0.933,0.933,0,0,0,7746.67,1588.77Zm36.41-.94h-6.85a0.935,0.935,0,0,0,0,1.87h6.85A0.935,0.935,0,0,0,7783.08,1587.83Z" transform="translate(-7736 -1560)"/>
</svg>
