<svg xmlns="http://www.w3.org/2000/svg" width="50" height="50" viewBox="0 0 50 50">
  <defs>
    <style>
      .cls-1 {
        fill: #666;
        fill-rule: evenodd;
      }
    </style>
  </defs>
  <path id="btn_taxi_phone" class="cls-1" d="M8303.34,1605.01c-3.85,0-10.94-2.61-18.34-9.99-7.42-7.38-10.02-14.49-10-18.33a5.438,5.438,0,0,1,1.41-3.96c0.18-.18.38-0.4,0.59-0.61,1.37-1.44,3.08-3.23,5.46-3.13,1.64,0.08,3.17,1.03,4.68,2.92,4.13,5.21,2.5,7.5-.06,9.96l-0.23.22c0.04,0.38.5,1.95,4.8,6.29,4.35,4.27,5.88,4.75,6.28,4.78l0.25-.25c2.49-2.52,4.81-4.13,9.91-.03,1.91,1.55,2.86,3.1,2.92,4.77,0.09,2.43-1.81,4.2-3.2,5.5q-0.285.255-.54,0.51a5.38,5.38,0,0,1-3.9,1.35h-0.03Zm-21.07-32.81c-0.92,0-1.99,1.13-2.94,2.13-0.23.24-.45,0.47-0.67,0.68a2.416,2.416,0,0,0-.45,1.7c-0.02,3.48,2.77,9.79,9.05,16.04s12.59,9.05,16.07,9.05h0.03a2.31,2.31,0,0,0,1.64-.41l0.03-.03c0.18-.18.38-0.37,0.59-0.56,1.04-.97,2.21-2.07,2.18-3.03-0.03-.84-0.96-1.76-1.73-2.39-3.24-2.6-3.79-2.05-5.6-.21l-0.35.35c-1.27,1.29-3.15,1.14-5.58-.46a37.354,37.354,0,0,1-5.16-4.4c-4.04-4.09-5.76-6.68-5.74-8.67a2.866,2.866,0,0,1,.86-2.1l0.36-.34c1.85-1.78,2.41-2.31-.24-5.64a3.783,3.783,0,0,0-2.3-1.71h-0.05Zm15.57,21.06h0Z" transform="translate(-8268 -1562)"/>
</svg>
