<svg xmlns="http://www.w3.org/2000/svg" width="48" height="48" viewBox="0 0 48 48">
  <metadata><?xpacket begin="﻿" id="W5M0MpCehiHzreSzNTczkc9d"?>
<x:xmpmeta xmlns:x="adobe:ns:meta/" x:xmptk="Adobe XMP Core 5.6-c138 79.159824, 2016/09/14-01:09:01        ">
   <rdf:RDF xmlns:rdf="http://www.w3.org/1999/02/22-rdf-syntax-ns#">
      <rdf:Description rdf:about=""/>
   </rdf:RDF>
</x:xmpmeta>
                                                                                                    
                                                                                                    
                                                                                                    
                                                                                                    
                                                                                                    
                                                                                                    
                                                                                                    
                                                                                                    
                                                                                                    
                                                                                                    
                                                                                                    
                                                                                                    
                                                                                                    
                                                                                                    
                                                                                                    
                                                                                                    
                                                                                                    
                                                                                                    
                                                                                                    
                                                                                                    
                           
<?xpacket end="w"?></metadata>
<defs>
    <style>
      .cls-1 {
        fill: #478aee;
        fill-rule: evenodd;
      }
    </style>
  </defs>
  <g id="btn_common_radio_sel2">
    <path id="形状_6" data-name="形状 6" class="cls-1" d="M842,237a20,20,0,1,1,20-20A20,20,0,0,1,842,237Zm11.072-27.521a1.474,1.474,0,0,0-2.075.25l-9.872,12.63-6.707-5.9a1.471,1.471,0,0,0-2.085.139,1.489,1.489,0,0,0,.139,2.1l7.88,6.93a1.47,1.47,0,0,0,.973.367c0.045,0,.091,0,0.137-0.006a1.479,1.479,0,0,0,1.025-.561l10.834-13.86A1.491,1.491,0,0,0,853.072,209.479Z" transform="translate(-818 -193)"/>
  </g>
</svg>
