<svg xmlns="http://www.w3.org/2000/svg" width="46" height="34" viewBox="0 0 46 34">
  <defs>
    <style>
      .cls-1 {
        fill: #e5e5e5;
        fill-rule: evenodd;
      }
    </style>
  </defs>
  <path id="btn_taxi_checkbox" class="cls-1" d="M6206,1335a19.994,19.994,0,0,1-20-20v-13h45v33h-25Zm13.47-24.61a1.518,1.518,0,0,0-2.14.16l-10.35,11.22a0.529,0.529,0,0,1-.39.21,0.8,0.8,0,0,1-.52-0.42l-0.11-.18-4.42-4.97a1.54,1.54,0,0,0-2.15.15,1.506,1.506,0,0,0,.15,2.13l4.12,4.71a3.659,3.659,0,0,0,2.73,1.59,1.548,1.548,0,0,0,.22.01,3.557,3.557,0,0,0,2.68-1.26l10.34-11.22A1.5,1.5,0,0,0,6219.47,1310.39Z" transform="translate(-6185.5 -1301.5)"/>
</svg>
