<svg id="icon_taxi_origin2" xmlns="http://www.w3.org/2000/svg" xmlns:xlink="http://www.w3.org/1999/xlink" width="54" height="68.344" viewBox="0 0 54 68.344">
  <defs>
    <style>
      .cls-1, .cls-3 {
        fill: #f62;
      }

      .cls-1, .cls-2, .cls-3 {
        fill-rule: evenodd;
      }

      .cls-1 {
        filter: url(#filter);
      }

      .cls-2 {
        fill: #fff;
      }
    </style>
    <filter id="filter" x="6487" y="920.656" width="54" height="68.344" filterUnits="userSpaceOnUse">
      <feOffset result="offset" dy="6" in="SourceAlpha"/>
      <feGaussianBlur result="blur" stdDeviation="2.236"/>
      <feFlood result="flood" flood-color="#f62" flood-opacity="0.24"/>
      <feComposite result="composite" operator="in" in2="blur"/>
      <feBlend result="blend" in="SourceGraphic"/>
    </filter>
  </defs>
  <path id="形状_138" data-name="形状 138" class="cls-1" d="M6531.92,954.374h0.48l-14.2,20.873H6518a4.457,4.457,0,0,1-7.91,0h-0.08l-15.09-20.873h0.44a21.313,21.313,0,0,1-3.72-12.053,22,22,0,0,1,44,0A21.313,21.313,0,0,1,6531.92,954.374Z" transform="translate(-6487 -920.656)"/>
  <path id="椭圆_43_拷贝" data-name="椭圆 43 拷贝" class="cls-2" d="M6513.64,923.868a18.471,18.471,0,1,1-18.75,18.469A18.608,18.608,0,0,1,6513.64,923.868Z" transform="translate(-6487 -920.656)"/>
  <path id="终" class="cls-3" d="M6511.58,946.935a36.946,36.946,0,0,1-6.64,1.641l0.3,2.2a37.659,37.659,0,0,0,6.34-1.72v-2.121Zm-3.74-14.183a38.018,38.018,0,0,1-2.32,5.762,1.809,1.809,0,0,1-.86.76l0.52,1.9c0.96-.14,1.86-0.28,2.74-0.4a19.307,19.307,0,0,1-1.98,3.241,3.392,3.392,0,0,1-.94.58l0.54,1.88a23.781,23.781,0,0,0,5.18-1.42V943.2a21.667,21.667,0,0,1-2.78.94,53.238,53.238,0,0,0,3.84-7.042l-1.82-.66c-0.4.88-.76,1.721-1.12,2.481l-1.76.24a33.921,33.921,0,0,0,2.72-5.641Zm7.84,10.8-1.1,1.62a30.9,30.9,0,0,1,5.73,2.021l1.02-1.6A36,36,0,0,0,6515.68,943.555Zm-2.42,3.12-1.18,1.741a51.681,51.681,0,0,1,8.85,3.04l1.12-1.74A55.243,55.243,0,0,0,6513.26,946.675Zm1.6-13.883a11.233,11.233,0,0,1-3.42,5.482l1.32,1.7a18.976,18.976,0,0,0,1.4-1.44,22.815,22.815,0,0,0,1.84,1.84,15.393,15.393,0,0,1-5.02,2.521l1.02,1.84a17.617,17.617,0,0,0,5.6-3.061,24.571,24.571,0,0,0,4.85,2.781l1.08-1.88a25.312,25.312,0,0,1-4.46-2.281,17.765,17.765,0,0,0,2.8-4.021v-1.68h-5.39c0.18-.48.34-1,0.5-1.54Zm2.58,6.322a21.316,21.316,0,0,1-2.2-2.041c0.08-.16.18-0.32,0.28-0.48h3.95A17.508,17.508,0,0,1,6517.44,939.114Z" transform="translate(-6487 -920.656)"/>
</svg>
