<svg id="icon_taxi_origin" xmlns="http://www.w3.org/2000/svg" xmlns:xlink="http://www.w3.org/1999/xlink" width="54" height="70" viewBox="0 0 54 70">
  <defs>
    <style>
      .cls-1, .cls-3 {
        fill: #28b159;
        fill-rule: evenodd;
      }

      .cls-1 {
        filter: url(#filter);
      }

      .cls-2 {
        fill: #fff;
      }
    </style>
    <filter id="filter" x="3889" y="907.5" width="54" height="68.5" filterUnits="userSpaceOnUse">
      <feOffset result="offset" dy="6" in="SourceAlpha"/>
      <feGaussianBlur result="blur" stdDeviation="2.236"/>
      <feFlood result="flood" flood-color="#28b159" flood-opacity="0.24"/>
      <feComposite result="composite" operator="in" in2="blur"/>
      <feBlend result="blend" in="SourceGraphic"/>
    </filter>
  </defs>
  <path id="形状_138" data-name="形状 138" class="cls-1" d="M3933.42,941.218h0.45l-14.2,20.874h-0.18a4.452,4.452,0,0,1-7.91,0h-0.1l-15.09-20.874h0.45a21.362,21.362,0,0,1-3.71-12.046,22,22,0,0,1,44,0A21.362,21.362,0,0,1,3933.42,941.218Z" transform="translate(-3889 -906.75)"/>
  <circle id="椭圆_43_拷贝" data-name="椭圆 43 拷贝" class="cls-2" cx="26.13" cy="22.438" r="18.75"/>
  <path id="起" class="cls-3" d="M3924.47,930.66l-1.98-.661a9.5,9.5,0,0,1-.26,2.021,0.776,0.776,0,0,1-.82.56h-2.32a0.58,0.58,0,0,1-.66-0.62v-4.021h5.18v-7.081h-7.48v1.94h5.44v3.161h-5.22V932.8a1.591,1.591,0,0,0,1.8,1.8h3.6a2.212,2.212,0,0,0,2-.74A8.376,8.376,0,0,0,3924.47,930.66Zm-16.82-1.321a23.392,23.392,0,0,1-1.5,7.522l1.62,1.42a24.43,24.43,0,0,0,1-3.1,6.093,6.093,0,0,0,2.26,1.9c1.18,0.52,4.12.8,8.82,0.8h4.64l0.36-2c-1.2.08-3.02,0.12-5.46,0.14a39.759,39.759,0,0,1-6.6-.38V932.48h2.6V930.6h-2.6v-2.241h2.7v-1.92h-3.12v-2.361h2.86V922.2h-2.86v-2.561h-2.08V922.2h-3.08v1.88h3.08v2.361h-3.42v1.92h3.9v6.381a6.488,6.488,0,0,1-1.56-1.76,31.063,31.063,0,0,0,.3-3.421Z" transform="translate(-3889 -906.75)"/>
</svg>
