<svg xmlns="http://www.w3.org/2000/svg" width="20" height="20" viewBox="0 0 20 20">
  <defs>
    <style>
      .cls-1 {
        fill: #ffb843;
        fill-rule: evenodd;
      }
    </style>
  </defs>
  <path id="icon_taxi_star" class="cls-1" d="M9605.37,969.379l2.16,4.342a0.978,0.978,0,0,0,.75.543l4.81,0.7a0.989,0.989,0,0,1,.55,1.695l-3.48,3.379a1.024,1.024,0,0,0-.29.88l0.83,4.771a1,1,0,0,1-1.45,1.048l-4.31-2.253a1,1,0,0,0-.93,0l-4.3,2.253a1,1,0,0,1-1.45-1.048l0.82-4.771a0.99,0.99,0,0,0-.28-0.88l-3.49-3.379a1,1,0,0,1,.56-1.695l4.81-.7a1.012,1.012,0,0,0,.75-0.543l2.15-4.342A1,1,0,0,1,9605.37,969.379Z" transform="translate(-9594.47 -967.844)"/>
</svg>
