<?xml version="1.0" encoding="UTF-8"?>
<svg width="22px" height="22px" viewBox="0 0 22 22" version="1.1" xmlns="http://www.w3.org/2000/svg" xmlns:xlink="http://www.w3.org/1999/xlink">
    <!-- Generator: Sketch 60 (88103) - https://sketch.com -->
    <title>h5 svg/icon/invoice/scancode_nor@2x</title>
    <desc>Created with Sketch.</desc>
    <defs>
        <linearGradient x1="50%" y1="-5.57220927%" x2="50%" y2="120.791352%" id="linearGradient-1">
            <stop stop-color="#848DFC" offset="0%"></stop>
            <stop stop-color="#1A20C6" offset="100%"></stop>
        </linearGradient>
        <circle id="path-2" cx="11.1" cy="10.9" r="9"></circle>
        <filter x="-19.4%" y="-13.9%" width="138.9%" height="138.9%" filterUnits="objectBoundingBox" id="filter-3">
            <feOffset dx="0" dy="1" in="SourceAlpha" result="shadowOffsetOuter1"></feOffset>
            <feGaussianBlur stdDeviation="1" in="shadowOffsetOuter1" result="shadowBlurOuter1"></feGaussianBlur>
            <feColorMatrix values="0 0 0 0 0.620361551   0 0 0 0 0.629555688   0 0 0 0 0.85546875  0 0 0 1 0" type="matrix" in="shadowBlurOuter1"></feColorMatrix>
        </filter>
        <filter x="-81.2%" y="-81.2%" width="262.5%" height="262.5%" filterUnits="objectBoundingBox" id="filter-4">
            <feOffset dx="0" dy="1" in="SourceAlpha" result="shadowOffsetOuter1"></feOffset>
            <feGaussianBlur stdDeviation="1" in="shadowOffsetOuter1" result="shadowBlurOuter1"></feGaussianBlur>
            <feColorMatrix values="0 0 0 0 0.149019608   0 0 0 0 0.176470588   0 0 0 0 0.850980392  0 0 0 1 0" type="matrix" in="shadowBlurOuter1" result="shadowMatrixOuter1"></feColorMatrix>
            <feMerge>
                <feMergeNode in="shadowMatrixOuter1"></feMergeNode>
                <feMergeNode in="SourceGraphic"></feMergeNode>
            </feMerge>
        </filter>
    </defs>
    <g id="h5-svg/icon/invoice/scancode_nor" stroke="none" stroke-width="1" fill="none" fill-rule="evenodd">
        <g id="btn_invoice_scancode">
            <circle id="椭圆形" fill="#EAEFF4" cx="11.1" cy="10.9" r="10.5"></circle>
            <g id="椭圆形">
                <use fill="black" fill-opacity="1" filter="url(#filter-3)" xlink:href="#path-2"></use>
                <use fill="url(#linearGradient-1)" fill-rule="evenodd" xlink:href="#path-2"></use>
            </g>
            <path d="M11.1,3 C15.518278,3 19.1,6.581722 19.1,11 C19.1,15.418278 15.518278,19 11.1,19 C6.681722,19 3.1,15.418278 3.1,11 C3.1,6.581722 6.681722,3 11.1,3 Z M11.1,3.1 C6.73695048,3.1 3.2,6.63695048 3.2,11 C3.2,15.3630495 6.73695048,18.9 11.1,18.9 C15.4630495,18.9 19,15.3630495 19,11 C19,6.63695048 15.4630495,3.1 11.1,3.1 Z" id="椭圆形" fill="#FFFFFF" fill-rule="nonzero" opacity="0.06"></path>
            <path d="M11.1835443,4.4 C14.8747639,4.4 17.8670886,7.35492065 17.8670886,11 C17.8670886,14.6450793 14.8747639,17.6 11.1835443,17.6 C7.49232471,17.6 4.5,14.6450793 4.5,11 C4.5,7.35492065 7.49232471,4.4 11.1835443,4.4 Z M11.1835443,4.5 C7.54727357,4.5 4.6,7.41043265 4.6,11 C4.6,14.5895673 7.54727357,17.5 11.1835443,17.5 C14.819815,17.5 17.7670886,14.5895673 17.7670886,11 C17.7670886,7.41043265 14.819815,4.5 11.1835443,4.5 Z" id="椭圆形" fill="#FFFFFF" fill-rule="nonzero" opacity="0.09"></path>
            <path d="M11.1658228,5.8 C14.0740564,5.8 16.4316456,8.1281193 16.4316456,11 C16.4316456,13.8718807 14.0740564,16.2 11.1658228,16.2 C8.25758917,16.2 5.9,13.8718807 5.9,11 C5.9,8.1281193 8.25758917,5.8 11.1658228,5.8 Z M11.1658228,5.9 C8.31253803,5.9 6,8.1836313 6,11 C6,13.8163687 8.31253803,16.1 11.1658228,16.1 C14.0191075,16.1 16.3316456,13.8163687 16.3316456,11 C16.3316456,8.1836313 14.0191075,5.9 11.1658228,5.9 Z" id="椭圆形" fill="#FFFFFF" fill-rule="nonzero" opacity="0.12"></path>
            <path d="M11.1745098,7.2 C13.3143425,7.2 15.0490196,8.90131795 15.0490196,11 C15.0490196,13.098682 13.3143425,14.8 11.1745098,14.8 C9.03467713,14.8 7.3,13.098682 7.3,11 C7.3,8.90131795 9.03467713,7.2 11.1745098,7.2 Z M11.1745098,7.3 C9.08947564,7.3 7.4,8.95698572 7.4,11 C7.4,13.0430143 9.08947564,14.7 11.1745098,14.7 C13.259544,14.7 14.9490196,13.0430143 14.9490196,11 C14.9490196,8.95698572 13.259544,7.3 11.1745098,7.3 Z" id="椭圆形" fill="#FFFFFF" fill-rule="nonzero" opacity="0.14"></path>
            <path d="M11.1470588,8.6 C12.4985321,8.6 13.5941176,9.6745166 13.5941176,11 C13.5941176,12.3254834 12.4985321,13.4 11.1470588,13.4 C9.79558555,13.4 8.7,12.3254834 8.7,11 C8.7,9.6745166 9.79558555,8.6 11.1470588,8.6 Z M11.1470588,8.7 C9.85038407,8.7 8.8,9.73018437 8.8,11 C8.8,12.2698156 9.85038407,13.3 11.1470588,13.3 C12.4437336,13.3 13.4941176,12.2698156 13.4941176,11 C13.4941176,9.73018437 12.4437336,8.7 11.1470588,8.7 Z" id="椭圆形" fill="#FFFFFF" fill-rule="nonzero" opacity="0.15"></path>
            <path d="M11.1196078,10 C11.6827217,10 12.1392157,10.4477153 12.1392157,11 C12.1392157,11.5522847 11.6827217,12 11.1196078,12 C10.556494,12 10.1,11.5522847 10.1,11 C10.1,10.4477153 10.556494,10 11.1196078,10 Z M11.1196078,10.1 C10.6112925,10.1 10.2,10.503383 10.2,11 C10.2,11.496617 10.6112925,11.9 11.1196078,11.9 C11.6279232,11.9 12.0392157,11.496617 12.0392157,11 C12.0392157,10.503383 11.6279232,10.1 11.1196078,10.1 Z" id="椭圆形" fill="#FFFFFF" fill-rule="nonzero" opacity="0.17"></path>
            <g id="btn/nav/scan_nor" filter="url(#filter-4)" transform="translate(7.800000, 5.600000)" fill="#FFFFFF">
                <g id="scan" transform="translate(0.150000, 0.150000)">
                    <path d="M5.75418614,3.22 L0.545813859,3.22 C0.437650437,3.22 0.35,3.12599527 0.35,3.00998256 C0.35,2.89400473 0.437650437,2.8 0.545813859,2.8 L5.75418614,2.8 C5.8623139,2.8 5.95,2.89400473 5.95,3.00998256 C5.95,3.12599527 5.8623139,3.22 5.75418614,3.22 Z" id="Fill-1"></path>
                    <path d="M0.498451192,1.8469508 L0.498451192,1.00999634 L0.498451192,1.00999634 C0.498451192,0.721339968 0.73292337,0.486494427 1.02111081,0.486494427 L1.84973482,0.486494427 C1.90496329,0.486494427 1.94973482,0.441722902 1.94973482,0.386494427 L1.94973482,0.103280414 C1.94973482,0.048051939 1.90496329,0.00328041401 1.84973482,0.00328041401 L1.02111081,0.00328041401 L1.02111081,0.00328041401 C0.466009698,0.00328041401 0.0160054054,0.454011306 0.0160054054,1.00999634 L0.0160054054,1.8469508 C0.0160054054,1.90217927 0.0607769304,1.9469508 0.116005405,1.9469508 L0.398451192,1.9469508 C0.453679667,1.9469508 0.498451192,1.90217927 0.498451192,1.8469508 Z M4.47205978,0.486494427 L5.27739682,0.486494427 L5.27739682,0.486494427 C5.56559428,0.486494427 5.80006645,0.721339968 5.80006645,1.00999634 L5.80006645,1.8469508 C5.80006645,1.90217927 5.84483798,1.9469508 5.90006645,1.9469508 L6.18251224,1.9469508 C6.23774072,1.9469508 6.28251224,1.90217927 6.28251224,1.8469508 L6.28251224,1.00999634 L6.28251224,1.00999634 C6.28251224,0.454011306 5.83249793,0.00328041401 5.27739682,0.00328041401 L4.47205978,0.00328041401 C4.4168313,0.00328041401 4.37205978,0.048051939 4.37205978,0.103280414 L4.37205978,0.386494427 C4.37205978,0.441722902 4.4168313,0.486494427 4.47205978,0.486494427 Z M1.84973482,5.81677596 L1.02111081,5.81677596 L1.02111081,5.81677596 C0.73292337,5.81677596 0.498451192,5.58193041 0.498451192,5.29327404 L0.498451192,4.49323678 C0.498451192,4.43800831 0.453679667,4.39323678 0.398451192,4.39323678 L0.116005405,4.39323678 C0.0607769304,4.39323678 0.0160054054,4.43800831 0.0160054054,4.49323678 L0.0160054054,5.29327404 L0.0160054054,5.29327404 C0.0160054054,5.8492992 0.466009698,6.29998997 1.02111081,6.29998997 L1.84973482,6.29998997 C1.90496329,6.29998997 1.94973482,6.25521844 1.94973482,6.19998997 L1.94973482,5.91677596 C1.94973482,5.86154748 1.90496329,5.81677596 1.84973482,5.81677596 Z M5.80006645,4.49323678 L5.80006645,5.29327404 L5.80006645,5.29327404 C5.80006645,5.58193041 5.56559428,5.81677596 5.27739682,5.81677596 L4.47205978,5.81677596 C4.4168313,5.81677596 4.37205978,5.86154748 4.37205978,5.91677596 L4.37205978,6.19998997 C4.37205978,6.25521844 4.4168313,6.29998997 4.47205978,6.29998997 L5.27739682,6.29998997 L5.27739682,6.29998997 C5.83249793,6.29998997 6.28251224,5.8492992 6.28251224,5.29327404 L6.28251224,4.49323678 C6.28251224,4.43800831 6.23774072,4.39323678 6.18251224,4.39323678 L5.90006645,4.39323678 C5.84483798,4.39323678 5.80006645,4.43800831 5.80006645,4.49323678 Z" id="Fill-2"></path>
                </g>
            </g>
            <path d="M7.0938,16.0958 C7.217,16.0958 7.2808,16.032 7.2808,15.9066 L7.2808,15.262 C7.3688,15.229 7.4546,15.1938 7.5426,15.1542 L7.5426,14.998 C7.4568,15.0398 7.3688,15.0772 7.2808,15.1124 L7.2808,14.6592 L7.5206,14.6592 L7.5206,14.5074 L7.2808,14.5074 L7.2808,14.1048 L7.1202,14.1048 L7.1202,14.5074 L6.821,14.5074 L6.821,14.6592 L7.1202,14.6592 L7.1202,15.1674 C7.0146,15.2026 6.9046,15.2312 6.7946,15.2554 L6.832,15.405 C6.9288,15.3786 7.0234,15.35 7.1202,15.3192 L7.1202,15.867 C7.1202,15.922 7.0916,15.9506 7.0388,15.9506 C6.986,15.9506 6.931,15.9462 6.8738,15.9418 L6.909,16.0958 L7.0938,16.0958 Z M8.702,16.0716 L8.702,14.2742 L7.6108,14.2742 L7.6108,14.4282 L8.5414,14.4282 L8.5414,15.0134 L7.6658,15.0134 L7.6658,15.1652 L8.5414,15.1652 L8.5414,15.7812 L7.5624,15.7812 L7.5624,15.9374 L8.5414,15.9374 L8.5414,16.0716 L8.702,16.0716 Z M10.4796,16.1068 C10.6732,16.1068 10.7986,16.065 10.8602,15.9858 C10.9174,15.9022 10.9482,15.5964 10.9482,15.064 L10.715,15.064 L10.836,14.195 L9.89,14.195 L9.89,14.3446 L10.6644,14.3446 L10.5544,15.064 L10.088,15.064 L10.1848,14.5096 L10.0286,14.4986 L9.9098,15.2114 L10.7986,15.2114 C10.7986,15.5634 10.781,15.7768 10.7458,15.8516 C10.7128,15.922 10.6116,15.9594 10.4422,15.9594 C10.4026,15.9594 10.3344,15.955 10.2376,15.9462 L10.2816,16.1002 C10.352,16.1046 10.418,16.1068 10.4796,16.1068 Z M9.3488,16.0474 L9.3488,15.8802 L9.5864,15.8802 L9.5864,16.0056 L9.7316,16.0056 L9.7316,14.8748 L9.3268,14.8748 C9.384,14.7208 9.4258,14.5558 9.4566,14.3798 L9.7888,14.3798 L9.7888,14.2258 L9.0386,14.2258 L9.0386,14.3798 L9.307,14.3798 C9.2542,14.7076 9.1442,15.0002 8.977,15.2554 L9.0562,15.383 C9.109,15.3082 9.1574,15.2312 9.2014,15.152 L9.2014,16.0474 L9.3488,16.0474 Z M9.5864,15.7372 L9.3488,15.7372 L9.3488,15.02 L9.5864,15.02 L9.5864,15.7372 Z M10.6468,15.6404 L10.6468,15.4908 L9.8416,15.4908 L9.8416,15.6404 L10.6468,15.6404 Z M11.2782,14.9716 C11.6632,14.833 11.9426,14.657 12.1142,14.4458 L12.1274,14.4458 L12.1274,14.8572 L12.2814,14.8572 L12.2814,14.4458 L12.2946,14.4458 C12.4574,14.6614 12.7368,14.8352 13.1328,14.9694 L13.201,14.8264 C12.8534,14.734 12.5982,14.6064 12.4332,14.4458 L13.1086,14.4458 L13.1086,14.3006 L12.2814,14.3006 L12.2814,14.0982 L12.1274,14.0982 L12.1274,14.3006 L11.3002,14.3006 L11.3002,14.4458 L11.98,14.4458 C11.8084,14.5998 11.5466,14.7296 11.1946,14.8308 L11.2782,14.9716 Z M12.8622,15.7372 L12.8622,14.9276 L11.5466,14.9276 L11.5466,15.7372 L12.8622,15.7372 Z M12.7082,15.2686 L11.7006,15.2686 L11.7006,15.0684 L12.7082,15.0684 L12.7082,15.2686 Z M12.7082,15.5964 L11.7006,15.5964 L11.7006,15.4028 L12.7082,15.4028 L12.7082,15.5964 Z M13.146,16.0562 L13.146,15.9088 L11.2562,15.9088 L11.2562,16.0562 L13.146,16.0562 Z M14.2218,14.9848 C14.3098,14.9166 14.3934,14.8374 14.4726,14.7494 L14.4726,14.8858 L15.0908,14.8858 L15.0908,14.7494 C15.1656,14.8308 15.2492,14.9078 15.3438,14.9804 L15.4296,14.8484 C15.1568,14.6372 14.9632,14.393 14.8532,14.1114 L14.708,14.1114 C14.576,14.4172 14.3846,14.6658 14.1382,14.8572 L14.2218,14.9848 Z M13.8082,16.0914 C13.9468,16.0914 14.037,16.0518 14.081,15.977 C14.1228,15.9 14.1448,15.6118 14.1448,15.1102 L14.0084,15.1102 L14.114,14.2038 L13.4232,14.2038 L13.4232,14.349 L13.9556,14.349 L13.8588,15.1102 L13.5992,15.1102 L13.6872,14.5052 L13.542,14.4964 L13.4386,15.251 L13.9996,15.251 C13.9996,15.5854 13.9864,15.7856 13.9644,15.856 C13.9424,15.922 13.8786,15.9572 13.773,15.9572 C13.7422,15.9572 13.6872,15.9528 13.6102,15.944 L13.652,16.0848 C13.7048,16.0892 13.7576,16.0914 13.8082,16.0914 Z M15.0842,14.7406 L14.4792,14.7406 C14.5936,14.6086 14.6926,14.4502 14.7806,14.2654 C14.8554,14.437 14.9566,14.5954 15.0842,14.7406 Z M15.4032,16.043 L15.4032,15.8912 L15.071,15.8912 C15.159,15.6492 15.2316,15.372 15.2932,15.0596 L15.1414,15.0222 C15.0754,15.3676 15.0006,15.658 14.917,15.8912 L14.202,15.8912 L14.202,16.043 L15.4032,16.043 Z M14.7652,15.6558 L14.9038,15.6228 C14.8554,15.3962 14.8026,15.196 14.7432,15.0222 L14.6068,15.064 C14.6728,15.2532 14.7256,15.4512 14.7652,15.6558 Z M14.4572,15.7504 L14.5936,15.7174 C14.5364,15.4798 14.4748,15.2686 14.4044,15.086 L14.268,15.1322 C14.345,15.3302 14.4088,15.5348 14.4572,15.7504 Z M13.3836,15.724 C13.5662,15.6888 13.729,15.6448 13.8742,15.5898 L13.8742,15.4468 C13.729,15.4996 13.5574,15.5414 13.3638,15.5744 L13.3836,15.724 Z" id="扫码查验" fill="#FFFFFF" fill-rule="nonzero" opacity="0.7"></path>
        </g>
    </g>
</svg>