<?xml version="1.0" encoding="UTF-8"?>
<svg width="22px" height="22px" viewBox="0 0 22 22" version="1.1" xmlns="http://www.w3.org/2000/svg" xmlns:xlink="http://www.w3.org/1999/xlink">
    <!-- Generator: Sketch 60 (88103) - https://sketch.com -->
    <title>h5 svg/icon/plane/select@2x</title>
    <desc>Created with Sketch.</desc>
    <g id="h5-svg/icon/plane/select" stroke="none" stroke-width="1" fill="none" fill-rule="evenodd">
        <path d="M22,-9.76996262e-14 L22,19.0666667 C22,20.6867019 20.6867019,22 19.0666667,22 L0,22 L22,-9.76996262e-14 Z M19.897358,11.4046823 C19.5685731,11.1681815 19.1103185,11.2429925 18.8738177,11.5717773 L18.8738177,11.5717773 L14.5068,17.6396 L11.9054771,16.02987 L11.7871839,15.9705219 C11.4636384,15.8432214 11.0854542,15.9612249 10.8959335,16.2673092 C10.6827228,16.611654 10.7890279,17.063642 11.1333727,17.2768527 L11.1333727,17.2768527 L14.8994079,19.6086992 L20.064453,12.4282227 L20.1318352,12.3143143 C20.2811937,12.0003411 20.1896112,11.6149053 19.897358,11.4046823 Z" id="形状结合" fill="#262DD9"></path>
    </g>
</svg>