<?xml version="1.0" encoding="UTF-8"?>
<svg width="22px" height="22px" viewBox="0 0 22 22" version="1.1" xmlns="http://www.w3.org/2000/svg" xmlns:xlink="http://www.w3.org/1999/xlink">
    <!-- Generator: Sketch 60 (88103) - https://sketch.com -->
    <title>h5 svg/icon/invoice/check1@2x</title>
    <desc>Created with Sketch.</desc>
    <defs>
        <linearGradient x1="91.9528845%" y1="96.1157132%" x2="-8.66239918%" y2="-11.8790453%" id="linearGradient-1">
            <stop stop-color="#C3C5FF" offset="0%"></stop>
            <stop stop-color="#FFFFFF" offset="100%"></stop>
        </linearGradient>
    </defs>
    <g id="h5-svg/icon/invoice/check1" stroke="none" stroke-width="1" fill="none" fill-rule="evenodd">
        <path d="M12.926411,0.759547068 L18.9790063,3.88617587 C20.3738384,4.60671345 21.2499637,6.04541754 21.2499637,7.61536375 L21.2499637,14.3846363 C21.2499637,15.9545825 20.3738384,17.3932865 18.9790063,18.1138241 L12.926411,21.2404529 C11.7179924,21.8646937 10.2820076,21.8646937 9.07358897,21.2404529 L3.02099374,18.1138241 C1.6261616,17.3932865 0.750036348,15.9545825 0.750036348,14.3846363 L0.750036348,7.61536375 C0.750036348,6.04541754 1.6261616,4.60671345 3.02099374,3.88617587 L9.07358897,0.759547068 C10.2820076,0.135306339 11.7179924,0.135306339 12.926411,0.759547068 Z" id="多边形" stroke-opacity="0.70121285" stroke="#FFFFFF" stroke-width="1.44736842" fill="url(#linearGradient-1)"></path>
        <g id="编组" transform="translate(5.210526, 5.789474)" fill="#262DD9" fill-rule="nonzero">
            <path d="M10.7711955,0.287580953 C11.007314,0.287580953 11.2021648,0.464268828 11.2307447,0.692641306 L11.2343534,0.750738848 L11.2343534,4.4007915 C11.2343534,4.65658654 11.0269905,4.8639494 10.7711955,4.8639494 C10.535077,4.8639494 10.3402262,4.68726152 10.3116463,4.45888904 L10.3080376,4.4007915 L10.3075789,1.21347368 L1.36457895,1.21347368 L1.36457895,9.05936842 L1.8884911,8.63077711 C2.05791463,8.4918555 2.29845169,8.49215816 2.46673774,8.62345013 L2.51491266,8.66675916 L3.20910526,9.38357895 L3.96128073,8.65617521 C4.12784946,8.49490617 4.38444712,8.48363847 4.5635852,8.62001842 L4.61483535,8.66535948 L5.37726316,9.44610526 L5.51514855,9.29230821 C5.67157856,9.11763722 5.93065725,9.08952633 6.11952287,9.21749883 L6.16916098,9.25627741 C6.34383197,9.41270742 6.37194286,9.67178611 6.24397036,9.86065173 L6.20519178,9.91028984 L5.73692234,10.4331632 C5.57303151,10.6161651 5.29855556,10.6370363 5.10973672,10.4915476 L5.06051184,10.447741 L4.27378947,9.64236842 L3.52102085,10.371764 C3.3539544,10.5335149 3.09644039,10.5443034 2.9173206,10.406858 L2.86610533,10.3611801 L2.14557895,9.61689474 L1.19519309,10.3971621 C0.908780638,10.6320107 0.485784545,10.4513323 0.442052027,10.0992387 L0.438363425,10.0390111 L0.438363425,0.750738848 C0.438363425,0.514620348 0.615051299,0.319769512 0.843423777,0.291189611 L0.901521319,0.287580953 L10.7711955,0.287580953 Z" id="路径-43"></path>
            <path d="M7.77362791,3.32016241 C8.02942295,3.32016241 8.23678581,3.52752526 8.23678581,3.7833203 C8.23678581,4.0194388 8.06009793,4.21428964 7.83172545,4.24286954 L7.77362791,4.2464782 L3.1070351,4.2464782 C2.85124006,4.2464782 2.64387721,4.03911534 2.64387721,3.7833203 C2.64387721,3.5472018 2.82056508,3.35235097 3.04893756,3.32377106 L3.1070351,3.32016241 L7.77362791,3.32016241 Z" id="Path-16"></path>
            <path d="M5.79193985,5.52567619 C6.04773489,5.52567619 6.25509774,5.73303904 6.25509774,5.98883409 C6.25509774,6.22495259 6.07840987,6.41980342 5.85003739,6.44838332 L5.79193985,6.45199198 L3.1070351,6.45199198 C2.85124006,6.45199198 2.64387721,6.24462913 2.64387721,5.98883409 C2.64387721,5.75271559 2.82056508,5.55786475 3.04893756,5.52928485 L3.1070351,5.52567619 L5.79193985,5.52567619 Z" id="Path-16-Copy"></path>
            <path d="M9.8192557,5.36630722 C8.58703423,5.36630722 7.58812136,6.36522008 7.58812136,7.59744155 C7.58812136,8.82966302 8.58703423,9.82857589 9.8192557,9.82857589 C11.0514772,9.82857589 12.05039,8.82966302 12.05039,7.59744155 C12.05039,6.36522008 11.0514772,5.36630722 9.8192557,5.36630722 Z M9.8192557,6.29262301 C10.5398871,6.29262301 11.1240742,6.87681017 11.1240742,7.59744155 C11.1240742,8.31807294 10.5398871,8.9022601 9.8192557,8.9022601 C9.09862431,8.9022601 8.51443715,8.31807294 8.51443715,7.59744155 C8.51443715,6.87681017 9.09862431,6.29262301 9.8192557,6.29262301 Z" id="合并形状"></path>
        </g>
    </g>
</svg>