<?xml version="1.0" encoding="UTF-8"?>
<svg width="22px" height="22px" viewBox="0 0 22 22" version="1.1" xmlns="http://www.w3.org/2000/svg" xmlns:xlink="http://www.w3.org/1999/xlink">
    <!-- Generator: Sketch 60 (88103) - https://sketch.com -->
    <title>h5 svg/icon/invoice/myinvoice@2x</title>
    <desc>Created with Sketch.</desc>
    <defs>
        <linearGradient x1="91.9528845%" y1="96.1157132%" x2="-8.66239918%" y2="-11.8790453%" id="linearGradient-1">
            <stop stop-color="#C3C5FF" offset="0%"></stop>
            <stop stop-color="#FFFFFF" offset="100%"></stop>
        </linearGradient>
    </defs>
    <g id="h5-svg/icon/invoice/myinvoice" stroke="none" stroke-width="1" fill="none" fill-rule="evenodd">
        <path d="M12.926411,0.759547068 L18.9790063,3.88617587 C20.3738384,4.60671345 21.2499637,6.04541754 21.2499637,7.61536375 L21.2499637,14.3846363 C21.2499637,15.9545825 20.3738384,17.3932865 18.9790063,18.1138241 L12.926411,21.2404529 C11.7179924,21.8646937 10.2820076,21.8646937 9.07358897,21.2404529 L3.02099374,18.1138241 C1.6261616,17.3932865 0.750036348,15.9545825 0.750036348,14.3846363 L0.750036348,7.61536375 C0.750036348,6.04541754 1.6261616,4.60671345 3.02099374,3.88617587 L9.07358897,0.759547068 C10.2820076,0.135306339 11.7179924,0.135306339 12.926411,0.759547068 Z" id="多边形" stroke-opacity="0.70121285" stroke="#FFFFFF" stroke-width="1.44736842" fill="url(#linearGradient-1)"></path>
        <g id="编组" transform="translate(5.210526, 4.631579)" fill="#262DD9" fill-rule="nonzero">
            <path d="M5.40452686,0.450839111 C3.68416037,0.450839111 2.28521386,1.8175896 2.28521386,3.50902209 C2.28521386,5.20045458 3.68416037,6.56720507 5.40452686,6.56720507 C7.12489335,6.56720507 8.52383986,5.20045458 8.52383986,3.50902209 C8.52383986,1.8175896 7.12489335,0.450839111 5.40452686,0.450839111 Z M5.40452686,1.3771549 C6.61806829,1.3771549 7.59752407,2.33406902 7.59752407,3.50902209 C7.59752407,4.68397516 6.61806829,5.64088928 5.40452686,5.64088928 C4.19098543,5.64088928 3.21152965,4.68397516 3.21152965,3.50902209 C3.21152965,2.33406902 4.19098543,1.3771549 5.40452686,1.3771549 Z" id="Oval"></path>
            <path d="M5.40452686,5.64088928 C5.6603219,5.64088928 5.86768475,5.84825213 5.86768475,6.10404717 C5.86768475,6.35984222 5.6603219,6.56720507 5.40452686,6.56720507 C2.99871973,6.56720507 1.05274164,8.4683975 1.05274164,10.8081769 C1.05274164,11.0639719 0.845378784,11.2713348 0.589583742,11.2713348 C0.3337887,11.2713348 0.126425847,11.0639719 0.126425847,10.8081769 C0.126425847,7.95191808 2.49189468,5.64088928 5.40452686,5.64088928 Z" id="路径"></path>
            <path d="M11.3932647,5.80328307 L8.80418933,5.80328307 C8.7120615,5.80328307 8.62370698,5.83988071 8.55856277,5.90502492 L7.17140487,7.29218282 C7.10626066,7.35732703 7.06966302,7.44568155 7.06966302,7.53780938 L7.06966302,11.1995565 C7.06966302,11.6851261 7.46329492,12.078758 7.94886448,12.078758 L11.3932647,12.078758 C11.8788342,12.078758 12.2724661,11.6851261 12.2724661,11.1995565 L12.2724661,6.68248453 C12.2724661,6.19691497 11.8788342,5.80328307 11.3932647,5.80328307 Z M7.76426316,7.68147368 L8.94821053,6.49752632 L11.3932647,6.49801991 C11.4951417,6.49801991 11.5777293,6.58060753 11.5777293,6.68248453 L11.5777293,11.1995565 C11.5777293,11.3014335 11.4951417,11.3840211 11.3932647,11.3840211 L7.94886448,11.3840211 C7.84698748,11.3840211 7.76439986,11.3014335 7.76439986,11.1995565 L7.76426316,7.68147368 Z" id="Combined-Shape-Copy" transform="translate(9.671065, 8.941021) rotate(-360.000000) translate(-9.671065, -8.941021) "></path>
            <path d="M10.5086411,8.15723892 C10.7004874,8.15723892 10.8560095,8.31276105 10.8560095,8.50460734 C10.8560095,8.67726899 10.7300366,8.82050809 10.564986,8.84742929 L10.5086411,8.85197576 L8.88627461,8.85197576 C8.69442833,8.85197576 8.53890619,8.69645362 8.53890619,8.50460734 C8.53890619,8.33194568 8.66487913,8.18870658 8.82992965,8.16178538 L8.88627461,8.15723892 L10.5086411,8.15723892 Z" id="Path-23-Copy-3"></path>
            <path d="M10.5086411,9.63348201 C10.7004874,9.63348201 10.8560095,9.78900415 10.8560095,9.98085043 C10.8560095,10.1535121 10.7300366,10.2967512 10.564986,10.3236724 L10.5086411,10.3282189 L8.88627461,10.3282189 C8.69442833,10.3282189 8.53890619,10.1726967 8.53890619,9.98085043 C8.53890619,9.80818878 8.66487913,9.66494968 8.82992965,9.63802848 L8.88627461,9.63348201 L10.5086411,9.63348201 Z" id="Path-23-Copy-4"></path>
        </g>
    </g>
</svg>