<?xml version="1.0" encoding="UTF-8"?>
<svg width="22px" height="22px" viewBox="0 0 22 22" version="1.1" xmlns="http://www.w3.org/2000/svg" xmlns:xlink="http://www.w3.org/1999/xlink">
    
    <g id="h5-svg/icon/mall/huanhuo" stroke="none" stroke-width="1" fill="none" fill-rule="evenodd">
        <path d="M11,1 C16.5228475,1 21,5.4771525 21,11 C21,16.5228475 16.5228475,21 11,21 C5.4771525,21 1,16.5228475 1,11 C1,5.4771525 5.4771525,1 11,1 Z M11,2.2 C6.1398942,2.2 2.2,6.1398942 2.2,11 C2.2,15.8601058 6.1398942,19.8 11,19.8 C15.8601058,19.8 19.8,15.8601058 19.8,11 C19.8,6.1398942 15.8601058,2.2 11,2.2 Z" id="椭圆形" fill="#E82B29"></path>
        <path d="M16.112,16.296 L16.628,15.216 C15.32,14.604 14.36,13.764 13.736,12.696 L16.556,12.696 L16.556,11.64 L15.884,11.64 L15.884,8.388 L13.88,8.388 C14.18,7.944 14.48,7.416 14.792,6.804 L14.792,5.988 L12.368,5.988 C12.488,5.748 12.596,5.496 12.692,5.232 L11.588,5.088 C11.168,6.18 10.376,7.104 9.212,7.848 L9.884,8.736 L9.908,8.724 L9.908,11.64 L9.14,11.64 L9.14,12.696 L11.756,12.696 C11.24,13.752 10.232,14.64 8.732,15.336 L9.476,16.296 C11.18,15.384 12.296,14.28 12.824,12.996 C13.52,14.34 14.612,15.444 16.112,16.296 Z M6.896,16.104 C7.664,16.104 8.06,15.708 8.06,14.916 L8.06,11.604 C8.456,11.412 8.852,11.22 9.236,11.016 L9.236,9.864 C8.852,10.08 8.456,10.272 8.06,10.464 L8.06,8.364 L9.188,8.364 L9.188,7.272 L8.06,7.272 L8.06,5.172 L6.932,5.172 L6.932,7.272 L5.6,7.272 L5.6,8.364 L6.932,8.364 L6.932,10.92 C6.404,11.112 5.888,11.268 5.36,11.388 L5.648,12.54 C6.08,12.396 6.5,12.252 6.932,12.084 L6.932,14.628 C6.932,14.928 6.788,15.084 6.5,15.084 C6.224,15.084 5.936,15.06 5.624,15.012 L5.876,16.104 L6.896,16.104 Z M12.728,8.388 L10.364,8.388 C10.916,7.956 11.384,7.476 11.792,6.948 L13.604,6.948 C13.316,7.488 13.016,7.968 12.728,8.388 Z M12.104,11.64 L10.916,11.64 L10.916,9.384 L12.332,9.384 C12.308,10.248 12.224,11.004 12.104,11.64 Z M14.876,11.64 L13.196,11.64 C13.304,11.016 13.364,10.272 13.388,9.384 L14.876,9.384 L14.876,11.64 Z" id="换" fill="#E82B29"></path>
    </g>
</svg>