<?xml version="1.0" encoding="UTF-8"?>
<svg width="22px" height="22px" viewBox="0 0 22 22" version="1.1" xmlns="http://www.w3.org/2000/svg" xmlns:xlink="http://www.w3.org/1999/xlink">
   
    <g id="h5-svg/icon/mall/weixiu" stroke="none" stroke-width="1" fill="none" fill-rule="evenodd">
        <path d="M16.7407657,16.03026 C16.8937633,16.1830876 16.8937633,16.4243138 16.7361757,16.5864913 C16.587938,16.7303091 16.3467118,16.7303091 16.1889542,16.5771415 L13.7870615,14.1801787 C13.6388238,14.0273511 13.6388238,13.7861248 13.7964114,13.6285372 C13.9448191,13.4801295 14.1952252,13.4801295 14.3528127,13.6285372 L16.7407657,16.03026 Z M15.6789621,2.5 C15.9293683,2.5 16.1845343,2.51852971 16.4347704,2.57870878 C16.6991163,2.62511806 16.9401726,2.70399683 17.172049,2.80140532 C17.4965739,2.94046316 17.6543315,3.32533718 17.5105137,3.659212 C17.4784153,3.73479334 17.4328528,3.80391457 17.3760458,3.86320884 C16.8798235,4.35926113 16.3837712,4.85089351 15.8921388,5.34694581 L15.9756075,5.64376119 L16.0498964,5.94516652 L16.3558916,6.02863521 L16.652707,6.107514 C17.1441694,5.61146171 17.6403917,5.12441926 18.136444,4.62360703 C18.3870201,4.36861099 18.8041936,4.36861099 19.0637796,4.62360703 C19.1380685,4.7024858 19.1936576,4.7998943 19.2215372,4.90189271 C19.3104593,5.11392214 19.3772816,5.33455545 19.4209441,5.56029248 L19.4209441,5.56964234 L19.425534,5.56964234 C19.4717733,5.80610867 19.4998228,6.06110472 19.4998228,6.33004055 C19.4998228,7.37331436 19.0685395,8.33311944 18.3776703,9.02874864 C17.6913909,9.71961792 16.7268259,10.1463113 15.6789621,10.1463113 C15.6046733,10.1463113 15.5305544,10.1417214 15.4562656,10.1417214 L14.7329268,10.8557103 L18.7115451,14.8339885 L18.7438446,14.871048 C19.2293109,15.3718544 19.5004394,16.0421748 19.4996528,16.7396589 C19.4996528,17.4259383 19.2400669,18.1168076 18.7113751,18.6407394 L18.7020252,18.6500893 C18.1735034,19.1696012 17.4964039,19.4291872 16.8101246,19.4291872 C16.1238452,19.4291872 15.4237961,19.1696012 14.9090441,18.6407394 L10.921246,14.6577013 L6.85507913,18.733558 C6.00645231,19.5820148 4.98170821,19.6563037 4.14243124,19.2947193 C3.81790628,19.1602514 3.52585082,18.9562545 3.28462457,18.7150283 L3.28003464,18.7150283 C3.03897838,18.4693821 2.83957148,18.1817466 2.70510355,17.8618115 C2.34351917,17.0225346 2.41763801,15.9932005 3.27085478,15.1493336 L3.27085478,15.1399838 L7.80570438,10.6051342 L6.14568014,8.94510995 L4.67112305,8.50464679 C4.48390462,8.45167365 4.33056995,8.31707642 4.25377952,8.13830248 L2.83957148,4.82301394 C2.70969349,4.58195769 2.75151284,4.26661257 2.95550967,4.06261574 L3.54897046,3.47374488 L4.13325139,2.88946396 C4.31412858,2.70875676 4.59700418,2.63905784 4.8474103,2.75040612 L8.20451818,4.18314387 C8.38530048,4.25846403 8.52186593,4.41211582 8.57545243,4.6004874 L9.01132567,6.0750445 L10.6713499,7.73506873 L11.8630314,6.55256709 C11.8584414,6.46909839 11.8536815,6.39021962 11.8536815,6.33004055 L11.8582715,6.33004055 C11.8582715,5.26823703 12.2849648,4.30843194 12.9758341,3.62215258 L12.9758341,3.61739266 C13.6665334,2.93128331 14.6265085,2.5 15.6789621,2.5 Z M13.8055912,11.7828759 L11.8489216,13.7397155 L15.8271999,17.7179937 C16.0915458,17.9869296 16.4577201,18.1259874 16.8101246,18.1259874 C17.1625291,18.1259874 17.5196936,17.9869296 17.7840395,17.7225837 L17.7932193,17.7179937 C18.0621552,17.4584078 18.1874432,17.0920635 18.1874432,16.7396589 C18.1874432,16.3964343 18.0621552,16.0487897 17.811749,15.7890337 L17.7840395,15.7613241 L13.8055912,11.7828759 L13.8055912,11.7828759 Z M8.72369012,9.68697842 L9.74843422,8.66699427 L7.97247179,6.8864419 C7.88403729,6.79726226 7.82293207,6.68466587 7.79635452,6.56191694 L7.4114805,5.25888717 L4.74065196,4.13214467 L4.46712621,4.40108048 L4.19360045,4.67919618 L5.32969282,7.3500247 L6.67437193,7.74424859 C6.78572021,7.77671807 6.87836877,7.83230723 6.95265762,7.91577593 L8.72369012,9.68697842 Z M15.5863136,3.8076197 C14.9497405,3.83096405 14.3460559,4.09629587 13.8984098,4.54948818 C13.4219007,5.01920086 13.1545169,5.66094653 13.1565413,6.33004055 L13.1658912,6.33004055 L13.1658912,6.51091774 L13.1844209,6.66391535 C13.2306601,6.86791219 13.1658912,7.09043873 13.0081336,7.25278621 L4.19360045,16.0627295 L4.18901053,16.0627295 C3.78101686,16.4846629 3.73460758,16.9623555 3.90154499,17.3564094 C3.97107392,17.509237 4.07783226,17.6624046 4.20295031,17.7921126 C4.33741821,17.9219906 4.48582591,18.023989 4.64817339,18.0935179 C5.04222726,18.2650453 5.51532993,18.218636 5.93250346,17.8106423 L10.4488233,13.2944924 L10.4673531,13.2759627 L13.3421784,10.3965474 L13.3607081,10.3734278 L14.7424467,9.00086907 L14.7470366,9.00086907 C14.8815045,8.85246137 15.0902613,8.77834253 15.298848,8.81081203 C15.363787,8.81999188 15.4239661,8.82934174 15.493665,8.82934174 C15.5399043,8.83393168 15.6048433,8.8386916 15.6791322,8.8386916 C16.3747614,8.8386916 17.0052816,8.555816 17.4596845,8.1107629 L17.4596845,8.10141305 C17.8909678,7.67488966 18.1644936,7.07666895 18.1877832,6.41350925 C17.9049076,6.70097479 17.622032,6.97926046 17.3391564,7.27131592 C17.1769789,7.45202312 16.9311627,7.52631196 16.6807566,7.47072284 L16.0223568,7.28984563 L15.3546072,7.10913845 C15.1319107,7.04878939 14.9512035,6.88644192 14.8908544,6.64538564 L14.7147371,5.97763601 L14.5338599,5.30988638 C14.4828607,5.10588955 14.52927,4.85548343 14.7055573,4.69313595 C14.9972727,4.39649056 15.2894982,4.10443509 15.5863136,3.8076197 Z" id="形状" fill="#E82B29" fill-rule="nonzero"></path>
    </g>
</svg>