<?xml version="1.0" encoding="UTF-8"?>
<svg width="22px" height="22px" viewBox="0 0 22 22" version="1.1" xmlns="http://www.w3.org/2000/svg" xmlns:xlink="http://www.w3.org/1999/xlink">
   
    <g id="h5-svg/icon/mall/phone" stroke="none" stroke-width="1" fill="none" fill-rule="evenodd">
        <path d="M4.96749679,0.675263137 C4.24216427,0.816564903 3.68446263,1.18836847 2.98652253,1.87390909 L2.17691598,2.70877482 C0.139950134,4.74954098 2.26545193,10.3855378 6.93094475,15.0533905 C11.6003805,19.7204658 17.2396967,21.8477585 19.2771403,19.8065137 L19.8399301,19.2651973 C20.6996782,18.435411 21.1493437,17.8323452 21.3078998,17.016795 C21.5259671,15.8951426 20.9924502,14.8226907 19.7373385,13.8131443 C17.5589332,12.0630075 16.1145381,12.0047913 14.682219,13.329719 L14.4614613,13.541526 L14.0059072,14.0013348 C13.9319489,14.0748421 12.4656287,13.1213363 10.6640179,11.3221833 L10.1729837,10.8179506 C8.69198206,9.25574416 7.9181786,8.04900821 7.98746355,7.97951644 L8.31820733,7.65237516 C8.45508179,7.51651534 8.55817482,7.41102099 8.6560481,7.30506974 C9.97984882,5.87200914 9.92166323,4.42779556 8.17213958,2.24809492 C7.16311343,0.990967046 6.09014057,0.456561308 4.96749679,0.675263137 Z M5.32807373,2.52618254 C5.67107313,2.45936295 6.09195722,2.66898882 6.70154274,3.42846066 C7.83394186,4.83929674 7.9113705,5.27801482 7.37232467,5.91147255 L7.19071114,6.11059699 L6.65306934,6.64710942 C5.3138543,7.99032063 6.51965132,9.84461917 9.33107177,12.6560396 L9.89978769,13.2143277 C12.3984458,15.6206646 14.0885787,16.5780223 15.3380089,15.3360292 L15.8775418,14.7943883 L15.9627152,14.7140051 C16.6609868,14.0680879 17.0640635,14.0843339 18.5558727,15.2828574 C19.3139823,15.8926414 19.5235366,16.3138783 19.4568438,16.6569199 C19.4026807,16.9355134 19.180931,17.2557952 18.7161943,17.7251554 L17.9431179,18.473734 C17.6089069,18.8085679 16.3854528,18.7956881 14.7554756,18.1808194 C12.7146616,17.4109728 10.4216505,15.876203 8.26434607,13.7199892 C6.10856543,11.563118 4.57435555,9.27075678 3.80479543,7.23018529 C3.19012546,5.60032168 3.17704406,4.37607239 3.51165412,4.04083805 L4.07515945,3.454674 C4.64734453,2.86118911 5.01428774,2.58731108 5.32807373,2.52618254 Z" id="Shape" fill="#666666"></path>
    </g>
</svg>