<?xml version="1.0" encoding="UTF-8"?>
<svg width="90px" height="22px" viewBox="0 0 90 22" version="1.1" xmlns="http://www.w3.org/2000/svg" xmlns:xlink="http://www.w3.org/1999/xlink">
    <!-- Generator: Sketch 60 (88103) - https://sketch.com -->
    <title>h5 svg/icon/train/jingting@2x</title>
    <desc>Created with Sketch.</desc>
    <g id="h5-svg/icon/train/jingting" stroke="none" stroke-width="1" fill="none" fill-rule="evenodd">
        <path d="M61.7222222,10.6944444 L61.7222222,11.3055556 L58.6666667,11.3055556 L58.6666667,10.6944444 L61.7222222,10.6944444 Z M66.2444445,10.6944444 L66.2444445,11.3055556 L63.1888889,11.3055556 L63.1888889,10.6944444 L66.2444445,10.6944444 Z M70.7666668,10.6944444 L70.7666668,11.3055556 L67.7111112,11.3055556 L67.7111112,10.6944444 L70.7666668,10.6944444 Z M75.2888891,10.6944444 L75.2888891,11.3055556 L72.2333335,11.3055556 L72.2333335,10.6944444 L75.2888891,10.6944444 Z M79.8111113,10.6944444 L79.8111113,11.3055556 L76.7555558,11.3055556 L76.7555558,10.6944444 L79.8111113,10.6944444 Z M84.3333336,10.6944444 L84.3333336,11.3055556 L81.2777781,11.3055556 L81.2777781,10.6944444 L84.3333336,10.6944444 Z M88.8555559,10.6944444 L88.8555559,11.3055556 L85.8000003,11.3055556 L85.8000003,10.6944444 L88.8555559,10.6944444 Z M3.05555556,10.6944444 L3.05555556,11.3055556 L0,11.3055556 L0,10.6944444 L3.05555556,10.6944444 Z M7.57777784,10.6944444 L7.57777784,11.3055556 L4.52222228,11.3055556 L4.52222228,10.6944444 L7.57777784,10.6944444 Z M12.1000001,10.6944444 L12.1000001,11.3055556 L9.04444456,11.3055556 L9.04444456,10.6944444 L12.1000001,10.6944444 Z M16.6222224,10.6944444 L16.6222224,11.3055556 L13.5666668,11.3055556 L13.5666668,10.6944444 L16.6222224,10.6944444 Z M21.1444447,10.6944444 L21.1444447,11.3055556 L18.0888891,11.3055556 L18.0888891,10.6944444 L21.1444447,10.6944444 Z M25.666667,10.6944444 L25.666667,11.3055556 L22.6111114,11.3055556 L22.6111114,10.6944444 L25.666667,10.6944444 Z M30.1888892,10.6944444 L30.1888892,11.3055556 L27.1333337,11.3055556 L27.1333337,10.6944444 L30.1888892,10.6944444 Z" id="形状结合" fill="#333333" opacity="0.3"></path>
        <path d="M52.5,17 C52.7761424,17 53,17.2238576 53,17.5 C53,17.7761424 52.7761424,18 52.5,18 L36.5,18 C36.2238576,18 36,17.7761424 36,17.5 C36,17.2238576 36.2238576,17 36.5,17 L52.5,17 Z M43.1864583,6 C48.398204,6 52.0350958,8.19141873 54.0971336,12.5742562 C54.3322813,13.0739966 54.1177574,13.6697305 53.6180056,13.9048538 C53.484827,13.9675117 53.3394593,14 53.1922773,14 L37,14 C36.4477153,14 36,13.5522847 36,13 L36,7.00002172 C35.9999783,6.44772498 36.4477033,6 37,6 L43.1864583,6 Z M39.811875,7.33333333 L37.9372917,7.33333333 C37.6918318,7.33333333 37.4876833,7.51020849 37.4453473,7.7434577 L37.4372917,7.83333333 L37.4372917,9.5 C37.4372917,9.74545989 37.6141668,9.94960837 37.847416,9.99194433 L37.9372917,10 L39.811875,10 C40.0573349,10 40.2614834,9.82312484 40.3038193,9.58987563 L40.311875,9.5 L40.311875,7.83333333 C40.311875,7.55719096 40.0880174,7.33333333 39.811875,7.33333333 Z M44.12375,7.33333333 L42.2491667,7.33333333 C42.0037068,7.33333333 41.7995583,7.51020849 41.7572223,7.7434577 L41.7491667,7.83333333 L41.7491667,9.5 C41.7491667,9.74545989 41.9260418,9.94960837 42.159291,9.99194433 L42.2491667,10 L44.12375,10 C44.3692099,10 44.5733584,9.82312484 44.6156943,9.58987563 L44.62375,9.5 L44.62375,7.83333333 C44.62375,7.55719096 44.3998924,7.33333333 44.12375,7.33333333 Z M46.0610417,7.33333333 L46.0610417,9.5 C46.0610417,9.74545989 46.2379168,9.94960837 46.471166,9.99194433 L46.5610417,10 L50.3729167,10 C49.4147222,8.22222222 47.9774306,7.33333333 46.0610417,7.33333333 Z" id="形状结合" fill="#333333"></path>
    </g>
</svg>