<?xml version="1.0" encoding="UTF-8"?>
<svg width="90px" height="22px" viewBox="0 0 90 22" version="1.1" xmlns="http://www.w3.org/2000/svg" xmlns:xlink="http://www.w3.org/1999/xlink">
    <!-- Generator: Sketch 60 (88103) - https://sketch.com -->
    <title>h5 svg/icon/plane/jingting@2x</title>
    <desc>Created with Sketch.</desc>
    <g id="h5-svg/icon/plane/jingting" stroke="none" stroke-width="1" fill="none" fill-rule="evenodd">
        <path d="M61.7222222,10.6944444 L61.7222222,11.3055556 L58.6666667,11.3055556 L58.6666667,10.6944444 L61.7222222,10.6944444 Z M66.2444445,10.6944444 L66.2444445,11.3055556 L63.1888889,11.3055556 L63.1888889,10.6944444 L66.2444445,10.6944444 Z M70.7666668,10.6944444 L70.7666668,11.3055556 L67.7111112,11.3055556 L67.7111112,10.6944444 L70.7666668,10.6944444 Z M75.2888891,10.6944444 L75.2888891,11.3055556 L72.2333335,11.3055556 L72.2333335,10.6944444 L75.2888891,10.6944444 Z M79.8111113,10.6944444 L79.8111113,11.3055556 L76.7555558,11.3055556 L76.7555558,10.6944444 L79.8111113,10.6944444 Z M84.3333336,10.6944444 L84.3333336,11.3055556 L81.2777781,11.3055556 L81.2777781,10.6944444 L84.3333336,10.6944444 Z M88.8555559,10.6944444 L88.8555559,11.3055556 L85.8000003,11.3055556 L85.8000003,10.6944444 L88.8555559,10.6944444 Z M3.05555556,10.6944444 L3.05555556,11.3055556 L0,11.3055556 L0,10.6944444 L3.05555556,10.6944444 Z M7.57777784,10.6944444 L7.57777784,11.3055556 L4.52222228,11.3055556 L4.52222228,10.6944444 L7.57777784,10.6944444 Z M12.1000001,10.6944444 L12.1000001,11.3055556 L9.04444456,11.3055556 L9.04444456,10.6944444 L12.1000001,10.6944444 Z M16.6222224,10.6944444 L16.6222224,11.3055556 L13.5666668,11.3055556 L13.5666668,10.6944444 L16.6222224,10.6944444 Z M21.1444447,10.6944444 L21.1444447,11.3055556 L18.0888891,11.3055556 L18.0888891,10.6944444 L21.1444447,10.6944444 Z M25.666667,10.6944444 L25.666667,11.3055556 L22.6111114,11.3055556 L22.6111114,10.6944444 L25.666667,10.6944444 Z M30.1888892,10.6944444 L30.1888892,11.3055556 L27.1333337,11.3055556 L27.1333337,10.6944444 L30.1888892,10.6944444 Z" id="形状结合" fill="#ffffff"></path>
        <path d="M43.1909745,4.63931054 L43.1925603,8.72478017 L36.5,13.4133015 L36.5177148,15.3517223 L43.4109778,12.0651405 L43.6669328,17.0681605 L40.8541549,19.0286911 L40.8652362,19.9416026 L44.7697729,19.1739617 L48.1515889,20 L48.1438725,19.086968 L45.5957716,17.0809726 L45.7280521,12.1547649 L52.5,15.4818513 L52.4827687,13.5429085 L45.9612061,8.77020485 L45.9644744,4.66356917 C45.9468563,2.82282555 45.3190656,2.00469943 44.5311072,2 C43.7489699,1.99194759 43.1798931,2.79844644 43.1909165,4.63929046 L43.1909745,4.63931054 Z" id="Path备份" fill="#ffffff" fill-rule="nonzero" transform="translate(44.500000, 11.000000) rotate(-270.000000) translate(-44.500000, -11.000000) "></path>
    </g>
</svg>
