<?xml version="1.0" encoding="UTF-8"?>
<svg width="22px" height="22px" viewBox="0 0 22 22" version="1.1" xmlns="http://www.w3.org/2000/svg" xmlns:xlink="http://www.w3.org/1999/xlink">
    <!-- Generator: Sketch 60 (88103) - https://sketch.com -->
    <title>h5 svg/icon/plane/chage@2x</title>
    <desc>Created with Sketch.</desc>
    <g id="h5-svg/icon/plane/chage" stroke="none" stroke-width="1" fill="none" fill-rule="evenodd">
        <polygon id="矩形" fill="#F49939" points="0 11.5778802 12.1361412 0 22 0 0 21.6451613"></polygon>
        <path d="M5.80667641,10.3096562 L6.03661189,9.96901101 C5.69170867,9.76888198 5.38938609,9.49210779 5.12538609,9.13443037 C5.41493447,8.64901101 5.57248286,8.05714004 5.60228931,7.3545594 L5.90035383,7.3545594 L5.90035383,6.97133359 L4.58886996,6.97133359 C4.62719254,6.80101101 4.66125705,6.6221723 4.69532157,6.43481746 L4.29932157,6.36668843 C4.19712802,7.0905594 3.99699899,7.66539811 3.69893447,8.09120456 L3.94590221,8.40630133 C4.0310635,8.29559166 4.10770867,8.17210779 4.18435383,8.04436585 C4.31635383,8.44462392 4.47816028,8.8065594 4.66551512,9.12591424 C4.39299899,9.48359166 4.02680544,9.76462392 3.55841834,9.96901101 L3.80538609,10.30114 C4.24822479,10.0882368 4.61016028,9.81146262 4.89119254,9.4665594 C5.14667641,9.81997875 5.45325705,10.101011 5.80667641,10.3096562 Z M2.30228931,10.0882368 C2.8558377,9.90939811 3.36254738,9.70926908 3.81390221,9.49210779 L3.75854738,9.12165617 C3.40086996,9.29197875 3.05596673,9.43675295 2.71957963,9.55172069 L2.71957963,8.31262392 L3.65635383,8.31262392 L3.65635383,6.6349465 L2.13622479,6.6349465 L2.13622479,7.02243037 L3.26035383,7.02243037 L3.26035383,7.93791424 L2.3278377,7.93791424 L2.3278377,9.47933359 C2.3278377,9.61559166 2.27674092,9.70075295 2.1830635,9.73907553 L2.30228931,10.0882368 Z M4.88693447,8.76397875 C4.6910635,8.42333359 4.52925705,8.02733359 4.40151512,7.57172069 C4.4270635,7.50359166 4.45261189,7.43120456 4.47816028,7.3545594 L5.21054738,7.3545594 C5.19777318,7.89107553 5.09132157,8.36372069 4.88693447,8.76397875 Z M6.70938609,7.62707553 C6.84138609,7.45675295 6.96061189,7.26514004 7.0670635,7.06075295 L7.34809576,7.06075295 C7.41622479,7.21830133 7.4758377,7.38010779 7.52693447,7.55043037 L7.89312802,7.41843037 C7.85480544,7.30772069 7.80796673,7.18849488 7.74835383,7.06075295 L8.28061189,7.06075295 L8.28061189,6.70307553 L7.22035383,6.70307553 C7.25016028,6.61791424 7.27996673,6.53275295 7.30977318,6.43907553 L6.91803125,6.35391424 C6.80732157,6.72862392 6.62422479,7.07778521 6.36022479,7.40565617 L6.70938609,7.62707553 Z M9.42603125,7.59301101 L9.79648286,7.45249488 C9.74538609,7.33326908 9.68151512,7.20126908 9.60061189,7.06075295 L10.200999,7.06075295 L10.200999,6.70307553 L9.00448286,6.70307553 C9.03428931,6.61791424 9.06409576,6.53275295 9.08964415,6.43907553 L8.70641834,6.35391424 C8.62125705,6.66901101 8.47648286,6.9585594 8.28061189,7.23107553 L8.62125705,7.44823682 C8.70641834,7.32901101 8.7830635,7.19701101 8.85119254,7.06075295 L9.18757963,7.06075295 C9.27699899,7.23107553 9.35790221,7.40565617 9.42603125,7.59301101 Z M9.41325705,8.69584972 L9.41325705,8.39778521 C9.60912802,8.48720456 9.82203125,8.57236585 10.0477087,8.64901101 L10.2435796,8.29984972 C9.55377318,8.08268843 8.94912802,7.78462392 8.42112802,7.40991424 L8.16564415,7.40991424 C7.68022479,7.75907553 7.07557963,8.05288198 6.34319254,8.29133359 L6.5390635,8.64475295 C6.76048286,8.56384972 6.97338609,8.47868843 7.17777318,8.39352714 L7.17777318,8.69584972 L9.41325705,8.69584972 Z M9.29403125,8.34243037 L7.28848286,8.34243037 C7.67596673,8.15933359 8.01235383,7.95920456 8.29338609,7.73778521 C8.58293447,7.96346262 8.91932157,8.16359166 9.29403125,8.34243037 Z M8.18267641,9.68372069 L8.54461189,9.59430133 C8.46796673,9.28346262 8.38280544,9.00668843 8.28486996,8.76823682 L7.91016028,8.88746262 C8.02086996,9.1429465 8.11028931,9.4069465 8.18267641,9.68372069 Z M10.1073216,10.1733981 L10.1073216,9.79868843 L9.26422479,9.79868843 C9.40899899,9.5389465 9.53248286,9.24514004 9.63467641,8.92152714 L9.23441834,8.81507553 C9.11519254,9.19404327 8.98319254,9.52191424 8.82990221,9.79868843 L6.48796673,9.79868843 L6.48796673,10.1733981 L10.1073216,10.1733981 Z M7.25867641,9.72630133 L7.62486996,9.63262392 C7.52693447,9.33881746 7.42048286,9.07907553 7.30125705,8.85339811 L6.93080544,8.97262392 C7.0670635,9.21107553 7.17351512,9.46230133 7.25867641,9.72630133 Z M14.1567409,8.12952714 L14.1567409,7.12462392 L13.2029345,7.12462392 L13.2029345,6.85210779 L14.4548054,6.85210779 L14.4548054,6.5029465 L10.6480958,6.5029465 L10.6480958,6.85210779 L11.8999667,6.85210779 L11.8999667,7.12462392 L10.9461603,7.12462392 L10.9461603,8.12952714 L14.1567409,8.12952714 Z M12.8197087,7.12462392 L12.2831925,7.12462392 L12.2831925,6.85210779 L12.8197087,6.85210779 L12.8197087,7.12462392 Z M13.7692571,7.80165617 L13.2029345,7.80165617 L13.2029345,7.45675295 L13.7692571,7.45675295 L13.7692571,7.80165617 Z M12.8197087,7.80165617 L12.2831925,7.80165617 L12.2831925,7.45675295 L12.8197087,7.45675295 L12.8197087,7.80165617 Z M11.8999667,7.80165617 L11.3336441,7.80165617 L11.3336441,7.45675295 L11.8999667,7.45675295 L11.8999667,7.80165617 Z M13.9864183,8.70862392 L13.9864183,8.37649488 L11.1420312,8.37649488 L11.1420312,8.70862392 L13.9864183,8.70862392 Z M12.3683538,10.2798497 C12.6493861,10.2798497 12.7941603,10.1393336 12.7941603,9.86681746 L12.7941603,9.28772069 L14.3866764,9.28772069 L14.3866764,8.94281746 L10.7162248,8.94281746 L10.7162248,9.28772069 L12.4024183,9.28772069 L12.4024183,9.78165617 C12.4024183,9.88810779 12.3470635,9.94346262 12.2363538,9.94346262 C12.1299022,9.94346262 12.0191925,9.9349465 11.8999667,9.9221723 L11.9766119,10.2798497 L12.3683538,10.2798497 Z M14.1482248,10.2457852 L14.4292571,9.96475295 C14.1652571,9.76888198 13.8459022,9.56875295 13.4626764,9.37288198 L13.1944183,9.62836585 C13.6031925,9.84978521 13.9225474,10.0541723 14.1482248,10.2457852 Z M10.9504183,10.2457852 C11.3591925,10.0669465 11.7083538,9.85830133 11.9893861,9.61984972 L11.7253861,9.38139811 C11.4486119,9.59004327 11.1079667,9.77314004 10.7077087,9.93068843 L10.9504183,10.2457852 Z" id="改签票" fill="#FFFFFF" fill-rule="nonzero" transform="translate(8.295515, 8.331785) rotate(-45.000000) translate(-8.295515, -8.331785) "></path>
    </g>
</svg>