<?xml version="1.0" encoding="UTF-8"?>
<svg width="22px" height="22px" viewBox="0 0 22 22" version="1.1" xmlns="http://www.w3.org/2000/svg" xmlns:xlink="http://www.w3.org/1999/xlink">
    <!-- Generator: Sketch 60 (88103) - https://sketch.com -->
    <title>h5 svg/icon/plane/service</title>
    <desc>Created with Sketch.</desc>
    <g id="h5-svg/icon/plane/service" stroke="none" stroke-width="1" fill="none" fill-rule="evenodd">
        <path d="M11.2174209,17.1875 C11.3213938,17.1875 11.4272673,17.1810622 11.5337499,17.1682112 C12.5550331,17.0441412 13.4222698,16.3215506 13.7424,15.3257347 C13.7664987,15.2511694 13.7316299,15.1714489 13.6612588,15.1386678 C13.5915212,15.1058866 13.5072122,15.1341785 13.4679087,15.2010234 C13.4641075,15.2074612 13.0583769,15.8709028 11.478608,16.0869029 C11.2421531,16.1190427 11.0120336,16.1357663 10.7939513,16.1357663 C9.68709209,16.135125 9.19388488,15.712769 9.18945013,15.7088964 C9.13367466,15.6587504 9.04870782,15.6574678 8.9916653,15.7063312 C8.93398922,15.7551945 8.92066063,15.8400456 8.95996418,15.9049912 C9.44176778,16.6957092 10.3064459,17.1875 11.2174209,17.1875 Z M19.6002628,7.46788474 C19.5862859,7.46788474 19.5736017,7.47034146 19.5602834,7.47034146 C18.6337312,3.58546232 15.0932213,0.6875 10.8483025,0.6875 C6.48661646,0.6875 2.86487931,3.74555077 2.06207069,7.79110892 C1.28150813,7.92717348 0.6875,8.5914803 0.6875,9.39494618 L0.6875,12.610605 C0.6875,13.5119382 1.43381538,14.2427418 2.3552695,14.2427418 C2.87502659,14.2427418 3.33385104,14.0051013 3.63909979,13.6399948 C4.37648749,15.5288117 5.87792401,17.0519315 7.7778621,17.855421 C7.7824235,17.8458304 7.81840257,17.7781288 7.86162621,17.7241754 C7.89160468,17.6867577 7.92504691,17.656025 7.95383015,17.656025 C7.98366227,17.656025 8.01095757,17.6664897 8.03442324,17.6825056 C7.59462501,17.3654233 6.00620458,15.7357432 5.6622448,13.4614573 C5.51120594,12.4603671 6.28542645,11.4777732 7.18722014,11.315228 C8.63477343,11.0541778 10.0747162,10.75682 11.5222695,10.5007069 C12.4424552,10.3381617 13.0713691,9.84932146 13.4559426,9.03541451 C13.5460487,8.84516036 13.6761588,8.46037642 13.735823,7.90565354 C13.7516782,7.82316441 13.8214898,7.7597385 13.9109861,7.7597385 C13.9706504,7.7597385 14.0214114,7.78929001 14.0550487,7.83176295 L14.0950282,7.80776268 C14.6655462,8.60997658 15.7970692,10.3861859 15.9595238,12.2590578 C16.1461027,14.4003736 16.0420195,15.8668944 14.349516,17.3672895 C14.3476133,17.369132 14.3450765,17.3715888 14.3425397,17.3734549 C14.3190496,17.3980694 14.3050971,17.4301012 14.3050971,17.4651804 C14.3050971,17.511362 14.3304897,17.550764 14.3672981,17.5747643 C14.3812507,17.5803155 14.3952277,17.5876857 14.4091802,17.5932369 C14.4205959,17.5956937 14.4313775,17.5994024 14.4428176,17.5994024 C14.4542577,17.5994024 14.464405,17.5957173 14.4745523,17.5932369 C14.4986766,17.5809297 14.521508,17.5667563 14.5449981,17.5544491 C16.2565523,16.6413993 17.5695561,15.1163897 18.1762483,13.2823057 C18.4218329,13.6356955 18.8064063,13.8899662 19.2531808,13.9786207 C18.5366975,17.1345624 15.6301752,19.1096244 12.0293669,19.4094624 C11.8135901,18.8910707 11.2824173,18.5228932 10.6586014,18.5228932 C9.84376728,18.5228932 9.18311863,19.147798 9.18311863,19.9180037 C9.18311863,20.6882094 9.84374289,21.3125 10.6586014,21.3125 C11.3154204,21.3125 11.8656439,20.9036922 12.0566622,20.3422133 C16.2247931,20.0140521 19.56604,17.6147805 20.2634971,13.8868953 C20.8797024,13.6375381 21.3125,13.0520353 21.3125,12.3686417 L21.3125,9.11480911 C21.3125,8.20546799 20.5458168,7.46788474 19.6002628,7.46788474 Z M17.7106205,8.25 C16.6481498,5.44455816 13.8948712,3.44040221 10.6559401,3.44040221 C7.43064561,3.44040221 4.68730845,5.42759406 3.61489631,8.21486342 C3.56156536,8.15125971 3.49891282,8.09676549 3.4375,8.04164383 C4.04471466,4.64506162 7.04362079,2.0625 10.6596592,2.0625 C14.2583417,2.0625 17.2479263,4.61961548 17.875,7.99258741 C17.8129673,8.0737594 17.7558934,8.15855661 17.7106205,8.25 Z" id="h5-svg/icon/plane/" fill="#FFFFFF"></path>
    </g>
</svg>