<?xml version="1.0" encoding="UTF-8"?>
<svg width="22px" height="22px" viewBox="0 0 22 22" version="1.1" xmlns="http://www.w3.org/2000/svg" xmlns:xlink="http://www.w3.org/1999/xlink">
    <!-- Generator: Sketch 60 (88103) - https://sketch.com -->
    <title>h5 svg/icon/plane/time</title>
    <desc>Created with Sketch.</desc>
    <g id="h5-svg/icon/plane/time" stroke="none" stroke-width="1" fill="none" fill-rule="evenodd">
        <path d="M11,0.55 C16.7713756,0.55 21.45,5.22862436 21.45,11 C21.45,16.7713756 16.7713756,21.45 11,21.45 C5.22862436,21.45 0.55,16.7713756 0.55,11 C0.55,5.22862436 5.22862436,0.55 11,0.55 Z M11,2.2 C6.1398942,2.2 2.2,6.1398942 2.2,11 C2.2,15.8601058 6.1398942,19.8 11,19.8 C15.8601058,19.8 19.8,15.8601058 19.8,11 C19.8,6.1398942 15.8601058,2.2 11,2.2 Z M11,4.60625 C11.4487314,4.60625 11.8202239,4.93694876 11.8840595,5.36792818 L11.89375,5.5 L11.89325,10.10325 L16.5474537,10.1033301 C17.0410582,10.1033301 17.4412037,10.5034756 17.4412037,10.9970801 C17.4412037,11.4458115 17.1105049,11.817304 16.6795255,11.8811396 L16.5474537,11.8908301 L11.0474537,11.8908301 L11,11.89375 C10.5512686,11.89375 10.1797761,11.5630512 10.1159405,11.1320718 L10.10625,11 L10.10625,5.5 C10.10625,5.0063955 10.5063955,4.60625 11,4.60625 Z" id="形状结合" fill="#FFFFFF"></path>
    </g>
</svg>