<?xml version="1.0" encoding="UTF-8"?>
<svg width="22px" height="22px" viewBox="0 0 22 22" version="1.1" xmlns="http://www.w3.org/2000/svg" xmlns:xlink="http://www.w3.org/1999/xlink">
    <!-- Generator: Sketch 60 (88103) - https://sketch.com -->
    <title>h5 svg/btn/common/radio_dis1</title>
    <desc>Created with Sketch.</desc>
    <g id="h5-svg/btn/common/radio_dis1" stroke="none" stroke-width="1" fill="none" fill-rule="evenodd" opacity="0.402529762">
        <g id="Oval-2" transform="translate(0.500000, 0.500000)">
            <path d="M10.5,0 C16.2989899,0 21,4.70101013 21,10.5 C21,16.2989899 16.2989899,21 10.5,21 C4.70101013,21 0,16.2989899 0,10.5 C0,4.70101013 4.70101013,0 10.5,0 Z" id="Oval" fill="#D3D3D3"></path>
            <path d="M10.5,21 C16.2989899,21 21,16.2989899 21,10.5 C21,4.70101013 16.2989899,0 10.5,0 C4.70101013,0 0,4.70101013 0,10.5 C0,16.2989899 4.70101013,21 10.5,21 Z M10.5,20.4 C5.03238098,20.4 0.6,15.967619 0.6,10.5 C0.6,5.03238098 5.03238098,0.6 10.5,0.6 C15.967619,0.6 20.4,5.03238098 20.4,10.5 C20.4,15.967619 15.967619,20.4 10.5,20.4 Z" id="Oval" fill="#999999"></path>
        </g>
    </g>
</svg>