<?xml version="1.0" encoding="UTF-8"?>
<svg width="20px" height="20px" viewBox="0 0 20 20" version="1.1" xmlns="http://www.w3.org/2000/svg" xmlns:xlink="http://www.w3.org/1999/xlink">
    <!-- Generator: Sketch 60 (88103) - https://sketch.com -->
    <title>h5 svg/icon/mall/collect2</title>
    <desc>Created with Sketch.</desc>
    <g id="06我" stroke="none" stroke-width="1" fill="none" fill-rule="evenodd">
        <g id="03购物车" transform="translate(-265.000000, -426.000000)">
            <rect fill="#F6F9FD" x="0" y="0" width="375" height="812"></rect>
            <g id="编组-2备份-3" transform="translate(-110.000000, 379.000000)">
                <g id="编组-4" fill="#FFFFFF">
                    <path d="M8,0 L475,0 L475,0 L475,132 L8,132 C3.581722,132 5.41083001e-16,128.418278 0,124 L0,8 C-5.41083001e-16,3.581722 3.581722,8.11624501e-16 8,0 Z" id="矩形"></path>
                </g>
                <g id="移入收藏" transform="translate(355.000000, 0.000000)">
                    <rect id="矩形备份" fill="#EA7633" x="0" y="0" width="60" height="132"></rect>
                    <g id="h5-svg/icon/mall/collect2" transform="translate(20.000000, 47.000000)" fill="#FFFFFF">
                        <path d="M8.11685424,2.4599392 L6.87203794,4.98221252 C6.74094213,5.24784164 6.4875331,5.43195408 6.19439395,5.47454969 L3.41090009,5.87901503 C2.95386232,5.9454265 2.53146326,6.16064957 2.20909519,6.49136521 C1.39954264,7.32188072 1.41653649,8.65141858 2.247052,9.46097112 L4.26120708,11.4242871 C4.47332456,11.6310505 4.5701182,11.9289507 4.52004405,12.2209054 L4.04456654,14.993152 C3.96649517,15.448343 4.04065598,15.916576 4.25556803,16.325363 C4.79526973,17.3519366 6.06498675,17.7466243 7.09156038,17.2069226 L9.58119299,15.8980453 C9.84338461,15.760203 10.1566154,15.760203 10.418807,15.8980453 L12.9084396,17.2069226 C13.3172266,17.4218347 13.7854596,17.4959955 14.2406506,17.4179241 C15.3837571,17.221866 16.1514916,16.1362586 15.9554335,14.993152 L15.4799559,12.2209054 C15.4298818,11.9289507 15.5266754,11.6310505 15.7387929,11.4242871 L17.752948,9.46097112 C18.0836636,9.13860305 18.2988867,8.71620399 18.3652982,8.25916622 C18.5320752,7.11142201 17.7368441,6.04579202 16.5890999,5.87901503 L13.805606,5.47454969 C13.5124669,5.43195408 13.2590579,5.24784164 13.1279621,4.98221252 L11.8831458,2.4599392 C11.6787523,2.04579273 11.3435345,1.71057493 10.929388,1.50618143 C9.88935531,0.992894616 8.63014105,1.41990651 8.11685424,2.4599392 Z M10.3983091,2.58226472 C10.5758005,2.66986194 10.7194653,2.81352671 10.8070625,2.99101805 L12.0518788,5.51329137 C12.357769,6.13309267 12.9490567,6.56268835 13.6330481,6.66207811 L16.4165419,7.06654344 C16.9084323,7.1380193 17.2492456,7.59471787 17.1777698,8.08660824 C17.1493077,8.28248157 17.0570692,8.46350974 16.915334,8.60166749 L14.9011789,10.5649835 C14.4062381,11.0474315 14.1803863,11.7425319 14.297226,12.4237594 L14.7727035,15.1960061 C14.8567284,15.6859089 14.5276993,16.1511692 14.0377965,16.2351941 C13.8427147,16.2686533 13.6420434,16.2368701 13.466849,16.1447649 L10.9772164,14.8358876 C10.3654359,14.5142556 9.63456408,14.5142556 9.02278363,14.8358876 L6.53315103,16.1447649 C6.0931909,16.3760657 5.54902646,16.2069138 5.31772574,15.7669537 C5.22562057,15.5917592 5.19383737,15.391088 5.22729652,15.1960061 L5.70277404,12.4237594 C5.81961371,11.7425319 5.59376189,11.0474315 5.09882111,10.5649835 L3.08466603,8.60166749 C2.72873081,8.25471639 2.72144773,7.68491446 3.06839882,7.32897924 C3.20655657,7.18724396 3.38758474,7.09500551 3.58345806,7.06654344 L6.36695193,6.66207811 C7.05094327,6.56268835 7.642231,6.13309267 7.94812123,5.51329137 L9.19293753,2.99101805 C9.39599605,2.57957655 9.87144735,2.39199387 10.2939695,2.53858983 L10.3983091,2.58226472 Z" id="星形备份"></path>
                    </g>
                </g>
            </g>
        </g>
    </g>
</svg>