<?xml version="1.0" encoding="UTF-8"?>
<svg width="22px" height="22px" viewBox="0 0 22 22" version="1.1" xmlns="http://www.w3.org/2000/svg" xmlns:xlink="http://www.w3.org/1999/xlink">
    <!-- Generator: Sketch 58 (84663) - https://sketch.com -->
    <title>btn_common_contacts</title>
    <desc>Created with Sketch.</desc>
    <g id="btn_common_contacts" stroke="none" stroke-width="1" fill="none" fill-rule="evenodd">
        <g id="编组" transform="translate(3.000000, 2.000000)" fill="#575757" fill-rule="nonzero">
            <path d="M8.73255593,10.0128637 C11.7213614,10.0128637 14.1498554,7.6402602 14.1498554,4.70643186 C14.1498554,1.77260351 11.7213614,-0.6 8.73255593,-0.6 C5.74375048,-0.6 3.31525645,1.77260351 3.31525645,4.70643186 C3.31525645,7.6402602 5.74375048,10.0128637 8.73255593,10.0128637 Z M8.73255593,8.81286372 C6.4003193,8.81286372 4.51525645,6.97118459 4.51525645,4.70643186 C4.51525645,2.44167912 6.4003193,0.6 8.73255593,0.6 C11.0647926,0.6 12.9498554,2.44167912 12.9498554,4.70643186 C12.9498554,6.97118459 11.0647926,8.81286372 8.73255593,8.81286372 Z" id="Oval"></path>
            <path d="M8.73255593,8.81286372 C3.58141405,8.81286372 -0.6,12.8980447 -0.6,17.9444444 C-0.6,18.2758153 -0.33137085,18.5444444 -2.84217094e-14,18.5444444 C0.33137085,18.5444444 0.6,18.2758153 0.6,17.9444444 C0.6,13.5671203 4.23798287,10.0128637 8.73255593,10.0128637 C9.06392678,10.0128637 9.33255593,9.74423457 9.33255593,9.41286372 C9.33255593,9.08149287 9.06392678,8.81286372 8.73255593,8.81286372 Z" id="路径"></path>
            <path d="M16.6907316,14.5 L9.851404,14.5 C9.53089318,14.5 9.27106781,14.7686292 9.27106781,15.1 C9.27106781,15.4313708 9.53089318,15.7 9.851404,15.7 L16.6907316,15.7 C17.0112424,15.7 17.2710678,15.4313708 17.2710678,15.1 C17.2710678,14.7686292 17.0112424,14.5 16.6907316,14.5 Z" id="路径"></path>
            <path d="M16.6907316,12 L9.851404,12 C9.53089318,12 9.27106781,12.2686292 9.27106781,12.6 C9.27106781,12.9313708 9.53089318,13.2 9.851404,13.2 L16.6907316,13.2 C17.0112424,13.2 17.2710678,12.9313708 17.2710678,12.6 C17.2710678,12.2686292 17.0112424,12 16.6907316,12 Z" id="路径备份"></path>
            <path d="M16.6907316,17 L9.851404,17 C9.53089318,17 9.27106781,17.2686292 9.27106781,17.6 C9.27106781,17.9313708 9.53089318,18.2 9.851404,18.2 L16.6907316,18.2 C17.0112424,18.2 17.2710678,17.9313708 17.2710678,17.6 C17.2710678,17.2686292 17.0112424,17 16.6907316,17 Z" id="路径备份-2"></path>
        </g>
    </g>
</svg>