<?xml version="1.0" encoding="UTF-8"?>
<svg width="22px" height="22px" viewBox="0 0 22 22" version="1.1" xmlns="http://www.w3.org/2000/svg" xmlns:xlink="http://www.w3.org/1999/xlink">
    <!-- Generator: Sketch 60 (88103) - https://sketch.com -->
    <title>h5 svg/btn/common/edit@2x</title>
    <desc>Created with Sketch.</desc>
    <g id="h5-svg/btn/common/edit" stroke="none" stroke-width="1" fill="none" fill-rule="evenodd">
        <g id="编组" transform="translate(1.000000, 1.000000)" fill="#979797" fill-rule="nonzero">
            <path d="M18.0451128,7.99140709 L18.0451128,17.443609 C18.0451128,17.7758104 17.7758104,18.0451128 17.443609,18.0451128 L2.40601504,18.0451128 C2.07381368,18.0451128 1.80451128,17.7758104 1.80451128,17.443609 L1.80451128,2.40601504 C1.80451128,2.07381369 2.07381368,1.80451128 2.40601504,1.80451128 L12.2005908,1.80451128 C12.6988928,1.80451128 13.1028464,1.40055767 13.1028464,0.902255641 C13.1028464,0.403953611 12.6988928,1.83759497e-09 12.2005908,1.83759497e-09 L2.40601504,1.83759497e-09 C1.07720962,1.83759497e-09 -3.73034936e-14,1.07720963 -3.73034936e-14,2.40601504 L-3.73034936e-14,17.443609 C-3.73034936e-14,18.7724144 1.07720962,19.8496241 2.40601504,19.8496241 L17.443609,19.8496241 C18.7724144,19.8496241 19.8496241,18.7724144 19.8496241,17.443609 L19.8496241,7.99140709 C19.8496241,7.49310506 19.4456705,7.08915145 18.9473684,7.08915145 C18.4490664,7.08915145 18.0451128,7.49310506 18.0451128,7.99140709 Z" id="路径"></path>
            <path d="M8.30779355,12.8178121 L19.5637424,1.53961656 C19.9157472,1.18691613 19.9151832,0.615639739 19.5624828,0.263635022 C19.2097823,-0.088369694 18.6385059,-0.0878057075 18.2865012,0.264894721 L7.03055231,11.5430902 C6.6785476,11.8957906 6.67911158,12.467067 7.03181201,12.8190717 C7.38451244,13.1710765 7.95578884,13.1705125 8.30779355,12.8178121 Z" id="路径-42" opacity="0.7"></path>
        </g>
    </g>
</svg>