<?xml version="1.0" encoding="UTF-8"?>
<svg width="26px" height="26px" viewBox="0 0 26 26" version="1.1" xmlns="http://www.w3.org/2000/svg" xmlns:xlink="http://www.w3.org/1999/xlink">
    <!-- Generator: Sketch 60 (88103) - https://sketch.com -->
    <title>icon/菜单栏/购物车/默认</title>
    <desc>Created with Sketch.</desc>
    <g id="icon/菜单栏/购物车/默认" stroke="none" stroke-width="1" fill="none" fill-rule="evenodd">
        <path d="M8.74995073,19.2009675 C9.21407739,18.9330108 9.78592261,18.9330108 10.2500493,19.2009675 C10.7141759,19.4689241 11.000061,19.9641219 11,20.5 C11.000061,21.0358781 10.7141759,21.5310759 10.2500493,21.7990325 C9.78592261,22.0669892 9.21407739,22.0669892 8.74995073,21.7990325 C8.28582408,21.5310759 7.99993903,21.0358781 8,20.5 C7.99993903,19.9641219 8.28582408,19.4689241 8.74995073,19.2009675 Z M17.7499507,19.2009675 C18.2140774,18.9330108 18.7859226,18.9330108 19.2500493,19.2009675 C19.7141759,19.4689241 20.000061,19.9641219 20,20.5 C20.000061,21.0358781 19.7141759,21.5310759 19.2500493,21.7990325 C18.7859226,22.0669892 18.2140774,22.0669892 17.7499507,21.7990325 C17.2858241,21.5310759 16.999939,21.0358781 17,20.5 C16.999939,19.9641219 17.2858241,19.4689241 17.7499507,19.2009675 Z M5.5772589,4.4185349 C6.29614905,5.03226668 6.72246075,5.9078974 6.75524245,6.83807586 C7.05997483,9.30973236 7.8527792,15.0020322 7.89674277,15.2594964 C7.9072411,15.2685321 8.07181231,16.651127 9.24113423,16.743862 C10.5577041,16.8197361 23.2461726,16.743862 23.3674356,16.743862 C23.5357462,16.7367632 23.6995032,16.7981432 23.8194472,16.9132865 C23.9393912,17.0284299 24.0047069,17.1869543 23.9997356,17.3508549 C23.999768,17.6874785 23.7219196,17.9616669 23.3760972,17.9662782 L23.16618,17.9669693 C21.9676759,17.9717738 16.193117,18 12.991626,18 L9.16317945,18 C7.81346782,17.8476283 6.76202324,16.7889588 6.65130273,15.4708631 C6.65130273,15.4202804 5.78513835,9.51053051 5.50796575,6.99825453 C5.49744801,6.40649919 5.25226447,5.8416187 4.82369588,5.4217592 C4.67614117,5.31402799 4.49710462,5.25495751 4.31265889,5.25315006 L2.64096164,5.25315006 C2.2869683,5.25315006 2,4.97384122 2,4.6292963 C2,4.28475138 2.2869683,4.00544253 2.64096164,4.00544253 L4.16541095,4.00544253 C4.67225441,3.96904377 5.17504922,4.11615643 5.5772589,4.4185349 Z M21.5125182,5.54583763 C21.9627579,6.11203509 22.1133105,6.88021947 21.9130049,7.58929336 C21.6486837,9.03921423 20.7515935,12.676735 20.7115449,12.8463164 C20.6714962,13.0158978 20.2629998,14.5421302 17.6518267,14.7201907 C15.5261216,14.8653689 10.2695589,14.9875311 9.69284343,14.9991039 L9.656,14.999 L9.57129138,14.9918976 C9.29350636,14.9439208 9.08150977,14.6886555 9.08150977,14.3810279 C9.08150977,14.0392196 9.34323395,13.7621131 9.66612244,13.7620559 C9.72219058,13.7620559 15.3850721,13.6348698 17.6037683,13.4822466 C19.3338707,13.3635396 19.5981919,12.558028 19.6062017,12.5241117 C19.6142114,12.4901955 20.5193113,8.80180028 20.7756227,7.36883756 C20.8782346,7.0538001 20.8460654,6.70706647 20.6875157,6.41918177 C20.5023443,6.27814132 20.2720409,6.22023925 20.046737,6.25807945 L8.58480842,6.25807945 C8.37588816,6.25811647 8.1828229,6.14014916 8.07835267,5.94862334 C7.97388244,5.75709751 7.97388244,5.52111727 8.07835267,5.32959145 C8.1828229,5.13806562 8.37588816,5.02009831 8.58480842,5.02013533 L19.9105715,5.02013533 C20.4918663,4.93404156 21.0791556,5.12676915 21.5125182,5.54583763 Z" id="形状结合" fill="#A4ACB2"></path>
    </g>
</svg>