<?xml version="1.0" encoding="UTF-8"?>
<svg width="26px" height="26px" viewBox="0 0 26 26" version="1.1" xmlns="http://www.w3.org/2000/svg" xmlns:xlink="http://www.w3.org/1999/xlink">
    <!-- Generator: Sketch 60 (88103) - https://sketch.com -->
    <title>icon/菜单栏/购物车/选取</title>
    <desc>Created with Sketch.</desc>
    <defs>
        <linearGradient x1="14.0532257%" y1="16.5289256%" x2="88.0687684%" y2="83.4710744%" id="linearGradient-1">
            <stop stop-color="#FF7A77" offset="0%"></stop>
            <stop stop-color="#E82B29" offset="100%"></stop>
        </linearGradient>
        <linearGradient x1="14.0532257%" y1="24.4897959%" x2="88.0687684%" y2="75.5102041%" id="linearGradient-2">
            <stop stop-color="#FF7A77" offset="0%"></stop>
            <stop stop-color="#E82B29" offset="100%"></stop>
        </linearGradient>
    </defs>
    <g id="icon/菜单栏/购物车/选取" stroke="none" stroke-width="1" fill="none" fill-rule="evenodd">
        <path d="M8.74995073,19.2009675 C9.21407739,18.9330108 9.78592261,18.9330108 10.2500493,19.2009675 C10.7141759,19.4689241 11.000061,19.9641219 11,20.5 C11.000061,21.0358781 10.7141759,21.5310759 10.2500493,21.7990325 C9.78592261,22.0669892 9.21407739,22.0669892 8.74995073,21.7990325 C8.28582408,21.5310759 7.99993903,21.0358781 8,20.5 C7.99993903,19.9641219 8.28582408,19.4689241 8.74995073,19.2009675 Z M17.7499507,19.2009675 C18.2140774,18.9330108 18.7859226,18.9330108 19.2500493,19.2009675 C19.7141759,19.4689241 20.000061,19.9641219 20,20.5 C20.000061,21.0358781 19.7141759,21.5310759 19.2500493,21.7990325 C18.7859226,22.0669892 18.2140774,22.0669892 17.7499507,21.7990325 C17.2858241,21.5310759 16.999939,21.0358781 17,20.5 C16.999939,19.9641219 17.2858241,19.4689241 17.7499507,19.2009675 Z M5.5772589,4.4185349 C6.29614905,5.03226668 6.72246075,5.9078974 6.75524245,6.83807586 C7.05997483,9.30973236 7.8527792,15.0020322 7.89674277,15.2594964 C7.9072411,15.2685321 8.07181231,16.651127 9.24113423,16.743862 C10.5577041,16.8197361 23.2461726,16.743862 23.3674356,16.743862 C23.5357462,16.7367632 23.6995032,16.7981432 23.8194472,16.9132865 C23.9393912,17.0284299 24.0047069,17.1869543 23.9997356,17.3508549 C23.999768,17.6874785 23.7219196,17.9616669 23.3760972,17.9662782 L23.16618,17.9669693 C21.9676759,17.9717738 16.193117,18 12.991626,18 L9.16317945,18 C7.81346782,17.8476283 6.76202324,16.7889588 6.65130273,15.4708631 C6.65130273,15.4202804 5.78513835,9.51053051 5.50796575,6.99825453 C5.49744801,6.40649919 5.25226447,5.8416187 4.82369588,5.4217592 C4.67614117,5.31402799 4.49710462,5.25495751 4.31265889,5.25315006 L2.64096164,5.25315006 C2.2869683,5.25315006 2,4.97384122 2,4.6292963 C2,4.28475138 2.2869683,4.00544253 2.64096164,4.00544253 L4.16541095,4.00544253 C4.67225441,3.96904377 5.17504922,4.11615643 5.5772589,4.4185349 Z" id="形状结合" fill="url(#linearGradient-1)"></path>
        <path d="M9.11347441,5 L20.7616831,5 C21.3139678,5 21.7616831,5.44771525 21.7616831,6 C21.7616831,6.07078096 21.7541682,6.1413619 21.7392648,6.21055608 L20.0161879,14.2105561 C19.9169857,14.6711378 19.50975,15 19.0386061,15 L9.97501287,15 C9.46417265,15 9.03545903,14.6149767 8.98076173,14.1070732 L8.11922327,6.1070732 C8.06008837,5.55796346 8.45729147,5.06488376 9.00640121,5.00574886 C9.04196378,5.00191904 9.07770621,5 9.11347441,5 Z" id="矩形" fill="url(#linearGradient-2)"></path>
        <rect id="矩形" fill="#FFFFFF" x="12" y="7" width="5" height="1.2" rx="0.6"></rect>
        <rect id="矩形备份" fill="#FFFFFF" x="12" y="11" width="5" height="1.2" rx="0.6"></rect>
    </g>
</svg>