<?xml version="1.0" encoding="UTF-8"?>
<svg width="22px" height="22px" viewBox="0 0 22 22" version="1.1" xmlns="http://www.w3.org/2000/svg" xmlns:xlink="http://www.w3.org/1999/xlink">
    <!-- Generator: Sketch 60 (88103) - https://sketch.com -->
    <title>h5 svg/icon/mall/address</title>
    <desc>Created with Sketch.</desc>
    <defs>
        <linearGradient x1="31.8063017%" y1="7.32762251%" x2="71.5382414%" y2="91.3064382%" id="linearGradient-1">
            <stop stop-color="#CEE3FD" offset="0%"></stop>
            <stop stop-color="#84CAFE" offset="100%"></stop>
        </linearGradient>
        <path d="M7.78515625,17.7159671 C7.974625,17.8972993 8.23046875,18 8.5,18 C8.76953125,18 9.025375,17.8972993 9.21484375,17.7159671 L14.2148438,12.8829079 C15.6875,11.4590724 16.5,9.57546711 16.5,7.57894737 C16.5,3.39998684 12.912125,0 8.5,0 C4.087875,0 0.5,3.39998684 0.5,7.57894737 C0.5,9.57360197 1.3105625,11.4563191 2.7831875,12.8819901 L7.78515625,17.7159671 Z" id="path-2"></path>
        <filter x="-40.6%" y="-30.6%" width="181.2%" height="172.2%" filterUnits="objectBoundingBox" id="filter-3">
            <feOffset dx="0" dy="1" in="SourceAlpha" result="shadowOffsetOuter1"></feOffset>
            <feGaussianBlur stdDeviation="2" in="shadowOffsetOuter1" result="shadowBlurOuter1"></feGaussianBlur>
            <feColorMatrix values="0 0 0 0 0.524904726   0 0 0 0 0.891063436   0 0 0 0 1  0 0 0 0.5 0" type="matrix" in="shadowBlurOuter1"></feColorMatrix>
        </filter>
        <linearGradient x1="28.0544576%" y1="3.68873311%" x2="80.402013%" y2="96.3112669%" id="linearGradient-4">
            <stop stop-color="#FFFFFF" stop-opacity="0.335828234" offset="0%"></stop>
            <stop stop-color="#FFFFFF" stop-opacity="0.41868868" offset="0%"></stop>
            <stop stop-color="#FFFFFF" offset="100%"></stop>
        </linearGradient>
    </defs>
    <g id="h5-svg/icon/mall//address" stroke="none" stroke-width="1" fill="none" fill-rule="evenodd">
        <g id="icon_my_shanglv_address" transform="translate(2.500000, 2.000000)">
            <g id="合并形状">
                <use fill="black" fill-opacity="1" filter="url(#filter-3)" xlink:href="#path-2"></use>
                <use fill="url(#linearGradient-1)" fill-rule="evenodd" xlink:href="#path-2"></use>
            </g>
            <path d="M8.27514368,10.3290986 C9.89736822,10.3290986 11.216954,9.05912129 11.216954,7.49788264 C11.216954,5.93664398 9.89736822,4.66666667 8.27514368,4.66666667 C6.65291914,4.66666667 5.33333333,5.93664398 5.33333333,7.49788264 C5.33333333,9.05912129 6.65291914,10.3290986 8.27514368,10.3290986 Z" id="路径" fill="url(#linearGradient-4)"></path>
        </g>
    </g>
</svg>