<?xml version="1.0" encoding="UTF-8"?>
<svg width="22px" height="22px" viewBox="0 0 22 22" version="1.1" xmlns="http://www.w3.org/2000/svg" xmlns:xlink="http://www.w3.org/1999/xlink">
    <!-- Generator: Sketch 60 (88103) - https://sketch.com -->
    <title>icon/mall/fapiaozhushou</title>
    <desc>Created with Sketch.</desc>
    <defs>
        <linearGradient x1="28.6325005%" y1="16.3952031%" x2="82.9578987%" y2="100%" id="linearGradient-1">
            <stop stop-color="#FF7A77" offset="0%"></stop>
            <stop stop-color="#E82B29" offset="100%"></stop>
        </linearGradient>
        <path d="M12.1333333,0 C13.3566554,0 14,0.686786843 14,2 L14,14 C14,14.8498006 13.453479,15.1767201 13.0666667,15 L11.2,14 L9.33333333,15 C9.20673334,15.01522 9.00127913,15.0261681 8.4,15 L7.46666667,14 L5.6,15 C5.04732098,15.0119172 4.84094634,15.0278524 4.66666667,15 L2.8,14 L0.933333333,15 C0.564410326,15.1575025 0.063061844,14.8823642 0,14 L0,2 C0,0.686786843 0.643344573,0 1.86666667,0 L12.1333333,0 Z" id="path-2"></path>
        <filter x="-46.4%" y="-36.6%" width="192.9%" height="186.4%" filterUnits="objectBoundingBox" id="filter-3">
            <feOffset dx="0" dy="1" in="SourceAlpha" result="shadowOffsetOuter1"></feOffset>
            <feGaussianBlur stdDeviation="2" in="shadowOffsetOuter1" result="shadowBlurOuter1"></feGaussianBlur>
            <feColorMatrix values="0 0 0 0 1   0 0 0 0 0.667397104   0 0 0 0 0.667397104  0 0 0 0.5 0" type="matrix" in="shadowBlurOuter1"></feColorMatrix>
        </filter>
    </defs>
    <g id="icon/mall/fapiaozhushou" stroke="none" stroke-width="1" fill="none" fill-rule="evenodd">
        <g transform="translate(4.000000, 3.000000)" id="icon_my_shanglv_invoice@2x">
            <g>
                <g id="形状结合">
                    <use fill="black" fill-opacity="1" filter="url(#filter-3)" xlink:href="#path-2"></use>
                    <use fill="url(#linearGradient-1)" fill-rule="evenodd" xlink:href="#path-2"></use>
                </g>
                <path d="M8.5,7.85 C8.85898509,7.85 9.15,8.14101491 9.15,8.5 C9.15,8.82635008 8.90949181,9.09652646 8.59605224,9.14295233 L8.5,9.15 L3,9.15 C2.64101491,9.15 2.35,8.85898509 2.35,8.5 C2.35,8.17364992 2.59050819,7.90347354 2.90394776,7.85704767 L3,7.85 L8.5,7.85 Z M11,3.85 C11.3589851,3.85 11.65,4.14101491 11.65,4.5 C11.65,4.82635008 11.4094918,5.09652646 11.0960522,5.14295233 L11,5.15 L3,5.15 C2.64101491,5.15 2.35,4.85898509 2.35,4.5 C2.35,4.17364992 2.59050819,3.90347354 2.90394776,3.85704767 L3,3.85 L11,3.85 Z" id="形状结合" fill="#FFFFFF" fill-rule="nonzero"></path>
            </g>
        </g>
    </g>
</svg>