<?xml version="1.0" encoding="UTF-8"?>
<svg width="22px" height="22px" viewBox="0 0 22 22" version="1.1" xmlns="http://www.w3.org/2000/svg" xmlns:xlink="http://www.w3.org/1999/xlink">
    <!-- Generator: Sketch 60 (88103) - https://sketch.com -->
    <title>h5 svg/icon/mall/yiwancheng</title>
    <desc>Created with Sketch.</desc>
    <g id="h5-svg/icon/mall/yiwancheng" stroke="none" stroke-width="1" fill="none" fill-rule="evenodd">
        <g id="已完成" transform="translate(0.275000, 1.512500)" fill="#C2C2C2">
            <path d="M21.2191136,6.41597962 L17.972369,1.232749 C17.688897,0.780768485 17.0964467,0.647043862 16.6487561,0.931501225 L0.44516206,11.3102627 C-0.00134595987,11.597387 -0.133312154,12.197134 0.147122727,12.6479716 L3.39386737,17.8319369 C3.67744686,18.2827473 4.26978962,18.4163631 4.71632452,18.1317969 L20.9205368,7.75377011 C21.3682005,7.46653702 21.5028006,6.86755194 21.2191136,6.41597962 Z M20.5725062,7.19674746 L4.36826704,17.5761621 C4.22495875,17.6675977 4.03735711,17.6247645 3.9470503,17.4802907 L0.700413168,12.2963253 C0.609998855,12.1512257 0.65233017,11.9619049 0.795638468,11.8692175 L17.0004689,1.49042879 C17.1438847,1.39964626 17.3320239,1.4424795 17.4210675,1.58706211 L20.6690753,6.77091862 C20.7562375,6.9129432 20.7133955,7.10343412 20.5725062,7.19674746 Z M6.60400551,3.90759523 L6.87309828,4.5610335 L7.22174706,3.94778882 L7.91823829,3.89091367 L7.44904606,3.36524038 L7.60885685,2.67781309 L6.97219388,2.96757699 L6.37418007,2.60115411 L6.44989265,3.30518132 L5.91936704,3.76303984 L6.60400551,3.90759523 Z M10.7298439,1.962302 L10.3951443,1.34021309 L10.1115648,1.98790942 L9.42324419,2.12089929 L9.94293835,2.59288136 L9.85327659,3.2942417 L10.4594879,2.93941155 L11.091743,3.24310849 L10.9459083,2.5500209 L11.4251794,2.03596756 L10.7298439,1.962302 Z M17.020116,12.3832708 L16.4661805,11.9522171 L16.4636809,12.6588023 L15.8851799,13.0560575 L16.5514344,13.2785509 L16.7478786,13.9569435 L17.1608979,13.3859062 L17.860023,13.4056628 L17.4495033,12.8315504 L17.6863706,12.1684515 L17.020116,12.3832708 Z M14.7591938,15.2005771 L14.495127,14.5452339 L14.1408072,15.1559206 L13.4448266,15.2070538 L13.9097185,15.7352579 L13.7442635,16.4219504 L14.3845818,16.1386632 L14.9801767,16.513386 L14.9100545,15.8087057 L15.4404457,15.3515003 L14.7591938,15.2005771 Z M10.6173904,17.1164258 L10.9490529,17.7410456 L11.2383035,17.0952814 L11.9267047,16.9706731 L11.4100476,16.4934933 L11.5048698,15.7927589 L10.8960245,16.1413301 L10.2669409,15.8330613 L10.4071046,16.5248699 L9.92089919,17.0371272 L10.6173904,17.1164258 Z M4.41320543,6.64622871 L4.96396943,7.08430339 L4.97205941,6.37706504 L5.55316758,5.98185082 L4.89059515,5.75478565 L4.69920385,5.07318194 L4.28123924,5.64040946 L3.58211406,5.61480204 L3.98696269,6.19158132 L3.74558012,6.85658511 L4.41320543,6.64622871 Z M1.95333945,9.69949875 C1.8800458,6.70563466 3.31818167,3.74570517 5.99717603,2.03011676 C8.67668106,0.314528361 11.9342571,0.265844325 14.5803809,1.61000266 L15.2194628,1.20074653 C14.4364544,0.757691871 13.5939135,0.433476332 12.706676,0.232045794 C11.5212379,-0.0378526209 10.3137607,-0.071651152 9.12004447,0.127221364 C7.88413134,0.334312203 6.71581393,0.785748461 5.64850038,1.47064494 C4.58183189,2.15543257 3.67744686,3.03019407 2.96375434,4.07247873 C2.27279977,5.07764487 1.78723944,6.19743211 1.52005493,7.39564719 C1.32108431,8.29272334 1.25042461,9.20201812 1.31226865,10.1082378 L1.95333945,9.69949875 Z M19.3542244,9.24166744 C19.4306358,12.2355043 17.9926074,15.195461 15.3136399,16.9105052 C12.6346455,18.6280257 9.37653192,18.6753219 6.7309457,17.3311363 L6.09060057,17.7410456 C6.87371646,18.1829301 7.71676811,18.5079076 8.60413997,18.7092293 C9.78944366,18.9791277 10.9969209,19.0142052 12.1906371,18.8140537 C13.4265771,18.606854 14.5948676,18.1560436 15.661563,17.471256 C16.7282315,16.7863595 17.632724,15.911598 18.3469541,14.8699665 C19.0352478,13.8635213 19.5209426,12.744496 19.7875089,11.5469069 C19.9869902,10.649096 20.0565748,9.73914807 19.9945426,8.83303721 L19.3542244,9.24166744 Z M7.92958039,5.11740304 C8.67993318,4.63777413 9.50524599,4.38191761 10.3339184,4.33078441 L11.3229123,3.69775588 C10.0161245,3.54171661 8.70764339,3.83978047 7.57851269,4.5616594 C6.45239221,5.28291244 5.62697189,6.35401564 5.20828159,7.61495666 L6.19665731,6.98192813 C6.59833446,6.24271452 7.18008767,5.59820211 7.92958039,5.11740304 Z M13.380483,13.8232189 C12.6301302,14.3041268 11.8054356,14.5599017 10.9767631,14.6110077 L9.98841428,15.2441451 C11.2944764,15.4001843 12.60242,15.1014946 13.7321957,14.3795068 C14.8582893,13.6589885 15.6837097,12.5872594 16.1017818,11.3263184 L15.1139436,11.9606259 C14.712374,12.6965468 14.1300832,13.3436988 13.380483,13.8232189 Z" id="Fill-1"></path>
            <path d="M7.64889386,11.527227 C7.82929386,11.518427 7.97009386,11.465627 8.07569386,11.368827 C8.16809386,11.267627 8.24289386,10.937627 8.29569386,10.383227 L7.88649386,10.251227 C7.86009386,10.713227 7.81609386,10.977227 7.74569386,11.043227 C7.68409386,11.096027 7.60929386,11.122427 7.53009386,11.122427 L5.33449386,11.122427 C5.16729386,11.122427 5.08369386,11.038827 5.08369386,10.871627 L5.08369386,9.66162699 L7.81169386,9.66162699 L7.81169386,7.81362699 L4.48089386,7.81362699 L4.48089386,8.21402699 L7.38489386,8.21402699 L7.38489386,9.26122699 L5.08369386,9.26122699 L5.08369386,8.65842699 L4.66129386,8.65842699 L4.66129386,10.946427 C4.66129386,11.333627 4.84609386,11.527227 5.22009386,11.527227 L7.64889386,11.527227 Z M9.22409386,9.08082699 L9.22409386,8.44722699 L12.1632939,8.44722699 L12.1632939,9.08082699 L12.5900939,9.08082699 L12.5900939,8.04242699 L10.9136939,8.04242699 C10.8652939,7.87962699 10.8168939,7.73442699 10.7640939,7.60682699 L10.2932939,7.68602699 C10.3460939,7.79162699 10.3988939,7.91042699 10.4428939,8.04242699 L8.79729386,8.04242699 L8.79729386,9.08082699 L9.22409386,9.08082699 Z M11.9344939,9.27002699 L11.9344939,8.86962699 L9.44409386,8.86962699 L9.44409386,9.27002699 L11.9344939,9.27002699 Z M8.93369386,11.698827 C9.42209386,11.566827 9.77409386,11.377627 9.98969386,11.140027 C10.2096939,10.880427 10.3328939,10.532827 10.3504939,10.101627 L10.3504939,10.088427 L11.0104939,10.088427 L11.0104939,11.096027 C11.0104939,11.434827 11.1600939,11.606427 11.4636939,11.606427 L12.2248939,11.606427 C12.3744939,11.606427 12.4844939,11.562427 12.5548939,11.483227 C12.6296939,11.399627 12.6824939,11.135627 12.7176939,10.691227 L12.3216939,10.568027 C12.3084939,10.876027 12.2908939,11.060827 12.2644939,11.122427 C12.2380939,11.179627 12.2028939,11.210427 12.1500939,11.210427 L11.5956939,11.210427 C11.4812939,11.210427 11.4284939,11.140027 11.4284939,11.008027 L11.4284939,10.088427 L12.6296939,10.088427 L12.6296939,9.68802699 L8.77089386,9.68802699 L8.77089386,10.088427 L9.93689386,10.088427 L9.93689386,10.101627 C9.91929386,10.414027 9.82689386,10.669227 9.66409386,10.867227 C9.48809386,11.052027 9.16689386,11.206027 8.69609386,11.324827 L8.93369386,11.698827 Z M14.8428939,11.672427 C15.2300939,11.500827 15.5732939,11.250027 15.8680939,10.920027 C15.9252939,11.025627 15.9868939,11.122427 16.0572939,11.210427 C16.2684939,11.470027 16.4708939,11.602027 16.6644939,11.602027 C16.8756939,11.602027 17.0384939,11.294027 17.1484939,10.686827 L16.7700939,10.484427 C16.7128939,10.915627 16.6556939,11.131227 16.5984939,11.131227 C16.5280939,11.131227 16.4224939,11.030027 16.2904939,10.836427 C16.2420939,10.761627 16.1936939,10.673627 16.1452939,10.568027 C16.4180939,10.172027 16.6380939,9.68802699 16.8140939,9.12482699 L16.4312939,8.96202699 C16.3080939,9.38002699 16.1540939,9.74962699 15.9692939,10.075227 C15.9472939,10.004827 15.9252939,9.93002699 15.9076939,9.85522699 C15.8328939,9.56922699 15.7800939,9.16442699 15.7492939,8.64522699 L17.0604939,8.64522699 L17.0604939,8.24482699 L16.5324939,8.24482699 L16.7348939,8.04242699 C16.5940939,7.88402699 16.4224939,7.73002699 16.2200939,7.57602699 L15.9560939,7.83122699 C16.1408939,7.97202699 16.2904939,8.11282699 16.4092939,8.24482699 L15.7316939,8.24482699 C15.7228939,8.04242699 15.7140939,7.82682699 15.7140939,7.59802699 L15.2916939,7.59802699 C15.2916939,7.82242699 15.2916939,8.03802699 15.3004939,8.24482699 L13.4876939,8.24482699 L13.4876939,9.71002699 C13.4744939,10.427227 13.3292939,10.986027 13.0564939,11.386427 L13.3732939,11.668027 C13.7076939,11.175227 13.8880939,10.524027 13.9056939,9.71002699 L13.9056939,9.68362699 L14.5700939,9.68362699 C14.5612939,10.141227 14.5480939,10.431627 14.5216939,10.546027 C14.4952939,10.642827 14.4468939,10.691227 14.3676939,10.695627 C14.2444939,10.695627 14.0992939,10.686827 13.9232939,10.678027 L14.0508939,11.056427 C14.1872939,11.069627 14.3104939,11.078427 14.4160939,11.078427 C14.6448939,11.074027 14.7944939,10.981627 14.8648939,10.796827 C14.9352939,10.585627 14.9748939,10.084027 14.9836939,9.28762699 L13.9056939,9.28762699 L13.9056939,8.64522699 L15.3224939,8.64522699 C15.3532939,9.18202699 15.4148939,9.62642699 15.5116939,9.98282699 C15.5600939,10.167627 15.6128939,10.339227 15.6744939,10.497627 C15.3840939,10.858427 15.0276939,11.131227 14.6052939,11.320427 L14.8428939,11.672427 Z" transform="translate(10.814694, 9.637427) rotate(-32.000000) translate(-10.814694, -9.637427) "></path>
        </g>
    </g>
</svg>