<?xml version="1.0" encoding="UTF-8"?>
<svg width="22px" height="22px" viewBox="0 0 22 22" version="1.1" xmlns="http://www.w3.org/2000/svg" xmlns:xlink="http://www.w3.org/1999/xlink">
    <!-- Generator: Sketch 60 (88103) - https://sketch.com -->
    <title>h5 svg/icon/mall/collect2</title>
    <desc>Created with Sketch.</desc>
    <g id="h5-svg/icon/mall/collect2" stroke="none" stroke-width="1" fill="none" fill-rule="evenodd">
        <path d="M8.92853966,2.70593312 L7.55924173,5.48043377 C7.41503634,5.77262581 7.13628641,5.97514949 6.81383335,6.02200466 L3.75199009,6.46691653 C3.24924855,6.53996915 2.78460958,6.77671453 2.43000471,7.14050173 C1.53949691,8.05406879 1.55819013,9.51656043 2.4717572,10.4070682 L4.68732779,12.5667158 C4.92065702,12.7941556 5.02713002,13.1218458 4.97204846,13.4429959 L4.44902319,16.4924672 C4.36314468,16.9931773 4.44472158,17.5082336 4.68112483,17.9578993 C5.2747967,19.0871303 6.67148543,19.5212868 7.80071642,18.9276149 L10.5393123,17.4878498 C10.8277231,17.3362233 11.1722769,17.3362233 11.4606877,17.4878498 L14.1992836,18.9276149 C14.6489493,19.1640181 15.1640055,19.245595 15.6647157,19.1597165 C16.9221329,18.9440526 17.7666407,17.7498844 17.5509768,16.4924672 L17.0279515,13.4429959 C16.97287,13.1218458 17.079343,12.7941556 17.3126722,12.5667158 L19.5282428,10.4070682 C19.89203,10.0524634 20.1287754,9.58782439 20.201828,9.08508285 C20.3852827,7.82256421 19.5105285,6.65037123 18.2480099,6.46691653 L15.1861667,6.02200466 C14.8637136,5.97514949 14.5849637,5.77262581 14.4407583,5.48043377 L13.0714603,2.70593312 C12.8466275,2.250372 12.4778879,1.88163243 12.0223268,1.65679958 C10.8782908,1.09218408 9.49315516,1.56189716 8.92853966,2.70593312 Z M11.4381401,2.8404912 C11.6333805,2.93684813 11.7914118,3.09487938 11.8877687,3.29011986 L13.2570666,6.06462051 C13.5935459,6.74640193 14.2439624,7.21895719 14.9963529,7.32828592 L18.0581961,7.77319779 C18.5992755,7.85182123 18.9741702,8.35418965 18.8955467,8.89526907 C18.8642385,9.11072973 18.7627762,9.30986072 18.6068674,9.46183423 L16.3912968,11.6214818 C15.8468619,12.1521746 15.5984249,12.9167851 15.7269486,13.6661354 L16.2499738,16.7156067 C16.3424012,17.2544998 15.9804693,17.7662862 15.4415762,17.8587136 C15.2269861,17.8955186 15.0062477,17.8605571 14.8135339,17.7592414 L12.074938,16.3194764 C11.4019795,15.9656812 10.5980205,15.9656812 9.925062,16.3194764 L7.18646613,17.7592414 C6.70250999,18.0136722 6.10392911,17.8276052 5.84949831,17.343649 C5.74818263,17.1509352 5.7132211,16.9301968 5.75002618,16.7156067 L6.27305145,13.6661354 C6.40157508,12.9167851 6.15313808,12.1521746 5.60870322,11.6214818 L3.39313263,9.46183423 C3.00160389,9.08018803 2.99359251,8.4534059 3.37523871,8.06187716 C3.52721222,7.90596836 3.72634321,7.80450606 3.94180387,7.77319779 L7.00364713,7.32828592 C7.7560376,7.21895719 8.40645411,6.74640193 8.74293335,6.06462051 L10.1122313,3.29011986 C10.3355957,2.83753421 10.8585921,2.63119325 11.3233665,2.79244882 L11.4381401,2.8404912 Z" id="星形备份" fill="#666666"></path>
    </g>
</svg>