<?xml version="1.0" encoding="UTF-8"?>
<svg width="22px" height="22px" viewBox="0 0 22 22" version="1.1" xmlns="http://www.w3.org/2000/svg" xmlns:xlink="http://www.w3.org/1999/xlink">
    <!-- Generator: Sketch 60 (88103) - https://sketch.com -->
    <title>h5 svg/icon/mall/add</title>
    <desc>Created with Sketch.</desc>
    <g id="h5-svg/icon/mall/add" stroke="none" stroke-width="1" fill="none" fill-rule="evenodd">
        <g id="h5-svg/icon/common/add" transform="translate(1.000000, 1.000000)" fill="#999999">
            <g id="编组">
                <path d="M10.1,4.5 C10.3982338,4.5 10.6456468,4.71758961 10.692147,5.00267688 L10.7,5.1 L10.699,9.499 L15.1,9.49999964 C15.4313708,9.49999964 15.7,9.76862879 15.7,10.0999996 C15.7,10.3982334 15.4824104,10.6456464 15.1973231,10.6921467 L15.1,10.6999996 L10.699,10.699 L10.7,15.1040814 C10.7,15.4354523 10.4313708,15.7040814 10.1,15.7040814 C9.80176624,15.7040814 9.55435325,15.4864918 9.50785299,15.2014046 L9.5,15.1040814 L9.5,10.699 L5.1,10.6999996 C4.76862915,10.6999996 4.5,10.4313705 4.5,10.0999996 C4.5,9.80176588 4.71758961,9.55435289 5.00267688,9.50785263 L5.1,9.49999964 L9.5,9.499 L9.5,5.1 C9.5,4.76862915 9.76862915,4.5 10.1,4.5 Z" id="形状结合"></path>
            </g>
        </g>
    </g>
</svg>