<?xml version="1.0" encoding="UTF-8"?>
<svg width="22px" height="22px" viewBox="0 0 22 22" version="1.1" xmlns="http://www.w3.org/2000/svg" xmlns:xlink="http://www.w3.org/1999/xlink">
    <!-- Generator: Sketch 60 (88103) - https://sketch.com -->
    <title>h5 svg/icon/mall/share</title>
    <desc>Created with Sketch.</desc>
    <g id="h5-svg/icon/mall/share" stroke="none" stroke-width="1" fill="none" fill-rule="evenodd">
        <path d="M15.2777778,0.488888889 C17.032816,0.488888889 18.4555556,1.91162846 18.4555556,3.66666667 C18.4555556,5.42170487 17.032816,6.84444444 15.2777778,6.84444444 C14.3167431,6.84444444 13.4553483,6.41783505 12.8726375,5.74366022 L8.26236944,8.81692586 C8.52673525,9.28048951 8.67777778,9.81705026 8.67777778,10.3888889 C8.67777778,10.9557872 8.52933379,11.4880146 8.26919585,11.948821 L14.0887054,15.6523702 C14.6714964,14.974068 15.5355762,14.5444444 16.5,14.5444444 C18.2550382,14.5444444 19.6777778,15.967184 19.6777778,17.7222222 C19.6777778,19.4772604 18.2550382,20.9 16.5,20.9 C14.7449618,20.9 13.3222222,19.4772604 13.3222222,17.7222222 C13.3222222,17.4599751 13.353989,17.2051476 13.4138846,16.9613777 L7.25246028,13.040184 C6.75009903,13.3729042 6.14767734,13.5666667 5.5,13.5666667 C3.7449618,13.5666667 2.32222222,12.1439271 2.32222222,10.3888889 C2.32222222,8.63385068 3.7449618,7.21111111 5.5,7.21111111 C6.14467287,7.21111111 6.74450899,7.40308009 7.24546272,7.73297241 L12.193149,4.43353625 C12.1322926,4.18794126 12.1,3.93107513 12.1,3.66666667 C12.1,1.91162846 13.5227396,0.488888889 15.2777778,0.488888889 Z M16.5,16.0111111 C15.5549794,16.0111111 14.7888889,16.7772017 14.7888889,17.7222222 C14.7888889,18.6672428 15.5549794,19.4333333 16.5,19.4333333 C17.4450206,19.4333333 18.2111111,18.6672428 18.2111111,17.7222222 C18.2111111,16.7772017 17.4450206,16.0111111 16.5,16.0111111 Z M5.5,8.67777778 C4.55497943,8.67777778 3.78888889,9.44386832 3.78888889,10.3888889 C3.78888889,11.3339095 4.55497943,12.1 5.5,12.1 C6.44502057,12.1 7.21111111,11.3339095 7.21111111,10.3888889 C7.21111111,9.44386832 6.44502057,8.67777778 5.5,8.67777778 Z M15.2777778,1.95555556 C14.3327572,1.95555556 13.5666667,2.72164609 13.5666667,3.66666667 C13.5666667,4.61168724 14.3327572,5.37777778 15.2777778,5.37777778 C16.2227983,5.37777778 16.9888889,4.61168724 16.9888889,3.66666667 C16.9888889,2.72164609 16.2227983,1.95555556 15.2777778,1.95555556 Z" id="形状结合" fill="#999999"></path>
    </g>
</svg>