<?xml version="1.0" encoding="UTF-8"?>
<svg width="44px" height="44px" viewBox="0 0 44 44" version="1.1" xmlns="http://www.w3.org/2000/svg" xmlns:xlink="http://www.w3.org/1999/xlink">
    <!-- Generator: Sketch 58 (84663) - https://sketch.com -->
    <title>icon_filter_screen</title>
    <desc>Created with Sketch.</desc>
    <g id="icon_filter_screen" stroke="none" stroke-width="1" fill="none" fill-rule="evenodd" opacity="0.699999988">
        <g id="筛选" transform="translate(1.000000, 2.000000)" fill="#081228" fill-rule="nonzero">
            <path d="M3.0867179,-2.13162821e-14 L38.788525,-2.13162821e-14 C41.96637,-2.13162821e-14 42.9310882,1.81892849 41.025991,4.02174181 L27.9864088,18.4946094 L27.9864088,38.3904004 C27.9864088,39.4573813 27.2540612,39.9908718 26.155561,39.4573813 L16.4519873,35.0115728 C15.5365422,34.4780823 14.6210972,33.2332576 14.6210972,32.1662356 L14.6210972,18.3168066 L1.25582785,4.26800571 C-0.941172651,1.95615903 -0.208825075,-2.13162821e-14 3.0867179,-2.13162821e-14 Z M4.81198907,3.26666712 L17.8877643,17.0111685 L17.8877643,32.0761945 L17.8993265,32.0814929 L17.9300585,32.0553144 C17.9678236,32.0533881 18.0229463,32.114895 18.0613458,32.1557391 L24.7197417,35.2069818 L24.7197417,17.2401901 L37.3092404,3.26666712 L4.81198907,3.26666712 Z" id="路径"></path>
        </g>
    </g>
</svg>