<?xml version="1.0" encoding="UTF-8"?>
<svg width="22px" height="22px" viewBox="0 0 22 22" version="1.1" xmlns="http://www.w3.org/2000/svg" xmlns:xlink="http://www.w3.org/1999/xlink">
    <!-- Generator: Sketch 60 (88103) - https://sketch.com -->
    <title>h5 svg/icon/mall/fapiaobaozhang</title>
    <desc>Created with Sketch.</desc>
    <g id="h5-svg/icon/mall/fapiaobaozhang" stroke="none" stroke-width="1" fill="none" fill-rule="evenodd">
        <path d="M11,0.5 C16.7989899,0.5 21.5,5.20101013 21.5,11 C21.5,16.7989899 16.7989899,21.5 11,21.5 C5.20101013,21.5 0.5,16.7989899 0.5,11 C0.5,5.20101013 5.20101013,0.5 11,0.5 Z M11,1.66666667 C5.84534234,1.66666667 1.66666667,5.84534234 1.66666667,11 C1.66666667,16.1546577 5.84534234,20.3333333 11,20.3333333 C16.1546577,20.3333333 20.3333333,16.1546577 20.3333333,11 C20.3333333,5.84534234 16.1546577,1.66666667 11,1.66666667 Z" id="形状结合" fill="#23CDA7"></path>
        <path d="M16.4166667,7.5 C16.7388328,7.5 17,7.76116723 17,8.08333333 L17,9.83333333 C16.3372583,9.83333333 15.8,10.3556678 15.8,11 C15.8,11.6443322 16.3372583,12.1666667 17,12.1666667 L17,13.9166667 C17,14.2388328 16.7388328,14.5 16.4166667,14.5 L5.58333333,14.5 C5.26116723,14.5 5,14.2388328 5,13.9166667 L5,12.1666667 C5.6627417,12.1666667 6.2,11.6443322 6.2,11 C6.2,10.3556678 5.6627417,9.83333333 5,9.83333333 L5,8.08333333 C5,7.76116723 5.26116723,7.5 5.58333333,7.5 L16.4166667,7.5 Z M15.833,8.666 L6.166,8.666 L6.166,8.97 L6.19128393,8.98357511 C6.84869134,9.3616953 7.30651109,10.0436349 7.36117056,10.8393881 L7.36666667,11 C7.36666667,11.8640895 6.8925185,12.6130967 6.19128393,13.0164249 L6.166,13.029 L6.166,13.333 L15.833,13.333 L15.833,13.029 L15.8087161,13.0164249 C15.1513087,12.6383047 14.6934889,11.9563651 14.6388294,11.1606119 L14.6333333,11 C14.6333333,10.1359105 15.1074815,9.38690331 15.8087161,8.98357511 L15.833,8.97 L15.833,8.666 Z" id="形状结合" fill="#23CDA7"></path>
    </g>
</svg>