<?xml version="1.0" encoding="UTF-8"?>
<svg width="22px" height="22px" viewBox="0 0 22 22" version="1.1" xmlns="http://www.w3.org/2000/svg" xmlns:xlink="http://www.w3.org/1999/xlink">
    <!-- Generator: Sketch 60 (88103) - https://sketch.com -->
    <title>h5 svg/icon/mall/delete2</title>
    <desc>Created with Sketch.</desc>
    <g id="h5-svg/icon/mall/delete2" stroke="none" stroke-width="1" fill="none" fill-rule="evenodd">
        <g id="h5-svg/icon/common/delete2" transform="translate(1.100000, 1.650000)" fill="#FFFFFF">
            <g id="分组" transform="translate(0.320330, 0.353571)">
                <path d="M10.8596926,0.500171596 C11.6180125,0.500171596 12.2403091,1.08255658 12.3037134,1.8244576 L12.3090333,1.94951226 L12.308351,2.8111716 L17.8730729,2.81174134 C18.1815027,2.81174134 18.4315344,3.06177308 18.4315344,3.37020287 C18.4315344,3.65059359 18.2248966,3.88272147 17.9555983,3.92260926 L17.8730729,3.92866441 L16.313351,3.9281716 L16.1796703,15.5964286 C16.1796703,16.3547484 15.5972853,16.977045 14.8553843,17.0404493 L14.7303297,17.0457692 L4.15840649,17.0457692 C3.40008663,17.0457692 2.77779007,16.4633842 2.71438578,15.7214832 L2.70906583,15.5964286 L2.84335099,3.9281716 L1.29081253,3.92866441 C0.982382741,3.92866441 0.732350994,3.67863267 0.732350994,3.37020287 C0.732350994,3.08981215 0.938988802,2.85768428 1.20828718,2.81779649 L1.29081253,2.81174134 L6.85435099,2.8111716 L6.85485214,1.94951226 C6.85485214,1.19119239 7.43723712,0.568895833 8.17913813,0.505491541 L8.30419279,0.500171596 L10.8596926,0.500171596 Z M15.276351,3.9281716 L3.88035099,3.9281716 L3.74620869,15.5964286 C3.74620869,15.7987846 3.8920238,15.9670837 4.08431342,16.0019853 L4.15840649,16.0086264 L14.7303297,16.0086264 C14.9326857,16.0086264 15.1009848,15.8628113 15.1358864,15.6705216 L15.1425275,15.5964286 L15.276351,3.9281716 Z M10.8596926,1.53731445 L8.30419279,1.53731445 C8.10183674,1.53731445 7.93353763,1.68312956 7.89863605,1.87541918 L7.89199499,1.94951226 L7.89135099,2.8111716 L11.271351,2.8111716 L11.2718904,1.94951226 C11.2718904,1.7471562 11.1260753,1.57885709 10.9337857,1.54395551 L10.8596926,1.53731445 Z" id="形状结合"></path>
                <path d="M11.7796703,7.34642857 C12.0530513,7.34642857 12.2798465,7.56947461 12.3224718,7.86171093 L12.3296703,7.96147458 L12.3296703,12.2313826 C12.3296703,12.5710631 12.0834269,12.8464286 11.7796703,12.8464286 C11.5062894,12.8464286 11.2794941,12.6233825 11.2368689,12.3311462 L11.2296703,12.2313826 L11.2296703,7.96147458 C11.2296703,7.62179405 11.4759137,7.34642857 11.7796703,7.34642857 Z" id="路径-40-copy"></path>
                <path d="M7.37967033,7.34642857 C7.65305128,7.34642857 7.87984652,7.56947461 7.92247176,7.86171093 L7.92967033,7.96147458 L7.92967033,12.2313826 C7.92967033,12.5710631 7.68342694,12.8464286 7.37967033,12.8464286 C7.10628938,12.8464286 6.87949414,12.6233825 6.8368689,12.3311462 L6.82967033,12.2313826 L6.82967033,7.96147458 C6.82967033,7.62179405 7.07591372,7.34642857 7.37967033,7.34642857 Z" id="路径-40"></path>
            </g>
        </g>
    </g>
</svg>