<?xml version="1.0" encoding="UTF-8"?>
<svg width="12px" height="16px" viewBox="0 0 12 16" version="1.1" xmlns="http://www.w3.org/2000/svg" xmlns:xlink="http://www.w3.org/1999/xlink">
    <!-- Generator: Sketch 60 (88103) - https://sketch.com -->
    <title>h5 svg/icon/common/locatoion</title>
    <desc>Created with Sketch.</desc>
    <g id="06我" stroke="none" stroke-width="1" fill="none" fill-rule="evenodd">
        <g id="12.2订单详情待付款" transform="translate(-12.000000, -286.000000)" fill="#666666">
            <g id="编组" transform="translate(-5.000000, 265.000000)">
                <g id="地址">
                    <g id="编组-6" transform="translate(15.000000, 18.000000)">
                        <g id="h5-svg/icon/common/locatoion" transform="translate(0.000000, 3.000000)">
                            <g id="icon/clockin/blocatoion" transform="translate(1.454545, 0.727273)">
                                <g id="location" transform="translate(0.373737, 0.000000)">
                                    <path d="M6.30341368,3.38118387 C7.44971794,3.44060875 8.41870611,4.27123379 8.64445972,5.40781069 C8.87848901,6.58640363 8.24821274,7.76640493 7.13845317,8.2272371 C6.02870692,8.68808466 4.74790396,8.30160951 4.07830757,7.30383135 C3.40867108,6.30612003 3.53624992,4.9744168 4.38320415,4.12189495 C4.82353063,3.67880736 5.41136211,3.4161205 6.03167278,3.38165816 L6.17534559,3.3777784 L6.30341368,3.38118387 Z M6.17366561,4.54141355 L6.05354689,4.54655249 C5.73536565,4.57432588 5.43558694,4.71371102 5.20864874,4.94207224 C4.75263708,5.4010816 4.68394125,6.11814764 5.04451655,6.6553795 C5.40505183,7.19261989 6.09467066,7.40070853 6.69218592,7.15257663 C7.28974475,6.90443789 7.62912024,6.26906016 7.50311333,5.63447785 C7.37705531,4.99982736 6.82059873,4.54233519 6.17366561,4.54141355 Z" id="路径"></path>
                                    <path d="M6.17175878,0.145454545 C4.63319069,0.145454545 3.1610189,0.777072653 2.09271092,1.89487936 C-0.140008303,4.2305689 -0.140008303,7.93360619 2.09275218,10.2693389 L6.17176354,14.494227 L10.2486828,10.2714201 C12.4396171,7.97945274 12.4825832,4.37528336 10.3794652,2.03381033 L10.2507028,1.89485778 C9.18240096,0.777069197 7.71025685,0.145454545 6.17175878,0.145454545 Z M6.17175459,12.8189049 L2.93189573,9.46318796 C1.13112435,7.57935677 1.13112435,4.58481831 2.93389967,2.69890118 C3.78307351,1.81038191 4.95147965,1.30909091 6.17175878,1.30909091 C7.32775283,1.30909091 8.43723137,1.75900528 9.2728061,2.5618069 L9.40953467,2.69890118 C11.21231,4.58481831 11.21231,7.57935677 9.40953467,9.46527391 L6.17175459,12.8189049 Z" id="Fill-3"></path>
                                </g>
                            </g>
                        </g>
                    </g>
                </g>
            </g>
        </g>
    </g>
</svg>