<?xml version="1.0" encoding="UTF-8"?>
<svg width="22px" height="22px" viewBox="0 0 22 22" version="1.1" xmlns="http://www.w3.org/2000/svg" xmlns:xlink="http://www.w3.org/1999/xlink">
    <!-- Generator: Sketch 60 (88103) - https://sketch.com -->
    <title>h5 svg/icon/mall/tuihuaishouhou</title>
    <desc>Created with Sketch.</desc>
    <defs>
        <filter x="-36.4%" y="-52.9%" width="172.7%" height="200.0%" filterUnits="objectBoundingBox" id="filter-1">
            <feOffset dx="0" dy="1" in="SourceAlpha" result="shadowOffsetOuter1"></feOffset>
            <feGaussianBlur stdDeviation="1.5" in="shadowOffsetOuter1" result="shadowBlurOuter1"></feGaussianBlur>
            <feColorMatrix values="0 0 0 0 0.884907156   0 0 0 0 0.758082688   0 0 0 0 0.75674063  0 0 0 1 0" type="matrix" in="shadowBlurOuter1" result="shadowMatrixOuter1"></feColorMatrix>
            <feMerge>
                <feMergeNode in="shadowMatrixOuter1"></feMergeNode>
                <feMergeNode in="SourceGraphic"></feMergeNode>
            </feMerge>
        </filter>
        <linearGradient x1="19.9566078%" y1="12.3359406%" x2="79.3998236%" y2="93.3061866%" id="linearGradient-2">
            <stop stop-color="#FE8B88" offset="0%"></stop>
            <stop stop-color="#E82B29" offset="100%"></stop>
        </linearGradient>
    </defs>
    <g id="h5-svg/icon/mall/tuihuaishouhou" stroke="none" stroke-width="1" fill="none" fill-rule="evenodd">
        <g id="icon/" filter="url(#filter-1)" transform="translate(0.000000, 2.200000)">
            <circle id="椭圆形" fill="url(#linearGradient-2)" cx="13.9333333" cy="8.92526831" r="7.33333333"></circle>
            <path d="M8.2356901,0.366666667 C5.46799691,2.36438803 3.66666667,5.25113323 3.66666667,8.92526831" id="路径" stroke="#F96663" stroke-width="1.1" stroke-linecap="round"></path>
            <path d="M4.488,9.28704609 L5.73466667,10.9492683 C6.07487407,11.4028782 5.98294321,12.0463942 5.52933333,12.3866016 C5.35162126,12.5198857 5.13547342,12.591935 4.91333333,12.591935 L2.42,12.591935 C1.85298766,12.591935 1.39333333,12.1322807 1.39333333,11.5652683 C1.39333333,11.3431282 1.46538262,11.1269804 1.59866667,10.9492683 L2.84533333,9.28704609 C3.18554074,8.83343622 3.82905679,8.74150535 4.28266667,9.08171276 C4.36049382,9.14008312 4.42962964,9.20921894 4.488,9.28704609 Z" id="三角形" fill="#F96663" transform="translate(3.666667, 10.391935) scale(1, -1) translate(-3.666667, -10.391935) "></path>
            <path d="M12.70538,5.77714662 L13.7424699,6.81423656 C13.7939548,6.86572142 13.8361839,6.92295702 13.8691574,6.9838757 L13.925239,6.8964857 L13.925239,6.8964857 L13.9962434,6.81423656 L15.0333333,5.77714662 C15.3197178,5.49076214 15.7840388,5.49076214 16.0704233,5.77714662 C16.3568078,6.0635311 16.3568078,6.52785208 16.0704233,6.81423656 L16.0704233,6.81423656 L15.059,7.82435826 L16.1333333,7.82526831 C16.5383421,7.82526831 16.8666667,8.15359283 16.8666667,8.55860165 C16.8666667,8.96361046 16.5383421,9.29193498 16.1333333,9.29193498 L14.666,9.29135826 L14.666,9.75135826 L16.1333333,9.75208528 C16.5383421,9.75208528 16.8666667,10.0804098 16.8666667,10.4854186 C16.8666667,10.8904274 16.5383421,11.2187519 16.1333333,11.2187519 L14.666,11.2183583 L14.6666667,12.2252683 C14.6666667,12.6302771 14.3383421,12.9586016 13.9333333,12.9586016 C13.5283245,12.9586016 13.2,12.6302771 13.2,12.2252683 L13.199,11.2183583 L11.7333333,11.2187519 C11.3283245,11.2187519 11,10.8904274 11,10.4854186 C11,10.0804098 11.3283245,9.75208528 11.7333333,9.75208528 L13.199,9.75135826 L13.199,9.29135826 L11.7333333,9.29193498 C11.3283245,9.29193498 11,8.96361046 11,8.55860165 C11,8.15359283 11.3283245,7.82526831 11.7333333,7.82526831 L12.679,7.82435826 L11.66829,6.81423656 C11.3819056,6.52785208 11.3819056,6.0635311 11.66829,5.77714662 C11.9546745,5.49076214 12.4189955,5.49076214 12.70538,5.77714662 Z" id="形状结合" fill="#FCBEBE"></path>
        </g>
    </g>
</svg>