<?xml version="1.0" encoding="UTF-8"?>
<svg width="22px" height="22px" viewBox="0 0 22 22" version="1.1" xmlns="http://www.w3.org/2000/svg" xmlns:xlink="http://www.w3.org/1999/xlink">
    <!-- Generator: Sketch 60 (88103) - https://sketch.com -->
    <title>h5 svg/icon/mall/collect</title>
    <desc>Created with Sketch.</desc>
    <defs>
        <linearGradient x1="42.6582641%" y1="20.4150281%" x2="88.7463248%" y2="100%" id="linearGradient-1">
            <stop stop-color="#FAC96B" offset="0%"></stop>
            <stop stop-color="#F49939" offset="100%"></stop>
        </linearGradient>
    </defs>
    <g id="h5-svg/icon/mall/collect" stroke="none" stroke-width="1" fill="none" fill-rule="evenodd">
        <path d="M10.3019883,16.8669665 L7.22457045,18.4848608 C6.49130358,18.870362 5.58436284,18.5884422 5.19886163,17.8551753 C5.04535303,17.5631846 4.99238101,17.2287325 5.04814628,16.9035961 L5.63588079,13.4768409 C5.7193377,12.9902498 5.55801497,12.4937495 5.20448584,12.1491438 L2.7148025,9.72230231 C2.12157713,9.14405049 2.10943867,8.19438059 2.68769049,7.60115523 C2.9179534,7.36492978 3.21966701,7.21119901 3.54612256,7.16376224 L6.98678032,6.6638054 C7.47534556,6.59281272 7.89769394,6.28595866 8.11618696,5.84324345 L9.65489589,2.72547863 C10.0215293,1.98259814 10.9209681,1.67758964 11.6638486,2.04422308 C11.9596675,2.19021844 12.1991088,2.42965972 12.3451041,2.72547863 L13.883813,5.84324345 C14.1023061,6.28595866 14.5246544,6.59281272 15.0132197,6.6638054 L18.4538774,7.16376224 C19.2736947,7.28288867 19.8417169,8.04405294 19.7225905,8.86387024 C19.6751537,9.19032579 19.521423,9.4920394 19.2851975,9.72230231 L16.7955142,12.1491438 C16.441985,12.4937495 16.2806623,12.9902498 16.3641192,13.4768409 L16.9518537,16.9035961 C17.0918952,17.7201007 16.5435135,18.4955346 15.7270088,18.6355761 C15.4018724,18.6913414 15.0674203,18.6383694 14.7754295,18.4848608 L11.6980117,16.8669665 C11.2610257,16.6372293 10.7389743,16.6372293 10.3019883,16.8669665 Z" id="星形" fill="url(#linearGradient-1)" fill-rule="nonzero"></path>
    </g>
</svg>