<?xml version="1.0" encoding="UTF-8"?>
<svg width="50px" height="50px" viewBox="0 0 50 50" version="1.1" xmlns="http://www.w3.org/2000/svg" xmlns:xlink="http://www.w3.org/1999/xlink">
    <!-- Generator: Sketch 60 (88103) - https://sketch.com -->
    <title>h5 svg/icon/mall/gouwuche_pre</title>
    <desc>Created with Sketch.</desc>
    <defs>
        <circle id="path-1" cx="20" cy="20" r="20"></circle>
        <filter x="-17.5%" y="-12.5%" width="135.0%" height="135.0%" filterUnits="objectBoundingBox" id="filter-2">
            <feOffset dx="0" dy="2" in="SourceAlpha" result="shadowOffsetOuter1"></feOffset>
            <feGaussianBlur stdDeviation="2" in="shadowOffsetOuter1" result="shadowBlurOuter1"></feGaussianBlur>
            <feComposite in="shadowBlurOuter1" in2="SourceAlpha" operator="out" result="shadowBlurOuter1"></feComposite>
            <feColorMatrix values="0 0 0 0 0.823879076   0 0 0 0 0.823879076   0 0 0 0 0.823879076  0 0 0 0.5 0" type="matrix" in="shadowBlurOuter1"></feColorMatrix>
        </filter>
    </defs>
    <g id="h5-svg/icon/mall/gouwuche_pre" stroke="none" stroke-width="1" fill="none" fill-rule="evenodd">
        <g id="h5-svg/icon/mall/zhiding" transform="translate(5.000000, 2.000000)" opacity="0.8">
            <g id="椭圆形">
                <use fill="black" fill-opacity="1" filter="url(#filter-2)" xlink:href="#path-1"></use>
                <circle stroke="#C2C2C2" stroke-width="1" stroke-linejoin="square" fill="#C2C2C2" fill-rule="evenodd" cx="20" cy="20" r="19.5"></circle>
            </g>
        </g>
        <path d="M22.5,28 C23.3284271,28 24,28.6715729 24,29.5 C24,30.3284271 23.3284271,31 22.5,31 C21.6715729,31 21,30.3284271 21,29.5 C21,28.6715729 21.6715729,28 22.5,28 Z M29.5,28 C30.3284271,28 31,28.6715729 31,29.5 C31,30.3284271 30.3284271,31 29.5,31 C28.6715729,31 28,30.3284271 28,29.5 C28,28.6715729 28.6715729,28 29.5,28 Z M16.35,14.25 C17.6367932,14.25 18.4548994,15.2233089 18.8383874,16.9215529 L18.8859457,17.1471537 L20.2283792,23.9878827 C20.4386517,24.8445484 20.7471071,25.2015492 21.2005885,25.2453419 L21.3,25.25 L33,25.25 C33.4142136,25.25 33.75,25.5857864 33.75,26 C33.75,26.3796958 33.4678461,26.693491 33.1017706,26.7431534 L33,26.75 L21.3,26.75 C20.0670394,26.75 19.22558,25.9500396 18.8191515,24.5197729 L18.7640543,24.3111796 L17.4140543,17.4361796 C17.1889179,16.2896515 16.8500607,15.8076539 16.4297541,15.7549155 L16.35,15.75 L15,15.75 C14.5857864,15.75 14.25,15.4142136 14.25,15 C14.25,14.6203042 14.5321539,14.306509 14.8982294,14.2568466 L15,14.25 L16.35,14.25 Z M30.5449555,15.25 C30.8679541,15.25 31.0791843,15.2612955 31.3432661,15.3121339 C32.4194194,15.5193043 33.0451186,16.3223269 32.6172276,17.5579268 L32.3645265,18.3148603 C32.0828116,19.1828374 31.7136723,20.3851739 31.2536625,21.9329268 C30.856434,23.079984 29.8838878,23.6875411 28.4950702,23.7454291 L28.272347,23.75 L21.9090434,23.75 C21.4948298,23.75 21.1590434,23.4142136 21.1590434,23 C21.1590434,22.6203042 21.4411973,22.306509 21.8072728,22.2568466 L21.9090434,22.25 L28.272347,22.25 C29.1888888,22.25 29.6483547,21.9846446 29.8259616,21.4740807 L30.352503,19.7217326 C30.7061249,18.5620155 30.9883323,17.6777571 31.1998135,17.0670732 L31.2596867,16.8976351 C31.2765194,16.8373322 31.2603734,16.8236768 31.1832743,16.8079947 L31.0597075,16.7850883 C30.9446496,16.7629385 30.8330609,16.7537719 30.6739734,16.7509912 L21,16.75 C20.5857864,16.75 20.25,16.4142136 20.25,16 C20.25,15.6203042 20.5321539,15.306509 20.8982294,15.2568466 L21,15.25 L30.5449555,15.25 Z" id="形状结合" fill="#333333"></path>
    </g>
</svg>