<?xml version="1.0" encoding="UTF-8"?>
<svg width="20px" height="20px" viewBox="0 0 20 20" version="1.1" xmlns="http://www.w3.org/2000/svg" xmlns:xlink="http://www.w3.org/1999/xlink">
    <!-- Generator: Sketch 60 (88103) - https://sketch.com -->
    <title>h5 svg/icon/mall/songhuo</title>
    <desc>Created with Sketch.</desc>
    <g id="h5-svg/icon/mall/songhuo" stroke="none" stroke-width="1" fill="none" fill-rule="evenodd">
        <g id="待收货-(1)" transform="translate(1.000000, 2.500000)">
            <path d="M8.09099526,0 C7.17345973,0 6.3393365,0.766386554 6.3393365,1.78823529 L6.3393365,2.90868349 L3.50331753,2.90868349 C3.3364929,2.90868349 3.16966824,2.99383755 3.0028436,3.16414567 L0,7.42184874 L0,12.2756303 C0,12.5310924 0.250236967,12.7865546 0.500473933,12.7865546 L1.5014218,12.7865546 L5.50521327,12.7865546 L10.9270142,12.7865546 L14.9308057,12.7865546 L16.9327014,12.7865546 C17.2663507,12.7865546 17.6,12.5310924 17.6,12.1053221 L17.6,1.78823529 C17.6,0.766386554 16.8492891,0 15.8483412,0 L8.09099526,0 Z" id="路径" stroke="#666666" stroke-width="1.2" fill-rule="nonzero"></path>
            <rect id="矩形" fill="#666666" x="9.53333333" y="2.93333333" width="5.13333333" height="1" rx="0.5"></rect>
            <rect id="矩形备份-7" fill="#666666" x="9.53333333" y="5.86666667" width="5.13333333" height="1" rx="0.5"></rect>
            <circle id="椭圆形" stroke="#FFFFFF" stroke-width="0.586666667" fill="#666666" cx="5.13333333" cy="13.2" r="1.76"></circle>
            <circle id="椭圆形备份" stroke="#FFFFFF" stroke-width="0.586666667" fill="#666666" cx="13.2" cy="13.2" r="1.76"></circle>
            <path d="M3.600613,5.21590042 L2.58126177,6.49008945 C2.48005897,6.61659295 2.50056924,6.80118538 2.62707274,6.90238818 C2.67908457,6.94399765 2.74370898,6.96666667 2.81031662,6.96666667 L6.01333333,6.96666667 C6.13483598,6.96666667 6.23333333,6.86816931 6.23333333,6.74666667 L6.23333333,5.35333333 C6.23333333,5.23183069 6.13483598,5.13333333 6.01333333,5.13333333 L3.77240413,5.13333333 C3.70557171,5.13333333 3.64236288,5.16371307 3.600613,5.21590042 Z" id="路径-2" stroke="#666666" stroke-width="0.733333333"></path>
        </g>
    </g>
</svg>