<?xml version="1.0" encoding="UTF-8"?>
<svg width="22px" height="22px" viewBox="0 0 22 22" version="1.1" xmlns="http://www.w3.org/2000/svg" xmlns:xlink="http://www.w3.org/1999/xlink">
    <!-- Generator: Sketch 60 (88103) - https://sketch.com -->
    <title>h5 svg/icon/mall/gouwuche2</title>
    <desc>Created with Sketch.</desc>
    <g id="h5-svg/icon/mall/gouwuche2" stroke="none" stroke-width="1" fill="none" fill-rule="evenodd">
        <g id="icon/菜单栏/首页/选中" transform="translate(0.000000, 2.000000)" fill="#666666">
            <path d="M7.0768776,14.72397 C7.5053022,14.4766254 8.03315933,14.4766254 8.46158394,14.72397 C8.89000855,14.9713146 9.15390243,15.4284203 9.15384615,15.9230769 C9.15390243,16.4177336 8.89000855,16.8748393 8.46158394,17.1221839 C8.03315933,17.3695285 7.5053022,17.3695285 7.0768776,17.1221839 C6.64845299,16.8748393 6.3845591,16.4177336 6.38461538,15.9230769 C6.3845591,15.4284203 6.64845299,14.9713146 7.0768776,14.72397 Z M15.3845699,14.72397 C15.8129945,14.4766254 16.3408516,14.4766254 16.7692762,14.72397 C17.1977009,14.9713146 17.4615947,15.4284203 17.4615385,15.9230769 C17.4615947,16.4177336 17.1977009,16.8748393 16.7692762,17.1221839 C16.3408516,17.3695285 15.8129945,17.3695285 15.3845699,17.1221839 C14.9561453,16.8748393 14.6922514,16.4177336 14.6923077,15.9230769 C14.6922514,15.4284203 14.9561453,14.9713146 15.3845699,14.72397 Z M4.14823898,1.0786476 C4.8118299,1.64516924 5.20534838,2.45344376 5.23560842,3.31207002 C5.5234415,5.64665791 6.28300104,11.0940297 6.29099641,11.0940297 C6.29899178,11.0940297 6.45090367,12.3702711 7.53027775,12.4558726 C8.74557301,12.5259103 20.4580055,12.4558726 20.5699406,12.4558726 C20.7253042,12.4493199 20.8764645,12.5059783 20.987182,12.6122645 C21.0978995,12.7185507 21.158191,12.8648809 21.1536021,13.0161737 C21.153632,13.3269032 20.8971566,13.5800002 20.5779359,13.5842568 C20.2964991,13.5842568 14.4892186,13.6140165 11.2117212,13.6153392 L7.45831949,13.6153846 C6.21243184,13.4747338 5.24186761,12.4975004 5.13966406,11.2807967 C5.13966406,11.234105 4.34012771,5.77895124 4.08427608,3.45992726 C4.07456739,2.91369156 3.84824412,2.39226341 3.45264235,2.0047008 C3.316438,1.9052566 3.15117349,1.85073001 2.9809159,1.84906159 L1.43781074,1.84906159 C1.11104766,1.84906159 0.846153846,1.59123805 0.846153846,1.27319658 C0.846153846,0.955155117 1.11104766,0.697331569 1.43781074,0.697331569 L2.84499472,0.697331569 C3.31285022,0.663732713 3.77696851,0.799529008 4.14823898,1.0786476 Z M18.8577091,2.11923474 C19.273315,2.64187855 19.4122866,3.35097182 19.2273891,4.00550156 C18.9834003,5.34389005 18.1553171,8.70160153 18.1183491,8.85813819 C18.0813811,9.01467485 17.7043075,10.4235048 15.2939939,10.5878683 C13.3369648,10.7215266 8.505094,10.8340508 7.95152961,10.8452403 L7.92015385,10.8453077 L7.8350382,10.8386747 C7.57862125,10.7943884 7.3829321,10.5587589 7.3829321,10.274795 C7.3829321,9.9592796 7.62452365,9.70348901 7.92257456,9.7034362 C7.97432976,9.7034362 13.201605,9.5860337 15.2496323,9.4451507 C16.8466499,9.33557503 17.0906387,8.59202587 17.0980323,8.56071853 C17.1054259,8.52941119 17.9409027,5.12473872 18.1774979,3.8020039 C18.2722166,3.51120009 18.2425219,3.19113828 18.0961683,2.92539856 C17.9252409,2.79520737 17.7126532,2.74175931 17.5046803,2.77668873 L6.92443855,2.77668873 C6.73158907,2.7767229 6.55337499,2.66783 6.45694093,2.49103693 C6.36050687,2.31424386 6.36050687,2.09641595 6.45694093,1.91962287 C6.55337499,1.7428298 6.73158907,1.6339369 6.92443855,1.63397108 L17.3789891,1.63397108 C17.9155689,1.5544999 18.4576821,1.73240229 18.8577091,2.11923474 Z" id="形状结合"></path>
        </g>
    </g>
</svg>