<?xml version="1.0" encoding="UTF-8"?>
<svg width="22px" height="22px" viewBox="0 0 22 22" version="1.1" xmlns="http://www.w3.org/2000/svg" xmlns:xlink="http://www.w3.org/1999/xlink">
    <!-- Generator: Sketch 60 (88103) - https://sketch.com -->
    <title>h5 svg/icon/train/12306</title>
    <desc>Created with Sketch.</desc>
    <defs>
        <linearGradient x1="100%" y1="100%" x2="2.95507537%" y2="0.0316689536%" id="linearGradient-1">
            <stop stop-color="#262DD9" offset="0%"></stop>
            <stop stop-color="#4B52FA" offset="99.9894426%"></stop>
        </linearGradient>
    </defs>
    <g id="h5-svg/icon/train/12306" stroke="none" stroke-width="1" fill="none" fill-rule="evenodd">
        <circle id="椭圆形" fill="url(#linearGradient-1)" cx="11" cy="11" r="11"></circle>
        <path d="M12.8815789,11 C13.1213868,11 13.3157895,11.1944027 13.3157895,11.4342105 C13.3157895,11.6740184 13.1213868,11.8684211 12.8815789,11.8684211 L11.5542208,11.8683668 C11.5702339,11.9136528 11.5789474,11.9623878 11.5789474,12.0131579 L11.5789474,15.631 L15.4868421,15.6315789 C15.72665,15.6315789 15.9210526,15.8259816 15.9210526,16.0657895 C15.9210526,16.3055973 15.72665,16.5 15.4868421,16.5 L6.51315789,16.5 C6.27335004,16.5 6.07894737,16.3055973 6.07894737,16.0657895 C6.07894737,15.8259816 6.27335004,15.6315789 6.51315789,15.6315789 L10.7099474,15.631 L10.7105263,12.0131579 C10.7105263,11.9623878 10.7192398,11.9136528 10.7352529,11.8683668 L9.40789474,11.8684211 C9.16808688,11.8684211 8.97368421,11.6740184 8.97368421,11.4342105 C8.97368421,11.1944027 9.16808688,11 9.40789474,11 L12.8815789,11 Z M11.1447368,3.47368421 C11.3845447,3.47368421 11.5789474,3.66808688 11.5789474,3.90789474 L11.5789474,4.77631579 L11.5765262,4.80698707 C14.2630308,5.09454388 16.3552632,7.36872789 16.3552632,10.1315789 C16.3552632,11.7244461 15.6551605,13.2043592 14.4644248,14.2154108 C14.2816245,14.3706262 14.0076085,14.3482642 13.852393,14.1654639 C13.6971776,13.9826635 13.7195396,13.7086476 13.9023399,13.5534321 C14.9007599,12.7056755 15.4868421,11.4667847 15.4868421,10.1315789 C15.4868421,7.65356448 13.4780145,5.64473684 11,5.64473684 C8.52198553,5.64473684 6.51315789,7.65356448 6.51315789,10.1315789 C6.51315789,11.4711661 7.10312339,12.7137204 8.10719147,13.5615025 C8.29042062,13.7162116 8.31354073,13.9901646 8.1588317,14.1733937 C8.00412266,14.3566229 7.73016964,14.379743 7.54694049,14.225034 C6.34947199,13.2139547 5.64473684,11.7296786 5.64473684,10.1315789 C5.64473684,7.27095362 7.88767308,4.93419411 10.7108575,4.7839885 C10.7105583,4.78245725 10.7105263,4.77939025 10.7105263,4.77631579 L10.7105263,3.90789474 C10.7105263,3.66808688 10.904929,3.47368421 11.1447368,3.47368421 Z" id="形状结合" fill="#FFFFFF" fill-rule="nonzero"></path>
    </g>
</svg>