<?xml version="1.0" encoding="UTF-8"?>
<svg width="14px" height="14px" viewBox="0 0 14 14" version="1.1" xmlns="http://www.w3.org/2000/svg" xmlns:xlink="http://www.w3.org/1999/xlink">
    <!-- Generator: Sketch 60 (88103) - https://sketch.com -->
    <title>icon/login/password</title>
    <desc>Created with Sketch.</desc>
    <g id="icon/login/password" stroke="none" stroke-width="1">
        <rect id="矩形" opacity="0" x="0" y="0" width="14" height="14"></rect>
        <g id="密码" transform="translate(1.500000, 0.000000)">
            <path d="M2.68667362,12.5722112 L2.58667362,12.5683112 C2.6191938,12.5710112 2.65253883,12.5722112 2.68667362,12.5722112 Z M1.55577304,7.82099234 C1.55377304,7.85373387 1.55247304,7.88690894 1.55247304,7.92099234 L1.55577304,7.82099234 Z M1.55583056,11.4486492 L1.55243056,11.3486492 C1.55243056,11.3827561 1.55373056,11.4159751 1.55583056,11.4486492 Z M9.65771817,5.55846802 L3.25200252,5.5621526 L3.2477615,3.80235465 C3.2477615,3.80103121 3.24767126,3.79972281 3.24765622,3.79839938 C3.2613869,2.52463442 4.29621096,1.49459279 5.57170541,1.49459279 C6.77592966,1.49459279 7.76539585,2.41280382 7.87876044,3.58738604 C7.85145531,3.65576475 7.83744911,3.7287258 7.83749318,3.80235473 L7.84260646,3.82488327 C7.84260646,4.14560669 8.10251184,4.40534664 8.42306983,4.40534664 C8.7436579,4.40534664 9.00357832,4.14560669 9.00357832,3.82488327 L8.99846503,3.80235473 C8.99846503,3.80103129 8.99838984,3.79972289 8.9983748,3.79839945 L9.0383186,3.79839945 C9.03833363,3.79503069 9.03845395,3.79170706 9.03845395,3.7883383 C9.03845395,1.87029916 7.48348827,0.315498911 5.56543409,0.315498911 C3.67201391,0.315498911 2.13255353,1.83073134 2.09337673,3.7147972 C2.08899061,3.74378168 2.0867937,3.77305525 2.08680465,3.80236973 L2.08972223,5.01376762 L2.09245935,5.55797177 L2.09104567,5.56281435 L1.40318823,5.56320537 C0.813099851,5.61809801 0.351009079,6.11449293 0.351009079,6.71892859 L0.351009079,7.33568126 L0.35000146,11.9070051 L0.35099404,12.5237879 C0.35099404,13.164949 0.870804801,13.6847597 1.51195086,13.6847597 L2.09244431,13.6847597 L9.05826042,13.685632 L9.63876891,13.6847447 C10.2705907,13.6847447 10.7842806,13.1797926 10.7990339,12.5514448 L10.7947027,6.61299331 C10.74172,6.02774748 10.2544538,5.56804792 9.65771817,5.55846802 Z M1.51151475,12.528841 L1.50680752,6.6487353 L1.51921476,6.6487353 L1.51189073,7.75996612 C1.52347082,6.82642498 1.76442696,6.65772337 2.6723663,6.65772337 L2.29599828,6.64829351 L2.60619434,6.64809547 C2.62812132,6.65063955 2.65036412,6.65208678 2.67295282,6.65208678 C2.69570695,6.65208678 2.71813022,6.65059385 2.74022262,6.6480193 L9.00697718,6.64446977 L8.47811289,6.6576929 C9.33646839,6.6576929 9.59867475,6.80864687 9.63451287,7.61397844 L9.6372951,11.473519 C9.61660133,12.2854165 9.39999346,12.497794 8.66509378,12.5248497 L1.51151475,12.528841 Z M8.95632556,12.5247804 L9.63138474,12.5201033 L9.63735526,11.606419 L9.63803202,12.5243894 L8.95632556,12.5247804 L8.95632556,12.5247804 Z M1.51190577,11.4231678 L1.51935011,12.5201033 L2.58665858,12.5274724 C1.74967362,12.5154712 1.52336554,12.3147597 1.51190577,11.4231678 Z" id="形状"></path>
        </g>
    </g>
</svg>