<?xml version="1.0" standalone="no"?><!DOCTYPE svg PUBLIC "-//W3C//DTD SVG 1.1//EN" "http://www.w3.org/Graphics/SVG/1.1/DTD/svg11.dtd"><svg t="1627032736318" class="icon" viewBox="0 0 1024 1024" version="1.1" xmlns="http://www.w3.org/2000/svg" p-id="1205" xmlns:xlink="http://www.w3.org/1999/xlink" width="44px" height="44px"><defs><style type="text/css">@font-face { font-family: feedback-iconfont; src: url("//at.alicdn.com/t/font_1031158_1uhr8ri0pk5.eot?#iefix") format("embedded-opentype"), url("//at.alicdn.com/t/font_1031158_1uhr8ri0pk5.woff2") format("woff2"), url("//at.alicdn.com/t/font_1031158_1uhr8ri0pk5.woff") format("woff"), url("//at.alicdn.com/t/font_1031158_1uhr8ri0pk5.ttf") format("truetype"), url("//at.alicdn.com/t/font_1031158_1uhr8ri0pk5.svg#iconfont") format("svg"); }
</style></defs><path d="M507.904 524.288C430.08 489.472 374.784 409.6 374.784 317.44c0-124.928 100.352-225.28 225.28-225.28s225.28 100.352 225.28 225.28c0 92.16-55.296 169.984-133.12 206.848 176.128 40.96 307.2 200.704 307.2 389.12 0 12.288-8.192 20.48-20.48 20.48s-20.48-8.192-20.48-20.48c0-198.656-159.744-358.4-358.4-358.4s-358.4 159.744-358.4 358.4c0 12.288-8.192 20.48-20.48 20.48s-20.48-8.192-20.48-20.48c0-190.464 131.072-348.16 307.2-389.12z m-118.784-6.144v2.048c0 12.288-8.192 20.48-20.48 20.48-169.984 0-307.2 137.216-307.2 307.2 0 12.288-8.192 20.48-20.48 20.48s-20.48-8.192-20.48-20.48C20.48 688.128 129.024 552.96 274.432 512 208.896 477.184 163.84 409.6 163.84 329.728c0-112.64 92.16-204.8 204.8-204.8 12.288 0 20.48 8.192 20.48 20.48s-8.192 20.48-20.48 20.48c-90.112 0-163.84 73.728-163.84 163.84s73.728 163.84 163.84 163.84c12.288 0 20.48 8.192 20.48 20.48v4.096z m208.896-16.384c102.4 0 184.32-81.92 184.32-184.32s-81.92-184.32-184.32-184.32-184.32 81.92-184.32 184.32 83.968 184.32 184.32 184.32z" p-id="1206"></path></svg>