<?xml version="1.0" encoding="UTF-8"?>
<svg width="22px" height="22px" viewBox="0 0 22 22" version="1.1" xmlns="http://www.w3.org/2000/svg" xmlns:xlink="http://www.w3.org/1999/xlink">
    <!-- Generator: Sketch 60 (88103) - https://sketch.com -->
    <title>h5 svg/icon/train/switch@2x</title>
    <desc>Created with Sketch.</desc>
    <defs>
        <linearGradient x1="50%" y1="0%" x2="50%" y2="100%" id="linearGradient-1">
            <stop stop-color="#7C85FE" offset="0%"></stop>
            <stop stop-color="#262DD9" offset="100%"></stop>
        </linearGradient>
    </defs>
    <g id="h5-svg/icon/train/switch" stroke="none" stroke-width="1" fill="none" fill-rule="evenodd">
        <path d="M2.60809665,11.8487483 C2.65149464,11.8611627 2.69116951,11.884069 2.72361976,11.9154456 L4.35048226,13.4884784 C4.45966761,13.5940511 4.46259631,13.7681468 4.35702368,13.8773322 C4.32237779,13.9131636 4.27864511,13.9389055 4.23050135,13.9518056 L3.64893916,14.1071627 C3.68326803,14.1852791 3.71890071,14.2628429 3.75582378,14.3398269 C5.05408852,17.0466873 7.81746018,18.81 10.9043291,18.81 C14.7579883,18.81 18.0309628,16.0672797 18.6902902,12.3619122 C18.726312,12.1594722 18.8954252,12.0141742 19.0915496,12.0000494 L19.1456281,11.999505 L19.2005678,12.0057989 C19.4398151,12.0483701 19.5992525,12.2768292 19.5566812,12.5160765 C18.8226382,16.6413397 15.1845759,19.69 10.9043291,19.69 C7.47679094,19.69 4.40612731,17.7306037 2.96236595,14.7203852 C2.90179459,14.594095 2.84433673,14.4663949 2.79004098,14.3373833 L1.98125102,14.5544904 C1.83454784,14.5937994 1.68375518,14.5067392 1.64444618,14.3600361 C1.6315461,14.3118923 1.63197289,14.2611477 1.64568092,14.2132278 L2.26806875,12.0375101 C2.30983972,11.8914888 2.4620754,11.8069773 2.60809665,11.8487483 Z M10.861113,2.31 C14.116585,2.31 17.0402246,4.17544565 18.4857428,7.06192086 L19.0208113,6.75206625 C19.1523418,6.67612709 19.3205292,6.72119276 19.3964683,6.85272323 C19.4213894,6.89588774 19.4341108,6.94501368 19.4332724,6.99484871 L19.3952091,9.25751644 C19.3926546,9.40937326 19.2674794,9.53040663 19.1156226,9.52785205 C19.0704902,9.52709282 19.0262386,9.51523565 18.9867733,9.49332699 L18.6578567,9.31074067 C18.5372177,9.29912362 18.4263472,9.23776348 18.3523394,9.14251643 L17.0082139,8.39495691 C16.8754247,8.32124084 16.8275365,8.15383527 16.9012526,8.02104611 C16.9254441,7.97746854 16.9610241,7.94128494 17.0041887,7.91636389 L17.7200758,7.503 L17.6558456,7.37127745 C16.3429855,4.82658246 13.7464438,3.19 10.861113,3.19 C7.12669985,3.19 3.95059328,5.92669092 3.30744048,9.63069048 C3.26586773,9.87011328 3.03807583,10.0305024 2.79865303,9.98892969 C2.55923023,9.94735694 2.39884107,9.71956504 2.44041382,9.48014224 C3.15603781,5.35877175 6.69433436,2.31 10.861113,2.31 Z" id="形状结合" fill="#262DD9" fill-rule="nonzero" transform="translate(10.599318, 11.000000) rotate(-30.000000) translate(-10.599318, -11.000000) "></path>
        <path d="M10.7742072,7.7 C12.9746003,7.7 14.5187633,8.72729174 15.4066961,10.7818752 C15.5271248,11.0606996 15.3987895,11.3843859 15.119991,11.5048747 C15.0511099,11.5346432 14.9768652,11.55 14.9018268,11.55 L7.7,11.55 C7.39624339,11.55 7.15,11.3037566 7.15,11 L7.15,8.24992839 C7.15007161,7.94621133 7.39628294,7.7 7.7,7.7 L10.7742072,7.7 L10.7742072,7.7 Z M9.26952431,8.34166667 L8.58984144,8.34166667 C8.43796313,8.34166667 8.31484144,8.46478836 8.31484144,8.61666667 L8.31484144,8.61666667 L8.31484144,9.35 C8.31484144,9.50187831 8.43796313,9.625 8.58984144,9.625 L8.58984144,9.625 L9.26952431,9.625 C9.42140261,9.625 9.54452431,9.50187831 9.54452431,9.35 L9.54452431,9.35 L9.54452431,8.61666667 C9.54452431,8.46478836 9.42140261,8.34166667 9.26952431,8.34166667 L9.26952431,8.34166667 Z M11.1140486,8.34166667 L10.4343657,8.34166667 C10.2824874,8.34166667 10.1593657,8.46478836 10.1593657,8.61666667 L10.1593657,8.61666667 L10.1593657,9.35 C10.1593657,9.50187831 10.2824874,9.625 10.4343657,9.625 L10.4343657,9.625 L11.1140486,9.625 C11.2659269,9.625 11.3890486,9.50187831 11.3890486,9.35 L11.3890486,9.35 L11.3890486,8.61666667 C11.3890486,8.46478836 11.2659269,8.34166667 11.1140486,8.34166667 L11.1140486,8.34166667 Z M12.00389,8.34166667 L12.00389,9.35 C12.00389,9.50187831 12.1270117,9.625 12.27889,9.625 L12.27889,9.625 L13.8484144,9.625 C13.4385201,8.76944444 12.8236786,8.34166667 12.00389,8.34166667 L12.00389,8.34166667 Z" id="形状结合" fill="url(#linearGradient-1)" fill-rule="nonzero"></path>
        <rect id="矩形" fill="#474FE7" x="7.15" y="12.65" width="8.25" height="1.1" rx="0.55"></rect>
        <rect id="矩形" fill="#FFFFFF" x="6.325" y="8.25" width="1.265" height="1.265" rx="0.22"></rect>
    </g>
</svg>