<?xml version="1.0" encoding="UTF-8"?>
<svg width="14px" height="14px" viewBox="0 0 14 14" version="1.1" xmlns="http://www.w3.org/2000/svg" xmlns:xlink="http://www.w3.org/1999/xlink">
    <!-- Generator: Sketch 60 (88103) - https://sketch.com -->
    <title>icon/login/phone</title>
    <desc>Created with Sketch.</desc>
    <g id="icon/login/phone" stroke="none" stroke-width="1">
        <rect id="矩形" opacity="0" x="0" y="0" width="14" height="14"></rect>
        <g id="手机" transform="translate(2.500000, 0.500000)">
            <path d="M8.4,0 L0.6,0 C0.268574707,0 0,0.258699436 0,0.577777778 L0,12.4222222 C0,12.7413006 0.268574707,13 0.6,13 L8.4,13 C8.73135059,13 9,12.7413006 9,12.4222222 L9,0.577777778 C9,0.258699436 8.73135059,0 8.4,0 Z M4.5,12 C4.22383355,12 4,11.7761664 4,11.5 C4,11.2238336 4.22383355,11 4.5,11 C4.77616645,11 5,11.2238336 5,11.5 C5,11.7761664 4.77616645,12 4.5,12 Z M7.40425532,10 L1.59574468,10 C1.2667441,10 1,9.75577326 1,9.45454545 L1,1.54545455 C1,1.24422674 1.2667441,1 1.59574468,1 L7.40425532,1 C7.7332559,1 8,1.24422674 8,1.54545455 L8,9.45454545 C8,9.75577326 7.7332559,10 7.40425532,10 Z" id="形状"></path>
        </g>
    </g>
</svg>