<?xml version="1.0" encoding="UTF-8"?>
<svg width="44px" height="44px" viewBox="0 0 20 20" version="1.1" xmlns="http://www.w3.org/2000/svg" xmlns:xlink="http://www.w3.org/1999/xlink">
    <!-- Generator: Sketch 60 (88103) - https://sketch.com -->
    <title>h5 svg_icon_my_shanglv_people</title>
    <desc>Created with Sketch.</desc>
    <g id="09火车票" stroke="none" stroke-width="1" fill="none" fill-rule="evenodd">
        <g id="11退改进度" transform="translate(-40.000000, -251.000000)" fill="#999999" fill-rule="nonzero">
            <g id="购票差额1" transform="translate(15.000000, 200.000000)">
                <g id="h5-svg_icon_my_shanglv_people" transform="translate(25.000000, 51.000000)">
                    <g id="-mockplus-">
                        <g id="h5-svg/icon/my/shanglv/people" transform="translate(1.000000, 1.000000)">
                            <g id="轮廓化" transform="translate(0.235165, 0.235165)">
                                <path d="M8.76483516,-8.8817842e-15 C11.396381,-8.8817842e-15 13.5296703,2.13328937 13.5296703,4.76483516 C13.5296703,6.28303466 12.8196258,7.63539437 11.713501,8.50795002 C15.1033095,9.71879027 17.5296703,12.9584593 17.5296703,16.7648352 C17.5296703,17.187242 17.187242,17.5296703 16.7648352,17.5296703 C16.3424284,17.5296703 16,17.187242 16,16.7648352 C16,12.768964 12.7607064,9.52967033 8.76483516,9.52967033 C4.76896396,9.52967033 1.52967033,12.768964 1.52967033,16.7648352 C1.52967033,17.187242 1.18724196,17.5296703 0.764835165,17.5296703 C0.342428367,17.5296703 -2.3625546e-13,17.187242 -2.3625546e-13,16.7648352 C-2.3625546e-13,12.958472 2.42634452,9.71881205 5.81674656,8.50814217 C4.71004454,7.63539437 4,6.28303466 4,4.76483516 C4,2.13328937 6.13328937,-8.8817842e-15 8.76483516,-8.8817842e-15 Z M8.76483516,1.52967033 C6.97810296,1.52967033 5.52967033,2.97810296 5.52967033,4.76483516 C5.52967033,6.55156737 6.97810296,8 8.76483516,8 C10.5515674,8 12,6.55156737 12,4.76483516 C12,2.97810296 10.5515674,1.52967033 8.76483516,1.52967033 Z" id="形状结合"></path>
                                <path d="M11.5652521,10.0452161 C11.8433966,9.72731182 12.3265896,9.69508008 12.6444939,9.97322454 C12.9334978,10.2260831 12.9864087,10.6484034 12.7846664,10.9619453 L12.7164855,11.0524663 L6.84045187,17.7684603 C6.56230741,18.0863646 6.07911439,18.1185963 5.76121007,17.8404519 C5.47220613,17.5875933 5.41929525,17.1652731 5.6210376,16.8517311 L5.68921846,16.7612101 L11.5652521,10.0452161 Z" id="路径-44备份" opacity="0.7"></path>
                            </g>
                        </g>
                    </g>
                </g>
            </g>
        </g>
    </g>
</svg>