<?xml version="1.0" encoding="UTF-8"?>
<svg width="22px" height="22px" viewBox="0 0 22 22" version="1.1" xmlns="http://www.w3.org/2000/svg" xmlns:xlink="http://www.w3.org/1999/xlink">
    <!-- Generator: Sketch 60 (88103) - https://sketch.com -->
    <title>h5 svg_icon_invoice_import</title>
    <desc>Created with Sketch.</desc>
    <g id="吴庚姿" stroke="none" stroke-width="1" fill="none" fill-rule="evenodd">
        <g id="h5-svg/icon/invoice/import" fill="#666666" fill-rule="nonzero">
            <g id="轮廓化" transform="translate(2.000000, -1.000000)">
                <g id="编组" transform="translate(0.000000, 0.500000)">
                    <path d="M5.4696107,5.9 C5.80098155,5.9 6.0696107,6.16862915 6.0696107,6.5 C6.0696107,6.79823376 5.85202109,7.04564675 5.56693382,7.09214701 L5.4696107,7.1 L2,7.1 C1.78548694,7.1 1.644833,7.18454534 1.60902398,7.24236312 L1.6,7.26852956 L1.6,17.5 C1.6,17.8313708 1.33137085,18.1 1,18.1 C0.701766235,18.1 0.454353247,17.8824104 0.407852987,17.5973231 L0.4,17.5 L0.4,7.26852956 C0.4,6.51987982 1.06054708,5.96819164 1.85049752,5.90587763 L2,5.9 L5.4696107,5.9 Z" id="路径"></path>
                    <path d="M16,5.9 C16.8145859,5.9 17.51767,6.45127393 17.5932763,7.20329707 L17.6,7.33801959 L17.6,13.5 C17.6,13.8313708 17.3313708,14.1 17,14.1 C16.7017662,14.1 16.4543532,13.8824104 16.407853,13.5973231 L16.4,13.5 L16.4,7.33801959 C16.4,7.24555965 16.2790824,7.13267086 16.0866872,7.10589334 L16,7.1 L12.6996032,7.1 C12.3682323,7.1 12.0996032,6.83137085 12.0996032,6.5 C12.0996032,6.20176624 12.3171928,5.95435325 12.6022801,5.90785299 L12.6996032,5.9 L16,5.9 Z" id="路径"></path>
                    <path d="M1,14.2501594 C1.29823376,14.2501594 1.54564675,14.467749 1.59214701,14.7528363 L1.6,14.8501594 L1.6,20.35 C1.6,20.5432997 1.7371128,20.7045749 1.91938605,20.7418734 L2,20.75 L8.75185547,20.75 C9.08322632,20.75 9.35185547,21.0186292 9.35185547,21.35 C9.35185547,21.6482338 9.13426586,21.8956468 8.84917859,21.942147 L8.75185547,21.95 L2,21.95 C1.16543638,21.95 0.480110215,21.3110385 0.406538677,20.4956326 L0.4,20.35 L0.4,14.8501594 C0.4,14.5187886 0.66862915,14.2501594 1,14.2501594 Z" id="路径"></path>
                    <g id="分组" transform="translate(9.000000, 8.000000) scale(-1, 1) rotate(-270.000000) translate(-9.000000, -8.000000) translate(1.500000, 4.500000)">
                        <path d="M7.2902905,-3.29617014 C7.62166117,-3.29651447 7.89056984,-3.02816513 7.89091483,-2.69679446 L7.90383053,9.70846019 C7.90417486,10.0398309 7.63582552,10.3087395 7.30445485,10.3090852 C6.97308418,10.3094295 6.70417551,10.0410802 6.70383052,9.7097095 L6.69091482,-2.69554515 C6.69057049,-3.02691582 6.95891983,-3.29582449 7.2902905,-3.29617014 Z" id="Path-32" transform="translate(7.297373, 3.506458) rotate(-90.000000) translate(-7.297373, -3.506458) "></path>
                        <path d="M9.43880118,0.78758316 C9.73679884,0.775718287 9.99267249,0.983292606 10.0504778,1.26630422 L10.0621964,1.36323787 L10.209,5.051 L13.7383673,5.05199778 C14.0366011,5.05199778 14.2840141,5.26958739 14.3305143,5.55467466 L14.3383673,5.65199778 C14.3383673,5.95023154 14.1207777,6.19764453 13.8356904,6.24414479 L13.7383673,6.25199778 L9.63247942,6.25199778 C9.34260343,6.25199778 9.09926811,6.04601455 9.04415859,5.77020424 L9.03295443,5.67586806 L8.86314647,1.41097843 C8.84996328,1.07986992 9.10769267,0.800766352 9.43880118,0.78758316 Z" id="Path-19" transform="translate(11.600515, 3.519548) rotate(-135.000000) translate(-11.600515, -3.519548) "></path>
                    </g>
                    <path d="M15.1010865,14.9400022 C15.0991637,14.9437331 15.0906261,14.9531222 15.0769468,14.9736285 C14.2176514,16.2240515 13.0359252,17.233998 11.5391449,17.9998118 C11.4641991,18.0447793 11.3761287,18.0667969 11.2767578,18.0667969 C11.0871831,18.0667969 10.9416733,17.9787251 10.8504657,17.80311 C10.8164607,17.7214978 10.7988281,17.6474411 10.7988281,17.5800781 C10.7988281,17.3948409 10.8912692,17.2523276 11.0643414,17.165795 C12.5323993,16.4172595 13.6709039,15.4525724 14.481648,14.271204 C14.6072368,14.0897979 14.8084265,13.9996094 15.0736328,13.9996094 C15.3452687,13.9996094 15.5472922,14.0901717 15.6651421,14.2705232 C16.451696,15.3867357 17.5720413,16.2928547 19.0265156,16.9882339 C19.2755771,17.1026675 19.4099609,17.2661073 19.4099609,17.4746094 C19.4099609,17.5428432 19.3946389,17.6079617 19.3674139,17.6617531 C19.2883241,17.8558827 19.1477302,17.9613281 18.9583984,17.9613281 C18.8536706,17.9613281 18.7343855,17.9281934 18.5967271,17.8626063 C17.0472637,17.0760466 15.8857483,16.1130555 15.1134747,14.9724622 C15.10068,14.9532701 15.092605,14.9440279 15.0934831,14.9401952 Z M12.5302734,21.2945312 L12.5302734,18.2744141 C12.5302734,18.0304957 12.7002814,17.9019531 12.990625,17.9019531 C13.2699779,17.9019531 13.4333984,18.0318515 13.4333984,18.2744141 L13.4333984,21.2945313 L14.8681641,21.2945312 L14.8681641,16.7099609 C14.8681641,16.4673983 15.0315846,16.3375 15.3109375,16.3375 C15.5913712,16.3375 15.7527422,16.4691447 15.7449219,16.7099609 L15.7449219,18.3677734 L18.0091797,18.3677734 C18.2417022,18.3677734 18.3624879,18.5273832 18.3552734,18.7929688 C18.3552734,19.0709387 18.236953,19.2357422 18.0091797,19.2357422 L15.7449219,19.2357422 L15.7449219,21.2945313 L18.9583984,21.2945312 C19.1839684,21.2945312 19.3044922,21.4494904 19.3044922,21.7109375 C19.3044922,21.9889075 19.1861718,22.1537109 18.9583984,22.1537109 L11.2328125,22.1537109 C11.0050392,22.1537109 10.8867188,21.9889075 10.8867188,21.7109375 C10.8867188,21.4494904 11.0072425,21.2945312 11.2328125,21.2945312 L12.5302734,21.2945312 Z" id="企" stroke="#666666" stroke-width="0.2"></path>
                </g>
            </g>
        </g>
    </g>
</svg>