<svg xmlns="http://www.w3.org/2000/svg" width="44" height="44" viewBox="0 0 44 44">
  <defs>
    <style>
      .cls-1 {
        fill: #478aee;
        fill-rule: evenodd;
      }
    </style>
  </defs>
  <path id="btn_bill_edit" class="cls-1" d="M1746,1283h-14a3.724,3.724,0,0,0-4,4v23s-0.56,4,4,4h21a3.621,3.621,0,0,0,4-4v-8s-0.63-2-1-2a2.011,2.011,0,0,0-2,2v8a0.905,0.905,0,0,1-1,1h-21s-1,.26-1-1v-23a0.988,0.988,0,0,1,1-1h14a1.792,1.792,0,0,0,2-2C1748,1283.34,1746,1283,1746,1283Zm-5.87,24.42,0.77-6.39,4.88,3.19Zm12.62-22.38,4.87,3.19-10.77,14.4-4.87-3.19Zm3.21-4.79,4.87,3.19-2.14,3.19-4.87-3.18Z" transform="translate(-1722.405 -1275.125)"/>
</svg>
