<?xml version="1.0" encoding="UTF-8"?>
<svg width="25px" height="25px" viewBox="0 0 25 25" version="1.1" xmlns="http://www.w3.org/2000/svg" xmlns:xlink="http://www.w3.org/1999/xlink">
    <!-- Generator: Sketch 60 (88103) - https://sketch.com -->
    <title>icon_common_banzhengshi</title>
    <desc>Created with Sketch.</desc>
    <defs>
        <linearGradient x1="50%" y1="0%" x2="50%" y2="100%" id="linearGradient-1">
            <stop stop-color="#2552FF" offset="0%"></stop>
            <stop stop-color="#262DD9" offset="100%"></stop>
        </linearGradient>
        <linearGradient x1="37.1949819%" y1="63.7419056%" x2="50%" y2="100%" id="linearGradient-2">
            <stop stop-color="#FFFFFF" stop-opacity="0.622268357" offset="0%"></stop>
            <stop stop-color="#FFFFFF" stop-opacity="0.8339434" offset="100%"></stop>
        </linearGradient>
        <linearGradient x1="50%" y1="0%" x2="50%" y2="100%" id="linearGradient-3">
            <stop stop-color="#CEDBFE" offset="0%"></stop>
            <stop stop-color="#FCFCFC" stop-opacity="0.933784965" offset="19.4523851%"></stop>
            <stop stop-color="#FCFCFC" offset="28.1021925%"></stop>
            <stop stop-color="#FFFFFF" stop-opacity="0.9" offset="100%"></stop>
        </linearGradient>
    </defs>
    <g id="01伴正事生产应用图标" stroke="none" stroke-width="1" fill="none" fill-rule="evenodd">
        <g id="icon_common_banzhengshi">
            <rect id="矩形" fill="url(#linearGradient-1)" x="0" y="0" width="25" height="25" rx="12.5"></rect>
            <g id="编组-11" transform="translate(3.613281, 4.003906)">
                <line x1="7.24726401" y1="9.47849177" x2="16.069361" y2="7.5087948" id="路径-4" stroke-opacity="0.8" stroke="#FFFFFF" stroke-width="0.606060606" stroke-linecap="round"></line>
                <path d="M11.8563549,2.78152208 L12.0927186,2.78152208 C12.2450153,2.78152208 12.3684761,2.90498295 12.3684761,3.05727965 L12.3684761,11.1724312 C12.3684761,11.3247279 12.2450153,11.4481887 12.0927186,11.4481887 L11.8563549,11.4481887 C11.7040582,11.4481887 11.5805973,11.3247279 11.5805973,11.1724312 L11.5805973,3.05727965 C11.5805973,2.90498295 11.7040582,2.78152208 11.8563549,2.78152208 Z" id="矩形备份-5" fill="#FFFFFF" transform="translate(11.974537, 7.114855) rotate(-90.000000) translate(-11.974537, -7.114855) "></path>
                <path d="M11.8563549,4.75121905 L12.0927186,4.75121905 C12.2450153,4.75121905 12.3684761,4.87467992 12.3684761,5.02697662 L12.3684761,14.7178857 C12.3684761,14.8701824 12.2450153,14.9936433 12.0927186,14.9936433 L11.8563549,14.9936433 C11.7040582,14.9936433 11.5805973,14.8701824 11.5805973,14.7178857 L11.5805973,5.02697662 C11.5805973,4.87467992 11.7040582,4.75121905 11.8563549,4.75121905 Z" id="矩形备份-9" fill="#FFFFFF" transform="translate(11.974537, 9.872431) rotate(-90.000000) translate(-11.974537, -9.872431) "></path>
                <path d="M12.7299503,14.7165489 L11.6661464,15.4812609 C11.4188232,15.6590484 11.0742029,15.6026785 10.8964155,15.3553553 C10.8289901,15.2615588 10.7927186,15.1489587 10.7927186,15.0334426 L10.7927186,1.43381085 C10.7927186,1.12921744 11.0396403,0.8822957 11.3442337,0.8822957 C11.4531166,0.8822957 11.5595632,0.914525158 11.6501593,0.974922508 L12.70026,1.67498964 C12.9852028,1.86495156 13.1563549,2.18475213 13.1563549,2.52721085 L13.1563549,13.8848864 C13.1563549,14.2145776 12.9976524,14.5241122 12.7299503,14.7165489 Z" id="形状结合" fill="#FFFFFF"></path>
                <path d="M8.0351428,5.14515844 L7.985616,5.02134145 L7.985616,5.02134145 L7.35531297,3.44558388 C7.31491185,3.34458106 7.36403922,3.22995052 7.46504203,3.18954939 C7.48830815,3.18024295 7.51313637,3.17546147 7.53819474,3.17546147 L8.71149924,3.17546147 C8.78068737,3.17546147 8.84480236,3.21176276 8.88039936,3.27109109 L9.76717265,4.75046147 L10.3987792,4.75121905 L10.3987792,5.14515844 L8.0351428,5.14515844 Z" id="形状结合" fill="#FFFFFF"></path>
                <path d="M13.5502943,5.14515844 L13.5502943,4.75121905 L14.1802943,4.75046147 L15.0686741,3.27109109 C15.0953719,3.22659484 15.138111,3.1950513 15.1870007,3.18206055 L15.2375742,3.17546147 L16.4108787,3.17546147 C16.4359371,3.17546147 16.4607653,3.18024295 16.4840314,3.18954939 C16.5850343,3.22995052 16.6341616,3.34458106 16.5937605,3.44558388 L16.5937605,3.44558388 L15.9634575,5.02134145 C15.962871,5.02280775 15.9622681,5.02426415 15.9616491,5.02571048 L15.9139307,5.14515844 L13.5502943,5.14515844 Z" id="形状结合" fill="#FFFFFF"></path>
                <path d="M4.88362764,0.417885713 C4.68746185,0.736207074 4.33307857,1.87017386 3.70180946,2.78152208 C2.48427642,4.5392456 0.550294311,5.53909783 0.156354918,7.5087948 C-0.531342236,10.9472806 1.48900236,11.7515066 3.06671413,11.3826907 C4.02361275,11.159 5.37201905,10.0715813 7.11193303,8.12043447 L7.11196059,8.12045904 C7.1554147,8.07172941 7.15113806,7.99699972 7.10240843,7.9535456 C7.06351645,7.9188641 7.00650304,7.9137379 6.96204827,7.94092551 C4.60109571,9.38483464 3.23382695,9.78306829 2.86024202,9.13562648 C2.29737827,8.16015481 4.53469667,5.84728025 5.11069259,5.23891517 C6.13585955,4.15613705 6.53750518,3.29462238 6.60274596,2.53974926 C6.7321551,1.04241157 5.66695566,-0.853233118 4.88362764,0.417885713 Z" id="路径-3" fill="url(#linearGradient-2)"></path>
                <path d="M5.21541148,14.4977186 L4.16531078,15.1977857 C3.91187375,15.3667438 3.5694549,15.29826 3.40049688,15.044823 C3.34009953,14.9542269 3.30787007,14.8477803 3.30787007,14.7388974 L3.30787007,6.43146809 C3.30787007,6.12687469 3.55479181,5.87995294 3.85938522,5.87995294 C3.94500524,5.87995294 4.02944942,5.89988751 4.10603029,5.93817795 L5.10531915,6.43782237 C5.45231612,6.61132086 5.67150643,6.96597824 5.67150643,7.35393265 L5.67150643,13.6454974 C5.67150643,13.9879561 5.50035436,14.3077567 5.21541148,14.4977186 Z" id="形状结合备份" fill="url(#linearGradient-3)"></path>
                <path d="M4.88362764,0.417885713 C4.68746185,0.736207074 4.31338161,1.59787029 3.68211249,2.5092185 C2.46457945,4.26694203 0.550294311,5.53909783 0.156354918,7.5087948 C-0.112352219,8.89743117 0.0180839117,9.46864329 0.156354918,9.87243117 C0.156354918,9.61198799 0.870818736,8.18734515 2.11996198,7.51301558 C3.82964366,6.59007186 4.22042526,6.18628398 5.11069259,5.23891517 C6.13363686,4.15035956 6.53750518,3.29462238 6.60274596,2.53974926 C6.7321551,1.04241157 5.66695566,-0.853233118 4.88362764,0.417885713 Z" id="路径-3" fill="#FFFFFF"></path>
            </g>
        </g>
    </g>
</svg>