<?xml version="1.0" encoding="UTF-8"?>
<svg width="22px" height="22px" viewBox="0 0 22 22" version="1.1" xmlns="http://www.w3.org/2000/svg" xmlns:xlink="http://www.w3.org/1999/xlink">
    <!-- Generator: Sketch 60 (88103) - https://sketch.com -->
    <title>h5 svg/icon/mall/gengduo</title>
    <desc>Created with Sketch.</desc>
    <g id="h5-svg/icon/mall/gengduo" stroke="none" stroke-width="1" fill="none" fill-rule="evenodd">
        <g id="编组-2" transform="translate(1.375000, 1.375000)" fill="#333" fill-rule="nonzero">
            <path d="M15.125,11 C17.4031746,11 19.25,12.8468254 19.25,15.125 C19.25,17.4031746 17.4031746,19.25 15.125,19.25 C12.8468254,19.25 11,17.4031746 11,15.125 C11,12.8468254 12.8468254,11 15.125,11 Z M6.05,11 C7.26502645,11 8.25,11.9849736 8.25,13.2 L8.25,17.05 C8.25,18.2650264 7.26502645,19.25 6.05,19.25 L2.2,19.25 C0.98497355,19.25 0,18.2650264 0,17.05 L0,13.2 C0,11.9849736 0.98497355,11 2.2,11 L6.05,11 Z M15.125,12.375 C13.6062169,12.375 12.375,13.6062169 12.375,15.125 C12.375,16.6437831 13.6062169,17.875 15.125,17.875 C16.6437831,17.875 17.875,16.6437831 17.875,15.125 C17.875,13.6062169 16.6437831,12.375 15.125,12.375 Z M6.05,12.375 L2.2,12.375 C1.78992857,12.375 1.44973571,12.6741857 1.38579786,13.0661807 L1.375,13.2 L1.375,17.05 C1.375,17.4600714 1.67418572,17.8002643 2.06618071,17.8642021 L2.2,17.875 L6.05,17.875 C6.46007143,17.875 6.80026429,17.5758143 6.86420214,17.1838193 L6.875,17.05 L6.875,13.2 C6.875,12.7899286 6.57581428,12.4497357 6.18381929,12.3857979 L6.05,12.375 Z M6.05,0 C7.26502645,0 8.25,0.98497355 8.25,2.2 L8.25,6.05 C8.25,7.26502645 7.26502645,8.25 6.05,8.25 L2.2,8.25 C0.98497355,8.25 0,7.26502645 0,6.05 L0,2.2 C0,0.98497355 0.98497355,0 2.2,0 L6.05,0 Z M17.05,0 C18.2650264,0 19.25,0.98497355 19.25,2.2 L19.25,6.05 C19.25,7.26502645 18.2650264,8.25 17.05,8.25 L13.2,8.25 C11.9849736,8.25 11,7.26502645 11,6.05 L11,2.2 C11,0.98497355 11.9849736,0 13.2,0 L17.05,0 Z M6.05,1.375 L2.2,1.375 C1.78992857,1.375 1.44973571,1.67418572 1.38579786,2.06618071 L1.375,2.2 L1.375,6.05 C1.375,6.46007143 1.67418572,6.80026429 2.06618071,6.86420214 L2.2,6.875 L6.05,6.875 C6.46007143,6.875 6.80026429,6.57581428 6.86420214,6.18381929 L6.875,6.05 L6.875,2.2 C6.875,1.78992857 6.57581428,1.44973571 6.18381929,1.38579786 L6.05,1.375 Z M17.05,1.375 L13.2,1.375 C12.7899286,1.375 12.4497357,1.67418572 12.3857979,2.06618071 L12.375,2.2 L12.375,6.05 C12.375,6.46007143 12.6741857,6.80026429 13.0661807,6.86420214 L13.2,6.875 L17.05,6.875 C17.4600714,6.875 17.8002643,6.57581428 17.8642021,6.18381929 L17.875,6.05 L17.875,2.2 C17.875,1.78992857 17.5758143,1.44973571 17.1838193,1.38579786 L17.05,1.375 Z" id="形状结合"></path>
        </g>
    </g>
</svg>