<?xml version="1.0" encoding="UTF-8"?>
<svg width="16px" height="16px" viewBox="0 0 16 16" version="1.1" xmlns="http://www.w3.org/2000/svg" xmlns:xlink="http://www.w3.org/1999/xlink">
    <title>icon_excel</title>
    <g id="01-首页" stroke="none" stroke-width="1" fill="none" fill-rule="evenodd">
        <g id="02.3-线上抽奖-创建抽奖活动-确认信息1" transform="translate(-358.000000, -1764.000000)" fill="#107B0F" fill-rule="nonzero">
            <g id="编组-8备份-3" transform="translate(250.000000, 1442.000000)">
                <g id="编组-12" transform="translate(16.000000, 320.000000)">
                    <g id="编组" transform="translate(92.000000, 2.000000)">
                        <path d="M15.7019188,1.95818182 L10.3418117,1.95818182 L10.3418117,2.96909091 L11.9214636,2.96909091 L11.9214636,4.56727273 L10.3418117,4.56727273 L10.3418117,5.07636364 L11.9214636,5.07636364 L11.9214636,6.67636364 L10.3418117,6.67636364 L10.3418117,7.2 L11.9214636,7.2 L11.9214636,8.71272727 L10.3418117,8.71272727 L10.3418117,9.32 L11.9214636,9.32 L11.9214636,10.8363636 L10.3418117,10.8363636 L10.3418117,11.4436364 L11.9214636,11.4436364 L11.9214636,12.9690909 L10.3418117,12.9690909 L10.3418117,14.0818182 L15.7019188,14.0818182 C15.7858099,14.0563636 15.8572066,13.9545455 15.914324,13.7781818 C15.9714413,13.6 16,13.4563636 16,13.3454545 L16,2.14181818 C16,2.05454545 15.9714413,2.00181818 15.914324,1.98363636 C15.8447122,1.96545455 15.7733155,1.95636364 15.7019188,1.95818182 Z M15.005801,12.9672727 L12.4355199,12.9672727 L12.4355199,11.4436364 L15.0075859,11.4436364 L15.005801,12.9672727 Z M15.005801,10.8363636 L12.4355199,10.8363636 L12.4355199,9.31818182 L15.0075859,9.31818182 L15.005801,10.8363636 Z M15.005801,8.71272727 L12.4355199,8.71272727 L12.4355199,7.20545455 L15.0075859,7.20545455 L15.005801,8.71272727 Z M15.005801,6.67636364 L12.4355199,6.67636364 L12.4355199,5.07818182 L15.0075859,5.07818182 L15.005801,6.67636364 Z M15.005801,4.55818182 L12.4355199,4.55818182 L12.4355199,2.96909091 L15.0075859,2.96909091 L15.0075859,4.56909091 L15.005801,4.55818182 Z M0,1.70545455 L0,14.3363636 L9.44042838,16 L9.44042838,0 L0,1.71090909 L0,1.70545455 Z M5.5957162,11.26 C5.56001785,11.16 5.39045069,10.74 5.09058456,9.99454545 C4.91744757,9.56 4.73895582,9.12545455 4.55867916,8.69272727 L4.5426149,8.69272727 L3.53056671,11.1472727 L2.17759929,11.0545455 L3.78045515,8 L2.30968318,4.94545455 L3.68942436,4.87090909 L4.60151718,7.26181818 L4.61936635,7.26181818 L5.64926372,4.76181818 L7.07541276,4.67090909 L5.37795627,7.97818182 L7.12717537,11.3509091 L5.5957162,11.26 L5.5957162,11.26 Z" id="形状"></path>
                    </g>
                </g>
            </g>
        </g>
    </g>
</svg>