<svg xmlns="http://www.w3.org/2000/svg" width="60" height="60" viewBox="0 0 60 60">
  <defs>
    <style>
      .cls-1 {
        fill: #999999;
        fill-rule: evenodd;
      }
    </style>
  </defs>
  <path id="icon_work_taxi" class="cls-1" d="M883.031,3568.87h-3c-0.841-2.53-4.649-12.87-9.031-12.87H853c-4.387,0-8.128,10.34-8.969,12.87h-3a2.839,2.839,0,0,0-3,2.75v0.59a2.77,2.77,0,0,0,3,2.67l-1,7.99c0,0.05,0,.96,0,1v9a3.041,3.041,0,0,0,3,3h4a3.041,3.041,0,0,0,3-3,1.936,1.936,0,0,1,2.017-2h20.013a1.911,1.911,0,0,1,1.97,2,3.041,3.041,0,0,0,3,3h4a3.041,3.041,0,0,0,3-3v-9c0-.04.006-0.95,0-1l-1-7.99h0a2.776,2.776,0,0,0,3-2.67v-0.59a2.833,2.833,0,0,0-3-2.75h0ZM853,3560h18s5.379,7.21,5,11c-1.955,0-8,1-14,1a129.849,129.849,0,0,1-15-1S849.15,3562.77,853,3560Zm-7,32h-2a68.865,68.865,0,0,1,1-19c7.082,0.51,8.719.95,17,1a156.535,156.535,0,0,0,17-1,71.055,71.055,0,0,1,1,19,7.925,7.925,0,0,0-2,0s-2.207-4.02-3-5c-2.492-.02-25,0-25,0Zm11.315-10.65a2.924,2.924,0,0,1-1.976,1.66,10.509,10.509,0,0,1-2.331.24,0.914,0.914,0,0,1-.165.01,1.1,1.1,0,0,1-.258-0.03l-0.835-.09a18.808,18.808,0,0,1-2.427-.32c-1.312-.29-2.732-1.33-2.056-4.56a2.438,2.438,0,0,1,1.135-1.73,2.684,2.684,0,0,1,2.234-.06,46.886,46.886,0,0,1,5.442,2.35,2.583,2.583,0,0,1,1.237,2.53h0Zm-3.338-.89a1.089,1.089,0,0,1-.769.47,4.718,4.718,0,0,1-.907.07h-0.064a0.33,0.33,0,0,1-.1-0.01l-0.326-.02c-0.308-.02-0.627-0.04-0.944-0.09a0.913,0.913,0,0,1-.8-1.31,0.749,0.749,0,0,1,.442-0.49,1.409,1.409,0,0,1,.869-0.02c0.673,0.18,1.365.4,2.117,0.67a0.709,0.709,0,0,1,.482.73h0Zm12.081,0.64a2.867,2.867,0,0,0,1.923,1.66,9.937,9.937,0,0,0,2.266.24,0.871,0.871,0,0,0,.161.01,1.045,1.045,0,0,0,.251-0.03l0.812-.09a17.816,17.816,0,0,0,2.361-.32c1.276-.29,2.657-1.33,2-4.56a2.44,2.44,0,0,0-1.1-1.73,2.546,2.546,0,0,0-2.173-.06,44.848,44.848,0,0,0-5.293,2.35,2.606,2.606,0,0,0-1.2,2.53h0Zm3.247-.89a1.056,1.056,0,0,0,.748.47,4.467,4.467,0,0,0,.882.07H871a0.314,0.314,0,0,0,.1-0.01l0.316-.02c0.3-.02.611-0.04,0.919-0.09a0.91,0.91,0,0,0,.778-1.31,0.739,0.739,0,0,0-.43-0.49,1.335,1.335,0,0,0-.845-0.02c-0.655.18-1.328,0.4-2.059,0.67a0.71,0.71,0,0,0-.469.73h0Z" transform="translate(-832.031 -3545.94)"/>
</svg>
