<?xml version="1.0" encoding="UTF-8"?>
<svg width="63px" height="56px" viewBox="0 0 63 56" version="1.1" xmlns="http://www.w3.org/2000/svg" xmlns:xlink="http://www.w3.org/1999/xlink">
    <title>icon_mall_fuwushouquan</title>
    <g id="页面-1" stroke="none" stroke-width="1" fill="none" fill-rule="evenodd">
        <g id="35.1弹框大小" transform="translate(-156.000000, -98.000000)">
            <g id="弹框备份-11" transform="translate(40.000000, 88.000000)">
                <g id="icon_mall_fuwushouquan" transform="translate(117.000000, 10.000000)">
                    <path d="M11.0038249,14.5422829 C11.0038249,14.5422829 10.8919455,12.8082192 12.2986859,12.687376 C13.7054263,12.5665329 23.2517539,12.1107518 29.5363657,7.12335402 C29.9515935,6.95888199 30.4163575,6.95888199 30.8315853,7.12335402 C30.8315853,7.12335402 42.5678093,13.3460758 47.669081,12.687376 C48.109427,12.7593231 48.8839769,13.2702869 48.9643006,13.9237478 C49.0446243,14.5772086 48.9643006,34.9438134 48.9643006,34.9438134 C48.9643006,34.9438134 49.9177859,45.8120099 32.1268049,50.8699577 C31.4914292,51.0433474 30.8193512,51.0433474 30.1839755,50.8699577 C30.1839755,50.8699577 14.2451011,48.1300322 11.0038249,35.5623485 C10.9952188,23.7832884 11.0038249,14.5422829 11.0038249,14.5422829 Z" id="形状_40" fill-opacity="0.54" fill="#FFEFEF" opacity="0.42"></path>
                    <circle id="椭圆_2509" fill="#FCDEDE" fill-rule="nonzero" opacity="0.274281064" cx="27.5" cy="2.5" r="2.5"></circle>
                    <path d="M2.00933436,38 C2.56041373,38.005156 3.00345656,38.4551917 2.99997968,39.006293 C2.99650279,39.5573943 2.54781694,40.0018039 1.99671653,40 C1.44561611,39.998185 0.999858099,39.5508387 1,38.9997264 C1.00127474,38.7333068 1.10833188,38.4783058 1.29761945,38.2908223 C1.48690702,38.1033387 1.74291909,37.9987308 2.00933436,38 L2.00933436,38 Z" id="椭圆_2509_拷贝_2" fill="#FCDEDE" opacity="0.37"></path>
                    <path d="M32.0186687,52 C33.1208275,52.010312 34.0069131,52.9103834 33.9999594,54.012586 C33.9930056,55.1147886 33.0956339,56.0036079 31.9934331,56 C30.8912322,55.9963701 29.9997162,55.1016773 30,53.9994528 C30.0025495,53.4666137 30.2166638,52.9566116 30.5952389,52.5816445 C30.973814,52.2066774 31.4858382,51.9974615 32.0186687,52 Z" id="椭圆_2509_拷贝_8" fill="#FCDEDE" opacity="0.37"></path>
                    <path d="M44.0093343,5 C44.5603745,5.00515444 45.0034016,5.45512922 45,6.00619203 C44.996559,6.55725485 44.5479789,7.00169384 43.9969173,7 C43.4458557,6.99829646 43.000024,6.55110038 43,6.00002694 C43.0026547,5.44518768 43.4545036,4.99751001 44.0093343,5 L44.0093343,5 Z" id="椭圆_2509_拷贝_10" fill="#FCDEDE" opacity="0.14"></path>
                    <path d="M53.0093344,27 C53.5604137,27.0051575 54.0034566,27.4551929 53.9999797,28.0062938 C53.9965028,28.5573946 53.5478169,29.0018039 52.9967165,29 C52.4456161,28.9981851 51.9998581,28.550839 52,27.9997272 C52.001195,27.7332829 52.1082267,27.4782355 52.2975316,27.2907349 C52.4868366,27.1032342 52.742895,26.9986522 53.0093344,27 L53.0093344,27 Z" id="椭圆_2509_拷贝_6" fill="#DEEAFC" opacity="0.37"></path>
                    <circle id="椭圆_2509_拷贝_3" fill="#FCDEDE" fill-rule="nonzero" opacity="0.456848028" cx="48.5" cy="48.5" r="1.5"></circle>
                    <circle id="椭圆_2509_拷贝_7" fill="#FCDEDE" fill-rule="nonzero" opacity="0.372700893" cx="58.5" cy="16.5" r="2.5"></circle>
                    <path d="M56.0282647,33 C57.6813496,33.0156091 59.0102993,34.3655958 58.9999398,36.0187495 C58.9895804,37.6719031 57.6438165,39.0051283 55.9906662,39 C54.3375159,38.994842 53.0000734,37.6532691 53,36.000083 C53.0078937,34.3354329 54.3636419,32.9923165 56.0282647,33 Z" id="椭圆_2509_拷贝_4" fill-opacity="0.67" fill="#FCDEDE" opacity="0.35"></path>
                    <path d="M4.02826473,13 C5.68134964,13.0156102 7.01029927,14.3655967 6.99993984,16.01875 C6.98958041,17.6719034 5.64381652,19.0051283 3.99066623,19 C2.33751595,18.994842 1.00007338,17.6532693 1,16.0000835 C1.00368817,15.200654 1.32482315,14.4354389 1.89274605,13.8728076 C2.46066894,13.3101762 3.22884905,12.9962257 4.02826473,13 Z" id="椭圆_2509_拷贝_9" fill-opacity="0.67" fill="#FCDEDE" opacity="0.430734747"></path>
                    <path d="M12.0282647,47 C13.6813496,47.0156102 15.0102993,48.3655967 14.9999398,50.01875 C14.9895804,51.6719034 13.6438165,53.0051283 11.9906662,53 C10.3375159,52.994842 9.00007338,51.6532693 9,50.0000835 C9.00368817,49.200654 9.32482315,48.4354389 9.89274605,47.8728076 C10.4606689,47.3101762 11.2288491,46.9962257 12.0282647,47 Z" id="椭圆_2509_拷贝_5" fill="#FCDEDE" opacity="0.24890811"></path>
                    <path d="M15.0031376,17.1708879 C15.0031376,17.1708879 14.9141858,15.752088 16.0366737,15.6534641 C17.1591616,15.5548402 24.4563921,15.1814536 29.4705246,11.1008467 C29.8013854,10.9663844 30.1731998,10.9663844 30.5040606,11.1008467 C30.5040606,11.1008467 39.8676573,16.192262 43.9379115,15.6534641 C44.448937,15.7734404 44.8481937,16.1641848 44.9714475,16.6649646 C45.0356906,17.199956 44.9714475,33.8635877 44.9714475,33.8635877 C44.9714475,33.8635877 45.7321273,42.7570407 31.5372437,46.8937075 C31.0307059,47.0354308 30.4938304,47.0354308 29.9872926,46.8937075 C29.9872926,46.8937075 17.5894487,44.6520037 15.0031376,34.369511 C14.996078,24.7317071 15.0031376,17.1708879 15.0031376,17.1708879 Z M22.6387226,26.2725452 C23.42495,25.7042167 24.0650241,26.1576962 24.6810301,26.7810131 C25.2970361,27.40433 28.2553299,29.8335604 28.2553299,29.8335604 L35.9138958,22.2027142 C36.3885092,21.9324286 36.9709259,21.9324286 37.4455393,22.2027142 C38.221651,22.6697668 37.9562034,23.7288138 37.9562034,23.7288138 C37.9562034,23.7288138 29.3980454,32.6452728 28.7656452,32.8857597 C28.1332449,33.1262465 27.8507053,33.0009567 27.2340017,32.3769438 C26.6172981,31.7529309 22.1280585,27.7986449 22.1280585,27.7986449 C22.1280585,27.7986449 21.616348,27.0114072 22.6387226,26.2725452 L22.6387226,26.2725452 Z" id="形状_40_拷贝" fill="#FFFFFF"></path>
                    <path d="M30,28.0894587 L28.2373192,29.84372 C28.2373192,29.84372 25.2885061,27.4255905 24.6740542,26.8046867 C24.0596022,26.1837828 23.4221996,25.7326574 22.6380517,26.2984699 C21.6188335,27.0340608 22.1289642,27.8178133 22.1289642,27.8178133 C22.1289642,27.8178133 26.6043444,31.7549396 27.2191441,32.3758434 C27.8339438,32.9967473 28.1159588,33.1218289 28.746059,32.8824067 C29.196827,32.5557255 29.6165663,32.188528 30,31.7854304 L30,47 C29.9199738,46.9867584 29.8411352,46.9671775 29.7642341,46.9414438 C29.7642341,46.9414438 17.5506537,44.6969041 15.0027819,34.4014036 C14.9965226,24.7521005 15.0027819,17.1810236 15.0027819,17.1810236 C15.0027819,17.1810236 14.9151521,15.7604289 16.020957,15.6616802 C17.1267619,15.5629315 24.3155369,15.1890726 29.2551465,11.1033035 C29.489413,11.0013928 29.7495469,10.9740451 30,11.0249976 L30,28.0884192 L30,28.0894587 Z" id="矩形_3346" fill="#D0FFFF"></path>
                    <path d="M49.1773255,23.15172 C56.3704587,24.1579611 61,25.7317027 61,27.5 C61,30.5369277 47.3448559,33 30.5,33 C13.6551441,33 0,30.539247 0,27.500994 C0,25.8046594 4.25679366,24.2877277 10.9487369,23.2786627" id="路径" stroke="#FFFFFF" fill-opacity="0" fill="#666666" opacity="0.78" stroke-linecap="round"></path>
                </g>
            </g>
        </g>
    </g>
</svg>