<?xml version="1.0" encoding="UTF-8"?>
<svg width="22px" height="22px" viewBox="0 0 22 22" version="1.1" xmlns="http://www.w3.org/2000/svg" xmlns:xlink="http://www.w3.org/1999/xlink">
    <title>icon/common/paixu8</title>
    <defs>
        <linearGradient x1="16.5289256%" y1="0%" x2="83.4710744%" y2="100%" id="linearGradient-1">
            <stop stop-color="#DCD4D3" offset="0%"></stop>
            <stop stop-color="#C0B5B5" offset="100%"></stop>
        </linearGradient>
    </defs>
    <g id="icon/common/paixu8" stroke="none" stroke-width="1" fill="none" fill-rule="evenodd">
        <g id="icon/common/paixu" transform="translate(2.000000, 0.000000)">
            <path d="M2,0 L16,0 C17.1045695,-2.02906125e-16 18,0.8954305 18,2 L18,19.1926858 C18,20.2972553 17.1045695,21.1926858 16,21.1926858 C15.7776441,21.1926858 15.5568447,21.155606 15.3466865,21.0829719 L9.65331348,19.11525 C9.23005433,18.9689648 8.76994567,18.9689648 8.34668652,19.11525 L2.65331348,21.0829719 C1.6093373,21.443787 0.470528982,20.8899755 0.109713911,19.8459993 C0.0370798498,19.6358411 2.72307471e-17,19.4150417 0,19.1926858 L0,2 C-1.3527075e-16,0.8954305 0.8954305,2.02906125e-16 2,0 Z" id="矩形" fill="url(#linearGradient-1)"></path>
            <path d="M8.575,15.225 C9.255,15.225 9.835,15.08 10.315,14.79 C10.605,14.61 10.825,14.45 10.975,14.31 C11.665,13.68 12.01,12.885 12.01,11.925 C12.01,11.505 11.905,11.07 11.695,10.62 C11.515,10.24 11.155,9.885 10.615,9.555 C11.105,9.245 11.44,8.9 11.62,8.52 C11.78,8.19 11.86,7.795 11.86,7.335 C11.86,6.515 11.555,5.8 10.945,5.19 C10.685,4.93 10.37,4.72 10,4.56 C9.52,4.36 9.055,4.26 8.605,4.26 L8.605,4.26 L8.395,4.26 C7.895,4.26 7.43,4.36 7,4.56 C6.64,4.73 6.325,4.94 6.055,5.19 C5.445,5.77 5.14,6.485 5.14,7.335 C5.14,7.765 5.22,8.16 5.38,8.52 C5.54,8.89 5.875,9.235 6.385,9.555 C5.915,9.835 5.555,10.19 5.305,10.62 C5.095,11 4.99,11.435 4.99,11.925 C4.99,12.885 5.335,13.68 6.025,14.31 C6.175,14.45 6.395,14.61 6.685,14.79 C7.165,15.08 7.745,15.225 8.425,15.225 L8.425,15.225 L8.575,15.225 Z M8.5,8.955 C7.98,8.925 7.5575,8.77 7.2325,8.49 C6.9075,8.21 6.745,7.835 6.745,7.365 C6.745,6.915 6.91,6.5325 7.24,6.2175 C7.57,5.9025 7.99,5.745 8.5,5.745 C9.01,5.745 9.43,5.905 9.76,6.225 C10.09,6.545 10.255,6.945 10.255,7.425 C10.255,7.855 10.0925,8.21 9.7675,8.49 C9.4425,8.77 9.02,8.925 8.5,8.955 Z M8.5,13.755 C8.15,13.755 7.83,13.6725 7.54,13.5075 C7.25,13.3425 7.0225,13.1175 6.8575,12.8325 C6.6925,12.5475 6.61,12.24 6.61,11.91 C6.61,11.39 6.7875,10.9725 7.1425,10.6575 C7.4975,10.3425 7.95,10.185 8.5,10.185 C9.04,10.185 9.49,10.345 9.85,10.665 C10.21,10.985 10.39,11.42 10.39,11.97 C10.39,12.27 10.3075,12.5575 10.1425,12.8325 C9.9775,13.1075 9.75,13.33 9.46,13.5 C9.17,13.67 8.85,13.755 8.5,13.755 Z" id="8" fill="#FFFFFF" fill-rule="nonzero"></path>
        </g>
    </g>
</svg>