<?xml version="1.0" encoding="UTF-8"?>
<svg width="22px" height="22px" viewBox="0 0 22 22" version="1.1" xmlns="http://www.w3.org/2000/svg" xmlns:xlink="http://www.w3.org/1999/xlink">
    <title>icon/common/paixu9</title>
    <defs>
        <linearGradient x1="16.5289256%" y1="0%" x2="83.4710744%" y2="100%" id="linearGradient-1">
            <stop stop-color="#DCD4D3" offset="0%"></stop>
            <stop stop-color="#C0B5B5" offset="100%"></stop>
        </linearGradient>
    </defs>
    <g id="icon/common/paixu9" stroke="none" stroke-width="1" fill="none" fill-rule="evenodd">
        <g id="icon/common/paixu" transform="translate(2.000000, 0.000000)">
            <path d="M2,0 L16,0 C17.1045695,-2.02906125e-16 18,0.8954305 18,2 L18,19.1926858 C18,20.2972553 17.1045695,21.1926858 16,21.1926858 C15.7776441,21.1926858 15.5568447,21.155606 15.3466865,21.0829719 L9.65331348,19.11525 C9.23005433,18.9689648 8.76994567,18.9689648 8.34668652,19.11525 L2.65331348,21.0829719 C1.6093373,21.443787 0.470528982,20.8899755 0.109713911,19.8459993 C0.0370798498,19.6358411 2.72307471e-17,19.4150417 0,19.1926858 L0,2 C-1.3527075e-16,0.8954305 0.8954305,2.02906125e-16 2,0 Z" id="矩形" fill="url(#linearGradient-1)"></path>
            <path d="M8.6875,15.21 L11.5075,8.97 C11.6975,8.56 11.7925,8.12 11.7925,7.65 C11.7925,7.05 11.6425,6.495 11.3425,5.985 C11.0325,5.475 10.6275,5.0725 10.1275,4.7775 C9.6275,4.4825 9.0775,4.335 8.4775,4.335 C7.8975,4.335 7.3525,4.485 6.8425,4.785 C6.3425,5.085 5.945,5.49 5.65,6 C5.355,6.51 5.2075,7.06 5.2075,7.65 C5.2075,8.23 5.3575,8.775 5.6575,9.285 C6.2475,10.245 7.0825,10.725 8.1625,10.725 C8.3725,10.725 8.6175,10.7 8.8975,10.65 L8.8975,10.65 L6.9175,15.21 L8.6875,15.21 Z M8.4925,9.375 C8.0225,9.375 7.6175,9.205 7.2775,8.865 C6.9375,8.525 6.7675,8.12 6.7675,7.65 C6.7675,7.18 6.9375,6.7775 7.2775,6.4425 C7.6175,6.1075 8.0225,5.94 8.4925,5.94 C8.9625,5.94 9.3625,6.105 9.6925,6.435 C10.0225,6.765 10.1875,7.17 10.1875,7.65 C10.1875,8.12 10.02,8.525 9.685,8.865 C9.35,9.205 8.9525,9.375 8.4925,9.375 Z" id="9" fill="#FFFFFF" fill-rule="nonzero"></path>
        </g>
    </g>
</svg>