<?xml version="1.0" encoding="UTF-8"?>
<svg width="22px" height="22px" viewBox="0 0 22 22" version="1.1" xmlns="http://www.w3.org/2000/svg" xmlns:xlink="http://www.w3.org/1999/xlink">
    <title>icon/common/paixu2</title>
    <defs>
        <linearGradient x1="34.926331%" y1="-30.1190885%" x2="74.6562383%" y2="62.6543563%" id="linearGradient-1">
            <stop stop-color="#FFD786" offset="0%"></stop>
            <stop stop-color="#FFAA00" offset="100%"></stop>
        </linearGradient>
    </defs>
    <g id="icon/common/paixu2" stroke="none" stroke-width="1" fill="none" fill-rule="evenodd">
        <g id="icon/common/paixu" transform="translate(2.000000, 0.000000)">
            <path d="M2,0 L16,0 C17.1045695,-2.02906125e-16 18,0.8954305 18,2 L18,19.1926858 C18,20.2972553 17.1045695,21.1926858 16,21.1926858 C15.7776441,21.1926858 15.5568447,21.155606 15.3466865,21.0829719 L9.65331348,19.11525 C9.23005433,18.9689648 8.76994567,18.9689648 8.34668652,19.11525 L2.65331348,21.0829719 C1.6093373,21.443787 0.470528982,20.8899755 0.109713911,19.8459993 C0.0370798498,19.6358411 2.72307471e-17,19.4150417 0,19.1926858 L0,2 C-1.3527075e-16,0.8954305 0.8954305,2.02906125e-16 2,0 Z" id="矩形" fill="url(#linearGradient-1)"></path>
            <path d="M12.3,15.06 L12.3,13.575 L7.875,13.575 L11.595,9.15 C12.065,8.62 12.3,8.015 12.3,7.335 C12.29,6.485 11.97,5.775 11.34,5.205 C10.71,4.645 9.9,4.36 8.91,4.35 C8.03,4.36 7.28,4.64 6.66,5.19 C6.05,5.77 5.73,6.49 5.7,7.35 L7.35,7.35 C7.41,6.86 7.595,6.49 7.905,6.24 C8.195,5.98 8.57,5.85 9.03,5.85 C9.54,5.86 9.94,6.01 10.23,6.3 C10.5,6.58 10.635,6.92 10.635,7.32 C10.635,7.48 10.615,7.635 10.575,7.785 C10.525,7.945 10.405,8.135 10.215,8.355 L5.7,13.665 L5.7,15.06 L12.3,15.06 Z" id="2" fill="#FFFFFF" fill-rule="nonzero"></path>
        </g>
    </g>
</svg>