<?xml version="1.0" encoding="UTF-8"?>
<svg width="22px" height="22px" viewBox="0 0 22 22" version="1.1" xmlns="http://www.w3.org/2000/svg" xmlns:xlink="http://www.w3.org/1999/xlink">
    <title>icon/common/paixu10</title>
    <defs>
        <linearGradient x1="16.5289256%" y1="0%" x2="83.4710744%" y2="100%" id="linearGradient-1">
            <stop stop-color="#DCD4D3" offset="0%"></stop>
            <stop stop-color="#C0B5B5" offset="100%"></stop>
        </linearGradient>
    </defs>
    <g id="icon/common/paixu10" stroke="none" stroke-width="1" fill="none" fill-rule="evenodd">
        <g id="icon/common/paixu" transform="translate(2.000000, 0.000000)">
            <path d="M2,0 L16,0 C17.1045695,-2.02906125e-16 18,0.8954305 18,2 L18,19.1926858 C18,20.2972553 17.1045695,21.1926858 16,21.1926858 C15.7776441,21.1926858 15.5568447,21.155606 15.3466865,21.0829719 L9.65331348,19.11525 C9.23005433,18.9689648 8.76994567,18.9689648 8.34668652,19.11525 L2.65331348,21.0829719 C1.6093373,21.443787 0.470528982,20.8899755 0.109713911,19.8459993 C0.0370798498,19.6358411 2.72307471e-17,19.4150417 0,19.1926858 L0,2 C-1.3527075e-16,0.8954305 0.8954305,2.02906125e-16 2,0 Z" id="矩形" fill="url(#linearGradient-1)"></path>
            <path d="M5.935,15.135 L5.935,4.425 L4.45,4.425 L2.965,5.37 L2.965,6.99 L4.45,6.18 L4.45,15.135 L5.935,15.135 Z M11.545,15.255 C12.325,15.235 13.035,14.975 13.675,14.475 C14.375,13.925 14.73,13.195 14.74,12.285 L14.74,12.285 L14.74,7.29 C14.73,6.39 14.375,5.655 13.675,5.085 C13.055,4.585 12.37,4.335 11.62,4.335 C11.17,4.335 10.78,4.395 10.45,4.515 C10.12,4.635 9.79,4.825 9.46,5.085 C8.73,5.645 8.36,6.38 8.35,7.29 L8.35,7.29 L8.35,12.285 C8.36,13.195 8.73,13.925 9.46,14.475 C9.79,14.745 10.1125,14.94 10.4275,15.06 C10.7425,15.18 11.115,15.245 11.545,15.255 Z M11.545,13.755 C10.495,13.745 9.955,13.195 9.925,12.105 L9.925,12.105 L9.925,7.425 C9.955,6.375 10.495,5.845 11.545,5.835 C12.015,5.845 12.4,5.9875 12.7,6.2625 C13,6.5375 13.155,6.925 13.165,7.425 L13.165,7.425 L13.165,12.105 C13.155,12.615 13,13.015 12.7,13.305 C12.4,13.595 12.015,13.745 11.545,13.755 Z" id="10" fill="#FFFFFF" fill-rule="nonzero"></path>
        </g>
    </g>
</svg>