<?xml version="1.0" encoding="UTF-8"?>
<svg width="22px" height="22px" viewBox="0 0 22 22" version="1.1" xmlns="http://www.w3.org/2000/svg" xmlns:xlink="http://www.w3.org/1999/xlink">
    <title>icon/common/paixu3</title>
    <defs>
        <linearGradient x1="34.926331%" y1="-30.1190885%" x2="74.6562383%" y2="62.6543563%" id="linearGradient-1">
            <stop stop-color="#FFBA87" offset="0%"></stop>
            <stop stop-color="#FF5E00" offset="100%"></stop>
        </linearGradient>
    </defs>
    <g id="icon/common/paixu3" stroke="none" stroke-width="1" fill="none" fill-rule="evenodd">
        <g id="icon/common/paixu" transform="translate(2.000000, 0.000000)">
            <path d="M2,0 L16,0 C17.1045695,-2.02906125e-16 18,0.8954305 18,2 L18,19.1926858 C18,20.2972553 17.1045695,21.1926858 16,21.1926858 C15.7776441,21.1926858 15.5568447,21.155606 15.3466865,21.0829719 L9.65331348,19.11525 C9.23005433,18.9689648 8.76994567,18.9689648 8.34668652,19.11525 L2.65331348,21.0829719 C1.6093373,21.443787 0.470528982,20.8899755 0.109713911,19.8459993 C0.0370798498,19.6358411 2.72307471e-17,19.4150417 0,19.1926858 L0,2 C-1.3527075e-16,0.8954305 0.8954305,2.02906125e-16 2,0 Z" id="矩形" fill="url(#linearGradient-1)"></path>
            <path d="M8.88,15.12 C9.91,15.1 10.745,14.8 11.385,14.22 C12.035,13.65 12.37,12.87 12.39,11.88 C12.39,11.45 12.29,11.025 12.09,10.605 C11.86,10.195 11.505,9.845 11.025,9.555 C11.495,9.275 11.825,8.94 12.015,8.55 C12.175,8.19 12.255,7.8 12.255,7.38 C12.255,6.58 11.955,5.88 11.355,5.28 C10.745,4.69 9.91,4.385 8.85,4.365 C8.02,4.385 7.305,4.655 6.705,5.175 C6.105,5.715 5.76,6.375 5.67,7.155 L5.67,7.155 L7.335,7.155 C7.445,6.715 7.65,6.395 7.95,6.195 C8.23,5.985 8.55,5.88 8.91,5.88 C9.42,5.9 9.825,6.045 10.125,6.315 C10.435,6.605 10.595,6.97 10.605,7.41 C10.605,7.85 10.45,8.205 10.14,8.475 C9.82,8.765 9.38,8.91 8.82,8.91 L8.82,8.91 L8.25,8.91 L8.25,10.245 L8.94,10.245 C9.45,10.245 9.875,10.39 10.215,10.68 C10.565,10.97 10.74,11.385 10.74,11.925 C10.72,12.455 10.545,12.86 10.215,13.14 C9.895,13.45 9.485,13.605 8.985,13.605 C8.545,13.605 8.18,13.49 7.89,13.26 C7.64,13.04 7.43,12.755 7.26,12.405 L7.26,12.405 L5.61,12.405 C5.79,13.295 6.185,13.97 6.795,14.43 C7.405,14.89 8.1,15.12 8.88,15.12 Z" id="3" fill="#FFFFFF" fill-rule="nonzero"></path>
        </g>
    </g>
</svg>