<?xml version="1.0" encoding="UTF-8"?>
<svg width="22px" height="22px" viewBox="0 0 22 22" version="1.1" xmlns="http://www.w3.org/2000/svg" xmlns:xlink="http://www.w3.org/1999/xlink">
    <title>icon/common/paixu6</title>
    <defs>
        <linearGradient x1="16.5289256%" y1="0%" x2="83.4710744%" y2="100%" id="linearGradient-1">
            <stop stop-color="#DCD4D3" offset="0%"></stop>
            <stop stop-color="#C0B5B5" offset="100%"></stop>
        </linearGradient>
    </defs>
    <g id="icon/common/paixu6" stroke="none" stroke-width="1" fill="none" fill-rule="evenodd">
        <g id="icon/common/paixu" transform="translate(2.000000, 0.000000)">
            <path d="M2,0 L16,0 C17.1045695,-2.02906125e-16 18,0.8954305 18,2 L18,19.1926858 C18,20.2972553 17.1045695,21.1926858 16,21.1926858 C15.7776441,21.1926858 15.5568447,21.155606 15.3466865,21.0829719 L9.65331348,19.11525 C9.23005433,18.9689648 8.76994567,18.9689648 8.34668652,19.11525 L2.65331348,21.0829719 C1.6093373,21.443787 0.470528982,20.8899755 0.109713911,19.8459993 C0.0370798498,19.6358411 2.72307471e-17,19.4150417 0,19.1926858 L0,2 C-1.3527075e-16,0.8954305 0.8954305,2.02906125e-16 2,0 Z" id="矩形" fill="url(#linearGradient-1)"></path>
            <path d="M8.5225,15.15 C9.1025,15.15 9.6475,15 10.1575,14.7 C10.6575,14.4 11.055,13.995 11.35,13.485 C11.645,12.975 11.7925,12.425 11.7925,11.835 C11.7925,11.255 11.6425,10.71 11.3425,10.2 C10.7525,9.24 9.9175,8.76 8.8375,8.76 C8.6275,8.76 8.3825,8.785 8.1025,8.835 L8.1025,8.835 L10.0675,4.38 L8.2975,4.38 L5.4925,10.515 C5.3025,10.925 5.2075,11.365 5.2075,11.835 C5.2075,12.435 5.3575,12.99 5.6575,13.5 C5.9675,14.01 6.3725,14.4125 6.8725,14.7075 C7.3725,15.0025 7.9225,15.15 8.5225,15.15 Z M8.5075,13.545 C8.0375,13.545 7.6375,13.38 7.3075,13.05 C6.9775,12.72 6.8125,12.315 6.8125,11.835 C6.8125,11.365 6.98,10.96 7.315,10.62 C7.65,10.28 8.0475,10.11 8.5075,10.11 C8.9775,10.11 9.3825,10.28 9.7225,10.62 C10.0625,10.96 10.2325,11.365 10.2325,11.835 C10.2325,12.305 10.0625,12.7075 9.7225,13.0425 C9.3825,13.3775 8.9775,13.545 8.5075,13.545 Z" id="6" fill="#FFFFFF" fill-rule="nonzero"></path>
        </g>
    </g>
</svg>