<?xml version="1.0" encoding="UTF-8"?>
<svg width="22px" height="22px" viewBox="0 0 22 22" version="1.1" xmlns="http://www.w3.org/2000/svg" xmlns:xlink="http://www.w3.org/1999/xlink">
    <title>icon/common/paixu5</title>
    <defs>
        <linearGradient x1="16.5289256%" y1="0%" x2="83.4710744%" y2="100%" id="linearGradient-1">
            <stop stop-color="#DCD4D3" offset="0%"></stop>
            <stop stop-color="#C0B5B5" offset="100%"></stop>
        </linearGradient>
    </defs>
    <g id="icon/common/paixu5" stroke="none" stroke-width="1" fill="none" fill-rule="evenodd">
        <g id="icon/common/paixu" transform="translate(2.000000, 0.000000)">
            <path d="M2,0 L16,0 C17.1045695,-2.02906125e-16 18,0.8954305 18,2 L18,19.1926858 C18,20.2972553 17.1045695,21.1926858 16,21.1926858 C15.7776441,21.1926858 15.5568447,21.155606 15.3466865,21.0829719 L9.65331348,19.11525 C9.23005433,18.9689648 8.76994567,18.9689648 8.34668652,19.11525 L2.65331348,21.0829719 C1.6093373,21.443787 0.470528982,20.8899755 0.109713911,19.8459993 C0.0370798498,19.6358411 2.72307471e-17,19.4150417 0,19.1926858 L0,2 C-1.3527075e-16,0.8954305 0.8954305,2.02906125e-16 2,0 Z" id="矩形" fill="url(#linearGradient-1)"></path>
            <path d="M9.075,15.075 C10.175,15.045 10.9875,14.7375 11.5125,14.1525 C12.0375,13.5675 12.3,12.675 12.3,11.475 C12.3,10.755 12.245,10.1875 12.135,9.7725 C12.025,9.3575 11.78,8.975 11.4,8.625 C11.18,8.415 10.895,8.235 10.545,8.085 C10.155,7.945 9.745,7.875 9.315,7.875 C8.615,7.875 8,8.065 7.47,8.445 L7.47,8.445 L7.47,5.91 L12.075,5.91 L12.075,4.425 L5.91,4.425 L5.91,10.215 L7.47,10.215 C7.65,9.925 7.8575,9.71 8.0925,9.57 C8.3275,9.43 8.63,9.36 9,9.36 C9.56,9.36 9.9725,9.5075 10.2375,9.8025 C10.5025,10.0975 10.635,10.56 10.635,11.19 C10.635,11.75 10.5975,12.1975 10.5225,12.5325 C10.4475,12.8675 10.2925,13.1275 10.0575,13.3125 C9.8225,13.4975 9.47,13.59 9,13.59 C8.08,13.57 7.53,13.165 7.35,12.375 L7.35,12.375 L5.7,12.375 C5.85,13.325 6.26,14.015 6.93,14.445 C7.58,14.865 8.295,15.075 9.075,15.075 Z" id="5" fill="#FFFFFF" fill-rule="nonzero"></path>
        </g>
    </g>
</svg>