<?xml version="1.0" encoding="UTF-8"?>
<svg width="22px" height="22px" viewBox="0 0 22 22" version="1.1" xmlns="http://www.w3.org/2000/svg" xmlns:xlink="http://www.w3.org/1999/xlink">
    <!-- Generator: Sketch 60 (88103) - https://sketch.com -->
    <title>icon_my_shanglv_locatoion</title>
    <desc>Created with Sketch.</desc>
    <g id="icon_my_shanglv_locatoion" stroke="none" stroke-width="1">
        <g id="icon/clockin/blocatoion" transform="translate(3.000000, 2.000000)">
            <g id="location" transform="translate(0.513889, 0.000000)">
                <path d="M7.66719381,3.64912781 C9.24336217,3.73083704 10.5757209,4.87294647 10.8861321,6.4357397 C11.2079224,8.056305 10.3412925,9.67880678 8.81537311,10.312451 C7.28947201,10.9461164 5.52836795,10.4147131 4.60767291,9.04276811 C3.68692273,7.67091504 3.86234365,5.8398231 5.0269057,4.66760555 C5.63235461,4.05836012 6.4406229,3.69716569 7.29355007,3.64977997 L7.49110019,3.6444453 L7.66719381,3.64912781 Z M7.48879022,5.24444363 L7.32362697,5.25150968 C6.88612777,5.28969808 6.47393204,5.48135265 6.16189202,5.79534934 C5.53487598,6.4264872 5.44041922,7.41245301 5.93621025,8.15114682 C6.43194626,8.88985235 7.38017215,9.17597423 8.20175564,8.83479286 C9.02339904,8.4936021 9.49004033,7.61995773 9.31678083,6.74740704 C9.14345105,5.87476262 8.37832325,5.24571088 7.48879022,5.24444363 Z" id="路径"></path>
                <path d="M7.48616832,-0.8 C5.3706372,-0.8 3.34640098,0.0684748979 1.87747752,1.60545913 C-1.19251142,4.81703223 -1.19251142,9.90870851 1.87753425,13.120341 L7.48617487,18.9295621 L13.0919389,13.1232026 C16.1044735,9.97174751 16.1635519,5.01601462 13.2717646,1.7964892 L13.0947163,1.60542945 C11.6258013,0.0684701459 9.60160316,-0.8 7.48616832,-0.8 Z M7.48616256,16.6259943 L3.03135663,12.0118834 C0.555295985,9.42161556 0.555295985,5.30412518 3.03411204,2.71098912 C4.20172608,1.48927513 5.80828452,0.8 7.48616832,0.8 C9.07566014,0.8 10.6011931,1.41863226 11.7501084,2.52248449 L11.9381102,2.71098912 C14.4169262,5.30412518 14.4169262,9.42161556 11.9381102,12.0147516 L7.48616256,16.6259943 Z" id="Fill-3"></path>
            </g>
        </g>
    </g>
</svg>