<?xml version="1.0" encoding="UTF-8"?>
<svg width="22px" height="22px" viewBox="0 0 22 22" version="1.1" xmlns="http://www.w3.org/2000/svg" xmlns:xlink="http://www.w3.org/1999/xlink">
    <title>icon/common/zhanweitu</title>
    <defs>
        <rect id="path-1" x="0" y="0" width="22" height="22"></rect>
    </defs>
    <g id="icon/common/zhanweitu" stroke="none" stroke-width="1" fill="none" fill-rule="evenodd">
        <mask id="mask-2" fill="white">
            <use xlink:href="#path-1"></use>
        </mask>
        <use id="蒙版" fill="#E0E5EA" xlink:href="#path-1"></use>
        <g id="icon/logo/jushihui" mask="url(#mask-2)">
            <g transform="translate(4.000000, 8.000000)" id="巨拾惠">
                <g transform="translate(0.636364, 0.624546)">
                    <path d="M12.3794896,2.78851094 C12.4154468,2.86451409 12.4502413,2.9437463 12.4834158,3.02565041 C12.5990629,3.31117062 12.6779352,3.58697615 12.7175368,3.8226595 L12.1591193,3.82244595 C12.1367408,3.59619109 12.0838653,3.33475458 12.0003578,3.06229754 C11.9713591,2.96768432 11.940043,2.87623327 11.9069814,2.78878003 L12.3794896,2.78851094 Z M9.56743702,2.78752148 C9.55789807,2.93967374 9.53863119,3.10218969 9.50897681,3.26994712 C9.47393321,3.46819179 9.42776812,3.65460921 9.37440274,3.82162744 L8.76641497,3.82073582 C8.84084494,3.6336512 8.91043253,3.4308429 8.96884632,3.2133853 C9.00810799,3.06722547 9.03968081,2.92427936 9.06366206,2.78764417 L9.56743702,2.78752148 Z M10.4911593,2.7915251 L10.4913325,3.19284711 C10.4913325,3.2498371 10.4972664,3.27050305 10.5084089,3.29133774 C10.5195514,3.31217243 10.5359026,3.32852362 10.5567373,3.33966613 C10.5706271,3.34709448 10.5844419,3.35220786 10.6089943,3.3547914 L10.6552279,3.35674249 L11.7884156,3.35783089 C11.8141021,3.4677757 11.8343655,3.57419072 11.8492157,3.67527169 L11.8628395,3.79125907 L10.5187409,3.7915251 C10.2907809,3.7915251 10.2081171,3.76778973 10.1247783,3.72321967 C10.0414395,3.67864962 9.9760348,3.61324487 9.93146474,3.52990611 C9.88689468,3.44656734 9.86315932,3.36390354 9.86315932,3.13594356 L9.86315932,2.7915251 L10.4911593,2.7915251 Z M3.76903927,0.000968864574 L3.76903927,0.417469795 L0.695477485,0.417469795 L0.695,1.12496886 L3.76903927,1.12552138 L3.76903927,1.96934319 C3.76903927,2.19730317 3.74530391,2.27996697 3.70073385,2.36330573 C3.65616379,2.4466445 3.59075904,2.51204924 3.50742028,2.5566193 C3.42408152,2.60118936 3.34141772,2.62492473 3.11345774,2.62492473 L0.695,2.62396886 L0.695477485,3.00518554 C0.695477485,3.11916553 0.707345169,3.16049743 0.729630198,3.20216681 C0.751915227,3.24383619 0.784617601,3.27653857 0.826286982,3.2988236 C0.857539018,3.31553737 0.888601221,3.32639138 0.950264378,3.33077378 L1.02326825,3.33297631 L3.76903927,3.33297631 L3.76903927,3.74947724 L0.655581538,3.74947724 C0.427621555,3.74947724 0.344957757,3.72574187 0.261618994,3.68117182 C0.178280232,3.63660176 0.112875483,3.57119701 0.0683054253,3.48785825 C0.0237353673,3.40451948 4.3190574e-17,3.32185569 -7.43346529e-17,3.0938957 L0,0.000968864574 L3.76903927,0.000968864574 Z M5.26598462,0.000929050152 L5.26552596,0.708266053 L5.53914165,0.709020447 L5.53914165,1.12552138 L5.26552596,1.12526605 L5.26690168,1.92290018 C5.36270908,1.88796036 5.45404626,1.85087176 5.53986632,1.81235083 L5.54024002,2.24015412 C5.45454331,2.28738948 5.36292657,2.33355366 5.26647054,2.37775928 L5.26598462,3.09385589 C5.26598462,3.32181587 5.24224925,3.40447967 5.19767919,3.48781843 C5.15310914,3.57115719 5.08770439,3.63656194 5.00436562,3.681132 C4.92102686,3.72570206 4.83836306,3.74943743 4.61040308,3.74943743 L4.2865232,3.74943743 L4.2865232,3.3329365 L4.47212124,3.3329365 C4.52911124,3.3329365 4.54977719,3.32700265 4.57061188,3.31586014 C4.59144657,3.30471762 4.60779775,3.28836644 4.61894027,3.26753175 C4.63008278,3.24669706 4.63601663,3.22603111 4.63601663,3.16904111 L4.63573019,2.61184291 C4.51109592,2.64731242 4.39211365,2.67445639 4.2818894,2.69301985 L4.28153166,2.15721854 C4.39219213,2.14625697 4.51126179,2.12800283 4.63591544,2.10244033 L4.63552596,1.12526605 L4.28279522,1.12552138 L4.28279522,0.709020447 L4.63552596,0.708266053 L4.63601663,0.000929050152 L5.26598462,0.000929050152 Z M8.13486728,2.20842359 L8.13486728,3.0938955 C8.13486728,3.32185548 8.11113191,3.40451928 8.06656185,3.48785804 C8.02199179,3.5711968 7.95658704,3.63660155 7.87324828,3.68117161 C7.78990952,3.72574167 7.70724572,3.74947703 7.47928574,3.74947703 L5.80165249,3.74947703 L5.80165249,2.20842359 L8.13486728,2.20842359 Z M7.50669406,2.62492473 L6.4298257,2.62492473 L6.4298257,3.33297631 L7.37884483,3.33297631 C7.43533217,3.33297631 7.48326328,3.29634268 7.50017623,3.24553732 L7.50669406,3.20512707 L7.50669406,2.62492473 Z M10.8800384,2.83558236 L11.4347727,2.8362054 C11.4873577,2.9961746 11.526217,3.14847906 11.5508199,3.28698956 L10.9600841,3.28719411 C10.9455425,3.14805212 10.9188716,2.99565353 10.8800384,2.83558236 Z M11.0895007,0.00925906877 L11.0888395,0.175259069 L12.727238,0.175859441 L12.727238,0.550710279 L11.0888395,0.550259069 L11.0888395,0.717259069 L12.4804556,0.717310651 L12.4804556,1.53989999 L12.4766892,1.53992723 C12.4692835,1.65073341 12.451059,1.71262539 12.4229229,1.76797662 L12.4173537,1.77861946 L12.4115384,1.78916723 C12.4105488,1.79092106 12.409549,1.79267378 12.408539,1.7944268 C12.3616125,1.87587587 12.2927499,1.93979758 12.205005,1.98335702 L12.1689683,1.99994593 L12.1502609,2.0073848 C12.1486708,2.00798072 12.147072,2.00857063 12.1454637,2.0091545 L12.1356932,2.01258529 C12.1323943,2.0137047 12.1290514,2.01479988 12.1256583,2.01587072 L12.115323,2.01901013 L12.1046513,2.02200286 C12.1028427,2.02248939 12.1010185,2.02296977 12.0991781,2.02344401 L12.0879346,2.02621547 C12.0841178,2.0271146 12.0802299,2.02798901 12.076265,2.02883859 L12.0641333,2.03131271 L12.0383401,2.03581128 L12.0246067,2.03783442 C12.0222684,2.03815899 12.0199047,2.03847724 12.0175151,2.03878916 L11.9875447,2.04222733 L11.9715342,2.04371678 L11.9547922,2.04505226 L11.9461356,2.04566206 L11.9282291,2.04676534 L11.8899165,2.04850435 L11.8694385,2.04913876 L11.0888395,2.04925907 L11.0895007,2.20579009 L11.3913446,2.20544698 C11.6110645,2.20519723 11.8303056,2.18795579 12.0471141,2.15393624 C12.040578,2.12274331 12.0322067,2.09214106 12.0234395,2.06136315 L12.5285655,2.06118094 C12.6185304,2.30338096 12.6812856,2.53525117 12.7152657,2.73766244 L12.1569493,2.73787344 C12.1506059,2.67365382 12.1418206,2.60661024 12.1305902,2.53729178 C11.8458215,2.59536075 11.5570167,2.62492452 11.2671974,2.62492452 L8.77872064,2.62492452 L8.77872064,2.20842359 L10.4158395,2.20625907 L10.4158395,2.04925907 L9.02550298,2.05011363 L9.02550298,0.717310651 L10.4158395,0.717259069 L10.4158395,0.550259069 L8.77872064,0.550710279 L8.77872064,0.175859441 L10.4158395,0.175259069 L10.4164579,0.00925906877 L11.0895007,0.00925906877 Z M0.695,1.54196886 L0.695,2.20796886 L2.97697068,2.2084238 C3.03396067,2.2084238 3.05462662,2.20248996 3.07546131,2.19134744 C3.096296,2.18020493 3.11264719,2.16385374 3.12378971,2.14301905 C3.13121805,2.12912925 3.13633143,2.11531446 3.13891497,2.09076198 L3.14086606,2.04452841 L3.14086606,1.54202231 L0.695,1.54196886 Z M8.14608466,1.55243463 L8.14608466,1.94811051 L5.79043511,1.94811051 L5.79043511,1.55243463 L8.14608466,1.55243463 Z M10.4158395,1.53925907 L9.65367619,1.53989999 L9.65367619,1.73773793 L10.4158395,1.73725907 L10.4158395,1.53925907 Z M11.8522824,1.53989999 L11.0888395,1.53925907 L11.0888395,1.73725907 L11.7114419,1.73704769 C11.7391871,1.73567286 11.7559308,1.73226133 11.769972,1.72696616 L11.7807858,1.72233108 C11.7816652,1.72191182 11.7825423,1.72148437 11.7834198,1.72104878 C11.805356,1.71015892 11.8225716,1.69417849 11.8343033,1.67381622 L11.8371262,1.6686995 C11.8425409,1.65838997 11.8465639,1.6473749 11.8490992,1.63117282 L11.8502424,1.62261878 C11.8514304,1.61208637 11.8521068,1.59953478 11.8522525,1.58407446 L11.8522824,1.53989999 Z M7.23232704,5.60676505e-13 C7.31103191,0.188873755 7.48563159,0.44278899 7.72231887,0.695530437 C7.9224602,0.909247071 8.12967541,1.08227245 8.30409906,1.19024536 L8.40449934,1.24702791 L8.40529752,1.63163675 C8.1258621,1.58157845 7.70994311,1.35192187 7.31212789,1.00757045 C7.21983475,0.927680926 7.13410796,0.84645847 7.05595315,0.765634039 L6.96752596,0.670266053 L6.88056662,0.765634039 C6.8024118,0.84645847 6.71668501,0.927680926 6.62439188,1.00757045 C6.22657665,1.35192187 5.81065767,1.58157845 5.53122224,1.63163675 L5.53202042,1.24702791 C5.72367531,1.14985495 5.9740313,0.951990398 6.21420089,0.695530437 C6.45088817,0.44278899 6.62548785,0.188873755 6.70419272,1.89723237e-13 L7.23232704,5.60676505e-13 Z M10.4158395,1.02925907 L9.65367619,1.02968635 L9.65367619,1.22752429 L10.4158395,1.22725907 L10.4158395,1.02925907 Z M11.8522824,1.02968635 L11.0888395,1.02925907 L11.0888395,1.22725907 L11.8522824,1.22752429 L11.8522824,1.02968635 Z" id="形状结合" fill="#C1C9D1"></path>
                </g>
            </g>
        </g>
    </g>
</svg>