<?xml version="1.0" encoding="UTF-8"?>
<svg width="22px" height="22px" viewBox="0 0 22 22" version="1.1" xmlns="http://www.w3.org/2000/svg" xmlns:xlink="http://www.w3.org/1999/xlink">
    <title>icon/common/zhanweitu</title>
    <defs>
        <rect id="path-1" x="0" y="0" width="22" height="22"></rect>
    </defs>
    <g id="icon/common/zhanweitu" stroke="none" stroke-width="1" fill="none" fill-rule="evenodd">
        <g id="编组">
            <mask id="mask-2" fill="white">
                <use xlink:href="#path-1"></use>
            </mask>
            <use id="蒙版" fill="#EAEFF4" xlink:href="#path-1"></use>
            <path d="M7.44736257,9 L7.44736257,11.8636364 L8.7293144,11.8641146 L8.61277332,12.2727273 L6.8646572,12.2727273 L6.8646572,9 L7.44736257,9 Z M5.58270537,9 L5.58270537,10.2528409 L6.42762817,10.2528409 L6.42762817,10.6619318 L5.58270537,10.6619318 L5.58270537,11.8636364 L6.42762817,11.8636364 L6.42762817,12.2722491 L5,12.2727273 L5,9 L5.58270537,9 Z M9.51267516,9 C9.64334398,9 9.76801396,9.04812806 9.85631011,9.13265811 L12.2816453,11.4545455 L12.2816453,9 L12.8643507,9 L12.8643507,12.2727273 L12.2822917,12.2727273 L9.71774163,9.81818182 L9.71774163,12.2727273 L9.13503626,12.2727273 L9.13503626,9 L9.51267516,9 Z M13.9693346,9.63920455 L16.2991952,9.64148787 L16.3001561,10.0482955 L15.2109142,10.0482986 C15.1598801,10.1190204 15.1044366,10.1873434 15.0449465,10.2527983 L15.3678275,10.2528409 C15.5609191,10.2528409 15.7174507,10.3902081 15.7174507,10.5596591 L15.7174401,10.6619318 L15.7213249,10.6619509 C15.7684113,10.7650511 15.8207173,10.8626854 15.8776951,10.9540585 C16.0390896,10.9266105 16.1827671,10.8569425 16.2942996,10.7590651 C16.4419281,10.629511 16.5332382,10.4505337 16.5332382,10.2528409 L16.9994025,10.2528409 C16.9994025,10.7392315 16.6476698,11.1535286 16.1552415,11.3105324 C16.396487,11.5600174 16.685972,11.7191475 16.9994025,11.7540842 L16.9994025,12.2665603 C16.4843636,12.2179473 16.0280083,11.8852066 15.7174401,11.3848435 L15.7174507,12.2727273 L14.9599337,12.2727273 L14.8433927,11.8636364 L15.1347453,11.8636364 L15.1347453,10.6619318 L14.560574,10.662348 C14.1910848,10.9001839 13.747337,11.045455 13.2700881,11.045455 L13.2700881,10.6363636 C13.784999,10.6363636 14.2511633,10.4532074 14.5885999,10.1570838 C14.6281916,10.1223394 14.6660111,10.0860399 14.7019293,10.0482986 L13.9693346,10.0482955 L13.9693346,9.63920455 Z M15.0677997,11.4545595 C14.6402853,11.9387606 13.9936941,12.2727196 13.2700881,12.2727196 L13.2700881,11.8636287 C13.7429909,11.8636287 14.1747765,11.7091384 14.5034855,11.4545313 L15.0677997,11.4545595 Z M15.0677841,10.8409457 C14.6402697,11.3251468 13.9936785,11.6591058 13.2700725,11.6591058 L13.2700725,11.2500149 C13.7429842,11.2500117 14.1747642,11.095522 14.5034698,10.8409175 L15.0677841,10.8409457 Z M8.8995257,9.53693182 C8.8995257,10.152039 8.33699792,10.6518465 7.6387733,10.6617811 L7.61757388,10.6619318 L7.61757388,10.2528409 C7.84284738,10.2528409 8.04679427,10.1727101 8.19442277,10.043156 C8.34205127,9.91360193 8.4333614,9.73462465 8.4333614,9.53693182 L8.8995257,9.53693182 Z M15.426098,9 L15.426098,9.12784091 L16.5325046,9.1250684 C16.789959,9.12442325 16.9992629,9.30705575 17,9.53298949 L16.9994025,10.0482955 L16.4166972,10.0482955 L16.4166972,9.53693182 L13.8527935,9.53693182 L13.8527935,10.0482955 L13.2700881,10.0482955 L13.2700881,9.12784091 L14.8433927,9.12784091 L14.8433927,9 L15.426098,9 Z" id="形状结合" fill="#C1C9D1" mask="url(#mask-2)"></path>
        </g>
    </g>
</svg>