<?xml version="1.0" encoding="UTF-8"?>
<svg width="48px" height="48px" viewBox="0 0 48 48" version="1.1" xmlns="http://www.w3.org/2000/svg" xmlns:xlink="http://www.w3.org/1999/xlink">
    <title>icon/logo/jingdongqiyegou1</title>
    <g id="页面-1" stroke="none" stroke-width="1" fill="none" fill-rule="evenodd">
        <g id="常规详情页备份-2" transform="translate(-15.000000, -787.000000)">
            <g id="京东企业购" transform="translate(0.000000, 775.000000)">
                <g id="编组-14" transform="translate(15.000000, 12.000000)">
                    <circle id="蒙版" fill="#06C7C3" cx="24" cy="24" r="24"></circle>
                    <g id="编组-2" transform="translate(4.363636, 10.909091)" fill="#FFFFFF" fill-rule="nonzero">
                        <path d="M35.2052907,14.1818182 L34.8587352,14.7159344 L39.2727273,14.7159344 L39.2727273,21.7994914 C39.2727273,22.5922982 38.5313641,22.9602608 37.0486379,22.9033791 C36.7651161,22.5462046 36.7651161,22.3676174 37.0486379,22.3676174 C37.2967194,22.3676174 37.508157,22.2226269 37.6829508,21.9326459 L37.7556189,21.7994914 L37.7556189,15.2926439 L34.5080772,15.2926439 L33.7352623,16.4034696 L32.2683596,16.4034696 L33.7352623,14.1818182 L35.2052907,14.1818182 Z M6.70939626,16.725353 L6.70939626,18.8739708 L10.2700338,18.8739708 L10.2700338,19.5424703 L6.70939626,19.5424703 L6.70939626,22.3429979 L11.9136824,22.3429979 L11.9136824,22.9033791 L0,22.9033791 L0,22.0778204 L1.86055596,22.0778204 L1.86055596,17.9212761 L3.29682614,17.9212761 L3.29682614,22.0778204 L5.05241259,22.0778204 L5.05241259,16.725353 L6.70939626,16.725353 Z M18.5135013,14.1818182 L18.5135013,22.1094666 L20.4387437,22.1094666 L20.4387437,14.1818182 L21.9670261,14.1818182 L21.9670261,22.1094666 L25.6222686,22.1094666 L25.6222686,22.9033791 L13.2202882,22.9033791 L13.2202882,22.1094666 L16.9539078,22.1094666 L16.9539078,14.1818182 L18.5135013,14.1818182 Z M30.2921727,15.7574449 L30.2921727,19.7621828 L32.2683596,22.9033791 L31.0960486,22.9033791 L29.8286009,21.4307277 L28.4132713,22.9033791 L27.1272651,22.9033791 L28.9700262,20.0664898 L28.9700262,15.7574449 L30.2921727,15.7574449 Z M35.7705434,16.7131954 L33.8063217,19.4990911 L35.9353722,19.4990911 L35.3364495,18.1061433 L36.5607106,18.1061433 L37.3199154,20.5202871 L32.5261505,20.5202871 L32.5261505,19.4990911 L34.2166597,16.7131954 L35.7705434,16.7131954 Z M15.1554714,16.0515472 L16.556345,20.0664898 L15.5588746,20.0664898 L13.6178511,16.0515472 L15.1554714,16.0515472 Z M25.6109382,16.0515472 L23.6699147,20.0664898 L22.6724443,20.0664898 L24.0733178,16.0515472 L25.6109382,16.0515472 Z M31.9554047,14.1818182 L31.9554047,20.0664898 L30.859672,20.0664898 L30.859672,15.0325497 L28.3867034,15.0325497 L28.3867034,20.0664898 L27.1272651,20.0664898 L27.1272651,14.1818182 L31.9554047,14.1818182 Z M7.29788558,14.1818182 L11.9136824,16.9227081 L11.9136824,17.9212761 L6.38628253,15.2431777 L5.44999607,15.2431777 L0.249651285,17.4070624 L0.249651285,16.9227081 L4.70360354,14.1818182 L7.29788558,14.1818182 Z" id="形状结合"></path>
                        <g id="编组" transform="translate(6.545455, 0.000000)">
                            <path d="M11.7776785,2.42613872 L11.7776785,5.62629934 L6.94572875,5.62629934 L6.94572876,8.33905707 C6.94572876,9.18987882 6.71756928,9.82569448 6.26682294,10.2394766 C5.8510117,10.6200039 5.21619049,10.8381438 4.36113292,10.8969893 L4.12247407,10.9090909 L4.12247407,9.95737525 C4.49806948,9.95001318 4.78243294,9.86066434 4.96824042,9.69016536 C5.13212888,9.53935434 5.22468765,9.30062807 5.24323295,8.85341707 L5.24671281,8.67570473 L5.24671281,5.62629934 L0.414126174,5.61810067 L0.414126174,2.42613872 L11.7776785,2.42613872 Z M3.57587846,6.28654372 C3.57587846,6.28654372 3.06789653,8.82369497 1.1511039,10.7038905 L0.96724973,10.8781367 L-6.82024134e-11,10.8781367 C0.671551927,9.87155059 1.38536506,8.39511251 1.65931012,6.64100956 L1.70809137,6.28654372 L3.57587846,6.28654372 Z M10.4861016,6.28620907 C10.698807,8.07710729 11.3825428,9.60197665 12.0571477,10.6702845 L12.1918047,10.8778021 L11.2242365,10.8778021 C9.22252774,9.04243448 8.65688226,6.4490367 8.62443883,6.29354644 L8.62293182,6.28620907 L10.4861016,6.28620907 Z M10.1405984,3.42202683 L2.05375378,3.42202683 L2.05375378,4.6302439 L10.1405984,4.6302439 L10.1405984,3.42202683 Z M6.95289356,0.00602352144 L6.95289356,0.757791877 L12.1918047,0.757791877 L12.1918047,1.75368 L-8.08429687e-11,1.75368 L-8.08429687e-11,0.757791877 L5.24671281,0.757791877 L5.24671281,0.00602352144 L6.95289356,0.00602352144 Z" id="形状结合"></path>
                            <path d="M18.6047898,-3.19340514e-13 L18.2701134,0.757791877 L26.181659,0.757791877 L26.181659,1.7538473 L17.8341744,1.7538473 L16.5707791,4.6302439 L19.346746,4.6302439 L19.346746,2.4907242 L21.0494239,2.4907242 L21.0494239,4.63007659 L25.7648261,4.63007659 L25.7648261,5.62629934 L21.0494239,5.62629934 L21.0494239,8.33905706 C21.0494239,9.18971149 20.8206276,9.82552715 20.3679706,10.2393093 C19.9135623,10.65443 19.19931,10.8764635 18.2242586,10.9087563 L18.2242586,10.9087563 L18.2242586,9.95770989 C18.6000133,9.95001317 18.8823069,9.86049701 19.0692289,9.68999803 C19.2540811,9.52050295 19.346746,9.26467081 19.346746,8.6755374 L19.346746,8.6755374 L19.346746,5.62629934 L14.3958603,5.62629934 L16.1157338,1.75367998 L13.9783906,1.75367998 L13.9783906,0.757791877 L16.5580416,0.757791877 L16.8936733,-3.19340514e-13 L18.6047898,-3.19340514e-13 Z M17.5547467,6.28654372 C17.5547467,6.28654372 17.0153159,8.98474461 14.9472325,10.8781367 L14.9472325,10.8781367 L13.9807788,10.8781367 C14.6963048,9.80444485 15.4605515,8.19616586 15.688711,6.28654372 L15.688711,6.28654372 Z M24.4740452,6.28620907 C24.7012494,8.1965005 25.4658146,9.80411021 26.1818182,10.8778021 L26.1818182,10.8778021 L25.2137724,10.8778021 C23.1460074,8.98507925 22.6072135,6.28620907 22.6072135,6.28620907 L22.6072135,6.28620907 Z" id="形状结合"></path>
                        </g>
                    </g>
                </g>
            </g>
        </g>
    </g>
</svg>