<?xml version="1.0" encoding="UTF-8"?>
<svg width="22px" height="22px" viewBox="0 0 22 22" version="1.1" xmlns="http://www.w3.org/2000/svg" xmlns:xlink="http://www.w3.org/1999/xlink">
    <title>icon/logo/jingdongqiyegou1</title>
    <g id="icon/logo/jingdongqiyegou1" stroke="none" stroke-width="1" fill="none" fill-rule="evenodd">
        <g id="编组-14" transform="translate(-0.000000, 0.000000)">
            <circle id="蒙版" fill="#DA0B06" cx="11" cy="11" r="11"></circle>
            <g id="编组-2" transform="translate(2.000000, 5.000000)" fill="#FFFFFF" fill-rule="nonzero">
                <path d="M16.1357582,6.5 L15.9769203,6.74480328 L18,6.74480328 L18,9.99143354 C18,10.3548033 17.6602086,10.5234528 16.9806257,10.4973821 C16.8506782,10.3336771 16.8506782,10.2518246 16.9806257,10.2518246 C17.0889152,10.2518246 17.1819711,10.1915489 17.2597934,10.0709975 L17.3046587,9.99143354 L17.3046587,7.00912845 L15.8162021,7.00912845 L15.4619952,7.5182569 L14.7896648,7.5182569 L15.4619952,6.5 L16.1357582,6.5 Z M3.07513995,7.66578679 L3.07513995,8.65056997 L4.70709882,8.65056997 L4.70709882,8.95696557 L3.07513995,8.95696557 L3.07513995,10.2405407 L5.46043779,10.2405407 L5.46043779,10.4973821 L0,10.4973821 L0,10.119001 L0.852754813,10.119001 L0.852754813,8.21391822 L1.51104531,8.21391822 L1.51104531,10.119001 L2.3156891,10.119001 L2.3156891,7.66578679 L3.07513995,7.66578679 Z M8.48535478,6.5 L8.48535478,10.1335055 L9.36775752,10.1335055 L9.36775752,6.5 L10.0682203,6.5 L10.0682203,10.1335055 L11.7435398,10.1335055 L11.7435398,10.4973821 L6.05929876,10.4973821 L6.05929876,10.1335055 L7.77054109,10.1335055 L7.77054109,6.5 L8.48535478,6.5 Z M13.8839125,7.22216223 L13.8839125,9.05766712 L14.7896648,10.4973821 L14.2523556,10.4973821 L13.6714421,9.82241686 L13.0227494,10.4973821 L12.4333298,10.4973821 L13.2779287,9.19714114 L13.2779287,7.22216223 L13.8839125,7.22216223 Z M16.3948324,7.66021456 L15.4945641,8.93708343 L16.4703789,8.93708343 L16.1958727,8.29864899 L16.7569924,8.29864899 L17.1049612,9.40513158 L14.907819,9.40513158 L14.907819,8.93708343 L15.6826357,7.66021456 L16.3948324,7.66021456 Z M6.94625774,7.35695911 L7.58832477,9.19714114 L7.13115084,9.19714114 L6.24151508,7.35695911 L6.94625774,7.35695911 Z M11.7383467,7.35695911 L10.8487109,9.19714114 L10.391537,9.19714114 L11.033604,7.35695911 L11.7383467,7.35695911 Z M14.6462272,6.5 L14.6462272,9.19714114 L14.1440163,9.19714114 L14.1440163,6.88991862 L13.0105724,6.88991862 L13.0105724,9.19714114 L12.4333298,9.19714114 L12.4333298,6.5 L14.6462272,6.5 Z M3.34486422,6.5 L5.46043779,7.75624122 L5.46043779,8.21391822 L2.92704616,6.98645644 L2.49791487,6.98645644 L0.114423505,7.97823694 L0.114423505,7.75624122 L2.15581829,6.5 L3.34486422,6.5 Z" id="形状结合"></path>
                <g id="编组" transform="translate(3.000000, 0.000000)">
                    <path d="M5.39810265,1.11198025 L5.39810265,2.57872053 L3.18345901,2.57872053 L3.18345902,3.82206782 C3.18345902,4.21202779 3.07888592,4.5034433 2.87229385,4.69309345 C2.69408903,4.85617659 2.42811769,4.95418422 2.07392029,4.98827541 L1.88946728,5 L1.88946728,4.56379699 C2.06161518,4.56042271 2.19194843,4.51947116 2.27711019,4.44132579 C2.34753102,4.37652418 2.38921795,4.27630749 2.40115746,4.09514205 L2.40474337,3.97636467 L2.40474337,2.57872053 L0.18980783,2.5749628 L0.18980783,1.11198025 L5.39810265,1.11198025 Z M1.6389443,2.88133254 C1.6389443,2.88133254 1.41436018,4.00303359 0.574038043,4.8595046 L0.443322793,4.98581266 L-3.1259384e-11,4.98581266 C0.295482848,4.54291477 0.60881683,3.9015514 0.744496591,3.13965521 L0.782875209,2.88133254 L1.6389443,2.88133254 Z M4.80612989,2.88117916 C4.89972026,3.66917437 5.1922739,4.344799 5.48908343,4.83079127 L5.58791048,4.98565929 L5.14444174,4.98565929 C4.24337492,4.15947075 3.97720666,2.99814915 3.95390054,2.88942054 L3.95217708,2.88117916 L4.80612989,2.88117916 Z M4.64777426,1.56842896 L0.941303815,1.56842896 L0.941303815,2.12219512 L4.64777426,2.12219512 L4.64777426,1.56842896 Z M3.18674288,0.00276078066 L3.18674288,0.347321277 L5.58791048,0.347321277 L5.58791048,0.803769998 L-3.70530273e-11,0.803769998 L-3.70530273e-11,0.347321277 L2.40474337,0.347321277 L2.40474337,0.00276078066 L3.18674288,0.00276078066 Z" id="形状结合"></path>
                    <path d="M8.52719533,-1.46364402e-13 L8.37380199,0.347321277 L11.999927,0.347321277 L11.999927,0.80384668 L8.17399659,0.80384668 L7.5949404,2.12219512 L8.86725857,2.12219512 L8.86725857,1.14158193 L9.64765264,1.14158193 L9.64765264,2.12211844 L11.8088786,2.12211844 L11.8088786,2.57872053 L9.64765264,2.57872053 L9.64765264,3.82206782 C9.64765264,4.2119511 9.54278764,4.50336661 9.33531987,4.69301676 C9.12704938,4.88328041 8.79968377,4.98504578 8.35278521,4.99984662 L8.35278521,4.99984662 L8.35278521,4.56395037 C8.52500608,4.5604227 8.65439065,4.51939446 8.74006324,4.4412491 C8.82478715,4.36356385 8.86725857,4.24630745 8.86725857,3.97628798 L8.86725857,3.97628798 L8.86725857,2.57872053 L6.59810265,2.57872053 L7.38637801,0.803769993 L6.40676234,0.803769993 L6.40676234,0.347321277 L7.58910241,0.347321277 L7.74293359,-1.46364402e-13 L8.52719533,-1.46364402e-13 Z M8.04592557,2.88133254 C8.04592557,2.88133254 7.79868645,4.11800795 6.85081489,4.98581266 L6.85081489,4.98581266 L6.40785697,4.98581266 C6.73580637,4.49370389 7.08608611,3.75657602 7.19065921,2.88133254 L7.19065921,2.88133254 Z M11.2172707,2.88117916 C11.321406,3.7567294 11.6718317,4.49355051 12,4.98565929 L12,4.98565929 L11.5563123,4.98565929 C10.6085867,4.11816132 10.3616395,2.88117916 10.3616395,2.88117916 L10.3616395,2.88117916 Z" id="形状结合"></path>
                </g>
            </g>
        </g>
    </g>
</svg>