<?xml version="1.0" encoding="UTF-8"?>
<svg width="22px" height="22px" viewBox="0 0 22 22" version="1.1" xmlns="http://www.w3.org/2000/svg" xmlns:xlink="http://www.w3.org/1999/xlink">
    <title>icon/common/zhanweitu</title>
    <defs>
        <rect id="path-1" x="0" y="0" width="22" height="22"></rect>
    </defs>
    <g id="icon/common/zhanweitu" stroke="none" stroke-width="1" fill="none" fill-rule="evenodd">
        <g id="编组">
            <mask id="mask-2" fill="white">
                <use xlink:href="#path-1"></use>
            </mask>
            <use id="蒙版" fill="#E0E5EA" xlink:href="#path-1"></use>
        </g>
        <g id="icon/logo/jushihui" transform="translate(4.000000, 8.000000)" fill="#C1C9D1">
            <g id="巨拾惠" transform="translate(0.636364, 0.623812)">
                <path d="M12.3794896,2.78924488 C12.4154468,2.86524804 12.4502413,2.94448024 12.4834158,3.02638436 C12.5990629,3.31190457 12.6779352,3.5877101 12.7175368,3.82339345 L12.1591193,3.8231799 C12.1367408,3.59692504 12.0838653,3.33548853 12.0003578,3.06303149 C11.9713591,2.96841826 11.940043,2.87696721 11.9069814,2.78951398 L12.3794896,2.78924488 Z M9.56743702,2.78825542 C9.55789807,2.94040769 9.53863119,3.10292363 9.50897681,3.27068107 C9.47393321,3.46892573 9.42776812,3.65534316 9.37440274,3.82236139 L8.76641497,3.82146977 C8.84084494,3.63438514 8.91043253,3.43157685 8.96884632,3.21411925 C9.00810799,3.06795942 9.03968081,2.92501331 9.06366206,2.78837812 L9.56743702,2.78825542 Z M10.4911593,2.79225905 L10.4913325,3.19358105 C10.4913325,3.25057105 10.4972664,3.271237 10.5084089,3.29207169 C10.5195514,3.31290638 10.5359026,3.32925757 10.5567373,3.34040008 C10.5706271,3.34782843 10.5844419,3.3529418 10.6089943,3.35552535 L10.6552279,3.35747644 L11.7884156,3.35856484 C11.8141021,3.46850965 11.8343655,3.57492467 11.8492157,3.67600564 L11.8628395,3.79199302 L10.5187409,3.79225905 C10.2907809,3.79225905 10.2081171,3.76852368 10.1247783,3.72395362 C10.0414395,3.67938356 9.9760348,3.61397882 9.93146474,3.53064005 C9.88689468,3.44730129 9.86315932,3.36463749 9.86315932,3.13667751 L9.86315932,2.79225905 L10.4911593,2.79225905 Z M3.76903927,0.00170281204 L3.76903927,0.418203743 L0.695477485,0.418203743 L0.695,1.12570281 L3.76903927,1.12625532 L3.76903927,1.97007714 C3.76903927,2.19803712 3.74530391,2.28070092 3.70073385,2.36403968 C3.65616379,2.44737844 3.59075904,2.51278319 3.50742028,2.55735325 C3.42408152,2.60192331 3.34141772,2.62565868 3.11345774,2.62565868 L0.695,2.62470281 L0.695477485,3.00591949 C0.695477485,3.11989948 0.707345169,3.16123138 0.729630198,3.20290076 C0.751915227,3.24457014 0.784617601,3.27727252 0.826286982,3.29955754 C0.857539018,3.31627132 0.888601221,3.32712533 0.950264378,3.33150773 L1.02326825,3.33371026 L3.76903927,3.33371026 L3.76903927,3.75021119 L0.655581538,3.75021119 C0.427621555,3.75021119 0.344957757,3.72647582 0.261618994,3.68190576 C0.178280232,3.6373357 0.112875483,3.57193096 0.0683054253,3.48859219 C0.0237353673,3.40525343 4.3190574e-17,3.32258963 -7.43346529e-17,3.09462965 L0,0.00170281204 L3.76903927,0.00170281204 Z M5.26598462,0.00166299762 L5.26552596,0.709 L5.53914165,0.709754394 L5.53914165,1.12625532 L5.26552596,1.126 L5.26690168,1.92363412 C5.36270908,1.88869431 5.45404626,1.85160571 5.53986632,1.81308478 L5.54024002,2.24088807 C5.45454331,2.28812342 5.36292657,2.33428761 5.26647054,2.37849323 L5.26598462,3.09458984 C5.26598462,3.32254982 5.24224925,3.40521362 5.19767919,3.48855238 C5.15310914,3.57189114 5.08770439,3.63729589 5.00436562,3.68186595 C4.92102686,3.72643601 4.83836306,3.75017137 4.61040308,3.75017137 L4.2865232,3.75017137 L4.2865232,3.33367044 L4.47212124,3.33367044 C4.52911124,3.33367044 4.54977719,3.3277366 4.57061188,3.31659409 C4.59144657,3.30545157 4.60779775,3.28910038 4.61894027,3.26826569 C4.63008278,3.247431 4.63601663,3.22676505 4.63601663,3.16977506 L4.63573019,2.61257686 C4.51109592,2.64804637 4.39211365,2.67519033 4.2818894,2.69375379 L4.28153166,2.15795248 C4.39219213,2.14699092 4.51126179,2.12873677 4.63591544,2.10317428 L4.63552596,1.126 L4.28279522,1.12625532 L4.28279522,0.709754394 L4.63552596,0.709 L4.63601663,0.00166299762 L5.26598462,0.00166299762 Z M8.13486728,2.20915754 L8.13486728,3.09462944 C8.13486728,3.32258943 8.11113191,3.40525323 8.06656185,3.48859199 C8.02199179,3.57193075 7.95658704,3.6373355 7.87324828,3.68190556 C7.78990952,3.72647561 7.70724572,3.75021098 7.47928574,3.75021098 L5.80165249,3.75021098 L5.80165249,2.20915754 L8.13486728,2.20915754 Z M7.50669406,2.62565868 L6.4298257,2.62565868 L6.4298257,3.33371026 L7.37884483,3.33371026 C7.43533217,3.33371026 7.48326328,3.29707662 7.50017623,3.24627127 L7.50669406,3.20586102 L7.50669406,2.62565868 Z M11.4347727,2.83693934 C11.4873577,2.99690855 11.526217,3.14921301 11.5508199,3.2877235 L10.9600841,3.28792806 C10.9455425,3.14878607 10.9188716,2.99638747 10.8800384,2.8363163 L11.4347727,2.83693934 Z M11.0895007,0.00999301623 L11.0888395,0.175993016 L12.727238,0.176593388 L12.727238,0.551444226 L11.0888395,0.550993016 L11.0888395,0.717993016 L12.4804556,0.718044598 L12.4804556,1.54063394 L12.4766892,1.54066118 C12.4692835,1.65146735 12.451059,1.71335934 12.4229229,1.76871057 L12.4173537,1.77935341 L12.4115384,1.78990118 C12.4105488,1.79165501 12.409549,1.79340773 12.408539,1.79516075 C12.3616125,1.87660982 12.2927499,1.94053152 12.205005,1.98409096 L12.1689683,2.00067988 L12.1502609,2.00811875 C12.1486708,2.00871467 12.147072,2.00930457 12.1454637,2.00988845 L12.1356932,2.01331924 C12.1323943,2.01443864 12.1290514,2.01553382 12.1256583,2.01660467 L12.115323,2.01974408 L12.1046513,2.02273681 C12.1028427,2.02322333 12.1010185,2.02370372 12.0991781,2.02417796 L12.0879346,2.02694942 C12.0841178,2.02784855 12.0802299,2.02872296 12.076265,2.02957254 L12.0641333,2.03204665 L12.0383401,2.03654523 L12.0246067,2.03856837 C12.0222684,2.03889294 12.0199047,2.03921119 12.0175151,2.03952311 L12.0028597,2.04131851 L11.9875447,2.04296128 L11.9715342,2.04445073 L11.9547922,2.04578621 C11.9519389,2.04599592 11.9490536,2.04619919 11.9461356,2.046396 L11.9282291,2.04749929 L11.8899165,2.0492383 L11.8694385,2.04987271 L11.8480315,2.05034951 L11.0888395,2.04999302 L11.0895007,2.20652404 L11.3913446,2.20618093 C11.6110645,2.20593117 11.8303056,2.18868974 12.0471141,2.15467019 C12.040578,2.12347726 12.0322067,2.09287501 12.0234395,2.0620971 L12.5285655,2.06191489 C12.6185304,2.30411491 12.6812856,2.53598512 12.7152657,2.73839639 L12.1569493,2.73860739 C12.1506059,2.67438777 12.1418206,2.60734418 12.1305902,2.53802573 C11.8458215,2.5960947 11.5570167,2.62565847 11.2671974,2.62565847 L8.77872064,2.62565847 L8.77872064,2.20915754 L10.4158395,2.20699302 L10.4158395,2.04999302 L9.02550298,2.05084758 L9.02550298,0.718044598 L10.4158395,0.717993016 L10.4158395,0.550993016 L8.77872064,0.551444226 L8.77872064,0.176593388 L10.4158395,0.175993016 L10.4164579,0.00999301623 L11.0895007,0.00999301623 Z M3.14086606,1.54275626 L0.695,1.54270281 L0.695,2.20870281 L2.97697068,2.20915774 C3.03396067,2.20915774 3.05462662,2.2032239 3.07546131,2.19208139 C3.096296,2.18093887 3.11264719,2.16458769 3.12378971,2.143753 C3.13121805,2.1298632 3.13633143,2.1160484 3.13891497,2.09149592 L3.14086606,2.04526236 L3.14086606,1.54275626 Z M10.4158395,1.53999302 L9.65367619,1.54063394 L9.65367619,1.73847188 L10.4158395,1.73799302 L10.4158395,1.53999302 Z M11.0888395,1.53999302 L11.0888395,1.73799302 L11.6997373,1.73822257 L11.7114419,1.73778163 C11.7391871,1.73640681 11.7559308,1.73299527 11.769972,1.7277001 L11.7807858,1.72306503 C11.7816652,1.72264577 11.7825423,1.72221832 11.7834198,1.72178273 C11.805356,1.71089287 11.8225716,1.69491244 11.8343033,1.67455017 L11.8371262,1.66943345 C11.8425409,1.65912392 11.8465639,1.64810884 11.8490992,1.63190677 L11.8502424,1.62335273 C11.8514304,1.61282032 11.8521068,1.60026873 11.8522525,1.5848084 L11.8522824,1.54063394 L11.0888395,1.53999302 Z M7.23232704,0.000733947469 C7.31103191,0.189607702 7.48563159,0.443522937 7.72231887,0.696264385 C7.9224602,0.909981018 8.12967541,1.0830064 8.30409906,1.1909793 L8.40449934,1.24776186 L8.40529752,1.63237069 C8.1258621,1.5823124 7.70994311,1.35265581 7.31212789,1.0083044 C7.21983475,0.928414873 7.13410796,0.847192417 7.05595315,0.766367986 L6.96752596,0.671 L6.88056662,0.766367986 C6.8024118,0.847192417 6.71668501,0.928414873 6.62439188,1.0083044 C6.22657665,1.35265581 5.81065767,1.5823124 5.53122224,1.63237069 L5.53202042,1.24776186 C5.72367531,1.1505889 5.9740313,0.952724345 6.21420089,0.696264385 C6.45088817,0.443522937 6.62548785,0.189607702 6.70419272,0.000733947469 L6.96815894,0.001 L7.23232704,0.000733947469 Z M10.4158395,1.02999302 L9.65367619,1.0304203 L9.65367619,1.22825824 L10.4158395,1.22799302 L10.4158395,1.02999302 Z M11.0888395,1.02999302 L11.0888395,1.22799302 L11.8522824,1.22825824 L11.8522824,1.0304203 L11.0888395,1.02999302 Z" id="形状结合"></path>
                <rect id="Rectangle" x="5.79043511" y="1.55316857" width="2.35564955" height="1"></rect>
            </g>
        </g>
    </g>
</svg>