<?xml version="1.0" encoding="UTF-8"?>
<svg width="22px" height="22px" viewBox="0 0 22 22" version="1.1" xmlns="http://www.w3.org/2000/svg" xmlns:xlink="http://www.w3.org/1999/xlink">
    <!-- Generator: Sketch 60 (88103) - https://sketch.com -->
    <title>h5 svg/icon/invoice/check@2x</title>
    <desc>Created with Sketch.</desc>
    <g id="h5-svg/icon/invoice/check" stroke="none" stroke-width="1">
        <path d="M15.6238095,0.5 L20.7666667,5.83333333 L20.7666667,18.5666667 C20.7666667,20.1867019 19.4533686,21.5 17.8333333,21.5 L4.7,21.5 C3.07996473,21.5 1.76666667,20.1867019 1.76666667,18.5666667 L1.76666667,3.43333333 C1.76666667,1.81329807 3.07996473,0.5 4.7,0.5 L15.6238095,0.5 Z M14.6196667,2.259 L4.7,2.26 C4.09518683,2.26 3.59725454,2.71761142 3.53355163,3.30548574 L3.52666667,3.43333333 L3.52666667,18.5666667 C3.52666667,19.1714798 3.98427808,19.6694121 4.57215241,19.733115 L4.7,19.74 L17.8333333,19.74 C18.4381465,19.74 18.9360788,19.2823886 18.9997817,18.6945143 L19.0066667,18.5666667 L19.0056667,7.279 L16.9666667,7.28 C15.7246396,7.28 14.7079792,6.31509073 14.6254138,5.09400054 L14.62,4.93333333 L14.6196667,2.259 Z M15.6666667,13.0533333 C16.1526772,13.0533333 16.5466667,13.4473228 16.5466667,13.9333333 C16.5466667,14.3819585 16.2109597,14.7521751 15.777052,14.8064769 L15.6666667,14.8133333 L6.86666667,14.8133333 C6.38065609,14.8133333 5.98666667,14.4193439 5.98666667,13.9333333 C5.98666667,13.4847082 6.32237363,13.1144916 6.75628134,13.0601898 L6.86666667,13.0533333 L15.6666667,13.0533333 Z M15.6666667,8.18666667 C16.1526772,8.18666667 16.5466667,8.58065609 16.5466667,9.06666667 C16.5466667,9.51529182 16.2109597,9.88550841 15.777052,9.93981022 L15.6666667,9.94666667 L6.86666667,9.94666667 C6.38065609,9.94666667 5.98666667,9.55267725 5.98666667,9.06666667 C5.98666667,8.61804152 6.32237363,8.24782493 6.75628134,8.19352312 L6.86666667,8.18666667 L15.6666667,8.18666667 Z M16.3796667,3.819 L16.38,4.93333333 C16.38,5.22493968 16.5927543,5.4668546 16.8715063,5.51232152 L16.9666667,5.52 L18.0196667,5.52 L16.3796667,3.819 Z" id="形状" ></path>
    </g>
</svg>