<svg xmlns="http://www.w3.org/2000/svg" xmlns:xlink="http://www.w3.org/1999/xlink" viewBox="0 0 44 44" id="location">
    <g stroke="none" stroke-width="1" >
        <g transform="translate(5.000000, 3.000000)">
            <g transform="translate(1.092014, 0.000000)">
                <path d="M16.2927868,7.75439661 C19.6421446,7.9280287 22.4734069,10.3550112 23.1330308,13.6759469 C23.8168351,17.1196481 21.9752466,20.5674644 18.7326679,21.9139584 C15.490128,23.2604974 11.7477819,22.1312653 9.79130493,19.2158822 C7.83471081,16.3006945 8.20748025,12.4096241 10.6821746,9.9186618 C11.9687535,8.62401526 13.6863237,7.85647709 15.4987939,7.75578243 L15.9185879,7.74444626 L16.2927868,7.75439661 Z M15.9136792,11.1444427 L15.5627073,11.1594581 C14.6330215,11.2406084 13.7571056,11.6478744 13.0940205,12.3151173 C11.7616115,13.6562853 11.5608908,15.7514626 12.6144468,17.321187 C13.6678858,18.8909362 15.6828658,19.4989452 17.4287307,18.7739348 C19.174723,18.0489045 20.1663357,16.1924102 19.7981593,14.33824 C19.4298335,12.4838706 17.8039369,11.1471356 15.9136792,11.1444427 Z"></path>
                <path d="M15.9081077,-1.7 C11.4126041,-1.7 7.11110209,0.145509158 3.98963973,3.41160064 C-2.53408676,10.2361935 -2.53408676,21.0560056 3.98976029,27.8807246 L15.9081216,40.2253195 L27.8203701,27.8868055 C34.2220062,21.1899635 34.3475478,10.6590311 28.2024998,3.81753955 L27.8262722,3.41153757 C24.7048278,0.14549906 20.4034067,-1.7 15.9081077,-1.7 Z M15.9080954,35.3302378 L6.44163285,25.5252523 C1.18000397,20.0209331 1.18000397,11.271266 6.44748809,5.76085188 C8.92866793,3.16470964 12.3426046,1.7 15.9081077,1.7 C19.2857778,1.7 22.5275354,3.01459355 24.9689803,5.36027954 L25.3684841,5.76085188 C30.6359683,11.271266 30.6359683,20.0209331 25.3684841,25.5313472 L15.9080954,35.3302378 Z"></path>
            </g>
        </g>
    </g>
</svg>