<?xml version="1.0" encoding="UTF-8"?>
<svg width="22px" height="22px" viewBox="0 0 22 22" version="1.1" xmlns="http://www.w3.org/2000/svg" xmlns:xlink="http://www.w3.org/1999/xlink">
   
    <defs>
        <filter x="-40.6%" y="-38.2%" width="181.2%" height="176.5%" filterUnits="objectBoundingBox" id="filter-1">
            <feOffset dx="0" dy="1" in="SourceAlpha" result="shadowOffsetOuter1"></feOffset>
            <feGaussianBlur stdDeviation="1" in="shadowOffsetOuter1" result="shadowBlurOuter1"></feGaussianBlur>
            <feColorMatrix values="0 0 0 0 0.986045063   0 0 0 0 0.621525894   0 0 0 0 0.617668548  0 0 0 1 0" type="matrix" in="shadowBlurOuter1" result="shadowMatrixOuter1"></feColorMatrix>
            <feMerge>
                <feMergeNode in="shadowMatrixOuter1"></feMergeNode>
                <feMergeNode in="SourceGraphic"></feMergeNode>
            </feMerge>
        </filter>
        <linearGradient x1="17.3952161%" y1="0%" x2="84.5294952%" y2="100%" id="linearGradient-2">
            <stop stop-color="#FF7A77" offset="0%"></stop>
            <stop stop-color="#E82B29" offset="100%"></stop>
        </linearGradient>
        <linearGradient x1="14.0532257%" y1="45.5%" x2="88.0687684%" y2="54.5%" id="linearGradient-3">
            <stop stop-color="#FF7A77" offset="0%"></stop>
            <stop stop-color="#E82B29" offset="100%"></stop>
        </linearGradient>
    </defs>
    <g id="h5-svg/icon/mall/dingdan" stroke="none" stroke-width="1" fill="none" fill-rule="evenodd">
        <g id="我的订单" filter="url(#filter-1)" transform="translate(3.666667, 2.200000)">
            <path d="M13.596543,1.18976 L11.9673355,1.18976 L11.9673355,1.35490745 C11.9673355,2.30879551 11.2044827,3.08207457 10.263456,3.08207457 L5.51160088,3.08207457 C4.57057422,3.08207457 3.80772139,2.30879551 3.80772139,1.35490745 L3.80772139,1.18976 L2.1785139,1.18976 C1.23871695,1.23800389 0.513814986,2.04660178 0.556094786,2.99950084 L0.556094786,14.7800192 C0.552858263,15.2515438 0.72215888,15.707548 1.0312803,16.0599119 C1.3221888,16.3935517 1.73925407,16.5861727 2.1785139,16.58976 L13.596543,16.58976 C14.53634,16.5415161 15.2612419,15.7329182 15.2189621,14.7800192 L15.2189621,2.99950084 C15.2410909,2.54129234 15.0824756,2.09298462 14.7781063,1.75347335 C14.473737,1.41396209 14.0486228,1.21114389 13.596543,1.18976 Z" id="形状" fill="url(#linearGradient-2)"></path>
            <path d="M10.3490214,0.13376 C11.1443938,0.13376 11.54208,0.500426667 11.54208,1.23376 C11.54208,1.96709333 11.1443938,2.33376 10.3490214,2.33376 L5.40180523,2.33376 C4.60643286,2.33376 4.20874667,1.96709333 4.20874667,1.23376 C4.20874667,0.500426667 4.60643286,0.13376 5.40180523,0.13376 L10.3490214,0.13376 Z" id="路径" fill="url(#linearGradient-3)"></path>
            <rect id="矩形" fill="#FCBEBE" x="4.4" y="5.86666667" width="7.33333333" height="1.46666667" rx="0.733333333"></rect>
            <rect id="矩形备份" fill="#FCBEBE" x="4.4" y="10.2666667" width="7.33333333" height="1.46666667" rx="0.733333333"></rect>
        </g>
    </g>
</svg>