<?xml version="1.0" encoding="UTF-8"?>
<svg width="22px" height="22px" viewBox="0 0 22 22" version="1.1" xmlns="http://www.w3.org/2000/svg" xmlns:xlink="http://www.w3.org/1999/xlink">
    
    <defs>
        <filter x="-44.4%" y="-53.3%" width="188.9%" height="213.3%" filterUnits="objectBoundingBox" id="filter-1">
            <feOffset dx="0" dy="1" in="SourceAlpha" result="shadowOffsetOuter1"></feOffset>
            <feGaussianBlur stdDeviation="1.5" in="shadowOffsetOuter1" result="shadowBlurOuter1"></feGaussianBlur>
            <feColorMatrix values="0 0 0 0 1   0 0 0 0 0.794578662   0 0 0 0 0.420255335  0 0 0 1 0" type="matrix" in="shadowBlurOuter1" result="shadowMatrixOuter1"></feColorMatrix>
            <feMerge>
                <feMergeNode in="shadowMatrixOuter1"></feMergeNode>
                <feMergeNode in="SourceGraphic"></feMergeNode>
            </feMerge>
        </filter>
        <linearGradient x1="42.6582641%" y1="34.3846076%" x2="88.7463248%" y2="76.3907508%" id="linearGradient-2">
            <stop stop-color="#F9D287" offset="0%"></stop>
            <stop stop-color="#F49939" offset="100%"></stop>
        </linearGradient>
    </defs>
    <g id="h5-svg/icon/mall/daishouhuo" stroke="none" stroke-width="1" fill="none" fill-rule="evenodd">
        <g id="待收货-(1)" filter="url(#filter-1)" transform="translate(2.200000, 2.933333)">
            <path d="M8.09099526,0 C7.17345973,0 6.3393365,0.766386554 6.3393365,1.78823529 L6.3393365,2.90868349 L3.50331753,2.90868349 C3.3364929,2.90868349 3.16966824,2.99383755 3.0028436,3.16414567 L0,7.42184874 L0,12.2756303 C0,12.5310924 0.250236967,12.7865546 0.500473933,12.7865546 L1.5014218,12.7865546 L5.50521327,12.7865546 L10.9270142,12.7865546 L14.9308057,12.7865546 L16.9327014,12.7865546 C17.2663507,12.7865546 17.6,12.5310924 17.6,12.1053221 L17.6,1.78823529 C17.6,0.766386554 16.8492891,0 15.8483412,0 L8.09099526,0 Z" id="路径" fill="url(#linearGradient-2)" fill-rule="nonzero"></path>
            <rect id="矩形" fill="#FFEDCC" x="9.53333333" y="2.93333333" width="5.13333333" height="1" rx="0.5"></rect>
            <rect id="矩形备份-7" fill="#FFEDCC" x="9.53333333" y="5.86666667" width="5.13333333" height="1" rx="0.5"></rect>
            <circle id="椭圆形" stroke="#FFEDCC" stroke-width="0.586666667" fill="#F7BC69" cx="5.13333333" cy="13.2" r="1.76"></circle>
            <circle id="椭圆形备份" stroke="#FFEDCC" stroke-width="0.586666667" fill="#F6A74C" cx="13.2" cy="13.2" r="1.76"></circle>
            <path d="M3.600613,5.21590042 L2.58126177,6.49008945 C2.48005897,6.61659295 2.50056924,6.80118538 2.62707274,6.90238818 C2.67908457,6.94399765 2.74370898,6.96666667 2.81031662,6.96666667 L6.01333333,6.96666667 C6.13483598,6.96666667 6.23333333,6.86816931 6.23333333,6.74666667 L6.23333333,5.35333333 C6.23333333,5.23183069 6.13483598,5.13333333 6.01333333,5.13333333 L3.77240413,5.13333333 C3.70557171,5.13333333 3.64236288,5.16371307 3.600613,5.21590042 Z" id="路径-2" stroke="#FFEDCC" stroke-width="0.733333333"></path>
        </g>
    </g>
</svg>