<?xml version="1.0" encoding="UTF-8"?>
<svg width="22px" height="22px" viewBox="0 0 22 22" version="1.1" xmlns="http://www.w3.org/2000/svg" xmlns:xlink="http://www.w3.org/1999/xlink">
    <!-- Generator: Sketch 60 (88103) - https://sketch.com -->
    <title>h5 svg/icon/train/seat_b@2x</title>
    <desc>Created with Sketch.</desc>
    <defs>
        <linearGradient x1="91.0001677%" y1="13.875%" x2="50%" y2="86.125%" id="linearGradient-1">
            <stop stop-color="#F5F5F5" offset="0%"></stop>
            <stop stop-color="#E8E8E8" offset="100%"></stop>
        </linearGradient>
        <linearGradient x1="91.0001677%" y1="27.7777778%" x2="50%" y2="72.2222222%" id="linearGradient-2">
            <stop stop-color="#D3D3D3" offset="0%"></stop>
            <stop stop-color="#E8E8E8" offset="100%"></stop>
        </linearGradient>
    </defs>
    <g id="h5-svg/icon/train/seat_b" stroke="none" stroke-width="1" fill="none" fill-rule="evenodd">
        <g id="编组-5">
            <rect id="矩形" x="0" y="0" width="22" height="22"></rect>
            <g id="编组-4" transform="translate(0.846154, 0.846154)">
                <g id="编组-3">
                    <rect id="矩形" fill="url(#linearGradient-1)" x="1.69230769" y="0" width="16.9230769" height="14.3846154"></rect>
                    <path d="M20.3076923,19.4615385 C20.3076923,19.9288563 19.9288563,20.3076923 19.4615385,20.3076923 L0.846153846,20.3076923 C0.378835981,20.3076923 1.02740309e-15,19.9288563 0,19.4615385 L0,7.81065089 C0,7.23549044 0.454603177,6.76923077 1.01538462,6.76923077 L3.04615385,6.76923077 C3.60693528,6.76923077 4.06153846,7.23549044 4.06153846,7.81065089 L4.061,13.8632308 L16.246,13.8632308 L16.2461538,7.61538462 C16.2461538,7.14806675 16.6249898,6.76923077 17.0923077,6.76923077 L19.4615385,6.76923077 C19.9288563,6.76923077 20.3076923,7.14806675 20.3076923,7.61538462 L20.3076923,19.4615385 Z" id="形状结合" fill="url(#linearGradient-2)"></path>
                </g>
            </g>
            <path d="M11.6591538,11 C12.3386154,11 12.8784615,10.8603846 13.2693846,10.5997692 C13.7254615,10.2833077 13.9581538,9.79930769 13.9581538,9.14776923 C13.9581538,8.701 13.8278462,8.34730769 13.5858462,8.06807692 C13.3438462,7.78884615 13.0087692,7.60269231 12.5713077,7.52823077 C12.9063846,7.41653846 13.1763077,7.23969231 13.3810769,6.99769231 C13.5765385,6.72776923 13.6789231,6.402 13.6789231,6.02969231 C13.6789231,5.50846154 13.5020769,5.09892308 13.1483846,4.80107692 C12.7853846,4.50323077 12.2920769,4.35430769 11.6777692,4.35430769 L8.70861538,4.35430769 L8.70861538,11 L11.6591538,11 Z M11.4916154,7.25830769 L9.47184615,7.25830769 L9.47184615,4.99653846 L11.5009231,4.99653846 C11.9663077,4.99653846 12.32,5.08030769 12.562,5.26646154 C12.804,5.45261538 12.925,5.73184615 12.925,6.10415385 C12.925,6.48576923 12.7946923,6.77430769 12.5526923,6.96976923 C12.3106923,7.15592308 11.957,7.25830769 11.4916154,7.25830769 Z M11.594,10.3577692 L9.47184615,10.3577692 L9.47184615,7.89123077 L11.594,7.89123077 C12.1059231,7.89123077 12.4968462,7.98430769 12.7667692,8.18907692 C13.046,8.39384615 13.1949231,8.71030769 13.1949231,9.13846154 C13.1949231,9.56661538 13.0273846,9.89238462 12.7016154,10.0971538 C12.4223846,10.2646923 12.0593846,10.3577692 11.594,10.3577692 Z" id="B" fill="#B7B7B7" fill-rule="nonzero"></path>
        </g>
    </g>
</svg>