<?xml version="1.0" encoding="UTF-8"?>
<svg width="16px" height="16px" viewBox="0 0 16 16" version="1.1" xmlns="http://www.w3.org/2000/svg" xmlns:xlink="http://www.w3.org/1999/xlink">
   
    <g id="17商城（新）" stroke="none" stroke-width="1" fill="none" fill-rule="evenodd">
        <g id="01首页1" transform="translate(-98.000000, -668.000000)">
            <g id="路径-3备份-+-路径-3备份-2-+-路径-3蒙版" transform="translate(15.000000, 649.000000)">
                <g id="h5-svg/icon/suning/ppjx" transform="translate(83.000000, 19.000000)">
                    <g id="编组-21" transform="translate(0.000000, 2.000000)">
                        <g id="icon-test" fill="#F7A500" fill-rule="nonzero">
                            <path d="M16,3.98591577 C16,3.00781794 15.2132231,2.2124172 14.24573,2.2124172 C13.2782369,2.2124172 12.4914601,3.00781794 12.4914601,3.98591577 C12.4914601,4.60975949 12.8132231,5.16007878 13.2958678,5.47645666 C13.2011019,5.78615051 13.0402204,6.035688 12.8110193,6.2206131 C12.4121212,6.54367503 11.8104683,6.6728998 11.1140496,6.58377927 C10.1289256,6.45678251 9.1768595,4.77686049 8.81322314,3.39772026 C9.43250689,3.12367463 9.86446281,2.4976029 9.86446281,1.77349858 C9.86446281,0.795400744 9.07768595,0 8.11019284,0 C7.14269972,0 6.35592287,0.795400744 6.35592287,1.77349858 C6.35592287,2.44413058 6.7261708,3.02787006 7.27052342,3.33087987 C6.97300275,4.59193539 6.17961433,6.24512125 4.86831956,6.58155125 C4.30192837,6.72637212 3.76859504,6.65061967 3.36969697,6.36320595 C3.07217631,6.14931668 2.86501377,5.83739482 2.75482094,5.44526448 C3.21101928,5.12443056 3.50853994,4.59193539 3.50853994,3.98814379 C3.50853994,3.01004595 2.72176309,2.21464521 1.75426997,2.21464521 C0.78677686,2.21464521 0,3.00781794 0,3.98591577 C0,4.82587678 0.581818182,5.52992898 1.35757576,5.71262607 L3.41597796,12.6996757 C3.49972452,12.9826334 3.75757576,13.1764706 4.05068871,13.1764706 L12.0859504,13.1764706 C12.3790634,13.1764706 12.6369146,12.9826334 12.7206612,12.6996757 L14.7878788,5.67252183 C15.4909091,5.44080845 16,4.77240446 16,3.98591577 Z M1.75426997,3.54922517 C1.9922865,3.54922517 2.1862259,3.74529034 2.1862259,3.98591577 C2.1862259,4.17752492 2.06501377,4.34016989 1.8953168,4.39809823 L1.85785124,4.39809823 C1.80275482,4.39809823 1.74986226,4.40478227 1.6969697,4.41815035 C1.48539945,4.38918618 1.32231405,4.20648909 1.32231405,3.98591577 C1.32231405,3.74529034 1.51625344,3.54922517 1.75426997,3.54922517 Z M8.11019284,1.33235195 C8.34820937,1.33235195 8.54214876,1.52841712 8.54214876,1.76904255 C8.54214876,1.98070381 8.39008264,2.15894488 8.19173554,2.1968211 C8.14104683,2.18345302 8.08595041,2.17676898 8.03085399,2.17676898 C8.00881543,2.17676898 7.98898072,2.17676898 7.96694215,2.178997 C7.79944904,2.11884064 7.67823691,1.95842368 7.67823691,1.76681454 C7.67823691,1.52841712 7.87217631,1.33235195 8.11019284,1.33235195 L8.11019284,1.33235195 Z M14.24573,3.54922517 C14.4837466,3.54922517 14.677686,3.74529034 14.677686,3.98591577 C14.677686,4.18420896 14.5454545,4.35130995 14.3669421,4.40478227 C14.3360882,4.40032624 14.307438,4.39809823 14.276584,4.39809823 L14.1046832,4.39809823 C13.9349862,4.33794187 13.8137741,4.17752492 13.8137741,3.98591577 C13.8137741,3.74529034 14.0077135,3.54922517 14.24573,3.54922517 Z" id="形状"></path>
                        </g>
                        <path d="M3.29411765,9.41176471 L5.17647059,9.41176471 C5.43636929,9.41176471 5.64705882,9.62245424 5.64705882,9.88235294 C5.64705882,10.1422516 5.43636929,10.3529412 5.17647059,10.3529412 L3.29411765,10.3529412 C3.03421894,10.3529412 2.82352941,10.1422516 2.82352941,9.88235294 C2.82352941,9.62245424 3.03421894,9.41176471 3.29411765,9.41176471 Z" id="矩形" fill="#FFFFFF" transform="translate(4.235294, 9.882353) scale(-1, 1) rotate(-73.000000) translate(-4.235294, -9.882353) "></path>
                    </g>
                </g>
            </g>
        </g>
    </g>
</svg>