<?xml version="1.0" encoding="UTF-8"?>
<svg width="22px" height="22px" viewBox="0 0 22 22" version="1.1" xmlns="http://www.w3.org/2000/svg" xmlns:xlink="http://www.w3.org/1999/xlink">
    <!-- Generator: Sketch 60 (88103) - https://sketch.com -->
    <title>h5 svg/icon/common/add</title>
    <desc>Created with Sketch.</desc>
    <g id="h5-svg/icon/common/add" stroke="none" stroke-width="1" fill="none" fill-rule="evenodd">
        <g id="编组">
            <rect id="矩形" fill="#D8D8D8" opacity="0" x="0" y="0" width="22" height="22"></rect>
            <path d="M11.0000004,3.57627869e-07 C17.0751326,3.57627869e-07 22.0000004,4.92486811 22.0000004,11.0000004 C22.0000004,17.0751326 17.0751326,22.0000004 11.0000004,22.0000004 C4.92486811,22.0000004 3.57627869e-07,17.0751326 3.57627869e-07,11.0000004 C3.57627869e-07,4.92486811 4.92486811,3.57627869e-07 11.0000004,3.57627869e-07 Z M11.0000004,1.20000036 C5.58760981,1.20000036 1.20000036,5.58760981 1.20000036,11.0000004 C1.20000036,16.4123909 5.58760981,20.8000004 11.0000004,20.8000004 C16.4123909,20.8000004 20.8000004,16.4123909 20.8000004,11.0000004 C20.8000004,5.58760981 16.4123909,1.20000036 11.0000004,1.20000036 Z M11.0000004,5.40000036 C11.2982341,5.40000036 11.5456471,5.61758997 11.5921474,5.90267724 L11.6000004,6.00000036 L11.6000004,10.3990004 L16.0000004,10.4 C16.3313712,10.4 16.6000004,10.6686292 16.6000004,11 C16.6000004,11.2982338 16.3824107,11.5456468 16.0973235,11.592147 L16.0000004,11.6 L11.6000004,11.5990004 L11.6000004,16.0040818 C11.6000004,16.3354526 11.3313712,16.6040818 11.0000004,16.6040818 C10.7017666,16.6040818 10.4543536,16.3864922 10.4078533,16.1014049 L10.4000004,16.0040818 L10.4000004,11.5990004 L6.00000036,11.6 C5.66862951,11.6 5.40000036,11.3313708 5.40000036,11 C5.40000036,10.7017662 5.61758997,10.4543532 5.90267724,10.407853 L6.00000036,10.4 L10.4000004,10.3990004 L10.4000004,6.00000036 C10.4000004,5.66862951 10.6686295,5.40000036 11.0000004,5.40000036 Z" id="形状结合" fill="#666666"></path>
        </g>
    </g>
</svg>