<svg xmlns="http://www.w3.org/2000/svg" width="136" height="136" viewBox="0 0 136 136">
  <defs>
    <style>
      .cls-1 {
        fill: #999;
        fill-rule: evenodd;
      }
    </style>
  </defs>
  <path id="icon_express_sign" class="cls-1" d="M2883.74,1709.92a67.009,67.009,0,0,0-128.08,16.71l-0.36,3.03A67,67,0,1,0,2883.74,1709.92Zm-36.99,84.35a63.441,63.441,0,1,1,19.65-103.95,64.718,64.718,0,0,1,14.25,20.89A63.471,63.471,0,0,1,2846.75,1794.27Zm31.79-82.15a61.358,61.358,0,1,0-7.7,60.98A61.283,61.283,0,0,0,2878.54,1712.12Zm-79.28,79.28a60.082,60.082,0,0,1,22.75-115.71,59.361,59.361,0,0,1,22.69,4.42A60.1,60.1,0,0,1,2799.26,1791.4Zm10.97-10.25-3.52.44c0.04,0.04-2.72-1.96-2.72-1.96l-0.64,3.29-2.89,1.92,3.1,1.57,1.02,3.21,2.6-2.31,3.5,0.04-1.57-3.02Zm23.43-1.1-2.64,2.38-3.46-.1,1.34,3.12-1.27,3.23,3.43-.41,2.68,2.11,0.79-3.36,2.91-1.98-2.94-1.65Zm-1.28-88.67,3.35-.76,2.99,1.85,0.45-3.36,2.77-2.11-3.25-1.37-1.25-3.13-2.37,2.48-3.53.21,1.74,2.91Zm-43.55,17.95a42.883,42.883,0,0,0-9.18,22.78l1.12-.49a44.283,44.283,0,0,1,2.85-11.21,41.31,41.31,0,0,1,53.8-22.86,43.534,43.534,0,0,1,9.97,5.69l1.12-.48A42.42,42.42,0,0,0,2788.83,1709.33Zm-7.58,3.99-3.08-1.48-1.12-3.28-2.31,2.62-3.36.22,1.62,3.08-0.91,3.43,3.34-.75c-0.11,0,2.7,1.97,2.7,1.97l0.41-3.56Zm9.78-16.16,2.16,2.83,1.48-3.26,3.19-1.35-2.46-2.3-0.11-3.52-3.02,1.75-3.27-.9,0.61,3.42-1.93,2.98Zm22.5-6.62,2.65-2.38,3.46,0.1-1.34-3.11,1.31-3.31-3.47.49-2.7-2.11-0.77,3.36-2.93,1.98,2.94,1.65Zm41.39,81.52-2.18-2.68-1.43,3.21-3.16,1.3,2.46,2.29,0.11,3.53,2.96-1.8,3.27,0.9-0.6-3.42,1.92-2.98Zm17.73-19.42-3.31.69-2.78-1.88-0.37,3.51-2.66,2.19,3.02,1.45,1.17,3.33,2.31-2.61,3.34-.18-1.64-3.07Zm-17.6,9.66a42.883,42.883,0,0,0,9.18-22.78l-1.12.48a43.658,43.658,0,0,1-2.85,11.21,41.318,41.318,0,0,1-53.8,22.87,43.534,43.534,0,0,1-9.97-5.69l-1.12.48A42.431,42.431,0,0,0,2855.05,1762.3Zm-10.08-58.12a39.049,39.049,0,0,0-61.68,26.31l1.21-.5a37.935,37.935,0,0,1,37.31-32.18,38.362,38.362,0,0,1,21.94,6.87Zm-46.07,63.17a39.048,39.048,0,0,0,54.56-8.59,39.551,39.551,0,0,0,7.12-17.72l-1.22.5a37.8,37.8,0,0,1-37.3,32.17,38.444,38.444,0,0,1-21.95-6.87Zm2.79-36.46,3.87,9.07a4.692,4.692,0,0,1,.5,3.21c-0.26.75-1.15,1.44-2.67,2.09l-15.01,6.41,2.82,6.62a1.143,1.143,0,0,0,.51.69,2.591,2.591,0,0,0,1.35-.36l17.74-7.57,1.3,3.03-18.97,8.1a5.946,5.946,0,0,1-3.16.77,2.471,2.471,0,0,1-1.3-.88,6.017,6.017,0,0,1-.81-1.38l-5.8-13.68,3.63-1.55,1.37,3.21,13.86-5.92a1.64,1.64,0,0,0,1-.7,1.578,1.578,0,0,0-.18-0.9l-2.41-5.67-19.15,8.19-1.3-3.03Zm6.35,4.51-1.14-2.64,0.9-.39a1.314,1.314,0,0,0,.72-0.57,2.71,2.71,0,0,0,.07-1.31l-0.28-2.85,7.61-3.25,1.24,2.91-1.87.8,0.45,0.48a0.975,0.975,0,0,0,.4.29,1.165,1.165,0,0,0,.73-0.13l0.87-.38,1.07,2.5-2.62,1.12a1.6,1.6,0,0,1-2.06-.38l-2.02-2.44,0.09,2.71a2.416,2.416,0,0,1-.4,1.52,3.184,3.184,0,0,1-1.33.99Zm1.19,3.03,3.38-1.45a8.051,8.051,0,0,0,.75-0.36,1.062,1.062,0,0,0,.23-0.71l0.13-1.98,13.53-5.78,1.12,1.44a0.674,0.674,0,0,0,.5.31,2.618,2.618,0,0,0,.9-0.25l2.64-1.14,1.19,2.77-3.5,1.49a5,5,0,0,1-2.1.61,2.111,2.111,0,0,1-1.08-.57l-1.12-.94-8.56,3.65-0.27,1.72a1.89,1.89,0,0,1-.49.85,2.774,2.774,0,0,1-1.01.72l-5.12,2.19Zm24.72-6.32,1.09,2.54-23.19,9.9-1.09-2.54Zm-13.54,14.16-3.29,1.41a4,4,0,0,1-1.48.38,2.191,2.191,0,0,1-1.41-.94l-1.81-2,3.17-1.36,0.89,0.92a0.492,0.492,0,0,0,.45.24c0.11-.04.44-0.18,1.02-0.41l1.45-.62Zm-6.29,3.89,23.28-9.94,1.22,2.84-23.28,9.94Zm5.41-19.67-1.11-2.58,0.9-.39a1.221,1.221,0,0,0,.7-0.6,2.35,2.35,0,0,0,.09-1.28l-0.29-2.9,8.67-3.64,1.24,2.9-2.93,1.25,0.44,0.48a0.973,0.973,0,0,0,.39.28,1.219,1.219,0,0,0,.74-0.14l1.83-.78,1.08,2.52-3.58,1.52a1.665,1.665,0,0,1-1.33.13,2.135,2.135,0,0,1-.72-0.53l-2.02-2.42,0.21,2.78a2.48,2.48,0,0,1-.19,1.29,2.134,2.134,0,0,1-1.07.83Zm0.34,11.61,3.17-1.35,0.83,0.84a0.438,0.438,0,0,0,.51.15c0.19-.06.45-0.18,0.81-0.33l1.21-.51,1.03,2.43-3.01,1.29a2.691,2.691,0,0,1-.72.14,1.7,1.7,0,0,1-.93-0.13,4.451,4.451,0,0,1-1.11-.87Zm8.95-2.29,2.33-1a1.326,1.326,0,0,0,.56-0.37,0.984,0.984,0,0,0,.16-0.61l-0.01-.9,3.36-1.36,0.04,2.77c0,0.07-.01.29-0.03,0.65a1.684,1.684,0,0,1-.22.85,2.513,2.513,0,0,1-1.05.66l-4.11,1.73Zm3.98-21.97,3.4-1.45,7.48,17.49a1.373,1.373,0,0,0,.72.86,1.549,1.549,0,0,0,1.05-.31l1.34-.8-8.17-19.12,3.42-1.47,10.31,24.14-3.42,1.45-0.84-1.96-2.81,1.66a6.526,6.526,0,0,1-1.53.73,1.565,1.565,0,0,1-1.29-.11,2.469,2.469,0,0,1-.98-0.97,17.575,17.575,0,0,1-.79-1.65Zm11.63-1.74,0.48-.21a1.168,1.168,0,0,0,.71-0.68,1.926,1.926,0,0,0,.18-0.66l-0.03-3,3.4-1.45,0.12,1.71,6.53-2.79,1.33,3.13-7.77,3.31a6.991,6.991,0,0,1-.65,1.87,4.382,4.382,0,0,1-2.2,1.56l-0.76.33Zm19.74,12.29,1.23,2.93-2.5,1.07c-1.29.55-2.3,0.55-2.99,0.01l-2.03-1.56-0.08,1.68a3.626,3.626,0,0,1-.58,2.05,5.7,5.7,0,0,1-1.99,1.22l-2.02.84-1.29-3.01,0.86-.38a3.508,3.508,0,0,0,1.02-.56,1.494,1.494,0,0,0,.24-0.49,2.08,2.08,0,0,0,.08-0.47l-0.13-4.55-7.21-6.4,3.88-1.66,3.22,2.89-0.29-5.61,3.65-1.56,0.39,10.63,3.54,3.08,0.46,0.4a0.863,0.863,0,0,0,.38.2,1.5,1.5,0,0,0,.81-0.18Z" transform="translate(-2754 -1667.955)"/>
</svg>
