<?xml version="1.0" encoding="UTF-8"?>
<svg width="22px" height="22px" viewBox="0 0 22 22" version="1.1" xmlns="http://www.w3.org/2000/svg" xmlns:xlink="http://www.w3.org/1999/xlink">
    <!-- Generator: Sketch 60 (88103) - https://sketch.com -->
    <title>h5 svg/icon/zixun/yangshengqi_jinyin</title>
    <desc>Created with Sketch.</desc>
    <g id="h5-svg/icon/zixun/yangshengqi_jinyin" stroke="none" stroke-width="1" fill="none" fill-rule="evenodd">
        <path d="M3.66878554,0.920158595 L3.74663612,0.996164295 L20.8073694,20.0519571 C21.1020817,20.3811326 21.0741437,20.8868936 20.7449682,21.1816058 C20.443224,21.4517587 19.993099,21.4507957 19.6931701,21.1952103 L19.6153195,21.1192046 L2.55458622,2.0634117 C2.25987398,1.73423621 2.28781198,1.22847528 2.61698747,0.933763047 C2.91873167,0.663610166 3.36885669,0.664573098 3.66878554,0.920158595 Z M3.83692961,5.74376755 L5.26692961,7.34176755 L3.9304095,7.34231745 C3.15517624,7.34231745 2.67533374,7.96469455 2.62697147,9.09496507 L2.62292961,9.28802657 L2.62292961,12.8124893 C2.62292961,14.0021769 3.0565686,14.684007 3.80310948,14.752483 L3.9304095,14.7581984 L6.47847585,14.7581984 C6.62122793,14.7581984 6.7607018,14.7963792 6.88278701,14.8678837 L6.97087008,14.9276844 L12.065,18.905 L12.0988771,18.9237131 L12.103151,18.9236763 L12.1054816,18.92077 L12.0983535,18.8315614 L12.0963774,18.7695504 L12.0959296,14.9697676 L13.6959296,16.7567676 L13.6963774,18.7695504 C13.6963774,20.1091068 12.6269996,20.8263921 11.4195172,20.3565247 L11.2848315,20.2994031 L11.126278,20.2029024 L6.204,16.358 L3.9304095,16.3581984 C2.20347414,16.3581984 1.17193466,15.0552786 1.03786707,13.227085 L1.02667424,13.0218302 L1.02292961,12.8124893 L1.02292961,9.28802657 C1.02292961,7.31803393 2.0128757,5.84677149 3.74229623,5.74764756 L3.83692961,5.74376755 Z M18.4683127,3.63401166 C20.161546,5.75659602 21.0113445,8.23955724 21.0113445,11.0530074 C21.0113445,13.0671211 20.5758203,14.9109459 19.7070816,16.5734655 L18.553338,15.2851568 C19.1258567,13.9972762 19.4113445,12.589013 19.4113445,11.0530074 C19.4113445,8.59828401 18.6821956,6.46783945 17.2175342,4.63178581 C16.9420065,4.28639288 16.9986434,3.78303723 17.3440364,3.50750951 C17.6894293,3.23198178 18.1927849,3.28861872 18.4683127,3.63401166 Z M16.113065,6.04856242 C17.1955992,7.4829903 17.7385163,9.15977179 17.7385163,11.0520316 C17.7385163,12.052055 17.5868807,12.9915793 17.2840851,13.86662 L16.0109881,12.4462054 C16.0960399,12.0018842 16.1385163,11.5374361 16.1385163,11.0520316 C16.1385163,9.50209746 15.7054241,8.16450655 14.8359397,7.01238346 C14.5697879,6.65971505 14.6399235,6.15806213 14.9925919,5.8919103 C15.3452603,5.62575847 15.8469132,5.69589401 16.113065,6.04856242 Z M13.6859553,3.16483217 L13.6963774,3.31490001 L13.6959296,9.86076755 L12.0969296,8.07376755 L12.09697,3.34568641 C12.091866,3.2131542 12.1010844,3.17569239 12.0566161,3.19050783 L12.0295933,3.20207387 L12.017,3.208 L9.49992961,5.17376755 L8.42992961,3.97876755 L11.0969046,1.89760372 L11.2374516,1.80964445 C12.4139034,1.23351641 13.556204,1.88788939 13.6859553,3.16483217 Z" id="形状结合" fill="#FFFFFF"></path>
    </g>
</svg>