<?xml version="1.0" encoding="UTF-8"?>
<svg width="22px" height="22px" viewBox="0 0 22 22" version="1.1" xmlns="http://www.w3.org/2000/svg" xmlns:xlink="http://www.w3.org/1999/xlink">
    <!-- Generator: Sketch 60 (88103) - https://sketch.com -->
    <title>h5 svg/icon/zixun/yangshengqi</title>
    <desc>Created with Sketch.</desc>
    <g id="h5-svg/icon/zixun/yangshengqi" stroke="none" stroke-width="1" fill="none" fill-rule="evenodd">
        <path d="M11.2374516,1.80964445 C12.4591516,1.21135764 13.6440227,1.94004605 13.6963774,3.31490001 L13.6963774,3.31490001 L13.6963774,18.7695504 C13.6963774,20.15872 12.5463195,20.8786708 11.2848315,20.2994031 L11.2848315,20.2994031 L11.126278,20.2029024 L6.204,16.358 L3.9304095,16.3581984 C2.13951357,16.3581984 1.09647823,14.9569788 1.02667424,13.0218302 L1.02667424,13.0218302 L1.02292961,12.8124893 L1.02292961,9.28802657 C1.02292961,7.24767705 2.08484883,5.74231745 3.9304095,5.74231745 L3.9304095,5.74231745 L6.172,5.742 L11.0969046,1.89760372 Z M12.09697,3.34568641 C12.0910153,3.1910655 12.1045551,3.16584596 12.0295933,3.20207387 L12.0295933,3.20207387 L12.017,3.208 L6.94149823,7.17283085 C6.82898913,7.26069404 6.69556366,7.31644755 6.55533233,7.33523443 L6.55533233,7.33523443 L6.44910321,7.34231745 L3.9304095,7.34231745 C3.11210772,7.34231745 2.62292961,8.03576847 2.62292961,9.28802657 L2.62292961,9.28802657 L2.62292961,12.8124893 C2.62292961,14.0682706 3.1060891,14.7581984 3.9304095,14.7581984 L3.9304095,14.7581984 L6.47847585,14.7581984 C6.65691595,14.7581984 6.83023384,14.8178558 6.97087008,14.9276844 L6.97087008,14.9276844 L12.065,18.905 L12.0988771,18.9237131 C12.1024524,18.9245994 12.1044975,18.9237097 12.1054816,18.92077 L12.1054816,18.92077 L12.0983535,18.8315614 L12.0963774,18.7695504 Z M18.4683127,3.63401166 C20.161546,5.75659602 21.0113445,8.23955724 21.0113445,11.0530074 C21.0113445,13.8666535 20.1614143,16.3479789 18.4678506,18.466951 C18.1920033,18.8120887 17.6885954,18.8682597 17.3434577,18.5924124 C16.9983199,18.316565 16.942149,17.8131572 17.2179963,17.4680194 C18.6823273,15.6358613 19.4113445,13.5075349 19.4113445,11.0530074 C19.4113445,8.59828401 18.6821956,6.46783945 17.2175342,4.63178581 C16.9420065,4.28639288 16.9986434,3.78303723 17.3440364,3.50750951 C17.6894293,3.23198178 18.1927849,3.28861872 18.4683127,3.63401166 Z M16.113065,6.04856242 C17.1955992,7.4829903 17.7385163,9.15977179 17.7385163,11.0520316 C17.7385163,12.9444835 17.1954778,14.6202753 16.1126248,16.0524043 C15.8461511,16.4048296 15.3444343,16.4745071 14.992009,16.2080334 C14.6395838,15.9415597 14.5699063,15.4398429 14.83638,15.0874176 C15.7055455,13.9379013 16.1385163,12.6017735 16.1385163,11.0520316 C16.1385163,9.50209746 15.7054241,8.16450655 14.8359397,7.01238346 C14.5697879,6.65971505 14.6399235,6.15806213 14.9925919,5.8919103 C15.3452603,5.62575847 15.8469132,5.69589401 16.113065,6.04856242 Z" id="形状结合" fill="#FFFFFF"></path>
    </g>
</svg>