<?xml version="1.0" encoding="UTF-8"?>
<svg width="22px" height="22px" viewBox="0 0 22 22" version="1.1" xmlns="http://www.w3.org/2000/svg" xmlns:xlink="http://www.w3.org/1999/xlink">
    <!-- Generator: Sketch 60 (88103) - https://sketch.com -->
    <title>h5 svg/icon/zixun/zuixiaohua</title>
    <desc>Created with Sketch.</desc>
    <g id="h5-svg/icon/zixun/zuixiaohua" stroke="none" stroke-width="1" fill="none" fill-rule="evenodd">
        <g id="最小化" transform="translate(11.000000, 11.000000) rotate(-90.000000) translate(-11.000000, -11.000000) " fill="#000000" fill-rule="nonzero" opacity="0">
            <rect id="Rectangle" x="0" y="0" width="22" height="22"></rect>
        </g>
        <path d="M17.2093023,11.5 C17.6186047,11.5 17.9534884,11.8348837 17.9534884,12.244186 C17.9534884,12.6534884 17.6186047,12.9883721 17.2093023,12.9883721 L17.2093023,12.9883721 L14.5302326,12.9883721 L19.7767442,18.2348837 C20.0744186,18.5325581 20.0744186,18.9790698 19.7767442,19.2767442 C19.4790698,19.5744186 19.0325581,19.5744186 18.7348837,19.2767442 L18.7348837,19.2767442 L13.4883721,14.0302326 L13.4883721,16.7093023 C13.4883721,17.1186047 13.1534884,17.4534884 12.744186,17.4534884 C12.3348837,17.4534884 12,17.1186047 12,16.7093023 L12,16.7093023 L12,12.244186 C12,12.0581395 12.0744186,11.872093 12.2232558,11.7232558 C12.3348837,11.5744186 12.5209302,11.5 12.744186,11.5 L12.744186,11.5 Z M2.22325581,2.72325581 C2.52093023,2.4255814 2.96744186,2.4255814 3.26511628,2.72325581 L3.26511628,2.72325581 L8.51162791,7.96976744 L8.51162791,5.29069767 C8.51162791,4.88139535 8.84651163,4.54651163 9.25581395,4.54651163 C9.66511628,4.54651163 10,4.88139535 10,5.29069767 L10,5.29069767 L10,9.75581395 C10,9.94186047 9.9255814,10.127907 9.77674419,10.2767442 C9.66511628,10.4255814 9.47906977,10.5 9.25581395,10.5 L9.25581395,10.5 L4.79069767,10.5 C4.38139535,10.5 4.04651163,10.1651163 4.04651163,9.75581395 C4.04651163,9.34651163 4.38139535,9.01162791 4.79069767,9.01162791 L4.79069767,9.01162791 L7.46976744,9.01162791 L2.22325581,3.76511628 C1.9255814,3.46744186 1.9255814,3.02093023 2.22325581,2.72325581 Z" id="形状结合备份" fill="#FFFFFF" transform="translate(11.000000, 11.000000) rotate(-90.000000) translate(-11.000000, -11.000000) "></path>
    </g>
</svg>