<?xml version="1.0" encoding="UTF-8"?>
<svg width="22px" height="22px" viewBox="0 0 22 22" version="1.1" xmlns="http://www.w3.org/2000/svg" xmlns:xlink="http://www.w3.org/1999/xlink">
    <!-- Generator: Sketch 60 (88103) - https://sketch.com -->
    <title>h5 svg/icon/zixun/zuidahua</title>
    <desc>Created with Sketch.</desc>
    <g id="h5-svg/icon/zixun/zuidahua" stroke="none" stroke-width="1" fill="none" fill-rule="evenodd">
        <path d="M13.1804658,12.1494522 L13.2651163,12.2232558 L18.5116279,17.4697674 L18.5116279,14.7906977 C18.5116279,14.3813953 18.8465116,14.0465116 19.255814,14.0465116 C19.6310078,14.0465116 19.9436693,14.327907 19.993174,14.6900732 L20,14.7906977 L20,19.255814 C20,19.4418605 19.9255814,19.627907 19.7767442,19.7767442 C19.6837209,19.9007752 19.5390181,19.9731266 19.3641688,19.9937984 L19.255814,20 L14.7906977,20 C14.3813953,20 14.0465116,19.6651163 14.0465116,19.255814 C14.0465116,18.8806202 14.327907,18.5679587 14.6900732,18.5184539 L14.7906977,18.5116279 L17.4697674,18.5116279 L12.2232558,13.2651163 C11.9255814,12.9674419 11.9255814,12.5209302 12.2232558,12.2232558 C12.4938689,11.9526427 12.887488,11.9280415 13.1804658,12.1494522 Z M3,11.25 C3.37969577,11.25 3.69349096,11.5321539 3.74315338,11.8982294 L3.75,12 L3.75,16.8333333 C3.75,17.8389518 4.07320411,18.2124368 5.0130952,18.2472713 L5.16666667,18.25 L10,18.25 C10.4142136,18.25 10.75,18.5857864 10.75,19 C10.75,19.3796958 10.4678461,19.693491 10.1017706,19.7431534 L10,19.75 L5.16666667,19.75 C3.34708566,19.75 2.32464302,18.7925424 2.2539323,17.0322207 L2.25,16.8333333 L2.25,12 C2.25,11.5857864 2.58578644,11.25 3,11.25 Z M16.8333333,2.25 C18.6528088,2.25 19.6753494,3.20611068 19.7460673,4.96495451 L19.75,5.16367724 L19.75,10 C19.75,10.4142136 19.4142136,10.75 19,10.75 C18.6203042,10.75 18.306509,10.4678461 18.2568466,10.1017706 L18.25,10 L18.25,5.16367724 C18.25,4.16000599 17.9271555,3.78746641 16.9869587,3.75272163 L16.8333333,3.75 L12,3.75 C11.5857864,3.75 11.25,3.41421356 11.25,3 C11.25,2.62030423 11.5321539,2.30650904 11.8982294,2.25684662 L12,2.25 L16.8333333,2.25 Z M7.20930233,2 C7.61860465,2 7.95348837,2.33488372 7.95348837,2.74418605 C7.95348837,3.11937984 7.67209302,3.43204134 7.30992679,3.48154608 L7.20930233,3.48837209 L4.53023256,3.48837209 L9.77674419,8.73488372 C10.0744186,9.03255814 10.0744186,9.47906977 9.77674419,9.77674419 C9.50613108,10.0473573 9.11251201,10.0719585 8.81953418,9.85054776 L8.73488372,9.77674419 L3.48837209,4.53023256 L3.48837209,7.20930233 C3.48837209,7.61860465 3.15348837,7.95348837 2.74418605,7.95348837 C2.36899225,7.95348837 2.05633075,7.67209302 2.00682601,7.30992679 L2,7.20930233 L2,2.74418605 C2,2.55813953 2.0744186,2.37209302 2.22325581,2.22325581 C2.31627907,2.09922481 2.46098191,2.02687339 2.63583118,2.00620155 L2.74418605,2 L7.20930233,2 Z" id="形状结合" fill="#FFFFFF" transform="translate(11.000000, 11.000000) rotate(-90.000000) translate(-11.000000, -11.000000) "></path>
    </g>
</svg>