<?xml version="1.0" encoding="UTF-8"?>
<svg width="22px" height="22px" viewBox="0 0 22 22" version="1.1" xmlns="http://www.w3.org/2000/svg" xmlns:xlink="http://www.w3.org/1999/xlink">
    <!-- Generator: Sketch 60 (88103) - https://sketch.com -->
    <title>h5 svg/icon/zixun/chongbo</title>
    <desc>Created with Sketch.</desc>
    <g id="h5-svg/icon/zixun/chongbo" stroke="none" stroke-width="1" fill="none" fill-rule="evenodd">
        <circle id="椭圆形" fill="#000000" opacity="0.498697917" cx="11" cy="11" r="11"></circle>
        <path d="M11,4.6 C12.3677905,4.6 13.6717448,5.03056838 14.7555996,5.81724259 C14.9343849,5.94700695 14.9741241,6.19713583 14.8443598,6.37592106 C14.7145954,6.5547063 14.4644665,6.59444557 14.2856813,6.4646812 C13.3373286,5.77635603 12.1975537,5.4 11,5.4 C7.9072054,5.4 5.4,7.9072054 5.4,11 C5.4,14.0927946 7.9072054,16.6 11,16.6 C14.0927946,16.6 16.6,14.0927946 16.6,11 C16.6,10.3593639 16.492561,9.73395579 16.2847413,9.14262943 C16.2114938,8.93421218 16.3210705,8.70587775 16.5294877,8.63263021 C16.7379049,8.55938266 16.9662394,8.66895935 17.0394869,8.87737659 C17.2771575,9.55364024 17.4,10.2687127 17.4,11 C17.4,14.5346224 14.5346224,17.4 11,17.4 C7.4653776,17.4 4.6,14.5346224 4.6,11 C4.6,7.4653776 7.4653776,4.6 11,4.6 Z" id="路径" fill="#FFFFFF" fill-rule="nonzero" opacity="0.8"></path>
        <path d="M11.8834427,9.61350834 L13.567609,12.3081744 C13.699965,12.519944 13.6355875,12.7989128 13.423818,12.9312688 C13.3519533,12.9761843 13.2689126,13 13.1841663,13 L9.81583372,13 C9.56610496,13 9.3636598,12.7975548 9.3636598,12.5478261 C9.3636598,12.4630798 9.38747555,12.3800391 9.432391,12.3081744 L11.1165573,9.61350834 C11.2489133,9.40173878 11.5278821,9.33736135 11.7396517,9.46971732 C11.7978777,9.5061086 11.8470514,9.5552823 11.8834427,9.61350834 Z" id="三角形" fill="#FFFFFF" transform="translate(11.500000, 11.000000) rotate(-270.000000) translate(-11.500000, -11.000000) "></path>
        <path d="M15.0509813,4.48442934 C15.2442809,4.48442934 15.4055562,4.62154214 15.4428547,4.80381539 L15.4509813,4.88442934 L15.4509813,6.38442934 C15.4509813,6.84325052 15.1076446,7.22188112 14.6638753,7.27741706 L14.5509813,7.28442934 L13.0509813,7.28442934 C12.8300674,7.28442934 12.6509813,7.10534324 12.6509813,6.88442934 C12.6509813,6.69112968 12.7880941,6.52985443 12.9703673,6.49255592 L13.0509813,6.48442934 L14.5509813,6.48442934 C14.5924026,6.48442934 14.6279419,6.45924536 14.6431228,6.42335385 L14.6509813,6.38442934 L14.6509813,4.88442934 C14.6509813,4.66351544 14.8300674,4.48442934 15.0509813,4.48442934 Z" id="路径-22" fill="#FFFFFF" fill-rule="nonzero" opacity="0.8" transform="translate(14.050981, 5.884429) rotate(-367.000000) translate(-14.050981, -5.884429) "></path>
    </g>
</svg>