<?xml version="1.0" encoding="UTF-8"?>
<svg width="22px" height="22px" viewBox="0 0 22 22" version="1.1" xmlns="http://www.w3.org/2000/svg" xmlns:xlink="http://www.w3.org/1999/xlink">
    <!-- Generator: Sketch 60 (88103) - https://sketch.com -->
    <title>h5 svg/icon/zixun/zanting</title>
    <desc>Created with Sketch.</desc>
    <g id="h5-svg/icon/zixun/zanting" stroke="none" stroke-width="1" fill="none" fill-rule="evenodd">
        <circle id="椭圆形" fill="#000000" opacity="0.498697917" cx="11" cy="11" r="11"></circle>
        <path d="M8.25,7 C8.66421356,7 9,7.33578644 9,7.75 L9,14.25 C9,14.6642136 8.66421356,15 8.25,15 C7.83578644,15 7.5,14.6642136 7.5,14.25 L7.5,7.75 C7.5,7.33578644 7.83578644,7 8.25,7 Z M13.75,7 C14.1642136,7 14.5,7.33578644 14.5,7.75 L14.5,14.25 C14.5,14.6642136 14.1642136,15 13.75,15 C13.3357864,15 13,14.6642136 13,14.25 L13,7.75 C13,7.33578644 13.3357864,7 13.75,7 Z" id="形状结合" fill="#FFFFFF"></path>
    </g>
</svg>