<?xml version="1.0" encoding="UTF-8"?>
<svg width="75px" height="30px" viewBox="0 0 75 30" version="1.1" xmlns="http://www.w3.org/2000/svg" xmlns:xlink="http://www.w3.org/1999/xlink">
    <title>h5 svg_icon_zixun_yuelanshi</title>
    <g id="定稿" stroke="none" stroke-width="1" fill="none" fill-rule="evenodd">
        <g id="4资讯首页" transform="translate(-285.000000, -95.000000)">
            <g id="编组-13备份" transform="translate(285.000000, 95.000000)">
                <rect id="矩形" stroke="#C2C2C2" stroke-width="0.5" x="0.25" y="0.25" width="74.5" height="29.5" rx="14.75"></rect>
                <g id="编组-5备份-2" transform="translate(12.000000, 9.000000)">
                    <path d="M4.60220745,12.7310106 L4.60220745,6.31260638 L5.09593085,6.40077128 L5.09593085,4.61984043 L4.60220745,4.51404255 L4.60220745,0.0176329787 L2.16885638,0.0176329787 L2.16885638,4.05558511 L1.51643617,3.93215426 L1.51643617,0.775851064 L-1.13686838e-13,0.775851064 L-1.13686838e-13,11.9727926 L1.51643617,11.9727926 L1.51643617,5.73071809 L2.16885638,5.85414894 L2.16885638,12.7310106 L4.60220745,12.7310106 Z M8.19933511,12.7486436 L9.71577128,6.7093484 L11.3027394,6.7093484 L11.3027394,10.9677128 C11.3027394,11.2145745 11.3497606,11.446742 11.4438032,11.6642154 C11.5378457,11.8816888 11.6642154,12.0697739 11.8229122,12.2284707 C11.981609,12.3871676 12.1696941,12.5135372 12.3871676,12.6075798 C12.604641,12.7016223 12.8368085,12.7486436 13.0836702,12.7486436 L14.7235372,12.7486436 L15.4464894,11.1440426 L14.2474468,11.1440426 C14.106383,11.1440426 13.985891,11.0940824 13.8859707,10.9941622 C13.7860505,10.894242 13.7360904,10.77375 13.7360904,10.6326862 L13.7360904,6.69171543 C14.1475266,6.60942819 14.3528354,6.35725118 14.3528354,5.92230437 L14.3491671,3.39513061 L14.3708777,2.1512234 L15.0409309,0.176329787 L12.6428457,0.176329787 L11.9904255,2.1512234 L10.5233001,3.33386177 L9.50417553,2.1512234 L8.85175532,0.176329787 L6.45367021,0.176329787 L7.1237234,2.1512234 L7.27180812,2.88712805 L7.27914143,7.00962283 L5.57202128,12.7486436 L8.19933511,12.7486436 Z M12.2196543,6.34787234 L8.35803191,6.34787234 L8.35803191,3.63239362 L12.7310106,3.63239362 L12.7310106,5.83651596 C12.7310106,5.97757979 12.6810505,6.09807181 12.5811303,6.19799202 C12.4812101,6.29791223 12.3607181,6.34787234 12.2196543,6.34787234 L12.2196543,6.34787234 Z M23.5929255,4.40824468 L23.5929255,0.0176329787 L21.0537766,0.0176329787 L21.0537766,4.40824468 L23.5929255,4.40824468 Z M26.4318351,4.51404255 L27.1371543,2.02779255 L29.4294415,2.02779255 L30.4521543,4.46114362 L32.9736702,4.46114362 L31.9509574,2.02779255 L32.7091755,2.02779255 L32.7091755,0.440824468 L27.5956117,0.440824468 L27.7014096,0.0176329787 L25.1798936,0.0176329787 L23.9103191,4.51404255 L26.4318351,4.51404255 Z M20.1015957,4.30244681 L20.1015957,0.28212766 L17.7564096,0.28212766 L17.7564096,4.30244681 L20.1015957,4.30244681 Z M20.5071543,10.3152926 L20.5071543,6.47130319 L29.6939362,6.47130319 C29.8232447,6.47130319 29.9319814,6.51538564 30.0201463,6.60355053 C30.1083112,6.69171543 30.1523936,6.80045213 30.1523936,6.92976064 L30.1523936,6.92976064 L30.1523936,10.3152926 L32.4446809,10.3152926 L32.4446809,6.63 C32.4446809,6.40664894 32.4035372,6.19505319 32.32125,5.99521277 C32.2389628,5.79537234 32.1243484,5.62198138 31.9774069,5.47503989 C31.8304654,5.3280984 31.6570745,5.21348404 31.457234,5.13119681 C31.2573936,5.04890957 31.0457979,5.00776596 30.8224468,5.00776596 L30.8224468,5.00776596 L18.0032713,5.00776596 L18.0032713,10.3152926 L20.5071543,10.3152926 Z M21.2124734,12.7486436 L25.8146809,9.83920213 L25.8146809,7.10609043 L23.3813298,7.10609043 L23.3813298,9.18678191 L17.7211436,12.7486436 L21.2124734,12.7486436 Z M32.8326064,12.7133777 L32.2507181,11.4085372 L28.7241223,11.4085372 C28.5948138,11.4085372 28.4831383,11.361516 28.3890957,11.2674734 C28.2950532,11.1734309 28.2480319,11.0617553 28.2480319,10.9324468 L28.2480319,10.9324468 L28.2480319,9.73340426 L25.9733777,9.73340426 L25.9733777,11.0558777 C25.9733777,11.290984 26.0174601,11.5084574 26.105625,11.7082979 C26.1937899,11.9081383 26.3113431,12.0815293 26.4582846,12.2284707 C26.6052261,12.3754122 26.778617,12.4929654 26.9784574,12.5811303 C27.1782979,12.6692952 27.3957713,12.7133777 27.6308777,12.7133777 L27.6308777,12.7133777 L32.8326064,12.7133777 Z M50.6419149,12.7662766 L50.6419149,11.1264096 L44.2235106,11.1264096 L44.2235106,10.3329255 L49.3723404,10.3329255 L49.3723404,8.69305851 L44.2235106,8.69305851 L44.2235106,7.72324468 L47.0095213,7.72324468 L47.1329521,7.93484043 L49.707367,7.93484043 L48.085133,5.09593085 L45.5283511,5.09593085 L46.2865691,6.43603723 L39.4978723,6.43603723 L40.3618883,4.74327128 L49.1607447,4.74327128 L49.1607447,3.59712766 L50.7477128,3.59712766 L50.7477128,2.68021277 C50.7477128,2.42159574 50.6977527,2.17473404 50.5978324,1.93962766 C50.4979122,1.70452128 50.3597872,1.50174202 50.1834574,1.33128989 C50.0071277,1.16083777 49.8014096,1.0256516 49.5663032,0.925731383 C49.3311968,0.82581117 49.0843351,0.775851064 48.8257181,0.775851064 L48.8257181,0.775851064 L44.6819681,0.775851064 L44.3293085,0 L41.2964362,0 L41.6490957,0.775851064 L35.2483245,0.775851064 L35.2483245,3.59712766 L36.429734,3.59712766 L36.429734,4.74327128 L37.6111436,4.74327128 L36.1652394,7.72324468 L41.6314628,7.72324468 L41.6314628,8.69305851 L36.482633,8.69305851 L36.482633,10.3329255 L41.6314628,10.3329255 L41.6314628,11.1264096 L35.2130585,11.1264096 L35.2130585,12.7662766 L50.6419149,12.7662766 Z M48.3143617,3.12103723 L37.6816755,3.12103723 L37.6816755,2.09832447 L47.7677394,2.09832447 C47.9205585,2.09832447 48.049867,2.1512234 48.1556649,2.25702128 C48.2614628,2.36281915 48.3143617,2.49212766 48.3143617,2.64494681 L48.3143617,2.64494681 L48.3143617,3.12103723 Z" id="悦览室" fill="#E82B29"></path>
                    <g id="编组-14" transform="translate(5.277600, 1.788868)">
                        <path d="M5.25745081,7.96353385 C5.25745081,7.96353385 3.75861463,6.90331512 2.32647486,6.92687733 C0.976247966,6.9492208 0.459395543,7.25390448 0.109485116,7.56590057 C0.121950115,7.19824892 0.103252612,1.25122968 0.103252612,1.25122968 C0.103252612,1.25122968 0.621885758,0.419646348 2.37188309,0.352615938 C3.85922501,0.241304835 5.1779127,1.15132673 5.25715451,1.32966825 C5.25714248,1.32967154 5.25724125,3.54096008 5.25745081,7.96353385 Z" id="路径" fill="#E82B29"></path>
                        <path d="M10.3791149,7.95973398 C10.3791149,7.95973398 8.88973961,6.90004393 7.46663973,6.92359438 C6.12493568,6.94592671 5.61134571,7.25045846 5.26364398,7.56229897 C5.27603029,7.19483066 5.25745081,1.2507769 5.25745081,1.2507769 C5.25745081,1.2507769 5.77281026,0.419608234 7.51176133,0.352611249 C8.98971492,0.241355651 10.3000789,1.15092376 10.3788205,1.32917636 C10.3788085,1.32917965 10.3789067,3.53936552 10.3791149,7.95973398 Z" id="路径备份" fill="#E82B29" transform="translate(7.818283, 4.151473) scale(-1, 1) translate(-7.818283, -4.151473) "></path>
                        <path d="M5.28236441,6.04276894 C5.2646189,6.05419857 4.58340573,5.5158586 3.58579401,5.41264574 C2.9977503,5.35180676 2.33957539,5.48516985 2.13113235,5.65553633 C2.1385578,5.45477895 2.11940133,2.60125217 2.11940133,2.60125217 C2.11940133,2.60125217 2.42835318,2.14716336 3.4708336,2.11056119 C4.35684915,2.0497794 5.23657332,2.70887492 5.28377798,2.80625889 C5.28377798,2.80626068 5.28330679,3.88509737 5.28236441,6.04276894 Z" id="路径" fill="#FFFFFF"></path>
                        <path d="M8.39709005,6.04004642 C8.37958074,6.05147604 7.7074348,5.51313608 6.72310171,5.40992322 C6.14288511,5.34908424 5.49347079,5.48244733 5.28780221,5.65281381 C5.29512882,5.45205643 5.27622733,2.59852965 5.27622733,2.59852965 C5.27622733,2.59852965 5.5810669,2.14444084 6.60967148,2.10783867 C7.48389379,2.04705688 8.35190845,2.70615239 8.3984848,2.80353637 C8.3984848,2.80353816 8.39801988,3.88237485 8.39709005,6.04004642 Z" id="路径备份-2" fill="#FFFFFF" transform="translate(6.837356, 4.072057) scale(-1, 1) translate(-6.837356, -4.072057) "></path>
                    </g>
                </g>
            </g>
        </g>
    </g>
</svg>