<svg xmlns="http://www.w3.org/2000/svg" width="60" height="60" viewBox="0 0 60 60">
  <defs>
    <style>
      .cls-1 {
        fill: #fff;
        fill-rule: evenodd;
      }
    </style>
  </defs>
  <path id="btn_bill_mybill" class="cls-1" d="M1291.5,453H1288v42s-1.27,3-4,3-1.98-3-4-3-1.33,3-4,3-1.87-3-4-3-2.03,3.046-4,3-1.86-2.892-4-3-2.37,3.014-4,3-1.67-2.873-4-3-2.85,3.014-4,3-1.49-2.838-3-3-2.28,2.86-4,3-3-4-3-4V453h-3.5a1.5,1.5,0,0,1,0-3h53A1.5,1.5,0,0,1,1291.5,453ZM1245,494c1.3,0,2.16-2,4-2s0.7,2,3,2,2.23-2,4-2,2.18,2,4,2,1.18-2,4-2,2.32,2,4,2,2.13-2,4-2,1.95,2,4,2,1.49-2,4-2,5,3,5,3V453h-40v41Zm15.35-31.711v1.91h-4.48q-2.34,0-2.34,1.86V468.5q0,1.862,2.34,1.86h17.96q2.34,0,2.34-1.86v-2.437q0-1.86-2.34-1.86h-4.71v-1.91h7.78a0.727,0.727,0,0,0,.79-0.855,0.715,0.715,0,0,0-.79-0.829h-24.13a0.7,0.7,0,0,0-.76.829,0.715,0.715,0,0,0,.76.855h7.58Zm2.03,0h4.71v1.91h-4.71v-1.91Zm6.74,6.484v-3.016h4.09q0.84,0,.84.6v1.86q0,0.553-.84.553h-4.09Zm-2.03,0h-4.71v-3.016h4.71v3.016Zm-6.74,0h-3.86q-0.84.025-.84-0.553v-1.86q0-.6.84-0.6h3.86v3.016Zm3.58,8.168v3.971a0.853,0.853,0,0,1-.19.678,1.737,1.737,0,0,1-.91.151,13.449,13.449,0,0,1-2.19-.176,1.377,1.377,0,0,0-.29-0.025,0.943,0.943,0,0,0-.87.955,0.846,0.846,0,0,0,.87.88,18.892,18.892,0,0,0,2.74.151,4.556,4.556,0,0,0,2.34-.5,2.069,2.069,0,0,0,.76-1.835v-4.247h10.71a0.833,0.833,0,0,0,0-1.659h-24.13a0.715,0.715,0,0,0-.79.83,0.707,0.707,0,0,0,.76.829h11.19Zm10.35-3.393a0.667,0.667,0,0,0,.73-0.779,0.651,0.651,0,0,0-.73-0.779h-18.89a0.667,0.667,0,0,0-.73.779,0.651,0.651,0,0,0,.73.779h18.89Zm-4.28,4.5a0.767,0.767,0,0,0-.4.628,0.86,0.86,0,0,0,.37.679,21.214,21.214,0,0,0,5.89,3.518,1.733,1.733,0,0,0,.59.1,1.041,1.041,0,0,0,.99-0.553,0.924,0.924,0,0,0,.14-0.478,0.848,0.848,0,0,0-.68-0.829,19.228,19.228,0,0,1-5.44-3.041,1.019,1.019,0,0,0-.73-0.3,1.106,1.106,0,0,0-.73.277h0ZM1259.54,478a1.226,1.226,0,0,0-.68-0.226,1.313,1.313,0,0,0-.85.377,15.135,15.135,0,0,1-5.32,3.041,0.734,0.734,0,0,0-.6.754,1.991,1.991,0,0,0,.17.528,1.186,1.186,0,0,0,.96.528,1.577,1.577,0,0,0,.59-0.1,17.539,17.539,0,0,0,5.9-3.543,0.951,0.951,0,0,0,.28-0.629,0.915,0.915,0,0,0-.45-0.729h0Z" transform="translate(-1235 -444)"/>
</svg>
