<svg id="btn_bill_veriry" xmlns="http://www.w3.org/2000/svg" width="60" height="60" viewBox="0 0 60 60">
  <defs>
    <style>
      .cls-1, .cls-2 {
        fill: #fff;
        fill-rule: evenodd;
      }

      .cls-1 {
        fill-opacity: 0;
        stroke: #fff;
        stroke-linecap: round;
        stroke-width: 3px;
      }
    </style>
  </defs>
  <path id="矩形_1311" data-name="矩形 1311" class="cls-1" d="M1657.71,447.488h7.16a3.623,3.623,0,0,1,3.58,3.669v7.528m0,29.249v5.819a3.624,3.624,0,0,1-3.58,3.669h-7.3m-31.96,0h-8.47a3.624,3.624,0,0,1-3.58-3.669v-5.786m0-29.27v-7.54a3.623,3.623,0,0,1,3.58-3.669h8.09" transform="translate(-1611 -442.453)"/>
  <path id="票" class="cls-2" d="M1657.02,471.955a4,4,0,0,0,4,4v5a3,3,0,0,1-3,3h-34a3,3,0,0,1-3-3v-5a4,4,0,0,0,0-8v-5a3,3,0,0,1,3-3h34a3,3,0,0,1,3,3v5A4,4,0,0,0,1657.02,471.955Zm-23.15-7.288v1.368h4.84v0.882h-3.69v3.648h12.59v-3.648h-3.69v-0.882h4.84v-1.368h-14.89Zm8.41,2.25h-1.93v-0.882h1.93v0.882Zm3.67,2.371h-2.03v-1.094h2.03v1.094Zm-3.67,0h-1.93v-1.094h1.93v1.094Zm-3.57,0h-2.03v-1.094h2.03v1.094Zm-2.91,2.068v1.307h11.15v-1.307H1635.8Zm-1.66,2.022v1.352h6.53v1.6a0.537,0.537,0,0,1-.62.577c-0.41,0-.86-0.03-1.33-0.076l0.35,1.4h1.53a1.457,1.457,0,0,0,1.73-1.551V474.73h6.16v-1.352h-14.35Zm10.78,1.565-1.13,1a21.02,21.02,0,0,1,3.67,2.173l1.22-1.109A30.149,30.149,0,0,0,1644.92,474.943Zm-6.88.031a16.614,16.614,0,0,1-3.97,1.9l1.05,1.246a16.791,16.791,0,0,0,4.04-2.219Z" transform="translate(-1611 -442.453)"/>
</svg>
