<?xml version="1.0" encoding="UTF-8"?>
<svg width="30px" height="30px" viewBox="0 0 30 30" version="1.1" xmlns="http://www.w3.org/2000/svg" xmlns:xlink="http://www.w3.org/1999/xlink">
    <title>btn_tab_msc_sel</title>
    <defs>
        <radialGradient cx="26.1757267%" cy="-36.5842443%" fx="26.1757267%" fy="-36.5842443%" r="195.876688%" gradientTransform="translate(0.261757,-0.365842),scale(0.425000,1.000000),rotate(49.093359),translate(-0.261757,0.365842)" id="radialGradient-1">
            <stop stop-color="#FF9B93" offset="0%"></stop>
            <stop stop-color="#F60000" offset="100%"></stop>
        </radialGradient>
    </defs>
    <g id="图标" stroke="none" stroke-width="1" fill="none" fill-rule="evenodd">
        <g id="线稿" transform="translate(4.971875, 4.000000)">
            <path d="M13.137875,8.5 L13.2573601,8.61008621 C14.0765253,9.32896939 15.1429719,9.762 16.3052083,9.762 C17.1936062,9.762 18.0224014,9.51018423 18.7276838,9.07360843 L18.7271748,17.2436845 C18.7271748,18.8582953 17.8698393,20.1584877 16.4623146,20.256114 L16.0193096,20.262 L4.20786517,20.262 C2.77951577,20.262 1.59441857,19.023908 1.50537019,17.4358717 L1.5,17.2436845 L1.4993777,9.23547815 C2.13945551,9.57182279 2.8664919,9.762 3.63854167,9.762 L3.85530147,9.75696135 C4.93311794,9.70675456 5.91842254,9.2840392 6.6863899,8.61008621 L6.804875,8.5 L6.92402677,8.61008621 C7.74319195,9.32896939 8.80963861,9.762 9.971875,9.762 L10.1886348,9.75696135 C11.2664513,9.70675456 12.2517559,9.2840392 13.0197232,8.61008621 L13.137875,8.5 Z" id="形状结合" fill="#F30300"></path>
            <path d="M16.5116137,0 L3.48566526,0 C1.16188842,1.79508847 0,3.37958067 0,4.75347661 C0,6.81987574 1.63879721,8.5 3.66666667,8.5 L3.85991785,8.49486905 C5.07621981,8.43013921 6.14250362,7.75795 6.76259894,6.7623144 L6.833,6.642 L6.90406773,6.7623144 C7.55679964,7.81035188 8.70392324,8.5 10,8.5 L10.1932512,8.49486905 C11.4095531,8.43013921 12.475837,7.75795 13.0959323,6.7623144 L13.166,6.642 L13.2374011,6.7623144 C13.890133,7.81035188 15.0372566,8.5 16.3333333,8.5 C18.3612028,8.5 20,6.81987574 20,4.75347661 C20,3.37068078 18.8372046,1.78618858 16.5116137,0 Z" id="路径" fill="url(#radialGradient-1)"></path>
            <path d="M6.578125,10.9 C6.578125,10.285376 7.26677614,9.94621179 7.7492899,10.2788285 L7.83211743,10.3445798 L11.978,14.106 L11.978125,10.9 C11.978125,10.5203042 12.2602789,10.206509 12.6263544,10.1568466 L12.728125,10.15 C13.1078208,10.15 13.421616,10.4321539 13.4712784,10.7982294 L13.478125,10.9 L13.478125,15.8 C13.478125,16.414624 12.7894739,16.7537882 12.3069601,16.4211715 L12.2241326,16.3554202 L8.078,12.593 L8.078125,15.8 C8.078125,16.1796958 7.79597112,16.493491 7.42989556,16.5431534 L7.328125,16.55 C6.94842923,16.55 6.63463404,16.2678461 6.58497162,15.9017706 L6.578125,15.8 L6.578125,10.9 Z" id="Path-2" fill="#FFFFFF" fill-rule="nonzero"></path>
        </g>
    </g>
</svg>