<?xml version="1.0" encoding="UTF-8"?>
<svg width="30px" height="30px" viewBox="0 0 30 30" version="1.1" xmlns="http://www.w3.org/2000/svg" xmlns:xlink="http://www.w3.org/1999/xlink">
    <title>btn_tab_zixun_sel</title>
    <defs>
        <radialGradient cx="26.0278257%" cy="-16.3701341%" fx="26.0278257%" fy="-16.3701341%" r="112.55696%" gradientTransform="translate(0.260278,-0.163701),scale(0.931193,1.000000),rotate(55.511062),translate(-0.260278,0.163701)" id="radialGradient-1">
            <stop stop-color="#FF9B93" offset="0%"></stop>
            <stop stop-color="#F60000" offset="100%"></stop>
        </radialGradient>
    </defs>
    <g id="图标" stroke="none" stroke-width="1" fill="none" fill-rule="evenodd">
        <g id="轮廓" transform="translate(4.100000, 3.621429)">
            <path d="M14.2034108,-4.26325641e-14 C15.9153645,-4.26325641e-14 17.320646,1.34216268 17.320646,3.01764706 L17.320646,3.01764706 L17.32,8.396 L18.6827649,8.39670588 C20.3467447,8.39670588 21.7034821,9.70710017 21.7950716,11.3542729 L21.8,11.532 L21.8,17.1647059 C21.8,18.8951352 20.4064851,20.3 18.6827649,20.3 L18.6827649,20.3 L18.464,20.295 L18.4649368,20.3 L3.11723514,20.3 C1.40528151,20.3 1.77635684e-14,18.9578373 1.77635684e-14,17.2823529 L1.77635684e-14,17.2823529 L1.77635684e-14,3.01764706 C1.77635684e-14,1.34216268 1.40528151,-4.26325641e-14 3.11723514,-4.26325641e-14 L3.11723514,-4.26325641e-14 Z M18.6827649,10.1967059 L17.32,10.196 L17.320646,17.2167059 C17.320646,17.2819107 17.3296581,17.3759476 17.3509122,17.4827021 C17.4914892,18.0681717 18.011953,18.5 18.6295512,18.5 L18.6295512,18.5 L18.6827649,18.5 C19.4090894,18.5 20,17.9042765 20,17.1647059 L20,17.1647059 L20,11.532 C20,10.793092 19.4086364,10.1967059 18.6827649,10.1967059 L18.6827649,10.1967059 Z" id="形状结合" fill="url(#radialGradient-1)"></path>
            <path d="M9.26894056,11.7872959 C9.76599684,11.7872959 10.1689406,12.1902397 10.1689406,12.6872959 C10.1689406,13.1461171 9.8256039,13.5247477 9.38183465,13.5802837 L9.26894056,13.5872959 L4.83447028,13.5872959 C4.33741401,13.5872959 3.93447028,13.1843522 3.93447028,12.6872959 C3.93447028,12.2284748 4.27780695,11.8498442 4.72157619,11.7943082 L4.83447028,11.7872959 L9.26894056,11.7872959 Z M9.12471553,4.81176471 C9.67700028,4.81176471 10.1247155,5.25947996 10.1247155,5.81176471 L10.1247155,5.81176471 L10.1247155,7.81176471 C10.1247155,8.36404946 9.67700028,8.81176471 9.12471553,8.81176471 L9.12471553,8.81176471 L4.51190897,8.81176471 C3.95962422,8.81176471 3.51190897,8.36404946 3.51190897,7.81176471 L3.51190897,7.81176471 L3.51190897,5.81176471 C3.51190897,5.25947996 3.95962422,4.81176471 4.51190897,4.81176471 L4.51190897,4.81176471 Z" id="形状结合" fill="#FFFFFF"></path>
        </g>
    </g>
</svg>