<?xml version="1.0" encoding="UTF-8"?>
<svg width="30px" height="30px" viewBox="0 0 30 30" version="1.1" xmlns="http://www.w3.org/2000/svg" xmlns:xlink="http://www.w3.org/1999/xlink">
    <title>btn_tab_msc_nor</title>
    <g id="图标" stroke="none" stroke-width="1" fill="none" fill-rule="evenodd">
        <g id="btn/tab/名商城_nor" fill="#222222" fill-rule="nonzero">
            <g id="轮廓" transform="translate(4.500952, 3.529077)">
                <path d="M1.65031526,10.4718645 C2.18698744,10.8065961 2.82090776,11 3.5,11 L3.39904788,10.9969229 L3.39904788,17.7810225 C3.39904788,18.1740313 3.72545641,18.5145366 4.16476892,18.5645965 L4.27682566,18.5709229 L16.7212701,18.5709229 C17.1779173,18.5709229 17.5394525,18.2606491 17.5923713,17.8780432 L17.5990479,17.7810225 L17.6003397,10.9985894 C18.2417008,10.9805344 18.8398928,10.78994 19.3501445,10.4715777 L19.3990479,10.4709229 L19.3990479,17.7810225 C19.3990479,19.1664579 18.2814445,20.2821029 16.889559,20.3658723 L16.7212701,20.3709229 L4.27682566,20.3709229 C2.86434681,20.3709229 1.69241736,19.3085638 1.60435841,17.9459309 L1.59904788,17.7810225 L1.59904788,10.4709229 Z" id="形状结合"></path>
                <path d="M7.04904788,11.3709229 C7.04904788,10.7562989 7.73769902,10.4171347 8.22021279,10.7497514 L8.30304031,10.8155027 L12.4489229,14.5769229 L12.4490479,11.3709229 C12.4490479,10.9912271 12.7312018,10.6774319 13.0972773,10.6277695 L13.1990479,10.6209229 C13.5787436,10.6209229 13.8925388,10.9030768 13.9422013,11.2691523 L13.9490479,11.3709229 L13.9490479,16.2709229 C13.9490479,16.8855469 13.2603967,17.2247111 12.777883,16.8920944 L12.6950555,16.8263431 L8.54892288,13.0639229 L8.54904788,16.2709229 C8.54904788,16.6506186 8.266894,16.9644138 7.90081844,17.0140763 L7.79904788,17.0209229 C7.41935212,17.0209229 7.10555692,16.738769 7.0558945,16.3726934 L7.04904788,16.2709229 L7.04904788,11.3709229 Z" id="Path-2"></path>
                <path d="M17.2109452,0 L3.73090057,0 L1.19127017,2.76387324 C0.441606369,3.52639032 0,4.59152648 0,5.72439949 C0,8.04829339 1.8469755,9.94184576 4.13758955,9.94184576 L4.34190023,9.93678122 C5.49288503,9.8796003 6.52485668,9.3419228 7.24270348,8.51214924 L7.30392288,8.43692288 L7.36580895,8.51214924 C8.12588204,9.39073301 9.23812276,9.94184576 10.4709229,9.94184576 L10.6752336,9.93678122 C11.8262184,9.8796003 12.85819,9.3419228 13.5760368,8.51214924 L13.6369229,8.43692288 L13.6991423,8.51214924 C14.4592154,9.39073301 15.5714561,9.94184576 16.8042562,9.94184576 C19.0948703,9.94184576 20.9418458,8.04829339 20.9418458,5.72439949 C20.9418458,4.67244598 20.5610729,3.67889822 19.8886493,2.91307454 L17.2109452,0 Z M4.58292288,1.94092288 L16.3569229,1.94092288 L18.3207037,4.07773452 C18.7605436,4.5263312 19,5.10389008 19,5.72439949 C19,6.98651631 18.0114456,8 16.8042562,8 C15.6865906,8 14.7433815,7.1267437 14.6217255,5.9761834 L14.5298586,5.10735318 L12.7453205,5.10735318 L12.6534536,5.9761834 C12.5317976,7.1267437 11.5885885,8 10.4709229,8 C9.35325727,8 8.41004816,7.1267437 8.28839218,5.9761834 L8.1965253,5.10735318 L6.41198713,5.10735318 L6.32012025,5.9761834 C6.19846428,7.1267437 5.25525516,8 4.13758955,8 C2.93040018,8 1.94184576,6.98651631 1.94184576,5.72439949 L1.95063042,5.51930388 C1.99725763,4.97742477 2.22770242,4.47908798 2.5989044,4.10114225 L4.58292288,1.94092288 Z" id="形状-2"></path>
            </g>
        </g>
    </g>
</svg>