<?xml version="1.0" encoding="UTF-8"?>
<svg width="30px" height="31px" viewBox="0 0 30 31" version="1.1" xmlns="http://www.w3.org/2000/svg" xmlns:xlink="http://www.w3.org/1999/xlink">
    <title>btn_tab_fwh_sel</title>
    <defs>
        <radialGradient cx="17.5532219%" cy="-15.1898732%" fx="17.5532219%" fy="-15.1898732%" r="117.43317%" id="radialGradient-1">
            <stop stop-color="#FF9B93" offset="0%"></stop>
            <stop stop-color="#F60000" offset="100%"></stop>
        </radialGradient>
    </defs>
    <g id="图标" stroke="none" stroke-width="1" fill="none" fill-rule="evenodd">
        <g id="btn_tab_fwh_sel" fill="url(#radialGradient-1)" transform="translate(0.000000, 0.029437)">
            <g id="轮廓" transform="translate(5.100000, 3.070563)">
                <path d="M9.8,11 L9.8,15.9 C9.8,18.6061953 7.60619527,20.8 4.9,20.8 C2.19380473,20.8 1.0658141e-14,18.6061953 1.0658141e-14,15.9 C1.0658141e-14,13.1938047 2.19380473,11 4.9,11 L9.8,11 Z M15.9,11 C18.6061953,11 20.8,13.1938047 20.8,15.9 C20.8,18.6061953 18.6061953,20.8 15.9,20.8 C13.1938047,20.8 11,18.6061953 11,15.9 L11,15.9 L11,11 Z M4.9,-4.61852778e-14 C7.60619527,-4.61852778e-14 9.8,2.19380473 9.8,4.9 L9.8,4.9 L9.8,9.8 L4.9,9.8 C2.19380473,9.8 1.0658141e-14,7.60619527 1.0658141e-14,4.9 C1.0658141e-14,2.19380473 2.19380473,-4.61852778e-14 4.9,-4.61852778e-14 Z M15.9,-4.61852778e-14 C18.6061953,-4.61852778e-14 20.8,2.19380473 20.8,4.9 C20.8,7.60619527 18.6061953,9.8 15.9,9.8 L11,9.8 L11,4.9 C11,2.19380473 13.1938047,-4.61852778e-14 15.9,-4.61852778e-14 Z" id="形状结合"></path>
            </g>
        </g>
    </g>
</svg>