<?xml version="1.0" encoding="UTF-8"?>
<svg width="30px" height="30px" viewBox="0 0 30 30" version="1.1" xmlns="http://www.w3.org/2000/svg" xmlns:xlink="http://www.w3.org/1999/xlink">
    <title>btn_tab_my_nor</title>
    <g id="图标" stroke="none" stroke-width="1" fill="none" fill-rule="evenodd">
        <g id="轮廓" fill="#222222" transform="translate(4.100000, 4.488889)">
            <path d="M10.9638062,12.2252044 L11.0904491,12.243321 L19.3253829,14.0262934 C20.7694909,14.338962 21.8,15.6164674 21.8,17.0940362 L21.8,17.0940362 L21.8,17.9 C21.8,18.949341 20.949341,19.8 19.9,19.8 L19.9,19.8 L1.9,19.8 C0.850658975,19.8 -4.26325641e-14,18.949341 -4.26325641e-14,17.9 L-4.26325641e-14,17.9 L-4.26325641e-14,17.0940362 C-4.26325641e-14,15.6164674 1.03050912,14.338962 2.4746171,14.0262934 L2.4746171,14.0262934 L10.7095509,12.243321 C10.8350629,12.216146 10.9649371,12.216146 11.0904491,12.243321 Z M10.9,14.043 L2.85551535,15.7855309 C2.2395501,15.9188956 1.8,16.4637987 1.8,17.0940362 L1.8,17.0940362 L1.8,17.9 C1.8,17.9552285 1.84477153,18 1.9,18 L1.9,18 L19.9,18 C19.9552285,18 20,17.9552285 20,17.9 L20,17.9 L20,17.0940362 C20,16.4637987 19.5604499,15.9188956 18.9444847,15.7855309 L18.9444847,15.7855309 L10.9,14.043 Z M10.9,-4.61852778e-14 C14.15848,-4.61852778e-14 16.8,2.64151998 16.8,5.9 C16.8,9.15848002 14.15848,11.8 10.9,11.8 C7.64151998,11.8 5,9.15848002 5,5.9 C5,2.64151998 7.64151998,-4.61852778e-14 10.9,-4.61852778e-14 Z M10.9,1.8 C8.63563253,1.8 6.8,3.63563253 6.8,5.9 C6.8,8.16436747 8.63563253,10 10.9,10 C13.1643675,10 15,8.16436747 15,5.9 C15,3.63563253 13.1643675,1.8 10.9,1.8 Z" id="形状结合"></path>
        </g>
    </g>
</svg>