<?xml version="1.0" encoding="UTF-8"?>
<svg width="30px" height="30px" viewBox="0 0 30 30" version="1.1" xmlns="http://www.w3.org/2000/svg" xmlns:xlink="http://www.w3.org/1999/xlink">
    <title>btn_tab_gpc_nor</title>
    <g id="图标" stroke="none" stroke-width="1" fill="none" fill-rule="evenodd">
        <g id="btn_tab_gpc_nor" fill="#222222" transform="translate(0.000000, -0.000000)">
            <g id="轮廓" transform="translate(4.384483, 3.032405)">
                <path d="M2.39256547,7.09661728 C2.76843609,7.09545289 3.1393257,7.18258805 3.47535604,7.3510033 L3.47535604,7.3510033 L7.6704494,9.45354466 C8.99904966,10.1194266 9.83373573,11.4825156 9.82289243,12.9686044 L9.82289243,12.9686044 L9.7792365,18.951713 C9.76956532,20.2771612 8.68723729,21.3438091 7.36178917,21.334138 C6.91683479,21.3308913 6.48154338,21.2040096 6.1045341,20.9676646 L6.1045341,20.9676646 L1.84554026,18.2977256 C0.711462173,17.5867785 0.0212006121,16.3439224 0.0170541796,15.00543 L0.0170541796,15.00543 L1.17654671e-05,9.50404054 C-0.00409434783,8.1785635 1.06708843,7.10072339 2.39256547,7.09661728 Z M18.4078968,7.09661728 C19.7333739,7.10072339 20.8045567,8.1785635 20.8004506,9.50404054 L20.7834081,15.00543 C20.7792617,16.3439224 20.0890001,17.5867785 18.9549221,18.2977256 L14.6959282,20.9676646 C14.3189189,21.2040096 13.8836275,21.3308913 13.4386731,21.334138 C12.113225,21.3438091 11.030897,20.2771612 11.0212258,18.951713 L10.9775699,12.9686044 C10.9667266,11.4825156 11.8014127,10.1194266 13.1300129,9.45354466 L17.3251063,7.3510033 C17.6611366,7.18258805 18.0320262,7.09545289 18.4078968,7.09661728 Z M2.39814156,8.89660864 C2.0667723,8.89763517 1.7989766,9.1670952 1.80000313,9.49846446 L1.80000313,9.49846446 L1.81704554,14.999854 C1.81927824,15.7205806 2.19095754,16.3898108 2.80161497,16.7726285 L2.80161497,16.7726285 L7.06060881,19.4425675 C7.15486113,19.5016538 7.26368398,19.5333742 7.37492258,19.5341859 L7.37492258,19.5341859 L7.4723004,19.5270432 C7.75771937,19.4826243 7.9771084,19.2368055 7.97928441,18.9385796 L7.97928441,18.9385796 L8.02294035,12.955471 C8.02877904,12.1552693 7.5793327,11.4212983 6.86393256,11.0627465 L6.86393256,11.0627465 L2.6688392,8.96020515 C2.58483161,8.91810134 2.49210921,8.89631754 2.39814156,8.89660864 Z M18.4023208,8.89660864 C18.3083531,8.89631754 18.2156307,8.91810134 18.1316231,8.96020515 L13.9365298,11.0627465 C13.2211296,11.4212983 12.7716833,12.1552693 12.777522,12.955471 L12.8211779,18.9385796 C12.8235957,19.2699417 13.0941777,19.5366037 13.4255397,19.5341859 C13.5367783,19.5333742 13.6456012,19.5016538 13.7398535,19.4425675 L17.9988473,16.7726285 C18.6095048,16.3898108 18.9811841,15.7205806 18.9834168,14.999854 L19.0004592,9.49846446 C19.0014857,9.1670952 18.73369,8.89763517 18.4023208,8.89660864 Z M9.02531517,0.292045811 C9.96779043,-0.0947620015 11.0242089,-0.0974270512 11.9686238,0.284620663 L11.9686238,0.284620663 L17.7504,2.62354447 C18.6207647,2.97563637 19.0409078,3.96663319 18.6888159,4.83699783 C18.540529,5.20356017 18.2690983,5.50696484 17.9212426,5.69498966 L17.9212426,5.69498966 L12.515553,8.61690165 C11.373061,9.2344475 9.99812262,9.24276473 8.84824319,8.63908582 L8.84824319,8.63908582 L3.22943001,5.68924696 C2.3981417,5.25282622 2.07803828,4.225145 2.51445902,3.39385669 C2.7001766,3.04010434 3.00455726,2.76306685 3.37417775,2.61136834 L3.37417775,2.61136834 Z M11.2936039,1.95325728 C10.7850728,1.74753928 10.2162321,1.74897431 9.70874541,1.95725544 L9.70874541,1.95725544 L4.25638915,4.19419418 L9.68493574,7.04536515 C10.2525044,7.34333487 10.9219027,7.36440249 11.503379,7.10971584 L11.503379,7.10971584 L11.659641,7.03341983 L16.8782452,4.21116474 Z" id="形状结合"></path>
            </g>
        </g>
    </g>
</svg>