<?xml version="1.0" encoding="UTF-8"?>
<svg width="30px" height="30px" viewBox="0 0 30 30" version="1.1" xmlns="http://www.w3.org/2000/svg" xmlns:xlink="http://www.w3.org/1999/xlink">
    <title>btn_tab_zixun_def</title>
    <g id="图标" stroke="none" stroke-width="1" fill="none" fill-rule="evenodd">
        <g id="轮廓" fill="#222222" transform="translate(4.100000, 3.621429)">
            <path d="M14.2034108,-4.26325641e-14 C15.9153645,-4.26325641e-14 17.320646,1.34216268 17.320646,3.01764706 L17.320646,3.01764706 L16.979,8.396 L18.6827649,8.39670588 C20.3467447,8.39670588 21.7034821,9.70710017 21.7950716,11.3542729 L21.8,11.532 L21.8,17.1647059 C21.8,18.8951352 20.4064851,20.3 18.6827649,20.3 L18.6827649,20.3 L18.464,20.295 L18.4649368,20.3 L3.11723514,20.3 C1.40528151,20.3 1.77635684e-14,18.9578373 1.77635684e-14,17.2823529 L1.77635684e-14,17.2823529 L1.77635684e-14,3.01764706 C1.77635684e-14,1.34216268 1.40528151,-4.26325641e-14 3.11723514,-4.26325641e-14 L3.11723514,-4.26325641e-14 Z M14.2034108,1.8 L3.11723514,1.8 C2.38136117,1.8 1.8,2.35524908 1.8,3.01764706 L1.8,3.01764706 L1.8,17.2823529 C1.8,17.9447509 2.38136117,18.5 3.11723514,18.5 L3.11723514,18.5 L15.786,18.5 L15.7577894,18.4274433 C15.7346304,18.3644801 15.7152561,18.3020238 15.7011903,18.2402695 C15.5789496,17.9050674 15.5123165,17.5422281 15.5123165,17.1638182 L15.5123165,17.1638182 L15.5209636,8.39670588 L15.520646,3.01764706 C15.520646,2.35524908 14.9392848,1.8 14.2034108,1.8 L14.2034108,1.8 Z M17.319,10.196 L17.3123161,17.1647059 C17.3123161,17.1822397 17.312649,17.199693 17.3133087,17.2170598 C17.320646,17.2819107 17.3296581,17.3759476 17.3509122,17.4827021 C17.4914892,18.0681717 18.011953,18.5 18.6295512,18.5 L18.6295512,18.5 L18.6827649,18.5 C19.4090894,18.5 20,17.9042765 20,17.1647059 L20,17.1647059 L20,11.532 C20,10.793092 19.4086364,10.1967059 18.6827649,10.1967059 L18.6827649,10.1967059 L17.319,10.196 Z M9.76894056,11.7872959 C10.2659968,11.7872959 10.6689406,12.1902397 10.6689406,12.6872959 C10.6689406,13.1461171 10.3256039,13.5247477 9.88183465,13.5802837 L9.76894056,13.5872959 L5.33447028,13.5872959 C4.83741401,13.5872959 4.43447028,13.1843522 4.43447028,12.6872959 C4.43447028,12.2284748 4.77780695,11.8498442 5.22157619,11.7943082 L5.33447028,11.7872959 L9.76894056,11.7872959 Z M9.12471553,4.31176471 C9.90441165,4.31176471 10.5451642,4.90665279 10.6178489,5.6673047 L10.6247155,5.81176471 L10.6247155,7.81176471 C10.6247155,8.59146082 10.0298274,9.23221338 9.26917554,9.30489813 L9.12471553,9.31176471 L5.51190897,9.31176471 C4.73221285,9.31176471 4.09146029,8.71687662 4.01877555,7.95622472 L4.01190897,7.81176471 L4.01190897,5.81176471 C4.01190897,5.03206859 4.60679705,4.39131603 5.36744896,4.31863128 L5.51190897,4.31176471 L9.12471553,4.31176471 Z M9.12471553,5.81176471 L5.51190897,5.81176471 L5.51190897,7.81176471 L9.12471553,7.81176471 L9.12471553,5.81176471 Z" id="形状结合"></path>
        </g>
    </g>
</svg>