<?xml version="1.0" encoding="UTF-8"?>
<svg width="30px" height="30px" viewBox="0 0 30 30" version="1.1" xmlns="http://www.w3.org/2000/svg" xmlns:xlink="http://www.w3.org/1999/xlink">
    <title>btn_tab_my_sel</title>
    <defs>
        <radialGradient cx="26.9763466%" cy="-15.4289692%" fx="26.9763466%" fy="-15.4289692%" r="104.32588%" gradientTransform="translate(0.269763,-0.154290),scale(0.908257,1.000000),rotate(60.313594),translate(-0.269763,0.154290)" id="radialGradient-1">
            <stop stop-color="#FF9B93" offset="0%"></stop>
            <stop stop-color="#F60000" offset="100%"></stop>
        </radialGradient>
    </defs>
    <g id="图标" stroke="none" stroke-width="1" fill="none" fill-rule="evenodd">
        <g id="轮廓" fill="url(#radialGradient-1)" transform="translate(4.100000, 4.488889)">
            <path d="M10.9638062,12.2252044 L11.0904491,12.243321 L19.3253829,14.0262934 C20.7694909,14.338962 21.8,15.6164674 21.8,17.0940362 L21.8,17.0940362 L21.8,17.9 C21.8,18.949341 20.949341,19.8 19.9,19.8 L19.9,19.8 L1.9,19.8 C0.850658975,19.8 0,18.949341 0,17.9 L0,17.9 L0,17.0940362 C0,15.6164674 1.03050912,14.338962 2.4746171,14.0262934 L2.4746171,14.0262934 L10.7095509,12.243321 C10.8350629,12.216146 10.9649371,12.216146 11.0904491,12.243321 Z M10.9,-4.61852778e-14 C14.15848,-4.61852778e-14 16.8,2.64151998 16.8,5.9 C16.8,9.15848002 14.15848,11.8 10.9,11.8 C7.64151998,11.8 5,9.15848002 5,5.9 C5,2.64151998 7.64151998,-4.61852778e-14 10.9,-4.61852778e-14 Z" id="形状结合"></path>
        </g>
    </g>
</svg>