<?xml version="1.0" encoding="UTF-8"?>
<svg width="44px" height="60px" viewBox="0 0 44 60" version="1.1" xmlns="http://www.w3.org/2000/svg" xmlns:xlink="http://www.w3.org/1999/xlink">
    <title>icon_huobiao</title>
    <g id="优惠券专题装修" stroke="none" stroke-width="1" fill="none" fill-rule="evenodd">
        <g id="画板" transform="translate(-643.000000, -47.000000)" fill="#F30300">
            <g id="icon_huobiao" transform="translate(643.000000, 47.000000)">
                <path d="M22.5136097,60 L44,41.2308218 L36.4630146,41.2308218 C36.9605638,28.7842286 36.2135005,21.2934467 34.2218248,18.7584761 C33.7769706,17.9282874 33.4441528,16.1508058 33.2233714,13.4260314 C32.2266008,15.3447312 31.8864915,16.9713222 32.2030433,18.3058043 C34.5155064,22.8052105 32.6165518,25.3781894 29.6157813,24.8615181 C24.5105088,22.7103926 29.3542359,16.4882174 27.2724955,10.9470765 C26.4976409,9.40511125 22.896742,8.28295288 21.5249819,5.0713586 C20.7140164,3.68219963 20.4836079,1.99174676 20.8337563,0 C18.6145515,1.86567205 17.8642335,3.86332654 18.5828023,5.99296346 C22.0183257,10.8234038 20.7806898,13.1749374 18.5828023,14.2622065 C14.8117741,14.7465611 13.0847468,12.2136664 13.4017205,6.66352253 C11.6934836,8.92780362 10.9918305,11.1118435 11.2967613,13.2156422 C11.6085004,16.2542526 14.4854639,18.1544032 14.6806959,21.5053544 C14.8022882,23.7719938 12.7086362,24.561804 10.9534743,23.421284 C9.95444094,20.625649 8.75384051,18.4786395 7.35167295,16.9802558 C7.53407887,18.8034789 7.64382968,20.1893974 7.6809254,21.1380113 C7.68944465,21.3558662 7.68944465,28.0534697 7.6809254,41.2308218 L0,41.2308218 L22.5136097,60 Z" id="路径"></path>
            </g>
        </g>
    </g>
</svg>