<?xml version="1.0" encoding="UTF-8"?>
<svg width="22px" height="22px" viewBox="0 0 22 22" version="1.1" xmlns="http://www.w3.org/2000/svg" xmlns:xlink="http://www.w3.org/1999/xlink">
    <!-- Generator: Sketch 60 (88103) - https://sketch.com -->
    <title>h5 svg/icon/hotel/hotel@2x</title>
    <desc>Created with Sketch.</desc>
    <g id="h5-svg/icon/hotel/hotel" stroke="none" stroke-width="1" fill="none" fill-rule="evenodd">
        <path d="M1.0281343,20.3577534 C0.593859113,20.3577534 0.241809514,20.0057038 0.241809514,19.5714286 C0.241809514,19.173343 0.537628969,18.8443497 0.921434685,18.792282 L1.0281343,18.7851038 L1.81280951,18.7848657 L1.81302882,2.47619048 C1.81302882,1.53895854 2.5348166,0.770309162 3.4528472,0.695787305 L3.59935361,0.68986569 L13.980306,0.68986569 C14.9175379,0.68986569 15.6861873,1.41165347 15.7607092,2.32968407 L15.7666308,2.47619048 L15.7658095,4.49886569 L18.4006464,4.4993895 C19.3378783,4.4993895 20.1065277,5.22117728 20.1810496,6.13920788 L20.1869712,6.28571429 L20.1868095,18.7848657 L21.210993,18.7851038 C21.6452682,18.7851038 21.9973178,19.1371534 21.9973178,19.5714286 C21.9973178,19.9695142 21.7014984,20.2985074 21.3176927,20.3505751 L21.210993,20.3577534 L1.0281343,20.3577534 Z M13.980306,2.26251526 L3.59935361,2.26251526 C3.50101231,2.26251526 3.41818761,2.32894974 3.39331108,2.41938714 L3.38567839,2.47619048 L3.38480951,18.7848657 L14.1938095,18.7848657 L14.1939812,2.47619048 C14.1939812,2.37784917 14.1275467,2.29502448 14.0371093,2.27014795 L13.980306,2.26251526 Z M18.4006464,6.07203907 L15.7658095,6.07186569 L15.7658095,18.7848657 L18.6138095,18.7848657 L18.6143216,6.28571429 C18.6143216,6.18737298 18.5478871,6.10454829 18.4574497,6.07967176 L18.4006464,6.07203907 Z" id="形状结合" fill="#478aee"></path>
        <path d="M10.5026801,11.6285714 C11.447087,11.6285714 12.2216208,12.3558849 12.2967131,13.2809434 L12.3026801,13.4285714 L12.3026801,19.5714286 C12.3026801,20.0132564 11.9445079,20.3714286 11.5026801,20.3714286 C11.094839,20.3714286 10.7582785,20.0662404 10.7089132,19.6717789 L10.7026801,19.5714286 L10.7026801,13.4285714 C10.7026801,13.336524 10.6404974,13.2590001 10.555848,13.2357156 L10.5026801,13.2285714 L7.07697954,13.2285714 C6.98493208,13.2285714 6.90740816,13.2907541 6.88412373,13.3754035 L6.87697954,13.4285714 L6.87697954,19.5714286 C6.87697954,20.0132564 6.51880734,20.3714286 6.07697954,20.3714286 C5.66913849,20.3714286 5.33257795,20.0662404 5.28321267,19.6717789 L5.27697954,19.5714286 L5.27697954,13.4285714 C5.27697954,12.4841645 6.00429296,11.7096307 6.92935155,11.6345384 L7.07697954,11.6285714 L10.5026801,11.6285714 Z M11.7811337,7.64024368 C12.2229615,7.64024368 12.5811337,7.99841588 12.5811337,8.44024368 C12.5811337,8.84808472 12.2759456,9.18464526 11.881484,9.23401054 L11.7811337,9.24024368 L5.57474449,9.24024368 C5.13291669,9.24024368 4.77474449,8.88207148 4.77474449,8.44024368 C4.77474449,8.03240263 5.07993264,7.69584209 5.47439419,7.64647681 L5.57474449,7.64024368 L11.7811337,7.64024368 Z M11.7811337,4.48571429 C12.2229615,4.48571429 12.5811337,4.84388649 12.5811337,5.28571429 C12.5811337,5.69355533 12.2759456,6.03011587 11.881484,6.07948115 L11.7811337,6.08571429 L5.57474449,6.08571429 C5.13291669,6.08571429 4.77474449,5.72754209 4.77474449,5.28571429 C4.77474449,4.87787324 5.07993264,4.5413127 5.47439419,4.49194742 L5.57474449,4.48571429 L11.7811337,4.48571429 Z" id="形状结合" fill="#478aee" opacity="0.7"></path>
    </g>
</svg>
