<?xml version="1.0" encoding="UTF-8"?>
<svg width="22px" height="22px" viewBox="0 0 22 22" version="1.1" xmlns="http://www.w3.org/2000/svg" xmlns:xlink="http://www.w3.org/1999/xlink">
    <!-- Generator: Sketch 60 (88103) - https://sketch.com -->
    <title>h5 svg/icon/plane/plane@2x</title>
    <desc>Created with Sketch.</desc>
    <g id="h5-svg/icon/plane/plane" stroke="none" stroke-width="1" fill="none" fill-rule="evenodd">
        <path d="M16.2765314,1.41932219 L12.374,5.321 L3.68082256,3.21480827 C3.13864245,3.08345536 2.5671909,3.24398338 2.17272109,3.63845319 L1.5316388,4.27953548 L1.43326872,4.38698084 C0.7862437,5.16006351 1.0092935,6.35529401 1.92597752,6.83104141 L7.778,9.868 L4.937,12.709 L3.34656426,12.4178707 C2.82917174,12.3228395 2.29812273,12.4882036 1.92615098,12.8601753 L1.63026684,13.1560595 L1.53218413,13.2631652 C0.886897999,14.0337873 1.10603026,15.2249473 2.01743301,15.7038199 L4.486,17 L5.78351013,19.469897 C6.28518622,20.4246999 7.56860173,20.619732 8.33127054,19.8570632 L8.6764687,19.511865 L8.77937322,19.3986302 C9.07013731,19.0462092 9.19795516,18.5836613 9.12500286,18.1277094 L8.86,16.473 L11.658,13.703 L14.7037096,19.6070074 C15.2004288,20.5701581 16.4908223,20.7712915 17.2571086,20.0050052 L17.8488768,19.413237 L17.9506158,19.3014213 C18.2701213,18.9151088 18.3919335,18.3980265 18.2725218,17.9051355 L16.166,9.211 L20.0186938,5.35874065 L20.1021335,5.26863599 C20.6390755,4.6422037 20.9311492,3.93635899 20.9311492,3.14246131 C20.9311492,2.26767216 20.4428781,1.50038903 19.7255293,1.02215648 C18.6270318,0.289824845 17.196714,0.499139646 16.2765314,1.41932219 Z M17.4079023,2.55069304 C17.8024145,2.15618086 18.3941827,2.05755282 18.8380089,2.35343695 C19.1338931,2.55069304 19.3311492,2.84657717 19.3311492,3.14246131 C19.3311492,3.48765946 19.217881,3.79510157 18.9913447,4.09782417 L18.887323,4.2273698 L14.3997469,8.71494582 L16.717506,18.2818661 L16.1257377,18.8736344 L12.0819879,11.0327049 L7.15058567,15.9147931 L7.54509785,18.3804942 L7.19989969,18.7256923 L5.671165,15.816165 L2.76163769,14.2874303 L3.05752183,13.9915462 L5.47390892,14.4353724 L10.4546252,9.45465615 L2.66300965,5.41090633 L3.30409194,4.76982404 L12.8710122,7.08758309 L17.4079023,2.55069304 Z" id="路径" fill="#478aee"></path>
    </g>
</svg>
