<?xml version="1.0" encoding="UTF-8"?>
<svg width="22px" height="22px" viewBox="0 0 22 22" version="1.1" xmlns="http://www.w3.org/2000/svg" xmlns:xlink="http://www.w3.org/1999/xlink">
    <!-- Generator: Sketch 60 (88103) - https://sketch.com -->
    <title>h5 svg/icon/train/train@2x</title>
    <desc>Created with Sketch.</desc>
    <g id="h5-svg/icon/train/train" stroke="none" stroke-width="1" fill="none" fill-rule="evenodd">
        <path d="M18.3080674,19.868725 C18.7498952,19.868725 19.1080674,20.2268972 19.1080674,20.668725 C19.1080674,21.0765661 18.8028792,21.4131266 18.4084177,21.4624919 L18.3080674,21.468725 L3.69193262,21.468725 C3.25010482,21.468725 2.89193262,21.1105528 2.89193262,20.668725 C2.89193262,20.260884 3.19712077,19.9243235 3.59158232,19.8749582 L3.69193262,19.868725 L18.3080674,19.868725 Z M17.2509604,0.422824895 C19.3496425,0.422824895 21.0509604,2.12414285 21.0509604,4.22282489 L21.0509604,4.22282489 L21.0509604,16.7771751 C21.0509604,17.7712877 20.245073,18.5771751 19.2509604,18.5771751 L19.2509604,18.5771751 L2.74903959,18.5771751 C1.75492704,18.5771751 0.949039588,17.7712877 0.949039588,16.7771751 L0.949039588,16.7771751 L0.949039588,4.22282489 C0.949039588,2.12414285 2.65035754,0.422824895 4.74903959,0.422824895 L4.74903959,0.422824895 Z M17.2509604,2.02282489 L4.74903959,2.02282489 C3.53401314,2.02282489 2.54903959,3.00779845 2.54903959,4.22282489 L2.54903959,4.22282489 L2.54903959,16.7771751 C2.54903959,16.8876321 2.63858264,16.9771751 2.74903959,16.9771751 L2.74903959,16.9771751 L19.2509604,16.9771751 C19.3614174,16.9771751 19.4509604,16.8876321 19.4509604,16.7771751 L19.4509604,16.7771751 L19.4509604,4.22282489 C19.4509604,3.00779845 18.4659869,2.02282489 17.2509604,2.02282489 L17.2509604,2.02282489 Z" id="形状结合" fill="#478aee"></path>
        <path d="M6.29443359,13.045166 C7.12286072,13.045166 7.79443359,13.7167389 7.79443359,14.545166 C7.79443359,15.3735931 7.12286072,16.045166 6.29443359,16.045166 C5.46600647,16.045166 4.79443359,15.3735931 4.79443359,14.545166 C4.79443359,13.7167389 5.46600647,13.045166 6.29443359,13.045166 Z M15.8080674,13.045166 C16.6364945,13.045166 17.3080674,13.7167389 17.3080674,14.545166 C17.3080674,15.3735931 16.6364945,16.045166 15.8080674,16.045166 C14.9796403,16.045166 14.3080674,15.3735931 14.3080674,14.545166 C14.3080674,13.7167389 14.9796403,13.045166 15.8080674,13.045166 Z M15.6574707,3.67070313 C16.6515833,3.67070313 17.4574707,4.47659058 17.4574707,5.47070313 L17.4574707,5.47070313 L17.4574707,9.82495117 C17.4574707,10.8190637 16.6515833,11.6249512 15.6574707,11.6249512 L15.6574707,11.6249512 L6.3425293,11.6249512 C5.34841675,11.6249512 4.5425293,10.8190637 4.5425293,9.82495117 L4.5425293,9.82495117 L4.5425293,5.47070313 C4.5425293,4.47659058 5.34841675,3.67070313 6.3425293,3.67070313 L6.3425293,3.67070313 Z M15.6574707,5.27070313 L6.3425293,5.27070313 C6.23207235,5.27070313 6.1425293,5.36024618 6.1425293,5.47070313 L6.1425293,5.47070313 L6.1425293,9.82495117 C6.1425293,9.93540812 6.23207235,10.0249512 6.3425293,10.0249512 L6.3425293,10.0249512 L15.6574707,10.0249512 C15.7679277,10.0249512 15.8574707,9.93540812 15.8574707,9.82495117 L15.8574707,9.82495117 L15.8574707,5.47070313 C15.8574707,5.36024618 15.7679277,5.27070313 15.6574707,5.27070313 L15.6574707,5.27070313 Z" id="形状结合" fill="#478aee" opacity="0.7"></path>
    </g>
</svg>
