<?xml version="1.0" encoding="UTF-8"?>
<svg width="22px" height="22px" viewBox="0 0 22 22" version="1.1" xmlns="http://www.w3.org/2000/svg" xmlns:xlink="http://www.w3.org/1999/xlink">
    <!-- Generator: Sketch 60 (88103) - https://sketch.com -->
    <title>h5 svg/icon/car/car@2x</title>
    <desc>Created with Sketch.</desc>
    <g id="h5-svg/icon/car/car" stroke="none" stroke-width="1" fill="none" fill-rule="evenodd">
        <path d="M14.9635997,3.62312707 C16.2802132,3.60189066 17.4275795,4.53717618 17.7113158,5.85090164 L17.7292632,5.94550789 L18.3491528,7.79767535 L19.91564,7.79836107 C20.1522387,7.79408588 20.3811831,7.87364631 20.5613512,8.01778874 L20.6354599,8.08346194 C20.8094991,8.25016423 20.9181523,8.47298469 20.945008,8.71582892 L20.9514617,8.82102573 L20.9514617,9.27984187 C20.9462872,9.55003786 20.8370225,9.80818123 20.6458666,9.99805915 C20.4999298,10.1430203 20.3152758,10.2391579 20.1166736,10.2758063 L20.0335614,10.2860991 L20.0587654,10.3766333 C20.106637,10.5736791 20.1369216,10.7718548 20.1489444,10.966311 L20.154855,11.1593478 L20.3962294,13.914525 L20.4006013,14.0654129 L20.397039,14.1697861 L20.3991054,14.1991609 C20.4008848,14.2384964 20.4010664,14.2750178 20.3998923,14.30287 L20.3971447,14.3374147 L20.397024,17.6510896 C20.3892079,18.0225583 20.2383481,18.3767081 19.9758931,18.6361749 C19.7395466,18.8698307 19.4299756,19.0095128 19.1119327,19.0317794 L18.9923959,19.0345798 L17.7022704,19.0344361 C17.3307082,19.0429649 16.9721437,18.8990376 16.7062538,18.6361749 C16.4729605,18.4055377 16.3278412,18.1000893 16.2928983,17.7661046 L16.2850022,17.639613 L16.2848999,17.1253434 L6.16890139,17.1253434 L6.16955431,17.6510896 C6.16260667,17.981284 6.04263682,18.2977943 5.83173213,18.5462853 L5.74842344,18.6361749 C5.51207688,18.8698307 5.20250593,19.0095128 4.88446302,19.0317794 L4.76492627,19.0345798 L3.42860764,19.0344361 C3.05704544,19.042965 2.69848095,18.8990376 2.43259106,18.6361749 C2.19929777,18.4055377 2.0541784,18.1000893 2.01923553,17.7661046 L2.01133945,17.639613 L2.01223746,14.2160012 C2.00839594,14.1491311 2.00711543,14.0821449 2.00879601,14.0098082 L2.01358769,13.8966362 L2.26082109,11.2135286 C2.25708218,10.9007717 2.29633978,10.5902668 2.37649869,10.2909733 L2.3875065,10.2506379 C2.18035722,10.2344256 1.98761366,10.1566364 1.82945912,10.028246 L1.75337895,9.95988346 C1.58611753,9.79374028 1.48155407,9.57533136 1.45456015,9.33544711 L1.44778384,9.23141453 L1.44778384,8.81400503 C1.45138384,8.53779293 1.56488373,8.27397882 1.75922229,8.08788422 C1.92860802,7.92181322 2.14915078,7.82095952 2.37618281,7.8015545 L2.47374933,7.79827203 L4.07055115,7.79835729 L4.68907688,5.94278011 L4.70925859,5.84573625 C5.00554239,4.55635227 6.12401006,3.63548247 7.39930296,3.62517223 L7.53651127,3.62757654 L14.8432644,3.62757079 L14.9635997,3.62312707 Z" id="形状" stroke="#d3d3d3" stroke-width="1.5" fill-rule="nonzero"></path>
        <path d="M6.42599533,12.0107425 C7.17925294,12.0107425 7.78988888,12.6213785 7.78988888,13.3746361 C7.78988888,14.1278937 7.17925294,14.7385297 6.42599533,14.7385297 C5.67273771,14.7385297 5.06210177,14.1278937 5.06210177,13.3746361 C5.06210177,12.6213785 5.67273771,12.0107425 6.42599533,12.0107425 Z M15.9732502,12.0107425 C16.7265078,12.0107425 17.3371438,12.6213785 17.3371438,13.3746361 C17.3371438,14.1278937 16.7265078,14.7385297 15.9732502,14.7385297 C15.2199926,14.7385297 14.6093567,14.1278937 14.6093567,13.3746361 C14.6093567,12.6213785 15.2199926,12.0107425 15.9732502,12.0107425 Z M12.9044897,12.3517159 C13.2811185,12.3517159 13.5864365,12.6570339 13.5864365,13.0336627 L13.5864365,13.7156095 C13.5864365,14.0922383 13.2811185,14.3975563 12.9044897,14.3975563 L9.49475583,14.3975563 C9.11812703,14.3975563 8.81280905,14.0922383 8.81280905,13.7156095 L8.81280905,13.0336627 C8.81280905,12.6570339 9.11812703,12.3517159 9.49475583,12.3517159 L12.9044897,12.3517159 Z" id="形状结合" fill="#d3d3d3" opacity="0.7"></path>
        <path d="M14.0644051,5.53224814 C15.0621158,5.53224814 15.2138559,5.73219637 15.4969002,6.22021438 C16.1086822,7.27503366 16.423476,8.0307916 16.5823129,8.4694375 C17.1902635,10.1483608 16.9061774,10.9878224 15.7300547,10.9878224 L7.27297082,10.9878224 C6.02113198,10.9878224 5.10028908,10.1619362 5.71859287,8.51016397 C5.86576191,8.11700815 6.24830064,7.48099856 6.70377095,6.5825341 L6.90296413,6.18135209 C7.13507303,5.70345981 7.35730913,5.54708213 8.26469471,5.53327267 L14.0644051,5.53224814 Z M14.292,6.934 L14.0646524,6.93224812 L8.28599877,6.93311057 L8.089,6.938 L7.88192584,7.35116182 C7.69860612,7.70049854 7.25160854,8.54307891 7.08775255,8.87596549 L7.02974338,9.00096367 L6.95585126,9.2027176 C6.83399702,9.55108778 6.87398552,9.58444963 7.18854538,9.58752086 L15.458,9.587 L15.4558593,9.5758001 C15.4268745,9.4483362 15.3825678,9.28706108 15.3181326,9.09544579 L15.2659569,8.94609976 C15.0919879,8.46566483 14.8281372,7.88751747 14.4380999,7.18987019 L14.292,6.934 Z" id="路径" fill="#d3d3d3" fill-rule="nonzero" opacity="0.7"></path>
    </g>
</svg>
