<?xml version="1.0" encoding="UTF-8"?>
<svg width="8px" height="8px" viewBox="0 0 8 8" version="1.1" xmlns="http://www.w3.org/2000/svg" xmlns:xlink="http://www.w3.org/1999/xlink">
    <title>-mockplus-</title>
    <g id="确定稿" stroke="none" stroke-width="1" fill="none" fill-rule="evenodd">
        <g id="07.1优惠券类型" transform="translate(-183.000000, -535.000000)">
            <g id="列表" transform="translate(15.000000, 296.000000)">
                <g id="盒子" transform="translate(0.000000, 18.000000)">
                    <g id="优惠券备份-2" transform="translate(15.000000, 148.000000)">
                        <g id="编组-2" transform="translate(95.000000, 10.000000)">
                            <g id="展开" transform="translate(58.000000, 63.000000)">
                                <rect id="矩形" opacity="0" x="0" y="0" width="8" height="8"></rect>
                                <path d="M4.93492244,1.85115822 L7.43937374,5.2000401 C7.76641078,5.63734484 7.67702115,6.25696627 7.23971642,6.58400331 C7.06876589,6.71184815 6.86103101,6.78093396 6.64756348,6.78093396 L1.35237728,6.78093396 C0.80631075,6.78093396 0.363636364,6.33825957 0.363636364,5.79219304 C0.363636364,5.56089045 0.444729156,5.33690811 0.592805468,5.15921653 L3.38354037,1.81033465 C3.73312364,1.39083473 4.35658876,1.33415608 4.77608869,1.68373935 C4.83538678,1.73315443 4.88869437,1.78934335 4.93492244,1.85115822 Z" id="三角形" fill="#A4ACB2" transform="translate(4.000000, 4.117740) scale(1, -1) translate(-4.000000, -4.117740) "></path>
                            </g>
                        </g>
                    </g>
                </g>
            </g>
        </g>
    </g>
</svg>