<?xml version="1.0" encoding="UTF-8"?>
<svg width="22px" height="17px" viewBox="0 0 22 17" version="1.1" xmlns="http://www.w3.org/2000/svg" xmlns:xlink="http://www.w3.org/1999/xlink">
    <title>bg_bnj_time1</title>
    <g id="确定稿" stroke="none" stroke-width="1" fill="none" fill-rule="evenodd">
        <g id="01巨拾惠首页" transform="translate(-269.000000, -1152.000000)" fill="#151921">
            <g id="内容" transform="translate(40.000000, 145.000000)">
                <g id="秒杀" transform="translate(14.000000, 1003.000000)">
                    <g id="进行中" transform="translate(0.000000, -0.000000)">
                        <g id="编组-11" transform="translate(161.000000, 1.000000)">
                            <g id="编组-4" transform="translate(54.000000, 0.000000)">
                                <g id="编组-10" transform="translate(-0.000000, 0.000000)">
                                    <g id="bg_miaosha_shijian" transform="translate(-0.000000, 0.000000)">
                                        <path d="M11,5 L12,5 L12,3 L19.3,3 C20.7911688,3 22,4.20883118 22,5.7 L22,17.3 C22,18.7911688 20.7911688,20 19.3,20 L12,20 L12,18 L11,18 L11,20 L2.7,20 C1.20883118,20 2.61237494e-09,18.7911688 2.61237432e-09,17.3 L2.61237432e-09,12 L2.7,12 L2.7,11 L2.61237432e-09,11 L2.61237432e-09,5.7 C2.61237413e-09,4.20883118 1.20883118,3 2.7,3 L11,3 L11,5 Z M21.7,11 L18.7,11 L18.7,12 L21.7,12 L21.7,11 Z" id="bg_bnj_time1"></path>
                                    </g>
                                </g>
                            </g>
                        </g>
                    </g>
                </g>
            </g>
        </g>
    </g>
</svg>