<?xml version="1.0" encoding="UTF-8"?>
<svg width="22px" height="22px" viewBox="0 0 22 22" version="1.1" xmlns="http://www.w3.org/2000/svg" xmlns:xlink="http://www.w3.org/1999/xlink">
    <title>btn/common/xiaotu</title>
    <g id="btn/common/xiaotu" stroke="none" stroke-width="1" fill="none" fill-rule="evenodd">
        <rect id="矩形" x="0" y="0" width="22" height="22"></rect>
        <g id="线稿" fill="#222222">
            <path d="M9,17.8180967 C9.49705627,17.8180967 9.9,18.2210404 9.9,18.7180967 C9.9,19.1769178 9.55666333,19.5555484 9.11289409,19.6110844 L9,19.6180967 L2,19.6180967 C1.50294373,19.6180967 1.1,19.2151529 1.1,18.7180967 C1.1,18.2592755 1.44333667,17.8806449 1.88710591,17.8251089 L2,17.8180967 L9,17.8180967 Z M20,17.8180967 C20.4970563,17.8180967 20.9,18.2210404 20.9,18.7180967 C20.9,19.1769178 20.5566633,19.5555484 20.1128941,19.6110844 L20,19.6180967 L13,19.6180967 C12.5029437,19.6180967 12.1,19.2151529 12.1,18.7180967 C12.1,18.2592755 12.4433367,17.8806449 12.8871059,17.8251089 L13,17.8180967 L20,17.8180967 Z M7,1.1 C8.60162577,1.1 9.9,2.39837423 9.9,4 L9.9,4 L9.9,13 C9.9,14.6016258 8.60162577,15.9 7,15.9 L7,15.9 L4,15.9 C2.39837423,15.9 1.1,14.6016258 1.1,13 L1.1,13 L1.1,4 C1.1,2.39837423 2.39837423,1.1 4,1.1 L4,1.1 Z M18,1.1 C19.6016258,1.1 20.9,2.39837423 20.9,4 L20.9,4 L20.9,13 C20.9,14.6016258 19.6016258,15.9 18,15.9 L18,15.9 L15,15.9 C13.3983742,15.9 12.1,14.6016258 12.1,13 L12.1,13 L12.1,4 C12.1,2.39837423 13.3983742,1.1 15,1.1 L15,1.1 Z M7,2.9 L4,2.9 C3.39248678,2.9 2.9,3.39248678 2.9,4 L2.9,4 L2.9,13 C2.9,13.6075132 3.39248678,14.1 4,14.1 L4,14.1 L7,14.1 C7.60751322,14.1 8.1,13.6075132 8.1,13 L8.1,13 L8.1,4 C8.1,3.39248678 7.60751322,2.9 7,2.9 L7,2.9 Z M18,2.9 L15,2.9 C14.3924868,2.9 13.9,3.39248678 13.9,4 L13.9,4 L13.9,13 C13.9,13.6075132 14.3924868,14.1 15,14.1 L15,14.1 L18,14.1 C18.6075132,14.1 19.1,13.6075132 19.1,13 L19.1,13 L19.1,4 C19.1,3.39248678 18.6075132,2.9 18,2.9 L18,2.9 Z" id="形状结合"></path>
        </g>
    </g>
</svg>