<?xml version="1.0" encoding="UTF-8"?>
<svg width="22px" height="22px" viewBox="0 0 22 22" version="1.1" xmlns="http://www.w3.org/2000/svg" xmlns:xlink="http://www.w3.org/1999/xlink">
    <title>btn/common/datu</title>
    <g id="btn/common/datu" stroke="none" stroke-width="1" fill="none" fill-rule="evenodd">
        <rect id="矩形" x="0" y="0" width="22" height="22"></rect>
        <g id="线稿" fill="#222222">
            <path d="M18,18.6 C18.4970563,18.6 18.9,19.0029437 18.9,19.5 C18.9,19.9588212 18.5566633,20.3374518 18.1128941,20.3929877 L18,20.4 L4.5,20.4 C4.00294373,20.4 3.6,19.9970563 3.6,19.5 C3.6,19.0411788 3.94333667,18.6625482 4.38710591,18.6070123 L4.5,18.6 L18,18.6 Z M17,1.1 C18.6016258,1.1 19.9,2.39837423 19.9,4 L19.9,4 L19.9,14 C19.9,15.6016258 18.6016258,16.9 17,16.9 L17,16.9 L5,16.9 C3.39837423,16.9 2.1,15.6016258 2.1,14 L2.1,14 L2.1,4 C2.1,2.39837423 3.39837423,1.1 5,1.1 L5,1.1 Z M17,2.9 L5,2.9 C4.39248678,2.9 3.9,3.39248678 3.9,4 L3.9,4 L3.9,14 C3.9,14.6075132 4.39248678,15.1 5,15.1 L5,15.1 L17,15.1 C17.6075132,15.1 18.1,14.6075132 18.1,14 L18.1,14 L18.1,4 C18.1,3.39248678 17.6075132,2.9 17,2.9 L17,2.9 Z" id="形状结合"></path>
        </g>
        <g id="线稿"></g>
    </g>
</svg>