<?xml version="1.0" encoding="UTF-8"?>
<svg width="30px" height="31px" viewBox="0 0 30 31" version="1.1" xmlns="http://www.w3.org/2000/svg" xmlns:xlink="http://www.w3.org/1999/xlink">
    <title>btn_tab_fwh_nor</title>
    <g id="图标" stroke="none" stroke-width="1" fill="none" fill-rule="evenodd">
        <g id="btn_tab_fwh_nor" fill="#222222" transform="translate(0.000000, 0.029437)">
            <g id="轮廓" transform="translate(5.100000, 3.070563)">
                <path d="M9.8,11 L9.8,15.9 C9.8,18.6061953 7.60619527,20.8 4.9,20.8 C2.19380473,20.8 1.0658141e-14,18.6061953 1.0658141e-14,15.9 C1.0658141e-14,13.1938047 2.19380473,11 4.9,11 L9.8,11 Z M15.9,11 C18.6061953,11 20.8,13.1938047 20.8,15.9 C20.8,18.6061953 18.6061953,20.8 15.9,20.8 C13.1938047,20.8 11,18.6061953 11,15.9 L11,15.9 L11,11 Z M8,12.8 L4.9,12.8 C3.18791728,12.8 1.8,14.1879173 1.8,15.9 C1.8,17.6120827 3.18791728,19 4.9,19 L5.07591203,18.9950927 C6.70615084,18.9038961 8,17.5530454 8,15.9 L8,12.8 Z M15.9,12.8 L12.8,12.8 L12.8,15.9 C12.8,17.5530454 14.0938492,18.9038961 15.724088,18.9950927 L15.724088,18.9950927 L15.9,19 C17.6120827,19 19,17.6120827 19,15.9 C19,14.1879173 17.6120827,12.8 15.9,12.8 L15.9,12.8 Z M4.9,-4.61852778e-14 C7.60619527,-4.61852778e-14 9.8,2.19380473 9.8,4.9 L9.8,4.9 L9.8,9.8 L4.9,9.8 C2.19380473,9.8 1.0658141e-14,7.60619527 1.0658141e-14,4.9 C1.0658141e-14,2.19380473 2.19380473,-4.61852778e-14 4.9,-4.61852778e-14 Z M15.9,-4.61852778e-14 C18.6061953,-4.61852778e-14 20.8,2.19380473 20.8,4.9 C20.8,7.60619527 18.6061953,9.8 15.9,9.8 L11,9.8 L11,4.9 C11,2.19380473 13.1938047,-4.61852778e-14 15.9,-4.61852778e-14 Z M4.9,1.8 C3.18791728,1.8 1.8,3.18791728 1.8,4.9 C1.8,6.61208272 3.18791728,8 4.9,8 L4.9,8 L8,8 L8,4.9 C8,3.24695461 6.70615084,1.89610389 5.07591203,1.80490734 L5.07591203,1.80490734 Z M15.9,1.8 L15.724088,1.80490734 C14.0938492,1.89610389 12.8,3.24695461 12.8,4.9 L12.8,8 L15.9,8 C17.6120827,8 19,6.61208272 19,4.9 C19,3.18791728 17.6120827,1.8 15.9,1.8 Z" id="形状结合"></path>
            </g>
        </g>
    </g>
</svg>