<?xml version="1.0" encoding="UTF-8"?>
<svg width="3px" height="12px" viewBox="0 0 3 12" version="1.1" xmlns="http://www.w3.org/2000/svg" xmlns:xlink="http://www.w3.org/1999/xlink">
    <title>形状结合备份</title>
    <g id="确定稿" stroke="none" stroke-width="1" fill="none" fill-rule="evenodd">
        <g id="01巨拾惠首页" transform="translate(-331.000000, -1154.000000)" fill="#222222">
            <g id="内容" transform="translate(40.000000, 145.000000)">
                <g id="秒杀" transform="translate(14.000000, 1003.000000)">
                    <g id="进行中" transform="translate(0.000000, -0.000000)">
                        <g id="编组-11" transform="translate(161.000000, 1.000000)">
                            <g id="编组-4" transform="translate(54.000000, 0.000000)">
                                <path d="M63.5882353,13.75 C64.3354441,13.75 64.9411765,14.3656085 64.9411765,15.125 C64.9411765,15.8843915 64.3354441,16.5 63.5882353,16.5 C62.8410265,16.5 62.2352941,15.8843915 62.2352941,15.125 C62.2352941,14.3656085 62.8410265,13.75 63.5882353,13.75 Z M63.5882353,5.5 C64.3354441,5.5 64.9411765,6.11560847 64.9411765,6.875 C64.9411765,7.63439153 64.3354441,8.25 63.5882353,8.25 C62.8410265,8.25 62.2352941,7.63439153 62.2352941,6.875 C62.2352941,6.11560847 62.8410265,5.5 63.5882353,5.5 Z" id="形状结合备份"></path>
                            </g>
                        </g>
                    </g>
                </g>
            </g>
        </g>
    </g>
</svg>