<?xml version="1.0" encoding="UTF-8"?>
<svg width="22px" height="22px" viewBox="0 0 22 22" version="1.1" xmlns="http://www.w3.org/2000/svg" xmlns:xlink="http://www.w3.org/1999/xlink">
    <!-- Generator: Sketch 60 (88103) - https://sketch.com -->
    <title>h5 svg/icon/plane/switch2</title>
    <desc>Created with Sketch.</desc>
    <g id="h5-svg/icon/plane/switch2" stroke="none" stroke-width="1" fill="none" fill-rule="evenodd">
        <path d="M20,11 C20,15.9705627 15.9705627,20 11,20 C8.76906866,20 6.72772444,19.188281 5.15519797,17.8440738 L5.76429435,17.0489187 C7.16743757,18.2644876 8.99782473,19 11,19 C15.418278,19 19,15.418278 19,11 C19,9.68173614 18.681147,8.43794438 18.116356,7.34153968 C18.022508,7.04153796 18.1090359,6.84074145 18.3759394,6.73915014 C18.642843,6.63755884 18.8670126,6.71380901 19.0484482,6.96790064 C19.6572807,8.18081678 20,9.55038521 20,11 Z M11,2 C13.0151653,2 14.8756423,2.66229983 16.375635,3.78110369 L15.7666944,4.57453187 C14.4353895,3.58528972 12.7860456,3 11,3 C6.581722,3 3,6.581722 3,11 C3,12.0087393 3.18669971,12.9738725 3.52742936,13.8627299 C3.59474002,14.1322962 3.49644118,14.3200237 3.23253283,14.4259122 C2.96862448,14.5318008 2.75728355,14.467823 2.59851004,14.2339788 C2.21191958,13.2303148 2,12.1399057 2,11 C2,6.02943725 6.02943725,2 11,2 Z" id="形状" fill="#222" fill-rule="nonzero"></path>
        <path d="M16.81,3.71333333 L18.06,5.38 C18.1262742,5.46836556 18.1083656,5.59372583 18.02,5.66 C17.9853808,5.68596443 17.943274,5.7 17.9,5.7 L15.4,5.7 C15.2895431,5.7 15.2,5.61045695 15.2,5.5 C15.2,5.45672596 15.2140356,5.41461923 15.24,5.38 L16.49,3.71333333 C16.5562742,3.62496777 16.6816344,3.60705916 16.77,3.67333333 C16.7851611,3.68470418 16.7986292,3.6981722 16.81,3.71333333 Z" id="三角形备份-2" fill="#222" transform="translate(16.650000, 4.600000) rotate(-235.000000) translate(-16.650000, -4.600000) "></path>
        <path d="M4.81,15.9947752 L6.06,17.6614418 C6.12627417,17.7498074 6.10836556,17.8751676 6.02,17.9414418 C5.98538077,17.9674062 5.94327404,17.9814418 5.9,17.9814418 L3.4,17.9814418 C3.28954305,17.9814418 3.2,17.8918988 3.2,17.7814418 C3.2,17.7381678 3.21403557,17.6960611 3.24,17.6614418 L4.49,15.9947752 C4.55627417,15.9064096 4.68163444,15.888501 4.77,15.9547752 C4.78516113,15.966146 4.79862915,15.979614 4.81,15.9947752 Z" id="三角形备份" fill="#222" transform="translate(4.650000, 16.881442) rotate(-54.000000) translate(-4.650000, -16.881442) "></path>
    </g>
</svg>