<?xml version="1.0" encoding="UTF-8"?>
<svg width="22px" height="22px" viewBox="0 0 22 22" version="1.1" xmlns="http://www.w3.org/2000/svg" xmlns:xlink="http://www.w3.org/1999/xlink" style="background: #E8E8E8;">
    <!-- Generator: Sketch 60 (88103) - https://sketch.com -->
    <title>h5 svg/icon/mall/daifahuo</title>
    <desc>Created with Sketch.</desc>
    <g id="h5-svg/icon/mall/daifahuo" stroke="none" stroke-width="1" fill="none" fill-rule="evenodd">
        <rect fill="#E8E8E8" x="0" y="0" width="22" height="22"></rect>
        <g id="h5-svg/icon/mall/yiwancheng备份">
            <g id="h5-svg/icon/mall/daifahuo">
                <g id="icon/common/success">
                    <g id="编组">
                        <circle id="椭圆形" fill="#FFFFFF" cx="11" cy="11" r="11"></circle>
                        <g id="待发货" transform="translate(5.500000, 5.500000)" fill="#FFA501" fill-rule="nonzero">
                            <path d="M10.4934211,1.9256651 L5.86184211,0.0539906103 C5.64473684,-0.0179968701 5.42763158,-0.0179968701 5.21052632,0.0539906103 L0.506578947,1.9256651 C0.217105263,1.99765258 0,2.35758998 0,2.64553991 L0,8.11658842 C0,8.40453834 0.144736842,8.69248826 0.434210526,8.83646322 L5.13815789,11.356025 C5.21052632,11.5 5.35526316,11.5 5.5,11.5 C5.64473684,11.5 5.78947368,11.5 5.86184211,11.4280125 L10.5657895,8.9084507 C10.8552632,8.76447574 11,8.47652582 11,8.1885759 L11,2.64553991 C11,2.35758998 10.7828947,1.99765258 10.4934211,1.9256651 Z M5.42763158,0.557902973 C5.42763158,0.557902973 5.5,0.557902973 5.5,0.557902973 C5.5,0.557902973 5.57236842,0.557902973 5.57236842,0.557902973 L10.0592105,2.35758998 L8.90131579,3.00547731 L4.41447368,0.917840376 L5.42763158,0.557902973 Z M2.38815789,1.78169014 L6.875,4.01330203 L5.75,4.5 L1.25,2.25 L2.38815789,1.78169014 Z M0.75,8.25 C0.677631579,8.17801252 0.578947368,8.0680994 0.578947368,7.99611192 L0.578947368,2.71752739 L5,5 L5,10.5 L0.75,8.25 Z M10.4934211,8.1885759 C10.4934211,8.26056338 10.4210526,8.40453834 10.3486842,8.40453834 L5.78947368,10.7152434 L5.78947368,5.26445739 L7.23684211,4.6133604 L7.23684211,6.24491393 C7.23684211,6.46087637 7.45394737,6.60485133 7.67105263,6.46087637 L9.11842105,5.74100156 C9.19078947,5.66901408 9.26315789,5.5970266 9.26315789,5.52503912 L9.26315789,3.62119437 L10.4934211,2.93434809 L10.4934211,8.1885759 Z" id="形状"></path>
                        </g>
                    </g>
                </g>
            </g>
        </g>
    </g>
</svg>