<?xml version="1.0" encoding="UTF-8"?>
<svg width="22px" height="21px" viewBox="0 0 22 21" version="1.1" xmlns="http://www.w3.org/2000/svg" xmlns:xlink="http://www.w3.org/1999/xlink">
    <!-- Generator: Sketch 60 (88103) - https://sketch.com -->
    <title>h5 svg/icon/invoice/seal@2x</title>
    <desc>Created with Sketch.</desc>
    <g id="h5-svg/icon/invoice/seal" stroke="none" stroke-width="1" fill="none" fill-rule="evenodd">
        <path d="M4.75632003,8.06020167 L5.14216618,7.85940651 L5.26521908,8.11040046 L4.87937293,8.31119562 L4.75632003,8.06020167 Z M5.3025284,8.18709306 L5.41106459,8.41019879 C5.42571753,8.46107055 5.46297501,8.50178607 5.51148038,8.51993463 C5.55998576,8.53808319 5.61399109,8.53151417 5.65703473,8.5022299 L6.03121324,8.3084068 C6.08197153,8.28786767 6.12386036,8.24926834 6.14924635,8.19964275 C6.14916577,8.11048369 6.12738528,8.02276179 6.08588835,7.94446557 L5.99797403,7.95840968 C6.03410476,8.02206316 6.05433398,8.09392311 6.05685492,8.16757131 C6.04167497,8.20072879 6.01473785,8.22666865 5.98155794,8.24008067 L5.63926193,8.41856525 C5.61127984,8.43662552 5.57667763,8.44015612 5.54578689,8.42810288 C5.51489614,8.41604964 5.49129122,8.38980724 5.48202012,8.35721118 L5.37877507,8.14665514 L5.85172152,7.90123884 L5.49640117,7.17753961 L5.02359039,7.42295592 L4.91953132,7.21100547 L4.8426063,7.25004898 L4.94666537,7.46199942 L4.48253749,7.70462691 L4.90311522,8.56218957 L4.98139695,8.52175166 L4.91546121,8.38788822 L5.3025284,8.18709306 Z M5.34214411,8.07135696 L5.2190912,7.82036301 L5.61511263,7.6139902 L5.73816553,7.86498415 L5.34214411,8.07135696 Z M5.57766764,7.53729761 L5.18164622,7.74367041 L5.06225641,7.50104293 L5.45827783,7.29467012 L5.57766764,7.53729761 Z M4.98546706,7.54008643 L5.10485686,7.78410833 L4.71901071,7.98490349 L4.5996209,7.74088159 L4.98546706,7.54008643 Z M6.44460045,7.32534716 L6.46685037,7.41180063 L7.13868939,7.22634399 L7.27015385,7.73251513 C7.27881275,7.75527423 7.27658572,7.78088969 7.26413795,7.80171034 C7.25169019,7.82253098 7.23046264,7.83614662 7.20679585,7.83849035 C7.11576112,7.86358974 7.03042454,7.88450591 6.95363518,7.90681648 L6.99908471,7.98350908 L7.26269198,7.91099971 C7.30069189,7.90633699 7.33436667,7.88363282 7.35366294,7.84966539 C7.37295921,7.81569796 7.37564454,7.77439705 7.36091723,7.73809277 L7.22185524,7.20403342 L7.82938656,7.03670412 L7.80713664,6.95025065 L7.19960532,7.11757995 L7.14832197,6.92096802 C7.2782944,6.77595327 7.39522222,6.61913883 7.49767283,6.45244598 L7.47582993,6.36738692 L6.44473612,6.65184673 L6.46657903,6.73551138 L7.38018241,6.48451743 C7.28637208,6.63336314 7.17655648,6.77088135 7.05281013,6.89447421 L7.11671081,7.14128493 L6.44460045,7.32534716 Z M8.45346965,6.59467589 L8.86048036,6.54587151 C8.80948718,6.90742866 8.65835305,7.24627049 8.42511457,7.52195909 L8.47938267,7.59865169 C8.66094668,7.3968904 8.79414136,7.15432487 8.86834924,6.89029098 C8.95075451,7.02647188 9.06606239,7.13840328 9.20304771,7.21518871 C9.06462706,7.33360348 8.91301725,7.43470866 8.75140149,7.51638145 L8.80566959,7.59307404 C8.97750036,7.50300682 9.13789249,7.39154567 9.28322882,7.26120426 C9.46118235,7.3514945 9.64908744,7.41938184 9.84286855,7.46339383 L9.87705745,7.37554595 C9.69452307,7.33677406 9.51696974,7.27641255 9.34794352,7.19566695 C9.46613711,7.07695126 9.54783924,6.92519872 9.58292438,6.75921636 L9.57397014,6.68112936 L8.90416618,6.76061077 C8.92207465,6.68810141 8.93659137,6.61419764 8.95042973,6.53471622 L9.7396235,6.43989628 L9.72999091,6.35483722 L8.96345407,6.44826275 C8.9810912,6.31579372 8.99126647,6.17495823 8.99723596,6.02575627 L8.9072866,6.02715068 C8.903854,6.17132539 8.89243923,6.3151824 8.8730977,6.45802362 L8.5567147,6.49706713 L8.61925868,6.14009795 L8.53053035,6.13730913 L8.45346965,6.59467589 Z M8.93319961,6.8414866 L9.49487439,6.77455488 C9.45343087,6.91946878 9.37512525,7.05039654 9.26803376,7.15383463 C9.13136908,7.08219564 9.015781,6.97436999 8.93319961,6.8414866 L8.93319961,6.8414866 Z M9.26993314,6.00623451 L9.21688608,6.07177182 C9.33331888,6.14341859 9.44169786,6.228061 9.54005258,6.32416018 L9.59567738,6.25165082 C9.49514153,6.15912442 9.38604062,6.0769276 9.26993314,6.00623451 L9.26993314,6.00623451 Z M10.3489185,5.98252953 L10.3489185,6.06201095 L10.849406,6.06619418 L10.8483207,6.22236819 L10.4712931,6.21957937 L10.4687154,6.57515413 L11.6599,6.58491501 L11.6624778,6.22794584 L11.2870782,6.22515702 L11.2882993,6.07037741 L11.7871587,6.07456065 L11.7871587,5.99368482 L10.3489185,5.98252953 Z M11.202013,6.22515702 L10.9323006,6.22236819 L10.9333859,6.06758859 L11.203234,6.068983 L11.202013,6.22515702 Z M11.5753775,6.50543359 L11.2845005,6.50403918 L11.2859929,6.30324402 L11.5768698,6.30463843 L11.5753775,6.50543359 Z M11.1999779,6.50264477 L10.9302655,6.50125036 L10.9317579,6.3004552 L11.2014703,6.30184961 L11.1999779,6.50264477 Z M10.8457429,6.49985595 L10.5532379,6.49706713 L10.5547303,6.29627197 L10.8472353,6.29906079 L10.8457429,6.49985595 Z M10.5304453,6.71738404 L10.5304453,6.79686546 L11.6014262,6.80523192 L11.6014262,6.7257505 L10.5304453,6.71738404 Z M10.367641,6.94188418 L10.367641,7.01997119 L11.0355456,7.02554883 L11.0335105,7.29327571 C11.0343005,7.3133733 11.0259317,7.33270107 11.0108758,7.34555081 C10.9958199,7.35840055 10.9757972,7.36330401 10.9567212,7.35881302 C10.9143921,7.35881302 10.8689426,7.35462979 10.823493,7.35184097 L10.8407231,7.43411121 L10.9853476,7.43550562 C11.0199363,7.44193457 11.0554649,7.43143572 11.0814495,7.40710705 C11.1074342,7.38277838 11.1209088,7.34739696 11.1178974,7.31140305 L11.1200682,7.02554883 L11.7521558,7.03112648 L11.7521558,6.95164506 L10.367641,6.94188418 Z M11.380555,7.10503025 L11.3216741,7.16080668 C11.4551759,7.23659647 11.5813335,7.32531154 11.6984304,7.42574474 L11.7605673,7.36439067 C11.641989,7.26615738 11.5148736,7.17933843 11.3808264,7.10503025 L11.380555,7.10503025 Z M10.7678682,7.10363584 C10.6457602,7.20313145 10.5105561,7.28434914 10.3662843,7.34486891 L10.4194671,7.41598387 C10.5671701,7.35122539 10.7047012,7.26428913 10.8275631,7.15801786 L10.7678682,7.10363584 Z M12.3442207,6.47893979 L12.3332314,6.56539326 L12.7747024,6.62535292 C12.7262681,6.73551138 12.6752561,6.84009219 12.6231587,6.94048977 L13.4303966,7.04925382 C13.3090477,7.17290129 13.1686906,7.27513521 13.0149744,7.35184097 C12.9030464,7.29048689 12.7858273,7.23331605 12.6631814,7.17893402 L12.607421,7.24447133 C12.8590938,7.35374026 13.0998981,7.4877624 13.3264732,7.64466724 L13.3845401,7.5749467 C13.2955404,7.51359262 13.2013853,7.45642178 13.101939,7.40064535 C13.26522,7.31593196 13.4112791,7.19998275 13.532285,7.05901469 L13.5423246,6.97813886 L12.7554372,6.87216364 C12.7922038,6.8024431 12.8300558,6.72435609 12.8672295,6.63790262 L13.7726926,6.76061077 L13.7836819,6.6741573 L12.9018254,6.55563238 C12.9304518,6.48451743 12.9581285,6.40921925 12.987976,6.32834342 L13.7162538,6.42734659 L13.7269718,6.34228753 L13.0180948,6.24607318 C13.038988,6.18611351 13.0602882,6.1205762 13.0822668,6.05085566 L12.9962519,6.03133391 C12.9745446,6.09966004 12.9512093,6.16659176 12.9284167,6.23491789 L12.4949503,6.17635264 L12.4840967,6.26001729 L12.898298,6.31718813 C12.8689932,6.39248632 12.8396884,6.4677845 12.8088913,6.54308269 L12.3442207,6.47893979 Z M14.5738254,6.89726304 L15.001865,7.02415442 L14.9159857,7.33231922 L14.4863181,7.20682224 C14.4890315,7.19706137 14.4928302,7.1886949 14.495001,7.18172285 L14.5738254,6.89726304 Z M14.458777,7.28630366 L14.8929218,7.41458946 L14.7595579,7.89426678 L14.8439448,7.91936618 L14.9773087,7.43968885 L15.43506,7.5749467 L15.3495878,7.88171708 C15.346911,7.91182822 15.3306179,7.93889454 15.3055961,7.95479647 C15.2805743,7.97069841 15.2497348,7.97358597 15.2223291,7.96259291 C15.1691464,7.94725439 15.1117579,7.92912705 15.0501636,7.90681648 L15.0483999,7.99884759 L15.2280273,8.05183521 C15.2685962,8.07000861 15.3150948,8.06766913 15.3537427,8.04551009 C15.3923907,8.02335105 15.4187543,7.98391451 15.4250204,7.93888793 L15.7595833,6.73551138 L14.6190036,6.39945837 L14.4070867,7.16220109 C14.3563936,7.36219361 14.2464439,7.54103403 14.0924674,7.67394987 L14.1384596,7.75064247 C14.2881186,7.63219821 14.3999426,7.47050673 14.459591,7.28630366 L14.458777,7.28630366 Z M15.458124,7.49267646 L15.0003726,7.35741861 L15.0862519,7.04925382 L15.5440032,7.18451167 L15.458124,7.49267646 Z M15.5666602,7.10363584 L15.1089088,6.96837799 L15.1942454,6.66160761 L15.6519968,6.79686546 L15.5666602,7.10363584 Z M15.1098585,6.63650821 L15.0245219,6.94327859 L14.5963466,6.81778162 L14.6818189,6.50961683 L15.1098585,6.63650821 Z M16.6881104,8.25541919 L16.6231243,8.37952175 L16.0314664,8.04904638 L15.9928004,8.12295016 L16.5844583,8.45203111 L16.4831126,8.64585422 L16.560309,8.68768655 L16.6616547,8.49525785 L17.2476144,8.82154999 L17.2864161,8.74904062 L16.7003207,8.42135408 L16.7653067,8.29864592 L17.1640415,8.52035725 L17.3884401,8.09366753 L16.5107894,7.60422933 L16.2865265,8.03091904 L16.6881104,8.25541919 Z M16.4588277,7.89287237 L17.1820857,8.2958571 L17.1225265,8.41019879 L16.3992684,8.00721406 L16.4588277,7.89287237 Z M17.2161389,8.2317142 L16.4928809,7.82872947 L16.5524401,7.7157822 L17.2756981,8.11876693 L17.2161389,8.2317142 Z M16.8175398,7.33371363 L16.7939331,7.52614232 L16.4380701,7.32813598 L16.4008965,7.39925094 L17.6144667,8.07554019 L17.6515047,8.00442524 L17.2987621,7.80781331 L17.4423012,7.68231634 L17.6610016,7.80363008 L17.6973612,7.73530395 L17.2028432,7.4592106 C17.2128718,7.40945633 17.2202991,7.35918546 17.2250932,7.30861423 L17.1344654,7.27654278 C17.1322394,7.32230356 17.127711,7.3679153 17.1208984,7.41319504 L16.6305862,7.14128493 L16.5942265,7.20961106 L16.8175398,7.33371363 Z M16.8711295,7.56936906 L16.8946005,7.37694036 L17.3619844,7.63769519 L17.2184453,7.76319216 L16.8711295,7.56936906 Z M11,16.9230769 C5.08070756,16.9230769 0.282051282,14.1454105 0.282051282,10.7179487 C0.282051282,7.29048689 5.08070756,4.51282051 11,4.51282051 C16.9192924,4.51282051 21.7179487,7.29048689 21.7179487,10.7179487 C21.7179487,14.1454105 16.9192924,16.9230769 11,16.9230769 Z M11.0714982,4.95624316 C5.50725479,4.95624316 0.710769231,7.42156151 0.710769231,10.6440449 C0.710769231,13.8665284 5.50725479,16.4796543 11.0714982,16.4796543 C16.6357416,16.4796543 21.2892308,13.8665284 21.2892308,10.6440449 C21.2892308,7.42156151 16.635606,4.95624316 11.0714982,4.95624316 Z M11,15.8884241 C5.63315677,15.8884241 1.28234794,13.5402362 1.28234794,10.6440449 C1.28234794,7.74785364 5.63315677,5.3996658 11,5.3996658 C16.3668432,5.3996658 20.7176521,7.74785364 20.7176521,10.6440449 C20.7176521,13.5402362 16.3668432,15.8884241 11,15.8884241 Z M11.0648504,5.63392682 C6.01995261,5.63392682 1.53537293,7.8580121 1.53537293,10.5812965 C1.53537293,13.3045808 6.01995261,15.6541631 11.0648504,15.6541631 C16.1097481,15.6541631 20.4646271,13.3059752 20.4646271,10.5812965 C20.4646271,7.85661769 16.1096125,5.63392682 11.0648504,5.63392682 Z M11.0678351,13.4370498 L11.2690341,13.8316681 L11.6783512,13.9167272 L11.3934437,14.2444137 L11.445134,14.6920196 L11.0678351,14.5009853 L10.6905362,14.6920196 L10.7422265,14.2444137 L10.4573191,13.9167272 L10.8666362,13.8316681 L11.0678351,13.4370498 M8.35443038,13.0187266 L8.55562934,13.4133449 L8.96481078,13.4984039 L8.67990328,13.8274849 L8.73159364,14.2736963 L8.35429471,14.0826621 L7.97699578,14.2736963 L8.02868614,13.8274849 L7.74377864,13.4984039 L8.15296008,13.4133449 L8.35443038,13.0187266 M13.5098994,13.0187266 L13.7110983,13.4133449 L14.1204154,13.4984039 L13.835508,13.8274849 L13.8871983,14.2736963 L13.5098994,14.0826621 L13.1326005,14.2736963 L13.1842908,13.8274849 L12.8993833,13.4984039 L13.3087004,13.4133449 L13.5098994,13.0187266" id="形状_2_拷贝_2" fill="#FF4E3A"></path>
    </g>
</svg>