<?xml version="1.0" encoding="UTF-8"?>
<svg width="40px" height="40px" viewBox="0 0 40 40" version="1.1" xmlns="http://www.w3.org/2000/svg" xmlns:xlink="http://www.w3.org/1999/xlink">
    <!-- Generator: Sketch 60 (88103) - https://sketch.com -->
    <title>icon_plane_plane</title>
    <desc>Created with Sketch.</desc>
    <defs>
        <linearGradient x1="50%" y1="0%" x2="50%" y2="100%" id="linearGradient-1">
            <stop stop-color="#7C85FE" offset="0%"></stop>
            <stop stop-color="#262DD9" offset="100%"></stop>
        </linearGradient>
    </defs>
    <g id="icon_plane_plane" stroke="none" stroke-width="1" fill="none" fill-rule="evenodd">
        <path d="M23.6704304,13.3659277 L21.073,15.959 L15.3044695,14.5639653 C14.9659442,14.4820699 14.6091945,14.5822099 14.3627381,14.8283105 L13.9396612,15.2507767 L13.8569074,15.3440798 C13.4781834,15.8277872 13.6228091,16.5543128 14.1861361,16.8462503 L18.113,18.881 L15.458,21.534 L14.3799045,21.3364541 C14.0568594,21.277205 13.7253147,21.3803604 13.4929094,21.6124302 L13.2976432,21.8074146 L13.2151239,21.9004225 C12.8373444,22.3825874 12.9795504,23.1066936 13.5396375,23.4005519 L15.183,24.262 L16.0482665,25.9054522 C16.3619125,26.5015294 17.1632068,26.6233489 17.6398289,26.1474149 L17.8676395,25.9199332 L17.947003,25.8306092 C18.1184687,25.6126832 18.1928861,25.3314355 18.1484487,25.0541026 L17.969,23.935 L20.598,21.331 L22.6423748,25.2890643 C22.9529265,25.8903622 23.7585824,26.0159948 24.2374682,25.5378003 L24.6280008,25.1478316 L24.7136843,25.0503976 C24.8972614,24.8120968 24.9652209,24.501236 24.8932118,24.2044361 L23.496,18.446 L26.0599534,15.8860739 C26.4585029,15.4262941 26.646257,14.97321 26.646257,14.4635139 C26.646257,13.9065648 26.3341526,13.416823 25.8749586,13.1111357 C25.173475,12.644155 24.2594932,12.7777154 23.6704304,13.3659277 Z" fill="url(#linearGradient-1)" fill-rule="nonzero" transform="translate(19.825178, 19.634741) rotate(-315.000000) translate(-19.825178, -19.634741) "></path>
    </g>
</svg>