<?xml version="1.0" encoding="UTF-8"?>
<svg width="16px" height="16px" viewBox="0 0 16 16" version="1.1" xmlns="http://www.w3.org/2000/svg" xmlns:xlink="http://www.w3.org/1999/xlink">
    <title>-mockplus-</title>
    <g id="确定稿" stroke="none" stroke-width="1" fill="none" fill-rule="evenodd">
        <g id="7.2线下-奖品详情" transform="translate(-226.000000, -440.000000)">
            <g id="编组-2" transform="translate(0.000000, 88.000000)">
                <g id="编组-7" transform="translate(133.000000, 349.000000)">
                    <g id="轮廓" transform="translate(93.000000, 3.000000)">
                        <rect id="矩形" opacity="0" x="0" y="0" width="16" height="16"></rect>
                        <path d="M8,0.727272727 C12.0166164,0.727272727 15.2727273,3.98338364 15.2727273,8 C15.2727273,12.0166164 12.0166164,15.2727273 8,15.2727273 C3.98338364,15.2727273 0.727272727,12.0166164 0.727272727,8 C0.727272727,3.98338364 3.98338364,0.727272727 8,0.727272727 Z M8,2.03636364 C4.70637458,2.03636364 2.03636364,4.70637458 2.03636364,8 C2.03636364,11.2936254 4.70637458,13.9636364 8,13.9636364 C11.2936254,13.9636364 13.9636364,11.2936254 13.9636364,8 C13.9636364,4.70637458 11.2936254,2.03636364 8,2.03636364 Z M8,10.6181818 C8.33368813,10.6181818 8.60905584,10.8678812 8.64944562,11.1906225 L8.65454545,11.2727273 L8.65454545,11.8181818 C8.65454545,12.1796773 8.36149547,12.4727273 8,12.4727273 C7.66631187,12.4727273 7.39094416,12.2230279 7.35055438,11.9002866 L7.34545455,11.8181818 L7.34545455,11.2727273 C7.34545455,10.9112318 7.63850453,10.6181818 8,10.6181818 Z M8,3.68967379 C8.33368813,3.68967379 8.60905584,3.93937318 8.64944562,4.26211445 L8.65454545,4.34421924 L8.65454545,8.72727273 C8.65454545,9.0887682 8.36149547,9.38181818 8,9.38181818 C7.66631187,9.38181818 7.39094416,9.13211879 7.35055438,8.80937752 L7.34545455,8.72727273 L7.34545455,4.34421924 C7.34545455,3.98272377 7.63850453,3.68967379 8,3.68967379 Z" id="形状结合" fill="#F30300"></path>
                    </g>
                </g>
            </g>
        </g>
    </g>
</svg>