<?xml version="1.0" encoding="UTF-8"?>
<svg width="22px" height="22px" viewBox="0 0 22 22" version="1.1" xmlns="http://www.w3.org/2000/svg" xmlns:xlink="http://www.w3.org/1999/xlink">
    <title>close3</title>
    <g id="确定稿" stroke="none" stroke-width="1" fill="none" fill-rule="evenodd">
        <g id="7.2线下-奖品详情兑换码" transform="translate(-299.000000, -282.000000)" fill="#999999">
            <g id="10弹框Popup/3弹框/e特殊弹框" transform="translate(40.000000, 270.000000)">
                <g id="-mockplus-" transform="translate(259.000000, 12.000000)">
                    <g id="合并形状-2" transform="translate(-1.099383, -1.099383)">
                        <path d="M12.2742748,3.54382714 C12.7467851,3.54382714 13.1298303,3.92687241 13.1298303,4.3993827 L13.1298271,11.2048271 L19.7993827,11.2051148 C20.271893,11.2051148 20.6549383,11.5881601 20.6549383,12.0606703 L20.6549383,12.3458555 C20.6549383,12.8183658 20.271893,13.2014111 19.7993827,13.2014111 L13.1298271,13.2008271 L13.1298303,19.7993827 C13.1298303,20.271893 12.7467851,20.6549383 12.2742748,20.6549383 L11.9890896,20.6549383 C11.5165793,20.6549383 11.133534,20.271893 11.133534,19.7993827 L11.1328271,13.2008271 L4.3993827,13.2014111 C3.92687241,13.2014111 3.54382714,12.8183658 3.54382714,12.3458555 L3.54382714,12.0606703 C3.54382714,11.5881601 3.92687241,11.2051148 4.3993827,11.2051148 L11.1328271,11.2048271 L11.133534,4.3993827 C11.133534,3.92687241 11.5165793,3.54382714 11.9890896,3.54382714 L12.2742748,3.54382714 Z" id="合并形状" transform="translate(12.099383, 12.099383) rotate(45.000000) translate(-12.099383, -12.099383) "></path>
                    </g>
                </g>
            </g>
        </g>
    </g>
</svg>