<?xml version="1.0" encoding="UTF-8"?>
<svg width="29px" height="28px" viewBox="0 0 29 28" version="1.1" xmlns="http://www.w3.org/2000/svg" xmlns:xlink="http://www.w3.org/1999/xlink">
    <title>轮廓</title>
    <g id="优惠券" stroke="none" stroke-width="1" fill="none" fill-rule="evenodd">
        <g id="2.1中奖了" transform="translate(-174.000000, -617.000000)" fill="#FFFFFF">
            <g id="卡片" transform="translate(36.000000, 157.246424)">
                <g id="轮廓" transform="translate(138.401911, 459.753576)">
                    <path d="M14,0 C21.7319865,0 28,6.2680135 28,14 C28,21.7319865 21.7319865,28 14,28 C6.2680135,28 0,21.7319865 0,14 C0,6.2680135 6.2680135,0 14,0 Z M14,2.29090909 C7.53324766,2.29090909 2.29090909,7.53324766 2.29090909,14 C2.29090909,20.4667523 7.53324766,25.7090909 14,25.7090909 C20.4667523,25.7090909 25.7090909,20.4667523 25.7090909,14 C25.7090909,7.53324766 20.4667523,2.29090909 14,2.29090909 Z M19.0076787,9.3479966 C19.4205967,9.76091459 19.4523596,10.410652 19.1029674,10.8600037 L19.0076787,10.967914 L15.716,14.259 L19.0076787,17.5506046 C19.4550065,17.9979324 19.4550065,18.7231941 19.0076787,19.1705219 C18.5947607,19.5834399 17.9450233,19.6152028 17.4956715,19.2658107 L17.3877613,19.1705219 L14.096,15.879 L10.8050707,19.1705219 C10.3577429,19.6178497 9.63248118,19.6178497 9.18515335,19.1705219 C8.77223536,18.7576039 8.74047244,18.1078665 9.08986458,17.6585148 L9.18515335,17.5506046 L12.476,14.259 L9.18515335,10.967914 C8.73782553,10.5205861 8.73782553,9.79532443 9.18515335,9.3479966 C9.59807134,8.93507861 10.2478087,8.90331569 10.6971605,9.25270783 L10.8050707,9.3479966 L14.096,12.638 L17.3877613,9.3479966 C17.8350891,8.90066878 18.5603508,8.90066878 19.0076787,9.3479966 Z" id="形状结合"></path>
                </g>
            </g>
        </g>
    </g>
</svg>