<svg xmlns="http://www.w3.org/2000/svg" width="60" height="60" viewBox="0 0 60 60">
  <defs>
    <style>
      .cls-1 {
        fill: #999999;
        fill-rule: evenodd;
      }
    </style>
  </defs>
  <path id="icon_work_train" class="cls-1" d="M880.928,3312.01h-2.046l4.74,4.87h0a1.175,1.175,0,0,1,.006,1.7l-0.087.08a1.25,1.25,0,0,1-.883.35,1.287,1.287,0,0,1-.88-0.35l-6.986-6.65H848.208l-7,6.65a1.292,1.292,0,0,1-.881.35,1.249,1.249,0,0,1-.882-0.35l-0.089-.08a1.176,1.176,0,0,1,0-1.7l4.753-4.87h-2.044a3.513,3.513,0,0,1-3.068-2.95l0.015-33.25a4.893,4.893,0,0,1,4.981-4.8h34.985a4.891,4.891,0,0,1,4.982,4.8l0.026,33.25A3.505,3.505,0,0,1,880.928,3312.01ZM880,3308v-10H843v10h37Zm-2.383-33H845.374a2.172,2.172,0,0,0-2.374,2v19.01h37V3277A2.18,2.18,0,0,0,877.617,3275Zm-28.389,25.02a2.006,2.006,0,1,1-2.056,2A2.026,2.026,0,0,1,849.228,3300.02Zm24.544,0a2.006,2.006,0,1,1-2.057,2A2.025,2.025,0,0,1,873.772,3300.02ZM851.959,3315h19.082a1.649,1.649,0,0,1,0,3H851.959A1.649,1.649,0,0,1,851.959,3315Z" transform="translate(-831.5 -3265)"/>
</svg>
