<svg xmlns="http://www.w3.org/2000/svg" width="60" height="60" viewBox="0 0 60 60">
  <defs>
    <style>
      .cls-1 {
        fill: #f62;
        fill-rule: evenodd;
      }
    </style>
  </defs>
  <path id="icon_work_hotel" class="cls-1" d="M329,3460H278a2,2,0,0,1,0-4h0v-0.02h2.029V3424c0-3.31,2.657-5,5.971-5h23c3.314,0,6,1.69,6,5v5.98h6.971a4,4,0,0,1,4,4v22H329V3456h0A2,2,0,0,1,329,3460Zm-18-35.04a2,2,0,0,0-2-2H286a2,2,0,0,0-2,2v31.02h27v-31.02Zm11,9.04h-7v21.98h7V3434Zm-32-8h15a2,2,0,0,1,2,2v3a2,2,0,0,1-2,2H290a2,2,0,0,1-2-2v-3A2,2,0,0,1,290,3426Zm1,4h13v-1H291v1Zm-1,6h15a2,2,0,0,1,2,2v3a2,2,0,0,1-2,2H290a2,2,0,0,1-2-2v-3A2,2,0,0,1,290,3436Zm1,4h13v-1H291v1Zm-1,6h15a2,2,0,0,1,2,2v3a2,2,0,0,1-2,2H290a2,2,0,0,1-2-2v-3A2,2,0,0,1,290,3446Zm1,4h13v-1H291v1Zm21-32H283a2,2,0,0,1-2-2v-6a2,2,0,0,1,2-2h29a2,2,0,0,1,2,2v6A2,2,0,0,1,312,3418Zm-22.787-8.23h-1.055v2.35h-3.266v-2.35h-1.055v5.62h1.055v-2.49h3.266v2.49h1.055v-5.62Zm3.534-.11a3.1,3.1,0,0,0-2.327.84,3.108,3.108,0,0,0,0,4.17,3.694,3.694,0,0,0,4.654.01,3.109,3.109,0,0,0,0-4.19A3.165,3.165,0,0,0,292.747,3409.66Zm8.319,0.11h-5.277v0.78h2.11v4.84h1.056v-4.84h2.111v-0.78Zm5.027,4.84H302.35v-1.71h3.374v-0.78H302.35v-1.57h3.59v-0.78h-4.646v5.62h4.8v-0.78Zm5.086,0H307.7v-4.84h-1.046v5.62h4.528v-0.78Zm-18.432.08a2.016,2.016,0,0,1-1.552-.58,2.485,2.485,0,0,1,0-3.05,2.369,2.369,0,0,1,3.094-.03,2.208,2.208,0,0,1,.533,1.56,2.141,2.141,0,0,1-.533,1.54A2.057,2.057,0,0,1,292.747,3414.69Z" transform="translate(-273.5 -3404)"/>
</svg>
