<svg xmlns="http://www.w3.org/2000/svg" width="60" height="60" viewBox="0 0 60 60">
  <defs>
    <style>
      .cls-1 {
        fill: #999999;
        fill-rule: evenodd;
      }
    </style>
  </defs>
  <path id="形状_1325" data-name="形状 1325" class="cls-1" d="M703.932,3279.5l-40.354,12.29a4.644,4.644,0,0,1-4.634-1.15l-7.626-7.54a1.1,1.1,0,0,1,.694-1.88l1.218-.05a3.567,3.567,0,0,1,1.839.41l4.949,2.61a4.192,4.192,0,0,0,3.395.24l8.09-2.95-9-12.22a2.1,2.1,0,0,1,1.073-3.1,3.24,3.24,0,0,1,2.5.25c2.465,1.2,11.608,7.91,14.646,10.23a3.325,3.325,0,0,0,1.95.69l0.151,0.01,11.145-4.07a7.482,7.482,0,0,1,3.78-.38,10.018,10.018,0,0,1,6.976,4.32l0,0.01A1.508,1.508,0,0,1,703.932,3279.5ZM669.4,3292.97c-0.2.37-.4,0.74-0.58,1.12l6.192,1.91a36.921,36.921,0,0,1,2.192-5.39l4.583-1.38a29.948,29.948,0,0,0-3.677,7.73l12.92,3.99c1.283-6.35.67-11.6-.9-14.25l5.612-1.7a19.888,19.888,0,0,1-16.264,35.46c-0.1-.02-0.207-0.03-0.31-0.05-0.083-.03-0.158-0.06-0.24-0.09a19.949,19.949,0,0,1-14.913-19.24,19.711,19.711,0,0,1,1.247-6.86Zm31.363,8.11a16.644,16.644,0,0,0-6.659-13.29c1.119,3.66,1.188,8.64.031,14.12l6.373,1.97A16.508,16.508,0,0,0,700.759,3301.08Zm-1.108,5.92-6.3-1.95c-1.567,5.41-3.988,9.78-6.713,12.49A16.757,16.757,0,0,0,699.651,3307Zm-19.836,10.22a2.7,2.7,0,0,1,.267.07c2.988,0.57,7.684-4.6,10.167-13.2l-13-4.02C675.127,3309.17,676.841,3316.28,679.815,3317.22Zm-5.9-2.85c-1.195-3.91-1.192-9.33.225-15.25l-6.393-1.98A16.485,16.485,0,0,0,673.914,3314.37Z" transform="translate(-648 -3263.5)"/>
</svg>
