<?xml version="1.0" encoding="UTF-8"?>
<svg width="22px" height="22px" viewBox="0 0 22 22" version="1.1" xmlns="http://www.w3.org/2000/svg" xmlns:xlink="http://www.w3.org/1999/xlink">
    <!-- Generator: Sketch 60 (88103) - https://sketch.com -->
    <title>h5 svg/icon/hotel/navigation@2x</title>
    <desc>Created with Sketch.</desc>
    <g id="h5-svg/icon/hotel/navigation" stroke="none" stroke-width="1" fill="none" fill-rule="evenodd">
        <g id="icon_导航" fill="#262DD9">
            <path d="M11,0.25 C16.9370611,0.25 21.75,5.06293894 21.75,11 C21.75,16.9370611 16.9370611,21.75 11,21.75 C5.06293894,21.75 0.25,16.9370611 0.25,11 C0.25,5.06293894 5.06293894,0.25 11,0.25 Z M11,1.45 C5.72568064,1.45 1.45,5.72568064 1.45,11 C1.45,16.2743194 5.72568064,20.55 11,20.55 C16.2743194,20.55 20.55,16.2743194 20.55,11 C20.55,5.72568064 16.2743194,1.45 11,1.45 Z" id="椭圆形"></path>
            <path d="M11.4830467,6.07164099 L15.9431124,14.887554 C15.95315,14.9073948 15.945203,14.931616 15.9253623,14.9416536 C15.9137378,14.9475346 15.8999861,14.9474274 15.8884548,14.9413658 L11.4014477,12.5827547 L11.4014477,12.5827547 L7.11137139,14.8871372 C7.09178305,14.897659 7.06737403,14.890309 7.0568523,14.8707207 C7.05067525,14.8592209 7.05045709,14.84544 7.05626703,14.8337504 L11.4110688,6.07189671 C11.4209652,6.05198514 11.4451294,6.04386626 11.4650409,6.05376267 C11.472813,6.05762554 11.4791287,6.06389654 11.4830467,6.07164099 Z" id="三角形" transform="translate(11.500000, 10.500000) rotate(-315.000000) translate(-11.500000, -10.500000) "></path>
        </g>
    </g>
</svg>