<?xml version="1.0" encoding="UTF-8"?>
<svg width="22px" height="22px" viewBox="0 0 22 22" version="1.1" xmlns="http://www.w3.org/2000/svg" xmlns:xlink="http://www.w3.org/1999/xlink">
    <!-- Generator: Sketch 59 (86127) - https://sketch.com -->
    <title>h5 svg/icon/hotel/mypositive</title>
    <desc>Created with Sketch.</desc>
    <g id="h5-svg/icon/hotel/mypositive" stroke="none" stroke-width="1" fill="none" fill-rule="evenodd">
        <g transform="translate(1.100000, 1.100000)">
            <path d="M9.9,0 C15.367619,0 19.8,4.43238098 19.8,9.9 C19.8,15.367619 15.367619,19.8 9.9,19.8 C4.43238098,19.8 0,15.367619 0,9.9 C0,4.43238098 4.43238098,0 9.9,0 Z M9.9,1.32 C5.16139685,1.32 1.32,5.16139685 1.32,9.9 C1.32,14.6386032 5.16139685,18.48 9.9,18.48 C14.6386032,18.48 18.48,14.6386032 18.48,9.9 C18.48,5.16139685 14.6386032,1.32 9.9,1.32 Z" id="椭圆形" fill="#666666"></path>
            <circle id="椭圆形" fill="#262DD9" cx="9.9" cy="9.9" r="4.95"></circle>
            <path d="M9.9,13.2 C10.2037566,13.2 10.45,13.4462434 10.45,13.75 L10.45,15.95 C10.45,16.2537566 10.2037566,16.5 9.9,16.5 C9.59624339,16.5 9.35,16.2537566 9.35,15.95 L9.35,13.75 C9.35,13.4462434 9.59624339,13.2 9.9,13.2 Z M15.95,9.35 C16.2537566,9.35 16.5,9.59624339 16.5,9.9 C16.5,10.2037566 16.2537566,10.45 15.95,10.45 L13.75,10.45 C13.4462434,10.45 13.2,10.2037566 13.2,9.9 C13.2,9.59624339 13.4462434,9.35 13.75,9.35 L15.95,9.35 Z M6.05,9.35 C6.35375661,9.35 6.6,9.59624339 6.6,9.9 C6.6,10.2037566 6.35375661,10.45 6.05,10.45 L3.85,10.45 C3.54624339,10.45 3.3,10.2037566 3.3,9.9 C3.3,9.59624339 3.54624339,9.35 3.85,9.35 L6.05,9.35 Z M9.9,3.3 C10.2037566,3.3 10.45,3.54624339 10.45,3.85 L10.45,6.05 C10.45,6.35375661 10.2037566,6.6 9.9,6.6 C9.59624339,6.6 9.35,6.35375661 9.35,6.05 L9.35,3.85 C9.35,3.54624339 9.59624339,3.3 9.9,3.3 Z" id="形状结合" fill="#666666"></path>
        </g>
    </g>
</svg>