<?xml version="1.0" encoding="UTF-8"?>
<svg width="22px" height="22px" viewBox="0 0 22 22" version="1.1" xmlns="http://www.w3.org/2000/svg" xmlns:xlink="http://www.w3.org/1999/xlink">
    <!-- Generator: Sketch 60 (88103) - https://sketch.com -->
    <title>btn/nav/more_nor</title>
    <desc>Created with Sketch.</desc>
    <g id="btn/nav/more_nor" stroke="none" stroke-width="1" fill="none" fill-rule="evenodd">
        <g id="透明度层">
            <rect id="矩形" opacity="0" x="0" y="0" width="22" height="22"></rect>
            <path d="M4,16.3 C4.38659932,16.3 4.7,16.6134007 4.7,17 C4.7,17.3543827 4.43665638,17.6472582 4.09498585,17.6936098 L4,17.7 L3,17.7 C2.61340068,17.7 2.3,17.3865993 2.3,17 C2.3,16.6456173 2.56334362,16.3527418 2.90501415,16.3063902 L3,16.3 L4,16.3 Z M19,16.2923479 C19.3865993,16.2923479 19.7,16.6057486 19.7,16.9923479 C19.7,17.3467306 19.4366564,17.6396061 19.0949859,17.6859577 L19,17.6923479 L7,17.6923479 C6.61340068,17.6923479 6.3,17.3789472 6.3,16.9923479 C6.3,16.6379652 6.56334362,16.3450897 6.90501415,16.2987381 L7,16.2923479 L19,16.2923479 Z M19,10.3 C19.3865993,10.3 19.7,10.6134007 19.7,11 C19.7,11.3543827 19.4366564,11.6472582 19.0949859,11.6936098 L19,11.7 L7,11.7 C6.61340068,11.7 6.3,11.3865993 6.3,11 C6.3,10.6456173 6.56334362,10.3527418 6.90501415,10.3063902 L7,10.3 L19,10.3 Z M4,10.3 C4.38659932,10.3 4.7,10.6134007 4.7,11 C4.7,11.3543827 4.43665638,11.6472582 4.09498585,11.6936098 L4,11.7 L3,11.7 C2.61340068,11.7 2.3,11.3865993 2.3,11 C2.3,10.6456173 2.56334362,10.3527418 2.90501415,10.3063902 L3,10.3 L4,10.3 Z M4,4.3 C4.38659932,4.3 4.7,4.61340068 4.7,5 C4.7,5.35438271 4.43665638,5.64725823 4.09498585,5.69360983 L4,5.7 L3,5.7 C2.61340068,5.7 2.3,5.38659932 2.3,5 C2.3,4.64561729 2.56334362,4.35274177 2.90501415,4.30639017 L3,4.3 L4,4.3 Z M19,4.29612237 C19.3865993,4.29612237 19.7,4.60952304 19.7,4.99612237 C19.7,5.35050508 19.4366564,5.6433806 19.0949859,5.68973219 L19,5.69612237 L7,5.69612237 C6.61340068,5.69612237 6.3,5.38272169 6.3,4.99612237 C6.3,4.64173965 6.56334362,4.34886414 6.90501415,4.30251254 L7,4.29612237 L19,4.29612237 Z" id="形状结合" fill="#222222" fill-rule="nonzero"></path>
        </g>
    </g>
</svg>