<?xml version="1.0" encoding="UTF-8"?>
<svg width="22px" height="22px" viewBox="0 0 22 22" version="1.1" xmlns="http://www.w3.org/2000/svg" xmlns:xlink="http://www.w3.org/1999/xlink">
    <!-- Generator: Sketch 60 (88103) - https://sketch.com -->
    <title>h5 svg/icon/common/close</title>
    <desc>Created with Sketch.</desc>
    <g id="h5-svg/icon/common/close" stroke="none" stroke-width="1" fill="none" fill-rule="evenodd">
        <g>
            <path d="M11,1 C16.5228475,1 21,5.4771525 21,11 C21,16.5228475 16.5228475,21 11,21 C5.4771525,21 1,16.5228475 1,11 C1,5.4771525 5.4771525,1 11,1 Z M11,2 C6.02943725,2 2,6.02943725 2,11 C2,15.9705627 6.02943725,20 11,20 C15.9705627,20 20,15.9705627 20,11 C20,6.02943725 15.9705627,2 11,2 Z" id="椭圆形" fill="#222222"></path>
            <path d="M14.8307919,7.25724735 C15.0609222,7.48737774 15.0753054,7.85155627 14.8739413,8.09844267 L14.8307919,8.14618159 L11.8958135,11.080143 L14.8307919,14.0141872 C15.0762643,14.2596596 15.0762643,14.657649 14.8307919,14.9031214 C14.599759,15.1341543 14.2336246,15.1477444 13.9866974,14.9438919 L13.9418576,14.9031214 L11.0078135,11.968143 L8.07385203,14.9031214 C7.82837962,15.1485938 7.4303902,15.1485938 7.18491779,14.9031214 C6.95478741,14.672991 6.94040426,14.3088125 7.14176834,14.0619261 L7.18491779,14.0141872 L10.1188135,11.080143 L7.18491779,8.14618159 C6.93944538,7.90070918 6.93944538,7.50271976 7.18491779,7.25724735 C7.41595065,7.02621449 7.78208508,7.01262432 8.02901224,7.21647684 L8.07385203,7.25724735 L11.0078135,10.191143 L13.9418576,7.25724735 C14.18733,7.01177494 14.5853194,7.01177494 14.8307919,7.25724735 Z" id="形状结合" fill="#222222"></path>
        </g>
    </g>
</svg>