<svg xmlns="http://www.w3.org/2000/svg" xmlns:xlink="http://www.w3.org/1999/xlink" viewBox="0 0 44 44" id="calendar">
    <g stroke="none" stroke-width="1" fill-rule="evenodd">
        <g transform="translate(1.000000, 2.000000)" fill-rule="nonzero">
            <path d="M3.88888889,38.9666667 C2.15678337,38.9666667 0.7,37.6266842 0.7,35.9024979 L0.7,8.43083541 C0.7,6.70664917 2.15678337,5.36666667 3.88888889,5.36666667 L38.1111111,5.36666667 C39.8432166,5.36666667 41.3,6.70664917 41.3,8.43083541 L41.3,35 C41.3,37.1907295 39.5240628,38.9666667 37.3333333,38.9666667 L3.88888889,38.9666667 Z M3.96666667,35.7 L37.3333333,35.7 C37.7199327,35.7 38.0333333,35.3865993 38.0333333,35 L38.0333333,8.63333333 L3.96666667,8.63333333 L3.96666667,35.7 Z"></path>
            <path d="M10.0333333,2.33333333 L10.0333333,11.2876108 C10.0333333,12.1896759 10.816835,12.9209441 11.7833333,12.9209441 C12.7498316,12.9209441 13.5333333,12.1896759 13.5333333,11.2876108 L13.5333333,2.33333333 C13.5333333,1.43126824 12.7498316,0.7 11.7833333,0.7 C10.816835,0.7 10.0333333,1.43126824 10.0333333,2.33333333 Z"></path>
            <path d="M28.7,2.33333333 L28.7,11.2876108 C28.7,12.1896759 29.4835017,12.9209441 30.45,12.9209441 C31.4164983,12.9209441 32.2,12.1896759 32.2,11.2876108 L32.2,2.33333333 C32.2,1.43126824 31.4164983,0.7 30.45,0.7 C29.4835017,0.7 28.7,1.43126824 28.7,2.33333333 Z" id="calendar_Path-17-Copy"></path>
            <path d="M9.88500555,21.3381769 L31.8158455,21.3381769 C32.7179106,21.3381769 33.4491789,20.5546752 33.4491789,19.5881769 C33.4491789,18.6216786 32.7179106,17.8381769 31.8158455,17.8381769 L9.88500555,17.8381769 C8.98294046,17.8381769 8.25167222,18.6216786 8.25167222,19.5881769 C8.25167222,20.5546752 8.98294046,21.3381769 9.88500555,21.3381769 Z" opacity="0.7"></path>
            <path d="M9.88500555,29.5493102 L20.9775417,29.5493102 C21.8796068,29.5493102 22.610875,28.7658085 22.610875,27.7993102 C22.610875,26.8328119 21.8796068,26.0493102 20.9775417,26.0493102 L9.88500555,26.0493102 C8.98294046,26.0493102 8.25167222,26.8328119 8.25167222,27.7993102 C8.25167222,28.7658085 8.98294046,29.5493102 9.88500555,29.5493102 Z" opacity="0.7"></path>
        </g>
    </g>
</svg>