<svg xmlns="http://www.w3.org/2000/svg" xmlns:xlink="http://www.w3.org/1999/xlink" viewBox="0 0 22 22" id="picture">
    <g stroke="none" stroke-width="1" fill-rule="evenodd">
        <path d="M21.6664591,3.7638716 C21.6664591,2.79374222 20.8727169,2 19.9025876,2 L2.2638716,2 C1.29374222,2 0.5,2.79374222 0.5,3.7638716 L0.5,17.8748444 C0.5,18.8449737 1.29374222,19.638716 2.2638716,19.638716 L19.9025876,19.638716 C20.8727169,19.638716 21.6664591,18.8449737 21.6664591,17.8748444 L21.6664591,3.7638716 L21.6664591,3.7638716 Z M17.080393,16.1109728 L4.29232395,16.1109728 C3.76316247,16.1109728 3.45448493,15.5377145 3.71906568,15.0967466 L7.59958317,8.34993774 C7.77597033,8.04126022 8.17284144,8.04126022 8.3492286,8.34993774 L10.6863585,12.3627456 C10.8627456,12.6273264 11.2596167,12.6714231 11.4360039,12.4068424 L13.3321659,9.67284144 C13.508553,9.40826069 13.9054241,9.40826069 14.0818113,9.67284144 L17.5654577,15.229037 C17.8300384,15.6259081 17.5654577,16.1109728 17.080393,16.1109728 L17.080393,16.1109728 Z M15.9338765,8.17355059 C14.9637471,8.17355059 14.1700049,7.37980837 14.1700049,6.40967899 C14.1700049,5.43954961 14.9637471,4.64580739 15.9338765,4.64580739 C16.9040058,4.64580739 17.697748,5.43954961 17.697748,6.40967899 C17.697748,7.37980837 16.9040058,8.17355059 15.9338765,8.17355059 Z" fill-rule="nonzero"></path>
    </g>
</svg>