<?xml version="1.0" encoding="UTF-8"?>
<svg width="22px" height="22px" viewBox="0 0 22 22" version="1.1" xmlns="http://www.w3.org/2000/svg" xmlns:xlink="http://www.w3.org/1999/xlink">
    <!-- Generator: Sketch 60 (88103) - https://sketch.com -->
    <title>h5 svg/icon/plane/baggage</title>
    <desc>Created with Sketch.</desc>
    <g id="h5-svg/icon/plane/baggage" stroke="none" stroke-width="1" fill-rule="evenodd">
        <g id="行李寄存" transform="translate(3.235294, 1.000000)" fill-rule="nonzero">
            <path d="M11.6470588,0.164705882 C12.0758917,0.164705882 12.4235294,0.512343606 12.4235294,0.941176471 C12.4235294,1.32712605 12.1419429,1.64730756 11.7730064,1.70748437 L11.6470588,1.71764706 L10.4823529,1.71670588 L10.4823529,3.46470588 L11.9293119,3.46470588 C13.508676,3.46470588 14.8446515,4.54031684 14.9414462,5.95354515 L14.9470588,6.11806627 L14.9470588,16.470169 C14.9470588,17.963592 13.5694166,19.1235294 11.9292902,19.1235294 L11.9292902,19.1235294 L11.645475,19.1234131 C11.6118196,19.8081278 11.0460044,20.3529412 10.3529412,20.3529412 C9.63821974,20.3529412 9.05882353,19.773545 9.05882353,19.0588235 L9.06135294,19.1227059 L6.46900446,19.1234131 C6.43751824,19.7639958 5.94026022,20.2821302 5.3087866,20.3462598 L5.17647059,20.3529412 C4.46174915,20.3529412 3.88235294,19.773545 3.88235294,19.0588235 L3.88535294,19.1227059 L3.60009984,19.1235294 C2.02073574,19.1235294 0.684760245,18.0479185 0.587965577,16.6346901 L0.582352941,16.470169 L0.582352941,6.11806627 C0.582352941,4.62464729 1.95999097,3.46470588 3.60009984,3.46470588 L3.60009984,3.46470588 L5.04635294,3.46470588 L5.04635294,1.71670588 L3.88235294,1.71764706 C3.45352008,1.71764706 3.10588235,1.37000934 3.10588235,0.941176471 C3.10588235,0.555226892 3.38746891,0.235045378 3.75640538,0.174868571 L3.88235294,0.164705882 L11.6470588,0.164705882 Z M11.9293119,4.88823529 L3.60009984,4.88823529 C2.69716206,4.88823529 2.00588235,5.47027784 2.00588235,6.11806627 L2.00588235,6.11806627 L2.00588235,16.470169 C2.00588235,17.1179575 2.69716206,17.7 3.60009984,17.7 L3.60009984,17.7 L11.9292902,17.7 C12.8322472,17.7 13.5235294,17.1179591 13.5235294,16.470169 L13.5235294,16.470169 L13.5235294,6.11806627 C13.5235294,5.47027784 12.8322497,4.88823529 11.9293119,4.88823529 L11.9293119,4.88823529 Z M5.17647059,7.92941176 C5.56242017,7.92941176 5.88260168,8.21099832 5.94277849,8.57993479 L5.95294118,8.70588235 L5.95294118,13.8823529 C5.95294118,14.3111858 5.60530345,14.6588235 5.17647059,14.6588235 C4.79052101,14.6588235 4.4703395,14.377237 4.41016269,14.0083005 L4.4,13.8823529 L4.4,8.70588235 C4.4,8.27704949 4.74763772,7.92941176 5.17647059,7.92941176 Z M10.3529412,7.92941176 C10.7388908,7.92941176 11.0590723,8.21099832 11.1192491,8.57993479 L11.1294118,8.70588235 L11.1294118,13.8823529 C11.1294118,14.3111858 10.781774,14.6588235 10.3529412,14.6588235 C9.9669916,14.6588235 9.64681008,14.377237 9.58663328,14.0083005 L9.57647059,13.8823529 L9.57647059,8.70588235 C9.57647059,8.27704949 9.92410831,7.92941176 10.3529412,7.92941176 Z M8.92935294,1.71670588 L6.59935294,1.71670588 L6.59935294,3.46470588 L8.92935294,3.46470588 L8.92935294,1.71670588 Z" id="形状结合"></path>
        </g>
    </g>
</svg>