<svg xmlns="http://www.w3.org/2000/svg" xmlns:xlink="http://www.w3.org/1999/xlink" viewBox="0 0 22 22" id="user-add">
    <g stroke="none" stroke-width="1" fill-rule="evenodd">
        <g>
            <rect opacity="0" x="0" y="0" width="22" height="22"></rect>
            <path d="M11.7325559,12.0128637 C14.7213614,12.0128637 17.1498554,9.6402602 17.1498554,6.70643186 C17.1498554,3.77260351 14.7213614,1.4 11.7325559,1.4 C8.74375048,1.4 6.31525645,3.77260351 6.31525645,6.70643186 C6.31525645,9.6402602 8.74375048,12.0128637 11.7325559,12.0128637 Z M11.7325559,10.8128637 C9.4003193,10.8128637 7.51525645,8.97118459 7.51525645,6.70643186 C7.51525645,4.44167912 9.4003193,2.6 11.7325559,2.6 C14.0647926,2.6 15.9498554,4.44167912 15.9498554,6.70643186 C15.9498554,8.97118459 14.0647926,10.8128637 11.7325559,10.8128637 Z" fill-rule="nonzero"></path>
            <path d="M11.7325559,10.8128637 C6.58141405,10.8128637 2.4,14.8980447 2.4,19.9444444 C2.4,20.2758153 2.66862915,20.5444444 3,20.5444444 C3.33137085,20.5444444 3.6,20.2758153 3.6,19.9444444 C3.6,15.5671203 7.23798287,12.0128637 11.7325559,12.0128637 C12.0639268,12.0128637 12.3325559,11.7442346 12.3325559,11.4128637 C12.3325559,11.0814929 12.0639268,10.8128637 11.7325559,10.8128637 Z" fill-rule="nonzero"></path>
            <path d="M13.5063094,13.6588334 L13.5757359,13.5757359 C13.7840156,13.3674563 14.1073248,13.3443141 14.3411666,13.5063094 L14.4242641,13.5757359 L16.5,15.651 L18.5757359,13.5757359 C18.7840156,13.3674563 19.1073248,13.3443141 19.3411666,13.5063094 L19.4242641,13.5757359 C19.6325437,13.7840156 19.6556859,14.1073248 19.4936906,14.3411666 L19.4242641,14.4242641 L17.349,16.5 L19.4242641,18.5757359 C19.6325437,18.7840156 19.6556859,19.1073248 19.4936906,19.3411666 L19.4242641,19.4242641 C19.2159844,19.6325437 18.8926752,19.6556859 18.6588334,19.4936906 L18.5757359,19.4242641 L16.5,17.349 L14.4242641,19.4242641 C14.2159844,19.6325437 13.8926752,19.6556859 13.6588334,19.4936906 L13.5757359,19.4242641 C13.3674563,19.2159844 13.3443141,18.8926752 13.5063094,18.6588334 L13.5757359,18.5757359 L15.651,16.5 L13.5757359,14.4242641 C13.3674563,14.2159844 13.3443141,13.8926752 13.5063094,13.6588334 L13.5757359,13.5757359 L13.5063094,13.6588334 Z" fill-rule="nonzero" transform="translate(16.500000, 16.500000) rotate(-45.000000) translate(-16.500000, -16.500000) "></path>
        </g>
    </g>
</svg>