<?xml version="1.0" encoding="UTF-8"?>
<svg width="22px" height="22px" viewBox="0 0 22 22" version="1.1" xmlns="http://www.w3.org/2000/svg" xmlns:xlink="http://www.w3.org/1999/xlink">
    <!-- Generator: Sketch 60 (88103) - https://sketch.com -->
    <title>h5 svg/icon/plane/dianzan</title>
    <desc>Created with Sketch.</desc>
    <g id="h5-svg/icon/plane/dianzan" stroke="none" stroke-width="1" fill="none" fill-rule="evenodd">
        <g id="点赞" fill-rule="nonzero">
            <path d="M1.64583333,7.51302083 L5.11197917,7.51302083 C5.51822917,7.51302083 5.9140625,7.38541667 6.24479167,7.1484375 L7.00260417,6.60416667 C8.72395833,5.3671875 9.78645833,3.4140625 9.890625,1.296875 C9.91927083,0.703125 10.4088542,0.234375 11.0052083,0.234375 L11.1302083,0.234375 C11.6692708,0.234375 12.046875,0.416666667 12.4583333,0.966145833 C13.71875,2.5390625 13.7682292,4.62239583 13.3932292,6.54947917 L13.3333333,6.86197917 C13.2057292,7.171875 13.4348958,7.51041667 13.7682292,7.51041667 L18.515625,7.51041667 C19.6901042,7.51041667 20.5572917,7.72135417 20.265625,9.75520833 C19.7005208,14.6875 18.2630208,19.2890625 17.7083333,20.375 C17.375,20.9921875 16.8854167,21.3984375 16.234375,21.3984375 L2.4140625,21.3984375 C1.68229167,21.3984375 1.078125,20.8333333 1.02604167,20.1041667 L0.260416667,8.99479167 C0.203125,8.1953125 0.838541667,7.51302083 1.64583333,7.51302083 Z" id="路径" fill="#FFA820"></path>
            <path d="M13.3802083,21.4036458 L16.2317708,21.4036458 C16.8828125,21.4036458 17.3723958,20.9947917 17.7057292,20.3802083 C18.2578125,19.2916667 19.6979167,14.6901042 20.2630208,9.76041667 C20.53125,7.90364583 19.8307292,7.56770833 18.8125,7.5234375 C19.3723958,8.8125 19.6822917,10.234375 19.6822917,11.7317708 C19.6796875,16.046875 17.0911458,19.7604167 13.3802083,21.4036458 Z M0.90625,18.40625 L1.0234375,20.109375 C1.07291667,20.8385417 1.6796875,21.4036458 2.41145833,21.4036458 L4.83333333,21.4036458 C3.296875,20.7239583 1.953125,19.6901042 0.90625,18.40625 Z M9.90104167,1.18229167 C11.0052083,1.265625 12.0625,1.515625 13.0442708,1.91145833 C12.8880208,1.58333333 12.6927083,1.265625 12.453125,0.96875 C12.25,0.697916667 12.0546875,0.515625 11.84375,0.401041667 C11.5104167,0.3359375 11.1692708,0.286458333 10.828125,0.25 C10.3541667,0.325520833 9.97395833,0.700520833 9.90104167,1.18229167 L9.90104167,1.18229167 Z" id="形状" fill="#FEB133"></path>
            <path d="M8.6484375,20.3411458 C5.25,20.3411458 2.2890625,18.4817708 0.721354167,15.7239583 L0.90625,18.40625 C1.953125,19.6901042 3.296875,20.7239583 4.83072917,21.4036458 L13.3802083,21.4036458 C17.0911458,19.7630208 19.6822917,16.046875 19.6822917,11.7291667 C19.6822917,10.234375 19.3723958,8.8125 18.8125,7.52083333 C18.7161458,7.515625 18.6145833,7.515625 18.5130208,7.515625 L16.9713542,7.515625 C17.4791667,8.65104167 17.7604167,9.90885417 17.7604167,11.2317708 C17.7578125,16.2604167 13.6796875,20.3411458 8.6484375,20.3411458 L8.6484375,20.3411458 Z M9.88802083,1.296875 C9.87239583,1.59895833 9.83854167,1.89583333 9.78645833,2.1875 C11.1484375,2.35677083 12.4166667,2.828125 13.5208333,3.52864583 C13.4401042,2.96614583 13.2890625,2.41927083 13.0442708,1.90625 C12.0598958,1.51041667 11.0052083,1.26041667 9.90104167,1.17708333 C9.89583333,1.21875 9.890625,1.2578125 9.88802083,1.296875 L9.88802083,1.296875 Z" id="形状" fill="#FEB533"></path>
            <path d="M9.52604167,3.20572917 C11.0885417,3.48177083 12.484375,4.23177083 13.5651042,5.29947917 C13.6119792,4.70572917 13.6067708,4.109375 13.5234375,3.53125 C12.4166667,2.828125 11.1484375,2.359375 9.7890625,2.19010417 C9.72395833,2.53645833 9.63802083,2.875 9.52604167,3.20572917 Z M8.1875,18.375 C3.96614583,18.375 0.544270833,14.953125 0.544270833,10.7317708 C0.544270833,9.60677083 0.786458333,8.5390625 1.22395833,7.578125 C0.630208333,7.765625 0.213541667,8.34114583 0.2578125,8.99739583 L0.721354167,15.7213542 C2.28645833,18.4791667 5.25,20.3385417 8.6484375,20.3385417 C13.6796875,20.3385417 17.7578125,16.2604167 17.7578125,11.2291667 C17.7578125,9.90625 17.4765625,8.6484375 16.96875,7.51302083 L15.1223958,7.51302083 C15.578125,8.4921875 15.8307292,9.58072917 15.8307292,10.7317708 C15.8307292,14.953125 12.4088542,18.375 8.1875,18.375 L8.1875,18.375 Z" id="形状" fill="#FEBA33"></path>
            <path d="M9.09114583,4.20833333 C11.8489583,4.83072917 13.90625,7.29166667 13.90625,10.2369792 C13.90625,13.6484375 11.140625,16.4166667 7.7265625,16.4166667 C4.3125,16.4166667 1.54947917,13.6484375 1.54947917,10.2369792 C1.54947917,9.26041667 1.77604167,8.3359375 2.1796875,7.515625 L1.64322917,7.515625 C1.49739583,7.515625 1.35416667,7.5390625 1.22135417,7.58072917 C0.783854167,8.54166667 0.541666667,9.609375 0.541666667,10.734375 C0.541666667,14.9557292 3.96354167,18.3776042 8.18489583,18.3776042 C12.40625,18.3776042 15.828125,14.9557292 15.828125,10.734375 C15.828125,9.58333333 15.5729167,8.49479167 15.1197917,7.515625 L13.7630208,7.515625 C13.4270833,7.515625 13.2005208,7.17708333 13.328125,6.8671875 L13.3880208,6.5546875 C13.46875,6.14322917 13.5286458,5.72395833 13.5625,5.30208333 C12.4817708,4.23177083 11.0833333,3.484375 9.5234375,3.20833333 C9.40625,3.55208333 9.26302083,3.88541667 9.09114583,4.20833333 L9.09114583,4.20833333 Z" id="路径" fill="#FFBE34"></path>
            <path d="M7.7265625,16.4140625 C11.1380208,16.4140625 13.90625,13.6484375 13.90625,10.234375 C13.90625,7.29166667 11.8463542,4.828125 9.09114583,4.20833333 C8.91145833,4.54947917 8.703125,4.875 8.46875,5.18229167 C10.4895833,5.71354167 11.9817708,7.55208333 11.9817708,9.73958333 C11.9817708,12.3411458 9.87239583,14.4505208 7.27083333,14.4505208 C4.66927083,14.4505208 2.55989583,12.3411458 2.55989583,9.73958333 C2.55989583,8.93489583 2.76302083,8.17708333 3.1171875,7.515625 L2.1796875,7.515625 C1.77604167,8.3359375 1.54947917,9.26041667 1.54947917,10.2369792 C1.54947917,13.6484375 4.31510417,16.4140625 7.7265625,16.4140625 Z" id="路径" fill="#FFC234"></path>
            <path d="M7.27083333,14.4505208 C9.87239583,14.4505208 11.9817708,12.3411458 11.9817708,9.73958333 C11.9817708,7.55208333 10.4895833,5.71354167 8.46875,5.18229167 C8.21875,5.51041667 7.9375,5.81770833 7.62760417,6.09895833 C9.02604167,6.4609375 10.0572917,7.73177083 10.0572917,9.2421875 C10.0572917,11.0364583 8.60416667,12.4895833 6.80989583,12.4895833 C5.015625,12.4895833 3.5625,11.0364583 3.5625,9.2421875 C3.5625,8.60677083 3.74479167,8.015625 4.05989583,7.51302083 L3.11458333,7.51302083 C2.76041667,8.17708333 2.55989583,8.93489583 2.55989583,9.73958333 C2.55989583,12.3411458 4.66927083,14.4505208 7.27083333,14.4505208 Z" id="路径" fill="#FFC734"></path>
            <path d="M6.80989583,12.4869792 C8.60416667,12.4869792 10.0572917,11.0338542 10.0572917,9.23958333 C10.0572917,7.72916667 9.02604167,6.45833333 7.62760417,6.09635417 C7.4296875,6.27604167 7.22135417,6.4453125 7.00260417,6.60416667 L6.24479167,7.1484375 C5.9140625,7.38541667 5.51822917,7.51302083 5.11197917,7.51302083 L4.0625,7.51302083 C3.74739583,8.01302083 3.56510068,8.60677083 3.56510068,9.2421875 C3.5625,11.0338542 5.01822917,12.4869792 6.80989583,12.4869792 Z" id="路径" fill="#FFCB34"></path>
            <path d="M16.2317708,21.6380208 L2.41145833,21.6380208 C1.55989583,21.6380208 0.848958333,20.9739583 0.791666667,20.125 L0.0260416667,9.015625 C-0.00520833333,8.56770833 0.153645833,8.12239583 0.458333333,7.796875 C0.765625,7.46875 1.19791667,7.28125 1.64583333,7.28125 L5.11197917,7.28125 C5.47135417,7.28125 5.81770833,7.16927083 6.109375,6.9609375 L6.8671875,6.41666667 C7.68229167,5.83072917 8.36979167,5.0546875 8.84895833,4.171875 C9.328125,3.2890625 9.609375,2.29166667 9.65625,1.2890625 C9.69010417,0.567708333 10.2838542,0.00260416667 11.0052083,0.00260416667 L11.1302083,0.00260416667 C11.765625,0.00260416667 12.2057292,0.2421875 12.6432292,0.825520833 C13.765625,2.22916667 14.0963542,4.171875 13.6223958,6.59895833 L13.5572917,6.93229167 L13.5494792,6.953125 C13.5182292,7.02604167 13.5260417,7.10677083 13.5729167,7.17447917 C13.6171875,7.2421875 13.6901042,7.27864583 13.7682292,7.27864583 L18.515625,7.27864583 C19.109375,7.27864583 19.7786458,7.31770833 20.1875,7.79166667 C20.5364583,8.1953125 20.6354167,8.828125 20.4973958,9.78645833 C20.1822917,12.5338542 19.6223958,14.9895833 19.2083333,16.5677083 C18.6927083,18.53125 18.1875,19.9505208 17.9166667,20.484375 L17.9140625,20.4895833 C17.5052083,21.2395833 16.9244792,21.6380208 16.2317708,21.6380208 Z M1.64583333,7.74739583 C1.32291667,7.74739583 1.02083333,7.87760417 0.802083333,8.11458333 C0.583333333,8.3515625 0.471354167,8.65885417 0.494791667,8.98177083 L1.26041667,20.0911458 C1.30208333,20.6953125 1.80729167,21.1666667 2.4140625,21.1666667 L16.234375,21.1666667 C16.7526042,21.1666667 17.1770833,20.8645833 17.5,20.2682292 C17.7604167,19.7552083 18.25,18.375 18.7552083,16.4479167 C19.1666667,14.8854167 19.7213542,12.4505208 20.03125,9.72916667 L20.03125,9.72135417 C20.1484375,8.91666667 20.0807292,8.38541667 19.8307292,8.09635417 C19.578125,7.8046875 19.1223958,7.74479167 18.5130208,7.74479167 L13.7630208,7.74479167 C13.5286458,7.74479167 13.3098958,7.62760417 13.1770833,7.43229167 C13.0494792,7.24479167 13.0234375,7.0078125 13.1015625,6.796875 L13.1588542,6.50520833 C13.6041667,4.21614583 13.3046875,2.40364583 12.2708333,1.11197917 L12.265625,1.10677083 C11.9140625,0.635416667 11.6145833,0.46875 11.125,0.46875 L11,0.46875 C10.5286458,0.46875 10.1432292,0.838541667 10.1197917,1.30729167 C10.0677083,2.38020833 9.76822917,3.44791667 9.25520833,4.39322917 C8.7421875,5.33854167 8.0078125,6.16927083 7.13541667,6.79427083 L6.38020833,7.33854167 C6.0078125,7.60677083 5.56770833,7.74739583 5.109375,7.74739583 L1.64583333,7.74739583 Z" id="形状" fill="#FFA820"></path>
            <path d="M10.9348958,3.21614583 C10.6822917,3.15364583 10.4296875,3.30729167 10.3671875,3.55989583 C9.96354167,5.20052083 8.74739583,6.36197917 8.73177083,6.375 C8.54427083,6.55208333 8.53385417,6.84895833 8.7109375,7.03645833 C8.80208333,7.13541667 8.92708333,7.18489583 9.05208333,7.18489583 C9.16666667,7.18489583 9.28125,7.14322917 9.37239583,7.05729167 C9.4296875,7.00260417 10.8046875,5.70052083 11.2760417,3.78125 C11.3411458,3.53125 11.1875,3.27864583 10.9348958,3.21614583 L10.9348958,3.21614583 Z M7.6796875,7.27864583 L7.43229167,7.45572917 C7.22135417,7.60677083 7.17447917,7.90104167 7.32552083,8.109375 C7.40885417,8.2265625 7.53645833,8.29166667 7.66927083,8.30208333 C7.77604167,8.30989583 7.88541667,8.28125 7.97916667,8.21354167 L8.2265625,8.03645833 C8.4375,7.88541667 8.484375,7.59114583 8.33333333,7.3828125 C8.18229167,7.17447917 7.890625,7.12760417 7.6796875,7.27864583 L7.6796875,7.27864583 Z" id="形状" fill="#FFFFFF"></path>
            <path d="M2.734375,9.1484375 L4.7734375,9.1484375 C5.12239583,9.1484375 5.40625,9.43229167 5.40625,9.78125 L5.40625,19.1458333 C5.40625,19.4947917 5.12239583,19.7786458 4.7734375,19.7786458 L3.35416667,19.7786458 C3.02083333,19.7786458 2.74479167,19.5208333 2.72395833,19.1875 L2.10416667,9.82291667 C2.08072917,9.45833333 2.36979167,9.1484375 2.734375,9.1484375 Z" id="路径" fill="#FFE3B4"></path>
        </g>
    </g>
</svg>