<?xml version="1.0" encoding="UTF-8"?>
<svg width="22px" height="22px" viewBox="0 0 22 22" version="1.1" xmlns="http://www.w3.org/2000/svg" xmlns:xlink="http://www.w3.org/1999/xlink">
    <!-- Generator: Sketch 60 (88103) - https://sketch.com -->
    <title>h5 svg/icon/hotel/fangxinsheshi</title>
    <desc>Created with Sketch.</desc>
    <g id="h5-svg/icon/hotel/fangxinsheshi" stroke="none" stroke-width="1" fill="none" fill-rule="evenodd">
        <g transform="translate(1.222222, 0.000000)" fill="#23CDA7">
            <path d="M9.61888889,0.612333333 L9.83967534,0.615249781 C10.764612,0.64863468 12.0000984,0.889539899 13.2434433,1.51102772 C15.5335274,2.65606974 16.9897824,4.75695444 16.9897824,7.98783779 C16.9897824,8.84100749 16.9869227,9.69619094 16.9818291,10.5372188 L16.9553823,13.4099483 C16.9472687,13.9677572 16.5266726,14.425176 15.985563,14.4922474 L15.8479439,14.5007153 L14.7778889,14.5004444 C14.8136474,15.3588959 14.9699094,16.0419844 15.3127638,16.73711 L15.4502098,16.9987123 L15.5723333,17.2064444 L15.7478697,17.2157576 C16.0808088,17.2485684 16.3995433,17.363128 16.6760906,17.5478403 L16.8367327,17.6669932 L16.9859066,17.8024261 C17.3195415,18.1369829 17.5244945,18.5758056 17.5691755,19.0405086 L17.5784198,19.241023 L17.5784198,19.3558013 C17.5784198,20.4181177 16.7600904,21.2923343 15.7205112,21.3814144 L15.5453018,21.3888889 L4.61045496,21.3888889 C3.5481636,21.3888889 2.67436488,20.5706106 2.58532871,19.5310143 L2.5778579,19.3558013 L2.5778585,19.2396792 C2.57860921,18.7019692 2.79124867,18.1974931 3.15305865,17.8250018 L3.29560726,17.6916973 L3.37333333,17.6305556 L3.37034762,17.5416051 C3.35367778,16.1800226 3.84748836,14.6588619 5.1197887,13.1779241 L5.36753337,12.9007685 L5.74334933,12.5068318 L5.85086499,12.3739308 L5.929,12.2564444 L4.20748406,13.4064809 C3.85562854,13.6422154 3.4102643,13.6521319 3.05501892,13.4554951 L2.92638487,13.3721118 L2.80835134,13.2695899 L0.93388561,11.395123 C0.606447433,11.0665705 0.522183693,10.5737159 0.707869911,10.1610445 L0.779800193,10.0267924 L5.46322349,2.53086764 C5.56291341,2.37030969 5.70179205,2.23839398 5.85711743,2.15049677 L5.97633988,2.09306759 L9.16287622,0.709119975 C9.25845867,0.665227152 9.35970219,0.635739301 9.46331556,0.621341309 L9.61888889,0.612333333 Z M9.63844444,1.83333333 L6.48144444,3.20588889 L1.86388889,10.5966667 L3.60555556,12.3383333 L6.36449443,10.4981675 L6.65817327,10.4900511 L7.46827841,10.4265649 L7.44769409,11.1087195 C7.41748676,12.1097755 7.17589873,12.808716 6.48408477,13.503158 C5.03014109,14.9598162 4.53717804,16.4277012 4.59697902,17.676018 L4.61318708,17.8939829 L4.65662081,18.3239182 L4.2657508,18.5081773 C4.01733162,18.625284 3.84745194,18.8585085 3.8085704,19.1246829 L3.80008013,19.2405324 L3.80008013,19.3558013 C3.80008013,19.7616918 4.10108205,20.0997362 4.49101817,20.1578444 L4.61045496,20.1666667 L15.5453018,20.1666667 C15.9510571,20.1666667 16.2892373,19.8653822 16.3473713,19.4752831 L16.356213,19.3558013 L16.356213,19.2387474 C16.3570019,19.023895 16.2721681,18.8175883 16.1204734,18.6654744 C15.9991191,18.5437848 15.8429725,18.4647963 15.6750521,18.4381835 L15.5472638,18.4281956 L14.906741,18.4281956 L14.7254643,18.1547561 C13.8805097,16.8802179 13.5636422,15.75421 13.5495298,14.2152287 L13.5510576,13.8789213 L13.5615553,13.278493 L15.7348889,13.2782222 L15.7504156,11.7754712 C15.7611432,10.5445578 15.7675602,9.26374134 15.7675602,7.98783779 C15.7675602,5.24678154 14.5930049,3.55229446 12.6969139,2.60424898 C12.0306484,2.27121518 11.3143663,2.0543871 10.5971541,1.93288581 C10.2319933,1.87102476 9.93119612,1.84314265 9.72627881,1.83556698 L9.63844444,1.83333333 Z M6.81999419,5.90616389 L6.93457172,5.9845148 C7.38243195,6.33690262 7.48824065,6.9576955 7.20180049,7.42789305 L7.12198955,7.54206256 L6.90562627,7.8171663 C6.52875666,8.29750538 5.83405108,8.38183097 5.35072244,8.00364796 C4.90944389,7.65467916 4.80409729,7.03752276 5.08606605,6.56455462 L5.16465704,6.44955515 L5.38326154,6.17098886 C5.70133794,5.77065132 6.23898613,5.64704896 6.68819329,5.83905497 L6.81999419,5.90616389 Z" id="形状"></path>
            <path d="M15.5472638,18.8093778 C15.7851592,18.8093778 15.9764676,19.0026371 15.9764676,19.2385704 L15.9764676,19.3533488 C15.9781482,19.5902733 15.7861504,19.7822711 15.5492259,19.7825414 L4.61241699,19.7825414 C4.37549251,19.7822711 4.18349469,19.5902733 4.18322439,19.3533488 L4.18322439,19.2385704 C4.18322439,19.0011656 4.3769742,18.8093778 4.61241699,18.8093778 L15.5472638,18.8093778 Z M9.71122527,2.21703651 C10.0634085,2.23420422 11.324499,2.33573893 12.5561592,2.96015288 C14.4343061,3.91271525 15.3863779,5.6044699 15.3863779,7.98783779 C15.3863779,10.1362534 15.3672482,12.034511 15.3574381,12.8968203 L14.2042588,12.8968203 C14.2194645,12.6574535 14.2346702,12.4082765 14.2537999,12.1478179 C14.3190372,11.1766163 14.3940846,10.0764117 14.3940846,8.73880227 C14.3940846,6.81356683 13.7843858,5.29790375 12.581175,4.23595859 C11.4299577,3.21913996 9.94274403,2.80711507 8.70912182,2.65358672 L9.71122527,2.21703651 Z" id="路径-2"></path>
        </g>
    </g>
</svg>