<?xml version="1.0" encoding="UTF-8"?>
<svg width="22px" height="22px" viewBox="0 0 22 22" version="1.1" xmlns="http://www.w3.org/2000/svg" xmlns:xlink="http://www.w3.org/1999/xlink">
    <!-- Generator: Sketch 60 (88103) - https://sketch.com -->
    <title>h5 svg/icon/hotel/hotelservice</title>
    <desc>Created with Sketch.</desc>
    <g id="h5-svg/icon/hotel/hotelservice" stroke="none" stroke-width="1" fill="none" fill-rule="evenodd">
        <g transform="translate(0.647059, 1.294118)" fill="#23CDA7" id="形状">
            <path d="M20.1924347,4.71297744 C19.8597304,3.89972552 19.3682161,3.17110329 18.7311553,2.54699563 C17.5026386,1.34477825 15.8704032,0.682701028 14.1351016,0.682701028 C12.765156,0.682701028 11.43856,1.10127653 10.3287731,1.87333096 C9.21567552,1.07930178 7.88330641,0.648662923 6.50682226,0.648662923 C4.76918249,0.648662923 3.13553999,1.32518306 1.90673359,2.55372047 C1.28428126,3.17619348 0.803112912,3.9033259 0.476574757,4.71492248 C0.161561974,5.49784014 0.00409697426,6.32358992 0.00843419265,7.16918319 C0.0129117151,8.00416155 0.175115147,8.81569603 0.490603842,9.58129459 C0.817555811,10.3746409 1.29499963,11.0825713 1.90977529,11.6854905 C2.55440928,12.3299797 8.31764911,18.0488355 8.42561921,18.1559572 C8.92214093,18.6517754 9.58754953,18.9248458 10.2994527,18.9248458 C11.0114594,18.9248458 11.6770543,18.6517133 12.1737829,18.1557089 C12.447205,17.8842525 18.373207,12.000524 18.6827157,11.6921326 C19.3181832,11.0924827 19.813091,10.3876975 20.1538651,9.59708247 C20.4841071,8.83088383 20.6559736,8.01748708 20.6646642,7.17944633 C20.6734789,6.33033547 20.5145862,5.50050938 20.1924347,4.71297744 Z M17.4683729,10.4197906 L17.4472465,10.4403376 C17.3571128,10.5307403 13.1470035,14.7110327 10.9334304,16.9087765 L10.9313612,16.9108249 C10.7666954,17.075408 10.5422716,17.166059 10.2994527,17.166059 C10.0567166,17.166059 9.83243758,17.07547 9.66797872,16.9110112 L9.66555777,16.9086109 C9.60677221,16.8502806 3.7800291,11.0684595 3.15041739,10.4388064 L3.14385807,10.4323298 C2.26273688,9.56945886 1.77385048,8.40732162 1.76724494,7.15997532 C1.76064906,5.89019906 2.25185297,4.69598944 3.15035531,3.7974457 C4.04689193,2.901116 5.23890821,2.40749114 6.50682222,2.40749114 C7.69763838,2.40749114 8.84400843,2.84795862 9.73473064,3.64774013 L10.315613,4.16934037 L10.9023512,3.65436152 C11.7934459,2.87225085 12.9415334,2.44152922 14.1351015,2.44152922 C15.4077747,2.44152922 16.603143,2.92542891 17.5006729,3.803736 C18.4200119,4.7043903 18.9190787,5.89675835 18.9059394,7.16121681 C18.8930484,8.40345224 18.3824976,9.56070621 17.4683729,10.4197906 Z M6.4823438,3.86113522 C5.67881705,3.86113522 4.91741893,4.18003806 4.33837812,4.75905818 C3.75933729,5.33809901 3.44045516,6.09951781 3.44045516,6.90302385 C3.44045516,7.24450151 3.69798597,7.50203231 4.03950501,7.50203231 C4.38102405,7.50203231 4.63853415,7.24452219 4.63853415,6.90302385 C4.63853415,6.42868382 4.82643688,5.97956714 5.16760414,5.63839986 C5.50877143,5.29727396 5.95784671,5.10939194 6.43216606,5.10939194 C6.75001363,5.10939194 6.99512932,4.88627168 7.02755346,4.57997019 C7.08573895,4.42269142 7.07270308,4.25972238 6.9890666,4.12408728 C6.88755235,3.95944222 6.69811844,3.86113522 6.4823438,3.86113522 Z"></path>
        </g>
    </g>
</svg>