<svg xmlns="http://www.w3.org/2000/svg" xmlns:xlink="http://www.w3.org/1999/xlink" viewBox="0 0 22 22" id="clamation-circle">
    <g stroke="none" stroke-width="1" fill-rule="evenodd">
        <g>
            <g transform="translate(0.500000, 0.500000)">
                <path d="M10.5,0 C16.2989899,0 21,4.70101013 21,10.5 C21,16.2989899 16.2989899,21 10.5,21 C4.70101013,21 0,16.2989899 0,10.5 C0,4.70101013 4.70101013,0 10.5,0 Z M10.5,1.57142857 C5.56888616,1.57142857 1.57142857,5.56888616 1.57142857,10.5 C1.57142857,15.4311138 5.56888616,19.4285714 10.5,19.4285714 C15.4311138,19.4285714 19.4285714,15.4311138 19.4285714,10.5 C19.4285714,5.56888616 15.4311138,1.57142857 10.5,1.57142857 Z" fill-rule="nonzero"></path>
                <path d="M9.17320033,6.02769252 C9.17320033,5.61130279 9.32231064,5.25259405 9.62053571,4.95155552 C9.91876079,4.650517 10.2760628,4.5 10.6924526,4.5 C11.1144692,4.5 11.4717712,4.6491103 11.7643694,4.94733538 C12.0569676,5.24556046 12.2032645,5.6056759 12.2032645,6.02769252 C12.2032645,6.44970914 12.0555609,6.80982459 11.7601493,7.10804967 C11.4647376,7.40627474 11.1088423,7.55538504 10.6924526,7.55538504 C10.2591822,7.55538504 9.89766002,7.40205464 9.60787528,7.09538923 C9.31809053,6.78872382 9.17320033,6.43282848 9.17320033,6.02769252 Z M12.0175781,8.95647321 L12.0175781,14.1303711 C12.0175781,14.5580146 12.0850998,14.8520151 12.2201451,15.0123814 C12.3551904,15.1727477 12.6702914,15.2529297 13.1654576,15.2529297 L13.1654576,16.1476004 L8,16.1476004 L8,15.2529297 L8.19412667,15.2529297 C8.67241218,15.2529297 8.97485288,15.1685276 9.10145787,14.999721 C9.22806285,14.8309143 9.2913644,14.5411339 9.2913644,14.1303711 L9.2913644,11.6151646 C9.2913644,11.1987749 9.22665615,10.9075878 9.09723772,10.7415946 C8.96781929,10.5756014 8.66678529,10.492606 8.19412667,10.492606 L8,10.492606 L8,9.59793527 L12.0175781,8.95647321 Z"></path>
            </g>
        </g>
    </g>
</svg>