<?xml version="1.0" encoding="UTF-8"?>
<svg width="60px" height="60px" viewBox="0 0 60 60" version="1.1" xmlns="http://www.w3.org/2000/svg" xmlns:xlink="http://www.w3.org/1999/xlink">
    <title>icon_resul_wait</title>
    <defs>
        <linearGradient x1="27.4825439%" y1="-30.1190885%" x2="86.8321585%" y2="62.6543563%" id="linearGradient-1">
            <stop stop-color="#FFD786" offset="0%"></stop>
            <stop stop-color="#FFAA00" offset="100%"></stop>
        </linearGradient>
    </defs>
    <g id="03-手动开奖" stroke="none" stroke-width="1" fill="none" fill-rule="evenodd">
        <g id="02-现场抽奖-等待开奖" transform="translate(-158.000000, -398.000000)">
            <g id="编组-3" transform="translate(148.000000, 398.000000)">
                <g id="icon/common/succes" transform="translate(10.000000, 0.000000)">
                    <circle id="椭圆形" fill="url(#linearGradient-1)" cx="30" cy="30" r="30"></circle>
                    <path d="M30,13.6363636 C31.5062311,13.6363636 32.7272727,14.8574052 32.7272727,16.3636364 L32.7272727,30.9090909 C32.7272727,32.415322 31.5062311,33.6363636 30,33.6363636 C28.4937689,33.6363636 27.2727273,32.415322 27.2727273,30.9090909 L27.2727273,16.3636364 C27.2727273,14.8574052 28.4937689,13.6363636 30,13.6363636 Z" id="矩形" fill="#FFFFFF"></path>
                    <path d="M30,39.5454545 C31.5062311,39.5454545 32.7272727,40.7664961 32.7272727,42.2727273 C32.7272727,43.7789584 31.5062311,45 30,45 C28.4937689,45 27.2727273,43.7789584 27.2727273,42.2727273 C27.2727273,40.7664961 28.4937689,39.5454545 30,39.5454545 Z" id="矩形备份" fill="#FFFFFF"></path>
                </g>
            </g>
        </g>
    </g>
</svg>