<?xml version="1.0" encoding="UTF-8"?>
<svg width="22px" height="22px" viewBox="0 0 22 22" version="1.1" xmlns="http://www.w3.org/2000/svg" xmlns:xlink="http://www.w3.org/1999/xlink">
    <title>btn/common/uptriangle2</title>
    <defs>
        <filter id="filter-1">
            <feColorMatrix in="SourceGraphic" type="matrix" values="0 0 0 0 0.133333 0 0 0 0 0.133333 0 0 0 0 0.133333 0 0 0 1.000000 0"></feColorMatrix>
        </filter>
    </defs>
    <g id="btn/common/uptriangle2" stroke="none" stroke-width="1" fill="none" fill-rule="evenodd">
        <rect id="矩形" opacity="0" x="0" y="0" width="22" height="22"></rect>
        <g id="轮廓化">
            <g transform="translate(11.000000, 11.000000) scale(1, -1) translate(-11.000000, -11.000000) ">
                <path d="M11,1 C16.5228475,1 21,5.4771525 21,11 C21,16.5228475 16.5228475,21 11,21 C5.4771525,21 1,16.5228475 1,11 C1,5.4771525 5.4771525,1 11,1 Z M11,2.25 C6.16750844,2.25 2.25,6.16750844 2.25,11 C2.25,15.8324916 6.16750844,19.75 11,19.75 C15.8324916,19.75 19.75,15.8324916 19.75,11 C19.75,6.16750844 15.8324916,2.25 11,2.25 Z" id="椭圆形" fill="#F30300"></path>
                <path d="M14.7562816,8.50628157 C15.0979903,8.16457281 15.6520097,8.16457281 15.9937184,8.50628157 C16.3012563,8.81381945 16.3320101,9.29332891 16.0859798,9.63526111 L15.9937184,9.74371843 L11.6187184,14.1187184 C11.3111806,14.4262563 10.8316711,14.4570101 10.4897389,14.2109798 L10.3812816,14.1187184 L6.00628157,9.74371843 C5.66457281,9.40200968 5.66457281,8.84799032 6.00628157,8.50628157 C6.31381945,8.19874369 6.79332891,8.1679899 7.13526111,8.4140202 L7.24371843,8.50628157 L11,12.2613333 L14.7562816,8.50628157 Z" id="路径-15" fill="#F30300"></path>
            </g>
        </g>
    </g>
</svg>