<?xml version="1.0" encoding="UTF-8"?>
<svg width="21px" height="20px" viewBox="0 0 21 20" version="1.1" xmlns="http://www.w3.org/2000/svg" xmlns:xlink="http://www.w3.org/1999/xlink">
    <title>btn_common_yaoyouhui_nor</title>
    <g id="要优惠" stroke="none" stroke-width="1" fill="none" fill-rule="evenodd">
        <g transform="translate(-293.000000, -490.000000)" id="编组-5">
            <g transform="translate(10.000000, 354.000000)">
                <g id="icon" transform="translate(14.000000, 136.000000)">
                    <g id="btn_common_yaoyouhui_nor" transform="translate(269.000000, 0.000000)">
                        <rect id="矩形" x="0" y="0" width="20" height="20"></rect>
                        <g id="轮廓化" transform="translate(0.918182, 0.918182)" fill="#222222" fill-rule="nonzero">
                            <path d="M9.08181818,1.0658141e-14 C14.0975679,1.15795193e-14 18.1636364,4.0660685 18.1636364,9.08181818 C18.1636364,9.57887446 17.7606926,9.98181818 17.2636364,9.98181818 C16.7665801,9.98181818 16.3636364,9.57887446 16.3636364,9.08181818 C16.3636364,5.06018105 13.1034553,1.8 9.08181818,1.8 C5.06018105,1.8 1.8,5.06018105 1.8,9.08181818 C1.8,13.0230226 4.93107788,16.2329245 8.84145369,16.3597441 L9.08181818,16.3636364 L15.649,16.3631908 L14.0695175,15.1297923 C13.7079208,14.8473658 13.6208624,14.3437171 13.8502558,13.9597978 L13.9142212,13.8665096 C14.1966476,13.5049129 14.7002964,13.4178545 15.0842157,13.6472479 L15.1775038,13.7112133 L18.8176295,16.5543469 C19.4629244,17.0583568 19.1500738,18.0705672 18.3725029,18.1576328 L18.2636364,18.1636364 L9.08181818,18.1636364 L9.08181818,18.1636364 C4.0660685,18.1636364 -7.81597009e-14,14.0975679 -7.46069873e-14,9.08181818 C-7.46069873e-14,4.0660685 4.0660685,9.73676277e-15 9.08181818,1.0658141e-14 Z" id="形状结合"></path>
                            <path d="M11.640174,4.37186603 C11.9516904,4.70437269 11.9620522,5.21065847 11.6822179,5.55449072 L11.5987127,5.64398276 L10.057,7.087 L11.9,7.08719079 C12.3970563,7.08719079 12.8,7.4901375 12.8,7.98719378 C12.8,8.44601495 12.4566633,8.82464556 12.0128941,8.8801815 L11.9,8.88719378 L9.8,8.887 L9.8,10.087 L11.9,10.0871908 C12.3970563,10.0871908 12.8,10.4901375 12.8,10.9871938 C12.8,11.446015 12.4566633,11.8246456 12.0128941,11.8801815 L11.9,11.8871938 L9.8,11.887 L9.8,13.9871938 C9.8,14.4842501 9.39705627,14.8871938 8.9,14.8871938 C8.44117882,14.8871938 8.06254822,14.5438571 8.00701228,14.1000879 L8,13.9871938 L8,11.887 L5.9,11.8871938 C5.40294373,11.8871938 5,11.4842501 5,10.9871938 C5,10.5283726 5.34333667,10.149742 5.78710591,10.0942061 L5.9,10.0871908 L8,10.087 L8,8.887 L5.9,8.88719378 C5.40294373,8.88719378 5,8.48425005 5,7.98719378 C5,7.5283726 5.34333667,7.149742 5.78710591,7.09420606 L5.9,7.08719079 L7.825,7.087 L6.28467225,5.64398276 C5.92193771,5.30414662 5.90337489,4.73460057 6.24321102,4.37186603 C6.55472748,4.03935937 7.05926408,3.99605255 7.42058816,4.25290418 L7.51532775,4.3304048 L8.942,5.667 L10.3680572,4.3304048 C10.7307918,3.99056867 11.3003378,4.00913149 11.640174,4.37186603 Z" id="形状结合"></path>
                        </g>
                    </g>
                </g>
            </g>
        </g>
    </g>
</svg>