<?xml version="1.0" encoding="UTF-8"?>
<svg width="54px" height="54px" viewBox="0 0 54 54" version="1.1" xmlns="http://www.w3.org/2000/svg" xmlns:xlink="http://www.w3.org/1999/xlink">
    <title>btn_xiangqing_songli</title>
    <g id="页面-1" stroke="none" stroke-width="1" fill="none" fill-rule="evenodd">
        <g id="btn_xiangqing_songli" transform="translate(1.000000, 1.000000)">
            <path d="M26,52 C40.3594035,52 52,40.3594035 52,26 C52,11.6405965 40.3594035,0 26,0 C11.6405965,0 0,11.6405965 0,26 C0,40.3594035 11.6405965,52 26,52 Z" id="椭圆形" stroke="#2E2F2F" stroke-linecap="round" stroke-linejoin="round" stroke-dasharray="2.5,3"></path>
            <g id="椭圆形" transform="translate(4.000000, 4.000000)">
                <g id="path-1-link" fill="#000000" fill-rule="nonzero">
                    <circle id="path-1" cx="22" cy="22" r="22"></circle>
                </g>
                <g id="path-1-link" fill="#FFFFFF">
                    <circle id="path-1" cx="22" cy="22" r="22"></circle>
                </g>
            </g>
            <g id="送礼" transform="translate(17.000000, 33.000000)" fill="#222222" fill-rule="nonzero" font-family="SourceHanSansCN-Regular, Source Han Sans CN" font-size="10" font-weight="normal">
                <text>
                    <tspan x="0" y="9">送礼</tspan>
                </text>
            </g>
            <g id="编组" transform="translate(15.600000, 10.100000)" fill="#222222" fill-rule="nonzero">
                <g id="线稿" transform="translate(0.000000, 0.000000)">
                    <path d="M13.1142857,-4.44089233e-16 C15.4052307,-4.44089233e-16 17.2714286,1.81997628 17.2714286,4.07647059 C17.2714286,4.50102251 17.2053667,4.91012205 17.0828434,5.29455505 L18.9,5.29411765 C19.949341,5.29411765 20.8,6.14477662 20.8,7.19411765 L20.8,7.19411765 L20.8,9.42941176 C20.8,10.4787528 19.949341,11.3294118 18.9,11.3294118 L18.9,11.3294118 L18.9,16.9 C18.9,18.5016258 17.6016258,19.8 16,19.8 L16,19.8 L4.8,19.8 C3.19837423,19.8 1.9,18.5016258 1.9,16.9 L1.9,16.9 L1.9,11.3294118 C0.850658975,11.3294118 1.48029746e-16,10.4787528 1.48029746e-16,9.42941176 L1.48029746e-16,9.42941176 L1.48029746e-16,7.19411765 C1.48029746e-16,6.14477662 0.850658975,5.29411765 1.9,5.29411765 L1.9,5.29411765 L3.59667323,5.29517008 C3.55199745,5.07229768 3.52857143,4.84184053 3.52857143,4.60588235 C3.52857143,2.64177409 5.1517239,1.05882353 7.14285714,1.05882353 C8.06981433,1.05882353 8.91701911,1.40189615 9.55782847,1.96678415 C10.2853101,0.786789358 11.6079873,-4.44089233e-16 13.1142857,-4.44089233e-16 Z M17.099,11.329 L3.699,11.329 L3.7,16.9 C3.7,17.4670123 4.1290107,17.9338239 4.68014288,17.9935453 L4.68014288,17.9935453 L4.8,18 L16,18 C16.6075132,18 17.1,17.5075132 17.1,16.9 L17.1,16.9 L17.099,11.329 Z M18.9,7.09411765 L1.9,7.09411765 C1.84477153,7.09411765 1.8,7.13888917 1.8,7.19411765 L1.8,7.19411765 L1.8,9.42941176 C1.8,9.48464024 1.84477153,9.52941176 1.9,9.52941176 L1.9,9.52941176 L18.9,9.52941176 C18.9552285,9.52941176 19,9.48464024 19,9.42941176 L19,9.42941176 L19,7.19411765 C19,7.13888917 18.9552285,7.09411765 18.9,7.09411765 L18.9,7.09411765 Z M7.14285714,2.85882353 C6.13587317,2.85882353 5.32857143,3.64613018 5.32857143,4.60588235 C5.32857143,4.85017186 5.38087452,5.08328906 5.47546066,5.29509448 L8.8102012,5.29521185 C8.90482045,5.08337518 8.95714286,4.85021699 8.95714286,4.60588235 C8.95714286,3.64613018 8.14984112,2.85882353 7.14285714,2.85882353 Z M13.1142857,1.8 C11.80749,1.8 10.7571429,2.82433237 10.7571429,4.07647059 C10.7571429,4.52388861 10.891251,4.94222041 11.1232474,5.29512609 L15.1051258,5.29542759 C15.337244,4.94245869 15.4714286,4.52401603 15.4714286,4.07647059 C15.4714286,2.82433237 14.4210814,1.8 13.1142857,1.8 Z" id="形状结合"></path>
                </g>
            </g>
        </g>
    </g>
</svg>