<?xml version="1.0" encoding="UTF-8"?>
<svg width="22px" height="22px" viewBox="0 0 22 22" version="1.1" xmlns="http://www.w3.org/2000/svg" xmlns:xlink="http://www.w3.org/1999/xlink">
    <title>btn/common/close</title>
    <g id="btn/common/close" stroke="none" stroke-width="1" fill="none" fill-rule="evenodd">
        <g id="轮廓">
            <circle id="椭圆形" fill="#f30300" cx="11" cy="11" r="11"></circle>
            <g id="编组-10" transform="translate(6.875000, 6.875000)" fill="#ffffff">
                <path d="M8.00836309,0.241636906 C8.30369709,0.536970901 8.32830826,1.0005105 8.08219659,1.32387876 L8.00836309,1.40836309 L5.292,4.125 L8.00836309,6.84163691 C8.33054564,7.16381945 8.33054564,7.68618055 8.00836309,8.00836309 C7.7130291,8.30369709 7.2494895,8.32830826 6.92612124,8.08219659 L6.84163691,8.00836309 L4.125,5.292 L1.40836309,8.00836309 C1.08618055,8.33054564 0.563819446,8.33054564 0.241636906,8.00836309 C-0.0536970901,7.7130291 -0.0783082564,7.2494895 0.167803407,6.92612124 L0.241636906,6.84163691 L2.958,4.125 L0.241636906,1.40836309 C-0.0805456352,1.08618055 -0.0805456352,0.563819446 0.241636906,0.241636906 C0.536970901,-0.0536970901 1.0005105,-0.0783082564 1.32387876,0.167803407 L1.40836309,0.241636906 L4.125,2.958 L6.84163691,0.241636906 C7.16381945,-0.0805456352 7.68618055,-0.0805456352 8.00836309,0.241636906 Z" id="形状结合"></path>
            </g>
        </g>
    </g>
</svg>