<?xml version="1.0" encoding="UTF-8"?>
<svg width="22px" height="22px" viewBox="0 0 22 22" version="1.1" xmlns="http://www.w3.org/2000/svg" xmlns:xlink="http://www.w3.org/1999/xlink">
    <title>icon/step/ing</title>
    <g id="icon/step/ing" stroke="none" stroke-width="1" fill="none" fill-rule="evenodd">
        <g id="轮廓">
            <path d="M11,0 C17.0751322,0 22,4.92486775 22,11 C22,17.0751322 17.0751322,22 11,22 C4.92486775,22 0,17.0751322 0,11 C0,4.92486775 4.92486775,0 11,0 Z" id="形状结合" fill="#F30300"></path>
            <path d="M11,4.08909091 C11.5128358,4.08909091 11.9355072,4.4751311 11.9932723,4.97246978 L12,5.08909091 L12,10.424 L15.8706821,12.6788558 C16.3138651,12.9369051 16.4848815,13.4831939 16.2845496,13.9420508 L16.231682,14.0462179 C15.9736327,14.4894008 15.4273439,14.6604172 14.968487,14.4600853 L14.8643199,14.4072177 L10.4968189,11.864181 C10.2233903,11.7049735 10.0435087,11.4272381 10.0069107,11.117488 L10,11 L10,5.08909091 C10,4.53680616 10.4477153,4.08909091 11,4.08909091 Z" id="路径" fill="#FFFFFF" fill-rule="nonzero"></path>
        </g>
    </g>
</svg>