<?xml version="1.0" encoding="UTF-8"?>
<svg width="22px" height="22px" viewBox="0 0 22 22" version="1.1" xmlns="http://www.w3.org/2000/svg" xmlns:xlink="http://www.w3.org/1999/xlink">
    <title>icon/step/more</title>
    <g id="icon/step/more" stroke="none" stroke-width="1" fill="none" fill-rule="evenodd">
        <g id="轮廓" fill="#F30300">
            <path d="M11,0 C17.0751322,0 22,4.92486775 22,11 C22,17.0751322 17.0751322,22 11,22 C4.92486775,22 0,17.0751322 0,11 C0,4.92486775 4.92486775,0 11,0 Z M11,2 C6.02943725,2 2,6.02943725 2,11 C2,15.9705627 6.02943725,20 11,20 C15.9705627,20 20,15.9705627 20,11 C20,6.02943725 15.9705627,2 11,2 Z M7,9 C8.1045695,9 9,9.8954305 9,11 C9,12.1045695 8.1045695,13 7,13 C5.8954305,13 5,12.1045695 5,11 C5,9.8954305 5.8954305,9 7,9 Z M15,9 C16.1045695,9 17,9.8954305 17,11 C17,12.1045695 16.1045695,13 15,13 C13.8954305,13 13,12.1045695 13,11 C13,9.8954305 13.8954305,9 15,9 Z" id="形状结合"></path>
        </g>
    </g>
</svg>