<?xml version="1.0" encoding="UTF-8"?>
<svg width="22px" height="22px" viewBox="0 0 22 22" version="1.1" xmlns="http://www.w3.org/2000/svg" xmlns:xlink="http://www.w3.org/1999/xlink">
    <title>icon/common/songli</title>
    <g id="icon/common/songli" stroke="none" stroke-width="1" fill="none" fill-rule="evenodd">
        <g id="线稿" transform="translate(0.600000, 1.100000)" fill="#ffffff">
            <path d="M13.1142857,-2.66453526e-15 C15.4052307,-2.66453526e-15 17.2714286,1.81997628 17.2714286,4.07647059 C17.2714286,4.50102251 17.2053667,4.91012205 17.0828434,5.29455505 L18.9,5.29411765 C19.949341,5.29411765 20.8,6.14477662 20.8,7.19411765 L20.8,7.19411765 L20.8,9.42941176 C20.8,10.4787528 19.949341,11.3294118 18.9,11.3294118 L18.9,11.3294118 L18.9,16.9 C18.9,18.5016258 17.6016258,19.8 16,19.8 L16,19.8 L4.8,19.8 C3.19837423,19.8 1.9,18.5016258 1.9,16.9 L1.9,16.9 L1.9,11.3294118 C0.850658975,11.3294118 -4.26325641e-14,10.4787528 -4.26325641e-14,9.42941176 L-4.26325641e-14,9.42941176 L-4.26325641e-14,7.19411765 C-4.26325641e-14,6.14477662 0.850658975,5.29411765 1.9,5.29411765 L1.9,5.29411765 L3.59667323,5.29517008 C3.55199745,5.07229768 3.52857143,4.84184053 3.52857143,4.60588235 C3.52857143,2.64177409 5.1517239,1.05882353 7.14285714,1.05882353 C8.06981433,1.05882353 8.91701911,1.40189615 9.55782847,1.96678415 C10.2853101,0.786789358 11.6079873,-2.66453526e-15 13.1142857,-2.66453526e-15 Z M17.099,11.329 L3.699,11.329 L3.7,16.9 C3.7,17.4670123 4.1290107,17.9338239 4.68014288,17.9935453 L4.68014288,17.9935453 L4.8,18 L16,18 C16.6075132,18 17.1,17.5075132 17.1,16.9 L17.1,16.9 L17.099,11.329 Z M18.9,7.09411765 L1.9,7.09411765 C1.84477153,7.09411765 1.8,7.13888917 1.8,7.19411765 L1.8,7.19411765 L1.8,9.42941176 C1.8,9.48464024 1.84477153,9.52941176 1.9,9.52941176 L1.9,9.52941176 L18.9,9.52941176 C18.9552285,9.52941176 19,9.48464024 19,9.42941176 L19,9.42941176 L19,7.19411765 C19,7.13888917 18.9552285,7.09411765 18.9,7.09411765 L18.9,7.09411765 Z M7.14285714,2.85882353 C6.13587317,2.85882353 5.32857143,3.64613018 5.32857143,4.60588235 C5.32857143,4.85017186 5.38087452,5.08328906 5.47546066,5.29509448 L8.8102012,5.29521185 C8.90482045,5.08337518 8.95714286,4.85021699 8.95714286,4.60588235 C8.95714286,3.64613018 8.14984112,2.85882353 7.14285714,2.85882353 Z M13.1142857,1.8 C11.80749,1.8 10.7571429,2.82433237 10.7571429,4.07647059 C10.7571429,4.52388861 10.891251,4.94222041 11.1232474,5.29512609 L15.1051258,5.29542759 C15.337244,4.94245869 15.4714286,4.52401603 15.4714286,4.07647059 C15.4714286,2.82433237 14.4210814,1.8 13.1142857,1.8 Z" id="形状结合"></path>
        </g>
    </g>
</svg>