<?xml version="1.0" encoding="UTF-8"?>
<svg width="20px" height="20px" viewBox="0 0 20 20" version="1.1" xmlns="http://www.w3.org/2000/svg" xmlns:xlink="http://www.w3.org/1999/xlink">
    <title>icon_common_jifen_big</title>
    <g id="控件" stroke="none" stroke-width="1" fill="none" fill-rule="evenodd">
        <g id="Fill-1" fill="#F15446">
            <path d="M4,8.00002604 L4,9.13748883 C4,9.44998934 4.26252039,9.7375484 4.80002214,9.99999023 C5.33750435,10.2625297 6.06254578,10.4750105 6.98752926,10.6249913 C7.91251274,10.7749915 8.91251599,10.8499916 10,10.8499916 C11.0875035,10.8499916 12.0874873,10.7749915 13.0125489,10.6249913 C13.9375519,10.4750105 14.6625738,10.2625297 15.200056,9.99999023 C15.7375577,9.7375484 16,9.44998934 16,9.13748883 L16,8.00002604 C15.374998,8.37500712 14.5375343,8.66248806 13.4625308,8.85000789 C12.3875468,9.03754726 11.237504,9.13748883 10,9.13748883 C8.7625155,9.13748883 7.61253129,9.03754726 6.53754732,8.85000789 C5.46248523,8.66248806 4.62500203,8.37500712 4,8.00002604 M4,13.1249953 L4,14.2874972 C4,14.5999977 4.26252039,14.8875568 4.80002214,15.1499986 C5.33750435,15.4125381 6.06254578,15.6249953 6.98752926,15.7749996 C7.91251274,15.9249999 8.91251599,16 10,16 C11.0875035,16 12.0874873,15.9249999 13.0125489,15.7749996 C13.9375519,15.6249953 14.6625738,15.4125381 15.200056,15.1499986 C15.7375577,14.8875568 16,14.5999977 16,14.2874972 L16,13.1500344 C15.374998,13.5250155 14.5375343,13.8124964 13.4625308,14.0000163 C12.3875468,14.1875556 11.237504,14.2874972 10,14.2874972 C8.7625155,14.2874972 7.61253129,14.1875556 6.53754732,14.0000163 C5.46248523,13.8124964 4.62500203,13.5250155 4,13.1500344 M4,10.6249913 L4,11.712493 C4,12.0249935 4.26252039,12.3125526 4.80002214,12.5749944 C5.33750435,12.8375339 6.06254578,13.0500147 6.98752926,13.1999954 C7.91251274,13.3499957 8.91251599,13.4249958 10,13.4249958 C11.0875035,13.4249958 12.0874873,13.3499957 13.0125489,13.1999954 C13.9375519,13.0500147 14.6625738,12.8375339 15.200056,12.5749944 C15.7375577,12.3125526 16,12.0249935 16,11.712493 L16,10.5750302 C15.374998,10.9500113 14.5375343,11.2374922 13.4625308,11.4250121 C12.3875468,11.6249929 11.237504,11.712493 10,11.712493 C8.7625155,11.712493 7.61253129,11.6249929 6.53754732,11.4250121 C5.46248523,11.2374922 4.62500203,10.9500113 4,10.5750302 M4.80002214,4.85000138 C4.26252039,5.11252134 4,5.40000228 4,5.71250279 L4,6.57500419 C4,6.8875047 4.26252039,7.17498564 4.80002214,7.43750559 C5.33750435,7.70002555 6.06254578,7.91250637 6.98752926,8.06250661 C7.91251274,8.21250686 8.91251599,8.28750698 10,8.28750698 C11.0875035,8.28750698 12.0874873,8.21250686 13.0125489,8.06250661 C13.9375519,7.91250637 14.6625738,7.70002555 15.200056,7.43750559 C15.7375577,7.17498564 16,6.8875047 16,6.57500419 L16,5.71250279 C16,5.40000228 15.7375577,5.11252134 15.200056,4.85000138 C14.6625738,4.58746189 13.9375519,4.37498108 13.0125489,4.22500037 C12.0874873,4.07500012 11.0875035,4 10,4 C8.91251599,4 7.91251274,4.07500012 6.98752926,4.22500037 C6.07496769,4.38750063 5.33750435,4.58746189 4.80002214,4.85000138"></path>
        </g>
    </g>
</svg>