<?xml version="1.0" encoding="UTF-8"?>
<svg width="43px" height="43px" viewBox="0 0 43 43" version="1.1" xmlns="http://www.w3.org/2000/svg" xmlns:xlink="http://www.w3.org/1999/xlink">
    <title>icon_msc_manjianquan</title>
    <g id="确定稿" stroke="none" stroke-width="1" fill="none" fill-rule="evenodd">
        <g id="07优惠券" transform="translate(-30.000000, -462.000000)" fill="#F30300">
            <g id="列表" transform="translate(15.000000, 254.000000)">
                <g id="盒子" transform="translate(0.000000, 60.000000)">
                    <g id="优惠券备份-2" transform="translate(15.000000, 148.000000)">
                        <g id="icon_msc_manjianquan" transform="translate(0.000000, 0.000000)">
                            <path d="M42.2899581,4.26325641e-14 L-4.68958206e-13,42.3111114 L-4.68958206e-13,19.7273911 L19.7157543,4.26325641e-14 L42.2899581,4.26325641e-14 Z M8.01991155,24.6110402 L7.07468078,25.0245786 C7.65068078,26.2208863 8.14545001,27.4541171 8.57375771,28.7390402 L9.60760386,28.3402709 C9.17929617,27.1144248 8.64760386,25.8738094 8.01991155,24.6110402 Z M10.6783731,17.4775017 L5.76760386,22.3882709 L6.47652694,23.097194 L7.9460654,21.6276556 L8.52945001,22.2110402 L7.28883463,23.4516556 L10.92945,27.0922709 L11.6236039,26.3981171 L10.3460654,25.1205786 L11.1436039,25.0615017 C11.02545,24.3821171 10.7965269,23.7544248 10.4568346,23.1636556 C10.7079116,23.2375017 11.02545,23.3482709 11.3946808,23.481194 L11.2248346,22.6319633 C10.7891423,22.5655017 10.3829885,22.5138094 9.99898847,22.4842709 L9.81437309,22.2553479 L10.5823731,21.4873479 C11.31345,22.2775017 11.7491423,23.2005786 11.8820654,24.2639633 L12.8199116,24.1975017 C12.7017577,23.3556556 12.4285269,22.5802709 12.0002192,21.8565786 C12.2808346,21.9599633 12.6131423,22.0855017 13.0119116,22.2479633 L12.8420654,21.3987325 C12.3768346,21.3027325 11.9411423,21.2362709 11.5202192,21.1845786 L11.2248346,20.8448863 L11.7786808,20.2910402 L13.8020654,22.3144248 C13.9792962,22.4916556 13.9940654,22.6688863 13.8463731,22.8165786 L13.2482192,23.3408863 L14.1122192,23.8208863 L14.6956039,23.2375017 C15.1682192,22.7648863 15.15345,22.2775017 14.6512962,21.7753479 L11.8082192,18.9322709 L10.5602192,20.1802709 L9.97683463,19.5968863 L11.3872962,18.1864248 L10.6783731,17.4775017 Z M9.17191155,22.8978094 C9.66668078,23.4959633 9.99898847,24.1827325 10.1688346,24.9433479 L8.64760386,23.4221171 L9.17191155,22.8978094 Z M4.38668078,23.7248863 L4.37191155,24.8030402 C5.30975771,24.6479633 6.09252694,24.6036556 6.72021924,24.6553479 L6.72021924,23.5624248 C6.01868078,23.5402709 5.24329617,23.5919633 4.38668078,23.7248863 Z M2.77683463,21.7310402 L2.7620654,22.809194 C3.64821924,22.7205786 4.40145001,22.7058094 5.00698847,22.7796556 L4.99960386,21.6793479 C4.32760386,21.6276556 3.58914232,21.6424248 2.77683463,21.7310402 Z M9.23098847,16.2516556 L8.1380654,17.3445786 L7.63591155,16.8424248 L6.8900654,17.5882709 L7.39221924,18.0904248 L6.38052694,19.1021171 L5.87837309,18.5999633 L5.12514232,19.353194 L5.62729617,19.8553479 L4.60821924,20.8744248 L5.33191155,21.5981171 L6.35098847,20.5790402 L6.76452694,20.9925786 L7.51775771,20.2393479 L7.10421924,19.8258094 L8.11591155,18.8141171 L8.5220654,19.2202709 L9.26791155,18.4744248 L8.86175771,18.0682709 L9.95468078,16.9753479 L9.23098847,16.2516556 Z M9.34175771,20.2319633 L9.92514232,20.8153479 L9.16452694,21.5759633 L8.58114232,20.9925786 L9.34175771,20.2319633 Z M14.7103731,16.8128863 L13.7725269,17.2190402 C14.5109885,18.5482709 15.1903731,19.9070402 15.7811423,21.2953479 L16.8149885,20.8965786 C16.20945,19.5673479 15.5079116,18.201194 14.7103731,16.8128863 Z M15.6629885,9.18457864 L15.15345,9.90088633 C15.4857577,9.96734787 15.82545,10.0559633 16.1725269,10.1667325 L15.6260654,10.713194 C15.2863731,10.4030402 14.9688346,10.0855017 14.6586808,9.77534787 L13.9497577,10.4842709 C14.2746808,10.809194 14.5922192,11.1267325 14.9171423,11.4221171 L12.4063731,13.9328863 L15.1239116,16.6504248 C16.2316039,17.8024248 16.8666808,18.9248863 17.0439116,20.0178094 L18.12945,19.9513479 C17.8709885,18.6295017 17.0956039,17.3076556 15.8106808,15.9636556 L13.8020654,13.9550402 L15.6556039,12.1015017 C16.5048346,12.8621171 17.3319116,13.5119633 18.1368346,14.0658094 C18.5356039,14.3464248 18.9122192,14.5901171 19.2666808,14.7968863 C19.4808346,15.7495017 19.4882192,16.6430402 19.2666808,17.4848863 L20.3226808,17.625194 C20.4851423,16.9310402 20.5072962,16.1999633 20.3965269,15.4245786 C20.6402192,15.5353479 20.8617577,15.6239633 21.0537577,15.6682709 C21.68145,15.8528863 22.1392962,15.8085786 22.4199116,15.5279633 C22.8556039,15.0775017 22.5232962,14.3021171 21.4156039,13.1944248 L20.4999116,13.5341171 C21.2752962,14.3390402 21.6519116,14.7599633 21.6149885,14.8116556 C21.4672962,14.9150402 21.1202192,14.8338094 20.5737577,14.5679633 C20.4482192,14.5015017 20.3079116,14.4202709 20.1602192,14.3316556 C19.8352962,13.2387325 19.2666808,12.0498094 18.4469885,10.7722709 L17.5165269,11.1415017 C18.0556039,11.9168863 18.4839116,12.6701171 18.80145,13.401194 C18.5946808,13.2535017 18.3657577,13.0836556 18.1368346,12.8990402 C17.5165269,12.3968863 16.9257577,11.8947325 16.3645269,11.3925786 L17.7971423,9.95996325 L17.0882192,9.25104017 L16.7632962,9.57596325 C16.3792962,9.41350171 16.0100654,9.28057864 15.6629885,9.18457864 Z M17.0143731,13.6818094 L15.5522192,15.1439633 L17.8931423,17.4848863 L19.3552962,16.0227325 L17.0143731,13.6818094 Z M17.0291423,14.7895017 L18.2476039,16.0079633 L17.8783731,16.377194 L16.6599116,15.1587325 L17.0291423,14.7895017 Z M10.3608346,14.5458094 L10.1171423,15.5870402 C11.1657577,15.8085786 12.0592962,16.0522709 12.8125269,16.3328863 L13.0045269,15.2842709 C12.3029885,15.0258094 11.4242192,14.7821171 10.3608346,14.5458094 Z M15.8919116,12.7365786 L14.5183731,14.1101171 L15.1682192,14.7599633 L16.5417577,13.3864248 L15.8919116,12.7365786 Z M22.7596039,2.02888633 L21.8808346,2.43504017 C22.1245269,2.95934787 22.2722192,3.47627094 22.3460654,3.99319402 L22.7965269,3.86765556 L21.58545,5.07873248 C21.3491423,4.62088633 21.0759116,4.17042479 20.7583731,3.71996325 L19.8943731,4.39196325 C20.24145,4.87196325 20.5442192,5.36673248 20.8026808,5.86150171 L19.8943731,6.7698094 L20.0937577,6.24550171 C19.5916039,6.03873248 19.1042192,5.87627094 18.60945,5.76550171 L18.1663731,6.65165556 C18.60945,6.74027094 19.0820654,6.88796325 19.5842192,7.07996325 L18.5577577,8.10642479 L19.2371423,8.7858094 L21.20145,6.82150171 C21.3048346,7.13165556 21.39345,7.45657864 21.4599116,7.7741171 L19.4365269,9.79750171 L20.1306808,10.4916556 L21.5780654,9.04427094 C21.58545,9.96734787 21.39345,10.9125786 21.0020654,11.8799633 L22.0802192,12.1015017 C22.2869885,11.5107325 22.4272962,10.9125786 22.5159116,10.3070402 L22.8999116,10.6910402 L23.7786808,9.81227094 C24.0076039,10.2922709 24.1331423,10.7575017 24.1479116,11.1858094 C24.1405269,11.7544248 23.9780654,12.4338094 23.6679116,13.2165786 L24.7682192,13.3568863 C25.0783731,12.4264248 25.2112962,11.6141171 25.1522192,10.905194 C25.0783731,10.3587325 24.8568346,9.75319402 24.4949885,9.09596325 L26.1048346,7.4861171 C26.7029885,8.14334787 27.0648346,8.60857864 27.1682192,8.88919402 C27.2716039,9.15504017 27.1977577,9.42088633 26.9319116,9.68673248 C26.6069885,10.0116556 26.2451423,10.3439633 25.8537577,10.6910402 L26.7768346,11.2153479 L27.9879116,10.0042709 C28.2685269,9.6941171 28.3940654,9.37657864 28.3719116,9.0738094 C28.3276039,8.76365556 28.1282192,8.35750171 27.7589885,7.8701171 C27.4340654,7.45657864 26.9909885,6.95442479 26.4592962,6.36365556 C26.9392962,6.31196325 27.4636039,6.21596325 28.0248346,6.06827094 L27.8992962,4.93842479 C26.8359116,5.35196325 25.9202192,5.52919402 25.1522192,5.4701171 L26.5405269,4.0818094 L25.8463731,3.38765556 L22.3165269,6.91750171 C22.2352962,6.61473248 22.1319116,6.30457864 22.0137577,6.00919402 L24.8346808,3.18827094 L24.1552962,2.50888633 L23.1731423,3.49104017 C23.1066808,3.01104017 22.9663731,2.53104017 22.7596039,2.02888633 Z M24.3472962,6.27504017 C24.7756039,6.37842479 25.2482192,6.42273248 25.7651423,6.40796325 L22.5971423,9.57596325 C22.6192962,9.08119402 22.6045269,8.57904017 22.54545,8.07688633 L24.3472962,6.27504017 Z" id="形状结合"></path>
                        </g>
                    </g>
                </g>
            </g>
        </g>
    </g>
</svg>