<?xml version="1.0" encoding="UTF-8"?>
<svg width="22px" height="22px" viewBox="0 0 22 22" version="1.1" xmlns="http://www.w3.org/2000/svg" xmlns:xlink="http://www.w3.org/1999/xlink">
    <title>icon/common/yishixiao</title>
    <g id="icon/common/yishixiao" stroke="none" stroke-width="1" fill="none" fill-rule="evenodd">
        <g id="轮廓" transform="translate(11.000000, 11.000000) rotate(45.000000) translate(-11.000000, -11.000000) translate(2.772867, 3.670784)" fill="#666666">
            <g id="编组" transform="translate(0.000000, -0.000000)">
                <path d="M15.3967866,6.83559045 C15.4445544,7.53679917 15.3909708,8.24097725 15.2373604,8.93576291 C15.0320911,9.8625369 14.6580822,10.7285129 14.128062,11.507367 C13.5780695,12.3134506 12.8815655,12.9903991 12.060178,13.5204175 C11.2387698,14.0503516 10.3391283,14.3992186 9.38739341,14.5595634 C8.46817291,14.714454 7.53835573,14.6873086 6.62561327,14.4784433 C5.94229305,14.3226473 5.29310159,14.0711581 4.69006363,13.7291985 L4.69006363,13.7291985 L5.18316105,13.4119836 C7.22039327,14.4522036 9.72930188,14.4156026 11.79226,13.0864713 C13.8551975,11.7592563 14.9625504,9.46864532 14.9037099,7.15181564 L14.9037099,7.15181564 Z M12.8203655,0.720857472 C13.1651095,0.500725485 13.6213255,0.604210474 13.8396129,0.953982997 L13.8396129,0.953982997 L16.3397668,4.96511086 C16.5582199,5.3145675 16.4545711,5.7781019 16.1098479,6.00038193 L16.1098479,6.00038193 L3.63180311,14.0315878 C3.28794916,14.2518041 2.83181594,14.1484033 2.61344571,13.7995363 L2.61344571,13.7995363 L0.113291776,9.78783986 C-0.102656951,9.43895182 -0.00103645566,8.97482776 0.3427968,8.75263197 L0.3427968,8.75263197 Z M8.85931868,12.221485 L8.78630094,12.7637598 L9.18415242,13.1330332 L8.65404942,13.2294633 L8.4313122,13.7291985 L8.17591568,13.2458263 L7.63958298,13.1844598 L8.01398518,12.7880411 L7.90605221,12.2526737 L8.39047773,12.4912325 L8.85931868,12.221485 Z M13.4150835,1.22817399 C13.3465155,1.11628638 13.201639,1.08313917 13.0912018,1.15339272 L13.0912018,1.15339272 L0.612680967,9.18518827 C0.50232649,9.25691596 0.469729284,9.40342493 0.539352776,9.51571267 L0.539352776,9.51571267 L3.03942392,13.5274091 C3.10896463,13.6392125 3.25342717,13.6723597 3.36378164,13.6016007 L3.36378164,13.6016007 L15.8418471,5.56932083 C15.9503389,5.49710878 15.9833293,5.34969427 15.9162101,5.23978622 L15.9162101,5.23978622 Z M11.1619646,11.2560674 L11.3653091,11.7632154 L11.8899068,11.8800098 L11.4814793,12.2338257 L11.5354768,12.7791541 L11.0768393,12.4891687 L10.5837626,12.7083951 L10.7111711,12.1769869 L10.3531814,11.7682275 L10.8891208,11.7286572 L11.1619646,11.2560674 Z M12.3991683,8.7650569 C12.077232,9.74085675 11.4416176,10.5702319 10.5744698,11.1278167 C9.70448661,11.6865388 8.69730539,11.9176848 7.69157294,11.7969312 L7.69157294,11.7969312 L8.45265043,11.3069675 C9.09076919,11.2674183 9.72582485,11.0694827 10.3036336,10.6973242 C10.8808628,10.3262398 11.3292555,9.82543056 11.638484,9.25592618 L11.638484,9.25592618 Z M5.41416861,7.42843914 L6.30057666,8.84698855 L5.94522287,9.06903824 L5.86105888,8.9343477 L4.56000548,9.74733609 L4.94142955,10.3577422 C5.0524544,10.5354191 5.12015452,10.5289779 5.43538772,10.3319983 L5.43538772,10.3319983 L6.37249006,9.74643178 C6.66766297,9.56198728 6.66695626,9.45882604 6.45028772,9.01643052 C6.57314991,9.01536746 6.76371523,8.97598353 6.87655176,8.93336851 C7.14729535,9.51331735 7.11969185,9.74972577 6.59812419,10.0756374 L6.59812419,10.0756374 L5.64955883,10.6683668 C5.09646785,11.0139764 4.85934074,11.0107304 4.58894151,10.5780012 L4.58894151,10.5780012 L3.75446444,9.24255869 L4.10695248,9.02229972 L4.35049085,9.41204259 L5.65154425,8.5990542 L5.27012018,7.98864809 L3.50194849,9.09352439 L3.29064314,8.75536513 L5.41416861,7.42843914 Z M12.6797733,9.24941888 L13.106331,9.58299686 L13.61938,9.41675541 L13.4369805,9.92990533 L13.753101,10.3741916 L13.21474,10.3589026 L12.8966947,10.8008092 L12.745423,10.275824 L12.232374,10.1036439 L12.6778485,9.79622143 L12.6797733,9.24941888 Z M8.55141722,5.87451054 L8.76809474,6.22126706 L7.88830754,6.77101913 L7.95635502,6.87991787 C8.02619323,6.99168237 8.09674713,7.1109691 8.15404728,7.23455297 L8.15404728,7.23455297 L9.29461832,6.52184509 L9.50950512,6.86573585 L8.5122219,7.48890757 C8.9545725,7.75043405 9.47001636,7.79095891 10.0710945,7.56678311 C10.0374122,7.69143303 10.0291533,7.90778416 10.0441858,8.03387145 C9.39403637,8.23690893 8.86283535,8.15841354 8.34956552,7.85353838 C8.41650502,8.31776995 8.29216053,8.84574288 7.7680595,9.44818354 C7.67779866,9.39301249 7.48151381,9.3084592 7.36402679,9.28623985 C7.85481078,8.73251105 7.96697057,8.26793812 7.90754731,7.86675019 L7.90754731,7.86675019 L6.93319014,8.47559613 L6.71830334,8.13170536 L7.79009622,7.46197484 C7.73566183,7.33660024 7.66797368,7.21552278 7.59813547,7.10375828 L7.59813547,7.10375828 L7.53008799,6.99485954 L6.97986276,7.33867842 C6.99775502,7.52673432 6.99809639,7.70583361 6.98053053,7.85627534 C6.86913136,7.8501755 6.65027083,7.86340828 6.5334965,7.88059084 C6.60481102,7.52920479 6.54002158,7.05566027 6.39964744,6.63333103 L6.39964744,6.63333103 L6.80908227,6.48507531 C6.85097861,6.62226928 6.88535271,6.76017894 6.91507033,6.89701356 L6.91507033,6.89701356 L7.31341046,6.64810302 L7.03047618,6.19531351 L7.38869573,5.9714731 L7.67163001,6.4242626 L8.55141722,5.87451054 Z M7.02288525,0.0984523356 C7.94210575,-0.0554484169 8.87192293,-0.0292928703 9.78476887,0.179572437 C10.4679856,0.335452755 11.1167838,0.586352258 11.719739,0.929217358 L11.719739,0.929217358 L11.2276143,1.24592691 C9.18996818,0.205727983 6.6814735,0.243402921 4.61812212,1.57103909 C2.55516398,2.89867526 1.44772824,5.18926516 1.50416797,7.5061159 L1.50416797,7.5061159 L1.01051175,7.82242532 C0.962888787,7.12113236 1.01730025,6.41745971 1.17051747,5.72324265 C1.37626275,4.79598429 1.75016822,3.9294186 2.2822374,3.15155433 C2.83181594,2.34496529 3.52823713,1.66801678 4.34962463,1.13808267 C5.17150884,0.60806431 6.07117102,0.258712971 7.02288525,0.0984523356 Z M10.8064621,3.90355598 C10.8813101,4.06797613 10.9446951,4.23955917 11.0016329,4.40720143 L11.0016329,4.40720143 L11.7094748,3.96489277 L11.9064543,4.28012597 L11.7717638,4.36428996 C11.979832,4.84393733 12.1012209,5.27414515 12.1269738,5.67246432 C12.3963279,5.79105334 12.6767918,5.85089884 12.9536801,5.84125349 C12.9157006,5.95264966 12.8895345,6.14034323 12.8888068,6.26033966 C12.6255315,6.25350916 12.3665594,6.19617306 12.1147561,6.08654066 C12.0749679,6.38634908 11.9728548,6.66931631 11.8041165,6.95406828 C11.7217343,6.91788249 11.5179242,6.86592455 11.4115408,6.84872103 C11.6250562,6.53997397 11.7354103,6.23193361 11.7526347,5.9023926 C11.5739038,5.79491625 11.3976822,5.66594823 11.2246858,5.52301076 C11.2250361,5.60647105 11.2243115,5.69458782 11.2153489,5.77589804 C11.1426389,5.7296836 10.9617549,5.66339988 10.8528651,5.63580836 L10.8528651,5.63580836 L10.7704649,5.79090058 C10.7357225,5.76080864 10.6934578,5.73143239 10.6447459,5.69811535 C10.7002494,5.8825928 10.7389176,6.06563588 10.7629007,6.23793162 C11.0164977,6.31855011 11.247528,6.40131567 11.4137239,6.48873173 L11.4137239,6.48873173 L11.2757813,6.87378217 C11.1522094,6.80356365 10.9856541,6.72832631 10.7936664,6.65702677 C10.7968586,6.99373368 10.7319942,7.31718084 10.5987171,7.60766732 C10.5145441,7.56861577 10.3182563,7.51594215 10.2165294,7.49981366 C10.3734483,7.20252363 10.4347312,6.87334495 10.4186446,6.52875647 C10.2531614,6.48074232 10.0876782,6.43272817 9.93222366,6.39438632 C9.92863622,6.45241414 9.92612382,6.50578549 9.92182069,6.55629107 C9.83442261,6.53120897 9.65640134,6.49501419 9.55539017,6.48640794 C9.59660676,6.23352365 9.58696741,5.89287596 9.53254799,5.60810303 L9.53254799,5.60810303 L9.87929253,5.51894417 C9.92225192,5.77900033 9.93762578,6.08418691 9.93473606,6.34101498 L9.93473606,6.34101498 L10.0483122,6.05088485 C10.1507548,6.07453558 10.2578538,6.09926134 10.3638778,6.12864358 C10.339173,6.01258494 10.308021,5.89258551 10.2646903,5.77222674 L10.2646903,5.77222674 L10.5691702,5.65369163 C10.4198095,5.56770996 10.2403599,5.48459104 10.0798925,5.42547321 L10.0798925,5.42547321 L10.215673,5.17725439 L9.2327186,5.7914725 L9.0411112,5.48483656 L9.60853097,5.13027334 C9.51504802,5.05719206 9.3832382,4.980167 9.27148569,4.92248654 L9.27148569,4.92248654 L9.49646104,4.63845625 C9.63543675,4.69506468 9.79590113,4.78606217 9.88186184,4.85985915 L9.88186184,4.85985915 L9.74608727,5.04431862 L10.4052112,4.63245226 L10.5968186,4.93908819 L10.2701224,5.14323065 C10.4678416,5.21094875 10.6834681,5.30732441 10.8428574,5.40297839 C10.8267769,4.99463057 10.6702892,4.51462985 10.4618616,4.04716121 L10.4618616,4.04716121 Z M5.83582954,3.5301148 C6.70531602,2.97147697 7.71291118,2.74081538 8.71920244,2.86156892 L8.71920244,2.86156892 L7.95762823,3.35144841 C7.31950947,3.39101868 6.68397779,3.58901743 6.10616904,3.96018612 C5.52902257,4.33226035 5.08104383,4.83102683 4.77173257,5.40307938 L4.77173257,5.40307938 L4.01063438,5.89295887 C4.33304662,4.91715902 4.96866109,4.08826827 5.83582954,3.5301148 Z M3.61861935,3.92596489 L3.76600012,4.45343508 L4.27621365,4.62915318 L3.82873163,4.93499618 L3.82250194,5.48230415 L3.39838642,5.14329289 L2.88428192,5.30608063 L3.07015843,4.79145656 L2.75840497,4.34510647 L3.29676593,4.3649232 L3.61861935,3.92596489 Z M11.4450675,4.56843242 L11.1097741,4.77794705 C11.1291097,4.85352876 11.1466546,4.9262447 11.159543,4.99788562 C11.3400587,5.17198706 11.529531,5.32853761 11.7283192,5.45535856 C11.6839285,5.18025793 11.5876007,4.8858097 11.4450675,4.56843242 L11.4450675,4.56843242 Z M4.90843387,2.01294569 L5.36893407,2.29650803 L5.85919605,2.0722695 L5.73613384,2.60424636 L6.09743505,3.01104724 L5.56110236,3.055061 L5.29262557,3.52963044 L5.08541082,3.02395654 L4.55820535,2.91208998 L4.9667363,2.55776867 L4.90843387,2.01294569 Z M8.00477517,1.03714584 L8.26251041,1.51855953 L8.79795315,1.57556682 L8.42889069,1.97337542 L8.54119065,2.5097326 L8.05432292,2.27471174 L7.58751024,2.54930287 L7.65655423,2.00654368 L7.25636403,1.64129264 L7.78640494,1.53837625 L8.00477517,1.03714584 Z" id="形状结合"></path>
            </g>
        </g>
    </g>
</svg>