<?xml version="1.0" encoding="UTF-8"?>
<svg width="22px" height="22px" viewBox="0 0 22 22" version="1.1" xmlns="http://www.w3.org/2000/svg" xmlns:xlink="http://www.w3.org/1999/xlink">
    <title>icon/common/yiqiangwan</title>
    <g id="icon/common/yiqiangwan" stroke="none" stroke-width="1" fill="none" fill-rule="evenodd">
        <g id="icon/common/yiguoqi" transform="translate(-0.000000, -0.000000)">
            <rect id="矩形" x="0" y="8.46966941e-12" width="22" height="22"></rect>
            <g id="轮廓" transform="translate(11.000000, 11.000000) rotate(45.000000) translate(-11.000000, -11.000000) translate(2.772867, 3.670784)" fill="#ffffff">
                <path d="M15.3967866,6.83559045 C15.4445544,7.53679917 15.3909708,8.24097725 15.2373604,8.93576291 C15.0320911,9.8625369 14.6580822,10.7285129 14.128062,11.507367 C13.5780695,12.3134506 12.8815655,12.9903991 12.060178,13.5204175 C11.2387698,14.0503516 10.3391283,14.3992186 9.38739341,14.5595634 C8.46817291,14.714454 7.53835573,14.6873086 6.62561327,14.4784433 C5.94229305,14.3226473 5.29310159,14.0711581 4.69006363,13.7291985 L4.69006363,13.7291985 L5.18316105,13.4119836 C7.22039327,14.4522036 9.72930188,14.4156026 11.79226,13.0864713 C13.8551975,11.7592563 14.9625504,9.46864532 14.9037099,7.15181564 L14.9037099,7.15181564 Z M12.8203655,0.720857472 C13.1651095,0.500725485 13.6213255,0.604210474 13.8396129,0.953982997 L13.8396129,0.953982997 L16.3397668,4.96511086 C16.5582199,5.3145675 16.4545711,5.7781019 16.1098479,6.00038193 L16.1098479,6.00038193 L3.63180311,14.0315878 C3.28794916,14.2518041 2.83181594,14.1484033 2.61344571,13.7995363 L2.61344571,13.7995363 L0.113291776,9.78783986 C-0.102656951,9.43895182 -0.00103645566,8.97482776 0.3427968,8.75263197 L0.3427968,8.75263197 Z M8.85931868,12.221485 L8.78630094,12.7637598 L9.18415242,13.1330332 L8.65404942,13.2294633 L8.4313122,13.7291985 L8.17591568,13.2458263 L7.63958298,13.1844598 L8.01398518,12.7880411 L7.90605221,12.2526737 L8.39047773,12.4912325 L8.85931868,12.221485 Z M13.4150835,1.22817399 C13.3465155,1.11628638 13.201639,1.08313917 13.0912018,1.15339272 L13.0912018,1.15339272 L0.612680967,9.18518827 C0.50232649,9.25691596 0.469729284,9.40342493 0.539352776,9.51571267 L0.539352776,9.51571267 L3.03942392,13.5274091 C3.10896463,13.6392125 3.25342717,13.6723597 3.36378164,13.6016007 L3.36378164,13.6016007 L15.8418471,5.56932083 C15.9503389,5.49710878 15.9833293,5.34969427 15.9162101,5.23978622 L15.9162101,5.23978622 Z M11.1619646,11.2560674 L11.3653091,11.7632154 L11.8899068,11.8800098 L11.4814793,12.2338257 L11.5354768,12.7791541 L11.0768393,12.4891687 L10.5837626,12.7083951 L10.7111711,12.1769869 L10.3531814,11.7682275 L10.8891208,11.7286572 L11.1619646,11.2560674 Z M12.3991683,8.7650569 C12.077232,9.74085675 11.4416176,10.5702319 10.5744698,11.1278167 C9.70448661,11.6865388 8.69730539,11.9176848 7.69157294,11.7969312 L7.69157294,11.7969312 L8.45265043,11.3069675 C9.09076919,11.2674183 9.72582485,11.0694827 10.3036336,10.6973242 C10.8808628,10.3262398 11.3292555,9.82543056 11.638484,9.25592618 L11.638484,9.25592618 Z M5.41864542,7.42715544 L6.30505347,8.84570485 L5.94969968,9.06775454 L5.86553568,8.93306399 L4.56448229,9.74605238 L4.94590636,10.3564585 C5.0569312,10.5341354 5.12463133,10.5276942 5.43986453,10.3307146 L5.43986453,10.3307146 L6.37696687,9.74514808 C6.67213977,9.56070358 6.67143307,9.45754234 6.45476453,9.01514681 C6.57762672,9.01408376 6.76819203,8.97469983 6.88102857,8.93208481 C7.15177216,9.51203364 7.12416866,9.74844207 6.602601,10.0743537 L6.602601,10.0743537 L5.65403564,10.6670831 C5.10094466,11.0126927 4.86381755,11.0094467 4.59341832,10.5767175 L4.59341832,10.5767175 L3.75894125,9.24127499 L4.11142929,9.02101602 L4.35496766,9.41075889 L5.65602105,8.59777049 L5.27459698,7.98736439 L3.5064253,9.09224068 L3.29511995,8.75408143 L5.41864542,7.42715544 Z M12.6797733,9.24941888 L13.106331,9.58299686 L13.61938,9.41675541 L13.4369805,9.92990533 L13.753101,10.3741916 L13.21474,10.3589026 L12.8966947,10.8008092 L12.745423,10.275824 L12.232374,10.1036439 L12.6778485,9.79622143 L12.6797733,9.24941888 Z M6.6040145,6.46729479 L6.94246121,7.00892274 L7.22903684,6.82985041 L7.43138858,7.15368088 L7.14481294,7.33275321 L7.40088638,7.74255638 L7.63302163,7.50186878 L7.88015044,7.80170416 C7.79202468,7.89661849 7.70855541,7.99260785 7.6175639,8.0893129 L7.6175639,8.0893129 L8.03480244,8.75703413 C8.14045512,8.92611376 8.15907205,9.0260529 8.09566007,9.14138686 C8.03511386,9.2549301 7.90006396,9.35127281 7.69946102,9.47662345 C7.62961981,9.39673862 7.50067875,9.28604316 7.40217998,9.22406556 C7.5157352,9.15709311 7.63609697,9.08188273 7.6733518,9.05860332 C7.71347239,9.0335332 7.71884756,9.0102508 7.69377743,8.97013021 L7.69377743,8.97013021 L7.33384204,8.39411318 L7.08988442,8.65414238 L6.78042766,8.36934548 C6.87786637,8.27658122 6.98999321,8.16268463 7.11179235,8.03875939 L7.11179235,8.03875939 L6.80378793,7.54584929 L6.45416566,7.76431754 L6.25181392,7.44048707 L6.6014362,7.22201882 L6.26298949,6.68039086 L6.6040145,6.46729479 Z M7.94159805,5.71914376 C7.94875795,5.76248645 7.95305209,5.80761987 7.95734623,5.85275329 C8.33307773,6.05230516 8.82809596,6.18130314 9.22498075,6.17238546 C9.18413548,6.28557236 9.14937209,6.47863809 9.14756938,6.603291 C9.07557212,6.59647847 8.99712766,6.58572514 8.92154895,6.57318109 C9.21486823,7.05534385 9.32768081,7.26776617 9.31405873,7.37988103 C9.30258672,7.48268293 9.25959738,7.54142344 9.18365334,7.60481745 C9.1173816,7.6581828 8.99307904,7.73984038 8.85946352,7.8193479 C8.79356311,7.73301586 8.68682941,7.63235205 8.59262778,7.5836282 C8.70582365,7.52883447 8.79931858,7.47439708 8.84230493,7.44753623 C8.88242552,7.4224661 8.90463588,7.40061808 8.90857966,7.36229121 C8.91180776,7.3164421 8.86059547,7.20897773 8.7141155,6.96180699 L8.7141155,6.96180699 L8.24699721,7.2536949 L8.78600493,8.11628757 C8.86479676,8.24238085 8.89846715,8.2452496 9.05035223,8.15034126 L9.05035223,8.15034126 L9.48308145,7.87994204 C9.61490624,7.79756877 9.6002271,7.7230621 9.42044207,7.39708455 C9.53076621,7.40784088 9.70234626,7.37633553 9.80945128,7.33730195 C10.0332827,7.7911605 10.0146388,7.97813838 9.70227137,8.17332722 L9.70227137,8.17332722 L9.20076401,8.4867038 C8.84541022,8.70875349 8.67741761,8.68223102 8.45536791,8.32687723 L8.45536791,8.32687723 L7.83219619,7.32959401 C7.81248925,7.39370969 7.79099158,7.45495962 7.77056895,7.51155307 C7.68603962,7.45280057 7.48474195,7.34747129 7.37621154,7.30770106 C7.56896286,6.87644815 7.64065469,6.32160539 7.55795802,5.8194033 L7.55795802,5.8194033 Z M7.02288525,0.0984523356 C7.94210575,-0.0554484169 8.87192293,-0.0292928703 9.78476887,0.179572437 C10.4679856,0.335452755 11.1167838,0.586352258 11.719739,0.929217358 L11.719739,0.929217358 L11.2276143,1.24592691 C9.18996818,0.205727983 6.6814735,0.243402921 4.61812212,1.57103909 C2.55516398,2.89867526 1.44772824,5.18926516 1.50416797,7.5061159 L1.50416797,7.5061159 L1.01051175,7.82242532 C0.962888787,7.12113236 1.01730025,6.41745971 1.17051747,5.72324265 C1.37626275,4.79598429 1.75016822,3.9294186 2.2822374,3.15155433 C2.83181594,2.34496529 3.52823713,1.66801678 4.34962463,1.13808267 C5.17150884,0.60806431 6.07117102,0.258712971 7.02288525,0.0984523356 Z M12.213198,4.83909314 L12.4137591,5.16005786 L11.6486021,5.63818099 L11.9906303,6.18554045 C12.0479334,6.27724466 12.0722908,6.27796334 12.1725923,6.21528803 L12.1725923,6.21528803 L12.4477049,6.04337859 C12.5394091,5.98607544 12.5232956,5.92840397 12.3531799,5.62427744 C12.4541911,5.6328837 12.6315026,5.5977969 12.7403984,5.56162908 C12.9627984,6.00044316 12.9437982,6.16772008 12.6744171,6.33604808 L12.6744171,6.33604808 L12.3161975,6.55988849 C11.9837698,6.7676124 11.8390626,6.71458542 11.6456645,6.40508373 L11.6456645,6.40508373 L11.3018456,5.85485851 L10.9178342,6.09481544 C11.2226076,6.66545431 11.2795244,7.05625424 10.6160823,7.67802453 C10.5365688,7.60816835 10.3635664,7.52899022 10.2546766,7.5013987 C10.8360808,6.99066224 10.8002843,6.74206911 10.5682119,6.31328368 L10.5682119,6.31328368 L9.86037012,6.75559234 L9.65980911,6.43462763 L12.213198,4.83909314 Z M7.97951765,6.24534094 C7.98665659,6.51184131 7.96012513,6.77547292 7.90780485,7.02334138 L7.90780485,7.02334138 L8.70448513,6.5255203 C8.46628897,6.46317137 8.21412637,6.36571769 7.97951765,6.24534094 Z M11.495106,3.81744351 L11.9392054,4.52815109 L11.5809858,4.7519915 L11.3410289,4.36798015 L9.59578328,5.45853066 L9.83574021,5.84254201 L9.49758096,6.05384737 L9.05348157,5.34313978 L10.0994827,4.68952577 C10.0224756,4.63005758 9.93973695,4.57417084 9.86237051,4.52688136 L9.86237051,4.52688136 L10.1475268,4.20524589 C10.2675172,4.26973289 10.4029085,4.35248947 10.5064201,4.43524305 L10.5064201,4.43524305 L11.495106,3.81744351 Z M11.3381362,4.65668788 L11.5351158,4.97192108 L10.0535197,5.89772505 L9.85654016,5.58249184 L11.3381362,4.65668788 Z M5.83582954,3.5301148 C6.70531602,2.97147697 7.71291118,2.74081538 8.71920244,2.86156892 L8.71920244,2.86156892 L7.95762823,3.35144841 C7.31950947,3.39101868 6.68397779,3.58901743 6.10616904,3.96018612 C5.52902257,4.33226035 5.08104383,4.83102683 4.77173257,5.40307938 L4.77173257,5.40307938 L4.01063438,5.89295887 C4.33304662,4.91715902 4.96866109,4.08826827 5.83582954,3.5301148 Z M3.61861935,3.92596489 L3.76600012,4.45343508 L4.27621365,4.62915318 L3.82873163,4.93499618 L3.82250194,5.48230415 L3.39838642,5.14329289 L2.88428192,5.30608063 L3.07015843,4.79145656 L2.75840497,4.34510647 L3.29676593,4.3649232 L3.61861935,3.92596489 Z M4.90843387,2.01294569 L5.36893407,2.29650803 L5.85919605,2.0722695 L5.73613384,2.60424636 L6.09743505,3.01104724 L5.56110236,3.055061 L5.29262557,3.52963044 L5.08541082,3.02395654 L4.55820535,2.91208998 L4.9667363,2.55776867 L4.90843387,2.01294569 Z M8.00477517,1.03714584 L8.26251041,1.51855953 L8.79795315,1.57556682 L8.42889069,1.97337542 L8.54119065,2.5097326 L8.05432292,2.27471174 L7.58751024,2.54930287 L7.65655423,2.00654368 L7.25636403,1.64129264 L7.78640494,1.53837625 L8.00477517,1.03714584 Z" id="形状结合"></path>
            </g>
        </g>
    </g>
</svg>