<?xml version="1.0" encoding="UTF-8"?>
<svg width="22px" height="22px" viewBox="0 0 22 22" version="1.1" xmlns="http://www.w3.org/2000/svg" xmlns:xlink="http://www.w3.org/1999/xlink">
    <title>icon/common/yilingqu</title>
    <g id="icon/common/yilingqu" stroke="none" stroke-width="1" fill="none" fill-rule="evenodd">
        <g id="icon/common/yiguoqi" transform="translate(-0.000000, -0.000000)" fill="#FFFFFF">
            <g id="轮廓" transform="translate(11.000000, 11.000000) rotate(45.000000) translate(-11.000000, -11.000000) translate(2.772867, 3.670784)">
                <path d="M15.3967866,6.83559045 C15.4445544,7.53679917 15.3909708,8.24097725 15.2373604,8.93576291 C15.0320911,9.8625369 14.6580822,10.7285129 14.128062,11.507367 C13.5780695,12.3134506 12.8815655,12.9903991 12.060178,13.5204175 C11.2387698,14.0503516 10.3391283,14.3992186 9.38739341,14.5595634 C8.46817291,14.714454 7.53835573,14.6873086 6.62561327,14.4784433 C5.94229305,14.3226473 5.29310159,14.0711581 4.69006363,13.7291985 L4.69006363,13.7291985 L5.18316105,13.4119836 C7.22039327,14.4522036 9.72930188,14.4156026 11.79226,13.0864713 C13.8551975,11.7592563 14.9625504,9.46864532 14.9037099,7.15181564 L14.9037099,7.15181564 Z M12.8203655,0.720857472 C13.1651095,0.500725485 13.6213255,0.604210474 13.8396129,0.953982997 L13.8396129,0.953982997 L16.3397668,4.96511086 C16.5582199,5.3145675 16.4545711,5.7781019 16.1098479,6.00038193 L16.1098479,6.00038193 L3.63180311,14.0315878 C3.28794916,14.2518041 2.83181594,14.1484033 2.61344571,13.7995363 L2.61344571,13.7995363 L0.113291776,9.78783986 C-0.102656951,9.43895182 -0.00103645566,8.97482776 0.3427968,8.75263197 L0.3427968,8.75263197 Z M8.85931868,12.221485 L8.78630094,12.7637598 L9.18415242,13.1330332 L8.65404942,13.2294633 L8.4313122,13.7291985 L8.17591568,13.2458263 L7.63958298,13.1844598 L8.01398518,12.7880411 L7.90605221,12.2526737 L8.39047773,12.4912325 L8.85931868,12.221485 Z M13.4150835,1.22817399 C13.3465155,1.11628638 13.201639,1.08313917 13.0912018,1.15339272 L13.0912018,1.15339272 L0.612680967,9.18518827 C0.50232649,9.25691596 0.469729284,9.40342493 0.539352776,9.51571267 L0.539352776,9.51571267 L3.03942392,13.5274091 C3.10896463,13.6392125 3.25342717,13.6723597 3.36378164,13.6016007 L3.36378164,13.6016007 L15.8418471,5.56932083 C15.9503389,5.49710878 15.9833293,5.34969427 15.9162101,5.23978622 L15.9162101,5.23978622 Z M11.1619646,11.2560674 L11.3653091,11.7632154 L11.8899068,11.8800098 L11.4814793,12.2338257 L11.5354768,12.7791541 L11.0768393,12.4891687 L10.5837626,12.7083951 L10.7111711,12.1769869 L10.3531814,11.7682275 L10.8891208,11.7286572 L11.1619646,11.2560674 Z M12.3991683,8.7650569 C12.077232,9.74085675 11.4416176,10.5702319 10.5744698,11.1278167 C9.70448661,11.6865388 8.69730539,11.9176848 7.69157294,11.7969312 L7.69157294,11.7969312 L8.45265043,11.3069675 C9.09076919,11.2674183 9.72582485,11.0694827 10.3036336,10.6973242 C10.8808628,10.3262398 11.3292555,9.82543056 11.638484,9.25592618 L11.638484,9.25592618 Z M5.41237789,7.42895263 L6.29878594,8.84750203 L5.94343215,9.06955173 L5.85926815,8.93486118 L4.55821476,9.74784957 L4.93963883,10.3582557 C5.05066367,10.5359326 5.1183638,10.5294914 5.433597,10.3325118 L5.433597,10.3325118 L6.37069933,9.74694526 C6.66587224,9.56250076 6.66516554,9.45933952 6.448497,9.016944 C6.57135919,9.01588095 6.7619245,8.97649701 6.87476104,8.93388199 C7.14550463,9.51383083 7.11790113,9.75023925 6.59633347,10.0761509 L6.59633347,10.0761509 L5.64776811,10.6688803 C5.09467713,11.0144899 4.85755001,11.0112439 4.58715079,10.5785146 L4.58715079,10.5785146 L3.75267372,9.24307218 L4.10516175,9.02281321 L4.34870013,9.41255607 L5.64975352,8.59956768 L5.26832945,7.98916157 L3.50015777,9.09403787 L3.28885241,8.75587861 L5.41237789,7.42895263 Z M12.6797733,9.24941888 L13.106331,9.58299686 L13.61938,9.41675541 L13.4369805,9.92990533 L13.753101,10.3741916 L13.21474,10.3589026 L12.8966947,10.8008092 L12.745423,10.275824 L12.232374,10.1036439 L12.6778485,9.79622143 L12.6797733,9.24941888 Z M8.01432593,7.49259823 C8.07912736,7.83862408 8.08875772,8.27491078 8.07977116,8.61125834 C8.22412203,8.64458437 8.3523534,8.68399825 8.44870509,8.72340914 L8.44870509,8.72340914 L8.33046644,9.07622357 C8.10839278,8.97590712 7.67928096,8.86948185 7.3551181,8.79709529 L7.3551181,8.79709529 L7.47586018,8.48654852 C7.55788609,8.50303336 7.64743424,8.51880251 7.73984814,8.53278093 C7.74165684,8.34436868 7.73236484,8.11906094 7.71196617,7.92061705 L7.71196617,7.92061705 L7.05284221,8.33248341 L6.87197915,8.04304202 L7.67152518,7.54343021 L7.71523021,7.49221193 Z M8.64985309,6.6093404 C8.95964823,7.10511625 9.16915986,7.47228942 9.23360493,7.79861432 L9.23360493,7.79861432 L9.29917596,7.57832839 C9.55994182,7.60665058 9.91383727,7.65647342 10.1090501,7.71380352 L10.1090501,7.71380352 L10.0183939,8.0533672 C9.84109137,7.99281499 9.50904694,7.93332284 9.25150618,7.89103122 C9.28120882,8.18726418 9.18339579,8.4516055 8.92009057,8.76357167 C8.84666492,8.70983499 8.70410777,8.64749505 8.60811242,8.62778512 C9.13006338,8.03465741 8.94383115,7.70473908 8.37187472,6.78304056 L8.37187472,6.78304056 Z M8.61629652,5.39504427 L8.80253174,5.69308294 L8.30389013,6.0046688 C8.32322276,6.11213017 8.34076466,6.21672578 8.35759087,6.31379916 L8.35759087,6.31379916 L8.89635307,5.97714318 L9.72724869,7.30685414 L9.41201549,7.5038337 L8.73333135,6.41771204 L8.16018007,6.7758567 L8.84602711,7.87344139 L8.54512269,8.06146734 L7.70706417,6.72029336 L8.06528372,6.49645294 C8.04272599,6.40296101 8.01873689,6.29442461 7.99152269,6.19985764 L7.99152269,6.19985764 L7.48714957,6.51502495 L7.30091434,6.21698628 L8.61629652,5.39504427 Z M6.86783477,6.40392522 C6.88251391,6.47843189 6.89432729,6.55472928 6.90327492,6.6328174 C7.20881185,6.70090383 7.5802552,6.79156295 7.78406228,6.87540055 L7.78406228,6.87540055 L7.7234921,7.24398113 C7.53867028,7.15226495 7.21522611,7.05552096 6.9275994,6.98421243 C6.93544803,7.32199437 6.89852259,7.65189173 6.80428801,7.95384423 C6.71617424,7.92123989 6.54101873,7.88325439 6.43821684,7.87178237 C6.58726612,7.45986808 6.60128648,6.92113883 6.52180592,6.50060631 L6.52180592,6.50060631 Z M7.02288525,0.0984523356 C7.94210575,-0.0554484169 8.87192293,-0.0292928703 9.78476887,0.179572437 C10.4679856,0.335452755 11.1167838,0.586352258 11.719739,0.929217358 L11.719739,0.929217358 L11.2276143,1.24592691 C9.18996818,0.205727983 6.6814735,0.243402921 4.61812212,1.57103909 C2.55516398,2.89867526 1.44772824,5.18926516 1.50416797,7.5061159 L1.50416797,7.5061159 L1.01051175,7.82242532 C0.962888787,7.12113236 1.01730025,6.41745971 1.17051747,5.72324265 C1.37626275,4.79598429 1.75016822,3.9294186 2.2822374,3.15155433 C2.83181594,2.34496529 3.52823713,1.66801678 4.34962463,1.13808267 C5.17150884,0.60806431 6.07117102,0.258712971 7.02288525,0.0984523356 Z M7.04076533,7.24821537 C7.20768291,7.27939432 7.42080594,7.33350232 7.53757428,7.3800791 L7.53757428,7.3800791 L7.41647586,7.67092492 C7.29612607,7.61861663 7.0787059,7.55125488 6.90641615,7.51147866 L6.90641615,7.51147866 Z M10.1666737,4.39438328 L10.3564904,4.69815346 L10.1902765,4.80201541 L11.0766846,6.22056482 L11.2776498,6.0511558 L11.472126,6.32412135 L11.2611291,6.51573773 L11.5977851,7.05449993 L11.2653573,7.26222383 L10.9663065,6.78364252 C10.7159047,7.00785126 10.4780409,7.22024064 10.2760006,7.39430613 L10.2760006,7.39430613 L10.0095272,7.11452805 C10.0603951,7.0747728 10.1209353,7.02498889 10.1843413,6.97341426 L10.1843413,6.97341426 L9.21018784,5.41444279 L9.05257123,5.51293258 L8.86275456,5.2091624 L10.1666737,4.39438328 Z M11.5719394,3.83106905 C11.9028519,4.50093137 12.0804629,5.09125921 12.1208889,5.62784438 C12.3898837,5.75861212 12.6653317,5.8295613 12.950458,5.8267225 C12.9117628,5.93059644 12.883806,6.11542425 12.8830783,6.23542068 C12.6190873,6.22106794 12.3687125,6.15835967 12.1169092,6.04872727 C12.097897,6.34352286 12.0251571,6.6161051 11.9115839,6.87435556 C11.810935,6.82169092 11.6447362,6.76615453 11.5401435,6.75181677 C11.671627,6.4903442 11.7350569,6.18373223 11.739387,5.84630964 C11.3500484,5.59947428 10.9761226,5.24338982 10.6022028,4.82354603 L10.6022028,4.82354603 L10.5019013,4.88622134 L10.3013403,4.56525663 L11.2756975,3.9564107 L11.3258497,3.90913321 Z M10.5974175,6.1932967 L10.2764528,6.39385772 L10.482386,6.7234197 L10.7746991,6.47700659 L10.5974175,6.1932967 Z M10.2213656,5.59148787 L9.9004009,5.79204888 L10.0955897,6.10441632 L10.4165545,5.90385531 L10.2213656,5.59148787 Z M5.83582954,3.5301148 C6.70531602,2.97147697 7.71291118,2.74081538 8.71920244,2.86156892 L8.71920244,2.86156892 L7.95762823,3.35144841 C7.31950947,3.39101868 6.68397779,3.58901743 6.10616904,3.96018612 C5.52902257,4.33226035 5.08104383,4.83102683 4.77173257,5.40307938 L4.77173257,5.40307938 L4.01063438,5.89295887 C4.33304662,4.91715902 4.96866109,4.08826827 5.83582954,3.5301148 Z M9.85784878,5.00973932 L9.53688406,5.21030033 L9.71953784,5.50260748 L10.0405026,5.30204647 L9.85784878,5.00973932 Z M3.61861935,3.92596489 L3.76600012,4.45343508 L4.27621365,4.62915318 L3.82873163,4.93499618 L3.82250194,5.48230415 L3.39838642,5.14329289 L2.88428192,5.30608063 L3.07015843,4.79145656 L2.75840497,4.34510647 L3.29676593,4.3649232 L3.61861935,3.92596489 Z M11.3902858,4.33109711 L10.9002415,4.6373108 C11.1581176,4.92246105 11.423519,5.17501594 11.698955,5.3734838 C11.6477637,5.04286176 11.5446354,4.69289212 11.3902858,4.33109711 L11.3902858,4.33109711 Z M4.90843387,2.01294569 L5.36893407,2.29650803 L5.85919605,2.0722695 L5.73613384,2.60424636 L6.09743505,3.01104724 L5.56110236,3.055061 L5.29262557,3.52963044 L5.08541082,3.02395654 L4.55820535,2.91208998 L4.9667363,2.55776867 L4.90843387,2.01294569 Z M8.00477517,1.03714584 L8.26251041,1.51855953 L8.79795315,1.57556682 L8.42889069,1.97337542 L8.54119065,2.5097326 L8.05432292,2.27471174 L7.58751024,2.54930287 L7.65655423,2.00654368 L7.25636403,1.64129264 L7.78640494,1.53837625 L8.00477517,1.03714584 Z" id="形状结合"></path>
            </g>
        </g>
    </g>
</svg>