<?xml version="1.0" encoding="UTF-8"?>
<svg width="22px" height="22px" viewBox="0 0 22 22" version="1.1" xmlns="http://www.w3.org/2000/svg" xmlns:xlink="http://www.w3.org/1999/xlink">
    <title>icon/common/yishiyong</title>
    <g id="icon/common/yishiyong" stroke="none" stroke-width="1" fill="none" fill-rule="evenodd">
        <g id="icon/common/yiguoqi" transform="translate(-0.000000, -0.000000)">
            <rect id="矩形" x="0" y="6.48014975e-12" width="22" height="22"></rect>
            <g id="轮廓" transform="translate(11.000000, 11.000000) rotate(45.000000) translate(-11.000000, -11.000000) translate(2.772867, 3.670784)" fill="#666666">
                <path d="M15.3967866,6.83559045 C15.4445544,7.53679917 15.3909708,8.24097725 15.2373604,8.93576291 C15.0320911,9.8625369 14.6580822,10.7285129 14.128062,11.507367 C13.5780695,12.3134506 12.8815655,12.9903991 12.060178,13.5204175 C11.2387698,14.0503516 10.3391283,14.3992186 9.38739341,14.5595634 C8.46817291,14.714454 7.53835573,14.6873086 6.62561327,14.4784433 C5.94229305,14.3226473 5.29310159,14.0711581 4.69006363,13.7291985 L4.69006363,13.7291985 L5.18316105,13.4119836 C7.22039327,14.4522036 9.72930188,14.4156026 11.79226,13.0864713 C13.8551975,11.7592563 14.9625504,9.46864532 14.9037099,7.15181564 L14.9037099,7.15181564 Z M12.8203655,0.720857472 C13.1651095,0.500725485 13.6213255,0.604210474 13.8396129,0.953982997 L13.8396129,0.953982997 L16.3397668,4.96511086 C16.5582199,5.3145675 16.4545711,5.7781019 16.1098479,6.00038193 L16.1098479,6.00038193 L3.63180311,14.0315878 C3.28794916,14.2518041 2.83181594,14.1484033 2.61344571,13.7995363 L2.61344571,13.7995363 L0.113291776,9.78783986 C-0.102656951,9.43895182 -0.00103645566,8.97482776 0.3427968,8.75263197 L0.3427968,8.75263197 Z M8.85931868,12.221485 L8.78630094,12.7637598 L9.18415242,13.1330332 L8.65404942,13.2294633 L8.4313122,13.7291985 L8.17591568,13.2458263 L7.63958298,13.1844598 L8.01398518,12.7880411 L7.90605221,12.2526737 L8.39047773,12.4912325 L8.85931868,12.221485 Z M13.4150835,1.22817399 C13.3465155,1.11628638 13.201639,1.08313917 13.0912018,1.15339272 L13.0912018,1.15339272 L0.612680967,9.18518827 C0.50232649,9.25691596 0.469729284,9.40342493 0.539352776,9.51571267 L0.539352776,9.51571267 L3.03942392,13.5274091 C3.10896463,13.6392125 3.25342717,13.6723597 3.36378164,13.6016007 L3.36378164,13.6016007 L15.8418471,5.56932083 C15.9503389,5.49710878 15.9833293,5.34969427 15.9162101,5.23978622 L15.9162101,5.23978622 Z M11.1619646,11.2560674 L11.3653091,11.7632154 L11.8899068,11.8800098 L11.4814793,12.2338257 L11.5354768,12.7791541 L11.0768393,12.4891687 L10.5837626,12.7083951 L10.7111711,12.1769869 L10.3531814,11.7682275 L10.8891208,11.7286572 L11.1619646,11.2560674 Z M12.3991683,8.7650569 C12.077232,9.74085675 11.4416176,10.5702319 10.5744698,11.1278167 C9.70448661,11.6865388 8.69730539,11.9176848 7.69157294,11.7969312 L7.69157294,11.7969312 L8.45265043,11.3069675 C9.09076919,11.2674183 9.72582485,11.0694827 10.3036336,10.6973242 C10.8808628,10.3262398 11.3292555,9.82543056 11.638484,9.25592618 L11.638484,9.25592618 Z M5.41416861,7.42843914 L6.30057666,8.84698855 L5.94522287,9.06903824 L5.86105888,8.9343477 L4.56000548,9.74733609 L4.94142955,10.3577422 C5.0524544,10.5354191 5.12015452,10.5289779 5.43538772,10.3319983 L5.43538772,10.3319983 L6.37249006,9.74643178 C6.66766297,9.56198728 6.66695626,9.45882604 6.45028772,9.01643052 C6.57314991,9.01536746 6.76371523,8.97598353 6.87655176,8.93336851 C7.14729535,9.51331735 7.11969185,9.74972577 6.59812419,10.0756374 L6.59812419,10.0756374 L5.64955883,10.6683668 C5.09646785,11.0139764 4.85934074,11.0107304 4.58894151,10.5780012 L4.58894151,10.5780012 L3.75446444,9.24255869 L4.10695248,9.02229972 L4.35049085,9.41204259 L5.65154425,8.5990542 L5.27012018,7.98864809 L3.50194849,9.09352439 L3.29064314,8.75536513 L5.41416861,7.42843914 Z M12.6797733,9.24941888 L13.106331,9.58299686 L13.61938,9.41675541 L13.4369805,9.92990533 L13.753101,10.3741916 L13.21474,10.3589026 L12.8966947,10.8008092 L12.745423,10.275824 L12.232374,10.1036439 L12.6778485,9.79622143 L12.6797733,9.24941888 Z M8.73628097,5.51991138 L8.92967909,5.82941307 L8.17025365,6.30395475 L8.29560428,6.5045577 L8.9776543,6.07836554 L9.50054551,6.91516641 L8.80130096,7.3521029 C8.88939975,7.54410558 8.94633457,7.7436275 8.95527022,7.94923429 C9.29771163,7.91058103 9.67741387,7.78488902 10.0857797,7.57753045 C10.0606946,7.6968082 10.0596016,7.89274268 10.0721276,8.00844198 C9.65480822,8.20147177 9.26543668,8.30531276 8.904013,8.31996494 C8.84524852,8.53201294 8.71663385,8.75981511 8.50814034,8.99369916 C8.41859518,8.94605034 8.23233899,8.87116935 8.11879275,8.8425028 C8.31582024,8.64766132 8.43834106,8.46749898 8.50247472,8.29592791 C8.288633,8.26617735 8.08267585,8.1916527 7.88316891,8.08918918 L7.88316891,8.08918918 L8.10742558,7.82951633 C8.24604194,7.89830347 8.39863074,7.93843604 8.55838542,7.95815197 C8.55123451,7.81917027 8.51650107,7.69343933 8.46027595,7.56519898 L8.46027595,7.56519898 L7.82121228,7.96453028 L7.29832106,7.12772942 L7.95744503,6.71586305 L7.8320944,6.5152601 L7.11278955,6.96473166 L6.948043,6.70108207 C6.96450687,6.84221383 6.97702995,6.9897928 6.9820308,7.13808746 L6.9820308,7.13808746 L8.2480722,9.16417722 L7.92424173,9.36652895 L6.9626233,7.82761778 C6.94613247,7.97340302 6.92606019,8.11345676 6.89595927,8.24383819 C6.81250497,8.18042921 6.60619447,8.05432395 6.49694837,8.00703148 C6.60803012,7.57899469 6.62205348,7.00838577 6.52252161,6.50474931 L6.52252161,6.50474931 L6.90222085,6.41093697 C6.91403423,6.48723436 6.92584762,6.56353176 6.93945172,6.64269491 L6.93945172,6.64269491 L7.63869628,6.20575841 L7.47574046,5.94497458 L7.81389971,5.73366923 L7.97685553,5.99445306 L8.73628097,5.51991138 Z M7.02288525,0.0984523356 C7.94210575,-0.0554484169 8.87192293,-0.0292928703 9.78476887,0.179572437 C10.4679856,0.335452755 11.1167838,0.586352258 11.719739,0.929217358 L11.719739,0.929217358 L11.2276143,1.24592691 C9.18996818,0.205727983 6.6814735,0.243402921 4.61812212,1.57103909 C2.55516398,2.89867526 1.44772824,5.18926516 1.50416797,7.5061159 L1.50416797,7.5061159 L1.01051175,7.82242532 C0.962888787,7.12113236 1.01730025,6.41745971 1.17051747,5.72324265 C1.37626275,4.79598429 1.75016822,3.9294186 2.2822374,3.15155433 C2.83181594,2.34496529 3.52823713,1.66801678 4.34962463,1.13808267 C5.17150884,0.60806431 6.07117102,0.258712971 7.02288525,0.0984523356 Z M11.3516535,3.76211879 L12.6517186,5.84265792 C12.7663249,6.02606633 12.7835075,6.14284066 12.7011102,6.2660532 C12.6194287,6.39678799 12.448199,6.51175362 12.1884902,6.67005297 C12.119724,6.58551166 11.9739478,6.47338182 11.875449,6.41140423 C12.0413035,6.31972099 12.2286527,6.19866749 12.2802363,6.16643447 C12.3346857,6.13241073 12.3440017,6.10268113 12.3117687,6.05109751 L12.3117687,6.05109751 L12.0431602,5.62123406 L11.4384856,5.99907668 L11.9380974,6.79862271 L11.5942066,7.01350951 L11.0945948,6.21396348 L10.5099805,6.57927104 C10.6535857,6.9238715 10.7473981,7.30357075 10.68074,7.65603182 C10.5868947,7.62700893 10.3759188,7.59546763 10.2734732,7.60369658 C10.3709539,7.06461697 10.0779969,6.53839582 9.82729566,6.13718993 L9.82729566,6.13718993 L9.18800743,5.1141149 L11.3516535,3.76211879 Z M8.13114519,6.99384142 L7.77865716,7.21410039 L7.95593877,7.49781027 L8.3084268,7.2775513 L8.2851474,7.24029647 L8.13114519,6.99384142 Z M8.82465824,6.56048637 L8.46930445,6.78253607 L8.62509738,7.03185687 L8.64658606,7.06624595 L9.00193985,6.84419625 L8.82465824,6.56048637 Z M10.6737748,5.54051073 L10.1350126,5.87716672 L10.1672456,5.92875033 C10.2245488,6.02045454 10.2861491,6.12541249 10.3466743,6.23502692 L10.3466743,6.23502692 L10.8940338,5.89299877 L10.6737748,5.54051073 Z M5.83582954,3.5301148 C6.70531602,2.97147697 7.71291118,2.74081538 8.71920244,2.86156892 L8.71920244,2.86156892 L7.95762823,3.35144841 C7.31950947,3.39101868 6.68397779,3.58901743 6.10616904,3.96018612 C5.52902257,4.33226035 5.08104383,4.83102683 4.77173257,5.40307938 L4.77173257,5.40307938 L4.01063438,5.89295887 C4.33304662,4.91715902 4.96866109,4.08826827 5.83582954,3.5301148 Z M11.6223402,4.94778131 L11.0176656,5.32562393 L11.2379245,5.67811197 L11.8425991,5.30026934 L11.6223402,4.94778131 Z M10.2672806,4.88998403 L9.72851842,5.22664002 L9.93624232,5.55906776 L10.4750045,5.22241177 L10.2672806,4.88998403 Z M3.61861935,3.92596489 L3.76600012,4.45343508 L4.27621365,4.62915318 L3.82873163,4.93499618 L3.82250194,5.48230415 L3.39838642,5.14329289 L2.88428192,5.30608063 L3.07015843,4.79145656 L2.75840497,4.34510647 L3.29676593,4.3649232 L3.61861935,3.92596489 Z M11.215846,4.29725461 L10.6111714,4.67509723 L10.8188953,5.00752497 L11.4235699,4.62968235 L11.215846,4.29725461 Z M4.90843387,2.01294569 L5.36893407,2.29650803 L5.85919605,2.0722695 L5.73613384,2.60424636 L6.09743505,3.01104724 L5.56110236,3.055061 L5.29262557,3.52963044 L5.08541082,3.02395654 L4.55820535,2.91208998 L4.9667363,2.55776867 L4.90843387,2.01294569 Z M8.00477517,1.03714584 L8.26251041,1.51855953 L8.79795315,1.57556682 L8.42889069,1.97337542 L8.54119065,2.5097326 L8.05432292,2.27471174 L7.58751024,2.54930287 L7.65655423,2.00654368 L7.25636403,1.64129264 L7.78640494,1.53837625 L8.00477517,1.03714584 Z" id="形状结合"></path>
            </g>
        </g>
    </g>
</svg>