<?xml version="1.0" encoding="UTF-8"?>
<svg width="22px" height="22px" viewBox="0 0 22 22" version="1.1" xmlns="http://www.w3.org/2000/svg" xmlns:xlink="http://www.w3.org/1999/xlink">
    <title>icon/logo/quanwangbijia1</title>
    <defs>
        <linearGradient x1="100%" y1="50%" x2="0%" y2="50%" id="linearGradient-1">
            <stop stop-color="#FFFFFF" stop-opacity="0.50467111" offset="0%"></stop>
            <stop stop-color="#FFFFFF" offset="46.6291183%"></stop>
            <stop stop-color="#FFFFFF" stop-opacity="0.500437063" offset="100%"></stop>
        </linearGradient>
        <path d="M10.0804,12.4582 C10.3312,12.445 10.5226,12.3658 10.6678,12.2206 C10.7932,12.082 10.8922,11.6002 10.9714,10.7752 L10.318,10.5574 C10.285,11.2174 10.2322,11.587 10.153,11.6728 C10.0738,11.752 9.988,11.7982 9.9022,11.7982 L8.9848,11.7982 C8.8264,11.7982 8.7472,11.7058 8.7472,11.5342 L8.7472,9.2044 C9.4072,9.0262 10.1068,8.7688 10.8526,8.4256 L10.4434,7.8646 C9.9022,8.1484 9.3412,8.3728 8.7472,8.5444 L8.7472,6.6106 L8.0542,6.6106 L8.0542,11.6596 C8.0542,12.1876 8.2984,12.4582 8.7934,12.4582 L10.0804,12.4582 Z M5.368,12.5374 C6.2458,12.3526 7.0708,12.1414 7.8364,11.9038 L7.6582,11.257 C7.1236,11.4286 6.5824,11.5804 6.0412,11.7058 L6.0412,9.0262 L7.6648,9.0262 L7.6648,8.353 L6.0412,8.353 L6.0412,6.6238 L5.3482,6.6238 L5.3482,11.488 C5.3482,11.6662 5.2822,11.8048 5.1568,11.8972 L5.368,12.5374 Z M12.9712,12.5968 L12.9712,8.0164 C13.1626,7.6336 13.321,7.2244 13.453,6.802 L12.8062,6.4984 C12.5158,7.5016 12.0736,8.3728 11.473,9.112 L11.704,9.8512 C11.902,9.6268 12.0934,9.3958 12.2716,9.1582 L12.2716,12.5968 L12.9712,12.5968 Z M13.4134,9.4354 C14.179,8.914 14.806,8.1748 15.301,7.2244 C15.7366,8.0758 16.3966,8.7886 17.2876,9.3694 L17.677,8.782 C16.7002,8.1484 16.0138,7.4092 15.6178,6.5644 L14.9908,6.5644 C14.5288,7.5016 13.8754,8.2672 13.0306,8.848 L13.4134,9.4354 Z M16.4758,12.577 L16.4758,8.8678 L15.8092,8.8678 L15.8092,12.577 L16.4758,12.577 Z M13.8622,12.676 C14.4892,12.082 14.8126,11.1382 14.8258,9.8578 L14.8258,8.8876 L14.1592,8.8876 L14.1592,9.8578 C14.146,10.9402 13.8754,11.7322 13.3408,12.2206 L13.8622,12.676 Z" id="path-2"></path>
    </defs>
    <g id="icon/logo/quanwangbijia1" stroke="none" stroke-width="1" fill="none" fill-rule="evenodd">
        <g id="编组-8">
            <circle id="椭圆形" fill="#F30300" cx="11" cy="11" r="11"></circle>
            <path d="M14.08,14.025 C14.3837566,14.025 14.63,14.2712434 14.63,14.575 C14.63,15.8770249 13.0136448,16.775 11.11,16.775 C9.20635521,16.775 7.59,15.8770249 7.59,14.575 C7.59,14.2712434 7.83624339,14.025 8.14,14.025 C8.41338095,14.025 8.64017619,14.2244571 8.68280143,14.4857871 L8.69,14.575 C8.69,15.0955148 9.73307338,15.675 11.11,15.675 C12.4213587,15.675 13.4299026,15.1493898 13.5229808,14.6496915 L13.53,14.575 C13.53,14.2712434 13.7762434,14.025 14.08,14.025 Z" id="路径" fill="url(#linearGradient-1)" fill-rule="nonzero"></path>
            <g id="比价" fill-rule="nonzero" fill="#FFFFFF">
                <use xlink:href="#path-2"></use>
                <use xlink:href="#path-2"></use>
            </g>
        </g>
    </g>
</svg>