<?xml version="1.0" encoding="UTF-8"?>
<svg width="22px" height="22px" viewBox="0 0 22 22" version="1.1" xmlns="http://www.w3.org/2000/svg" xmlns:xlink="http://www.w3.org/1999/xlink">
    <title>icon/logo/binjia1</title>
    <g id="icon/logo/binjia1" stroke="none" stroke-width="1" fill="none" fill-rule="evenodd">
        <circle id="椭圆形" fill="#F30300" cx="11" cy="11" r="11"></circle>
        <g id="编组" transform="translate(0.500000, 7.500000)" fill="#FFFFFF">
            <g id="合并" transform="translate(0.909091, 0.875000)">
                <path d="M3.78378378,0 L3.78378378,4.59375 L5.76576577,4.59451714 L5.58558559,5.25 L2.88288288,5.25 L2.88288288,0 L3.78378378,0 Z M0.900900901,1.86517468e-14 L0.900900901,2.00976563 L2.20720721,2.00976563 L2.20720721,2.66601563 L0.900900901,2.66601563 L0.900900901,4.59375 L2.20720721,4.59375 L2.20720721,5.24923286 L9.69890834e-12,5.25 L9.69890834e-12,1.86517468e-14 L0.900900901,1.86517468e-14 Z M6.97689311,0 C7.17891572,0 7.37166372,0.077205425 7.50817538,0.212805713 L11.2579034,3.9375 L11.2579034,0 L12.1588043,0 L12.1588043,5.25 L11.2589027,5.25 L7.29393939,1.3125 L7.29393939,5.25 L6.39303849,5.25 L6.39303849,0 L6.97689311,0 Z M13.8671822,1.02539062 L17.4693002,1.02905346 L17.4707858,1.68164062 L15.7867461,1.68164562 C15.7079307,1.79497061 15.622313,1.90445596 15.5304521,2.00935141 L16.0293444,2.00976562 C16.3278767,2.00976562 16.5698849,2.23012547 16.5698849,2.50195312 L16.5698685,2.66601563 L16.5758746,2.66604622 C16.6488311,2.83179428 16.7298921,2.9887361 16.8182057,3.13558757 C17.0673067,3.09053039 17.2893517,2.97879329 17.4617313,2.82183357 C17.6899747,2.61400726 17.8311462,2.32689788 17.8311462,2.00976563 L18.5518669,2.00976563 C18.5518669,2.790373 18.0075689,3.45522472 17.2456968,3.70682324 C17.6200131,4.10686187 18.0674415,4.36198414 18.5518512,4.41801 L18.5518512,5.24010711 C17.7555828,5.16212384 17.0500274,4.62835222 16.5698685,3.8256865 L16.5698849,5.25 L15.3987138,5.25 L15.2185336,4.59375 L15.668984,4.59375 L15.668984,2.66601562 L14.7809872,2.66687694 C14.2097904,3.04829055 13.5238345,3.28125076 12.7861011,3.28125076 L12.7861011,2.625 C13.5821873,2.625 14.302908,2.33118687 14.8246072,1.8561553 C14.8858185,1.80041952 14.94429,1.74218901 14.9998219,1.68164562 L13.8671822,1.68164062 L13.8671822,1.02539062 Z M15.5654817,3.9375225 C14.9045163,4.71426172 13.9048437,5.24998774 12.7861011,5.24998774 L12.7861011,4.59373774 C13.51724,4.59373774 14.1848089,4.34590948 14.6930147,3.93747724 L15.5654817,3.9375225 Z M15.5654575,2.95318369 C14.9044921,3.72992292 13.9048195,4.26564893 12.786077,4.26564893 L12.786077,3.60939893 C13.5172296,3.60939385 14.18479,3.36156647 14.6929905,2.95313843 L15.5654575,2.95318369 Z M16.1194345,0 L16.1194345,0.205078125 L17.8300119,0.200630553 C18.2280534,0.199595629 18.5516511,0.492568593 18.5527906,0.855003981 L18.5518669,1.68164062 L17.650966,1.68164062 L17.650966,0.861328125 L13.687002,0.861328125 L13.687002,1.68164062 L12.7861011,1.68164062 L12.7861011,0.205078125 L15.2185336,0.205078125 L15.2185336,0 L16.1194345,0 Z" id="形状结合"></path>
                <path d="M5.76576577,0.861328125 C5.76576577,1.8480625 4.89606074,2.64983703 3.81655948,2.66577386 L3.78378378,2.66601563 L3.78378378,2.00976562 L3.78378378,2.00976562 C4.13207146,2.00976562 4.44738678,1.88122238 4.67563018,1.67339607 C4.90387356,1.46556976 5.04504505,1.17846038 5.04504505,0.861328125 L5.76576577,0.861328125 L5.76576577,0.861328125 Z" id="Combined-Shape"></path>
            </g>
        </g>
    </g>
</svg>