<?xml version="1.0" encoding="UTF-8"?>
<svg width="22px" height="22px" viewBox="0 0 22 22" version="1.1" xmlns="http://www.w3.org/2000/svg" xmlns:xlink="http://www.w3.org/1999/xlink">
    <title>icon/logo/eleme</title>
    <defs>
        <circle id="path-1" cx="11" cy="11" r="11"></circle>
    </defs>
    <g id="icon/logo/eleme" stroke="none" stroke-width="1" fill="none" fill-rule="evenodd">
        <g id="编组-14">
            <mask id="mask-2" fill="white">
                <use xlink:href="#path-1"></use>
            </mask>
            <use id="蒙版" fill="#0C94FD" xlink:href="#path-1"></use>
            <g id="编组" mask="url(#mask-2)">
                <g transform="translate(3.000000, 6.000000)"></g>
            </g>
        </g>
        <path d="M9.6548182,11.8708573 L10.4477907,12.9914504 L10.4477907,12.9914504 L17.2283135,8.58386747 C17.6913365,8.28285156 17.8227015,7.66348251 17.5217098,7.20044382 C17.5018752,7.16993077 17.4803897,7.14052327 17.4573491,7.11235258 C16.1907232,5.56370507 15.0469885,4.60625942 14.0261452,4.24001563 C12.2607731,3.60666031 10.9765824,3.67400421 9.59379456,3.93969393 C7.21353031,4.39703938 5.45002561,6.21380093 4.54603999,7.9902688 C4.03252547,8.99940217 3.7145084,10.5157048 3.7843302,11.8387245 C3.8548103,13.1742182 4.31664042,14.3137822 4.54603999,14.7543216 C5.3389148,16.27696 7.51802638,18.5403626 10.4477907,18.6715149 C11.2236078,18.7062447 12.4967247,18.7545405 14.0261452,18.1906474 C14.3915052,18.0559402 14.9247161,17.7740645 15.6257778,17.3450202 C15.8612518,17.2008401 15.9353285,16.8930861 15.7912007,16.65758 C15.7791615,16.6379079 15.7657754,16.6190925 15.7511385,16.6012686 L15.0951813,15.8024893 C14.9484102,15.6236934 14.6981517,15.5689521 14.4901177,15.6701036 C11.4241403,17.1608611 8.93329101,16.8556004 7.01756994,14.7543216 C6.4541215,14.1362972 5.92754376,12.828534 5.85303428,11.447457 C5.75074101,9.5513911 6.44725814,7.48675054 8.58507924,6.60218288 C11.1304377,5.54898821 13.1838074,5.74123596 14.7451882,7.17892613 C14.9483086,7.36598348 14.9613538,7.68228409 14.7743115,7.8854184 C14.7463391,7.91579746 14.7147107,7.94259397 14.680149,7.96519566 L9.78930866,11.1635736 C9.55819716,11.3147096 9.49336419,11.6245824 9.64450016,11.8556939 C9.64784651,11.860811 9.65128643,11.8658663 9.6548182,11.8708573 Z" id="路径-13" stroke="#B8EAFB" stroke-width="0.1" fill="#F9FBFB"></path>
        <path d="M18.6574379,11.0190251 L18.8962125,11.6285597 C19.0422587,12.0013811 19.023363,12.3981045 18.8747505,12.7381341 C18.7261379,13.0781637 18.4478084,13.3614995 18.0749869,13.5075458 C17.7665058,13.6283879 17.4259447,13.6399462 17.1099803,13.5402971 L17.1099803,13.5402971 L16.487355,11.1480137 L18.6574379,11.0190251 Z" id="矩形" stroke="#B8EAFB" stroke-width="0.1" fill="#F9FBFB" transform="translate(18.260606, 12.749313) rotate(-31.000000) translate(-18.260606, -12.749313) "></path>
    </g>
</svg>