<?xml version="1.0" encoding="UTF-8"?>
<svg width="22px" height="22px" viewBox="0 0 22 22" version="1.1" xmlns="http://www.w3.org/2000/svg" xmlns:xlink="http://www.w3.org/1999/xlink">
    <title>icon/logo/jingdong1</title>
    <defs>
        <circle id="path-1" cx="11" cy="11" r="11"></circle>
    </defs>
    <g id="icon/logo/jingdong1" stroke="none" stroke-width="1" fill="none" fill-rule="evenodd">
        <g id="编组-14">
            <mask id="mask-2" fill="white">
                <use xlink:href="#path-1"></use>
            </mask>
            <use id="蒙版" fill="#DA0B06" xlink:href="#path-1"></use>
            <g id="编组" mask="url(#mask-2)" fill="#FFFFFF" fill-rule="nonzero">
                <g transform="translate(2.291667, 5.958333)" id="形状">
                    <path d="M2.80226539,3.9210409 C2.82733238,4.23992787 2.86493287,4.56183747 2.87746637,4.88223576 C2.90096667,5.47920426 2.6565635,5.95375644 2.15365697,6.30135835 C1.76668527,6.5688607 1.34211309,6.76382003 0.878373736,6.86961192 C0.336300029,6.99202825 -0.114905831,6.56281545 0.0260959999,6.04292389 C0.105997038,5.7467066 0.209398381,5.44444407 0.369200456,5.18298698 C0.767138958,4.53614515 1.01154213,3.83489607 1.21051138,3.11551124 C1.24654518,2.98100441 1.29667917,2.8480089 1.35934665,2.72256995 C1.46744805,2.50494092 1.71341792,2.39310378 1.94998765,2.46111285 C2.12075654,2.51098617 2.28682536,2.58050656 2.44506075,2.66211744 C2.69729736,2.7890677 2.94326722,2.93415372 3.19080377,3.07168317 C3.34277241,2.91450666 3.4884743,2.74826226 3.64670969,2.597131 C4.20131689,2.06666025 4.88439243,1.72963752 5.58156815,1.41830711 C6.673549,0.931664431 7.79686359,0.519076071 8.9781456,0.281799982 C9.52491937,0.172985469 10.0842266,0.101953774 10.6419672,0.0611483316 C11.3078092,0.0127863261 11.9767846,-0.0113946767 12.6426265,0.00522976274 C13.5074378,0.0248768275 14.3597155,0.135202653 15.1493258,0.519076071 C15.5754646,0.726125907 15.9326693,1.011764 16.0094369,1.48027093 C16.0627043,1.80822578 16.0423374,2.1558277 16.0031702,2.4898278 C15.938936,3.05657005 15.6992329,3.57797292 15.4657965,4.09333054 C15.4031291,4.22934868 15.2401936,4.33816319 15.1007585,4.41826277 C14.7435538,4.61926735 14.3456153,4.72354793 13.9414101,4.79760225 C12.8024286,5.00767471 11.6838141,4.91397332 10.5949666,4.53614515 C9.94792487,4.31247088 9.42621809,3.90441646 8.95151192,3.43742084 C8.90137794,3.38905884 8.86221076,3.32407239 8.80110997,3.29686876 C8.7368758,3.26664251 8.63504115,3.24246151 8.58960722,3.27268776 C8.54260661,3.30442533 8.51440625,3.4087059 8.52693974,3.47066972 C8.5441733,3.54472404 8.60214072,3.61877836 8.65854145,3.67771956 C9.34788374,4.39710439 10.187628,4.87921313 11.1762075,5.09986478 C12.3574895,5.36283319 13.5340714,5.34923137 14.6934198,4.97744845 C14.7592207,4.95629008 14.8250215,4.93210907 14.8892557,4.90339413 C14.9519232,4.8761905 15.013024,4.84294163 15.0991918,4.82933981 C14.9707234,5.00918602 14.8500885,5.19205485 14.7169201,5.36736712 C13.8176418,6.53107788 12.6629935,7.35020935 11.2075412,7.75977508 C10.2784958,8.02123218 9.34945043,7.98344936 8.42510509,7.76733165 C6.88191838,7.40461661 5.46406663,6.77893316 4.24205076,5.7814668 C3.86134581,5.4716477 3.50257449,5.13613628 3.25190456,4.71448005 C3.15476997,4.55276959 3.07330224,4.37594601 3.02630163,4.19761112 C2.99026783,4.05101379 2.92916704,3.95882371 2.80226539,3.9210409 Z M14.0385447,0.364922179 C13.8599423,0.381546618 13.6782066,0.387591869 13.501171,0.414795497 C13.2270008,0.457112252 12.9653641,0.543257074 12.7475946,0.717058031 C12.5548921,0.868189299 12.5768257,1.08732964 12.7914618,1.20370071 C12.8776296,1.24904009 12.9747642,1.28380028 13.0687654,1.30798129 C13.5027377,1.42284105 13.9445434,1.3926148 14.3832158,1.3457641 C14.6088187,1.3215831 14.8312883,1.25206272 15.042791,1.17347446 C15.1884929,1.1190672 15.298161,0.998162188 15.2918943,0.825872544 C15.2840608,0.661139462 15.1461924,0.602198268 15.0208574,0.544768387 C14.7122201,0.405727621 14.3785157,0.366433491 14.0385447,0.364922179 Z M8.88727776,2.29637977 C9.1473478,2.29637977 9.34945043,2.11955619 9.34945043,1.89739323 C9.34788374,1.67674158 9.1348143,1.49387274 8.88414438,1.49537476 C8.62250765,1.49689537 8.42667177,1.67069633 8.42510509,1.89739323 C8.42510509,2.11955619 8.62720771,2.29486846 8.88727776,2.29637977 Z M10.9004706,11.9068171 C10.7798357,11.9068171 10.6639008,11.9143736 10.5510994,11.9037944 C10.5197656,11.9007718 10.4774651,11.8493872 10.468065,11.8116044 C10.3834639,11.4942287 10.3129629,11.1708078 10.2205284,10.8549434 C10.1860613,10.7310158 10.1202604,10.6116221 10.0450595,10.5043189 C9.932258,10.3395858 9.74112218,10.3184274 9.61422053,10.4725813 C9.49045226,10.62069 9.38078417,10.7884457 9.3040165,10.9652693 C9.19278172,11.2221924 9.111314,11.4927174 9.03297965,11.7632424 C9.00007922,11.8750795 8.95934536,11.9325094 8.83244371,11.9128623 C8.76037611,11.9022831 8.68360844,11.911351 8.59430728,11.911351 C8.61310753,11.4488893 8.6287744,11.0015408 8.64757464,10.5118755 C8.53477318,10.5662827 8.44860539,10.5934863 8.38280454,10.6418483 C8.2308359,10.7597307 8.08043394,10.8821471 7.94413217,11.0151426 C7.69502894,11.2599752 7.45375914,11.5138758 7.21248934,11.7677763 C7.0605207,11.9264641 7.00725334,11.9430886 6.74561661,11.8841474 C7.05425395,11.3778576 7.3613246,10.8761018 7.67779538,10.3637668 C7.3738581,10.2791333 7.10908799,10.1627622 6.99628653,9.86201101 C6.92421893,9.67460824 6.93518574,9.49022809 7.01508677,9.29678007 C7.03388702,9.36176652 7.0479872,9.42977559 7.06835413,9.49476203 C7.17018879,9.83178476 7.47725944,10.007097 7.82349727,9.90583908 C7.91279843,9.87863545 8.01149972,9.80760375 8.0616337,9.73052681 C8.36557098,9.25748594 8.65854145,8.77839982 8.94681186,8.29780239 C9.00007922,8.21014626 9.05334658,8.19352182 9.15204786,8.21014626 C9.62832071,8.28268927 10.1045936,8.35069834 10.5839998,8.22979332 C10.6889678,8.2025897 10.7892358,8.16027294 10.9004706,8.12249012 L10.9004706,11.9068171 L10.9004706,11.9068171 Z"></path>
                </g>
            </g>
        </g>
    </g>
</svg>