<?xml version="1.0" encoding="UTF-8"?>
<svg width="22px" height="22px" viewBox="0 0 22 22" version="1.1" xmlns="http://www.w3.org/2000/svg" xmlns:xlink="http://www.w3.org/1999/xlink">
    <title>icon/logo/kaola1</title>
    <g id="icon/logo/kaola1" stroke="none" stroke-width="1" fill="none" fill-rule="evenodd">
        <circle id="椭圆形" fill="#F30300" cx="11" cy="11" r="11"></circle>
        <g id="编组" transform="translate(4.000000, 7.500000)">
            <path d="M11.5,0 C13.1568542,0 14.5,1.34314575 14.5,3 C14.5,4.5737379 13.2882324,5.86445232 11.7468507,5.98998971 C11.1331622,7.74254192 9.46342864,9 7.5,9 C5.53619565,9 3.86619879,7.74206064 3.2518412,5.98801373 L3.17627279,5.99490731 L3.17627279,5.99490731 L3,6 C1.34314575,6 0,4.65685425 0,3 C0,1.34314575 1.34314575,0 3,0 C3.76641344,0 4.46570194,0.287396021 4.99597439,0.760296953 C5.71137569,0.280329645 6.5729506,0 7.5,0 C8.3073573,0 9.0650556,0.212615453 9.72015761,0.584909061 C10.2173639,0.217488953 10.8332833,0 11.5,0 Z" id="形状结合" fill="#FFFFFF"></path>
            <rect id="矩形" fill="#1C1818" x="6.5" y="3" width="2" height="3" rx="1"></rect>
            <circle id="椭圆形" fill="#1C1818" cx="5" cy="4" r="1"></circle>
            <circle id="椭圆形备份-3" fill="#1C1818" cx="9.5" cy="4" r="1"></circle>
        </g>
    </g>
</svg>