<?xml version="1.0" encoding="UTF-8"?>
<svg width="22px" height="22px" viewBox="0 0 22 22" version="1.1" xmlns="http://www.w3.org/2000/svg" xmlns:xlink="http://www.w3.org/1999/xlink">
    <title>btn_fwh_meituancir</title>
    <g id="页面-1" stroke="none" stroke-width="1" fill="none" fill-rule="evenodd">
        <g id="btn_fwh_meituancir" transform="translate(11.177924, 10.768899) rotate(-3.000000) translate(-11.177924, -10.768899) translate(1.177924, 0.768899)">
            <path d="M10,0 C15.5228475,0 20,4.4771525 20,10 C20,15.5228475 15.5228475,20 10,20 C4.4771525,20 0,15.5228475 0,10 C0,4.4771525 4.4771525,0 10,0 Z M10,0.5 C4.75329488,0.5 0.5,4.75329488 0.5,10 C0.5,15.2467051 4.75329488,19.5 10,19.5 C15.2467051,19.5 19.5,15.2467051 19.5,10 C19.5,4.75329488 15.2467051,0.5 10,0.5 Z" id="蒙版" fill="#FFD100" fill-rule="nonzero"></path>
            <path d="M5.07436121,14.0667707 C5.2814392,15.6607894 5.3316775,17.2313744 5.22507611,18.7785257 L7.9674286,19.7305167 L11.0956005,19.5552712 L11.0956005,19.1478284 C12.5110149,18.6450531 13.4720738,18.2216075 13.9787772,17.8774916 C15.1145748,17.1061412 16.1837838,16.1911727 16.2491619,14.5276246 C16.3145401,12.8640764 15.4451826,12.1067905 15.0027263,11.6818987 C14.5899772,11.2855348 14.0651813,10.8919542 13.4283385,10.5011566 C14.1578894,7.97095827 14.5328882,6.57823473 14.5533349,6.32298598 C14.6826523,4.70863864 13.4084004,3.84509597 12.6142804,3.7601106 C12.2701544,3.72328282 10.4379186,3.46479826 9.94957813,5.53459116 C9.62401783,6.9144531 9.41031243,8.17567247 9.30846193,9.31824928 L8.77982611,9.31824928 C8.51842688,6.84480405 8.17054626,5.30817143 7.73618423,4.70835142 C6.92708301,3.59104587 5.63897294,3.6569187 4.82954164,3.91679057 C4.52082122,4.01590676 3.3446359,4.67946642 3.37593653,6.19129187 C3.39520102,7.12176977 3.9588603,8.56409848 4.23525769,9.66940856 C4.68722885,11.4768361 4.9551295,13.148964 5.07436121,14.0667707 Z" id="路径" fill="#FFD100"></path>
            <path d="M9.45629344,16.0048164 C9.69560411,16.3924562 9.96706689,16.6427692 10.270047,16.7642354 C10.697078,16.9353822 11.1128303,16.9546063 11.5265351,16.8237298 C11.6541185,16.7833684 11.789728,16.8558005 11.8294274,16.9855112 C11.8691268,17.1152219 11.7978827,17.2530926 11.6702993,17.2934539 C11.1498738,17.4580917 10.6208939,17.4336321 10.0925676,17.2218879 C9.68581602,17.0588192 9.3373173,16.7374721 9.04645994,16.266336 C8.97542765,16.1512766 9.00958896,15.9994594 9.12276135,15.9272427 C9.23593375,15.8550261 9.38526115,15.889757 9.45629344,16.0048164 Z M15.4246091,11.9048941 C15.5336394,11.9048941 15.9589797,12.3022453 16.2370077,12.8632963 C16.4580584,13.3093693 16.5538605,13.8011229 16.5538605,14.3402112 C16.5538605,14.7922139 16.4985715,15.2288579 16.3302766,15.6256755 C16.0410425,16.3076517 15.5542884,16.8076432 15.4246091,16.8076432 C15.1418702,16.8076432 14.5352038,16.4575388 14.2022373,15.5951043 C14.063142,15.234826 13.9718104,14.7851403 13.9718104,14.2342207 C14.0634696,13.4272819 14.1768349,13.0687192 14.4895111,12.5585521 C14.7472353,12.1380456 15.2434921,11.9048941 15.4246091,11.9048941 Z M9.01417959,11.9048941 C9.3283233,11.9048941 9.81399445,12.3099343 9.81399445,13.1921739 C9.81399445,14.0744135 9.42715586,14.5299551 9.00940926,14.5299551 C8.50274738,14.3688283 8.19581822,13.9815834 8.19581822,13.1921739 C8.19581822,12.4027644 8.70003588,11.9048941 9.01417959,11.9048941 Z" id="形状" fill="#010101"></path>
        </g>
    </g>
</svg>