<?xml version="1.0" encoding="UTF-8"?>
<svg width="22px" height="22px" viewBox="0 0 22 22" version="1.1" xmlns="http://www.w3.org/2000/svg" xmlns:xlink="http://www.w3.org/1999/xlink">
    <title>icon/logo/pinduoduo</title>
    <g id="icon/logo/pinduoduo" stroke="none" stroke-width="1" fill="none" fill-rule="evenodd">
        <circle id="椭圆形" fill="#E32A1F" cx="11" cy="11" r="11"></circle>
        <path d="M6.8,6.317907 C6.94082031,6.19918655 7.09257812,6.09365725 7.25390625,6 L7.25390625,10.5285259 C6.55390625,10.0523249 5.89628906,9.53523139 5.19628906,9.05771133 C4.78476562,8.77937782 4.41425781,8.50236342 4.00273438,8.2240299 C4.94882813,7.58953501 5.85664063,6.95240189 6.80273438,6.317907 L6.8,6.317907 Z M5.85390625,7.39034847 C5.85390625,7.51038804 5.81152344,7.58953501 5.81152344,7.70825547 C5.76914063,7.82829504 5.9359375,7.98658899 5.81152344,8.10530944 C5.72949219,8.30449599 5.64746094,8.46278993 5.56542969,8.62240299 C5.5203125,8.68176322 5.5203125,8.76222931 5.56542969,8.82158954 C5.6078125,8.90073651 5.72949219,8.86248214 5.81152344,8.86248214 C5.89355469,8.90337474 5.9359375,8.94162911 6.01796875,8.94162911 C6.1,8.94162911 6.14238281,8.90073651 6.22441406,8.90073651 C6.30644531,8.90073651 6.38847656,8.94162911 6.43085937,8.90073651 C6.47324219,8.90073651 6.51289062,8.8598439 6.59492187,8.82158954 L6.8,8.82158954 C6.88203125,8.78069693 6.88203125,8.66329559 6.84238281,8.58414862 C6.70976562,8.45619435 6.59902344,8.30845334 6.51289062,8.14620204 C6.38847656,7.9879081 6.59492187,7.78872156 6.51289062,7.6291085 C6.47050781,7.5882159 6.47050781,7.47081455 6.47050781,7.39166758 L6.38847656,7.39166758 C6.35429687,7.49455865 6.28046875,7.5803012 6.18203125,7.6291085 C6.07539062,7.59613059 5.98652344,7.52489832 5.9359375,7.42992195 C5.9359375,7.38902935 5.89355469,7.38902935 5.85390625,7.38902935 L5.85390625,7.39034847 L5.85390625,7.39034847 Z M7.5,6.00131912 C7.91152344,6.27965263 8.32441406,6.55666703 8.77558594,6.83500055 L10.8755859,8.2649225 C10.7990234,8.30713422 10.7292969,8.36121798 10.6691406,8.42321644 C9.63964844,9.09860394 8.61152344,9.81488403 7.53964844,10.4902715 C7.5,9.01945696 7.5,7.51038804 7.5,6.00131912 Z M7.82949219,7.70957459 C7.87460938,7.80718918 7.93066406,7.90084643 7.99355469,7.9879081 C8.0359375,7.9879081 8.07558594,7.9470155 8.11796875,7.9470155 L8.11796875,8.90073651 C8.48710938,8.94030999 8.86035156,8.94030999 9.22949219,8.90073651 C9.25,8.5828295 9.25,8.2649225 9.22949219,7.9470155 C9.271875,7.9470155 9.31152344,7.9879081 9.35390625,7.9879081 C9.44550781,7.8982082 9.51660156,7.79004067 9.56035156,7.6700011 C9.35390625,7.6291085 9.14882813,7.51170716 8.94238281,7.47081455 C8.89863281,7.58953501 8.78378906,7.66868198 8.65390625,7.6700011 C8.52949219,7.6700011 8.44746094,7.54996153 8.4078125,7.47081455 C8.20546875,7.52621743 8.01269531,7.60536441 7.83222656,7.70825547 L7.82949219,7.70957459 L7.82949219,7.70957459 Z M11.1230469,8.3058151 C12.2359375,7.51038804 13.3898437,6.75585358 14.5,6.00131912 L14.5,10.4915906 C13.3884766,9.77399143 12.2359375,9.01945696 11.1244141,8.3058151 L11.1230469,8.3058151 Z M12.9332031,7.39166758 C12.8716797,7.58557766 12.8716797,7.79399802 12.9332031,7.9879081 C13.0152344,8.18709465 13.2216797,8.3058151 13.3447266,8.46410905 C13.4267578,8.54325602 13.3871094,8.66329559 13.3871094,8.74244256 C13.2695312,8.77937782 13.1587891,8.83214246 13.0576172,8.90073651 L13.8,8.90073651 C13.6755859,8.8598439 13.5935547,8.78069693 13.4705078,8.74244256 C13.4705078,8.66329559 13.428125,8.50500165 13.5128906,8.46410905 C13.6919922,8.34406947 13.8341797,8.17917995 13.9244141,7.9879081 C14.0064453,7.78872156 13.9244141,7.59085413 13.8820312,7.39166758 L12.9332031,7.39166758 Z M14.7064453,6.00131912 L15.5705078,6.59755964 C16.2705078,7.07376058 16.928125,7.51038804 17.628125,7.98922722 L17.9986328,8.22666813 C16.8871094,8.98120259 15.8166016,9.73573706 14.7050781,10.5311641 L14.7050781,6.00131912 L14.7064453,6.00131912 Z M15.3244141,7.23205452 C15.3599609,7.37847642 15.4679687,7.49719688 15.6128906,7.54996153 L15.8589844,7.54996153 C15.8166016,7.47081455 15.8166016,7.35077498 15.7345703,7.31252061 C15.6115234,7.19116192 15.4460937,7.23205452 15.3244141,7.23205452 Z M15.9820313,7.3520941 C15.9314453,7.41277344 15.8904297,7.48004837 15.8576172,7.55128064 C15.9396484,7.55128064 16.0640625,7.55128064 16.1037109,7.51038804 C16.1542969,7.4497087 16.1966797,7.38243377 16.228125,7.31120149 C16.1447266,7.30460591 16.0599609,7.31911619 15.9820313,7.3520941 Z M15.7359375,7.63042761 C15.3544922,7.68978784 15.0947266,8.0367154 15.15625,8.40474882 C15.1576172,8.4113444 15.1589844,8.4192591 15.1603516,8.42585468 C15.2164063,8.770144 15.5404297,9.01286138 15.9,8.98120259 C16.0886719,8.96009674 16.2623047,8.8756733 16.3935547,8.74376168 C16.55625,8.54061779 16.6027344,8.27151808 16.5179688,8.02748159 C16.3675781,7.75046719 16.0558594,7.59217324 15.7359375,7.63042761 L15.7359375,7.63042761 Z M14.8294922,10.7290315 C15.9,9.97449709 16.9294922,9.25821699 18,8.50368253 L18,12.9939541 C16.9294922,12.2381005 15.9,11.5218204 14.8294922,10.7672859 C14.8294922,10.7672859 14.7871094,10.7263933 14.8294922,10.7263933 L14.8294922,10.7290315 L14.8294922,10.7290315 Z M16.5179688,10.291085 C16.2472656,10.3240629 16.0148438,10.4902715 15.9,10.7290315 C15.8576172,10.8873255 16.0244141,10.9664725 16.1064453,11.086512 C16.2349609,11.1920413 16.3921875,11.2606354 16.5603516,11.2856986 C16.6779297,11.3740794 16.8009766,11.4532263 16.9308594,11.5231395 C16.9650391,11.4202484 16.9787109,11.3134 16.9732422,11.2052325 C17.1167969,11.1221282 17.2548828,11.0284709 17.3847656,10.926899 C17.5091797,10.9677916 17.5912109,11.0851929 17.6732422,11.1260855 C17.715625,11.1260855 17.7976563,11.1260855 17.7976563,11.0851929 C17.7894531,10.9875783 17.7621094,10.8939211 17.715625,10.8068594 C17.7675781,10.722436 17.7949219,10.6261405 17.7976563,10.5285259 C17.7976563,10.4493789 17.715625,10.4084863 17.6335938,10.4493789 C17.5460938,10.4942289 17.4736328,10.564142 17.4271484,10.6485655 C17.2630859,10.5694185 17.1386719,10.4493789 16.9732422,10.3702319 L16.9732422,10.0523249 C16.7667969,10.0523249 16.64375,10.2106189 16.5193359,10.2897659 L16.5179688,10.291085 L16.5179688,10.291085 Z M4,8.54325602 C5.07050781,9.29779048 6.1,10.0140706 7.17050781,10.768605 C7.21289062,10.768605 7.17050781,10.8094976 7.17050781,10.8094976 C6.1,11.5231395 5.07050781,12.2789931 4,12.9926349 L4,8.54325602 Z M4.94609375,10.0932175 C4.91464844,10.1644498 4.87226562,10.2317247 4.82167969,10.2924041 C4.78203125,10.3412114 4.721875,10.3702319 4.65761719,10.3715511 C4.546875,10.4586127 4.48535156,10.5905243 4.49355469,10.7277124 C4.45253906,10.8569858 4.45253906,10.995493 4.49355469,11.1247664 C4.50585938,11.244806 4.61523438,11.3331868 4.73964844,11.323953 L5.68574219,11.323953 C5.76230469,11.3226338 5.83613281,11.2949324 5.8921875,11.244806 C5.97421875,11.165659 5.93457031,11.0073651 5.93457031,10.8873255 C5.91816406,10.7237551 5.87578125,10.5628229 5.81015625,10.4111245 C5.72539063,10.3623172 5.64199219,10.3095526 5.5640625,10.2528306 C5.52578125,10.1169616 5.41640625,10.0101132 5.27558594,9.97449709 C5.15527344,9.97713532 5.04042969,10.019347 4.94609375,10.0932175 Z M9.72304687,9.81488403 C9.88710937,9.61569748 9.92949219,9.37693745 10.0525391,9.18038914 C10.1660156,9.37166099 10.2617188,9.57084753 10.3410156,9.77662966 C10.4230469,9.77662966 10.5050781,9.81752226 10.6294922,9.81752226 L10.6294922,10.0536441 C10.7539062,10.0127515 10.8755859,10.0127515 11.0410156,9.97449709 C10.9589844,9.69616357 10.8345703,9.41914917 10.7525391,9.17907002 C11.0410156,9.2991096 11.2884766,9.37825657 11.5345703,9.49697703 C11.4525391,9.65527097 11.4101562,9.85445751 11.328125,10.0523249 C11.4525391,10.0114323 11.5742187,10.0114323 11.6576172,9.97317797 C11.7,9.97317797 11.7,9.93228537 11.7396484,9.894031 C11.853125,9.66186655 11.9501953,9.42310652 12.028125,9.17775091 C12.2345703,9.29779048 12.3986328,9.45608442 12.6037109,9.57480488 L12.4792969,9.69484445 C12.3548828,9.81488403 12.1908203,9.894031 12.0677734,10.0127515 L12.6037109,10.0127515 C12.6460937,10.132791 12.6857422,10.291085 12.728125,10.4098054 L12.4013672,10.4098054 C12.3589844,10.5680994 12.3193359,10.7277124 12.2769531,10.926899 C12.4328125,10.9480048 12.5845703,10.9888974 12.7308594,11.0469386 C12.8101562,11.1682972 12.8662109,11.3028471 12.8949219,11.4439925 C12.7308594,11.4848851 12.5244141,11.4848851 12.3589844,11.5231395 L12.2345703,12.3568209 C12.1484375,12.4359679 12.0513672,12.5032428 11.9460937,12.5560075 C11.8640625,12.198527 11.8216797,11.8397274 11.7396484,11.483566 C11.6138672,11.4901616 11.4894531,11.4756513 11.3691406,11.4426734 C11.2871094,11.7210069 11.2447266,12.0389139 11.1626953,12.3172474 C11.0806641,12.437287 10.95625,12.437287 10.8332031,12.516434 C10.8400391,12.1721447 10.8263672,11.8265362 10.7908203,11.483566 C10.7060547,11.4888425 10.6212891,11.4756513 10.5447266,11.4426734 C10.5023437,11.3226338 10.4626953,11.2434869 10.4203125,11.1247664 C10.25625,11.2830603 10.2958984,11.5218204 10.25625,11.7210069 C10.2138672,11.9993404 10.1742187,12.2763548 10.1318359,12.516434 C9.90214844,12.3700121 9.68339844,12.2117181 9.47421875,12.040233 C9.59863281,11.9993404 9.76269531,11.9610861 9.88574219,11.9201935 C9.84335937,11.7210069 9.84335937,11.5231395 9.80371094,11.323953 C9.72167969,11.3648456 9.63964844,11.4439925 9.55761719,11.4822469 C9.47558594,11.2830603 9.43320312,11.0443003 9.35117187,10.847752 C9.50566406,10.8437947 9.65878906,10.8174123 9.80507812,10.768605 C9.80507812,10.6103111 9.76269531,10.4902715 9.76269531,10.3306585 C9.7203125,10.3306585 9.68066406,10.2897659 9.63828125,10.2897659 C9.54667969,10.1631307 9.46464844,10.0299 9.3921875,9.89271188 C9.50703125,9.89007365 9.61914062,9.86237221 9.72167969,9.81356491 L9.72304687,9.81488403 L9.72304687,9.81488403 Z M10.2576172,10.8081785 L10.6691406,10.8081785 L10.5447266,11.0456194 L10.9152344,10.9255799 C10.8728516,10.8055403 10.8728516,10.6472463 10.8332031,10.5285259 C10.7511719,10.4876333 10.6691406,10.4876333 10.5871094,10.4493789 C10.5050781,10.3702319 10.5050781,10.291085 10.4626953,10.211938 C10.2986328,10.3319776 10.2986328,10.5694185 10.25625,10.8081785 L10.2576172,10.8081785 L10.2576172,10.8081785 Z M11.4511719,10.4902715 C11.4087891,10.6485655 11.4087891,10.8081785 11.3691406,10.9664725 C11.5332031,10.9255799 11.6576172,10.9255799 11.8230469,10.8873255 C11.8230469,10.7290315 11.7806641,10.5694185 11.7806641,10.4493789 C11.6685547,10.4441025 11.5578125,10.4572936 11.4511719,10.4902715 L11.4511719,10.4902715 Z M5.15117188,10.0932175 C5.27558594,10.0523249 5.39726563,10.1723645 5.43964844,10.2924041 L4.94609375,10.2924041 C5.028125,10.2132571 5.07050781,10.1341101 5.15253906,10.0932175 L5.15117188,10.0932175 Z M11.2884766,13.2709685 L14.5,11.0073651 L14.5,15.535891 L13.5115234,14.8196109 C12.7691406,14.3025173 12.0294922,13.7471694 11.2871094,13.2696493 L11.2884766,13.2709685 L11.2884766,13.2709685 Z M13.2244141,12.35814 C13.1820312,12.437287 13.1820312,12.5573266 13.1423828,12.6364736 C13.2244141,12.595581 13.3064453,12.595581 13.3884766,12.5573266 C13.5306641,12.5256678 13.6810547,12.5546884 13.8,12.6364736 C13.7576172,12.5573266 13.7576172,12.437287 13.7179687,12.35814 L13.2244141,12.35814 Z M13.3064453,12.7156205 C13.1396484,12.7631087 13.0042969,12.8791909 12.9359375,13.0335275 C12.8703125,13.2630538 12.9714844,13.5070902 13.1820313,13.6297681 C13.3830078,13.743212 13.6373047,13.7102341 13.8,13.5506211 C14.0064453,13.3830933 14.0337891,13.0862922 13.8601563,12.8871056 C13.8109375,12.8290645 13.7466797,12.7842146 13.6755859,12.755194 C13.5511719,12.676047 13.4294922,12.7143014 13.3050781,12.7143014 L13.3064453,12.7156205 L13.3064453,12.7156205 Z M13.1423828,13.7484885 C13.1847656,13.8276355 13.1847656,13.9476751 13.2244141,14.026822 L13.6783203,14.026822 C13.7111328,13.935803 13.7384766,13.8421458 13.7603516,13.7484885 C13.5949219,13.8685281 13.3488281,13.8289546 13.1423828,13.7484885 Z M14.7064453,10.9677916 C15.8179687,11.7210069 16.8884766,12.437287 18,13.1918215 L16.2705078,14.3843025 C15.7769531,14.741783 15.2410156,15.1005826 14.7460937,15.456744 C14.7050781,13.9859294 14.7050781,12.4755414 14.7050781,10.9664725 L14.7064453,10.9677916 L14.7064453,10.9677916 Z M15.7769531,12.2394196 L15.7769531,12.5573266 L15.9,12.5573266 C15.9423828,12.4781796 15.9,12.437287 15.9,12.35814 C15.9820313,12.2381005 15.8179687,12.2789931 15.7755859,12.2381005 L15.7769531,12.2394196 Z M15.3244141,12.2803122 L15.3244141,12.5586457 C15.3667969,12.5586457 15.4064453,12.5995383 15.4488281,12.5995383 C15.4064453,12.4794987 15.5308594,12.2816313 15.3244141,12.2816313 L15.3244141,12.2803122 Z M16.2705078,12.2803122 C16.228125,12.3594592 16.2705078,12.4386061 16.2705078,12.5177531 C16.2705078,12.5586457 16.3949219,12.5586457 16.3949219,12.5177531 C16.4373047,12.4386061 16.3949219,12.3594592 16.3949219,12.2803122 L16.2705078,12.2803122 Z M15.2,12.7143014 L15.2,13.8658899 C15.2,13.9067825 15.2820313,13.9450368 15.3244141,13.9450368 L16.2705078,13.9450368 C16.3525391,13.9450368 16.4345703,13.9859294 16.4769531,13.9041442 C16.5111328,13.8289546 16.5248047,13.7471694 16.5193359,13.6667033 C16.6013672,13.6258107 16.64375,13.6258107 16.7257813,13.5875563 C16.8556641,13.4965373 16.8912109,13.3237331 16.8078125,13.1905024 C16.7257813,13.0889304 16.6095703,13.0176981 16.4783203,12.9913158 L16.4783203,12.7143014 L15.2,12.7143014 L15.2,12.7143014 Z M4,13.1918215 C5.07050781,12.4755414 6.14238281,11.7210069 7.25390625,11.0073651 L7.25390625,15.4963175 C6.59628906,15.0583709 5.97832031,14.5834891 5.31796875,14.1046499 C4.8640625,13.788062 4.41152344,13.5097285 4,13.1918215 Z M6.71796875,12.437287 C6.6359375,12.5573266 6.51152344,12.6364736 6.471875,12.755194 C6.34746094,12.9543806 6.3078125,13.1931406 6.14238281,13.3896889 C5.89628906,13.4688359 5.56679687,13.4688359 5.36035156,13.7075959 C5.60097656,13.8685281 5.90585938,13.9120589 6.18476562,13.8276355 C6.34882812,13.7867429 6.39121094,13.6284489 6.43085937,13.5097285 C6.44863281,13.3580301 6.52109375,13.2168847 6.63730469,13.1126745 C6.6796875,13.0717819 6.71933594,13.1535671 6.71933594,13.1918215 L6.71933594,13.867209 L6.8,13.867209 C6.8,13.6297681 6.75761719,13.3501154 6.88203125,13.1126745 C6.95175781,12.9926349 6.98046875,12.8528086 6.9640625,12.7156205 C6.91757813,12.5982192 6.83007812,12.5006046 6.71796875,12.437287 Z M7.5,11.0073651 C8.15761719,11.4453116 8.77558594,11.8819391 9.39355469,12.35814 C9.80507812,12.676047 10.2576172,12.9543806 10.6691406,13.2709685 C9.6,14.0255029 8.52949219,14.7813565 7.5,15.535891 L7.5,11.0073651 Z M8.40644531,12.4781796 C8.32441406,12.5190722 8.32441406,12.5982192 8.24238281,12.6364736 C8.13164062,12.629878 8.01953125,12.6443883 7.91289062,12.6773662 C7.87050781,12.6773662 7.83085937,12.7565131 7.83085937,12.7974057 L7.83085937,13.7102341 C7.83085937,13.7893811 7.95527344,13.7893811 7.99492187,13.7893811 L9.35253906,13.7893811 C9.43457031,13.7893811 9.43457031,13.7102341 9.43457031,13.6310872 L9.43457031,12.7143014 C9.32246094,12.6509838 9.19257813,12.6232824 9.0640625,12.6351544 C9.01484375,12.5612839 8.94238281,12.5058811 8.85761719,12.4768605 L8.40644531,12.4781796 L8.40644531,12.4781796 Z M7.62441406,15.6941849 C8.7359375,14.9396504 9.80644531,14.185116 10.9179688,13.4688359 L10.9179688,15.8524788 C10.9603516,16.5687589 10.9179688,17.2824008 10.9179688,17.9577883 C10.1359375,17.4406947 9.39355469,16.8853468 8.61152344,16.3695724 C8.28203125,16.1321315 7.91152344,15.8933714 7.62304688,15.6941849 L7.62441406,15.6941849 Z M9.68203125,14.8404639 L9.84609375,14.8404639 C9.80371094,14.7887972 9.80371094,14.7404639 9.7640625,14.7404639 L9.68203125,14.8404639 Z M9.10644531,15.1770913 C8.99980469,15.3235132 8.91640625,15.4831263 8.86035156,15.6532923 C8.90273438,15.6532923 8.98476563,15.6123997 9.02441406,15.6123997 C9.14882813,15.6123997 9.27050781,15.6532923 9.35390625,15.6123997 C9.44550781,15.5728262 9.55078125,15.5728262 9.64238281,15.6123997 C9.64921875,15.8260965 9.63554688,16.0397933 9.6,16.2508519 C9.6,16.3299989 9.47558594,16.3299989 9.4359375,16.3299989 L9.31152344,16.092558 C9.26914062,16.1334506 9.22949219,16.1334506 9.22949219,16.171705 C9.21171875,16.3115313 9.29785156,16.4434429 9.4359375,16.489612 C9.59042969,16.535781 9.75585938,16.4513576 9.80371094,16.3022975 L9.8078125,16.2904254 L9.8078125,15.6150379 C9.93222656,15.5886556 10.0634766,15.6031659 10.1783203,15.6559305 C10.3259766,15.616357 10.4832031,15.616357 10.6322266,15.6559305 C10.60625,15.4949984 10.5351562,15.3433 10.4257812,15.217984 C10.3478516,15.1296032 10.2480469,15.0610091 10.1373047,15.0187974 C9.80644531,14.7879521 9.34570312,14.8591843 9.10644531,15.1770913 L9.10644531,15.1770913 Z M11.1244141,13.470155 C12.2359375,14.2246895 13.3064453,14.9409696 14.4179687,15.695504 C13.3474609,16.4500385 12.2359375,17.2454655 11.1640625,18 C11.1230469,16.4500385 11.1230469,14.9409696 11.1230469,13.4727932 L11.1244141,13.470155 Z M12.1949219,14.741783 C12.1525391,14.7826756 12.1525391,14.8618226 12.0705078,14.8618226 C11.9460937,14.9409696 11.8244141,15.0610091 11.7,15.1401561 C11.7478516,15.1718149 11.8066406,15.1863252 11.8640625,15.1810487 L12.7705078,15.1810487 C12.6884766,15.0610091 12.5640625,15.0227548 12.4820312,14.9436078 C12.3576172,14.8644608 12.2755859,14.7853138 12.1935547,14.7444212 L12.1949219,14.741783 L12.1949219,14.741783 Z M11.7,15.3367044 L11.7,16.1703858 C11.7,16.2112784 11.7,16.2904254 11.7820312,16.2904254 L12.728125,16.2904254 C12.7623047,16.1743432 12.7759766,16.0529845 12.7705078,15.9329449 L12.7705078,15.3367044 C12.7705078,15.2958118 12.6884766,15.2958118 12.6460937,15.2958118 C12.3302734,15.2878971 12.0144531,15.3010883 11.7,15.3367044 Z" id="形状" fill="#FFFFFF" fill-rule="nonzero"></path>
    </g>
</svg>