<?xml version="1.0" encoding="UTF-8"?>
<svg width="22px" height="22px" viewBox="0 0 22 22" version="1.1" xmlns="http://www.w3.org/2000/svg" xmlns:xlink="http://www.w3.org/1999/xlink">
    <title>icon/common/dp_sn</title>
    <defs>
        <circle id="path-1" cx="11" cy="11" r="11"></circle>
        <linearGradient x1="50%" y1="16.4942527%" x2="50%" y2="100%" id="linearGradient-3">
            <stop stop-color="#FAAE6D" offset="0%"></stop>
            <stop stop-color="#FFFFFF" offset="100%"></stop>
        </linearGradient>
        <linearGradient x1="50%" y1="0%" x2="50%" y2="98.6314467%" id="linearGradient-4">
            <stop stop-color="#FFB805" offset="0%"></stop>
            <stop stop-color="#EB9800" offset="100%"></stop>
        </linearGradient>
        <radialGradient cx="18.9654168%" cy="0%" fx="18.9654168%" fy="0%" r="199.108389%" gradientTransform="translate(0.189654,0.000000),scale(0.400000,1.000000),rotate(30.148243),translate(-0.189654,-0.000000)" id="radialGradient-5">
            <stop stop-color="#FFECEC" offset="0%"></stop>
            <stop stop-color="#FFFFFF" offset="100%"></stop>
        </radialGradient>
        <path d="M12.6939975,5.28471449 C12.4315872,5.42057146 12.1042996,5.49013502 11.7237193,5.49231513 C11.0181759,5.49231513 10.3752045,5.15378092 9.9998305,4.57915936 C9.97318411,4.52491104 9.92857494,4.43509065 9.8451585,4.34854042 C9.74958116,4.2472018 9.57581288,4.12724144 9.28965718,4.12724144 C9.05911886,4.12724144 8.85000138,4.2165168 8.73183127,4.35348199 C8.65362113,4.43674388 8.61076021,4.51946076 8.5800602,4.57970438 C8.20933535,5.14722244 7.57155107,5.48902681 6.88049322,5.49396838 C6.18073255,5.49013502 5.54123844,5.14942072 5.168189,4.57752427 C5.14211895,4.52712748 5.09866249,4.44221232 5.03090343,4.37045048 C4.75863767,4.06314631 4.14926722,4.07902474 3.91177432,4.34690533 C3.82430424,4.43728891 3.77854239,4.52821753 3.74899506,4.59013254 C3.37479293,5.15763244 2.73122598,5.49781989 2.02915992,5.5 C1.65495779,5.5 1.33462478,5.4337066 1.07626817,5.30333622 C0.412433061,4.96974359 0.00057634233,4.32116189 0,3.61122837 C0,3.40142945 0.0370782485,3.18997728 0.11121554,2.98401173 C0.116421864,2.96922334 0.121051846,2.95278171 0.125124692,2.93579503 L1.56285777,0.332502579 C1.5924051,0.25033073 1.68160422,0 2.12879094,0 L11.6623193,0 C11.8459431,0.0104100006 12.1622417,0.0410768349 12.2746099,0.353867622 L13.6208192,2.9127949 C13.6260448,2.93579503 13.6324038,2.9577051 13.6382057,2.97578182 C13.7129385,3.18229242 13.7500024,3.39209134 13.7500024,3.60027333 C13.7511502,4.30197697 13.346248,4.94727034 12.6939975,5.28471449 Z" id="path-6"></path>
        <linearGradient x1="50%" y1="16.4942527%" x2="50%" y2="100%" id="linearGradient-8">
            <stop stop-color="#EBB87B" offset="0%"></stop>
            <stop stop-color="#FFFFFF" offset="100%"></stop>
        </linearGradient>
    </defs>
    <g id="icon/common/dp_sn" stroke="none" stroke-width="1" fill="none" fill-rule="evenodd">
        <g id="10图标/icon/common/jingdong">
            <mask id="mask-2" fill="white">
                <use xlink:href="#path-1"></use>
            </mask>
            <use id="蒙版" fill="#F2A301" xlink:href="#path-1"></use>
            <g id="编组" mask="url(#mask-2)">
                <g transform="translate(4.125000, 4.812500)">
                    <rect id="矩形" stroke="none" fill="url(#linearGradient-3)" fill-rule="nonzero" x="1.375" y="2.75" width="11" height="9.625" rx="1.375"></rect>
                    <circle id="椭圆形" stroke="#FFEADD" stroke-width="1" fill="none" cx="10.5" cy="10" r="3"></circle>
                    <g id="icon/logo/jingdong1" stroke="none" stroke-width="1" fill="none" fill-rule="evenodd" transform="translate(7.500000, 7.000000)">
                        <g id="编组-21">
                            <circle id="椭圆形" fill="url(#linearGradient-4)" cx="3" cy="3" r="3"></circle>
                            <g id="编组" transform="translate(1.090909, 1.090909)" fill-rule="nonzero">
                                <path d="M3.71571019,1.66182242 L3.36077225,1.30688448 L3.36077225,0.806407128 C3.36077225,0.613344648 3.20483717,0.457409568 3.01177469,0.457409568 L2.51129734,0.457409568 L2.15635939,0.102471624 C2.01973056,-0.034157208 1.79845126,-0.034157208 1.66182242,0.102471624 L1.30688448,0.457409568 L0.806407128,0.457409568 C0.613344648,0.457409568 0.457409568,0.613344648 0.457409568,0.806407128 L0.457409568,1.30688448 L0.102471624,1.66182242 C-0.034157208,1.79845126 -0.034157208,2.01973056 0.102471624,2.15635939 L0.457409568,2.51129734 L0.457409568,3.01177469 C0.457409568,3.20483717 0.613344648,3.36077225 0.806407128,3.36077225 L1.30688448,3.36077225 L1.66182242,3.71571019 C1.79845126,3.85233903 2.01973056,3.85233903 2.15635939,3.71571019 L2.51129734,3.36077225 L3.01177469,3.36077225 C3.20483717,3.36077225 3.36077225,3.20483717 3.36077225,3.01177469 L3.36077225,2.51129734 L3.71571019,2.15635939 C3.85233903,2.01973056 3.85233903,1.79845126 3.71571019,1.66182242 Z M2.49941657,1.53261907 C2.57367137,1.53261907 2.63456031,1.59350801 2.63456031,1.66776281 C2.63456031,1.74201761 2.57367137,1.80290655 2.49941657,1.80290655 C2.42516177,1.80290655 2.36427283,1.74201761 2.36427283,1.66776281 C2.36575793,1.59350801 2.42516177,1.53261907 2.49941657,1.53261907 Z M1.28906333,1.53261907 C1.36331813,1.53261907 1.42420706,1.59350801 1.42420706,1.66776281 C1.42420706,1.74201761 1.36331813,1.80290655 1.28906333,1.80290655 C1.21480853,1.80290655 1.15391959,1.74201761 1.15391959,1.66776281 C1.15540469,1.59350801 1.21480853,1.53261907 1.28906333,1.53261907 Z M2.48159542,3.09345497 L1.32173544,3.09345497 C1.0781797,3.09345497 0.870266256,2.90336268 0.865810968,2.65980694 C0.86135568,2.46377427 0.984618649,2.29595842 1.15837488,2.23209929 C1.18065132,2.22318871 1.2237191,2.21724833 1.2623316,2.21279304 C1.30391429,2.20833775 1.3380715,2.17715074 1.34549698,2.13556805 C1.39153495,1.86973587 1.62320993,1.66776281 1.90092288,1.66776281 C2.17863583,1.66776281 2.41031081,1.86825077 2.45634879,2.13408295 C2.46377427,2.17566564 2.49941657,2.20833775 2.54099926,2.21130795 C2.56921608,2.21427814 2.598918,2.21724833 2.61376896,2.22170362 C2.80386125,2.27516707 2.94197518,2.45337859 2.93603479,2.66277713 C2.93009441,2.90484778 2.72366607,3.09345497 2.48159542,3.09345497 L2.48159542,3.09345497 Z" id="形状" fill="#FFFFFF"></path>
                                <g id="编组-21备份" transform="translate(0.867179, 1.532619)">
                                    <path d="M1.49709374,0.135143744 C1.49709374,0.183425953 1.52285199,0.228040554 1.56466561,0.252181659 C1.60647923,0.276322765 1.65799573,0.276322765 1.69980935,0.252181659 C1.74162297,0.228040554 1.76738122,0.183425953 1.76738122,0.135143744 C1.76738122,0.0868615356 1.74162297,0.0422469339 1.69980935,0.0181058288 C1.65799573,-0.00603527627 1.60647923,-0.00603527627 1.56466561,0.0181058288 C1.52285199,0.0422469339 1.49709374,0.0868615356 1.49709374,0.135143744 Z" id="路径" fill="#030304"></path>
                                    <path d="M0.286740504,0.135143744 C0.286740504,0.209781569 0.347246416,0.27028748 0.42188424,0.27028748 C0.496522065,0.27028748 0.557027976,0.209781569 0.557027976,0.135143744 C0.557027976,0.0605059197 0.496522065,8.05519433e-09 0.42188424,8.05519433e-09 C0.347246416,8.05519433e-09 0.286740504,0.0605059197 0.286740504,0.135143744 Z" id="路径" fill="#030304"></path>
                                    <path d="M1.74807497,0.689084552 C1.73173891,0.684629264 1.70352209,0.680173976 1.67530526,0.67868888 C1.63223748,0.674233592 1.59808027,0.643046576 1.59065479,0.601463888 C1.54313172,0.3371168 1.31294184,0.135143744 1.03522889,0.135143744 C0.75603084,0.135143744 0.52584096,0.3371168 0.479802984,0.602948984 C0.472377504,0.644531672 0.438220296,0.675718688 0.396637608,0.680173976 C0.358025112,0.684629264 0.314957328,0.690569648 0.292680888,0.699480224 C0.118924656,0.761854256 -0.00433831219,0.931155201 0.00011697581,1.12718787 C0.00605735981,1.37074362 0.212485704,1.5608359 0.456041448,1.5608359 L1.61590142,1.5608359 C1.85797207,1.5608359 2.06440042,1.37222871 2.0703408,1.13015806 C2.07628118,0.920759529 1.93816726,0.744033104 1.74807497,0.689084552 Z M1.41986875,0.810862425 L1.18967887,0.992044137 C1.08572215,1.07372442 0.940182744,1.07372442 0.83771112,0.992044137 L0.60752124,0.810862425 C0.549602496,0.764824448 0.582274608,0.672748496 0.655044312,0.672748496 L1.37086058,0.672748496 C1.44511538,0.672748496 1.4777875,0.766309544 1.41986875,0.810862425 L1.41986875,0.810862425 Z" id="形状" fill="#FFA602"></path>
                                    <path d="M0.60752124,0.810862425 L0.83771112,0.992044137 C0.94166784,1.07372442 1.08720725,1.07372442 1.18967887,0.992044137 L1.41986875,0.810862425 C1.4777875,0.764824448 1.44511538,0.672748496 1.37234568,0.672748496 L0.656529408,0.672748496 C0.582274608,0.672748496 0.549602496,0.766309544 0.60752124,0.810862425 L0.60752124,0.810862425 Z" id="路径" fill="#030304"></path>
                                </g>
                            </g>
                        </g>
                    </g>
                    <mask id="mask-7" fill="white">
                        <use xlink:href="#path-6"></use>
                    </mask>
                    <use id="蒙版" stroke="none" fill="url(#radialGradient-5)" fill-rule="nonzero" xlink:href="#path-6"></use>
                    <polygon id="矩形" stroke="none" fill="url(#linearGradient-8)" fill-rule="nonzero" opacity="0.223292151" mask="url(#mask-7)" points="4.8125 -0.6875 8.9375 -0.6875 9.625 7.5625 4.125 7.5625"></polygon>
                </g>
            </g>
        </g>
    </g>
</svg>