<?xml version="1.0" encoding="UTF-8"?>
<svg width="22px" height="22px" viewBox="0 0 22 22" version="1.1" xmlns="http://www.w3.org/2000/svg" xmlns:xlink="http://www.w3.org/1999/xlink">
    <title>icon/common/dp_tb</title>
    <defs>
        <circle id="path-1" cx="11" cy="11" r="11"></circle>
        <linearGradient x1="50%" y1="16.4942527%" x2="50%" y2="100%" id="linearGradient-3">
            <stop stop-color="#FAA16D" offset="0%"></stop>
            <stop stop-color="#FFFFFF" offset="100%"></stop>
        </linearGradient>
        <linearGradient x1="17.9928888%" y1="14.700747%" x2="78.5771864%" y2="89.7014828%" id="linearGradient-4">
            <stop stop-color="#FEBD7E" offset="0%"></stop>
            <stop stop-color="#FC8848" offset="100%"></stop>
        </linearGradient>
        <radialGradient cx="18.9654168%" cy="0%" fx="18.9654168%" fy="0%" r="199.108389%" gradientTransform="translate(0.189654,0.000000),scale(0.400000,1.000000),rotate(30.148243),translate(-0.189654,-0.000000)" id="radialGradient-5">
            <stop stop-color="#FFECEC" offset="0%"></stop>
            <stop stop-color="#FFFFFF" offset="100%"></stop>
        </radialGradient>
        <path d="M12.6939975,5.28471449 C12.4315872,5.42057146 12.1042996,5.49013502 11.7237193,5.49231513 C11.0181759,5.49231513 10.3752045,5.15378092 9.9998305,4.57915936 C9.97318411,4.52491104 9.92857494,4.43509065 9.8451585,4.34854042 C9.74958116,4.2472018 9.57581288,4.12724144 9.28965718,4.12724144 C9.05911886,4.12724144 8.85000138,4.2165168 8.73183127,4.35348199 C8.65362113,4.43674388 8.61076021,4.51946076 8.5800602,4.57970438 C8.20933535,5.14722244 7.57155107,5.48902681 6.88049322,5.49396838 C6.18073255,5.49013502 5.54123844,5.14942072 5.168189,4.57752427 C5.14211895,4.52712748 5.09866249,4.44221232 5.03090343,4.37045048 C4.75863767,4.06314631 4.14926722,4.07902474 3.91177432,4.34690533 C3.82430424,4.43728891 3.77854239,4.52821753 3.74899506,4.59013254 C3.37479293,5.15763244 2.73122598,5.49781989 2.02915992,5.5 C1.65495779,5.5 1.33462478,5.4337066 1.07626817,5.30333622 C0.412433061,4.96974359 0.00057634233,4.32116189 0,3.61122837 C0,3.40142945 0.0370782485,3.18997728 0.11121554,2.98401173 C0.116421864,2.96922334 0.121051846,2.95278171 0.125124692,2.93579503 L1.56285777,0.332502579 C1.5924051,0.25033073 1.68160422,0 2.12879094,0 L11.6623193,0 C11.8459431,0.0104100006 12.1622417,0.0410768349 12.2746099,0.353867622 L13.6208192,2.9127949 C13.6260448,2.93579503 13.6324038,2.9577051 13.6382057,2.97578182 C13.7129385,3.18229242 13.7500024,3.39209134 13.7500024,3.60027333 C13.7511502,4.30197697 13.346248,4.94727034 12.6939975,5.28471449 Z" id="path-6"></path>
        <linearGradient x1="50%" y1="16.4942527%" x2="50%" y2="100%" id="linearGradient-8">
            <stop stop-color="#FAA16D" offset="0%"></stop>
            <stop stop-color="#FFFFFF" offset="100%"></stop>
        </linearGradient>
    </defs>
    <g id="icon/common/dp_tb" stroke="none" stroke-width="1" fill="none" fill-rule="evenodd">
        <g id="10图标/icon/common/jingdong">
            <mask id="mask-2" fill="white">
                <use xlink:href="#path-1"></use>
            </mask>
            <use id="蒙版" fill="#FD9151" xlink:href="#path-1"></use>
            <g id="编组" mask="url(#mask-2)">
                <g transform="translate(4.125000, 4.812500)">
                    <rect id="矩形" stroke="none" fill="url(#linearGradient-3)" fill-rule="nonzero" x="1.375" y="2.75" width="11" height="9.625" rx="1.375"></rect>
                    <g id="编组-2" stroke="none" stroke-width="1" fill="none" fill-rule="evenodd" transform="translate(7.000000, 6.000000)">
                        <circle id="椭圆形" stroke="#FFEADD" cx="3.5" cy="3.5" r="3"></circle>
                        <g id="icon/logo/jingdong1" transform="translate(0.500000, 0.500000)" fill-rule="nonzero">
                            <g id="编组">
                                <path d="M3,0 C1.34314575,0 0,1.34314575 0,3 C0,4.65685425 1.34314575,6 3,6 C4.65685425,6 6,4.65685425 6,3 C6,2.20435053 5.68392948,1.44128879 5.12132034,0.878679656 C4.55871121,0.316070521 3.79564947,0 3,0 Z" id="路径" fill="url(#linearGradient-4)"></path>
                                <path d="M2.41059587,1.65973336 L2.78201571,1.81116915 L2.67379956,2.02430101 C2.67379956,2.02430101 2.70131214,2.05234467 2.795772,2.03832284 C2.89023186,2.02430101 3.51201618,1.70834238 3.936627,1.78406027 C4.36123783,1.85977817 4.63269529,2.20378047 4.63269529,2.47206487 L4.63636364,3.76207347 C4.63636364,3.76207347 4.58867516,4.15468479 4.2585242,4.29209875 C3.92837323,4.42951271 3.42030758,4.32668594 3.42030758,4.32668594 L3.44782016,4.11261929 C3.44782016,4.11261929 3.75137563,4.18179367 3.94029535,4.1200976 C4.04836595,4.08845597 4.13747652,4.0102596 4.18424023,3.90603096 L4.18424023,2.37017288 C4.15465542,2.25668739 4.08164454,2.16004211 3.98156422,2.10188848 C3.8054837,1.99251819 3.71744345,2.0084096 3.52852373,2.0336489 C3.3630955,2.0699729 3.20220403,2.12516125 3.04888774,2.19817173 L2.8874806,2.52160867 L3.98156422,2.52160867 L3.98156422,2.74221884 L3.31117434,2.74221884 L3.31117434,3.01798155 L4.00815971,3.01798155 L4.00815971,3.21054805 L3.32584772,3.23765693 L3.32584772,3.76113869 L3.65049617,3.61624641 L3.62390067,3.38909272 L3.88710436,3.33394018 L4.08244368,3.85742194 L3.75871232,4.00605336 L3.71744345,3.81909559 C3.71744345,3.81909559 3.10482999,4.08270605 2.85905093,4.09953225 C2.61327188,4.11635845 2.37207826,4.06027112 2.25469125,3.89107434 C2.13730424,3.72187755 2.16298265,3.38161441 2.16298265,3.38161441 L2.59951559,3.39283188 C2.58088432,3.50114544 2.59933975,3.61269537 2.65178949,3.70879051 C2.73799558,3.83124785 2.93241781,3.8022694 2.93241781,3.8022694 L2.93241781,3.2236351 L2.25744251,3.20306974 L2.25744251,3.01611197 L2.94433993,3.01611197 L2.93700325,2.74034926 L2.72515637,2.69734898 C2.72515637,2.69734898 2.54999295,2.97778563 2.43444011,2.96937253 C2.31888727,2.96095943 2.30237972,2.80391491 2.30237972,2.80391491 L2.67379956,2.33652048 L2.47204063,2.31502034 L2.16756808,2.68052278 L1.93829657,2.47393444 C2.05403244,2.36409484 2.15405523,2.23822624 2.23543244,2.1000189 C2.31443521,1.96268042 2.37343952,1.81436897 2.41059587,1.65973336 Z M1.46232893,2.39728176 C1.46232893,2.39728176 2.05018107,2.78895828 2.09053285,3.09930818 C2.13088464,3.40965808 1.601726,4.3463165 1.601726,4.3463165 L1.601726,4.34725129 L1.09090909,3.97333575 C1.09090909,3.97333575 1.80715327,3.3741361 1.76680149,3.17502608 C1.7264497,2.97591605 1.23305742,2.72726222 1.23305742,2.72726222 L1.46232893,2.39728176 Z M1.73745473,1.63636364 C1.90409081,1.63636364 2.03917603,1.77405646 2.03917603,1.94390917 C2.03917603,2.11376187 1.90409081,2.2514547 1.73745473,2.2514547 C1.57081866,2.2514547 1.43573343,2.11376187 1.43573343,1.94390917 C1.43573343,1.77405646 1.57081866,1.63636364 1.73745473,1.63636364 Z" id="形状结合" fill="#FFFFFF"></path>
                            </g>
                        </g>
                    </g>
                    <mask id="mask-7" fill="white">
                        <use xlink:href="#path-6"></use>
                    </mask>
                    <use id="蒙版" stroke="none" fill="url(#radialGradient-5)" fill-rule="nonzero" xlink:href="#path-6"></use>
                    <polygon id="矩形" stroke="none" fill="url(#linearGradient-8)" fill-rule="nonzero" opacity="0.223292151" mask="url(#mask-7)" points="4.8125 -0.6875 8.9375 -0.6875 9.625 7.5625 4.125 7.5625"></polygon>
                </g>
            </g>
        </g>
    </g>
</svg>