<?xml version="1.0" encoding="UTF-8"?>
<svg width="22px" height="22px" viewBox="0 0 22 22" version="1.1" xmlns="http://www.w3.org/2000/svg" xmlns:xlink="http://www.w3.org/1999/xlink">
    <title>icon/common/dp_kl</title>
    <defs>
        <circle id="path-1" cx="11" cy="11" r="11"></circle>
        <linearGradient x1="50%" y1="16.4942527%" x2="50%" y2="100%" id="linearGradient-3">
            <stop stop-color="#FA6F6D" offset="0%"></stop>
            <stop stop-color="#FFFFFF" offset="100%"></stop>
        </linearGradient>
        <radialGradient cx="18.9654168%" cy="0%" fx="18.9654168%" fy="0%" r="199.108389%" gradientTransform="translate(0.189654,0.000000),scale(0.400000,1.000000),rotate(30.148243),translate(-0.189654,-0.000000)" id="radialGradient-4">
            <stop stop-color="#FFECEC" offset="0%"></stop>
            <stop stop-color="#FFFFFF" offset="100%"></stop>
        </radialGradient>
        <path d="M1417.819,551.097214 C1417.55659,551.233071 1417.2293,551.302635 1416.84872,551.304815 C1416.14318,551.304815 1415.5002,550.966281 1415.12483,550.391659 C1415.09818,550.337411 1415.05357,550.247591 1414.97016,550.16104 C1414.87458,550.059702 1414.70081,549.939741 1414.41466,549.939741 C1414.18412,549.939741 1413.975,550.029017 1413.85683,550.165982 C1413.77862,550.249244 1413.73576,550.331961 1413.70506,550.392204 C1413.33434,550.959722 1412.69655,551.301527 1412.00549,551.306468 C1411.30573,551.302635 1410.66624,550.961921 1410.29319,550.390024 C1410.26712,550.339627 1410.22366,550.254712 1410.1559,550.18295 C1409.88364,549.875646 1409.27427,549.891525 1409.03677,550.159405 C1408.9493,550.249789 1408.90354,550.340718 1408.874,550.402633 C1408.49979,550.970132 1407.85623,551.31032 1407.15416,551.3125 C1406.77996,551.3125 1406.45962,551.246207 1406.20127,551.115836 C1405.53743,550.782244 1405.12558,550.133662 1405.125,549.423728 C1405.125,549.213929 1405.16208,549.002477 1405.23622,548.796512 C1405.24142,548.781723 1405.24605,548.765282 1405.25012,548.748295 L1406.68786,546.145003 C1406.71741,546.062831 1406.8066,545.8125 1407.25379,545.8125 L1416.78732,545.8125 C1416.97094,545.82291 1417.28724,545.853577 1417.39961,546.166368 L1418.74582,548.725295 C1418.75104,548.748295 1418.7574,548.770205 1418.76321,548.788282 C1418.83794,548.994792 1418.875,549.204591 1418.875,549.412773 C1418.87615,550.114477 1418.47125,550.75977 1417.819,551.097214 Z" id="path-5"></path>
        <linearGradient x1="50%" y1="16.4942527%" x2="50%" y2="100%" id="linearGradient-7">
            <stop stop-color="#FA6F6D" offset="0%"></stop>
            <stop stop-color="#FFFFFF" offset="100%"></stop>
        </linearGradient>
    </defs>
    <g id="icon/common/dp_kl" stroke="none" stroke-width="1" fill="none" fill-rule="evenodd">
        <g id="10图标/icon/common/jingdong">
            <mask id="mask-2" fill="white">
                <use xlink:href="#path-1"></use>
            </mask>
            <use id="蒙版" fill="#F30300" xlink:href="#path-1"></use>
            <g id="编组" mask="url(#mask-2)">
                <g transform="translate(-1401.000000, -541.000000)">
                    <rect id="矩形" stroke="none" fill="url(#linearGradient-3)" fill-rule="nonzero" x="1406.5" y="548.5625" width="11" height="9.625" rx="1.375"></rect>
                    <g id="编组-2" stroke="none" stroke-width="1" fill="none" fill-rule="evenodd" transform="translate(1412.125000, 551.812500)">
                        <circle id="椭圆形" stroke="#FFDEDD" cx="3.5" cy="3.5" r="3"></circle>
                        <g id="icon/logo/jingdong1" transform="translate(0.500000, 0.500000)">
                            <circle id="椭圆形" fill="#F30300" cx="3" cy="3" r="3"></circle>
                            <path d="M4.22727273,2.04545455 C4.67914207,2.04545455 5.04545455,2.41176702 5.04545455,2.86363636 C5.04545455,3.3155057 4.67914207,3.68181818 4.22727273,3.68181818 L4.29530995,3.6775269 C4.12804904,4.15643678 3.67232808,4.5 3.13636364,4.5 C2.60039919,4.5 2.14467824,4.15643678 1.97741732,3.6775269 L1.90909091,3.68181818 C1.45722157,3.68181818 1.09090909,3.3155057 1.09090909,2.86363636 C1.09090909,2.41176702 1.45722157,2.04545455 1.90909091,2.04545455 C2.11815715,2.04545455 2.30890882,2.12386858 2.45353971,2.25289045 C2.64839614,2.12196044 2.88344543,2.04545455 3.13636364,2.04545455 C3.35656605,2.04545455 3.56322338,2.10344798 3.7418954,2.20499465 C3.87709981,2.10489799 4.04524439,2.04545455 4.22727273,2.04545455 Z" id="形状结合" fill="#FFFFFF"></path>
                            <path d="M3.13636364,2.86363636 C3.28698675,2.86363636 3.40909091,2.98574052 3.40909091,3.13636364 L3.40909091,3.40909091 C3.40909091,3.55971402 3.28698675,3.68181818 3.13636364,3.68181818 C2.98574052,3.68181818 2.86363636,3.55971402 2.86363636,3.40909091 L2.86363636,3.13636364 C2.86363636,2.98574052 2.98574052,2.86363636 3.13636364,2.86363636 Z M2.35416329,2.75749235 C2.49223448,2.75749235 2.60416329,2.86942116 2.60416329,3.00749235 C2.60416329,3.14556354 2.49223448,3.25749235 2.35416329,3.25749235 C2.2160921,3.25749235 2.10416329,3.14556354 2.10416329,3.00749235 C2.10416329,2.86942116 2.2160921,2.75749235 2.35416329,2.75749235 Z M3.95226227,2.75749235 C4.09033346,2.75749235 4.20226227,2.86942116 4.20226227,3.00749235 C4.20226227,3.14556354 4.09033346,3.25749235 3.95226227,3.25749235 C3.81419109,3.25749235 3.70226227,3.14556354 3.70226227,3.00749235 C3.70226227,2.86942116 3.81419109,2.75749235 3.95226227,2.75749235 Z" id="形状" fill="#1C1818"></path>
                        </g>
                    </g>
                    <mask id="mask-6" fill="white">
                        <use xlink:href="#path-5"></use>
                    </mask>
                    <use id="蒙版" stroke="none" fill="url(#radialGradient-4)" fill-rule="nonzero" xlink:href="#path-5"></use>
                    <polygon id="矩形" stroke="none" fill="url(#linearGradient-7)" fill-rule="nonzero" opacity="0.223292151" mask="url(#mask-6)" points="1409.9375 545.125 1414.0625 545.125 1414.75 553.375 1409.25 553.375"></polygon>
                </g>
            </g>
        </g>
    </g>
</svg>