<?xml version="1.0" encoding="UTF-8"?>
<svg width="22px" height="22px" viewBox="0 0 22 22" version="1.1" xmlns="http://www.w3.org/2000/svg" xmlns:xlink="http://www.w3.org/1999/xlink">
    <title>icon/common/dp_wph</title>
    <defs>
        <circle id="path-1" cx="11" cy="11" r="11"></circle>
        <linearGradient x1="50%" y1="16.4942527%" x2="50%" y2="100%" id="linearGradient-3">
            <stop stop-color="#FA6DBA" offset="0%"></stop>
            <stop stop-color="#FFFFFF" offset="100%"></stop>
        </linearGradient>
        <radialGradient cx="18.9654168%" cy="0%" fx="18.9654168%" fy="0%" r="199.108389%" gradientTransform="translate(0.189654,0.000000),scale(0.400000,1.000000),rotate(30.148243),translate(-0.189654,-0.000000)" id="radialGradient-4">
            <stop stop-color="#FFECFE" offset="0%"></stop>
            <stop stop-color="#FFFFFF" offset="100%"></stop>
        </radialGradient>
        <path d="M12.6939975,5.28471449 C12.4315872,5.42057146 12.1042996,5.49013502 11.7237193,5.49231513 C11.0181759,5.49231513 10.3752045,5.15378092 9.9998305,4.57915936 C9.97318411,4.52491104 9.92857494,4.43509065 9.8451585,4.34854042 C9.74958116,4.2472018 9.57581288,4.12724144 9.28965718,4.12724144 C9.05911886,4.12724144 8.85000138,4.2165168 8.73183127,4.35348199 C8.65362113,4.43674388 8.61076021,4.51946076 8.5800602,4.57970438 C8.20933535,5.14722244 7.57155107,5.48902681 6.88049322,5.49396838 C6.18073255,5.49013502 5.54123844,5.14942072 5.168189,4.57752427 C5.14211895,4.52712748 5.09866249,4.44221232 5.03090343,4.37045048 C4.75863767,4.06314631 4.14926722,4.07902474 3.91177432,4.34690533 C3.82430424,4.43728891 3.77854239,4.52821753 3.74899506,4.59013254 C3.37479293,5.15763244 2.73122598,5.49781989 2.02915992,5.5 C1.65495779,5.5 1.33462478,5.4337066 1.07626817,5.30333622 C0.412433061,4.96974359 0.00057634233,4.32116189 0,3.61122837 C0,3.40142945 0.0370782485,3.18997728 0.11121554,2.98401173 C0.116421864,2.96922334 0.121051846,2.95278171 0.125124692,2.93579503 L1.56285777,0.332502579 C1.5924051,0.25033073 1.68160422,0 2.12879094,0 L11.6623193,0 C11.8459431,0.0104100006 12.1622417,0.0410768349 12.2746099,0.353867622 L13.6208192,2.9127949 C13.6260448,2.93579503 13.6324038,2.9577051 13.6382057,2.97578182 C13.7129385,3.18229242 13.7500024,3.39209134 13.7500024,3.60027333 C13.7511502,4.30197697 13.346248,4.94727034 12.6939975,5.28471449 Z" id="path-5"></path>
        <linearGradient x1="50%" y1="16.4942527%" x2="50%" y2="100%" id="linearGradient-7">
            <stop stop-color="#EB7BB8" offset="0%"></stop>
            <stop stop-color="#FFFFFF" offset="100%"></stop>
        </linearGradient>
    </defs>
    <g id="icon/common/dp_wph" stroke="none" stroke-width="1" fill="none" fill-rule="evenodd">
        <g id="10图标/icon/common/jingdong">
            <mask id="mask-2" fill="white">
                <use xlink:href="#path-1"></use>
            </mask>
            <use id="蒙版" fill="#DF027C" xlink:href="#path-1"></use>
            <g id="编组" mask="url(#mask-2)">
                <g transform="translate(4.125000, 4.812500)">
                    <rect id="矩形" stroke="none" fill="url(#linearGradient-3)" fill-rule="nonzero" x="1.375" y="2.75" width="11" height="9.625" rx="1.375"></rect>
                    <circle id="椭圆形" stroke="#FFDDF2" stroke-width="1" fill="none" cx="10.5" cy="10" r="3"></circle>
                    <g id="icon/logo/jingdong1" stroke="none" stroke-width="1" fill="none" fill-rule="evenodd" transform="translate(7.500000, 7.000000)">
                        <circle id="椭圆形" fill="#DF027C" cx="3" cy="3" r="3"></circle>
                        <g id="唯品会" transform="translate(1.500000, 1.363636)" fill="#FFFFFF" fill-rule="nonzero">
                            <path d="M0.253126945,1.26188516 C0.253126945,1.3640621 0.282414361,1.39164987 0.385966293,1.3906281 L2.2687287,1.3906281 C2.35760567,1.38995348 2.44608665,1.37897786 2.53231543,1.35793148 C2.72512862,1.32623303 2.8612779,1.15599555 2.84610917,0.965572049 L2.84610917,0.126699401 C2.84610917,0.033718389 2.82205165,0.00102176936 2.72163765,0.00204353873 C2.33776332,0.00510884682 1.9381993,0 1.54491115,0 L0.374460522,0 C0.280322402,0 0.252080966,0.0296313116 0.253126945,0.118525246 C0.257310862,0.499645219 0.258356841,0.880765192 0.253126945,1.26188516 Z M0.646415092,0.365793432 C0.646415092,0.282008344 0.670472611,0.251355264 0.760426815,0.253398802 L2.34194723,0.253398802 C2.41934969,0.253398802 2.44654515,0.276899498 2.44654515,0.355575739 L2.44654515,0.89915704 C2.44654515,1.08001022 2.38483238,1.13314222 2.20492397,1.13620753 L0.753104961,1.13620753 C0.669426632,1.13620753 0.64850705,1.10759799 0.64850705,1.02892175 C0.650599008,0.808219567 0.651644987,0.587517384 0.646415092,0.365793432 L0.646415092,0.365793432 Z M2.89736214,1.6542446 L1.68193441,1.6542446 C1.59721011,1.6542446 1.56478475,1.67672353 1.56687671,1.76663923 C1.57315259,1.99858088 1.56687671,2.23052252 1.56687671,2.46246417 L1.56687671,3.17055034 C1.56687671,3.23900888 1.58465836,3.27272727 1.65996885,3.27272727 C1.94970507,3.27272727 2.23944128,3.27272727 2.5291775,3.26659666 C2.65820825,3.27098185 2.78307096,3.22161273 2.87265306,3.13079081 C2.96223516,3.03996889 3.00810104,2.91624653 2.99882212,2.79045213 L2.99882212,1.76868277 C3.00405201,1.68694122 2.98313243,1.6542446 2.89736214,1.6542446 Z M2.61285582,2.78738682 C2.6166208,2.84384723 2.59625416,2.89930553 2.55660688,2.94055259 C2.51695959,2.98179964 2.46158054,3.00514336 2.40366,3.0050237 C2.25303901,3.01524139 2.10137204,3.0050237 1.9329694,3.0050237 L1.9329694,2.25300145 C1.9329694,2.16308574 1.92564755,2.0711265 1.9329694,1.98223257 C1.94327446,1.94637423 1.97171756,1.91820356 2.0082799,1.9076434 C2.18191243,1.90151279 2.35659094,1.9076434 2.53126945,1.9076434 C2.58566037,1.9076434 2.60971789,1.92910056 2.60971789,1.98631964 C2.61285582,2.2478926 2.61703974,2.51968325 2.61285582,2.78738682 Z M1.33048543,1.6542446 L0.104597911,1.6542446 C0.0177816449,1.6542446 0,1.68796299 0,1.76459569 L0,3.1685068 C0,3.23390004 0.0156896867,3.27068373 0.0930921411,3.27068373 L0.940335223,3.27068373 C1.25412896,3.26046604 1.43299138,3.07859109 1.43508334,2.77103852 L1.43508334,1.76970454 C1.43612932,1.68694122 1.41625572,1.6542446 1.33048543,1.6542446 Z M1.04597911,2.75060313 C1.05568383,2.81890476 1.0332025,2.88782531 0.984835109,2.93805102 C0.936467721,2.98827673 0.867418067,3.01440387 0.797036084,3.00911078 L0.441403186,3.00911078 C0.415253708,3.00911078 0.370276606,2.97334885 0.370276606,2.95291346 L0.370276606,1.91377402 L1.04911705,1.91377402 L1.04911705,2.30511169 C1.04597911,2.45224647 1.04807107,2.60244657 1.04597911,2.75060313 Z" id="形状"></path>
                        </g>
                    </g>
                    <mask id="mask-6" fill="white">
                        <use xlink:href="#path-5"></use>
                    </mask>
                    <use id="蒙版" stroke="none" fill="url(#radialGradient-4)" fill-rule="nonzero" xlink:href="#path-5"></use>
                    <polygon id="矩形" stroke="none" fill="url(#linearGradient-7)" fill-rule="nonzero" opacity="0.223292151" mask="url(#mask-6)" points="4.8125 -0.6875 8.9375 -0.6875 9.625 7.5625 4.125 7.5625"></polygon>
                </g>
            </g>
        </g>
    </g>
</svg>