<?xml version="1.0" encoding="UTF-8"?>
<svg width="22px" height="22px" viewBox="0 0 22 22" version="1.1" xmlns="http://www.w3.org/2000/svg" xmlns:xlink="http://www.w3.org/1999/xlink">
    <title>icon/common/dp_pdd</title>
    <defs>
        <circle id="path-1" cx="11" cy="11" r="11"></circle>
        <linearGradient x1="50%" y1="16.4942527%" x2="50%" y2="100%" id="linearGradient-3">
            <stop stop-color="#FA6F6D" offset="0%"></stop>
            <stop stop-color="#FFFFFF" offset="100%"></stop>
        </linearGradient>
        <linearGradient x1="13.1262039%" y1="17.243988%" x2="85.4228765%" y2="83.736006%" id="linearGradient-4">
            <stop stop-color="#FF5454" offset="0%"></stop>
            <stop stop-color="#E32A1F" offset="100%"></stop>
        </linearGradient>
        <radialGradient cx="18.9654168%" cy="0%" fx="18.9654168%" fy="0%" r="199.108389%" gradientTransform="translate(0.189654,0.000000),scale(0.400000,1.000000),rotate(30.148243),translate(-0.189654,-0.000000)" id="radialGradient-5">
            <stop stop-color="#FFECEC" offset="0%"></stop>
            <stop stop-color="#FFFFFF" offset="100%"></stop>
        </radialGradient>
        <path d="M12.6939975,5.28471449 C12.4315872,5.42057146 12.1042996,5.49013502 11.7237193,5.49231513 C11.0181759,5.49231513 10.3752045,5.15378092 9.9998305,4.57915936 C9.97318411,4.52491104 9.92857494,4.43509065 9.8451585,4.34854042 C9.74958116,4.2472018 9.57581288,4.12724144 9.28965718,4.12724144 C9.05911886,4.12724144 8.85000138,4.2165168 8.73183127,4.35348199 C8.65362113,4.43674388 8.61076021,4.51946076 8.5800602,4.57970438 C8.20933535,5.14722244 7.57155107,5.48902681 6.88049322,5.49396838 C6.18073255,5.49013502 5.54123844,5.14942072 5.168189,4.57752427 C5.14211895,4.52712748 5.09866249,4.44221232 5.03090343,4.37045048 C4.75863767,4.06314631 4.14926722,4.07902474 3.91177432,4.34690533 C3.82430424,4.43728891 3.77854239,4.52821753 3.74899506,4.59013254 C3.37479293,5.15763244 2.73122598,5.49781989 2.02915992,5.5 C1.65495779,5.5 1.33462478,5.4337066 1.07626817,5.30333622 C0.412433061,4.96974359 0.00057634233,4.32116189 0,3.61122837 C0,3.40142945 0.0370782485,3.18997728 0.11121554,2.98401173 C0.116421864,2.96922334 0.121051846,2.95278171 0.125124692,2.93579503 L1.56285777,0.332502579 C1.5924051,0.25033073 1.68160422,0 2.12879094,0 L11.6623193,0 C11.8459431,0.0104100006 12.1622417,0.0410768349 12.2746099,0.353867622 L13.6208192,2.9127949 C13.6260448,2.93579503 13.6324038,2.9577051 13.6382057,2.97578182 C13.7129385,3.18229242 13.7500024,3.39209134 13.7500024,3.60027333 C13.7511502,4.30197697 13.346248,4.94727034 12.6939975,5.28471449 Z" id="path-6"></path>
        <linearGradient x1="50%" y1="16.4942527%" x2="50%" y2="100%" id="linearGradient-8">
            <stop stop-color="#FA6F6D" offset="0%"></stop>
            <stop stop-color="#FFFFFF" offset="100%"></stop>
        </linearGradient>
    </defs>
    <g id="icon/common/dp_pdd" stroke="none" stroke-width="1" fill="none" fill-rule="evenodd">
        <g id="10图标/icon/common/jingdong">
            <mask id="mask-2" fill="white">
                <use xlink:href="#path-1"></use>
            </mask>
            <use id="蒙版" fill="#E52D23" xlink:href="#path-1"></use>
            <g id="编组" mask="url(#mask-2)">
                <g transform="translate(4.125000, 4.812500)">
                    <rect id="矩形" stroke="none" fill="url(#linearGradient-3)" fill-rule="nonzero" x="1.375" y="2.75" width="11" height="9.625" rx="1.375"></rect>
                    <circle id="椭圆形" stroke="#FFDEDD" stroke-width="1.4" fill="none" cx="10.5" cy="10" r="2.8"></circle>
                    <g id="icon/logo/jingdong1" stroke="none" stroke-width="1" fill="none" fill-rule="evenodd" transform="translate(7.500000, 7.000000)">
                        <circle id="椭圆形" fill="url(#linearGradient-4)" cx="3" cy="3" r="3"></circle>
                        <path d="M1.85454545,1.72306555 C1.89295099,1.69068724 1.93433949,1.66190652 1.97833807,1.63636364 L1.97833807,2.87141615 C1.78742898,2.74154317 1.60807884,2.60051765 1.41716974,2.47028491 C1.30493608,2.39437577 1.20388849,2.31882639 1.09165483,2.24291725 C1.3496804,2.06987318 1.59726562,1.89610961 1.85529119,1.72306555 L1.85454545,1.72306555 Z M1.59651989,2.01554958 C1.59651989,2.04828765 1.58496094,2.06987318 1.58496094,2.10225149 C1.57340199,2.13498956 1.61889205,2.17816063 1.58496094,2.21053894 C1.56258878,2.26486254 1.54021662,2.30803362 1.51784446,2.35156445 C1.50553977,2.36775361 1.50553977,2.3896989 1.51784446,2.40588806 C1.52940341,2.42747359 1.56258878,2.41704058 1.58496094,2.41704058 C1.6073331,2.42819311 1.61889205,2.43862612 1.6412642,2.43862612 C1.66363636,2.43862612 1.67519531,2.42747359 1.69756747,2.42747359 C1.71993963,2.42747359 1.74231179,2.43862612 1.75387074,2.42747359 C1.76542969,2.42747359 1.7762429,2.41632106 1.79861506,2.40588806 L1.85454545,2.40588806 C1.87691761,2.39473553 1.87691761,2.36271698 1.8661044,2.34113144 C1.82993608,2.30623482 1.79973366,2.26594182 1.7762429,2.22169147 C1.74231179,2.17852039 1.79861506,2.12419679 1.7762429,2.08066595 C1.76468395,2.06951343 1.76468395,2.03749488 1.76468395,2.01590934 L1.74231179,2.01590934 C1.73299006,2.04397054 1.71285511,2.06735487 1.68600852,2.08066595 C1.65692472,2.07167198 1.63268821,2.052245 1.61889205,2.02634235 C1.61889205,2.01518982 1.6073331,2.01518982 1.59651989,2.01518982 L1.59651989,2.01554958 L1.59651989,2.01554958 Z M2.04545455,1.6367234 C2.15768821,1.71263254 2.27029474,1.78818192 2.39334162,1.86409106 L2.96606889,2.25406977 C2.94518821,2.26558206 2.92617187,2.28033218 2.90976562,2.29724085 C2.62899503,2.48143744 2.3485973,2.67678655 2.05626776,2.86098314 C2.04545455,2.4598519 2.04545455,2.04828765 2.04545455,1.6367234 Z M2.13531605,2.10261125 C2.14762074,2.12923341 2.16290838,2.1547763 2.18006037,2.17852039 C2.19161932,2.17852039 2.20243253,2.16736786 2.21399148,2.16736786 L2.21399148,2.42747359 C2.31466619,2.43826636 2.41645952,2.43826636 2.51713423,2.42747359 C2.52272727,2.34077168 2.52272727,2.25406977 2.51713423,2.16736786 C2.52869318,2.16736786 2.53950639,2.17852039 2.55106534,2.17852039 C2.57604759,2.15405678 2.59543679,2.12455655 2.60736861,2.09181848 C2.55106534,2.08066595 2.49513494,2.04864741 2.43883168,2.03749488 C2.42689986,2.06987318 2.39557884,2.09145872 2.36015625,2.09181848 C2.32622514,2.09181848 2.30385298,2.05908042 2.29303977,2.03749488 C2.23785511,2.05260475 2.18528054,2.07419029 2.13606179,2.10225149 L2.13531605,2.10261125 L2.13531605,2.10261125 Z M3.03355824,2.2652223 C3.33707386,2.04828765 3.65177557,1.84250552 3.95454545,1.6367234 L3.95454545,2.8613429 C3.6514027,2.66563403 3.33707386,2.4598519 3.03393111,2.2652223 L3.03355824,2.2652223 Z M3.52723722,2.01590934 C3.5104581,2.06879391 3.5104581,2.12563582 3.52723722,2.17852039 C3.54960937,2.23284399 3.60591264,2.2652223 3.63947088,2.30839338 C3.66184304,2.32997891 3.65102983,2.36271698 3.65102983,2.38430252 C3.61896307,2.39437577 3.58876065,2.40876613 3.56116832,2.42747359 L3.76363636,2.42747359 C3.72970526,2.41632106 3.7073331,2.39473553 3.67377486,2.38430252 C3.67377486,2.36271698 3.66221591,2.3195459 3.68533381,2.30839338 C3.73417969,2.27565531 3.7729581,2.23068544 3.79756747,2.17852039 C3.81993963,2.12419679 3.79756747,2.07023294 3.78600852,2.01590934 L3.52723722,2.01590934 Z M4.01084872,1.6367234 L4.24650213,1.79933445 C4.43741122,1.92920743 4.61676136,2.04828765 4.80767045,2.17888015 L4.90871804,2.24363676 C4.60557528,2.44941889 4.31361861,2.65520102 4.01047585,2.87213567 L4.01047585,1.6367234 L4.01084872,1.6367234 Z M4.17938565,1.97363434 C4.18936008,2.04131049 4.21966698,2.09618305 4.26033194,2.12057085 L4.32938565,2.12057085 C4.31749307,2.08398915 4.31749307,2.0285069 4.29447517,2.01082574 C4.25994831,1.95473379 4.21352888,1.97363434 4.17938565,1.97363434 Z M4.37517369,2.01989054 C4.35469399,2.05755848 4.33808882,2.09932077 4.32480469,2.14353967 C4.35801502,2.14353967 4.40838402,2.14353967 4.42443568,2.11815475 C4.44491539,2.0804868 4.46207406,2.03872451 4.47480469,1.99450562 C4.44104085,1.99041128 4.40672351,1.99941883 4.37517369,2.01989054 Z M4.29161932,2.08102571 C4.18758878,2.09721487 4.11674361,2.19183147 4.13352273,2.29220422 C4.1338956,2.29400302 4.13426847,2.29616157 4.13464134,2.29796037 C4.14992898,2.39185746 4.23829901,2.4580531 4.33636364,2.44941889 C4.3878196,2.44366275 4.43517401,2.42063817 4.47096946,2.38466228 C4.51534091,2.3292594 4.52801847,2.25586857 4.50490057,2.18931316 C4.46388494,2.11376378 4.37887074,2.0705927 4.29161932,2.08102571 L4.29161932,2.08102571 Z M4.04440696,2.92609951 C4.33636364,2.72031739 4.61713423,2.52496827 4.90909091,2.31918615 L4.90909091,3.54380565 C4.61713423,3.33766377 4.33636364,3.14231465 4.04440696,2.93653252 C4.04440696,2.93653252 4.03284801,2.92538 4.04440696,2.92538 L4.04440696,2.92609951 L4.04440696,2.92609951 Z M4.50490057,2.80665954 C4.43107244,2.81565351 4.36768466,2.86098314 4.33636364,2.92609951 C4.32480469,2.96927059 4.37029474,2.99085613 4.3926669,3.02359419 C4.42771662,3.05237491 4.47059659,3.07108237 4.51645952,3.0779178 C4.54852628,3.10202165 4.58208452,3.12360718 4.6175071,3.14267441 C4.62682884,3.11461321 4.63055753,3.08547273 4.62906605,3.0559725 C4.66821733,3.03330768 4.70587713,3.0077648 4.74129972,2.98006336 C4.77523082,2.99121589 4.79760298,3.02323443 4.81997514,3.03438696 C4.83153409,3.03438696 4.85390625,3.03438696 4.85390625,3.02323443 C4.85166903,2.99661227 4.84421165,2.97106938 4.83153409,2.94732529 C4.84570312,2.92430072 4.85316051,2.89803831 4.85390625,2.87141615 C4.85390625,2.84983061 4.83153409,2.83867809 4.80916193,2.84983061 C4.7852983,2.86206242 4.76553622,2.88112964 4.75285866,2.90415422 C4.70811435,2.88256868 4.67418324,2.84983061 4.62906605,2.82824508 L4.62906605,2.74154317 C4.57276278,2.74154317 4.53920455,2.78471424 4.50527344,2.80629978 L4.50490057,2.80665954 L4.50490057,2.80665954 Z M1.09090909,2.32997891 C1.38286577,2.53576104 1.66363636,2.73111016 1.95559304,2.93689228 C1.96715199,2.93689228 1.95559304,2.94804481 1.95559304,2.94804481 C1.66363636,3.14267441 1.38286577,3.34881629 1.09090909,3.54344589 L1.09090909,2.32997891 Z M1.34893466,2.75269569 C1.34035866,2.77212268 1.32879972,2.79047038 1.31500355,2.8070193 C1.30419034,2.82033038 1.28778409,2.82824508 1.27025923,2.82860483 C1.24005682,2.85234893 1.2232777,2.88832482 1.22551491,2.92573975 C1.21432884,2.96099613 1.21432884,2.99877082 1.22551491,3.0340272 C1.22887074,3.06676527 1.25870028,3.09086912 1.29263139,3.0883508 L1.55065696,3.0883508 C1.57153764,3.08799105 1.59167259,3.08043611 1.60696023,3.06676527 C1.62933239,3.04517973 1.61851918,3.00200865 1.61851918,2.96927059 C1.61404474,2.92466048 1.6024858,2.88076988 1.58458807,2.8393976 C1.56147017,2.82608652 1.53872514,2.81169616 1.51747159,2.79622653 C1.50703125,2.75917136 1.4772017,2.73003088 1.43879616,2.72031739 C1.40598366,2.72103691 1.37466264,2.73254919 1.34893466,2.75269569 Z M2.65174006,2.67678655 C2.69648437,2.62246295 2.70804332,2.55734658 2.74160156,2.50374249 C2.77254972,2.55590754 2.79865057,2.61023115 2.82027699,2.66635354 C2.84264915,2.66635354 2.86502131,2.67750607 2.89895241,2.67750607 L2.89895241,2.74190293 C2.93288352,2.7307504 2.96606889,2.7307504 3.01118608,2.72031739 C2.98881392,2.64440825 2.95488281,2.56885886 2.93251065,2.50338273 C3.01118608,2.5361208 3.07867543,2.55770634 3.1457919,2.59008464 C3.12341974,2.63325572 3.1118608,2.68757932 3.08948864,2.74154317 C3.12341974,2.73039064 3.15660511,2.73039064 3.17935014,2.71995763 C3.19090909,2.71995763 3.19090909,2.7088051 3.2017223,2.69837209 C3.23267045,2.63505451 3.25914418,2.56993814 3.28039773,2.50302297 C3.33670099,2.53576104 3.38144531,2.57893212 3.43737571,2.61131042 L3.4034446,2.64404849 C3.36951349,2.67678655 3.32476918,2.69837209 3.29121094,2.7307504 L3.43737571,2.7307504 C3.44893466,2.76348846 3.45974787,2.80665954 3.47130682,2.83903784 L3.38219105,2.83903784 C3.3706321,2.88220892 3.35981889,2.92573975 3.34825994,2.98006336 C3.39076705,2.9858195 3.43215554,2.99697203 3.47205256,3.01280142 C3.49367898,3.04589925 3.50896662,3.08259466 3.51679687,3.12108887 C3.47205256,3.1322414 3.41574929,3.1322414 3.3706321,3.14267441 L3.33670099,3.37004207 C3.31321023,3.39162761 3.28673651,3.40997532 3.25802557,3.42436567 C3.23565341,3.326871 3.22409446,3.22901656 3.2017223,3.13188164 C3.16741832,3.13368043 3.13348722,3.12972309 3.10067472,3.12072911 C3.07830256,3.19663825 3.06674361,3.28334016 3.04437145,3.3592493 C3.02199929,3.39198737 2.98806818,3.39198737 2.95450994,3.41357291 C2.95637429,3.31967582 2.9526456,3.22541897 2.94295099,3.13188164 C2.9198331,3.13332068 2.8967152,3.12972309 2.87583452,3.12072911 C2.86427557,3.08799105 2.85346236,3.06640551 2.84190341,3.0340272 C2.79715909,3.07719828 2.8079723,3.14231465 2.79715909,3.19663825 C2.78560014,3.27254739 2.77478693,3.34809678 2.76322798,3.41357291 C2.70058594,3.37363966 2.64092685,3.33046859 2.58387784,3.28369992 C2.61780895,3.27254739 2.66255327,3.26211438 2.69611151,3.25096186 C2.68455256,3.19663825 2.68455256,3.14267441 2.67373935,3.0883508 C2.65136719,3.09950333 2.62899503,3.12108887 2.60662287,3.13152188 C2.58425071,3.07719828 2.57269176,3.01208191 2.5503196,2.95847782 C2.59245384,2.95739854 2.6342152,2.95020336 2.67411222,2.93689228 C2.67411222,2.89372121 2.66255327,2.86098314 2.66255327,2.81745231 C2.65099432,2.81745231 2.64018111,2.80629978 2.62862216,2.80629978 C2.60363991,2.77176292 2.58126776,2.73542726 2.56150568,2.69801233 C2.5928267,2.69729281 2.62340199,2.68973788 2.65136719,2.67642679 L2.65174006,2.67678655 L2.65174006,2.67678655 Z M2.79753196,2.94768505 L2.90976562,2.94768505 L2.87583452,3.01244166 L2.9768821,2.9797036 C2.96532315,2.94696553 2.96532315,2.90379446 2.95450994,2.87141615 C2.93213778,2.86026362 2.90976562,2.86026362 2.88739347,2.84983061 C2.86502131,2.82824508 2.86502131,2.80665954 2.85346236,2.785074 C2.80871804,2.81781207 2.80871804,2.88256868 2.79715909,2.94768505 L2.79753196,2.94768505 L2.79753196,2.94768505 Z M3.12778315,2.86168591 C3.11377713,2.90750443 3.11377713,2.95370477 3.10067472,2.99952329 C3.15489158,2.98768684 3.19600604,2.98768684 3.25067472,2.97661403 C3.25067472,2.93079551 3.23666869,2.88459517 3.23666869,2.84984946 C3.1996205,2.84832218 3.16302411,2.85214039 3.12778315,2.86168591 L3.12778315,2.86168591 Z M1.41126153,2.75637308 C1.44907316,2.72679018 1.48605377,2.81363031 1.49893466,2.90047045 L1.34893466,2.90047045 C1.37386541,2.84321321 1.38674629,2.78595598 1.41167704,2.75637308 L1.41126153,2.75637308 Z M3.07867543,3.61935503 L3.95454545,3.00200865 L3.95454545,4.23706117 L3.68496094,4.04171205 C3.4824929,3.90068654 3.2807706,3.74922802 3.07830256,3.61899527 L3.07867543,3.61935503 L3.07867543,3.61935503 Z M3.60665838,3.37040183 C3.59509943,3.41305586 3.59509943,3.4777478 3.58428622,3.52040183 C3.60665838,3.49836392 3.62903054,3.49836392 3.6514027,3.4777478 C3.69018111,3.46068619 3.73119673,3.476326 3.76363636,3.52040183 C3.75207741,3.4777478 3.75207741,3.41305586 3.7412642,3.37040183 L3.60665838,3.37040183 Z M3.62903054,3.46789651 C3.58354048,3.48084783 3.54662642,3.51250662 3.52798295,3.55459842 C3.51008523,3.61719648 3.53767756,3.68375189 3.59509943,3.71720947 C3.64991122,3.74814874 3.71926491,3.73915477 3.76363636,3.69562393 C3.81993963,3.64993454 3.82739702,3.56898878 3.78004261,3.51466517 C3.76661932,3.49883578 3.74909446,3.48660398 3.72970526,3.47868928 C3.69577415,3.45710374 3.66258878,3.46753675 3.62865767,3.46753675 L3.62903054,3.46789651 L3.62903054,3.46789651 Z M3.58428622,3.74958778 C3.59584517,3.7922418 3.59584517,3.85693375 3.60665838,3.89958778 L3.73045099,3.89958778 C3.73939986,3.85053564 3.74685724,3.80006171 3.75282315,3.74958778 C3.70770597,3.81427972 3.64058949,3.79295271 3.58428622,3.74958778 Z M4.01084872,2.99121589 C4.31399148,3.19663825 4.60594815,3.39198737 4.90909091,3.59776949 L4.43741122,3.9229916 C4.3028054,4.02048627 4.15664062,4.11834071 4.02166193,4.21547563 C4.01047585,3.81434439 4.01047585,3.40242038 4.01047585,2.99085613 L4.01084872,2.99121589 L4.01084872,2.99121589 Z M4.30382708,3.3382836 L4.30382708,3.48766377 L4.42933714,3.48766377 C4.47256838,3.45047368 4.42933714,3.43125881 4.42933714,3.39406872 C4.5130105,3.33766377 4.34566377,3.35687864 4.30243253,3.33766377 L4.30382708,3.3382836 Z M4.17938565,3.34917605 L4.17938565,3.47996118 C4.23048455,3.47996118 4.27828675,3.49917605 4.32938565,3.49917605 C4.27828675,3.44277109 4.42828675,3.34979589 4.17938565,3.34979589 L4.17938565,3.34917605 Z M4.44970596,3.34917605 C4.41048385,3.39345649 4.44970596,3.43773694 4.44970596,3.48201738 C4.44970596,3.50489561 4.56484186,3.50489561 4.56484186,3.48201738 C4.60406398,3.43773694 4.56484186,3.39345649 4.56484186,3.34917605 L4.44970596,3.34917605 Z M4.14545455,3.46753675 L4.14545455,3.78160632 C4.14545455,3.79275885 4.1678267,3.80319186 4.17938565,3.80319186 L4.43741122,3.80319186 C4.45978338,3.80319186 4.48215554,3.81434439 4.49371449,3.79203933 C4.50303622,3.77153307 4.50676491,3.74922802 4.50527344,3.72728272 C4.5276456,3.71613019 4.53920455,3.71613019 4.5615767,3.70569718 C4.59699929,3.68087381 4.60669389,3.63374539 4.58394886,3.59740974 C4.5615767,3.5697083 4.52988281,3.55028131 4.49408736,3.54308613 L4.49408736,3.46753675 L4.14545455,3.46753675 L4.14545455,3.46753675 Z M1.09090909,3.59776949 C1.38286577,3.40242038 1.67519531,3.19663825 1.97833807,3.00200865 L1.97833807,4.2262684 C1.79898793,4.10682842 1.63045099,3.9773152 1.45035511,3.8467227 C1.3265625,3.76038055 1.20314276,3.6844714 1.09090909,3.59776949 Z M1.8321733,3.39198737 C1.80980114,3.42472543 1.77587003,3.44631097 1.76505682,3.47868928 C1.73112571,3.53301288 1.7203125,3.59812925 1.67519531,3.65173334 C1.60807884,3.67331888 1.51821733,3.67331888 1.46191406,3.73843525 C1.52753906,3.78232584 1.61068892,3.79419789 1.68675426,3.77117331 C1.73149858,3.76002079 1.74305753,3.71684971 1.75387074,3.6844714 C1.75871804,3.64309912 1.77848011,3.60460491 1.81017401,3.57618396 C1.82173295,3.56503143 1.83254616,3.58733648 1.83254616,3.59776949 L1.83254616,3.78196608 L1.85454545,3.78196608 C1.85454545,3.71720947 1.84298651,3.64094057 1.87691761,3.57618396 C1.89593395,3.54344589 1.9037642,3.50531144 1.89928977,3.46789651 C1.88661222,3.43587796 1.86274858,3.4092558 1.8321733,3.39198737 Z M2.04545455,3.00200865 C2.22480469,3.12144863 2.39334162,3.24052885 2.56187855,3.37040183 C2.67411222,3.45710374 2.79753196,3.53301288 2.90976562,3.61935503 C2.61818182,3.82513716 2.32622514,4.03127904 2.04545455,4.23706117 L2.04545455,3.00200865 Z M2.2926669,3.4031399 C2.27029474,3.41429242 2.27029474,3.43587796 2.24792259,3.44631097 C2.21772017,3.44451218 2.18714489,3.44846953 2.15806108,3.4574635 C2.14650213,3.4574635 2.13568892,3.47904904 2.13568892,3.49020156 L2.13568892,3.73915477 C2.13568892,3.7607403 2.16962003,3.7607403 2.18043324,3.7607403 L2.55069247,3.7607403 C2.57306463,3.7607403 2.57306463,3.73915477 2.57306463,3.71756923 L2.57306463,3.46753675 C2.54248935,3.45026832 2.50706676,3.44271338 2.47201705,3.44595121 C2.45859375,3.42580471 2.43883168,3.41069483 2.41571378,3.40278014 L2.2926669,3.4031399 L2.2926669,3.4031399 Z M2.07938565,4.28023224 C2.38252841,4.07445012 2.67448509,3.86866799 2.97762784,3.67331888 L2.97762784,4.32340332 C2.98918679,4.51875244 2.97762784,4.71338203 2.97762784,4.89757862 C2.76434659,4.75655311 2.56187855,4.60509459 2.3485973,4.46442883 C2.2587358,4.39967222 2.15768821,4.33455585 2.07901278,4.28023224 L2.07938565,4.28023224 Z M2.64055398,4.17012652 L2.79055398,4.17012652 C2.75180398,4.09262652 2.75180398,4.02012652 2.71555398,4.02012652 L2.64055398,4.17012652 Z M2.48357599,4.13920673 C2.45449219,4.17913998 2.43174716,4.22267081 2.41645952,4.26907972 C2.42801847,4.26907972 2.45039062,4.25792719 2.46120384,4.25792719 C2.49513494,4.25792719 2.52832031,4.26907972 2.55106534,4.25792719 C2.57604759,4.24713442 2.60475852,4.24713442 2.62974077,4.25792719 C2.63160511,4.31620814 2.62787642,4.37448909 2.61818182,4.43205053 C2.61818182,4.45363606 2.58425071,4.45363606 2.5734375,4.45363606 L2.53950639,4.38887945 C2.52794744,4.40003198 2.51713423,4.40003198 2.51713423,4.41046499 C2.51228693,4.44859944 2.5357777,4.48457533 2.5734375,4.4971669 C2.61557173,4.50975846 2.66068892,4.48673389 2.67373935,4.44608113 L2.67485795,4.44284329 L2.67485795,4.25864671 C2.70878906,4.25145153 2.74458452,4.25540888 2.77590554,4.26979923 C2.81617543,4.25900647 2.8590554,4.25900647 2.89969815,4.26979923 C2.89261364,4.22590864 2.87322443,4.18453636 2.84339489,4.15035926 C2.82214134,4.12625541 2.79492187,4.10754794 2.76471946,4.09603566 C2.67448509,4.03307784 2.54882812,4.05250482 2.48357599,4.13920673 L2.48357599,4.13920673 Z M3.03393111,3.67367864 C3.33707386,3.87946076 3.62903054,4.07480988 3.9321733,4.280592 C3.64021662,4.48637413 3.33707386,4.70330878 3.04474432,4.90909091 C3.03355824,4.48637413 3.03355824,4.07480988 3.03355824,3.67439815 L3.03393111,3.67367864 Z M3.32588778,4.02048627 C3.31432884,4.03441657 3.31432884,4.06137844 3.29195668,4.06137844 C3.25802557,4.0883403 3.2248402,4.12923246 3.19090909,4.15619433 C3.20395952,4.16697907 3.2199929,4.17192208 3.23565341,4.17012462 L3.48286577,4.17012462 C3.46049361,4.12923246 3.4265625,4.11620089 3.40419034,4.08923903 C3.37025923,4.06227716 3.34788707,4.0353153 3.32551491,4.021385 L3.32588778,4.02048627 L3.32588778,4.02048627 Z M3.19090909,4.18273757 L3.19090909,4.41010523 C3.19090909,4.42125776 3.19090909,4.44284329 3.21328125,4.44284329 L3.47130682,4.44284329 C3.48062855,4.41118451 3.48435724,4.37808668 3.48286577,4.34534862 L3.48286577,4.18273757 C3.48286577,4.17158504 3.46049361,4.17158504 3.44893466,4.17158504 C3.36280185,4.16942648 3.27666903,4.17302407 3.19090909,4.18273757 Z" id="形状" fill="#FFFFFF" fill-rule="nonzero"></path>
                    </g>
                    <mask id="mask-7" fill="white">
                        <use xlink:href="#path-6"></use>
                    </mask>
                    <use id="蒙版" stroke="none" fill="url(#radialGradient-5)" fill-rule="nonzero" xlink:href="#path-6"></use>
                    <polygon id="矩形" stroke="none" fill="url(#linearGradient-8)" fill-rule="nonzero" opacity="0.223292151" mask="url(#mask-7)" points="4.8125 -0.6875 8.9375 -0.6875 9.625 7.5625 4.125 7.5625"></polygon>
                </g>
            </g>
        </g>
    </g>
</svg>