<?xml version="1.0" encoding="UTF-8"?>
<svg width="22px" height="22px" viewBox="0 0 22 22" version="1.1" xmlns="http://www.w3.org/2000/svg" xmlns:xlink="http://www.w3.org/1999/xlink">
    <title>icon/common/dp_jd</title>
    <defs>
        <linearGradient x1="50%" y1="16.4942527%" x2="50%" y2="100%" id="linearGradient-1">
            <stop stop-color="#FA6D6D" offset="0%"></stop>
            <stop stop-color="#FFFFFF" offset="100%"></stop>
        </linearGradient>
        <circle id="path-2" cx="3" cy="3" r="3"></circle>
        <radialGradient cx="18.9654168%" cy="0%" fx="18.9654168%" fy="0%" r="199.108389%" gradientTransform="translate(0.189654,0.000000),scale(0.400000,1.000000),rotate(30.148243),translate(-0.189654,-0.000000)" id="radialGradient-4">
            <stop stop-color="#FFECEC" offset="0%"></stop>
            <stop stop-color="#FFFFFF" offset="100%"></stop>
        </radialGradient>
        <path d="M12.6939975,5.28471449 C12.4315872,5.42057146 12.1042996,5.49013502 11.7237193,5.49231513 C11.0181759,5.49231513 10.3752045,5.15378092 9.9998305,4.57915936 C9.97318411,4.52491104 9.92857494,4.43509065 9.8451585,4.34854042 C9.74958116,4.2472018 9.57581288,4.12724144 9.28965718,4.12724144 C9.05911886,4.12724144 8.85000138,4.2165168 8.73183127,4.35348199 C8.65362113,4.43674388 8.61076021,4.51946076 8.5800602,4.57970438 C8.20933535,5.14722244 7.57155107,5.48902681 6.88049322,5.49396838 C6.18073255,5.49013502 5.54123844,5.14942072 5.168189,4.57752427 C5.14211895,4.52712748 5.09866249,4.44221232 5.03090343,4.37045048 C4.75863767,4.06314631 4.14926722,4.07902474 3.91177432,4.34690533 C3.82430424,4.43728891 3.77854239,4.52821753 3.74899506,4.59013254 C3.37479293,5.15763244 2.73122598,5.49781989 2.02915992,5.5 C1.65495779,5.5 1.33462478,5.4337066 1.07626817,5.30333622 C0.412433061,4.96974359 0.00057634233,4.32116189 0,3.61122837 C0,3.40142945 0.0370782485,3.18997728 0.11121554,2.98401173 C0.116421864,2.96922334 0.121051846,2.95278171 0.125124692,2.93579503 L1.56285777,0.332502579 C1.5924051,0.25033073 1.68160422,0 2.12879094,0 L11.6623193,0 C11.8459431,0.0104100006 12.1622417,0.0410768349 12.2746099,0.353867622 L13.6208192,2.9127949 C13.6260448,2.93579503 13.6324038,2.9577051 13.6382057,2.97578182 C13.7129385,3.18229242 13.7500024,3.39209134 13.7500024,3.60027333 C13.7511502,4.30197697 13.346248,4.94727034 12.6939975,5.28471449 Z" id="path-5"></path>
        <linearGradient x1="50%" y1="16.4942527%" x2="50%" y2="100%" id="linearGradient-7">
            <stop stop-color="#FA6D6D" offset="0%"></stop>
            <stop stop-color="#FFFFFF" offset="100%"></stop>
        </linearGradient>
    </defs>
    <g id="icon/common/dp_jd" stroke="none" stroke-width="1" fill="none" fill-rule="evenodd">
        <g id="10图标/icon/common/jingdong">
            <circle id="蒙版" fill="#DA0B06" cx="11" cy="11" r="11"></circle>
            <g id="编组" transform="translate(4.125000, 4.812500)">
                <rect id="矩形" fill="url(#linearGradient-1)" fill-rule="nonzero" x="1.375" y="2.75" width="11" height="9.625" rx="1.375"></rect>
                <g id="编组-2" transform="translate(6.875000, 6.187500)">
                    <circle id="椭圆形" stroke="#FFDEDD" stroke-width="1.2" cx="3.5" cy="3.5" r="2.9"></circle>
                    <g id="编组-14" transform="translate(0.500000, 0.500000)">
                        <mask id="mask-3" fill="white">
                            <use xlink:href="#path-2"></use>
                        </mask>
                        <use id="蒙版" fill="#DA0B06" xlink:href="#path-2"></use>
                        <g id="编组" mask="url(#mask-3)" fill="#FFFFFF" fill-rule="nonzero">
                            <g transform="translate(0.818182, 1.636364)" id="形状">
                                <path d="M0.666985481,0.897377446 C0.67295184,0.970358572 0.681901378,1.04403146 0.684884557,1.11735847 C0.690478018,1.2539819 0.632306023,1.36258889 0.512605956,1.44214177 C0.420500297,1.50336291 0.3194451,1.5479817 0.209067468,1.57219345 C0.0800449655,1.6002099 -0.0273494872,1.50197938 0.00621127931,1.38299593 C0.025229047,1.31520304 0.0498402757,1.24602661 0.0878758111,1.18618901 C0.182591752,1.03815147 0.240763747,0.877662166 0.288121718,0.71302228 C0.296698358,0.682238772 0.308631075,0.651801147 0.323546971,0.623092931 C0.349276892,0.573285907 0.407821785,0.547690631 0.464129293,0.563255326 C0.50477511,0.574669436 0.544302235,0.590580013 0.581964873,0.609257647 C0.642001355,0.638311744 0.700546248,0.671516427 0.759464038,0.702991699 C0.795635086,0.66701996 0.830314545,0.628972927 0.867977183,0.594384716 C0.999982864,0.472980095 1.16256613,0.395848384 1.32850548,0.324596669 C1.58841497,0.213222629 1.85578241,0.118796812 2.13694705,0.0644933207 C2.26708825,0.0395898086 2.40021262,0.0233333494 2.5329641,0.0139945323 C2.69144549,0.00292630477 2.85067269,-0.00260780902 3.00915408,0.00119689421 C3.21499345,0.00569336166 3.41784964,0.0309427558 3.60578993,0.118796812 C3.70721803,0.166182662 3.79223863,0.231554381 3.81051061,0.338777835 C3.82318912,0.413834254 3.81834145,0.493387139 3.80901902,0.569827086 C3.79373022,0.699532878 3.73667692,0.818862207 3.68111521,0.936808007 C3.66619931,0.967937397 3.62741798,0.992840909 3.59423011,1.01117266 C3.5092095,1.05717498 3.41449356,1.08104085 3.31828603,1.09798907 C3.04718962,1.14606668 2.78094087,1.12462199 2.52177717,1.03815147 C2.36777055,0.986960913 2.24359571,0.893572743 2.1306078,0.78669517 C2.11867508,0.775626943 2.10935264,0.760754012 2.09480965,0.754528134 C2.07952085,0.747610492 2.05528252,0.742076378 2.0444685,0.74899402 C2.03328157,0.756257544 2.02656942,0.78012341 2.0295526,0.794304577 C2.03365447,0.8112528 2.04745168,0.828201024 2.06087598,0.841690426 C2.22495084,1.00633031 2.42482385,1.1166667 2.66012211,1.16716549 C2.94128676,1.22734898 3.22133271,1.22423604 3.49727679,1.13914904 C3.51293848,1.13430669 3.52860017,1.12877258 3.54388896,1.12220082 C3.55880486,1.11597494 3.57334786,1.10836553 3.59385721,1.1052526 C3.56327963,1.14641257 3.53456653,1.1882643 3.50287025,1.22838663 C3.28882714,1.49471585 3.01400175,1.68218396 2.66758006,1.77591801 C2.4464519,1.83575562 2.22532374,1.82710856 2.00531427,1.77764742 C1.63801032,1.69463571 1.30053817,1.55144052 1.0096782,1.32315833 C0.919064127,1.25225249 0.833670621,1.17546666 0.774007037,1.07896555 C0.750887398,1.04195617 0.731496732,1.00148796 0.72030981,0.960673873 C0.71173317,0.927123308 0.697190171,0.906024499 0.666985481,0.897377446 Z M3.34140567,0.0835168368 C3.29889537,0.0873215401 3.25563927,0.0887050685 3.21350186,0.0949309465 C3.14824482,0.104615646 3.08597095,0.124330926 3.03413821,0.164107369 C2.98827183,0.19869558 2.99349239,0.248848486 3.04457934,0.275481409 C3.06508869,0.285857872 3.08820833,0.293813161 3.11058218,0.299347275 C3.21387476,0.325634315 3.31903183,0.318716673 3.4234431,0.307994327 C3.47714033,0.302460214 3.53009176,0.286549636 3.58043291,0.268563767 C3.61511237,0.256112011 3.64121519,0.228441442 3.6397236,0.189010881 C3.63785911,0.151309731 3.60504414,0.137820328 3.57521234,0.124676808 C3.50175156,0.0928556538 3.42232441,0.0838627189 3.34140567,0.0835168368 Z M2.115319,0.525554176 C2.17721997,0.525554176 2.22532374,0.485085969 2.22532374,0.434241298 C2.22495084,0.38374251 2.17423679,0.341890774 2.11457321,0.342234528 C2.05229934,0.342582539 2.00568717,0.382358981 2.00531427,0.434241298 C2.00531427,0.485085969 2.05341803,0.525208294 2.115319,0.525554176 Z M2.59449217,2.72501853 C2.56577907,2.72501853 2.53818466,2.72674794 2.51133605,2.72432676 C2.5038781,2.723635 2.49380987,2.711875 2.49157249,2.70322795 C2.47143603,2.63059271 2.45465564,2.55657394 2.4326547,2.48428458 C2.42445095,2.45592224 2.40878926,2.42859756 2.39089019,2.40403993 C2.36404157,2.36633878 2.31854809,2.36149643 2.2883434,2.3967764 C2.2588845,2.43067285 2.23278169,2.46906576 2.21450971,2.50953397 C2.188034,2.56833393 2.16864333,2.63024683 2.14999846,2.69215972 C2.14216762,2.717755 2.13247228,2.73089852 2.10226759,2.72640205 C2.08511431,2.72398088 2.06684234,2.72605617 2.04558719,2.72605617 C2.05006196,2.62021625 2.05379093,2.51783514 2.0582657,2.40576934 C2.03141709,2.41822109 2.01090773,2.42444697 1.99524604,2.4355152 C1.95907499,2.462494 1.92327684,2.49051045 1.89083477,2.52094808 C1.83154408,2.57698098 1.77411788,2.63508918 1.71669168,2.69319737 C1.68052063,2.72951499 1.66784212,2.7333197 1.60556825,2.71983029 C1.67902904,2.60395979 1.75211693,2.48912692 1.82744221,2.37187289 C1.75510011,2.35250349 1.69208045,2.32587057 1.66523184,2.25704003 C1.64807855,2.21415065 1.65068884,2.17195303 1.6697066,2.12768012 C1.67418137,2.14255305 1.67753745,2.15811774 1.68238512,2.17299067 C1.70662345,2.25012239 1.77971134,2.29024471 1.86212167,2.26707061 C1.88337682,2.26084473 1.90686935,2.24458827 1.91880207,2.22694828 C1.99114417,2.11868718 2.06087598,2.00904255 2.1294891,1.89905204 C2.14216762,1.87899088 2.15484613,1.87518618 2.17833866,1.87899088 C2.29169948,1.89559322 2.40506029,1.91115792 2.51916689,1.88348735 C2.54415102,1.87726147 2.56801645,1.86757677 2.59449217,1.85892972 L2.59449217,2.72501853 L2.59449217,2.72501853 Z"></path>
                            </g>
                        </g>
                    </g>
                </g>
                <mask id="mask-6" fill="white">
                    <use xlink:href="#path-5"></use>
                </mask>
                <use id="蒙版" fill="url(#radialGradient-4)" fill-rule="nonzero" xlink:href="#path-5"></use>
                <polygon id="矩形" fill="url(#linearGradient-7)" fill-rule="nonzero" opacity="0.223292151" mask="url(#mask-6)" points="4.8125 -0.6875 8.9375 -0.6875 9.625 7.5625 4.125 7.5625"></polygon>
            </g>
        </g>
    </g>
</svg>