<?xml version="1.0" encoding="UTF-8"?>
<svg width="22px" height="22px" viewBox="0 0 22 22" version="1.1" xmlns="http://www.w3.org/2000/svg" xmlns:xlink="http://www.w3.org/1999/xlink">
    <title>icon/logo/suning1</title>
    <defs>
        <linearGradient x1="50%" y1="0%" x2="50%" y2="98.6314467%" id="linearGradient-1">
            <stop stop-color="#FFB805" offset="0%"></stop>
            <stop stop-color="#EB9800" offset="100%"></stop>
        </linearGradient>
    </defs>
    <g id="icon/logo/suning1" stroke="none" stroke-width="1" fill="none" fill-rule="evenodd">
        <g id="编组-21">
            <circle id="椭圆形" fill="url(#linearGradient-1)" cx="11" cy="11" r="11"></circle>
            <g id="编组" transform="translate(3.666667, 3.666667)" fill-rule="nonzero">
                <path d="M14.2730455,6.38350836 L12.9096331,5.02009594 L12.9096331,3.09762738 C12.9096331,2.3560223 12.3106444,1.75703358 11.5690393,1.75703358 L9.64657072,1.75703358 L8.2831583,0.393621159 C7.75833009,-0.131207053 6.90833657,-0.131207053 6.38350836,0.393621159 L5.02009594,1.75703358 L3.09762738,1.75703358 C2.3560223,1.75703358 1.75703358,2.3560223 1.75703358,3.09762738 L1.75703358,5.02009594 L0.393621159,6.38350836 C-0.131207053,6.90833657 -0.131207053,7.75833009 0.393621159,8.2831583 L1.75703358,9.64657072 L1.75703358,11.5690393 C1.75703358,12.3106444 2.3560223,12.9096331 3.09762738,12.9096331 L5.02009594,12.9096331 L6.38350836,14.2730455 C6.90833657,14.7978737 7.75833009,14.7978737 8.2831583,14.2730455 L9.64657072,12.9096331 L11.5690393,12.9096331 C12.3106444,12.9096331 12.9096331,12.3106444 12.9096331,11.5690393 L12.9096331,9.64657072 L14.2730455,8.2831583 C14.7978737,7.75833009 14.7978737,6.90833657 14.2730455,6.38350836 Z M9.60093349,5.88720342 C9.88616621,5.88720342 10.120057,6.12109426 10.120057,6.40632698 C10.120057,6.6915597 9.88616621,6.92545054 9.60093349,6.92545054 C9.31570076,6.92545054 9.08180993,6.6915597 9.08180993,6.40632698 C9.08751459,6.12109426 9.31570076,5.88720342 9.60093349,5.88720342 Z M4.95164009,5.88720342 C5.23687281,5.88720342 5.47076365,6.12109426 5.47076365,6.40632698 C5.47076365,6.6915597 5.23687281,6.92545054 4.95164009,6.92545054 C4.66640736,6.92545054 4.43251653,6.6915597 4.43251653,6.40632698 C4.43822119,6.12109426 4.66640736,5.88720342 4.95164009,5.88720342 Z M9.53247764,11.8827953 L5.07714249,11.8827953 C4.14157915,11.8827953 3.34292752,11.1525995 3.32581356,10.2170362 C3.3086996,9.46402178 3.78218592,8.81939583 4.44963049,8.57409568 C4.53520031,8.53986776 4.70063529,8.51704914 4.84895631,8.49993517 C5.00868663,8.48282121 5.13989369,8.36302347 5.16841696,8.20329314 C5.34526125,7.18215999 6.23518735,6.40632698 7.30195773,6.40632698 C8.36872812,6.40632698 9.25865422,7.17645534 9.43549851,8.19758849 C9.46402178,8.35731881 9.60093349,8.48282121 9.76066381,8.49423052 C9.86905225,8.50563983 9.98314534,8.51704914 10.0401919,8.5341631 C10.7703877,8.73953066 11.3009205,9.4240892 11.2781019,10.2284455 C11.2552833,11.1583042 10.4623363,11.8827953 9.53247764,11.8827953 L9.53247764,11.8827953 Z" id="形状" fill="#FFFFFF"></path>
                <g id="编组-21备份" transform="translate(3.331069, 5.887203)">
                    <path d="M5.75074105,0.519123589 C5.75074105,0.70458858 5.84968543,0.875965304 6.01030282,0.968697803 C6.17092021,1.0614303 6.368809,1.0614303 6.5294264,0.968697803 C6.69004379,0.875965304 6.78898817,0.70458858 6.78898817,0.519123589 C6.78898817,0.333658597 6.69004379,0.162281873 6.5294264,0.0695493742 C6.368809,-0.0231831247 6.17092021,-0.0231831247 6.01030282,0.0695493742 C5.84968543,0.162281873 5.75074105,0.333658597 5.75074105,0.519123589 Z" id="路径" fill="#030304"></path>
                    <path d="M1.10144765,0.519123589 C1.10144765,0.805827613 1.33386718,1.03824715 1.62057121,1.03824715 C1.90727523,1.03824715 2.13969477,0.805827613 2.13969477,0.519123589 C2.13969477,0.232419564 1.90727523,3.0942175e-08 1.62057121,3.0942175e-08 C1.33386718,3.0942175e-08 1.10144765,0.232419564 1.10144765,0.519123589 Z" id="路径" fill="#030304"></path>
                    <path d="M6.71482766,2.64695971 C6.65207646,2.62984575 6.54368802,2.61273178 6.43529959,2.60702713 C6.26986461,2.58991316 6.13865756,2.47011542 6.11013428,2.3103851 C5.92758534,1.2949566 5.0433639,0.519123589 3.97659351,0.519123589 C2.90411847,0.519123589 2.01989702,1.2949566 1.84305273,2.31608975 C1.81452946,2.47582008 1.68332241,2.59561782 1.52359208,2.61273178 C1.37527107,2.62984575 1.20983609,2.65266436 1.12426627,2.68689229 C0.456821694,2.92648778 -0.0166646278,3.57681839 0.00044933565,4.32983278 C0.0232679536,5.26539612 0.816214926,5.99559189 1.75177826,5.99559189 L6.20711341,5.99559189 C7.13697209,5.99559189 7.92991906,5.27110077 7.95273768,4.34124209 C7.9755563,3.53688581 7.44502343,2.85803193 6.71482766,2.64695971 Z M5.45409902,3.11474138 L4.56987757,3.81070922 C4.17055176,4.12446522 3.61149562,4.12446522 3.21787446,3.81070922 L2.33365302,3.11474138 C2.11117149,2.93789709 2.23667389,2.58420851 2.51620196,2.58420851 L5.26584542,2.58420851 C5.55107814,2.58420851 5.67658054,2.94360174 5.45409902,3.11474138 L5.45409902,3.11474138 Z" id="形状" fill="#FFA602"></path>
                    <path d="M2.33365302,3.11474138 L3.21787446,3.81070922 C3.61720028,4.12446522 4.17625641,4.12446522 4.56987757,3.81070922 L5.45409902,3.11474138 C5.67658054,2.93789709 5.55107814,2.58420851 5.27155007,2.58420851 L2.52190662,2.58420851 C2.23667389,2.58420851 2.11117149,2.94360174 2.33365302,3.11474138 L2.33365302,3.11474138 Z" id="路径" fill="#030304"></path>
                </g>
            </g>
        </g>
    </g>
</svg>