<?xml version="1.0" encoding="UTF-8"?>
<svg width="22px" height="22px" viewBox="0 0 22 22" version="1.1" xmlns="http://www.w3.org/2000/svg" xmlns:xlink="http://www.w3.org/1999/xlink">
    <title>icon/logo/taobao1</title>
    <g id="icon/logo/taobao1" stroke="none" stroke-width="1" fill="none" fill-rule="evenodd">
        <path d="M11,0 C4.92486775,0 0,4.92486775 0,11 C0,17.0751322 4.92486775,22 11,22 C17.0751322,22 22,17.0751322 22,11 C22,8.08261861 20.8410748,5.28472557 18.7781746,3.22182541 C16.7152744,1.15892524 13.9173814,0 11,0 Z" id="路径" fill="#FC8848" fill-rule="nonzero"></path>
        <path d="M8.83885153,6.08568898 L10.2007243,6.64095355 L9.80393171,7.42243703 C9.80393171,7.42243703 9.90481117,7.5252638 10.251164,7.47385042 C10.5975168,7.42243703 12.8773927,6.26392205 14.434299,6.54155434 C15.9912054,6.81918663 16.9865494,8.08052838 16.9865494,9.06423784 L17,13.7942694 C17,13.7942694 16.8251423,15.2338442 15.6145887,15.7376954 C14.4040352,16.2415466 12.5411278,15.8645151 12.5411278,15.8645151 L12.6420072,15.0796041 C12.6420072,15.0796041 13.755044,15.3332434 14.4477496,15.1070245 C14.8440085,14.9910052 15.1707473,14.7042852 15.3422142,14.3221135 L15.3422142,8.6906339 C15.2337366,8.27452043 14.96603,7.92015439 14.5990688,7.70692443 C13.9534402,7.30590002 13.630626,7.36416852 12.9379203,7.45671262 C12.3313502,7.58990063 11.7414148,7.79225792 11.179255,8.05996302 L10.5874289,9.24589847 L14.5990688,9.24589847 L14.5990688,10.0548024 L12.1409726,10.0548024 L12.1409726,11.0659324 L14.6965856,11.0659324 L14.6965856,11.7720095 L12.194775,11.8714087 L12.194775,13.7908418 L13.3851526,13.2595702 L13.2876358,12.4266733 L14.252716,12.2244473 L14.9689602,14.1438804 L13.7819452,14.6888623 L13.630626,14.0033505 C13.630626,14.0033505 11.3843766,14.9699222 10.4831868,15.0316182 C9.5819969,15.0933143 8.69762028,14.8876608 8.26720124,14.2672726 C7.8367822,13.6468844 7.93093637,12.3992529 7.93093637,12.3992529 L9.53155717,12.4403836 C9.46324252,12.8375333 9.5309124,13.2465497 9.72322814,13.5988985 C9.99717193,13.9880407 10.569151,13.9601176 10.7168086,13.9457533 L10.7521987,13.9416544 L10.7521987,13.9416544 L10.7521987,11.8199954 L8.27728919,11.7445891 L8.27728919,11.0590772 L10.7959131,11.0590772 L10.7690119,10.0479473 L9.99224004,9.89027959 C9.99224004,9.89027959 9.34997413,10.9185473 8.92628039,10.8876993 C8.50258665,10.8568513 8.44205898,10.2810213 8.44205898,10.2810213 L9.80393171,8.56724177 L9.06414899,8.48840791 L7.94774961,9.82858352 L7.10708743,9.07109296 C7.53145226,8.66834775 7.89820251,8.20682954 8.19658562,7.70006932 C8.48626245,7.19649489 8.70261156,6.65268624 8.83885153,6.08568898 Z M5.36187274,8.79003311 C5.36187274,8.79003311 7.51733057,10.2261804 7.66528712,11.36413 C7.81324366,12.5020796 5.87299534,15.9364938 5.87299534,15.9364938 L5.87299534,15.9399214 L4,14.5688978 C4,14.5688978 6.62622866,12.3718324 6.47827212,11.6417623 C6.33031557,10.9116922 4.52121055,9.99996148 4.52121055,9.99996148 L5.36187274,8.79003311 Z M6.37066736,6 C6.98166629,6 7.47697879,6.50487369 7.47697879,7.12766695 C7.47697879,7.7504602 6.98166629,8.25533389 6.37066736,8.25533389 C5.75966842,8.25533389 5.26435592,7.7504602 5.26435592,7.12766695 C5.26435592,6.50487369 5.75966842,6 6.37066736,6 Z" id="形状结合" fill="#FFFFFF" fill-rule="nonzero"></path>
    </g>
</svg>