<?xml version="1.0" encoding="UTF-8"?>
<svg width="22px" height="22px" viewBox="0 0 22 22" version="1.1" xmlns="http://www.w3.org/2000/svg" xmlns:xlink="http://www.w3.org/1999/xlink">
    <title>icon/logo/weipinhui1</title>
    <g id="icon/logo/weipinhui1" stroke="none" stroke-width="1" fill="none" fill-rule="evenodd">
        <circle id="椭圆形" fill="#DF027C" cx="11" cy="11" r="11"></circle>
        <g id="唯品会" transform="translate(5.500000, 5.000000)" fill="#FFFFFF" fill-rule="nonzero">
            <path d="M0.928132133,4.62691227 C0.928132133,5.00156104 1.03551932,5.1027162 1.41520974,5.09896972 L8.31867189,5.09896972 C8.64455411,5.09649611 8.96898437,5.05625216 9.28515659,4.97908211 C9.99213826,4.86285445 10.4913523,4.23865035 10.4357336,3.54043085 L10.4357336,0.464564471 C10.4357336,0.123634093 10.3475227,0.00374648767 9.97933806,0.00749297534 C8.57179883,0.0187324383 7.10673075,0 5.66467422,0 L1.37302192,0 C1.02784881,0 0.924296876,0.108648142 0.928132133,0.434592569 C0.94347316,1.83203247 0.947308417,3.22947237 0.928132133,4.62691227 Z M2.37018867,1.34124259 C2.37018867,1.0340306 2.45839958,0.921635966 2.78823166,0.929128942 L8.58713986,0.929128942 C8.87094886,0.929128942 8.97066553,1.01529816 8.97066553,1.30377771 L8.97066553,3.29690915 C8.97066553,3.96003746 8.74438538,4.15485482 8.08472122,4.16609429 L2.76138486,4.16609429 C2.45456432,4.16609429 2.37785918,4.06119263 2.37785918,3.77271308 C2.3855297,2.96347175 2.38936495,2.15423041 2.37018867,1.34124259 L2.37018867,1.34124259 Z M10.6236612,6.06556353 L6.16709285,6.06556353 C5.85643705,6.06556353 5.73754409,6.14798626 5.74521461,6.47767718 C5.76822615,7.32812988 5.74521461,8.17858258 5.74521461,9.02903528 L5.74521461,11.6253512 C5.74521461,11.8763659 5.81041397,12 6.08655246,12 C7.14891858,12 8.2112847,12 9.27365082,11.9775211 C9.7467636,11.9936001 10.2045935,11.81258 10.5330612,11.4795663 C10.8615289,11.1465526 11.0297038,10.6929039 10.9956811,10.2316578 L10.9956811,6.48517015 C11.0148574,6.18545114 10.9381522,6.06556353 10.6236612,6.06556353 Z M9.58047136,10.2204184 C9.59427626,10.4274398 9.51959858,10.630787 9.37422521,10.7820261 C9.22885183,10.9332653 9.02579531,11.018859 8.81342001,11.0184202 C8.26114303,11.0558851 7.70503081,11.0184202 7.08755447,11.0184202 L7.08755447,8.26100531 C7.08755447,7.93131439 7.06070767,7.5941305 7.08755447,7.26818608 C7.12533969,7.13670551 7.22963105,7.03341306 7.36369296,6.99469248 C8.00034558,6.97221355 8.64083345,6.99469248 9.28132133,6.99469248 C9.48075468,6.99469248 9.56896559,7.07336872 9.56896559,7.28317203 C9.58047136,8.24227287 9.59581238,9.23883859 9.58047136,10.2204184 Z M4.87844658,6.06556353 L0.383525675,6.06556353 C0.0651993647,6.06556353 0,6.18919763 0,6.4701842 L0,11.6178583 C0,11.8576335 0.0575288512,11.992507 0.341337851,11.992507 L3.44789582,11.992507 C4.59847284,11.9550421 5.25430174,11.2881673 5.26197226,10.1604746 L5.26197226,6.48891664 C5.26580751,6.18545114 5.19293764,6.06556353 4.87844658,6.06556353 Z M3.83525675,10.0855448 C3.87084071,10.3359841 3.78840915,10.5886928 3.61106207,10.7728537 C3.43371498,10.9570147 3.18053291,11.0528142 2.92246564,11.0334062 L1.61847835,11.0334062 C1.52259693,11.0334062 1.35768089,10.9022791 1.35768089,10.8273494 L1.35768089,7.0171714 L3.84676252,7.0171714 L3.84676252,8.45207618 C3.83525675,8.9915704 3.84292726,9.54230409 3.83525675,10.0855448 Z" id="形状"></path>
        </g>
    </g>
</svg>