<?xml version="1.0" encoding="UTF-8"?>
<svg width="22px" height="22px" viewBox="0 0 22 22" version="1.1" xmlns="http://www.w3.org/2000/svg" xmlns:xlink="http://www.w3.org/1999/xlink">
    <title>icon/logo/xiyu1</title>
    <defs>
        <circle id="path-1" cx="11" cy="11" r="11"></circle>
    </defs>
    <g id="icon/logo/xiyu1" stroke="none" stroke-width="1" fill="none" fill-rule="evenodd">
        <g id="icon/logo/tianmao1">
            <mask id="mask-2" fill="white">
                <use xlink:href="#path-1"></use>
            </mask>
            <use id="蒙版" fill="#007956" xlink:href="#path-1"></use>
            <g id="编组" mask="url(#mask-2)">
                <g transform="translate(4.000000, 4.000000)" id="形状结合">
                    <path d="M6.84160009,0 C7.19207113,0 7.53612544,0.0274732953 7.87172689,0.0803837477 L8.16886592,1.22347511 C8.40823684,1.27448214 8.64224005,1.33999108 8.86991202,1.41903842 L9.73460718,0.538997899 C9.94719819,0.633265161 10.1568926,0.739729011 10.3628217,0.858622216 C10.6663385,1.03385774 10.9505616,1.22967747 11.2147458,1.44329998 L10.8910359,2.6170733 C11.0621937,2.77177614 11.2242469,2.93636368 11.3762953,3.10993569 L12.5987403,2.77191164 C12.7357159,2.95984498 12.8640847,3.15689258 12.9829779,3.36282165 C13.1582134,3.66633848 13.306448,3.9780349 13.4284269,4.2951295 L12.5472257,5.16385715 C12.6166361,5.37626277 12.6743303,5.59396766 12.719545,5.81620825 L13.9626955,6.13773824 C13.9873532,6.36898108 14,6.60381367 14,6.84160009 C14,7.19207113 13.9725267,7.53612544 13.9196163,7.87172689 L12.719545,8.18379175 C12.6743303,8.40603234 12.6166361,8.62373723 12.5472257,8.83614285 L13.4610021,9.73460718 C13.3667348,9.94719819 13.260271,10.1568926 13.1413778,10.3628217 C12.9661423,10.6663385 12.7703225,10.9505616 12.5567,11.2147458 L11.3771774,10.889057 C11.2248738,11.0629996 11.0625248,11.2279246 10.8910359,11.3829267 L11.2280884,12.5987403 C11.040155,12.7357159 10.8431074,12.8640847 10.6371783,12.9829779 C10.3336615,13.1582134 10.0219651,13.306448 9.7048705,13.4284269 L8.86991202,12.5809616 C8.64255726,12.6598988 8.4088889,12.7253353 8.16986643,12.7763116 L7.86226176,13.9626955 C7.63101892,13.9873532 7.39618633,14 7.15839991,14 C6.80792887,14 6.46387456,13.9725267 6.12827311,13.9196163 L5.83976868,12.8054672 C5.58603137,12.7580276 5.3380068,12.6943638 5.0968127,12.6155937 L4.26539282,13.4610021 C4.05280181,13.3667348 3.84310742,13.260271 3.63717835,13.1413778 C3.33366152,12.9661423 3.04943839,12.7703225 2.78525425,12.5567 L3.0828529,11.4798883 C2.8809715,11.3062734 2.69095639,11.119246 2.51419021,10.920189 L1.40125966,11.2280884 C1.26428408,11.040155 1.13591534,10.8431074 1.01702213,10.6371783 C0.841786608,10.3336615 0.693552024,10.0219651 0.571573098,9.7048705 L1.35064765,8.93694956 C1.26184905,8.68104219 1.19015407,8.41713892 1.13693067,8.14660773 L0.037304456,7.86226176 C0.0126467966,7.63101892 3.59109578e-13,7.39618633 3.59065897e-13,7.15839991 C3.59001517e-13,6.80792887 0.0274732953,6.46387456 0.0803837477,6.12827311 L1.13693067,5.85339227 C1.19015407,5.58286108 1.26184905,5.31895781 1.35064765,5.06305044 L0.538997899,4.26539282 C0.633265161,4.05280181 0.739729011,3.84310742 0.858622216,3.63717835 C1.03385774,3.33366152 1.22967747,3.04943839 1.44329998,2.78525425 L2.51330131,3.08081221 C2.69002873,2.88170847 2.88000824,2.6946329 3.08185707,2.52096825 L2.77191164,1.40125966 C2.95984498,1.26428408 3.15689258,1.13591534 3.36282165,1.01702213 C3.66633848,0.841786608 3.9780349,0.693552024 4.2951295,0.571573098 L5.09581506,1.3847322 C5.33700305,1.30591627 5.58502378,1.24220678 5.83875933,1.19472164 L6.13773824,0.037304456 C6.36898108,0.0126467966 6.60381367,0 6.84160009,0 Z" fill="#FFFFFF"></path>
                    <path d="M8.68597606,10.1969698 C8.74639915,11.2739899 8.4448667,11.8125 7.78137872,11.8125 L6.20365204,11.8125 L6.20365204,11.8125 C5.65718576,11.8125 5.38395262,11.2739899 5.38395262,10.1969698 L8.68597606,10.1969698 Z M4.67646788,3.23145588 C4.79518832,3.05491806 5.01043495,3.01672524 5.32220778,3.11687742 C6.37078167,3.28588816 6.98017896,3.37039352 7.15039967,3.37039352 C7.40573073,3.37039352 8.07733684,3.23145588 8.68597606,3.11687742 C9.09173553,3.04049178 9.34409602,3.0786846 9.44305752,3.23145588 C10.3413617,4.49608429 10.8195623,5.18233237 10.8776595,5.29020014 C10.9648054,5.45200179 10.9732831,6.1108586 10.7905137,6.43700263 C10.6077444,6.76314667 9.97391139,8.53557756 9.97391139,8.93341348 C9.97391139,9.3312494 9.43819531,9.78414643 8.68597606,9.78414643 C8.18449655,9.78414643 7.72745193,9.63822955 7.31484219,9.34639581 L7.31484219,9.34639581 L7.31484219,8.93341348 L8.28578511,8.16873265 L8.28578511,5.77051256 L10.475405,5.29020014 L9.65057426,4.59614481 L7.87630306,5.29020014 L7.87630306,7.34671087 L7.31484219,7.63327219 L6.7376103,7.63327219 L6.13051944,7.34671087 L6.13051944,5.29020014 L4.40343663,4.59614481 L3.70664419,5.37267664 L5.85486939,5.77051256 L5.85486939,8.16873265 C6.49824931,8.62309101 6.81993927,8.87798462 6.81993927,8.93341348 C6.81993927,9.01655677 6.89506861,9.11184229 6.81993927,9.34639581 C6.74480993,9.58094933 5.58863209,9.78414643 5.10416116,9.78414643 C4.61969023,9.78414643 4.144929,9.31305637 4.144929,8.93341348 C4.144929,8.55377059 3.56645039,6.89043146 3.25414675,6.43700263 C3.04594431,6.13471675 3.00738311,5.77994142 3.13846314,5.37267664 C3.71705377,4.60950921 4.22972202,3.89576896 4.67646788,3.23145588 Z" fill="#007957"></path>
                </g>
            </g>
        </g>
    </g>
</svg>