<?xml version="1.0" encoding="UTF-8"?>
<svg width="22px" height="22px" viewBox="0 0 22 22" version="1.1" xmlns="http://www.w3.org/2000/svg" xmlns:xlink="http://www.w3.org/1999/xlink">
    <title>btn/wode/youhuiquan</title>
    <g id="btn/wode/youhuiquan" stroke="none" stroke-width="1" fill="none" fill-rule="evenodd">
        <rect id="矩形" x="0" y="0" width="22" height="22"></rect>
        <g id="轮廓" fill="currentColor">
            <path d="M19,3.23846154 C20.5251556,3.23846154 21.7615385,4.47484442 21.7615385,6 L21.7615385,6 L21.7615385,9.26153846 L21,9.26153846 C20.0398742,9.26153846 19.2615385,10.0398742 19.2615385,11 C19.2615385,11.9219725 19.9816564,12.6824474 20.8750984,12.7345353 L20.8750984,12.7345353 L21.7615385,12.7601454 L21.7615385,16 C21.7615385,17.5251556 20.5251556,18.7615385 19,18.7615385 L19,18.7615385 L3,18.7615385 C1.47484442,18.7615385 0.238461538,17.5251556 0.238461538,16 L0.238461538,16 L0.238461538,12.7384615 L1,12.7384615 C1.9601258,12.7384615 2.73846154,11.9601258 2.73846154,11 C2.73846154,10.0780275 2.01834364,9.31755257 1.12490157,9.26546475 L1.12490157,9.26546475 L0.238461538,9.23985463 L0.238461538,6 C0.238461538,4.47484442 1.47484442,3.23846154 3,3.23846154 L3,3.23846154 Z M19,4.76153846 L3,4.76153846 C2.31601658,4.76153846 1.76153846,5.31601658 1.76153846,6 L1.76153846,6 L1.76069231,7.82884615 L1.83618502,7.84662378 C3.18509884,8.20306594 4.18512915,9.39987504 4.25735511,10.8335581 L4.25735511,10.8335581 L4.26153846,11 C4.26153846,12.5198451 3.22197271,13.7968867 1.81510928,14.1588566 L1.81510928,14.1588566 L1.76069231,14.1707692 L1.76153846,16 C1.76153846,16.6437491 2.25270247,17.1727807 2.88072789,17.2327922 L2.88072789,17.2327922 L3,17.2384615 L19,17.2384615 C19.6839834,17.2384615 20.2384615,16.6839834 20.2384615,16 L20.2384615,16 L20.2381538,14.1707692 L20.163815,14.1533762 C18.8149012,13.7969341 17.8148708,12.600125 17.7426449,11.1664419 L17.7426449,11.1664419 L17.7384615,11 C17.7384615,9.48015485 18.7780273,8.2031133 20.1848907,7.8411434 L20.1848907,7.8411434 L20.2381538,7.828 L20.2384615,6 C20.2384615,5.3562509 19.7472975,4.8272193 19.1192721,4.76720779 L19.1192721,4.76720779 L19,4.76153846 Z M12.7043262,7.34362714 C13.0017255,7.04622787 13.483905,7.04622787 13.7813042,7.34362714 C14.0787035,7.6410264 14.0787035,8.12320589 13.7813042,8.42060516 L13.7813042,8.42060516 L12.7944615,9.40646154 L13.7428152,9.40673205 C14.1634013,9.40673205 14.5043537,9.74768443 14.5043537,10.1682705 C14.5043537,10.5565038 14.213838,10.8768836 13.838341,10.9238755 L13.7428152,10.929809 L12.0034615,10.9294615 L12.0034615,11.5344615 L13.7428152,11.5347912 C14.1634013,11.5347912 14.5043537,11.8757436 14.5043537,12.2963297 C14.5043537,12.684563 14.213838,13.0049428 13.838341,13.0519347 L13.7428152,13.0578682 L12.0034615,13.0574615 L12.0043537,14.2963297 C12.0043537,14.7169158 11.6634013,15.0578682 11.2428152,15.0578682 C10.8545819,15.0578682 10.5342022,14.7673525 10.4872102,14.3918555 L10.4812768,14.2963297 L10.4804615,13.0574615 L8.74281522,13.0578682 C8.32222914,13.0578682 7.98127676,12.7169158 7.98127676,12.2963297 C7.98127676,11.9080964 8.2717924,11.5877167 8.64728945,11.5407247 L8.74281522,11.5347912 L10.4804615,11.5344615 L10.4804615,10.9294615 L8.74281522,10.929809 C8.32222914,10.929809 7.98127676,10.5888566 7.98127676,10.1682705 C7.98127676,9.7800372 8.2717924,9.45965746 8.64728945,9.41266551 L8.74281522,9.40673205 L9.77546154,9.40646154 L8.79011265,8.42060516 C8.49271338,8.12320589 8.49271338,7.6410264 8.79011265,7.34362714 C9.06272864,7.07101114 9.49061135,7.04829314 9.78910513,7.27547314 L9.86709067,7.34362714 L11.2854615,8.76246154 L11.2901126,8.7578407 Z" id="形状结合"></path>
        </g>
    </g>
</svg>