<?xml version="1.0" encoding="UTF-8"?>
<svg width="36px" height="36px" viewBox="0 0 36 36" version="1.1" xmlns="http://www.w3.org/2000/svg" xmlns:xlink="http://www.w3.org/1999/xlink">
    <!-- Generator: Sketch 59 (86127) - https://sketch.com -->
    <title>icon_my_shanglv_plane ticket</title>
    <desc>Created with Sketch.</desc>
    <g id="06我" stroke="none" stroke-width="1" fill="none" fill-rule="evenodd">
        <g id="01我的商旅-缺省" transform="translate(-104.000000, -335.000000)">
            <g id="我的行程" transform="translate(15.000000, 236.000000)">
                <g id="编组-14" transform="translate(89.000000, 99.000000)">
                    <g id="icon_my_shanglv_plane-ticket">
                        <circle id="椭圆形" fill="#262DD9" opacity="0.100000001" cx="18" cy="18" r="18"></circle>
                        <g id="差标/飞机" transform="translate(8.000000, 8.000000)">
                            <g>
                                <rect id="矩形" x="0" y="0" width="20" height="20"></rect>
                                <path d="M10.0000144,0.69186891 C11.5497255,0.69186891 13.0150158,3.67470931 13.0150158,4.78950395 L13.0150158,4.78950395 L12.942656,6.2296983 L17.3143669,7.32048176 C18.6464805,7.34210288 19.7088218,8.43880584 19.687175,9.77001506 C19.6655392,11.101228 18.5680943,12.1628511 17.2359845,12.1412189 L17.2359845,12.1412189 L16.0299859,12.1412189 L16.0299859,12.7438115 C16.0298672,13.0765319 15.7599292,13.3461912 15.4269856,13.3461913 C15.0939572,13.3461913 14.8239853,13.0764019 14.8239853,12.7435987 L14.8239853,12.7435987 L14.8239853,12.1411125 L12.6531925,12.1411125 L12.4119936,15.9976947 L14.3838053,16.9618421 C15.0498602,17.00677 15.5533591,17.5827712 15.5084005,18.2483759 C15.4634422,18.9139805 14.8870512,19.4171389 14.2209963,19.3722107 L14.2209963,19.3722107 L5.7790035,19.3722107 C5.11294857,19.4171385 4.53655799,18.9139805 4.49159936,18.2483759 C4.44664111,17.5827712 4.95013959,17.0067703 5.61619451,16.9618421 L5.61619451,16.9618421 L7.58800626,15.997802 L7.34680727,12.1412199 L5.1760145,12.1412199 L5.1760145,12.7438125 C5.17589577,13.0765329 4.90595781,13.3461922 4.57301421,13.3461923 C4.23998581,13.3461923 3.97001397,13.0764029 3.97001392,12.7435997 L3.97001392,12.7435997 L3.97001393,12.1411135 L2.76401522,12.1411135 C1.43190914,12.1627346 0.334471562,11.1011189 0.312824697,9.76990965 C0.291188951,8.4387042 1.35352291,7.34200858 2.68563276,7.32037635 L2.68563276,7.32037635 L7.05737277,6.22968511 L6.98501289,4.81961908 C6.98501289,3.67469801 8.45030508,0.69186891 10.0000144,0.69186891 Z M14.2210063,18.1670419 L14.1145,18.1668689 L14.1289731,18.1688847 C14.1595642,18.1706098 14.1903305,18.1700074 14.2210063,18.1670419 Z M10.0000066,1.89706078 C9.51157779,1.89706078 8.19100764,3.8494628 8.19100764,4.78950682 L8.19100764,4.78950682 L8.28748761,6.68766395 C8.29575744,6.97130364 8.10488795,7.22227472 7.82920746,7.29025656 L7.82920746,7.29025656 L2.90873377,8.49543991 C2.86066868,8.50124577 2.81207891,8.50124577 2.76401382,8.4954399 L2.76401382,8.4954399 L2.64070747,8.50166213 C2.03257513,8.56337953 1.55801516,9.07661892 1.55801516,9.70062325 C1.55801516,10.3662279 2.09795894,10.9058066 2.76401387,10.9058066 L2.76401387,10.9058066 L7.91965381,10.9058066 C8.23905056,10.9052322 8.50349102,11.1536396 8.5226541,11.4722441 L8.5226541,11.4722441 L8.79400365,16.2929809 C8.82026432,16.5433564 8.68800734,16.7836593 8.46235292,16.8955735 L8.46235292,16.8955735 L6.05036304,18.1007568 C5.96635208,18.1437721 5.87340846,18.1664764 5.77901347,18.1670419 L5.77901347,18.1670419 L14.1145,18.1668689 L14.0379916,18.1567621 L14.0379916,18.1567621 L13.9496567,18.1308865 L11.5376668,16.9257031 C11.3120111,16.8137894 11.1797547,16.5734842 11.2060161,16.3231105 L11.2060161,16.3231105 L11.4773657,11.5023733 C11.4965288,11.1837688 11.7609711,10.9353627 12.080366,10.9359377 L12.080366,10.9359377 L17.2359994,10.9359326 C17.9020543,10.9359326 18.4419981,10.3963539 18.4419981,9.73074925 C18.4419981,9.06514464 17.9020543,8.52556588 17.2359994,8.52556591 L17.2359994,8.52556591 L17.1618935,8.50310224 L17.1618935,8.50310224 L17.0912795,8.47133269 L12.1708058,7.26614934 C11.895124,7.19816712 11.7042563,6.94719453 11.7125257,6.66355673 L11.7125257,6.66355673 L11.8090056,4.75937286 C11.8090056,3.84945903 10.4884374,1.89706078 10.0000066,1.89706078 Z" id="Shape" fill="#262DD9" fill-rule="nonzero"></path>
                            </g>
                        </g>
                    </g>
                </g>
            </g>
        </g>
    </g>
</svg>