<?xml version="1.0" encoding="UTF-8"?>
<svg width="36px" height="36px" viewBox="0 0 36 36" version="1.1" xmlns="http://www.w3.org/2000/svg" xmlns:xlink="http://www.w3.org/1999/xlink">
    <!-- Generator: Sketch 59 (86127) - https://sketch.com -->
    <title>icon_my_shanglv_hotel</title>
    <desc>Created with Sketch.</desc>
    <g id="06我" stroke="none" stroke-width="1" fill="none" fill-rule="evenodd">
        <g id="01我的商旅-缺省" transform="translate(-236.000000, -335.000000)">
            <g id="我的行程" transform="translate(15.000000, 236.000000)">
                <g id="编组-15" transform="translate(221.000000, 99.000000)">
                    <g id="icon_my_shanglv_hotel">
                        <circle id="椭圆形备份-2" fill="#FFA501" opacity="0.100000001" cx="18" cy="18" r="18"></circle>
                        <g id="差标/酒店" transform="translate(8.000000, 8.000000)">
                            <g>
                                <rect id="矩形-copy-12" x="0" y="0" width="20" height="20"></rect>
                                <path d="M6.43172813,10.6125434 C6.78975161,10.6125434 7.07998743,10.9107099 7.07998743,11.2785164 C7.07998743,11.6463228 6.78975161,11.9444893 6.43172813,11.9444893 L3.62259774,11.9444893 C3.41043507,11.9444893 3.23398109,12.1015481 3.19738838,12.3086645 L3.19042554,12.3884706 L3.19042554,12.3884706 L3.19042554,19.270198 C3.19042554,19.6045675 2.95056123,19.8813833 2.63796119,19.9289501 L2.54216616,19.9361709 C2.21669027,19.9361709 1.94723724,19.6897521 1.90093566,19.3686103 L1.89390686,19.2701977 L1.89390686,19.2701977 L1.89390686,12.3884706 C1.89390686,11.4566936 2.59240651,10.6925186 3.48081808,10.6184306 L3.6225977,10.6125434 L3.6225977,10.6125434 L6.43172813,10.6125434 Z M7.07997524,18.6042248 L7.07997524,19.9361707 L3.83867872,19.9361707 L3.83867872,18.6042248 L7.07997524,18.6042248 Z M17.0199518,5.30696541 C17.9746818,5.30696541 18.7486426,6.10207467 18.7486426,7.08289257 L18.7486426,19.2701975 C18.7486426,19.604567 18.5087783,19.881383 18.1961783,19.9289498 L18.1003834,19.9361707 C17.7749075,19.9361707 17.5054544,19.6897521 17.4591529,19.3686103 L17.4521241,19.2701977 L17.4521241,19.2701977 L17.4521241,7.08289282 C17.4521241,6.86493282 17.2992428,6.68365725 17.0976353,6.64606465 L17.0199519,6.63891155 L17.0199519,6.63891155 L10.1051927,6.63891155 C9.89303007,6.63891153 9.71657609,6.79597033 9.67998339,7.00308671 L9.67302054,7.08289284 L9.67302054,7.08289284 L9.67302054,19.2701977 C9.67302054,19.6380042 9.38278472,19.9361707 9.02476124,19.9361707 C8.66673775,19.9361707 8.37650193,19.6380042 8.37650193,19.2701977 L8.37650193,7.08289257 C8.37650193,6.15111557 9.07500159,5.38694061 9.96341316,5.31285256 L10.1051928,5.30696541 L10.1051928,5.30696541 L17.0199518,5.30696541 Z M16.1556055,18.6042248 L16.1556055,19.9361707 L10.9695311,19.9361707 L10.9695311,18.6042248 L16.1556055,18.6042248 Z M7.07997524,15.940333 L7.07997524,17.2722789 L3.83867872,17.2722789 L3.83867872,15.940333 L7.07997524,15.940333 Z M16.1556055,15.940333 L16.1556055,17.2722789 L10.9695311,17.2722789 L10.9695311,15.940333 L16.1556055,15.940333 Z M7.07997524,13.2764412 L7.07997524,14.6083871 L3.83867872,14.6083871 L3.83867872,13.2764412 L7.07997524,13.2764412 Z M16.1556055,13.2764412 L16.1556055,14.6083871 L10.9695311,14.6083871 L10.9695311,13.2764412 L16.1556055,13.2764412 Z M16.1556055,10.6125494 L16.1556055,11.9444953 L10.9695311,11.9444953 L10.9695311,10.6125494 L16.1556055,10.6125494 Z M16.1556055,7.94865765 L16.1556055,9.28060354 L10.9695311,9.28060354 L10.9695311,7.94865765 L16.1556055,7.94865765 Z M15.550577,3.99722518 L14.2540584,3.99722518 L14.2539069,2.66438751 L12.9569069,2.66438751 L12.9575398,3.99722518 L11.6610212,3.99722518 L11.6610212,0.00138751301 L12.9575398,0.00138751301 L12.9569069,1.33238751 L14.2539069,1.33238751 L14.2540584,0.00138751301 L15.550577,0.00138751301 L15.550577,3.99722518 Z" id="Combined-Shape" fill="#FFA501"></path>
                            </g>
                        </g>
                    </g>
                </g>
            </g>
        </g>
    </g>
</svg>