<?xml version="1.0" encoding="UTF-8"?>
<svg width="36px" height="36px" viewBox="0 0 36 36" version="1.1" xmlns="http://www.w3.org/2000/svg" xmlns:xlink="http://www.w3.org/1999/xlink">
    <!-- Generator: Sketch 59 (86127) - https://sketch.com -->
    <title>icon_my_shanglv_train tickets</title>
    <desc>Created with Sketch.</desc>
    <g id="06我" stroke="none" stroke-width="1" fill="none" fill-rule="evenodd">
        <g id="01我的商旅-缺省" transform="translate(-170.000000, -335.000000)">
            <g id="我的行程" transform="translate(15.000000, 236.000000)">
                <g id="编组-13" transform="translate(155.000000, 99.000000)">
                    <g id="icon_my_shanglv_train-tickets">
                        <circle id="椭圆形备份" fill="#23CDA7" opacity="0.100000001" cx="18" cy="18" r="18"></circle>
                        <g id="差标/火车" transform="translate(8.000000, 8.000000)">
                            <g>
                                <rect id="矩形-copy-11" x="0" y="0" width="20" height="20"></rect>
                                <path d="M17.5,15.3829772 L17.5,7.25364759 C17.5,5.50705872 16.7470856,3.85713676 15.3799457,2.60780823 C14.0092993,1.35526315 12.1792383,0.651537876 10.2268723,0.626221703 L10.2268718,0.626221697 C10.0933139,0.62458648 9.95973941,0.624592792 9.82618129,0.626240631 C7.85997055,0.651727091 6.01687092,1.36050425 4.6364103,2.62201784 C3.25953681,3.88016351 2.50124171,5.54185427 2.50124171,7.30096878 L2.50126186,15.3582286 C2.49892418,15.4388506 2.49682833,15.6264703 2.52439684,15.7014917 C2.69244783,16.8919573 3.78448708,17.8122891 5.10821865,17.9098642 L3.40358627,19.0754299 C3.28013257,19.1598172 3.20143739,19.2824057 3.18203061,19.4206229 C3.16292612,19.5565696 3.20375492,19.691154 3.2970203,19.7996276 C3.40662929,19.9269464 3.57232245,20 3.75159834,20 C3.87805475,20 3.99820345,19.9635394 4.09904614,19.8945349 L5.04610891,19.2469668 C11.1523312,19.2432962 14.4435834,19.2376578 14.8438103,19.2302408 L15.8153785,19.8945349 C15.9162413,19.9635394 16.0363295,20 16.1627053,20 C16.3421223,20 16.5078155,19.9269653 16.6173035,19.7995898 C16.7105689,19.6911162 16.7514179,19.5565129 16.7323335,19.4205851 C16.7129267,19.2823868 16.6342719,19.1598172 16.5108786,19.0754299 L14.8140855,17.9152756 C16.3087499,17.8434329 17.5,16.7350652 17.5,15.3829772 L17.5,15.3829772 Z M5.79324008,18.3072411 L6.36109485,17.9189841 L13.5529882,17.9189841 L14.120722,18.3072411 L5.79324008,18.3072411 Z M16.3520781,15.932516 C16.0938854,16.5052329 15.4500761,16.8891949 14.7459104,16.8891949 L5.25436449,16.8891949 C4.55031969,16.8891949 3.90651047,16.5051951 3.64821696,15.9325349 L3.64821696,7.30085525 C3.64821696,5.81346388 4.28976911,4.40805679 5.45469965,3.34352875 C6.62208878,2.27680589 8.18025341,1.67748618 9.84208206,1.65595419 C9.90302296,1.65525412 9.96440722,1.65480002 10.0261341,1.65480002 C10.088002,1.65480002 10.1493056,1.6552352 10.2100047,1.65593527 C11.8580693,1.67729697 13.4032154,2.27162157 14.5607903,3.32941376 C15.7159268,4.38510573 16.3520781,5.77874401 16.3520781,7.25362867 L16.3520781,15.932516 Z M4.6162987,5.72676828 L4.6162987,8.33164731 C4.6162987,8.61559335 4.87364505,8.84661762 5.18995736,8.84661762 L14.810378,8.84661762 C15.1266903,8.84661762 15.3840568,8.61559335 15.3840568,8.33164731 L15.3840568,5.72676828 C15.3840568,5.44282224 15.1267105,5.21183581 14.810378,5.21183581 L5.18995736,5.21183581 C4.8736249,5.21183581 4.6162987,5.44282224 4.6162987,5.72676828 Z M10.52406,6.24162507 L14.236538,6.24162507 L14.236538,7.81680944 L10.52406,7.81680944 L10.52406,6.24162507 Z M5.76377725,6.24162507 L9.37670232,6.24162507 L9.37670232,7.81680944 L5.76377725,7.81680944 L5.76377725,6.24162507 L5.76377725,6.24162507 Z M10.0000971,10.467969 C8.82710564,10.467969 7.87280815,11.3204126 7.87280815,12.3682146 C7.87280815,13.4159787 8.82710564,14.2684033 10.0000971,14.2684033 C11.1731491,14.2684033 12.1274869,13.4159976 12.1274869,12.3682146 C12.1274869,11.3204315 11.1731491,10.467969 10.0000971,10.467969 L10.0000971,10.467969 Z M10.0000971,13.2385952 C9.45985119,13.2385952 9.02032701,12.8481055 9.02032701,12.368101 C9.02032701,11.8881912 9.45985119,11.4977772 10.0000971,11.4977772 C10.5404237,11.4977772 10.9800285,11.8881912 10.9800285,12.368101 C10.9800285,12.8481055 10.5404237,13.2385952 10.0000971,13.2385952 Z M8.43874844,4.20121344 L11.5616272,4.20121344 C11.8779395,4.20121344 12.135306,3.97018917 12.135306,3.68624313 C12.135306,3.40237277 11.8779597,3.17140527 11.5616272,3.17140527 L8.43874844,3.17140527 C8.12241597,3.17140527 7.86506963,3.40235385 7.86506963,3.68624313 C7.86506963,3.97018917 8.12241597,4.20121344 8.43874844,4.20121344 Z" id="Shape" fill="#23CDA7"></path>
                            </g>
                        </g>
                    </g>
                </g>
            </g>
        </g>
    </g>
</svg>