<?xml version="1.0" encoding="UTF-8"?>
<svg width="22px" height="22px" viewBox="0 0 22 22" version="1.1" xmlns="http://www.w3.org/2000/svg" xmlns:xlink="http://www.w3.org/1999/xlink">
    <!-- Generator: Sketch 60 (88103) - https://sketch.com -->
    <title>icon_my_shanglv_invoice@2x</title>
    <desc>Created with Sketch.</desc>
    <g id="icon_my_shanglv_invoice" stroke="none" stroke-width="1">
        <g id="T盘备份-2" transform="translate(1.100000, 0.550000)" >
            <path d="M17.5308549,0.77 C18.6243787,0.77 19.5108549,1.6564762 19.5108549,2.75 L19.5108549,2.75 L19.5108549,19.25 C19.5108549,19.9375117 18.7577937,20.3594859 18.1714196,20.000546 L18.1714196,20.000546 L15.7883,18.5416 L13.1437563,20.0183519 C12.9061255,20.1510282 12.6230264,20.1651595 12.3763074,20.0623301 L12.3763074,20.0623301 L12.2563585,20.001176 L9.8769,18.5482 L7.41034241,20.0074875 C7.17479548,20.1467651 6.8904281,20.1673336 6.64038668,20.0689702 L6.64038668,20.0689702 L6.51861141,20.0098765 L4.0084,18.5438 L1.54979889,20.0063603 C0.997711264,20.3346806 0.306894063,19.9795434 0.227531788,19.3676372 L0.227531788,19.3676372 L0.22,19.25 L0.22,2.75 C0.22,1.6564762 1.1064762,0.77 2.2,0.77 L2.2,0.77 Z M17.5308549,2.53 L2.2,2.53 C2.07849736,2.53 1.98,2.62849736 1.98,2.75 L1.98,2.75 L1.98,17.7023 L3.55505725,16.7661547 C3.79083665,16.6259394 4.07593252,16.6049194 4.32660763,16.7034242 L4.32660763,16.7034242 L4.44868912,16.7626386 L6.9586,18.2292 L9.43607807,16.7650275 C9.68111463,16.6201388 9.97860451,16.6038862 10.2351912,16.7156194 L10.2351912,16.7156194 L10.3423805,16.7713391 L12.7336,18.2303 L15.3797949,16.7541631 C15.6177492,16.6213063 15.9012707,16.6073278 16.1481928,16.7105809 L16.1481928,16.7105809 L16.2682235,16.7719691 L17.7508549,17.6792 L17.7508549,2.75 C17.7508549,2.6487478 17.6824539,2.56347149 17.5893396,2.53785861 L17.5893396,2.53785861 L17.5308549,2.53 Z M10.1146323,12.0109312 C10.6006429,12.0109312 10.9946323,12.4049206 10.9946323,12.8909312 C10.9946323,13.3395563 10.6589254,13.7097729 10.2250177,13.7640747 L10.1146323,13.7709312 L5.459706,13.7709312 C4.97369542,13.7709312 4.579706,13.3769418 4.579706,12.8909312 C4.579706,12.442306 4.91541296,12.0720895 5.34932067,12.0177876 L5.459706,12.0109312 L10.1146323,12.0109312 Z M14.2608739,8.71093119 C14.7468845,8.71093119 15.1408739,9.10492061 15.1408739,9.59093119 C15.1408739,10.0395563 14.8051669,10.4097729 14.3712592,10.4640747 L14.2608739,10.4709312 L5.1202913,10.4709312 C4.63428072,10.4709312 4.2402913,10.0769418 4.2402913,9.59093119 C4.2402913,9.14230604 4.57599826,8.77208945 5.00990597,8.71778764 L5.1202913,8.71093119 L14.2608739,8.71093119 Z M14.2608739,5.41093119 C14.7468845,5.41093119 15.1408739,5.80492061 15.1408739,6.29093119 C15.1408739,6.73955634 14.8051669,7.10977293 14.3712592,7.16407474 L14.2608739,7.17093119 L5.1202913,7.17093119 C4.63428072,7.17093119 4.2402913,6.77694177 4.2402913,6.29093119 C4.2402913,5.84230604 4.57599826,5.47208945 5.00990597,5.41778764 L5.1202913,5.41093119 L14.2608739,5.41093119 Z" id="形状结合"></path>
        </g>
    </g>
</svg>