<?xml version="1.0" encoding="UTF-8"?>
<svg width="22px" height="22px" viewBox="0 0 22 22" version="1.1" xmlns="http://www.w3.org/2000/svg" xmlns:xlink="http://www.w3.org/1999/xlink">
    <!-- Generator: Sketch 60 (88103) - https://sketch.com -->
    <title>icon_my_shanglv_people@2x</title>
    <desc>Created with Sketch.</desc>
    <g id="icon_my_shanglv_people" stroke="none" stroke-width="1" >
        <path d="M11,1.35868132 C13.8947004,1.35868132 16.2413187,3.70529962 16.2413187,6.6 C16.2413187,8.27074554 15.4595904,9.75890866 14.2419451,10.718678 C17.9722023,12.0491912 20.6413187,15.6128928 20.6413187,19.8 C20.6413187,20.2646475 20.2646475,20.6413187 19.8,20.6413187 C19.3353525,20.6413187 18.9586813,20.2646475 18.9586813,19.8 C18.9586813,17.0772468 17.5914209,14.6738344 15.5060308,13.2388933 C15.4868551,13.3009196 15.4580739,13.3604676 15.4218143,13.4168212 L15.3468154,13.5163943 L8.88317837,20.9039876 C8.57721947,21.2536824 8.04570715,21.2891373 7.69601239,20.9831784 C7.37810806,20.7050339 7.31990609,20.2404817 7.54182268,19.8955855 L7.61682163,19.7960124 L14.0469142,12.445405 C13.1084093,12.0561582 12.0792939,11.8413187 11,11.8413187 C6.60454168,11.8413187 3.04131868,15.4045417 3.04131868,19.8 C3.04131868,20.2646475 2.66464748,20.6413187 2.2,20.6413187 C1.73535252,20.6413187 1.35868132,20.2646475 1.35868132,19.8 C1.35868132,15.6128928 4.02779766,12.0491912 7.75739046,10.7175349 C6.54044644,9.75897872 5.75868132,8.27078487 5.75868132,6.6 C5.75868132,3.70529962 8.10529962,1.35868132 11,1.35868132 Z M11,3.04131868 C9.03459458,3.04131868 7.44131868,4.63459458 7.44131868,6.6 C7.44131868,8.56540542 9.03459458,10.1586813 11,10.1586813 C12.9654054,10.1586813 14.5586813,8.56540542 14.5586813,6.6 C14.5586813,4.63459458 12.9654054,3.04131868 11,3.04131868 Z" id="形状结合"></path>
    </g>
</svg>