<svg xmlns="http://www.w3.org/2000/svg" width="60" height="60" viewBox="0 0 60 60">
  <defs>
    <style>
      .cls-1 {
        fill: #ffb843;
        fill-rule: evenodd;
      }
    </style>
  </defs>
  <path id="icon_待揽件" class="cls-1" d="M10257,631.591v23.88c0,2.659-1.9,5.529-5,5.529h-35.8c-0.1,0-.1-0.008-0.2-0.011v-0.013a59.914,59.914,0,0,1-11.3,2.89c-0.1.013-.2,0.02-0.2,0.02a1.968,1.968,0,0,1-2-1.693,2.017,2.017,0,0,1,1.7-2.231c0.1-.019,13.2-1.953,18.6-7.329,4.3-4.293,2.2-6.823,1.9-7.1a3.3,3.3,0,0,0-5,.026c-4.4,4.394-14.1,4.521-15.2,4.521a1.972,1.972,0,1,1,0-3.943,33.771,33.771,0,0,0,6.5-.745V631.851a5.457,5.457,0,0,1-4-5.366v-8.956a5.542,5.542,0,0,1,5.5-5.529h43a5.542,5.542,0,0,1,5.5,5.529v8.824A5.411,5.411,0,0,1,10257,631.591Zm-40.1,11.183c3.9-3.916,8.5-2.146,10.7,0,1.8,1.846,3.8,6.866-2,12.647a17.642,17.642,0,0,1-1.9,1.579h28.3c0.6,0,1-.986,1-1.523V632h-38v12.066A7.975,7.975,0,0,0,10216.9,642.774Zm40.1-25.23a1.542,1.542,0,0,0-1.5-1.544h-43a1.542,1.542,0,0,0-1.5,1.544v8.941a1.369,1.369,0,0,0,1.2,1.515h42.8c1.2,0,2-.621,2-1.544v-8.912ZM10236,636h12a2.1,2.1,0,0,1,2,1.961,2.173,2.173,0,0,1-2,2.039h-12c-1,0-1.5-1.021-1.5-2.039A1.7,1.7,0,0,1,10236,636Z" transform="translate(-10201.75 -607.938)"/>
</svg>
