<svg id="icon_订单取消" xmlns="http://www.w3.org/2000/svg" width="60" height="60" viewBox="0 0 60 60">
  <defs>
    <style>
      .cls-1 {
        fill: #666;
        fill-rule: evenodd;
      }
    </style>
  </defs>
  <path id="矩形_733_拷贝_2" data-name="矩形 733 拷贝 2" class="cls-1" d="M11084,662a29,29,0,1,1,29-29A29.011,29.011,0,0,1,11084,662Zm0-54a25,25,0,1,0,25,25A25,25,0,0,0,11084,608Zm2.8,25,5.6,5.6a1.938,1.938,0,0,1,0,2.8,1.978,1.978,0,0,1-2.8,0l-5.6-5.6-5.7,5.684a1.99,1.99,0,0,1-2.8-2.828l5.7-5.685-5.6-5.6a1.938,1.938,0,0,1,0-2.8,1.978,1.978,0,0,1,2.8,0l5.6,5.6,5.7-5.653a1.99,1.99,0,0,1,2.8,2.828Z" transform="translate(-11054 -603)"/>
</svg>
