<svg xmlns="http://www.w3.org/2000/svg" width="34" height="34" viewBox="0 0 34 34">
  <defs>
    <style>
      .cls-1 {
        fill: #ffb843;
        fill-rule: evenodd;
      }
    </style>
  </defs>
  <path id="icon_express_verify" class="cls-1" d="M11856,861c-4.9,0-14-7.4-14-14.395V833.25a0.609,0.609,0,0,1,.6-0.591h0l0.8-.014a19.5,19.5,0,0,0,6.3-1.35,28.81,28.81,0,0,0,5.5-2.852l0.4-.336a0.75,0.75,0,0,1,.8,0l0.4,0.339a28.81,28.81,0,0,0,5.5,2.852,19.47,19.47,0,0,0,6.3,1.35l0.8,0.014a0.607,0.607,0,0,1,.6.589v13.357C11870,853.6,11860.9,861,11856,861Zm11-26c-3.9-.3-8.5-1.362-11-3-2.5,1.64-7.1,2.693-11,3v12c0,5.486,7.1,11,11,11,4,0,11-7,11-11V835Zm-11.8,14.75a0.513,0.513,0,0,1-.8.083l-4.9-4.449a1.567,1.567,0,0,1-.2-2.027,1.291,1.291,0,0,1,1.9-.135l2.9,2.454a0.519,0.519,0,0,0,.8-0.083l5.7-6.057a1.3,1.3,0,0,1,1.9-.242,1.444,1.444,0,0,1,.2,2.017Z" transform="translate(-11839 -827.5)"/>
</svg>
