<svg id="icon_物流信息" xmlns="http://www.w3.org/2000/svg" width="60" height="60" viewBox="0 0 60 60">
  <defs>
    <style>
      .cls-1 {
        fill: #478aee;
        fill-rule: evenodd;
      }
    </style>
  </defs>
  <path id="矩形_796_拷贝" data-name="矩形 796 拷贝" class="cls-1" d="M8557,651h-0.15a7.5,7.5,0,0,1-14.7-.012c-0.05,0-.1.012-0.15,0.012h-16.15a7.5,7.5,0,0,1-14.7,0H8508a3.97,3.97,0,0,1-4-3.935v-30.13a3.97,3.97,0,0,1,4-3.935h34a3.97,3.97,0,0,1,4,3.935V622h4.55a3,3,0,0,1,2.24,1.006l7.45,10.381a3,3,0,0,1,.76,1.994V647A4,4,0,0,1,8557,651Zm-38.5,2a3.5,3.5,0,1,0-3.5-3.5A3.5,3.5,0,0,0,8518.5,653Zm23.5-36.065L8508,617v30.065l3.42-.005a7.49,7.49,0,0,1,14.16-.027L8542,647c0.02,0,.02,0,0.02,0ZM8549.5,653a3.5,3.5,0,1,0-3.5-3.5A3.5,3.5,0,0,0,8549.5,653Zm7.5-16h-6a2,2,0,0,1,0-4h4.05l-4.95-7H8546v16.872A7.478,7.478,0,0,1,8556.56,647H8557V637Zm-24-2h-18a2,2,0,0,1,0-4h18A2,2,0,0,1,8533,635Zm-11-7h-7a2,2,0,0,1,0-4h7A2,2,0,0,1,8522,628Zm-16,31h2a2,2,0,0,1,0,4h-2A2,2,0,0,1,8506,659Zm9,0h42a2,2,0,0,1,0,4h-42A2,2,0,0,1,8515,659Z" transform="translate(-8502.5 -608)"/>
</svg>
