<svg xmlns="http://www.w3.org/2000/svg" width="60" height="60" viewBox="0 0 60 60">
  <defs>
    <style>
      .cls-1 {
        fill: #ffb843;
        fill-rule: evenodd;
      }
    </style>
  </defs>
  <path id="矩形_733_拷贝" data-name="矩形 733 拷贝" class="cls-1" d="M9384,604a29,29,0,1,1-29,29A29,29,0,0,1,9384,604Zm0,4a25,25,0,1,1-25,25A25,25,0,0,1,9384,608Zm16.69,36.294a2.011,2.011,0,0,1-2.74.732L9384.05,637c-0.02,0-.03,0-0.05,0a2,2,0,0,1-2-2V620a2,2,0,0,1,4,0v13.5l13.95,8.057A2,2,0,0,1,9400.69,644.294Z" transform="translate(-9354 -603)"/>
</svg>
