<?xml version="1.0" encoding="UTF-8"?>
<svg width="128px" height="26px" viewBox="0 0 128 26" version="1.1" xmlns="http://www.w3.org/2000/svg" xmlns:xlink="http://www.w3.org/1999/xlink">
    <title>btn_tt_zcj3</title>
    <defs>
        <linearGradient x1="-6.29385245%" y1="44.3660464%" x2="93.0798546%" y2="53.4440789%" id="linearGradient-1">
            <stop stop-color="#323232" offset="0%"></stop>
            <stop stop-color="#212322" offset="100%"></stop>
        </linearGradient>
    </defs>
    <g id="天天专场" stroke="none" stroke-width="1" fill="none" fill-rule="evenodd">
        <g id="01.3天天专场" transform="translate(-64.000000, -528.000000)">
            <g id="内容" transform="translate(40.000000, 145.000000)">
                <g id="card1备份-4" transform="translate(14.000000, 160.000000)">
                    <g id="btn_tt_zcj3" transform="translate(10.000000, 223.000000)">
                        <g id="icon_miaosha_jiage备份" fill="url(#linearGradient-1)">
                            <path d="M4,0 L77.455403,0 L77.455403,0 L68.1303393,26 L4,26 C1.790861,26 2.705415e-16,24.209139 0,22 L0,4 C-1.15871992e-15,1.790861 1.790861,4.05812251e-16 4,0 Z" id="矩形"></path>
                        </g>
                        <path d="M68.1303393,26 L77.455403,0 L117.302694,0 C117.482562,8.20120927e-18 117.659268,0.0135415606 117.831847,0.0396608076 C117.871768,0.0138507431 117.919006,7.90429095e-17 117.968448,0 L126.997769,0 C127.550054,1.89694838e-15 127.997769,0.44771525 127.997769,1 C127.997769,1.23993358 127.911502,1.4718692 127.754709,1.6534845 L121.082107,9.38244839 C120.987183,9.49240031 120.999366,9.65848518 121.109318,9.75340932 C121.157085,9.794648 121.218087,9.81733746 121.281193,9.81733746 L125.683044,9.81733746 C126.235329,9.81733746 126.683044,10.2650527 126.683044,10.8173375 C126.683044,11.0585533 126.595854,11.2916399 126.437544,11.4736373 L113.801828,26 L68.1303393,26 Z" id="形状结合" fill="#06E0DC"></path>
                    </g>
                </g>
            </g>
        </g>
    </g>
</svg>