<?xml version="1.0" encoding="UTF-8"?>
<svg width="181px" height="28px" viewBox="0 0 181 28" version="1.1" xmlns="http://www.w3.org/2000/svg" xmlns:xlink="http://www.w3.org/1999/xlink">
    <title>btn_tt_zcj_4</title>
    <defs>
        <linearGradient x1="-6.29385245%" y1="46.7006144%" x2="93.0798546%" y2="52.0169396%" id="linearGradient-1">
            <stop stop-color="#323232" offset="0%"></stop>
            <stop stop-color="#212322" offset="100%"></stop>
        </linearGradient>
    </defs>
    <g id="天天专场" stroke="none" stroke-width="1" fill="none" fill-rule="evenodd">
        <g id="01.4天天专场" transform="translate(-68.000000, -553.000000)">
            <g id="内容" transform="translate(40.000000, 145.000000)">
                <g id="编组-3" transform="translate(14.000000, 160.000000)">
                    <g id="btn_tt_zcj_4" transform="translate(14.000000, 248.000000)">
                        <g id="icon_miaosha_jiage备份" fill="url(#linearGradient-1)">
                            <path d="M6,0 L109,0 L109,0 L100,28 L6,28 C2.6862915,28 4.05812251e-16,25.3137085 0,22 L0,6 C-4.05812251e-16,2.6862915 2.6862915,6.08718376e-16 6,0 Z" id="矩形"></path>
                        </g>
                        <path d="M99,28 L108,0 L168.44101,0 C168.681446,-4.4167413e-17 168.916928,0.0212136547 169.145685,0.0618713889 C169.195923,0.0226686148 169.259878,-2.73327523e-16 169.327429,0 L179.944374,0 C180.496659,7.86725357e-16 180.944374,0.44771525 180.944374,1 C180.944374,1.22382296 180.869286,1.44117533 180.731127,1.6172686 L173.7539,10.5102374 C173.651628,10.6405908 173.674392,10.8291713 173.804745,10.9314437 C173.857573,10.9728914 173.922779,10.995418 173.989926,10.995418 L178.22133,10.995418 C178.773615,10.995418 179.22133,11.4431332 179.22133,11.995418 C179.22133,12.249123 179.124898,12.4933439 178.951569,12.6786094 L164.617307,28 L99,28 Z" id="形状结合" fill="#f30300"></path>
                    </g>
                </g>
            </g>
        </g>
    </g>
</svg>