<?xml version="1.0" encoding="UTF-8"?>
<svg width="154px" height="28px" viewBox="0 0 154 28" version="1.1" xmlns="http://www.w3.org/2000/svg" xmlns:xlink="http://www.w3.org/1999/xlink">
    <title>btn_tt_zcj2</title>
    <defs>
        <linearGradient x1="-6.29385245%" y1="45.156733%" x2="93.0798546%" y2="52.9607262%" id="linearGradient-1">
            <stop stop-color="#323232" offset="0%"></stop>
            <stop stop-color="#212322" offset="100%"></stop>
        </linearGradient>
    </defs>
    <g id="天天专场" stroke="none" stroke-width="1" fill="none" fill-rule="evenodd">
        <g id="01.2天天专场" transform="translate(-192.000000, -641.000000)">
            <g id="内容" transform="translate(40.000000, 145.000000)">
                <g id="img/b/3备份-19" transform="translate(14.000000, 160.000000)">
                    <g id="btn_tt_zcj2" transform="translate(138.000000, 336.000000)">
                        <g id="icon_miaosha_jiage备份" fill="url(#linearGradient-1)">
                            <path d="M4.02223051,0.022354406 L89.96505,0.5 L89.96505,0.5 L81,28 L4,28 C1.790861,28 2.705415e-16,26.209139 0,24 L0,4.02229263 C-7.1463071e-16,1.81315363 1.790861,0.0222926311 4,0.0222926311 C4.00741021,0.0222926311 4.01482041,0.0223132228 4.02223051,0.022354406 Z" id="矩形"></path>
                        </g>
                        <path d="M81,28 L90,0 L141.44101,0 C141.681446,-4.4167413e-17 141.916928,0.0212136547 142.145685,0.0618713889 C142.195923,0.0226686148 142.259878,-2.73327523e-16 142.327429,0 L152.80257,0 C153.354855,1.20591542e-16 153.80257,0.44771525 153.80257,1 C153.80257,1.2414761 153.715192,1.47479628 153.556574,1.65687015 L145.85408,10.4983569 C145.745247,10.6232843 145.758293,10.8127853 145.88322,10.9216191 C145.937843,10.9692046 146.007839,10.995418 146.080282,10.995418 L151.22133,10.995418 C151.773615,10.995418 152.22133,11.4431332 152.22133,11.995418 C152.22133,12.249123 152.124898,12.4933439 151.951569,12.6786094 L137.617307,28 L81,28 Z" id="形状结合" fill="#06E0DC"></path>
                    </g>
                </g>
            </g>
        </g>
    </g>
</svg>