<?xml version="1.0" encoding="UTF-8"?>
<svg width="62px" height="18px" viewBox="0 0 62 18" version="1.1" xmlns="http://www.w3.org/2000/svg" xmlns:xlink="http://www.w3.org/1999/xlink">
    <title>icon_bnj_dangqianchanpin</title>
    <g id="确定稿" stroke="none" stroke-width="1" fill="none" fill-rule="evenodd">
        <g id="14.1搜索比价1" transform="translate(-10.000000, -88.000000)">
            <g id="icon_bnj_dangqianchanpin" transform="translate(10.000000, 88.000000)">
                <path d="M0,0 L62,0 L62,8.4 C62,13.7019336 57.7019336,18 52.4,18 L0,18 L0,18 L0,0 Z" id="矩形" fill="#F30300"></path>
                <path d="M15.4132308,13.752 L15.4132308,6.588 L11.3932308,6.588 L11.3932308,2.88 L10.1932308,2.88 L10.1932308,6.588 L6.20923077,6.588 L6.20923077,7.704 L14.2612308,7.704 L14.2612308,9.384 L6.77323077,9.384 L6.77323077,10.476 L14.2612308,10.476 L14.2612308,12.228 L6.16123077,12.228 L6.16123077,13.332 L14.2612308,13.332 L14.2612308,13.752 L15.4132308,13.752 Z M13.9972308,6.252 C14.5972308,5.484 15.0772308,4.704 15.4372308,3.888 L14.3932308,3.396 C14.0332308,4.164 13.5652308,4.932 12.9652308,5.7 L13.9972308,6.252 Z M7.73323077,6.252 L8.70523077,5.592 C8.36923077,4.98 7.87723077,4.284 7.25323077,3.492 L6.28123077,4.092 C6.89323077,4.884 7.37323077,5.604 7.73323077,6.252 Z M29.2601399,5.268 L29.2601399,4.164 L26.2241399,4.164 C26.4881399,3.828 26.7281399,3.468 26.9561399,3.06 L25.8521399,2.676 C25.5881399,3.204 25.3001399,3.696 24.9641399,4.164 L22.7921399,4.164 C22.5521399,3.648 22.3121399,3.192 22.0601399,2.784 L20.8601399,2.976 C21.1121399,3.336 21.3521399,3.732 21.5681399,4.164 L18.4481399,4.164 L18.4481399,5.268 L29.2601399,5.268 Z M27.3281399,13.728 C28.1081399,13.728 28.5041399,13.32 28.5041399,12.504 L28.5041399,5.76 L27.3641399,5.76 L27.3641399,12.216 C27.3641399,12.54 27.2201399,12.708 26.9321399,12.708 C26.4521399,12.708 25.9721399,12.684 25.4681399,12.636 L25.7081399,13.728 L27.3281399,13.728 Z M20.3321399,13.86 L20.3321399,11.316 L22.6841399,11.316 L22.6841399,12.12 C22.6841399,12.492 22.5401399,12.684 22.2761399,12.684 L21.4121399,12.648 L21.7121399,13.764 L22.6481399,13.764 C23.4041399,13.764 23.7881399,13.296 23.7881399,12.372 L23.7881399,6.012 L19.2161399,6.012 L19.2161399,13.86 L20.3321399,13.86 Z M25.9961399,11.784 L25.9961399,6.66 L24.8921399,6.66 L24.8921399,11.784 L25.9961399,11.784 Z M22.6841399,8.184 L20.3321399,8.184 L20.3321399,7.068 L22.6841399,7.068 L22.6841399,8.184 Z M22.6841399,10.308 L20.3321399,10.308 L20.3321399,9.192 L22.6841399,9.192 L22.6841399,10.308 Z M32.211049,13.812 C33.027049,12.672 33.447049,11.16 33.495049,9.288 L33.495049,7.668 L42.015049,7.668 L42.015049,6.564 L39.243049,6.564 C39.459049,6.06 39.627049,5.532 39.747049,4.992 L41.763049,4.992 L41.763049,3.912 L37.599049,3.912 C37.431049,3.432 37.275049,3 37.107049,2.616 L35.907049,2.808 C36.099049,3.144 36.279049,3.516 36.435049,3.912 L32.211049,3.912 L32.211049,4.992 L34.347049,4.992 L34.767049,6.564 L32.343049,6.564 L32.343049,9.288 C32.319049,10.884 31.983049,12.132 31.335049,13.044 L32.211049,13.812 Z M38.151049,6.564 L35.895049,6.564 L35.463049,4.992 L38.655049,4.992 C38.535049,5.532 38.367049,6.06 38.151049,6.564 Z M53.4499581,7.356 L53.4499581,3.168 L46.6339581,3.168 L46.6339581,7.356 L53.4499581,7.356 Z M52.3099581,6.276 L47.7739581,6.276 L47.7739581,4.248 L52.3099581,4.248 L52.3099581,6.276 Z M46.1419581,13.656 L46.1419581,13.08 L48.3619581,13.08 L48.3619581,13.656 L49.4659581,13.656 L49.4659581,8.256 L45.0259581,8.256 L45.0259581,13.656 L46.1419581,13.656 Z M51.6019581,13.656 L51.6019581,13.08 L53.9179581,13.08 L53.9179581,13.656 L55.0579581,13.656 L55.0579581,8.256 L50.4859581,8.256 L50.4859581,13.656 L51.6019581,13.656 Z M48.3619581,12.012 L46.1419581,12.012 L46.1419581,9.336 L48.3619581,9.336 L48.3619581,12.012 Z M53.9179581,12.012 L51.6019581,12.012 L51.6019581,9.336 L53.9179581,9.336 L53.9179581,12.012 Z" id="当前产品" fill="#FFFFFF" fill-rule="nonzero"></path>
            </g>
        </g>
    </g>
</svg>