<?xml version="1.0" encoding="UTF-8"?>
<svg width="16px" height="19px" viewBox="0 0 16 19" version="1.1" xmlns="http://www.w3.org/2000/svg" xmlns:xlink="http://www.w3.org/1999/xlink">
    <title>icon_bnj_di</title>
    <g id="页面-1" stroke="none" stroke-width="1" fill="none" fill-rule="evenodd">
        <g id="icon_bnj_di">
            <rect id="矩形" fill="#E8E8E8" fill-rule="nonzero" x="0" y="0" width="16" height="16" rx="8"></rect>
            <g id="低" transform="translate(3.000000, 2.500000)"></g>
            <g id="低" transform="translate(3.270000, 3.120000)" fill="#999999" fill-rule="nonzero">
                <path d="M2.3,0.04 C1.78,1.55 0.92,3.06 -4.4408921e-16,4.04 C0.16,4.27 0.42,4.77 0.51,4.99 C0.81,4.66 1.11,4.28 1.39,3.86 L1.39,9.16 L2.28,9.16 L2.28,2.34 C2.62,1.68 2.93,0.98 3.18,0.29 L2.3,0.04 Z M5.46,7.01 C5.78,7.66 6.15,8.51 6.31,9.03 L7.01,8.77 C6.85,8.26 6.45,7.42 6.12,6.8 L5.46,7.01 Z M4.35,3.74 L4.35,1.76 C4.98,1.67 5.61,1.56 6.24,1.44 C6.27,2.25 6.32,3.01 6.38,3.74 L4.35,3.74 Z M9.21,4.61 L9.21,3.74 L7.26,3.74 C7.19,2.97 7.15,2.12 7.12,1.25 C7.77,1.1 8.38,0.94 8.91,0.75 L8.15,0 C7.04,0.43 5.16,0.82 3.48,1.05 L3.49,1.06 L3.48,1.06 L3.48,7.83 C3.48,8.22 3.24,8.37 3.08,8.45 C3.19,8.63 3.35,9 3.39,9.22 C3.58,9.09 3.87,8.97 5.61,8.49 C5.58,8.29 5.57,7.93 5.59,7.7 L4.35,8 L4.35,4.61 L6.46,4.61 C6.75,7.29 7.33,9.07 8.4,9.09 C8.79,9.09 9.2,8.68 9.4,7.13 C9.25,7.06 8.89,6.82 8.75,6.64 C8.68,7.5 8.57,7.98 8.4,7.98 C7.96,7.96 7.58,6.59 7.35,4.61 L9.21,4.61 Z" id="形状"></path>
            </g>
        </g>
    </g>
</svg>