<?xml version="1.0" encoding="UTF-8"?>
<svg width="46px" height="46px" viewBox="0 0 46 46" version="1.1" xmlns="http://www.w3.org/2000/svg" xmlns:xlink="http://www.w3.org/1999/xlink">
    <title>icon_logo_jingdong3</title>
    <g id="图标" stroke="none" stroke-width="1" fill="none" fill-rule="evenodd">
        <g id="icon_logo_jingdong3">
            <circle id="椭圆形" fill="#FFFFFF" opacity="0.8" cx="23" cy="23" r="23"></circle>
            <g id="编组" transform="translate(2.000000, 2.000000)">
                <g id="编组-14" transform="translate(-0.000000, 0.000000)">
                    <circle id="蒙版" fill="#DA0B06" cx="21" cy="21" r="21"></circle>
                    <g id="编组-2" transform="translate(3.818182, 9.545455)" fill="#FFFFFF" fill-rule="nonzero">
                        <path d="M30.8046293,12.4090909 L30.5013933,12.8764426 L34.3636364,12.8764426 L34.3636364,19.0745549 C34.3636364,19.7682609 33.7149436,20.0902282 32.4175581,20.0404567 C32.1694766,19.727929 32.1694766,19.5716652 32.4175581,19.5716652 C32.6346295,19.5716652 32.8196374,19.4447985 32.972582,19.1910652 L33.0361666,19.0745549 L33.0361666,13.3810634 L30.1945676,13.3810634 L29.5183545,14.3530359 L28.2348147,14.3530359 L29.5183545,12.4090909 L30.8046293,12.4090909 Z M5.87072173,14.6346839 L5.87072173,16.5147245 L8.98627957,16.5147245 L8.98627957,17.0996615 L5.87072173,17.0996615 L5.87072173,19.5501232 L10.4244721,19.5501232 L10.4244721,20.0404567 L0,20.0404567 L0,19.3180929 L1.62798646,19.3180929 L1.62798646,15.6811166 L2.88472287,15.6811166 L2.88472287,19.3180929 L4.42086101,19.3180929 L4.42086101,14.6346839 L5.87072173,14.6346839 Z M16.1993137,12.4090909 L16.1993137,19.3457833 L17.8839007,19.3457833 L17.8839007,12.4090909 L19.2211478,12.4090909 L19.2211478,19.3457833 L22.4194851,19.3457833 L22.4194851,20.0404567 L11.5677522,20.0404567 L11.5677522,19.3457833 L14.8346693,19.3457833 L14.8346693,12.4090909 L16.1993137,12.4090909 Z M26.5056511,13.7877642 L26.5056511,17.2919099 L28.2348147,20.0404567 L27.2090426,20.0404567 L26.1000258,18.7518867 L24.8616124,20.0404567 L23.736357,20.0404567 L25.348773,17.5581785 L25.348773,13.7877642 L26.5056511,13.7877642 Z M31.2992255,14.624046 L29.5805315,17.0617047 L31.4434506,17.0617047 L30.9193933,15.8428754 L31.9906218,15.8428754 L32.6549259,17.9552512 L28.4603817,17.9552512 L28.4603817,17.0617047 L29.9395772,14.624046 L31.2992255,14.624046 Z M13.2610375,14.0451038 L14.4868018,17.5581785 L13.6140152,17.5581785 L11.9156197,14.0451038 L13.2610375,14.0451038 Z M22.4095709,14.0451038 L20.7111754,17.5581785 L19.8383888,17.5581785 L21.0641531,14.0451038 L22.4095709,14.0451038 Z M27.9609792,12.4090909 L27.9609792,17.5581785 L27.002213,17.5581785 L27.002213,13.153481 L24.8383654,13.153481 L24.8383654,17.5581785 L23.736357,17.5581785 L23.736357,12.4090909 L27.9609792,12.4090909 Z M6.38564988,12.4090909 L10.4244721,14.8073696 L10.4244721,15.6811166 L5.58799721,13.3377805 L4.76874656,13.3377805 L0.218444874,15.2311796 L0.218444874,14.8073696 L4.1156531,12.4090909 L6.38564988,12.4090909 Z" id="形状结合"></path>
                        <g id="编组" transform="translate(5.727273, -0.000000)">
                            <path d="M10.3054687,2.12287138 L10.3054687,4.92301192 L6.07751266,4.92301192 L6.07751267,7.29667493 C6.07751267,8.04114397 5.87787312,8.59748267 5.48347007,8.95954204 C5.12625042,9.2864496 4.58430218,9.47638802 3.85660976,9.53191882 L3.60716482,9.54545455 L3.60716482,8.71270335 C3.9358108,8.70626153 4.18462883,8.6280813 4.34721037,8.47889469 C4.49061277,8.34693504 4.57160169,8.13804956 4.58782883,7.74673993 L4.59087371,7.59124164 L4.59087371,4.92301192 L0.362360402,4.91583808 L0.362360402,2.12287138 L10.3054687,2.12287138 Z M3.12889366,5.50072575 C3.12889366,5.50072575 2.68619993,7.71179048 1.01734521,9.3559466 L0.846343514,9.51836963 L-7.26235811e-11,9.51836963 C0.584996345,8.64152127 1.20664328,7.35719873 1.44867755,5.83133349 L1.49457994,5.50072575 L3.12889366,5.50072575 Z M9.17533889,5.50043294 C9.36062891,7.06050427 9.95441516,8.38986487 10.5421334,9.32401165 L10.6678291,9.51807682 L9.82120696,9.51807682 C8.07324302,7.91536797 7.57677281,5.65205451 7.54656137,5.50770203 L7.54506534,5.50043294 L9.17533889,5.50043294 Z M8.87302359,2.99427348 L1.79703456,2.99427348 L1.79703456,4.05146342 L8.87302359,4.05146342 L8.87302359,2.99427348 Z M6.08378187,0.00527058125 L6.08378187,0.663067892 L10.6678291,0.663067892 L10.6678291,1.53447 L-8.56654264e-11,1.53447 L-8.56654264e-11,0.663067892 L4.59087371,0.663067892 L4.59087371,0.00527058125 L6.08378187,0.00527058125 Z" id="形状结合"></path>
                            <path d="M16.2791911,-4.88227816e-13 L15.9863493,0.663067892 L22.9089516,0.663067892 L22.9089516,1.53461639 L15.6049026,1.53461639 L14.4994317,4.05146342 L16.9284027,4.05146342 L16.9284027,2.17938368 L18.4182459,2.17938368 L18.4182459,4.05131701 L22.5442228,4.05131701 L22.5442228,4.92301192 L18.4182459,4.92301192 L18.4182459,7.29667492 C18.4182459,8.04099755 18.2180491,8.59733626 17.8219743,8.95939563 C17.424367,9.32262625 16.7993963,9.51690558 15.9462263,9.54516173 L15.9462263,9.54516173 L15.9462263,8.71299615 C16.2750116,8.70626152 16.5220185,8.62793489 16.6855753,8.47874827 C16.8473209,8.33044008 16.9284027,8.10658696 16.9284027,7.59109523 L16.9284027,7.59109523 L16.9284027,4.92301192 L12.5963778,4.92301192 L14.1012671,1.53446999 L12.2310917,1.53446999 L12.2310917,0.663067892 L14.4882864,0.663067892 L14.7819641,-4.88227816e-13 L16.2791911,-4.88227816e-13 Z M15.3604034,5.50072575 C15.3604034,5.50072575 15.3559829,5.5228364 15.3463576,5.56427972 L15.3199347,5.67212016 C15.1733483,6.24399505 14.5965348,8.12886413 13.0788284,9.51836963 L13.0788284,9.51836963 L12.2331815,9.51836963 C12.8592667,8.57888924 13.5279826,7.17164513 13.7276221,5.50072575 L13.7276221,5.50072575 Z M21.4147896,5.50043294 C21.6135932,7.17193794 22.2825877,8.57859643 22.9090909,9.51807682 L22.9090909,9.51807682 L22.0620508,9.51807682 C20.2527565,7.86194434 19.7813118,5.50043294 19.7813118,5.50043294 L19.7813118,5.50043294 Z" id="形状结合"></path>
                        </g>
                    </g>
                </g>
            </g>
        </g>
    </g>
</svg>