<?xml version="1.0" encoding="UTF-8"?>
<svg width="15px" height="14px" viewBox="0 0 15 14" version="1.1" xmlns="http://www.w3.org/2000/svg" xmlns:xlink="http://www.w3.org/1999/xlink">
    <title>icon_xq_feiji</title>
    <g id="详情页" stroke="none" stroke-width="1" fill="none" fill-rule="evenodd">
        <g id="00比价" transform="translate(-104.000000, -640.000000)" fill="#FFFFFF" fill-rule="nonzero">
            <g id="编组-7" transform="translate(0.000000, 631.000000)">
                <g id="文案卡片备份" transform="translate(15.000000, 0.000000)">
                    <g id="全国配送" transform="translate(12.000000, 8.500000)">
                        <g id="05页签Tag/2面性/a青色" transform="translate(76.000000, 0.062500)">
                            <g id="icon_xq_feiji" transform="translate(1.500000, 0.437500)">
                                <path d="M4.55973519,10.9496528 C4.58976861,10.9496528 4.62000291,10.9468403 4.65003633,10.9410395 C4.78885299,10.9141449 4.90064962,10.8282756 4.94926558,10.7113809 L6.27214214,7.52832881 L8.08710467,8.9814269 L7.5167711,10.2467024 C7.45615452,10.3808362 7.49247602,10.5336634 7.60918161,10.6355312 L7.78084418,10.7856486 C7.86773015,10.8616741 7.98816516,10.8999066 8.11030774,10.8902386 C8.23285212,10.8805706 8.3432425,10.8243205 8.41325351,10.7359024 L9.57471301,9.26839026 L11.2556803,8.24859367 C11.3566027,8.18766388 11.4212579,8.09056113 11.4320638,7.98369089 C11.443324,7.87680106 11.3995401,7.77108316 11.3126333,7.69532127 L11.1408703,7.54502806 C11.0245536,7.44298688 10.8502794,7.41143409 10.6965967,7.46425644 L9.2505731,7.96330023 L7.58969505,6.37528981 L11.2277563,5.21776839 C11.3612493,5.17522926 11.4593852,5.07740683 11.4901217,4.95602968 C11.5207578,4.83465253 11.4791731,4.70967185 11.3787269,4.62186897 L10.8465629,4.15622368 C10.7460162,4.06815713 10.6027799,4.03168246 10.4639633,4.0589286 L6.06984348,4.92210384 L4.85655373,3.7618578 L4.57470167,3.50345894 C4.314546,3.25587064 3.85982601,3.08246215 3.44679121,3.07490355 C3.15820925,3.06971799 2.91844415,3.14504038 2.74949363,3.29287266 C2.58044266,3.44070493 2.49436026,3.65173067 2.50028659,3.90309826 C2.50892496,4.264593 2.70720578,4.66238662 2.99377881,4.89292411 L3.2813563,5.13321747 L4.61126409,6.1983657 L3.62498278,10.0427958 C3.59384446,10.1647003 3.63532874,10.2898568 3.73607629,10.3779233 L4.26834074,10.8435686 C4.34688968,10.9123871 4.45145418,10.9496528 4.55973519,10.9496528 Z" id="形状"></path>
                            </g>
                        </g>
                    </g>
                </g>
            </g>
        </g>
    </g>
</svg>