<?xml version="1.0" encoding="UTF-8"?>
<svg width="51px" height="15px" viewBox="0 0 51 15" version="1.1" xmlns="http://www.w3.org/2000/svg" xmlns:xlink="http://www.w3.org/1999/xlink">
    <title>05页签Tag/8实惠标签/a实惠1</title>
    <defs>
        <linearGradient x1="14.9257903%" y1="46.4373355%" x2="82.7421567%" y2="53.7722563%" id="linearGradient-1">
            <stop stop-color="#FB8453" offset="0%"></stop>
            <stop stop-color="#FF0000" offset="100%"></stop>
        </linearGradient>
        <path d="M5.45941171,0 L47.3405883,0 C48.9974425,-3.38683813e-15 50.3405883,1.34314575 50.3405883,3 C50.3405883,3.19755596 50.3210742,3.39462885 50.2823303,3.58834841 L48.4823303,12.5883484 C48.2018758,13.990621 46.9706314,15 45.5405883,15 L3.65941171,15 C2.00255746,15 0.659411708,13.6568542 0.659411708,12 C0.659411708,11.802444 0.678925771,11.6053711 0.717669681,11.4116516 L2.51766968,2.41165159 C2.7981242,1.009379 4.02936865,1.15087307e-15 5.45941171,0 Z" id="path-2"></path>
        <linearGradient x1="62.5057517%" y1="36.8911464%" x2="21.8318529%" y2="73.8684136%" id="linearGradient-4">
            <stop stop-color="#FFFFFF" stop-opacity="0.0199409965" offset="0%"></stop>
            <stop stop-color="#FFFFFF" stop-opacity="0.193099869" offset="100%"></stop>
        </linearGradient>
        <radialGradient cx="27.2501852%" cy="0%" fx="27.2501852%" fy="0%" r="102.062589%" gradientTransform="translate(0.272502,0.000000),scale(0.791995,1.000000),rotate(50.804448),translate(-0.272502,-0.000000)" id="radialGradient-5">
            <stop stop-color="#FFFFFF" offset="0%"></stop>
            <stop stop-color="#FFF4B0" stop-opacity="0.69102382" offset="100%"></stop>
        </radialGradient>
        <path d="M9.33871752,0 L2.87490728,0 C2.57273488,3.88575076e-16 2.28883521,0.144698933 2.11128402,0.389206051 L0.20325701,3.01676484 C-0.0642010829,3.38508345 -0.0306379443,3.89183026 0.28306013,4.22165742 L5.1854818,9.37614165 C5.54467688,9.75380508 6.14201873,9.76877664 6.51968216,9.40958156 C6.52159693,9.40776043 6.52350403,9.40593126 6.52540343,9.40409412 L11.8829163,4.22216454 C12.2208044,3.89535016 12.2666493,3.36969215 11.9904381,2.9893195 L10.1023408,0.389206051 C9.92478959,0.144698933 9.64088992,1.16573716e-15 9.33871752,0 Z" id="path-6"></path>
        <filter x="0.2%" y="0.0%" width="99.6%" height="100.1%" filterUnits="objectBoundingBox" id="filter-7">
            <feGaussianBlur stdDeviation="0" in="SourceGraphic"></feGaussianBlur>
        </filter>
        <linearGradient x1="27.458502%" y1="42.194745%" x2="67.2665546%" y2="63.2595266%" id="linearGradient-8">
            <stop stop-color="#FA0700" offset="0%"></stop>
            <stop stop-color="#DB0300" offset="100%"></stop>
        </linearGradient>
        <polygon id="path-9" points="3.56340139 5.90704132 0 1.65050297 3.56340139 2.84449269 8.61504136 1.07614868e-13 9.03013931 0.478628675"></polygon>
    </defs>
    <g id="05页签Tag/8实惠标签/a实惠1" stroke="none" stroke-width="1" fill="none" fill-rule="evenodd">
        <g id="编组-2">
            <mask id="mask-3" fill="white">
                <use xlink:href="#path-2"></use>
            </mask>
            <use id="蒙版" fill="url(#linearGradient-1)" xlink:href="#path-2"></use>
            <path d="M27.877489,5.0730213 L27.2067785,8.22084716 L30.3733393,8.13484478 L30.1242952,9.30367595 L26.9760591,9.30367595 C27.3276331,10.1965331 28.1813318,10.4893842 29.3937173,10.8554219 L29.6409344,10.9298047 L29.3576855,12.2591685 C27.4242339,11.768548 26.1606298,11.2034639 25.6273796,10.2799429 C24.5798386,11.2219343 22.6019956,11.7936942 19.6403183,12.2464639 L19.2649807,12.3024585 L19.5298552,11.0593309 C22.0097741,10.617647 23.6091407,10.259576 24.4481412,9.42105123 L24.5578487,9.30367595 L19.7214279,9.30367595 L19.970472,8.13484478 L25.4848291,8.16517659 L26.1436778,5.0730213 L27.877489,5.0730213 Z M41.0586236,9.46502757 L42.2244553,9.4661136 C42.2694596,9.6700782 42.309766,9.88268355 42.3445709,10.1024416 C42.4659106,10.8685778 42.5024981,11.6087044 42.4655269,12.2415896 L41.0886194,12.2419247 C41.16274,11.6342271 41.1819804,10.932376 41.1322401,10.2009949 C41.114926,9.94640831 41.0900761,9.70033548 41.0586236,9.46502757 Z M34.5881925,9.46447503 C34.4775825,9.87296546 34.3371613,10.3091915 34.1682297,10.7594586 C33.9683001,11.2923472 33.7477381,11.7934582 33.5205336,12.2424569 L32.0212987,12.240668 L32.027314,12.2135712 C32.314706,11.7325347 32.6011235,11.1894593 32.8685538,10.6073496 C33.048782,10.2150507 33.2082868,9.83136084 33.3455426,9.46456041 L34.5881925,9.46447503 Z M37.1074942,9.57731108 L36.9022143,10.5422276 C36.8668548,10.7081792 36.8713116,10.7683573 36.8908311,10.8290268 C36.9103505,10.8896962 36.9478192,10.93731 37.0015752,10.9697563 C37.0445801,10.9957134 37.0893388,11.0119634 37.1904893,11.0174251 L37.2777794,11.0194817 L40.3755058,11.020604 C40.3751431,11.3455354 40.361055,11.6587814 40.3346549,11.9538644 L40.31595,12.1283111 L36.7838531,12.1288437 C36.1200464,12.1288437 35.8940607,12.0597277 35.6790364,11.9299422 C35.4640122,11.8001567 35.3141377,11.6097017 35.2360598,11.3670239 C35.1579819,11.1243462 35.1401546,10.8836338 35.2815926,10.2198272 L35.4184942,9.57731108 L37.1074942,9.57731108 Z M39.6301515,9.58743001 C39.6684472,10.0160231 39.677326,10.4241145 39.6589748,10.7953147 L38.2021249,10.7956493 C38.245565,10.4233482 38.2667739,10.0157087 38.262505,9.58759034 L39.6301515,9.58743001 Z M40.2954284,2.16666667 L40.2007689,2.60966667 L44.6051669,2.61041148 L44.3924313,3.60883731 L39.987911,3.60866667 L39.8935205,4.05166667 L43.6342223,4.05258212 L43.1673858,6.24357213 L43.1572414,6.24364469 C43.0744408,6.53878008 42.9903056,6.70363114 42.8832277,6.8510607 L42.8622106,6.87940821 L42.8295345,6.9215115 C42.6571134,7.13845341 42.4356475,7.30871069 42.1749587,7.42473249 L42.1219947,7.44757993 L42.0954114,7.45843834 L42.0686323,7.46891753 L42.0415611,7.47901573 L42.0141018,7.48873118 L41.9719742,7.50258282 C41.9624674,7.50556439 41.9528557,7.50848144 41.9431233,7.51133366 L41.9135473,7.51969557 L41.8831501,7.52766678 C41.8794786,7.52859241 41.8757877,7.5295097 41.8720766,7.53041862 L43.0227754,7.53037859 C43.1059918,8.17871477 43.1282173,8.79938765 43.0964792,9.3414192 L41.7195469,9.3414192 C41.7379397,9.19072871 41.7529575,9.0342458 41.7643853,8.87295616 C40.8935431,9.04586855 40.0260513,9.13356572 39.1742631,9.13356572 L32.596715,9.13356572 L32.8330879,8.02420369 L37.2382677,8.01866667 L37.3271183,7.60166667 L33.5865919,7.60254062 L34.3429852,4.05258212 L38.0835205,4.05166667 L38.177911,3.60866667 L33.7738746,3.60883731 L33.9866102,2.61041148 L38.3907689,2.60966667 L38.4854471,2.16666667 L40.2954284,2.16666667 Z M21.5785534,6.15527239 C22.8282072,6.26021795 23.8086876,6.44864293 24.5199947,6.72054733 L24.7253116,6.80462304 L24.448596,8.10332433 C23.5232954,7.69928393 22.6163239,7.42781928 21.7276816,7.28893039 L21.3479571,7.23752347 L21.5785534,6.15527239 Z M41.7776865,7.55049256 L41.7689034,7.55246383 L41.7336198,7.55865507 L41.6589053,7.56983459 L41.6392924,7.57237757 L41.5988613,7.57715969 L41.5567431,7.58153523 L41.5128414,7.58550243 L41.4670601,7.58905952 L41.4434344,7.59068373 L41.3946532,7.59362235 L41.3437518,7.59614645 L41.2906339,7.59825427 L41.2352034,7.59994404 L41.177364,7.60121399 L41.1170195,7.60206237 L39.1371183,7.60166667 L39.0488515,8.01718928 L39.7706514,8.01637685 C40.4354456,8.01562858 41.1101257,7.96148772 41.788166,7.854645 C41.7859509,7.75364027 41.7824869,7.65243296 41.7776865,7.55049256 Z M37.6166819,6.24266667 L35.5654646,6.24357213 L35.4531874,6.77051909 L37.5043934,6.76966667 L37.6166819,6.24266667 Z M41.47807,6.24357213 L39.4266819,6.24266667 L39.3143934,6.76966667 L40.9557022,6.76985506 L40.9874288,6.76868061 C41.0628231,6.76501873 41.1097871,6.755932 41.1505526,6.74182817 L41.1665809,6.73592002 L41.1822642,6.72948251 C41.1848669,6.7283658 41.1874684,6.72722728 41.1900753,6.72606706 C41.2552475,6.69706161 41.310614,6.65449729 41.3537192,6.60026181 L41.3642146,6.58663329 C41.3846271,6.55917355 41.4016972,6.52983459 41.4177101,6.4866799 L41.4256391,6.46389598 C41.4348115,6.4358426 41.4437537,6.40241108 41.4529196,6.36123208 L41.47807,6.24357213 Z M22.9776218,4.6745625 C23.961931,4.72703528 24.5242611,4.79874643 25.2256736,5.07154676 L25.4408309,5.15960139 L25.1641153,6.45830269 C24.425851,6.0686923 23.9060199,5.8823043 23.0602245,5.72268904 L22.7654731,5.67023349 L22.9776218,4.6745625 Z M37.9062454,4.88366667 L35.8550214,4.88460364 L35.7427442,5.41155061 L37.793957,5.41066667 L37.9062454,4.88366667 Z M41.7676268,4.88460364 L39.7162454,4.88366667 L39.603957,5.41066667 L41.6553497,5.41155061 L41.7676268,4.88460364 Z M27.4184037,2.30245853 L27.270822,2.99509923 L31.2859637,2.99509923 L30.8432187,5.0730213 L29.2006607,5.0730213 L29.4220333,4.03406026 L22.6692948,4.03406026 L22.4479223,5.0730213 L20.8053644,5.0730213 L21.2481094,2.99509923 L25.3088777,2.99509923 L25.4564594,2.30245853 L27.4184037,2.30245853 Z" id="形状结合" fill="#FFFFFF" fill-rule="nonzero" mask="url(#mask-3)"></path>
            <g id="编组" mask="url(#mask-3)">
                <g transform="translate(5.246280, 2.700000)">
                    <g id="形状" filter="url(#filter-7)">
                        <use fill="url(#linearGradient-4)" xlink:href="#path-6"></use>
                        <use fill="url(#radialGradient-5)" xlink:href="#path-6"></use>
                    </g>
                    <g id="路径-11" stroke-width="1" transform="translate(2.072440, 1.182624)">
                        <mask id="mask-10" fill="white">
                            <use xlink:href="#path-9"></use>
                        </mask>
                        <use id="蒙版" fill="url(#linearGradient-8)" xlink:href="#path-9"></use>
                        <polygon id="路径-12" fill="#FF9685" mask="url(#mask-10)" points="-0.318720492 1.36245209 3.61812366 4.12313885 9.72998911 -0.822132901"></polygon>
                    </g>
                </g>
            </g>
        </g>
    </g>
</svg>