<?xml version="1.0" encoding="UTF-8"?>
<svg width="104px" height="16px" viewBox="0 0 104 16" version="1.1" xmlns="http://www.w3.org/2000/svg" xmlns:xlink="http://www.w3.org/1999/xlink">
    <title>icon_common_shihui2</title>
    <defs>
        <path d="M3.2,0 L100.8,0 C102.567311,0 104,1.4326888 104,3.2 L104,12.8 C104,14.5673112 102.567311,16 100.8,16 L3.2,16 C1.4326888,16 0,14.5673112 0,12.8 L0,3.2 C0,1.4326888 1.4326888,0 3.2,0 Z" id="path-1"></path>
        <linearGradient x1="14.9257903%" y1="45.2251669%" x2="82.7421567%" y2="55.0557368%" id="linearGradient-3">
            <stop stop-color="#FB8453" offset="0%"></stop>
            <stop stop-color="#FF0000" offset="100%"></stop>
        </linearGradient>
        <path d="M3.2,0 L100.8,0 C102.567311,0 104,1.4326888 104,3.2 L104,12.8 C104,14.5673112 102.567311,16 100.8,16 L3.2,16 C1.4326888,16 0,14.5673112 0,12.8 L0,3.2 C0,1.4326888 1.4326888,0 3.2,0 Z" id="path-4"></path>
        <path d="M3.2,0 L100.8,0 C102.567311,0 104,1.4326888 104,3.2 L104,12.8 C104,14.5673112 102.567311,16 100.8,16 L3.2,16 C1.4326888,16 0,14.5673112 0,12.8 L0,3.2 C0,1.4326888 1.4326888,0 3.2,0 Z" id="path-6"></path>
        <path d="M3.2,0 L100.8,0 C102.567311,0 104,1.4326888 104,3.2 L104,12.8 C104,14.5673112 102.567311,16 100.8,16 L3.2,16 C1.4326888,16 0,14.5673112 0,12.8 L0,3.2 C0,1.4326888 1.4326888,0 3.2,0 Z" id="path-8"></path>
        <linearGradient x1="62.5057517%" y1="35.4987764%" x2="21.8318529%" y2="76.4036209%" id="linearGradient-10">
            <stop stop-color="#FFFFFF" stop-opacity="0.0199409965" offset="0%"></stop>
            <stop stop-color="#FFFFFF" stop-opacity="0.193099869" offset="100%"></stop>
        </linearGradient>
        <radialGradient cx="27.2501924%" cy="-1.16963623e-05%" fx="27.2501924%" fy="-1.16963623e-05%" r="100.10438%" gradientTransform="translate(0.272502,-0.000000),scale(0.832599,1.000000),rotate(52.199878),translate(-0.272502,0.000000)" id="radialGradient-11">
            <stop stop-color="#FFFFFF" offset="0%"></stop>
            <stop stop-color="#FFF4B0" stop-opacity="0.69102382" offset="100%"></stop>
        </radialGradient>
        <path d="M3.2,0 L100.8,0 C102.567311,0 104,1.4326888 104,3.2 L104,12.8 C104,14.5673112 102.567311,16 100.8,16 L3.2,16 C1.4326888,16 0,14.5673112 0,12.8 L0,3.2 C0,1.4326888 1.4326888,0 3.2,0 Z" id="path-12"></path>
    </defs>
    <g id="页面-1" stroke="none" stroke-width="1" fill="none" fill-rule="evenodd">
        <g id="icon_common_shihui2">
            <g id="蒙版" fill="#FFD8D1" fill-rule="nonzero">
                <path d="M3.2,0 L100.8,0 C102.567311,0 104,1.4326888 104,3.2 L104,12.8 C104,14.5673112 102.567311,16 100.8,16 L3.2,16 C1.4326888,16 0,14.5673112 0,12.8 L0,3.2 C0,1.4326888 1.4326888,0 3.2,0 Z" id="path-1"></path>
            </g>
            <g id="矩形-Clipped">
                <mask id="mask-2" fill="white">
                    <use xlink:href="#path-1"></use>
                </mask>
                <g id="path-1"></g>
                <polygon id="矩形" fill="url(#linearGradient-3)" fill-rule="nonzero" mask="url(#mask-2)" points="0 2.22044605e-16 50 -1.02482748 46.7835052 16 0 16"></polygon>
            </g>
            <g id="实惠-Clipped">
                <mask id="mask-5" fill="white">
                    <use xlink:href="#path-4"></use>
                </mask>
                <g id="path-1"></g>
                <path d="M25.8371053,5.73579187 L25.8371053,9.06855249 L28.9853415,8.97749747 L28.9853415,10.2149975 L25.8371053,10.2149975 C26.4150424,11.2233308 27.4188279,11.5088835 28.8484617,11.9366613 L28.8484617,11.9366613 L28.8484617,13.3441252 C26.810473,12.8246808 25.4264659,12.2263979 24.6964401,11.2486202 C23.8143256,12.287509 21.8371725,12.9010696 18.7649807,13.3899585 L18.7649807,13.3899585 L18.7649807,12.0737972 C21.2592354,11.5849083 22.8105402,11.1927752 23.418895,10.2149975 L23.418895,10.2149975 L18.5824742,10.2149975 L18.5824742,8.97749747 L24.1032941,9.00961127 L24.1032941,9.00961127 L24.1032941,5.73579187 L25.8371053,5.73579187 Z M19.7687661,6.8816252 C21.1679822,7.00384742 22.2630208,7.23301409 23.0538821,7.5691252 L23.0538821,7.5691252 L23.0538821,8.9441252 C21.8980079,8.45523631 20.8029693,8.14968076 19.7687661,8.02745853 L19.7687661,8.02745853 L19.7687661,6.8816252 Z M20.852338,5.3139236 C21.9473767,5.37503471 22.5367805,5.46079187 23.418895,5.82745853 L23.418895,5.82745853 L23.418895,7.20245853 C22.5063628,6.7441252 21.916959,6.5514236 20.852338,6.36809027 L20.852338,6.36809027 L20.852338,5.3139236 Z M24.7876933,2.80245853 L24.7876933,3.53579187 L28.8028351,3.53579187 L28.8028351,5.73579187 L27.1602771,5.73579187 L27.1602771,4.63579187 L20.4075387,4.63579187 L20.4075387,5.73579187 L18.7649807,5.73579187 L18.7649807,3.53579187 L22.825749,3.53579187 L22.825749,2.80245853 L24.7876933,2.80245853 Z" id="实惠" fill="#FFFFFF" fill-rule="nonzero" mask="url(#mask-5)"></path>
            </g>
            <g id="形状结合-Clipped">
                <mask id="mask-7" fill="white">
                    <use xlink:href="#path-6"></use>
                </mask>
                <g id="path-1"></g>
                <path d="M36.0268442,10.5413256 L36.02716,11.596543 C36.02716,11.7624947 36.044439,11.8226728 36.0768854,11.8833422 C36.1093318,11.9440117 36.1569455,11.9916254 36.217615,12.0240718 C36.2661505,12.0500289 36.3143716,12.0662789 36.4166859,12.0717406 L36.5044142,12.0737972 L39.569325,12.075276 C39.6655901,12.5045844 39.7317296,12.9133365 39.7678248,13.2865568 L39.7628442,13.2523256 L36.2468608,13.2526214 C35.5830541,13.2526214 35.3423418,13.1835054 35.099664,13.0537199 C34.8569862,12.9239344 34.6665313,12.7334794 34.5367458,12.4908016 C34.4069602,12.2481239 34.3378442,12.0074115 34.3378442,11.3436049 L34.3378442,10.5413256 L36.0268442,10.5413256 Z M39.8914814,10.50895 L41.1305571,10.510036 C41.2245595,10.7140006 41.3155261,10.926606 41.4022663,11.146364 C41.7046663,11.9125003 41.9111186,12.6526268 42.0151258,13.2855127 L40.5520795,13.2858475 C40.4932507,12.6781495 40.354788,11.9762984 40.1363395,11.2449173 C40.0602998,10.9903307 39.97818,10.7442579 39.8914814,10.50895 Z M33.5453453,10.5084247 C33.5202968,10.9169148 33.4698503,11.3531408 33.3922871,11.8034079 C33.3004916,12.3362966 33.1795769,12.8374075 33.0398051,13.2864056 L31.446291,13.2846173 L31.4465483,13.2575192 C31.6430222,12.776484 31.8244147,12.2334086 31.9767931,11.6512989 C32.0794849,11.259 32.1621049,10.8753102 32.2249066,10.5085101 L33.5453453,10.5084247 Z M38.585503,10.5899331 C38.7232353,11.0185262 38.8250671,11.4266177 38.8896113,11.7978182 L37.341617,11.7981526 C37.3034834,11.4258513 37.2337257,11.0182117 37.1322581,10.5900934 L38.585503,10.5899331 Z M37.6357847,2.66666667 L37.6355157,3.13766667 L42.0400724,3.13819638 L42.0400724,4.19913824 L37.6355157,4.19866667 L37.6355157,4.67066667 L41.3764126,4.67066795 L41.3764126,6.99884592 L41.3662837,6.99892302 C41.3463679,7.31253819 41.2973577,7.48771134 41.2216927,7.64437214 L41.2067156,7.67449462 L41.1910769,7.70434802 C41.1884155,7.70931189 41.1857267,7.71427261 41.1830106,7.71923419 C41.0568135,7.94975983 40.8716245,8.1306777 40.6356566,8.25396416 L40.5875607,8.27824218 L40.563291,8.28978049 L40.5387447,8.30091583 L40.5138252,8.31164632 L40.4884359,8.3219701 C40.4841598,8.32365673 40.4798601,8.32532634 40.4755349,8.32697888 L40.4492597,8.33668906 C40.4403882,8.33985732 40.4313981,8.34295701 40.4222733,8.34598783 L40.394479,8.35487331 L40.3657802,8.36334364 C40.3609164,8.36472066 40.3560108,8.36608031 40.3510615,8.36742253 L40.3208248,8.37526661 L40.2894422,8.38269084 L40.2894422,8.38269084 L40.2568171,8.38969334 L40.2228527,8.39627225 L40.1505202,8.40815177 C40.1442317,8.4090704 40.1378754,8.40997115 40.1314491,8.41085398 L40.092037,8.41593553 L40.0508511,8.42058504 L40.0077947,8.42480064 L39.9627712,8.42858046 L39.9394917,8.43030637 L39.9394917,8.43030637 L39.8913366,8.43342899 L39.840973,8.43611114 L39.7883042,8.43835093 L39.7332337,8.44014651 L39.675665,8.44149598 L39.6155013,8.44239748 L39.5526461,8.44284913 L37.6355157,8.44266667 L37.6357847,8.88351739 L38.2762628,8.88275117 C38.949079,8.88194627 39.6202746,8.8264265 40.2832396,8.71695136 C40.2597701,8.61876946 40.2338829,8.52110712 40.2065227,8.42277501 L41.5306196,8.4228568 C41.7658379,9.07119299 41.929983,9.69186595 42.0189725,10.2338978 L40.5558321,10.2338978 C40.5422887,10.0938605 40.5245155,9.94882082 40.5025082,9.79956989 C39.6736629,9.97859226 38.8286157,10.0697953 37.9802807,10.0697953 L31.4215157,10.0697953 L31.4215157,8.890971 L35.8255157,8.88466667 L35.8255157,8.44266667 L32.0851755,8.44290567 L32.0851755,4.67066795 L35.8255157,4.67066667 L35.8255157,4.19866667 L31.4215157,4.19913824 L31.4215157,3.13819638 L35.8255157,3.13766667 L35.8258034,2.66666667 L37.6357847,2.66666667 Z M35.8255157,6.99866667 L33.7744914,6.99884592 L33.7744914,7.55878746 L35.8255157,7.55866667 L35.8255157,6.99866667 Z M39.6870968,6.99884592 L37.6355157,6.99866667 L37.6355157,7.55866667 L39.2419149,7.5587088 L39.2768646,7.55808185 L39.308341,7.55683385 C39.382955,7.55294269 39.4279829,7.543287 39.4657433,7.52830006 L39.4805128,7.52202197 L39.4948244,7.51518139 C39.4971892,7.51399475 39.4995481,7.51278494 39.5019078,7.51155208 C39.5608998,7.48073046 39.607197,7.43550099 39.6387463,7.37786959 L39.6463378,7.36338771 C39.6608994,7.33420859 39.6717182,7.30303259 39.6785361,7.25717578 L39.6816105,7.23296526 C39.6848055,7.20315533 39.6866245,7.16763051 39.6870163,7.1238731 L39.6870968,6.99884592 Z M35.8255157,5.55466667 L33.7744914,5.55478617 L33.7744914,6.1147277 L35.8255157,6.11466667 L35.8255157,5.55466667 Z M39.6870968,5.55478617 L37.6355157,5.55466667 L37.6355157,6.11466667 L39.6870968,6.1147277 L39.6870968,5.55478617 Z" id="形状结合" fill="#FFFFFF" fill-rule="nonzero" mask="url(#mask-7)"></path>
            </g>
            <g id="编组-Clipped">
                <mask id="mask-9" fill="white">
                    <use xlink:href="#path-8"></use>
                </mask>
                <g id="path-1"></g>
                <g id="编组" mask="url(#mask-9)">
                    <g transform="translate(4.245374, 3.200000)">
                        <g transform="translate(0.000000, 0.000000)">
                            <g id="形状" fill-rule="nonzero">
                                <g id="path-6-link" fill="url(#linearGradient-10)">
                                    <path d="M9.32538802,0 L2.8900491,0 C2.57994611,0 2.28963262,0.152347227 2.11344503,0.407536963 L0.167120804,3.2265889 C-0.0816425094,3.58689716 -0.0499106436,4.07098796 0.243757976,4.39574013 L5.17093069,9.8444327 C5.52051025,10.2310137 6.11728634,10.2610094 6.50386738,9.91142981 C6.5175866,9.89902372 6.53093812,9.88621696 6.54390464,9.87302615 L11.9262474,4.39757893 C12.2435157,4.07482256 12.2869829,3.572273 12.0298445,3.19983424 L10.1019921,0.407536963 C9.9258045,0.152347227 9.63549101,0 9.32538802,0 Z" id="path-6"></path>
                                </g>
                                <g id="path-6-link" fill="url(#radialGradient-11)">
                                    <path d="M9.32538802,0 L2.8900491,0 C2.57994611,0 2.28963262,0.152347227 2.11344503,0.407536963 L0.167120804,3.2265889 C-0.0816425094,3.58689716 -0.0499106436,4.07098796 0.243757976,4.39574013 L5.17093069,9.8444327 C5.52051025,10.2310137 6.11728634,10.2610094 6.50386738,9.91142981 C6.5175866,9.89902372 6.53093812,9.88621696 6.54390464,9.87302615 L11.9262474,4.39757893 C12.2435157,4.07482256 12.2869829,3.572273 12.0298445,3.19983424 L10.1019921,0.407536963 C9.9258045,0.152347227 9.63549101,0 9.32538802,0 Z" id="path-6"></path>
                                </g>
                            </g>
                            <polygon id="路径" fill="#F51717" fill-rule="nonzero" points="5.39751974 7.03753894 2.02083644 3.08237389 2.7674157 3.04156457 5.39751974 4.52288217 9.85466889 1.34792836 10.56342 1.34792836"></polygon>
                        </g>
                    </g>
                </g>
            </g>
            <g id="官方补贴-Clipped">
                <mask id="mask-13" fill="white">
                    <use xlink:href="#path-12"></use>
                </mask>
                <g id="path-1"></g>
                <text id="官方补贴" fill="#FE2B1B" fill-rule="nonzero" mask="url(#mask-13)" font-family="SourceHanSansCN-Medium, Source Han Sans CN" font-size="11.7333333" font-weight="400">
                    <tspan x="52" y="12">官方补贴</tspan>
                </text>
            </g>
        </g>
    </g>
</svg>