<?xml version="1.0" encoding="UTF-8"?>
<svg width="15px" height="15px" viewBox="0 0 15 15" version="1.1" xmlns="http://www.w3.org/2000/svg" xmlns:xlink="http://www.w3.org/1999/xlink">
    <title>icon/common/naozhong</title>
    <defs>
        <linearGradient x1="50%" y1="0%" x2="50%" y2="100%" id="linearGradient-1">
            <stop stop-color="#FFECEC" offset="0%"></stop>
            <stop stop-color="#FFF3F3" offset="26.4443579%"></stop>
            <stop stop-color="#FFD7D7" offset="100%"></stop>
        </linearGradient>
        <linearGradient x1="6.37287369%" y1="41.9927629%" x2="50%" y2="100%" id="linearGradient-2">
            <stop stop-color="#FBD1B4" stop-opacity="0.112215909" offset="0%"></stop>
            <stop stop-color="#FFFFFF" stop-opacity="0" offset="100%"></stop>
        </linearGradient>
        <path d="M12.6250003,7.19385541 C12.6246458,5.96950368 12.2135512,4.77988224 11.4561683,3.8115033 C11.7642187,3.50330441 11.9622511,3.0888901 11.9622511,2.6222387 C11.960797,1.67512072 11.184968,0.907688301 10.2274874,0.90625 C9.54097519,0.90625 8.95303906,1.30673441 8.67227315,1.88134252 C8.14330666,1.71766629 7.58265499,1.62973382 6.99999971,1.62973382 C6.41734444,1.62973382 5.85493249,1.71766627 5.32684615,1.88134252 C5.04194701,1.2872175 4.43727941,0.907886677 3.77251199,0.90625 C2.81483068,0.907209796 2.03871864,1.67492216 2.03774835,2.6222387 C2.03774835,3.08889012 2.23666087,3.50330443 2.54383111,3.8115033 C1.78644822,4.77988224 1.37535367,5.96950368 1.375,7.19385541 C1.375,8.70699004 1.99022059,10.0790845 2.98390305,11.0829074 L2.01926533,12.0371051 C1.84743249,12.2073186 1.84762952,12.4830944 2.01970541,12.6530675 C2.19178129,12.8230407 2.47057439,12.8228458 2.64240723,12.6526322 L3.65105215,11.6549036 C4.58752526,12.3444333 5.7449145,12.7588476 6.99999971,12.7588476 C8.25508492,12.7588476 9.41159401,12.3444333 10.3489473,11.6549036 L11.3575922,12.6526322 C11.4399211,12.7349377 11.5521107,12.78125 11.6691631,12.78125 C11.7862156,12.78125 11.8984052,12.7349377 11.9807341,12.6526322 C12.1525302,12.4826441 12.1525302,12.2070932 11.9807341,12.0371051 L11.0160964,11.0829074 C12.0475948,10.0456609 12.6254629,8.64883412 12.6250003,7.19385541 Z M11.0829873,2.6222387 C11.0812073,2.82270694 11.0036571,3.01526049 10.8655918,3.16202204 C10.4596077,2.78086767 9.99830187,2.46188862 9.49696798,2.21565995 C9.64022351,1.94708895 9.92138693,1.7784094 10.2283676,1.77686831 C10.6992446,1.77686831 11.0829873,2.1564579 11.0829873,2.6222387 Z M4.50479173,2.21565995 C4.00380259,2.46210189 3.54256864,2.78073787 3.13616795,3.16115142 C2.99868415,3.01402645 2.92122732,2.82170462 2.91877241,2.62136808 C2.91877241,2.15558728 3.30251516,1.77686831 3.77339214,1.77686831 C4.09200423,1.77686831 4.36132827,1.95708631 4.50479173,2.21565995 Z" id="path-3"></path>
    </defs>
    <g id="详情页" stroke="none" stroke-width="1" fill="none" fill-rule="evenodd">
        <g id="03.7商品详情限时秒杀前" transform="translate(-300.000000, -380.000000)">
            <g id="bg_xq_xianshimiaosha" transform="translate(0.000000, 368.000000)">
                <g id="编组备份-2" transform="translate(141.000000, 6.000000)">
                    <g id="倒计时" transform="translate(151.500000, 1.000000)">
                        <g id="icon/common/naozhong" transform="translate(8.000000, 5.500000)">
                            <g id="形状结合">
                                <use fill="url(#linearGradient-1)" xlink:href="#path-3"></use>
                                <use fill="#F30300" xlink:href="#path-3"></use>
                                <use fill="url(#linearGradient-2)" xlink:href="#path-3"></use>
                            </g>
                            <path d="M7.44095181,6.75630407 L7.44095181,4.29058617 C7.44095181,4.04384486 7.24392489,3.84382151 7.00087986,3.84382151 C6.75783483,3.84382151 6.5608079,4.04384486 6.5608079,4.29058617 L6.5608079,7.2021752 C6.5608079,7.4489165 6.75783483,7.64893984 7.00087986,7.64893984 L8.98286612,7.64893984 C9.14462415,7.6562895 9.29729142,7.57286577 9.3803329,7.43174751 C9.46337438,7.29062924 9.46337438,7.11461468 9.3803329,6.97349641 C9.29729142,6.83237814 9.14462415,6.74895442 8.98286612,6.75630407 L7.44095181,6.75630407 Z" id="路径" fill="#FDFDFB"></path>
                        </g>
                    </g>
                </g>
            </g>
        </g>
    </g>
</svg>