<?xml version="1.0" encoding="UTF-8"?>
<svg width="15px" height="15px" viewBox="0 0 15 15" version="1.1" xmlns="http://www.w3.org/2000/svg" xmlns:xlink="http://www.w3.org/1999/xlink">
    <title>icon/common/naozhong</title>
    <defs>
        <radialGradient cx="22.2321144%" cy="18.5408316%" fx="22.2321144%" fy="18.5408316%" r="83.4142104%" gradientTransform="translate(0.222321,0.185408),scale(1.000000,0.947368),rotate(55.534100),translate(-0.222321,-0.185408)" id="radialGradient-1">
            <stop stop-color="#FFFFFF" stop-opacity="0.727300044" offset="0%"></stop>
            <stop stop-color="#FFFFFF" offset="100%"></stop>
        </radialGradient>
        <path d="M13.1250003,7.69385541 C13.1246458,6.46950368 12.7135512,5.27988224 11.9561683,4.3115033 C12.2642187,4.00330441 12.4622511,3.5888901 12.4622511,3.1222387 C12.460797,2.17512072 11.684968,1.4076883 10.7274874,1.40625 C10.0409752,1.40625 9.45303906,1.80673441 9.17227315,2.38134252 C8.64330666,2.21766629 8.08265499,2.12973382 7.49999971,2.12973382 C6.91734444,2.12973382 6.35493249,2.21766627 5.82684615,2.38134252 C5.54194701,1.7872175 4.93727941,1.40788668 4.27251199,1.40625 C3.31483068,1.4072098 2.53871864,2.17492216 2.53774835,3.1222387 C2.53774835,3.58889012 2.73666087,4.00330443 3.04383111,4.3115033 C2.28644822,5.27988224 1.87535367,6.46950368 1.875,7.69385541 C1.875,9.20699004 2.49022059,10.5790845 3.48390305,11.5829074 L2.51926533,12.5371051 C2.34743249,12.7073186 2.34762952,12.9830944 2.51970541,13.1530675 C2.69178129,13.3230407 2.97057439,13.3228458 3.14240723,13.1526322 L4.15105215,12.1549036 C5.08752526,12.8444333 6.2449145,13.2588476 7.49999971,13.2588476 C8.75508492,13.2588476 9.91159401,12.8444333 10.8489473,12.1549036 L11.8575922,13.1526322 C11.9399211,13.2349377 12.0521107,13.28125 12.1691631,13.28125 C12.2862156,13.28125 12.3984052,13.2349377 12.4807341,13.1526322 C12.6525302,12.9826441 12.6525302,12.7070932 12.4807341,12.5371051 L11.5160964,11.5829074 C12.5475948,10.5456609 13.1254629,9.14883412 13.1250003,7.69385541 Z M11.5829873,3.1222387 C11.5812073,3.32270694 11.5036571,3.51526049 11.3655918,3.66202204 C10.9596077,3.28086767 10.4983019,2.96188862 9.99696798,2.71565995 C10.1402235,2.44708895 10.4213869,2.2784094 10.7283676,2.27686831 C11.1992446,2.27686831 11.5829873,2.6564579 11.5829873,3.1222387 Z M5.00479173,2.71565995 C4.50380259,2.96210189 4.04256864,3.28073787 3.63616795,3.66115142 C3.49868415,3.51402645 3.42122732,3.32170462 3.41877241,3.12136808 C3.41877241,2.65558728 3.80251516,2.27686831 4.27339214,2.27686831 C4.59200423,2.27686831 4.86132827,2.45708631 5.00479173,2.71565995 Z" id="path-2"></path>
        <filter x="-22.2%" y="-21.1%" width="144.4%" height="142.1%" filterUnits="objectBoundingBox" id="filter-3">
            <feGaussianBlur stdDeviation="2" in="SourceAlpha" result="shadowBlurInner1"></feGaussianBlur>
            <feOffset dx="0" dy="1" in="shadowBlurInner1" result="shadowOffsetInner1"></feOffset>
            <feComposite in="shadowOffsetInner1" in2="SourceAlpha" operator="arithmetic" k2="-1" k3="1" result="shadowInnerInner1"></feComposite>
            <feColorMatrix values="0 0 0 0 1   0 0 0 0 1   0 0 0 0 1  0 0 0 1 0" type="matrix" in="shadowInnerInner1"></feColorMatrix>
        </filter>
    </defs>
    <g id="确定稿" stroke="none" stroke-width="1" fill="none" fill-rule="evenodd">
        <g id="03.7商品详情限时秒杀备份-3" transform="translate(-14.000000, -376.000000)">
            <g id="金额" transform="translate(0.000000, 368.000000)">
                <g id="icon/common/naozhong" transform="translate(14.000000, 8.000000)">
                    <g id="形状结合">
                        <use fill="url(#radialGradient-1)" fill-rule="evenodd" xlink:href="#path-2"></use>
                        <use fill="black" fill-opacity="1" filter="url(#filter-3)" xlink:href="#path-2"></use>
                    </g>
                    <path d="M7.94095181,7.25630407 L7.94095181,4.79058617 C7.94095181,4.54384486 7.74392489,4.34382151 7.50087986,4.34382151 C7.25783483,4.34382151 7.0608079,4.54384486 7.0608079,4.79058617 L7.0608079,7.7021752 C7.0608079,7.9489165 7.25783483,8.14893984 7.50087986,8.14893984 L9.48286612,8.14893984 C9.64462415,8.1562895 9.79729142,8.07286577 9.8803329,7.93174751 C9.96337438,7.79062924 9.96337438,7.61461468 9.8803329,7.47349641 C9.79729142,7.33237814 9.64462415,7.24895442 9.48286612,7.25630407 L7.94095181,7.25630407 Z" id="路径" fill="#F61310"></path>
                </g>
            </g>
        </g>
    </g>
</svg>