<?xml version="1.0" encoding="UTF-8"?>
<svg width="16px" height="16px" viewBox="0 0 16 16" version="1.1" xmlns="http://www.w3.org/2000/svg" xmlns:xlink="http://www.w3.org/1999/xlink">
    <title>icon_bnj_gao</title>
    <g id="页面-1" stroke="none" stroke-width="1" fill="none" fill-rule="evenodd">
        <g id="icon_bnj_gao" fill-rule="nonzero">
            <rect id="矩形" fill="#FEE6E6" x="0" y="0" width="16" height="16" rx="8"></rect>
            <g id="高" transform="translate(3.570000, 2.960000)" fill="#F30300">
                <path d="M5.49,7.66 L3.29,7.66 L3.29,7.09 L5.49,7.09 L5.49,7.66 Z M8.6,4.93 L0.28,4.93 L0.28,9.4 L1.43,9.4 L1.43,5.89 L7.4,5.89 L7.4,8.31 C7.4,8.44 7.34,8.48 7.2,8.48 C7.1,8.49 6.75,8.49 6.4,8.48 L6.54,8.48 L6.54,6.26 L2.19,6.26 L2.19,8.9 L3.29,8.9 L3.29,8.48 L6.15,8.48 C6.28,8.72 6.44,9.06 6.5,9.32 C7.19,9.33 7.73,9.32 8.09,9.2 C8.47,9.05 8.6,8.84 8.6,8.32 L8.6,4.93 Z M6.39,3.73 L2.52,3.73 L2.52,3.18 L6.39,3.18 L6.39,3.73 Z M7.64,2.38 L1.33,2.38 L1.33,4.52 L7.64,4.52 L7.64,2.38 Z M5.23,1 C5.11,0.68 4.95,0.31 4.84,0 L3.61,0.3 C3.69,0.51 3.77,0.76 3.85,1 L0,1 L0,2 L8.83,2 L8.83,1 L5.23,1 Z" id="形状"></path>
            </g>
        </g>
    </g>
</svg>