<?xml version="1.0" encoding="UTF-8"?>
<svg width="12px" height="13px" viewBox="0 0 12 13" version="1.1" xmlns="http://www.w3.org/2000/svg" xmlns:xlink="http://www.w3.org/1999/xlink">
    <title>VS</title>
    <g id="搜索" stroke="none" stroke-width="1" fill="none" fill-rule="evenodd">
        <g id="02.1搜索" transform="translate(-160.000000, -1845.000000)">
            <g id="列表" transform="translate(10.000000, 176.000000)">
                <g id="list1备份-29" transform="translate(0.000000, 1609.000000)">
                    <g id="抢" transform="translate(144.000000, 53.000000)">
                        <g transform="translate(0.000000, 3.000000)" id="到手价">
                            <g transform="translate(6.000000, 2.500000)">
                                <g id="轮廓" transform="translate(0.000000, 2.000000)">
                                    <polygon id="路径" fill="#F30300" points="2.95058154 9.81818182 6.40654995 2.18181818 4.57668878 2.18181818 2.50706441 6.93072889 1.79460081 2.18181818 0.272727273 2.18181818 1.40322704 9.81818182"></polygon>
                                    <path d="M8.55008513,2.18181818 L11.7272727,2.18181818 L11.7272727,3.61503896 L8.66155897,3.61503896 C7.88070469,3.61503896 7.50719534,4.62626263 8.29392527,4.93340731 C9.31373026,5.38646163 9.96953499,5.67386313 10.2613394,5.79561181 C12.2357222,6.61937747 11.9548017,9.63114177 8.7628931,9.73945034 L8.65218978,9.74132077 L5.57444078,9.75741371 L5.57444078,8.32419293 L8.7628931,8.30809999 C9.97790324,8.30809999 10.2387458,7.32235503 9.46144115,6.92197494 C9.1680801,6.77086826 7.99068197,6.34406402 7.80154175,6.2791427 C5.40320783,5.45592799 6.22018568,2.27921709 8.44629302,2.18402467 L8.55008513,2.18181818 Z" id="路径-30" fill="#0032A4"></path>
                                </g>
                            </g>
                        </g>
                    </g>
                </g>
            </g>
        </g>
    </g>
</svg>