<?xml version="1.0" encoding="UTF-8"?>
<svg width="22px" height="22px" viewBox="0 0 22 22" version="1.1" xmlns="http://www.w3.org/2000/svg" xmlns:xlink="http://www.w3.org/1999/xlink">
    <!-- Generator: Sketch 60 (88103) - https://sketch.com -->
    <title>h5 svg/btn/common/close</title>
    <desc>Created with Sketch.</desc>
    <g id="h5-svg/btn/common/close" stroke="none" stroke-width="1" fill-rule="evenodd">
        <rect id="矩形" opacity="0" x="0" y="0" width="22" height="22"></rect>
        <path d="M20.2270919,1.84231554 C20.819387,2.43461072 20.819387,3.39491094 20.2270919,3.98720611 L13.0675802,11.145664 L20.0807756,18.1591101 C20.6730708,18.7514053 20.6730708,19.7117055 20.0807756,20.3040007 C19.4884804,20.8962959 18.5281802,20.8962959 17.935885,20.3040007 L10.9229254,13.2903189 L3.98720611,20.2270919 C3.39491094,20.819387 2.43461072,20.819387 1.84231554,20.2270919 C1.25002037,19.6347967 1.25002037,18.6744965 1.84231554,18.0822013 L8.77827049,11.145664 L1.69599928,4.06411498 C1.1037041,3.4718198 1.1037041,2.51151958 1.69599928,1.91922441 C2.28829446,1.32692923 3.24859467,1.32692923 3.84088985,1.91922441 L10.9229254,9.00100913 L18.0822013,1.84231554 C18.6744965,1.25002037 19.6347967,1.25002037 20.2270919,1.84231554 Z" id="路径"></path>
    </g>
</svg>