<?xml version="1.0" encoding="UTF-8"?>
<svg width="22px" height="22px" viewBox="0 0 22 22" version="1.1" xmlns="http://www.w3.org/2000/svg" xmlns:xlink="http://www.w3.org/1999/xlink">
    <!-- Generator: Sketch 58 (84663) - https://sketch.com -->
    <title>btn_common_checkbox_nor</title>
    <desc>Created with Sketch.</desc>
    <g id="btn_common_checkbox_nor" stroke="none" stroke-width="1" fill-rule="evenodd">
        <path d="M4.7,0.5 L17.3,0.5 C19.6195959,0.5 21.5,2.38040405 21.5,4.7 L21.5,17.3 C21.5,19.6195959 19.6195959,21.5 17.3,21.5 L4.7,21.5 C2.38040405,21.5 0.5,19.6195959 0.5,17.3 L0.5,4.7 C0.5,2.38040405 2.38040405,0.5 4.7,0.5 Z M4.7,1.025 C2.67035354,1.025 1.025,2.67035354 1.025,4.7 L1.025,17.3 C1.025,19.3296465 2.67035354,20.975 4.7,20.975 L17.3,20.975 C19.3296465,20.975 20.975,19.3296465 20.975,17.3 L20.975,4.7 C20.975,2.67035354 19.3296465,1.025 17.3,1.025 L4.7,1.025 Z" id="icon_checkbox_nor" fill-rule="nonzero"></path>
    </g>
</svg>