<?xml version="1.0" encoding="UTF-8"?>
<svg width="22px" height="22px" viewBox="0 0 22 22" version="1.1" xmlns="http://www.w3.org/2000/svg" xmlns:xlink="http://www.w3.org/1999/xlink">
    <!-- Generator: Sketch 60 (88103) - https://sketch.com -->
    <title>h5 svg/icon/train/arrow@2x</title>
    <desc>Created with Sketch.</desc>
    <g id="h5-svg/icon/train/arrow" stroke="none" stroke-width="1" fill-rule="evenodd">
        <path d="M13.3239234,-1.39830387 C13.9908683,-1.92609766 14.9593953,-1.81329341 15.4871891,-1.14634853 C15.6594037,-0.928730031 15.7688042,-0.669695441 15.8056758,-0.397175445 L15.8195786,-0.19069335 L15.8195786,16.9826793 C15.8195786,17.5901925 15.3270918,18.0826793 14.7195786,18.0826793 C14.1795668,18.0826793 13.7304401,17.693554 13.637301,17.1804057 L13.6195786,16.9826793 L13.618,1.1748 L9.48261084,4.44709916 C9.05915378,4.78220633 8.46549161,4.75577668 8.07401852,4.41118294 L7.93742105,4.26713106 C7.60231389,3.843674 7.62874354,3.25001183 7.97333728,2.85853874 L8.11738916,2.72194127 L13.3239234,-1.39830387 Z" id="直线-2" transform="translate(11.759767, 8.175962) rotate(-270.000000) translate(-11.759767, -8.175962) "></path>
    </g>
</svg>