<?xml version="1.0" encoding="UTF-8"?>
<svg width="22px" height="22px" viewBox="0 0 22 22" version="1.1" xmlns="http://www.w3.org/2000/svg" xmlns:xlink="http://www.w3.org/1999/xlink">
    <!-- Generator: Sketch 60 (88103) - https://sketch.com -->
    <title>h5 svg/icon/train/sort3@2x</title>
    <desc>Created with Sketch.</desc>
    <g id="h5-svg/icon/train/sort3" stroke="none" stroke-width="1" fill-rule="evenodd">
        <g id="分组-7" transform="translate(1.833333, 0.000000)" fill-rule="nonzero">
            <path d="M5.5370142,1.24984162 C6.06177365,0.773421689 6.8733899,0.812608611 7.34980984,1.33736806 C7.52132761,1.52628874 7.63164721,1.76089017 7.66891435,2.01047976 L7.68298213,2.20000266 L7.68298213,20.7628388 C7.68298213,21.2690998 7.27257648,21.6795055 6.76631546,21.6795055 C6.31630567,21.6795055 5.94203345,21.3552344 5.86441752,20.9276108 L5.8496488,20.7628388 L5.84833333,3.443 L2.4495009,6.52912941 C2.1163203,6.83161826 1.6212452,6.84311205 1.27633832,6.57867799 L1.15464688,6.46661052 C0.852158032,6.13342992 0.840664236,5.63835482 1.1050983,5.29344795 L1.21716576,5.1717565 L5.5370142,1.24984162 Z" id="直线-2" fill="#333333"></path>
            <path d="M15.8477751,1.20488275 C16.3973696,0.757340165 17.2057089,0.840069555 17.6532515,1.38966401 C17.8023849,1.57280397 17.8973557,1.79259834 17.9293787,2.02434575 L17.941456,2.20001155 L17.941456,20.6049979 C17.941456,21.1112589 17.5310503,21.5216646 17.0247893,21.5216646 C16.5747795,21.5216646 16.2005073,21.1973935 16.1228914,20.7697699 L16.1081227,20.6049979 L16.1076667,3.355 L13.412153,5.55253923 C13.0632041,5.83669325 12.5682264,5.82157561 12.2380227,5.53899538 L12.1225271,5.42055261 C11.838373,5.07160375 11.8534907,4.57662606 12.1360709,4.24642227 L12.2545137,4.13092666 L15.8477751,1.20488275 Z" id="直线-2-copy" transform="translate(14.929047, 11.219151) scale(-1, -1) translate(-14.929047, -11.219151) "></path>
        </g>
    </g>
</svg>