<?xml version="1.0" encoding="UTF-8"?>
<svg width="22px" height="22px" viewBox="0 0 22 22" version="1.1" xmlns="http://www.w3.org/2000/svg" xmlns:xlink="http://www.w3.org/1999/xlink">
    <!-- Generator: Sketch 60 (88103) - https://sketch.com -->
    <title>h5 svg/icon/common/prompt</title>
    <desc>Created with Sketch.</desc>
    <g id="h5-svg/icon/common/prompt" stroke="none" stroke-width="1" fill-rule="evenodd">
        <rect id="矩形" opacity="0" x="0" y="0" width="22" height="22"></rect>
        <path d="M11,0.5 C16.7989899,0.5 21.5,5.20101013 21.5,11 C21.5,16.7989899 16.7989899,21.5 11,21.5 C5.20101013,21.5 0.5,16.7989899 0.5,11 C0.5,5.20101013 5.20101013,0.5 11,0.5 Z M11,2.07142857 C6.06888616,2.07142857 2.07142857,6.06888616 2.07142857,11 C2.07142857,15.9311138 6.06888616,19.9285714 11,19.9285714 C15.9311138,19.9285714 19.9285714,15.9311138 19.9285714,11 C19.9285714,6.06888616 15.9311138,2.07142857 11,2.07142857 Z" id="椭圆形"></path>
        <path d="M9.67320033,6.52769252 C9.67320033,6.11130279 9.82231064,5.75259405 10.1205357,5.45155552 C10.4187608,5.150517 10.7760628,5 11.1924526,5 C11.6144692,5 11.9717712,5.1491103 12.2643694,5.44733538 C12.5569676,5.74556046 12.7032645,6.1056759 12.7032645,6.52769252 C12.7032645,6.94970914 12.5555609,7.30982459 12.2601493,7.60804967 C11.9647376,7.90627474 11.6088423,8.05538504 11.1924526,8.05538504 C10.7591822,8.05538504 10.39766,7.90205464 10.1078753,7.59538923 C9.81809053,7.28872382 9.67320033,6.93282848 9.67320033,6.52769252 Z M12.5175781,9.45647321 L12.5175781,14.6303711 C12.5175781,15.0580146 12.5850998,15.3520151 12.7201451,15.5123814 C12.8551904,15.6727477 13.1702914,15.7529297 13.6654576,15.7529297 L13.6654576,16.6476004 L8.5,16.6476004 L8.5,15.7529297 L8.69412667,15.7529297 C9.17241218,15.7529297 9.47485288,15.6685276 9.60145787,15.499721 C9.72806285,15.3309143 9.7913644,15.0411339 9.7913644,14.6303711 L9.7913644,12.1151646 C9.7913644,11.6987749 9.72665615,11.4075878 9.59723772,11.2415946 C9.46781929,11.0756014 9.16678529,10.992606 8.69412667,10.992606 L8.5,10.992606 L8.5,10.0979353 L12.5175781,9.45647321 Z" id="i"></path>
    </g>
</svg>