<?xml version="1.0" encoding="UTF-8"?>
<svg width="22px" height="22px" viewBox="0 0 22 22" version="1.1" xmlns="http://www.w3.org/2000/svg" xmlns:xlink="http://www.w3.org/1999/xlink">
    <title>icon_plane_supplier</title>
    <g id="页面-1" stroke="none" stroke-width="1" fill="none" fill-rule="evenodd">
        <g id="icon_plane_supplier" fill="#000000" fill-rule="nonzero">
            <path d="M11,0 C15.6566738,0 19.4455508,3.72777539 19.4455508,8.32332617 C19.4455508,9.64332617 19.1277754,10.89 18.5777754,11.99 L18.5777754,11.99 L22,17.8322031 C22,17.8322031 19.8244492,18.2722031 17.6244492,18.7244492 L17.6244492,18.7244492 L14.6911016,22 L11.5377754,16.6222246 C11.3544492,16.6344277 11.1833262,16.6466738 11,16.6466738 L11,16.6466738 L10.4622246,16.6222246 L7.30889844,22 L4.37555078,18.7244492 C2.17555078,18.2722246 0,17.8322246 0,17.8322246 L0,17.8322246 L3.42220313,11.99 C2.87220312,10.8777754 2.55444922,9.64332617 2.55444922,8.32332617 C2.55444922,3.72777539 6.33110156,0 11,0 Z M11,1.36889844 C7.21110156,1.36889844 4.13110156,4.44889844 4.13110156,8.25 C4.13110156,12.0511016 7.21110156,15.1311016 11,15.1311016 C14.7888984,15.1311016 17.8688984,12.0511016 17.8688984,8.25 C17.8688984,4.44889844 14.7888984,1.36889844 11,1.36889844 Z" id="形状结合"></path>
            <g id="供" transform="translate(7.192000, 4.304000)">
                <path d="M1.896,0 C1.464,1.176 0.752,2.336 0,3.08 C0.12,3.256 0.336,3.656 0.408,3.84 C0.632,3.6 0.856,3.328 1.072,3.032 L1.072,7.32 L1.8,7.32 L1.8,1.888 C2.104,1.36 2.376,0.784 2.592,0.224 L1.896,0 Z M3.664,5.24 C3.328,5.832 2.784,6.44 2.224,6.832 C2.392,6.944 2.68,7.168 2.816,7.304 C3.36,6.856 3.976,6.16 4.368,5.464 L3.664,5.24 Z M5.432,5.584 C5.952,6.112 6.52,6.84 6.784,7.328 L7.408,6.928 C7.128,6.456 6.552,5.768 6.032,5.256 L5.432,5.584 Z M4.208,2.328 L5.584,2.328 L5.584,4.128 L4.208,4.128 L4.208,2.328 Z M6.312,4.128 L6.312,2.328 L7.4,2.328 L7.4,1.616 L6.312,1.616 L6.312,0.048 L5.584,0.048 L5.584,1.616 L4.208,1.616 L4.208,0.064 L3.48,0.064 L3.48,1.616 L2.52,1.616 L2.52,2.328 L3.48,2.328 L3.48,4.128 L2.328,4.128 L2.328,4.856 L7.48,4.856 L7.48,4.128 L6.312,4.128 Z" id="形状"></path>
            </g>
        </g>
    </g>
</svg>