<?xml version="1.0" encoding="UTF-8"?>
<svg width="22px" height="22px" viewBox="0 0 22 22" version="1.1" xmlns="http://www.w3.org/2000/svg" xmlns:xlink="http://www.w3.org/1999/xlink">
    <!-- Generator: Sketch 60 (88103) - https://sketch.com -->
    <title>h5 svg/icon/plane/close</title>
    <desc>Created with Sketch.</desc>
    <g id="h5-svg/icon/plane/close" stroke="none" stroke-width="1" fill="none" fill-rule="evenodd">
        <g>
            <path d="M22,0 L22,19.0666667 C22,20.6867019 20.6867019,22 19.0666667,22 L7.10542736e-15,22 L7.10542736e-15,22 L22,0 Z" id="矩形" fill="#262DD9" transform="translate(11.000000, 11.000000) scale(1, -1) translate(-11.000000, -11.000000) "></path>
            <g id="编组-5" transform="translate(11.733333, 2.933333)" fill="#FFFFFF" fill-rule="nonzero">
                <path d="M6.23513499,0.863267033 C6.5209416,0.665272824 6.91609739,0.693557711 7.17066137,0.948121694 C7.45704585,1.23450617 7.45704585,1.69882716 7.17066137,1.98521164 L7.17066137,1.98521164 L5.09633333,4.05933333 L7.17066137,6.13357142 C7.45704585,6.4199559 7.45704585,6.88427689 7.17066137,7.17066137 C6.91609739,7.42522535 6.5209416,7.45351024 6.23513499,7.25551603 L6.13357142,7.17066137 L4.05933333,5.09633333 L1.98521164,7.17066137 L1.88364807,7.25551603 C1.59784146,7.45351024 1.20268568,7.42522535 0.948121694,7.17066137 C0.661737213,6.88427689 0.661737213,6.4199559 0.948121694,6.13357142 L0.948121694,6.13357142 L3.02233333,4.05933333 L0.948121694,1.98521164 C0.661737213,1.69882716 0.661737213,1.23450617 0.948121694,0.948121694 C1.20268568,0.693557711 1.59784146,0.665272824 1.88364807,0.863267033 L1.98521164,0.948121694 L4.05933333,3.02233333 L6.13357142,0.948121694 Z" id="形状结合"></path>
            </g>
        </g>
        <rect id="矩形备份-5" stroke="#33CFB1" x="-10.5" y="-12.5" width="43" height="169"></rect>
    </g>
</svg>