<?xml version="1.0" encoding="UTF-8"?>
<svg width="19px" height="22px" viewBox="0 0 19 22" version="1.1" xmlns="http://www.w3.org/2000/svg" xmlns:xlink="http://www.w3.org/1999/xlink">
    <title>svg_icon_invoice_import</title>
    <g id="页面-1" stroke="none" stroke-width="1" fill="none" fill-rule="evenodd">
        <g id="svg_icon_invoice_import" transform="translate(0.400000, 0.494745)" fill="#666666" fill-rule="nonzero">
            <path d="M5.0696107,4.90525547 C5.40098155,4.90525547 5.6696107,5.17388462 5.6696107,5.50525547 C5.6696107,5.80348923 5.45202109,6.05090222 5.16693382,6.09740248 L5.0696107,6.10525547 L1.6,6.10525547 C1.38548694,6.10525547 1.244833,6.18980081 1.20902398,6.24761859 L1.2,6.27378503 L1.2,16.5052555 C1.2,16.8366263 0.93137085,17.1052555 0.6,17.1052555 C0.301766235,17.1052555 0.054353247,16.8876659 0.007852987,16.6025786 L0,16.5052555 L0,6.27378503 C0,5.52513529 0.66054708,4.97344711 1.45049752,4.9111331 L1.6,4.90525547 L5.0696107,4.90525547 Z" id="路径"></path>
            <path d="M15.6,4.90525547 C16.4145859,4.90525547 17.11767,5.4565294 17.1932763,6.20855254 L17.2,6.34327506 L17.2,12.5052555 C17.2,12.8366263 16.9313708,13.1052555 16.6,13.1052555 C16.3017662,13.1052555 16.0543532,12.8876659 16.007853,12.6025786 L16,12.5052555 L16,6.34327506 C16,6.25081512 15.8790824,6.13792633 15.6866872,6.11114881 L15.6,6.10525547 L12.2996032,6.10525547 C11.9682323,6.10525547 11.6996032,5.83662632 11.6996032,5.50525547 C11.6996032,5.20702171 11.9171928,4.95960872 12.2022801,4.91310846 L12.2996032,4.90525547 L15.6,4.90525547 Z" id="路径"></path>
            <path d="M0.6,13.2554149 C0.89823376,13.2554149 1.14564675,13.4730045 1.19214701,13.7580918 L1.2,13.8554149 L1.2,19.3552555 C1.2,19.5485552 1.3371128,19.7098304 1.51938605,19.7471289 L1.6,19.7552555 L8.35185547,19.7552555 C8.68322632,19.7552555 8.95185547,20.0238847 8.95185547,20.3552555 C8.95185547,20.6534893 8.73426586,20.9009023 8.44917859,20.9474025 L8.35185547,20.9552555 L1.6,20.9552555 C0.76543638,20.9552555 0.080110215,20.316294 0.006538677,19.5008881 L0,19.3552555 L0,13.8554149 C0,13.5240441 0.26862915,13.2554149 0.6,13.2554149 Z" id="路径"></path>
            <g id="分组" transform="translate(8.619548, 7.486929) scale(-1, 1) rotate(90.000000) translate(-8.619548, -7.486929) translate(1.132619, 3.618842)">
                <path d="M6.79554583,-2.94762998 C7.1269165,-2.94797398 7.39582517,-2.67962464 7.39617016,-2.34825397 L7.40908619,10.0570007 C7.40943019,10.3883714 7.14108085,10.65728 6.80971018,10.657626 C6.47833951,10.65797 6.20943084,10.3896207 6.20908585,10.05825 L6.19616981,-2.34700466 C6.19582582,-2.67837533 6.46417516,-2.947284 6.79554583,-2.94762998 Z" id="Path-32" transform="translate(6.802628, 3.854998) rotate(-90.000000) translate(-6.802628, -3.854998) "></path>
                <path d="M8.94405719,1.13612217 C9.24205485,1.12425729 9.4979285,1.33183161 9.55573381,1.61484323 L9.56745241,1.71177688 L9.71425601,5.39953901 L13.2436233,5.40053679 C13.5418571,5.40053679 13.7892701,5.6181264 13.8357703,5.90321367 L13.8436233,6.00053679 C13.8436233,6.29877055 13.6260337,6.54618354 13.3409464,6.5926838 L13.2436233,6.60053679 L9.13773543,6.60053679 C8.84785944,6.60053679 8.60452412,6.39455356 8.5494146,6.11874325 L8.53821044,6.02440707 L8.36840248,1.75951744 C8.35521929,1.42840893 8.61294868,1.14930536 8.94405719,1.13612217 Z" id="Path-19" transform="translate(11.105771, 3.868087) rotate(-135.000000) translate(-11.105771, -3.868087) "></path>
            </g>
            <g id="企" transform="translate(10.756000, 14.216000)">
                <path d="M4.2,4.696 L6.424,4.696 L6.424,4.032 L4.2,4.032 L4.2,2.28 L3.416,2.28 L3.416,6.512 L2.072,6.512 L2.072,3.648 L1.344,3.648 L1.344,6.512 L0.392,6.512 L0.392,7.192 L7.152,7.192 L7.152,6.512 L4.2,6.512 L4.2,4.696 Z M3.68,0 C2.888,1.2 1.448,2.232 0,2.8 C0.192,2.976 0.4,3.24 0.512,3.432 C1.712,2.888 2.88,2.072 3.752,1.088 C4.808,2.256 5.888,2.896 7.048,3.44 C7.136,3.208 7.344,2.952 7.528,2.792 C6.336,2.312 5.176,1.704 4.168,0.576 C4.232,0.488 4.296,0.408 4.352,0.32 L3.68,0 Z" id="形状"></path>
            </g>
        </g>
    </g>
</svg>