<svg xmlns="http://www.w3.org/2000/svg" width="32" height="32" viewBox="0 0 32 32">
  <defs>
    <style>
      .cls-1 {
        fill: #f62;
        fill-rule: evenodd;
      }
    </style>
  </defs>
  <path id="icon_route_hotel" class="cls-1" d="M2994,2307.09h11a4,4,0,0,1,4,4v21.97h-19v-21.97A4,4,0,0,1,2994,2307.09Zm-5,25.97h28v2h-28v-2Zm20-20h3a4,4,0,0,1,4,4v16h-7v-20Zm-15-4h11a2.006,2.006,0,0,1,2,2v22h-15v-22A2.006,2.006,0,0,1,2994,2309.06Zm1.01,4.02h9v0.99h-9v-0.99Zm0,4.99h9v1.01h-9v-1.01Zm1.93,4.99h5.14a1.886,1.886,0,0,1,1.93,1.83v8.19h-9v-8.19A1.886,1.886,0,0,1,2996.94,2323.06Zm-0.25,1.01h5.6a0.664,0.664,0,0,1,.7.63v8.38h-7v-8.38A0.671,0.671,0,0,1,2996.69,2324.07Zm12.31-9.01h3a2.006,2.006,0,0,1,2,2v16h-5v-18Z" transform="translate(-2987 -2305.075)"/>
</svg>
