<svg xmlns="http://www.w3.org/2000/svg" width="30" height="30" viewBox="0 0 30 30">
  <defs>
    <style>
      .cls-1 {
        fill: #737fa1;
        fill-rule: evenodd;
      }
    </style>
  </defs>
  <path id="icon_hotel_business" class="cls-1" d="M1408,2462.31v6.75h-28.01v-6.75a2.787,2.787,0,0,1,.78-1.99,2.531,2.531,0,0,1,1.89-.82h4.9v-2.82a1.685,1.685,0,0,1,.46-1.2,1.53,1.53,0,0,1,1.14-.49h9.65a1.5,1.5,0,0,1,1.14.49,1.693,1.693,0,0,1,.47,1.2v2.82h4.89a2.536,2.536,0,0,1,1.89.82A2.723,2.723,0,0,1,1408,2462.31Zm0,8.44v8.45a2.806,2.806,0,0,1-.78,1.98,2.541,2.541,0,0,1-1.89.83h-22.66a2.51,2.51,0,0,1-1.89-.83,2.748,2.748,0,0,1-.79-1.98v-8.45h10.25v2.81a1.143,1.143,0,0,0,.32.8,1,1,0,0,0,.75.33h5.36a1.039,1.039,0,0,0,.76-0.33,1.134,1.134,0,0,0,.31-0.8v-2.81H1408Zm-18.29-11.26h8.57v-2.26h-8.57v2.26Zm6.43,11.26V2473h-4.29v-2.25h4.29Z" transform="translate(-1379 -2453.5)"/>
</svg>
