<svg xmlns="http://www.w3.org/2000/svg" width="30" height="30" viewBox="0 0 30 30">
  <defs>
    <style>
      .cls-1 {
        fill: #737fa1;
        fill-rule: evenodd;
      }
    </style>
  </defs>
  <path id="icon_hotel_swimmingpool2" class="cls-1" d="M589.523,2469.28c3.12-.21,5.464-1.04,6.965-2.47,1.81-1.72,2.666-1.74,2.9-1.75h2.438a0.856,0.856,0,0,0,.853-0.93,15.387,15.387,0,0,0-.493-2.78c-0.786-2.83-2.33-4.77-4.465-5.6-4.376-1.7-7.139,0-7.439.2l2.183,3.27-0.048.03c0.056-.04,1.42-0.79,3.869.16a3.415,3.415,0,0,1,1.729,1.93,10.134,10.134,0,0,0-4.248,2.63c-0.785.75-2.367,1.24-4.453,1.39a19.933,19.933,0,0,1-3.337-.05l-0.468,3.9a21.846,21.846,0,0,0,2.434.12c0.485,0,1.02-.01,1.578-0.05h0Zm14.988-9.5a3.754,3.754,0,1,0,3.754-3.74,3.751,3.751,0,0,0-3.754,3.74h0ZM615,2472.51a17.959,17.959,0,0,0-5.151-2.23c-4.093-1.02-7.708-.18-10.452,2.43-0.951.91-3.015,1.83-7.442,1.1a28.913,28.913,0,0,1-5.467-1.49l-0.743,1.81L585,2475.95a32.574,32.574,0,0,0,6.236,1.73,22.692,22.692,0,0,0,3.631.32,16.277,16.277,0,0,0,1.89-.11,9.211,9.211,0,0,0,5.361-2.34,6.2,6.2,0,0,1,3.263-1.66,8.745,8.745,0,0,1,3.415.18,14,14,0,0,1,4,1.69h0Z" transform="translate(-585 -2451.5)"/>
</svg>
