<svg xmlns="http://www.w3.org/2000/svg" width="30" height="30" viewBox="0 0 30 30">
  <defs>
    <style>
      .cls-1 {
        fill: #737fa1;
        fill-rule: evenodd;
      }
    </style>
  </defs>
  <path id="icon_hotel_gym" class="cls-1" d="M1411.5,2358a1.5,1.5,0,0,1-1.5-1.5v2a1.5,1.5,0,0,1-3,0v2a1.5,1.5,0,0,1-3,0V2354h-12v6.5a1.5,1.5,0,0,1-3,0v-2a1.5,1.5,0,0,1-3,0v-2a1.5,1.5,0,0,1-3,0v-9a1.5,1.5,0,0,1,3,0v-2a1.5,1.5,0,0,1,3,0v-2a1.5,1.5,0,0,1,3,0v7.5h12v-7.5a1.5,1.5,0,0,1,3,0v2a1.5,1.5,0,0,1,3,0v2a1.5,1.5,0,0,1,3,0v9A1.5,1.5,0,0,1,1411.5,2358Z" transform="translate(-1383 -2337)"/>
</svg>
