<svg xmlns="http://www.w3.org/2000/svg" width="30" height="30" viewBox="0 0 30 30">
  <defs>
    <style>
      .cls-1 {
        fill: #737fa1;
        fill-rule: evenodd;
      }
    </style>
  </defs>
  <path id="icon_hotel_meetingroom" class="cls-1" d="M444,2348.43a2.21,2.21,0,0,0,2.209,2.16,2.274,2.274,0,0,0,2.208-2.16A2.209,2.209,0,0,0,444,2348.43Zm8.354,13.84-3.841-1.88v-8.01a0.952,0.952,0,0,0-.96-0.94h-2.593a0.955,0.955,0,0,0-.96.94v8.29a0.913,0.913,0,0,0,.672.85l5.858,2.35v5.18a0.952,0.952,0,0,0,.96.94h0.576a0.955,0.955,0,0,0,.96-0.94v-5.93A1.24,1.24,0,0,0,452.355,2362.27Zm14.116-13.84a2.209,2.209,0,0,0,4.417,0,2.152,2.152,0,0,0-2.208-2.17A2.1,2.1,0,0,0,466.471,2348.43Zm3.457,3.01h-2.592a0.955,0.955,0,0,0-.961.94v8.01l-3.841,1.88a0.821,0.821,0,0,0-.576.85v5.93a0.952,0.952,0,0,0,.96.94h0.576a0.956,0.956,0,0,0,.961-0.94v-5.18l5.857-2.35a0.914,0.914,0,0,0,.673-0.85v-8.29A1.218,1.218,0,0,0,469.928,2351.44Zm-13.828,8h-0.576a0.957,0.957,0,0,0-.96.95v6.21a0.952,0.952,0,0,0,.96.94H456.1a0.949,0.949,0,0,0,.961-0.94v-6.21A1.119,1.119,0,0,0,456.1,2359.44Zm3.265,0h-0.576a0.957,0.957,0,0,0-.96.95v6.21a0.952,0.952,0,0,0,.96.94h0.576a0.949,0.949,0,0,0,.96-0.94v-6.21A1.031,1.031,0,0,0,459.365,2359.44Zm-4.129-13.27a2.21,2.21,0,0,0,2.209,2.16,2.274,2.274,0,0,0,2.208-2.16,2.152,2.152,0,0,0-2.208-2.17A2.215,2.215,0,0,0,455.236,2346.17Zm-4.513,12.14h13.444a0.745,0.745,0,0,0,.768-0.75,0.812,0.812,0,0,0-.768-0.75h-3.649v-6.31a0.953,0.953,0,0,0-.961-0.94h-4.225a0.949,0.949,0,0,0-.96.94v6.31h-3.649A0.75,0.75,0,1,0,450.723,2358.31Z" transform="translate(-442.5 -2342)"/>
</svg>
