<svg xmlns="http://www.w3.org/2000/svg" width="30" height="30" viewBox="0 0 30 30">
  <defs>
    <style>
      .cls-1 {
        fill: #737fa1;
        fill-rule: evenodd;
      }
    </style>
  </defs>
  <path id="icon_hotel_restaurant" class="cls-1" d="M469,2480.2a1.491,1.491,0,0,1-1.71,1.76c-1.342,0-1.635-.69-1.632-1.77l-0.043-10.23c-0.049,0-3.807-.39-5.073-3.29,0,0,1.54-13.67,7.329-13.66,1.478,0,1.055,2.99,1.055,2.99Zm-17.171-13.79h-0.686l0.966,13.82c0,1.08-1.274,1.77-2.617,1.77s-2.548-.69-2.548-1.77l1-13.8-0.725-.01c-0.551,0-3.211-3.74-3.211-4.39l1.249-8.95c0,0.01,1.751.05,1.751,0.05l-0.024,5.89c0,0.68-.024,1.2.858,1.2s0.894-.52.894-1.2v-5.89h2.4v5.97c0,0.68.116,1.11,1,1.11s0.867-.43.867-1.11v-5.97h1.458l1.229,8.9C455.694,2462.69,452.37,2466.41,451.827,2466.41Z" transform="translate(-441.5 -2452.5)"/>
</svg>
