<svg xmlns="http://www.w3.org/2000/svg" width="30" height="30" viewBox="0 0 30 30">
  <defs>
    <style>
      .cls-1 {
        fill: #737fa1;
        fill-rule: evenodd;
      }
    </style>
  </defs>
  <path id="icon_hotel_broadband" class="cls-1" d="M739,2350h26a2,2,0,0,1,2,2v9a2,2,0,0,1-2,2H739a2,2,0,0,1-2-2v-9A2,2,0,0,1,739,2350Zm22.5-12a1.5,1.5,0,0,1,1.5,1.5v12a1.5,1.5,0,0,1-3,0v-12A1.5,1.5,0,0,1,761.5,2338ZM740,2360v-1h24v1H740Zm11.5-4a1.5,1.5,0,1,1,1.5-1.5A1.5,1.5,0,0,1,751.5,2356Zm-5,0a1.5,1.5,0,1,1,1.5-1.5A1.5,1.5,0,0,1,746.5,2356Zm-5,0a1.5,1.5,0,1,1,1.5-1.5A1.5,1.5,0,0,1,741.5,2356Z" transform="translate(-737 -2335.5)"/>
</svg>
