<svg xmlns="http://www.w3.org/2000/svg" width="30" height="30" viewBox="0 0 30 30">
  <defs>
    <style>
      .cls-1 {
        fill: #737fa1;
        fill-rule: evenodd;
      }
    </style>
  </defs>
  <path id="icon_hotel_swimmingpool1" class="cls-1" d="M615.5,2356a1.5,1.5,0,0,1-1.5-1.5v-12.6a1.4,1.4,0,0,1-.5.1h-14a1.5,1.5,0,0,1,0-3h14a1.45,1.45,0,0,0,2,0,1.5,1.5,0,0,1,1.5,1.5v14A1.5,1.5,0,0,1,615.5,2356Zm-11.312-4.65a15.387,15.387,0,0,1,.493,2.78,0.856,0.856,0,0,1-.853.93H601.39c-0.236.01-1.092,0.03-2.9,1.75-1.5,1.43-3.845,2.26-6.965,2.47-0.558.04-1.093,0.05-1.578,0.05a21.846,21.846,0,0,1-2.434-.12l0.468-3.9a19.933,19.933,0,0,0,3.337.05c2.086-.15,3.668-0.64,4.453-1.39a10.134,10.134,0,0,1,4.248-2.63,3.415,3.415,0,0,0-1.729-1.93c-2.449-.95-3.813-0.2-3.869-0.16l0.048-.03-2.183-3.27c0.3-.2,3.063-1.9,7.439-0.2C601.858,2346.58,603.4,2348.52,604.188,2351.35Zm1.323-1.57a3.754,3.754,0,1,1,3.754,3.74A3.745,3.745,0,0,1,605.511,2349.78Zm-17.022,12.54a28.913,28.913,0,0,0,5.467,1.49c4.427,0.73,6.491-.19,7.442-1.1,2.744-2.61,6.359-3.45,10.452-2.43a17.959,17.959,0,0,1,5.151,2.23l-2.212,3.25h0a14,14,0,0,0-4-1.69,8.745,8.745,0,0,0-3.415-.18,6.2,6.2,0,0,0-3.263,1.66,9.211,9.211,0,0,1-5.361,2.34,16.277,16.277,0,0,1-1.89.11,22.692,22.692,0,0,1-3.631-.32,32.574,32.574,0,0,1-6.236-1.73l0.746-1.82Z" transform="translate(-587 -2338.5)"/>
</svg>
