<svg xmlns="http://www.w3.org/2000/svg" width="30" height="30" viewBox="0 0 30 30">
  <defs>
    <style>
      .cls-1 {
        fill: #737fa1;
        fill-rule: evenodd;
      }
    </style>
  </defs>
  <path id="icon_hotel_wifi" class="cls-1" d="M1260.2,2357.57a3.212,3.212,0,0,1,.01,4.49,3.108,3.108,0,0,1-4.42,0,3.212,3.212,0,0,1,0-4.49A3.088,3.088,0,0,1,1260.2,2357.57Zm4.53-2.21a1.63,1.63,0,0,1-2.34,0,6.157,6.157,0,0,0-8.79,0,1.648,1.648,0,0,1-2.34,0,1.715,1.715,0,0,1,0-2.38,9.432,9.432,0,0,1,13.46.01A1.693,1.693,0,0,1,1264.73,2355.36Zm3.89-3.95a1.63,1.63,0,0,1-2.34,0,11.611,11.611,0,0,0-16.57-.01,1.63,1.63,0,0,1-2.34,0,1.684,1.684,0,0,1,0-2.37,14.889,14.889,0,0,1,21.25.01A1.7,1.7,0,0,1,1268.62,2351.41Zm3.89-3.94a1.639,1.639,0,0,1-2.34-.01,17.077,17.077,0,0,0-24.36-.01,1.63,1.63,0,0,1-2.34,0,1.7,1.7,0,0,1,0-2.37,20.355,20.355,0,0,1,29.04.01A1.715,1.715,0,0,1,1272.51,2347.47Z" transform="translate(-1243 -2336)"/>
</svg>
