<svg xmlns="http://www.w3.org/2000/svg" width="30" height="30" viewBox="0 0 30 30">
  <defs>
    <style>
      .cls-1 {
        fill: #737fa1;
        fill-rule: evenodd;
      }
    </style>
  </defs>
  <path id="icon_hotel_wake" class="cls-1" d="M1540.46,2347.6a11.04,11.04,0,0,0-7.06-7.06A4.993,4.993,0,1,1,1540.46,2347.6ZM1540,2352a10.958,10.958,0,0,1-2.65,7.15l1.41,2.53a1.6,1.6,0,0,1-.41,2.14,1.46,1.46,0,0,1-1.98-.71l-1.14-2.05a10.986,10.986,0,0,1-11.51.59l-1.2,2.08a1.514,1.514,0,1,1-2.6-1.5l1.38-2.38A11,11,0,1,1,1540,2352Zm-6-1h-4v-5a1,1,0,0,0-2,0v6a1,1,0,0,0,1,1h5A1,1,0,0,0,1534,2351Zm-16.46-3.4a4.993,4.993,0,1,1,7.06-7.06A11.04,11.04,0,0,0,1517.54,2347.6Z" transform="translate(-1514 -2336.83)"/>
</svg>
