<svg xmlns="http://www.w3.org/2000/svg" width="30" height="30" viewBox="0 0 30 30">
  <defs>
    <style>
      .cls-1 {
        fill: #737fa1;
        fill-rule: evenodd;
      }
    </style>
  </defs>
  <path id="icon_hotel_jiejifuwu" class="cls-1" d="M922.775,2338.26c2.288-1.31,1.991-1.82,1.63-2.44-0.653-1.11-3.548-.92-5.863.4a12.553,12.553,0,0,1-3.213,2.4l-4.9-3.25a1.881,1.881,0,0,0-1.991-.12l-0.844.57a1.085,1.085,0,0,0,.229,1.48l3.589,3.56c-2.315,1.32-4.234,2.42-4.278,2.46,0,0-2.506-1.63-3.22-1.93s-2.294-1.02-3.24-.48l-0.148.08a0.892,0.892,0,0,0-.077,1.56l4.772,4.06a3.111,3.111,0,0,0,3.31.38Zm5.26,16.74h-0.958s0-4.02-1.915-6-5.743-2-5.743-2a1.916,1.916,0,1,0-3.829,0,10.889,10.889,0,0,0-5.744,2c-1.914,2-1.914,6-1.914,6h-0.958a1,1,0,0,0,0,2h0.958v3.98a1.917,1.917,0,1,0,3.829,0V2359h11.487v2a2.088,2.088,0,0,0,1.914,2,2.159,2.159,0,0,0,1.915-2.02V2357h0.958a1,1,0,0,0,0-2h0Zm-15.325,2h-1.895a1,1,0,0,1-.969-1,0.972,0.972,0,0,1,.969-1h1.895a0.993,0.993,0,0,1,.969,1,0.975,0.975,0,0,1-.969,1h0Zm11.487,0H922.3a1,1,0,0,1-.969-1,0.972,0.972,0,0,1,.969-1H924.2a0.994,0.994,0,0,1,.97,1,0.976,0.976,0,0,1-.97,1h0Zm-6.693-4h-7.658a4.759,4.759,0,0,1,1.533-3.2c1.141-.94,3.9-0.9,6.125-0.9,2.375,0,5.277.02,6.32,0.9a5.255,5.255,0,0,1,1.338,3.2H917.5Z" transform="translate(-899.515 -2334.015)"/>
</svg>
