<?xml version="1.0" encoding="UTF-8"?>
<svg width="298px" height="32px" viewBox="0 0 298 32" version="1.1" xmlns="http://www.w3.org/2000/svg" xmlns:xlink="http://www.w3.org/1999/xlink">
    <title>bg_gwc_yufeicoudan</title>
    <defs>
        <rect id="path-1" x="0" y="0" width="298" height="32" rx="4"></rect>
        <linearGradient x1="21.7175698%" y1="84.0966745%" x2="78.083103%" y2="73.6080394%" id="linearGradient-3">
            <stop stop-color="#FFE0D8" stop-opacity="0.636500219" offset="0%"></stop>
            <stop stop-color="#FFE6BE" stop-opacity="0.281140734" offset="100%"></stop>
        </linearGradient>
        <linearGradient x1="80.1524234%" y1="18.6304818%" x2="35.7901206%" y2="44.4705376%" id="linearGradient-4">
            <stop stop-color="#FFE1D8" stop-opacity="0.636500219" offset="0%"></stop>
            <stop stop-color="#FFFFFF" stop-opacity="0.16835118" offset="100%"></stop>
        </linearGradient>
    </defs>
    <g id="购物车" stroke="none" stroke-width="1" fill="none" fill-rule="evenodd">
        <g id="01.1购物车【青】" transform="translate(-52.000000, -204.000000)">
            <g id="列表备份-3" transform="translate(10.000000, 162.000000)">
                <g id="bg_gwc_yufeicoudan" transform="translate(42.000000, 42.000000)">
                    <g id="矩形-2">
                        <mask id="mask-2" fill="white">
                            <use xlink:href="#path-1"></use>
                        </mask>
                        <use id="蒙版" fill="#FFF0E8" xlink:href="#path-1"></use>
                        <circle id="椭圆形" fill="url(#linearGradient-3)" opacity="0.78395258" mask="url(#mask-2)" cx="214" cy="-32" r="54"></circle>
                        <circle id="椭圆形备份-3" fill="url(#linearGradient-4)" mask="url(#mask-2)" cx="45" cy="66" r="54"></circle>
                    </g>
                    <rect id="矩形" fill="#E0BDA3" x="76" y="12" width="1.5" height="9"></rect>
                    <path d="M45.008,22.144 L46.944,20.032 L48.992,22.144 L51.504,22.144 L49.312,19.856 L51.824,19.856 L52,18.544 L48.304,18.544 L48.832,17.968 L49.344,17.968 L49.504,16.784 L49.984,18.08 L52.448,18.08 L51.632,15.952 L52.432,15.952 L52.608,14.704 L47.376,14.704 L47.584,14.368 L52.288,14.368 L52.48,12.976 L48.464,12.976 L48.688,12.608 L52.848,12.608 L53.04,11.312 L49.504,11.312 L49.92,10.64 L46.432,10.64 L46.752,10.864 L46.48,11.312 L44.016,11.312 L43.824,12.608 L45.696,12.608 L45.472,12.976 L44.016,12.976 L43.824,14.368 L44.624,14.368 L44.432,14.704 L43.52,14.704 L43.344,15.952 L43.68,15.952 L42.4,18.08 L45.28,18.08 L46.016,16.896 L45.872,17.968 L46.256,17.968 L45.728,18.544 L42.656,18.544 L42.48,19.856 L44.528,19.856 L42.432,22.144 L45.008,22.144 Z M42.832,15.072 L42.768,11.2 L40.352,11.2 L40.416,15.072 L42.832,15.072 Z M41.2,21.84 L42.688,15.92 L40.288,15.92 L38.8,21.84 L41.2,21.84 Z M49.472,16.704 L46.128,16.704 L46.608,15.952 L49.2,15.952 L49.472,16.704 Z M61.488,22.144 L61.824,19.744 L67.008,19.744 L67.216,18.224 L62.032,18.224 L62.144,17.472 L66.864,17.472 L67.632,11.968 L65.728,11.968 L66.48,10.624 L62.816,10.624 L63.184,11.072 L62.672,11.968 L60.448,11.968 L60.08,10.624 L56.736,10.624 L57.168,11.136 L57.392,11.968 L55.184,11.968 L54.416,17.472 L59.104,17.472 L58.992,18.224 L53.84,18.224 L53.632,19.744 L58.784,19.744 L58.448,22.144 L61.488,22.144 Z M64.624,14.048 L62.624,14.048 L62.72,13.344 L64.72,13.344 L64.624,14.048 Z M59.584,14.048 L57.632,14.048 L57.728,13.344 L59.68,13.344 L59.584,14.048 Z M64.336,16.096 L62.336,16.096 L62.432,15.408 L64.432,15.408 L64.336,16.096 Z M59.296,16.096 L57.344,16.096 L57.44,15.408 L59.392,15.408 L59.296,16.096 Z" id="凑单" fill="#222222" fill-rule="nonzero"></path>
                    <path d="M13.2,12.752 L12.544,10.928 L10.112,10.928 L10.768,12.752 L13.2,12.752 Z M21.76,12.448 L21.968,10.944 L14.672,10.944 L14.464,12.448 L21.76,12.448 Z M11.312,21.872 L11.552,21.408 L13.136,21.872 L21.648,21.872 L21.856,20.352 L14.416,20.352 L12.224,19.696 L13.12,13.36 L9.776,13.36 L9.552,14.88 L10.16,14.88 L9.408,20.288 L8.576,21.872 L11.312,21.872 Z M21.344,19.744 L20.896,16.4 L18.464,16.4 L18.672,17.984 L16.464,18.08 L17.856,15.488 L21.936,15.488 L22.144,13.968 L13.632,13.968 L13.424,15.488 L14.816,15.488 L13.344,18.224 L13.152,19.6 L18.848,19.328 L18.912,19.744 L21.344,19.744 Z M35.776,16.56 C36.032,16.56 36.2613333,16.4693333 36.464,16.288 C36.6666667,16.1066667 36.7893333,15.888 36.832,15.632 L36.832,15.632 L36.992,14.4 L33.312,14.4 L33.376,13.936 L36.736,13.936 L37.136,11.072 L33.776,11.072 L33.84,10.64 L31.584,10.64 L31.52,11.072 L30.592,11.072 L30.656,10.64 L27.664,10.64 L27.984,11.072 L24.752,11.072 L24.576,12.288 L27.872,12.288 L27.792,12.784 L24.512,12.784 L24.112,15.616 L26.864,15.616 L25.712,16.544 L28.912,16.544 L29.856,15.616 L30.608,15.616 L30.496,16.544 L33.008,16.544 L33.136,15.616 L33.952,15.616 L33.904,15.92 L33.296,16.56 L35.776,16.56 Z M31.28,12.784 L30.352,12.784 L30.416,12.288 L31.344,12.288 L31.28,12.784 Z M34.336,12.784 L33.536,12.784 L33.6,12.288 L34.4,12.288 L34.336,12.784 Z M31.04,14.4 L30.128,14.4 L30.192,13.936 L31.104,13.936 L31.04,14.4 Z M27.568,14.4 L26.672,14.4 L26.752,13.936 L27.632,13.936 L27.568,14.4 Z M26.176,20.352 L26.832,20.048 L27.104,18.112 L33.152,18.112 L32.88,20.048 L33.44,20.352 L35.584,20.352 L36.08,16.864 L24.528,16.864 L24.032,20.352 L26.176,20.352 Z M27.28,22.128 L29.712,21.008 L31.824,22.128 L36.08,22.128 L31.424,19.648 L31.584,18.512 L28.544,18.512 L28.384,19.648 L23.008,22.128 L27.28,22.128 Z" id="运费" fill="#FF5700" fill-rule="nonzero"></path>
                </g>
            </g>
        </g>
    </g>
</svg>