<?xml version="1.0" encoding="UTF-8"?>
<svg width="48px" height="48px" viewBox="0 0 48 48" version="1.1" xmlns="http://www.w3.org/2000/svg" xmlns:xlink="http://www.w3.org/1999/xlink">
    <title>btn/common/shopping</title>
    <g id="图标" stroke="none" stroke-width="1" fill="none" fill-rule="evenodd">
        <g id="00图标Button/备份-2" transform="translate(-474.000000, -638.000000)">
            <g id="btn/common/shopping" transform="translate(474.000000, 638.000000)">
                <circle id="椭圆形" stroke="#FFFFFF" stroke-width="1.09090909" fill-opacity="0.94" fill="#F3F3F3" opacity="0.9" cx="24" cy="24" r="23.4545455"></circle>
                <g id="编组" transform="translate(10.500000, 11.000000)" fill="#F30300">
                    <g id="轮廓" transform="translate(0.376448, 0.815736)">
                        <path d="M8.78264295,19.2751735 C9.92486823,19.2751735 10.8508248,20.2011301 10.8508248,21.3433553 C10.8508248,22.4855806 9.92486823,23.4115372 8.78264295,23.4115372 C7.64041767,23.4115372 6.71446113,22.4855806 6.71446113,21.3433553 C6.71446113,20.2011301 7.64041767,19.2751735 8.78264295,19.2751735 Z M19.4190066,19.2751735 C20.5612319,19.2751735 21.4871884,20.2011301 21.4871884,21.3433553 C21.4871884,22.4855806 20.5612319,23.4115372 19.4190066,23.4115372 C18.2767813,23.4115372 17.3508248,22.4855806 17.3508248,21.3433553 C17.3508248,20.2011301 18.2767813,19.2751735 19.4190066,19.2751735 Z M1.52770376,0.106701568 C3.36899863,0.998947218 4.5009388,2.08841314 4.82300387,3.43949029 L5.21827148,5.10422931 L5.98787303,8.38533488 C6.23975497,9.46828753 6.486985,10.5404911 6.72956314,11.6019461 L7.60406109,15.4726065 L20.2223338,15.4726065 L22.1770611,7.35351564 L9.07725138,7.35441877 C8.53500817,7.35441877 8.08753564,6.94865726 8.02190225,6.42420269 L8.01361501,6.29078241 C8.01361501,5.7485392 8.41937653,5.30106667 8.94383109,5.23543328 L9.07725138,5.22714604 L23.5286433,5.22714604 C24.1738382,5.22714604 24.659791,5.79287453 24.5852075,6.41488532 L24.5626981,6.53988696 L22.0944755,16.7856943 C21.9898358,17.2200627 21.6270362,17.5378372 21.1926858,17.5920245 L21.0604207,17.6002261 L6.75143715,17.6002261 C6.25287872,17.6002261 5.82122126,17.2539329 5.71310969,16.7672375 L5.36759723,15.21944 L4.65564733,12.0754043 C4.53466402,11.5460162 4.41251822,11.0139371 4.28920993,10.4791669 L3.53541029,7.23825457 C3.27949379,6.14718679 3.01892735,5.0453555 2.75371097,3.93276115 C2.60789909,3.32107389 1.92352049,2.66237551 0.600054789,2.02105698 C0.0714201387,1.76489379 -0.149461622,1.12868944 0.106701568,0.600054789 C0.362864758,0.0714201387 0.99906911,-0.149461622 1.52770376,0.106701568 Z" id="形状结合"></path>
                    </g>
                </g>
            </g>
        </g>
    </g>
</svg>