<?xml version="1.0" encoding="UTF-8"?>
<svg width="22px" height="22px" viewBox="0 0 22 22" version="1.1" xmlns="http://www.w3.org/2000/svg" xmlns:xlink="http://www.w3.org/1999/xlink">
    <!-- Generator: Sketch 58 (84663) - https://sketch.com -->
    <title>btn_common_radio_sel</title>
    <desc>Created with Sketch.</desc>
    <g id="btn_common_radio_sel" stroke="none" stroke-width="1" fill="none" fill-rule="evenodd">
        <g id="Group-19" transform="translate(0.500000, 0.500000)" fill="#2D32C3">
            <path d="M10.5,0 C16.2989899,0 21,4.70101013 21,10.5 C21,16.2989899 16.2989899,21 10.5,21 C4.70101013,21 0,16.2989899 0,10.5 C0,4.70101013 4.70101013,0 10.5,0 Z M10.5,2.625 C6.1507576,2.625 2.625,6.1507576 2.625,10.5 C2.625,14.8492424 6.1507576,18.375 10.5,18.375 C14.8492424,18.375 18.375,14.8492424 18.375,10.5 C18.375,6.1507576 14.8492424,2.625 10.5,2.625 Z M10.5,5.25 C13.3994949,5.25 15.75,7.60050506 15.75,10.5 C15.75,13.3994949 13.3994949,15.75 10.5,15.75 C7.60050506,15.75 5.25,13.3994949 5.25,10.5 C5.25,7.60050506 7.60050506,5.25 10.5,5.25 Z" id="Oval-2"></path>
        </g>
    </g>
</svg>