<svg xmlns="http://www.w3.org/2000/svg" width="44" height="44" viewBox="0 0 44 44">
  <metadata><?xpacket begin="﻿" id="W5M0MpCehiHzreSzNTczkc9d"?>
<x:xmpmeta xmlns:x="adobe:ns:meta/" x:xmptk="Adobe XMP Core 5.6-c138 79.159824, 2016/09/14-01:09:01        ">
   <rdf:RDF xmlns:rdf="http://www.w3.org/1999/02/22-rdf-syntax-ns#">
      <rdf:Description rdf:about=""/>
   </rdf:RDF>
</x:xmpmeta>                     
<?xpacket end="w"?></metadata>
  <g>
    <path d="M405,1449a18,18,0,1,1,18-18A18,18,0,0,1,405,1449Zm0-34a16,16,0,1,0,16,16A16.019,16.019,0,0,0,405,1415Zm7.691,22.72a1.016,1.016,0,0,1-1.442,0l-5.765-5.76-5.765,5.76a1.019,1.019,0,0,1-1.441-1.44l5.765-5.76-5.765-5.77a1.019,1.019,0,0,1,1.442-1.44l5.764,5.76,5.765-5.76a1.019,1.019,0,1,1,1.441,1.44l-5.765,5.77,5.766,5.76A1.018,1.018,0,0,1,412.691,1437.72Z" transform="translate(-383 -1409)"/>
  </g>
</svg>
