<?xml version="1.0" encoding="UTF-8"?>
<svg width="22px" height="22px" viewBox="0 0 22 22" version="1.1" xmlns="http://www.w3.org/2000/svg" xmlns:xlink="http://www.w3.org/1999/xlink">
    <g stroke="none" stroke-width="1" fill="none" fill-rule="evenodd">
        <g transform="translate(1.000000, 2.000000)" fill="currentColor">
            <path d="M6.22545005,15.0348044 L2.21999995,15.0348044 C0.993927834,15.0348044 -4.26325641e-14,14.0408765 -4.26325641e-14,12.8148044 L-4.26325641e-14,1.97999996 C-4.26325641e-14,0.886476176 0.886476176,-4.08562073e-14 1.97999996,-4.08562073e-14 L18.0199047,-4.08562073e-14 C19.1134285,-4.08562073e-14 19.9999046,0.886476176 19.9999046,1.97999996 L19.9999046,12.8148044 C19.9999046,14.0408765 19.0059768,15.0348044 17.7799047,15.0348044 L13.7057388,15.0348044 L10.5612268,18.5989593 C10.2514102,18.9501217 9.70417105,18.9510452 9.39317098,18.6009306 L6.22545005,15.0348044 Z M9.97434042,16.9061847 L12.7688243,13.73877 C12.9168917,13.5709426 13.1299168,13.4748044 13.3537247,13.4748044 L17.7799047,13.4748044 C18.1444126,13.4748044 18.4399047,13.1793123 18.4399047,12.8148044 L18.4399047,1.97999996 C18.4399047,1.74804037 18.2518643,1.55999997 18.0199047,1.55999997 L1.97999996,1.55999997 C1.74804037,1.55999997 1.55999997,1.74804037 1.55999997,1.97999996 L1.55999997,12.8148044 C1.55999997,13.1793123 1.85549202,13.4748044 2.21999995,13.4748044 L6.57588086,13.4748044 C6.79877078,13.4748044 7.01101284,13.5701584 7.15903621,13.7367988 L9.97434042,16.9061847 Z" fill-rule="nonzero"></path>
            <path d="M5.6689139,6.77999985 C6.32229025,6.77999985 6.85195643,7.30966603 6.85195643,7.96304238 C6.85195643,8.61641872 6.32229025,9.1460849 5.6689139,9.1460849 C5.01553756,9.1460849 4.48587138,8.61641872 4.48587138,7.96304238 C4.48587138,7.30966603 5.01553756,6.77999985 5.6689139,6.77999985 Z M9.97388307,6.77999985 C10.6272594,6.77999985 11.1569256,7.30966603 11.1569256,7.96304238 C11.1569256,8.61641872 10.6272594,9.1460849 9.97388307,9.1460849 C9.32050672,9.1460849 8.79084054,8.61641872 8.79084054,7.96304238 C8.79084054,7.30966603 9.32050672,6.77999985 9.97388307,6.77999985 Z M14.2788522,6.77999985 C14.9322286,6.77999985 15.4618948,7.30966603 15.4618948,7.96304238 C15.4618948,8.61641872 14.9322286,9.1460849 14.2788522,9.1460849 C13.6254759,9.1460849 13.0958097,8.61641872 13.0958097,7.96304238 C13.0958097,7.30966603 13.6254759,6.77999985 14.2788522,6.77999985 Z"></path>
        </g>
    </g>
</svg>