<?xml version="1.0" encoding="UTF-8"?>
<svg width="22px" height="22px" viewBox="0 0 22 22" version="1.1" xmlns="http://www.w3.org/2000/svg" xmlns:xlink="http://www.w3.org/1999/xlink">
    <!-- Generator: Sketch 60 (88103) - https://sketch.com -->
    <title>h5 svg/icon/filter/screen</title>
    <desc>Created with Sketch.</desc>
    <g id="h5-svg/icon/filter/screen" stroke="none" stroke-width="1"  fill-rule="evenodd">
        <g id="筛选" transform="translate(0.000000, 0.000000)">
            <rect id="矩形" fill="#D8D8D8" opacity="0" x="0" y="0" width="22" height="22"></rect>
            <path d="M2.46986567,2 L19.4707262,2 C20.9839857,2 21.4433753,2.86615642 20.5361862,3.91511515 L14.3268613,10.8069569 L14.3268613,20.281143 C14.3268613,20.7892292 13.9781244,21.0432723 13.455029,20.7892292 L8.83427965,18.6721775 C8.39835345,18.4181344 7.96242724,17.8253608 7.96242724,17.3172551 L7.96242724,10.7222889 L1.59801326,4.03238367 C0.551822547,2.9315043 0.900559488,2 2.46986567,2 Z M3.29142337,3.55555577 L9.51798302,10.1005564 L9.51798302,17.2743783 L9.52348879,17.2769014 L9.53812309,17.2644354 C9.5561065,17.2635181 9.58235539,17.2928071 9.60064087,17.3122567 L12.7713056,18.7652294 L12.7713056,10.2096143 L18.7663049,3.55555577 L3.29142337,3.55555577 Z" id="路径" fill-rule="nonzero"></path>
        </g>
    </g>
</svg>