<?xml version="1.0" encoding="UTF-8"?>
<svg width="22px" height="22px" viewBox="0 0 22 22" version="1.1" xmlns="http://www.w3.org/2000/svg" xmlns:xlink="http://www.w3.org/1999/xlink">
    <g stroke="none" stroke-width="1" fill-rule="evenodd">
        <g transform="translate(0.500000, 0.500000)" fill-rule="nonzero">
            <path d="M3.42243729,3.6626626 L3.53178409,3.53178409 C3.8598245,3.20374369 4.36903661,3.16729475 4.7373374,3.42243729 L4.86821591,3.53178409 L10.5,9.162825 L16.1317841,3.53178409 C16.4598245,3.20374369 16.9690366,3.16729475 17.3373374,3.42243729 L17.4682159,3.53178409 C17.7962563,3.8598245 17.8327052,4.36903661 17.5775627,4.7373374 L17.4682159,4.86821591 L11.837175,10.5 L17.4682159,16.1317841 C17.7962563,16.4598245 17.8327052,16.9690366 17.5775627,17.3373374 L17.4682159,17.4682159 C17.1401755,17.7962563 16.6309634,17.8327052 16.2626626,17.5775627 L16.1317841,17.4682159 L10.5,11.837175 L4.86821591,17.4682159 C4.5401755,17.7962563 4.03096339,17.8327052 3.6626626,17.5775627 L3.53178409,17.4682159 C3.20374369,17.1401755 3.16729475,16.6309634 3.42243729,16.2626626 L3.53178409,16.1317841 L9.162825,10.5 L3.53178409,4.86821591 C3.20374369,4.5401755 3.16729475,4.03096339 3.42243729,3.6626626 L3.53178409,3.53178409 L3.42243729,3.6626626 Z" transform="translate(10.500000, 10.500000) rotate(-45.000000) translate(-10.500000, -10.500000) "></path>
        </g>
    </g>
</svg>