<?xml version="1.0" encoding="UTF-8"?>
<svg width="44px" height="44px" viewBox="0 0 44 44" version="1.1" xmlns="http://www.w3.org/2000/svg" xmlns:xlink="http://www.w3.org/1999/xlink">
    <g stroke="none" stroke-width="1" fill-rule="evenodd">
        <g transform="translate(2.000000, 1.000000)" fill-rule="nonzero">
            <path d="M17.6470588,34.8588235 C27.152854,34.8588235 34.8588235,27.152854 34.8588235,17.6470588 C34.8588235,8.14126366 27.152854,0.435294118 17.6470588,0.435294118 C8.14126366,0.435294118 0.435294118,8.14126366 0.435294118,17.6470588 C0.435294118,27.152854 8.14126366,34.8588235 17.6470588,34.8588235 Z M17.6470588,31.7294118 C9.86959005,31.7294118 3.56470588,25.4245276 3.56470588,17.6470588 C3.56470588,9.86959005 9.86959005,3.56470588 17.6470588,3.56470588 C25.4245276,3.56470588 31.7294118,9.86959005 31.7294118,17.6470588 C31.7294118,25.4245276 25.4245276,31.7294118 17.6470588,31.7294118 Z"></path>
            <path d="M31.2897313,28.7316871 L31.2897313,41.2274679 C31.2897313,42.0916311 31.990274,42.7921738 32.8544372,42.7921738 C33.7186004,42.7921738 34.4191431,42.0916311 34.4191431,41.2274679 L34.4191431,28.7316871 C34.4191431,27.8675239 33.7186004,27.1669812 32.8544372,27.1669812 C31.990274,27.1669812 31.2897313,27.8675239 31.2897313,28.7316871 Z" id="路径-2" transform="translate(32.854437, 34.979577) rotate(-45.000000) translate(-32.854437, -34.979577) "></path>
        </g>
    </g>
</svg>