<?xml version="1.0" encoding="UTF-8"?>
<svg width="22px" height="22px" viewBox="0 0 22 22" version="1.1" xmlns="http://www.w3.org/2000/svg" xmlns:xlink="http://www.w3.org/1999/xlink">
    <g stroke="none" stroke-width="1" fill-rule="evenodd">
        <path d="M18.4069654,16.6046436 C18.6982866,16.6046436 18.9344492,16.8408061 18.9344492,17.1321274 C18.9344492,17.4234486 18.6982866,17.6596112 18.4069654,17.6596112 L1.5274838,17.6596112 C1.23616254,17.6596112 1,17.4234486 1,17.1321274 C1,16.8408061 1.23616254,16.6046436 1.5274838,16.6046436 L18.4069654,16.6046436 Z M8.58148069,5 C14.1127615,5 17.9625838,7.33975951 20.1309477,12.0192785 C20.3631815,12.5203829 20.1451842,13.1148581 19.6440664,13.3470627 C19.5123097,13.4081153 19.3688373,13.4397408 19.2236228,13.4397408 L2,13.4397408 C1.44771525,13.4397408 1,12.9920255 1,12.4397408 L1,5.9999756 C1.0000244,5.44770433 1.44772872,5 2,5 L8.58148069,5 Z M5.04888841,6.40662346 L3.01629614,6.40662346 C2.77083625,6.40662346 2.56668777,6.58349862 2.52435181,6.81674783 L2.51629614,6.90662346 L2.51629614,8.71987039 C2.51629614,8.96533028 2.6931713,9.16947876 2.92642051,9.21181472 L3.01629614,9.21987039 L5.04888841,9.21987039 C5.2943483,9.21987039 5.49849678,9.04299523 5.54083274,8.80974602 L5.54888841,8.71987039 L5.54888841,6.90662346 C5.54888841,6.63048109 5.32503079,6.40662346 5.04888841,6.40662346 Z M9.59777683,6.40662346 L7.56518455,6.40662346 C7.31972466,6.40662346 7.11557618,6.58349862 7.07324022,6.81674783 L7.06518455,6.90662346 L7.06518455,8.71987039 C7.06518455,8.96533028 7.24205971,9.16947876 7.47530892,9.21181472 L7.56518455,9.21987039 L9.59777683,9.21987039 C9.84323671,9.21987039 10.0473852,9.04299523 10.0897212,8.80974602 L10.0977768,8.71987039 L10.0977768,6.90662346 C10.0977768,6.63048109 9.8739192,6.40662346 9.59777683,6.40662346 Z M11.614073,6.40662346 L11.614073,8.71987039 C11.614073,8.96533028 11.7909481,9.16947876 12.0241973,9.21181472 L12.114073,9.21987039 L16.1629614,9.21987039 C15.1520973,7.34437244 13.6358011,6.40662346 11.614073,6.40662346 Z"></path>
    </g>
</svg>