<?xml version="1.0" encoding="UTF-8"?>
<svg width="22px" height="22px" viewBox="0 0 22 22" version="1.1" xmlns="http://www.w3.org/2000/svg" xmlns:xlink="http://www.w3.org/1999/xlink">
    <g stroke="none" stroke-width="1" fill-rule="evenodd">
        <path d="M17,0.5 C19.209139,0.5 21,2.290861 21,4.5 L21,14.5477562 C21,16.4171112 19.7176713,17.9869623 17.9846721,18.4256513 L18.8092174,19.8448024 C18.810399,19.8468339 18.8115741,19.8488692 18.8127427,19.8509083 C19.1148318,20.3780287 18.9324079,21.0502358 18.4052875,21.3523249 C17.9092184,21.6366188 17.2857845,21.4973883 16.9544487,21.0470254 L16.8880719,20.9457979 L15.493,18.547 L6.506,18.547 L5.11192806,20.9457979 C4.80392728,21.4753373 4.12621509,21.6569255 3.59471246,21.3523249 C3.06759208,21.0502358 2.8851682,20.3780287 3.18725733,19.8509083 C3.1884259,19.8488692 3.18960099,19.8468339 3.19078261,19.8448024 L4.01532786,18.4256513 C2.28232865,17.9869623 1,16.4171112 1,14.5477562 L1,4.5 C1,2.290861 2.790861,0.5 5,0.5 L17,0.5 Z M6.48379448,11.9327214 C5.77251001,11.9327214 5.19590002,12.5074263 5.19590002,13.2163607 C5.19590002,13.9252951 5.77251001,14.5 6.48379448,14.5 C7.19507894,14.5 7.77168893,13.9252951 7.77168893,13.2163607 C7.77168893,12.5074263 7.19507894,11.9327214 6.48379448,11.9327214 Z M15.5162055,11.9327214 C14.8049211,11.9327214 14.2283111,12.5074263 14.2283111,13.2163607 C14.2283111,13.9252951 14.8049211,14.5 15.5162055,14.5 C16.22749,14.5 16.8041,13.9252951 16.8041,13.2163607 C16.8041,12.5074263 16.22749,11.9327214 15.5162055,11.9327214 Z M7.96758895,3.5 L5,3.5 C3.8954305,3.5 3,4.3954305 3,5.5 L3,5.5 L3,8.18184952 C3,9.28641902 3.8954305,10.1818495 5,10.1818495 L5,10.1818495 L7.96758895,10.1818495 C9.07215845,10.1818495 9.96758895,9.28641902 9.96758895,8.18184952 L9.96758895,8.18184952 L9.96758895,5.5 C9.96758895,4.3954305 9.07215845,3.5 7.96758895,3.5 L7.96758895,3.5 Z M17,3.5 L14.032411,3.5 C12.9278415,3.5 12.032411,4.3954305 12.032411,5.5 L12.032411,5.5 L12.032411,8.18184952 C12.032411,9.28641902 12.9278415,10.1818495 14.032411,10.1818495 L14.032411,10.1818495 L17,10.1818495 C18.1045695,10.1818495 19,9.28641902 19,8.18184952 L19,8.18184952 L19,5.5 C19,4.3954305 18.1045695,3.5 17,3.5 L17,3.5 Z"></path>
    </g>
</svg>