<svg xmlns="http://www.w3.org/2000/svg" width="100" height="100" viewBox="0 0 100 100">
  <defs>
    <style>
      .cls-1 {
        fill: #ffb843;
        fill-rule: evenodd;
      }
    </style>
  </defs>
  <path id="icon_work_pendingtrial" class="cls-1" d="M1049.23,282.4a6.641,6.641,0,0,0,.57,1.636A6.833,6.833,0,0,1,1049.23,282.4Zm-0.12-.834a7.5,7.5,0,0,0,.12.826A7.643,7.643,0,0,1,1049.11,281.565ZM1025.5,259h13a2.5,2.5,0,0,0,0-5h-13A2.5,2.5,0,0,0,1025.5,259Zm6.5-31h0a50,50,0,0,0-50,50h0a50,50,0,0,0,50,50h0a50,50,0,0,0,50-50h0A50,50,0,0,0,1032,228Zm5,76h-22a6.005,6.005,0,0,1-6-6V261a6.005,6.005,0,0,1,6-6h4.18a6.506,6.506,0,0,1,6.32-5h13a6.506,6.506,0,0,1,6.32,5H1049a6.005,6.005,0,0,1,6,6v12a2,2,0,0,1-4,0V261a2,2,0,0,0-2-2h-4.5a6.509,6.509,0,0,1-6,4h-13a6.509,6.509,0,0,1-6-4H1015a2,2,0,0,0-2,2v37a2,2,0,0,0,2,2h22A2,2,0,0,1,1037,304Zm-16-30a2,2,0,0,1,0-4h22a2,2,0,0,1,0,4h-22Zm17,13a2,2,0,0,1-2,2h-15a2,2,0,0,1,0-4h15A2,2,0,0,1,1038,287Zm19.92,17h-13a2,2,0,0,1,0-4h13A2,2,0,0,1,1057.92,304Zm1.08-7h-15.61a2.969,2.969,0,0,1-3.07-2.861,2.871,2.871,0,0,1,2.97-2.76h3.65a1.766,1.766,0,0,0,1.83-1.7,1.65,1.65,0,0,0-.82-1.412,5.491,5.491,0,0,1,1.89-10.22,6.435,6.435,0,0,0-.76,3.049c0,0.14.02,0.274,0.03,0.411a6.564,6.564,0,0,1,.74-3.451,6.926,6.926,0,0,1,1.34-.138,5.817,5.817,0,0,1,6.01,5.608,5.532,5.532,0,0,1-2.19,4.348c-0.01,0-.02,0-0.04-0.008a6.321,6.321,0,0,1-.6.4,1.652,1.652,0,0,0-.8,1.412,1.76,1.76,0,0,0,1.83,1.7h3.61A2.816,2.816,0,1,1,1059,297Z" transform="translate(-982 -228)"/>
</svg>
