<svg xmlns="http://www.w3.org/2000/svg" width="50" height="50" viewBox="0 0 50 50">
  <defs>
    <style>
      .cls-1 {
        fill: #666;
        fill-rule: evenodd;
      }
    </style>
  </defs>
  <path id="btn_taxi_share" class="cls-1" d="M7937,1567a1.7,1.7,0,0,1,0,3.4,16.6,16.6,0,1,0,16.6,16.6,1.7,1.7,0,1,1,3.4,0A20,20,0,1,1,7937,1567Zm10.29,8.5a1.669,1.669,0,0,1,2.38-2.34l2.93,2.92a2.269,2.269,0,0,1,0,3.2l-2.93,2.93a1.669,1.669,0,1,1-2.36-2.36l0.49-.5h-2.15c-5.86,0-7.86,2.5-7.86,10.05a1.665,1.665,0,1,1-3.33,0c0-9.34,3.4-13.39,11.19-13.39h2.15Z" transform="translate(-7912 -1562)"/>
</svg>
