<svg xmlns="http://www.w3.org/2000/svg" width="50" height="50" viewBox="0 0 50 50">
  <defs>
    <style>
      .cls-1 {
        fill: #666;
        fill-rule: evenodd;
      }
    </style>
  </defs>
  <path id="btn_taxi_sevice" class="cls-1" d="M10666.5,1568a17.32,17.32,0,0,0-16.5,12.82,6.681,6.681,0,0,0-3,5.91c0,3.73,2.3,6.76,6,6.76a1.517,1.517,0,0,0,1.5-1.5v-10.52a1.5,1.5,0,0,0-1.1-1.41,13.947,13.947,0,0,1,26.2,0,1.5,1.5,0,0,0-1.1,1.41v10.52a1.517,1.517,0,0,0,1.5,1.5,5.7,5.7,0,0,0,1-.09,13.615,13.615,0,0,1-2.9,6.34,9.512,9.512,0,0,1-2.1,1.97,3.64,3.64,0,0,1-.7.42,0.625,0.625,0,0,1-.2.1h-2.8a4.353,4.353,0,0,0-4.3-2.73c-2.5,0-4.5,1.69-4.5,3.76s2,3.76,4.5,3.76a4.353,4.353,0,0,0,4.3-2.73h3a1.481,1.481,0,0,0,.9-0.28,4.477,4.477,0,0,0,1-.61,12.51,12.51,0,0,0,2.6-2.35,15.663,15.663,0,0,0,3.4-8.54,7.343,7.343,0,0,0-.2-11.69A17.32,17.32,0,0,0,10666.5,1568Z" transform="translate(-10641.5 -1562.5)"/>
</svg>
