<svg xmlns="http://www.w3.org/2000/svg" width="50" height="50" viewBox="0 0 50 50">
  <defs>
    <style>
      .cls-1 {
        fill: #666;
        fill-rule: evenodd;
      }
    </style>
  </defs>
  <path id="btn_taxi_invoice" class="cls-1" d="M10856.6,1584.57h-1.4v21.42a1.61,1.61,0,0,1-1.1-.42l-2.3-2.32a3.07,3.07,0,0,0-3.1,0l-2.3,2.32a1.4,1.4,0,0,1-2,0l-2.4-2.32a1.4,1.4,0,0,0-2,0l-2.3,2.32a1.523,1.523,0,0,1-2.1,0l-2.3-2.32a3.07,3.07,0,0,0-3.1,0l-2.3,2.32a1.559,1.559,0,0,1-1,.42v-21.4h-1.5c-2.4,0-3.4-1.96-3.4-4.37v-5.85a4.413,4.413,0,0,1,4.4-4.37h29.2a4.345,4.345,0,0,1,4.4,4.35v5.85C10860,1582.61,10859,1584.57,10856.6,1584.57Zm-26.8,15.36,0.4-.42a3.07,3.07,0,0,1,3.1,0l1,1.03,1.3,1.28a1.522,1.522,0,0,0,2.1,0l1.2-1.28,1.1-1.03a1.4,1.4,0,0,1,2,0l1.1,1.03,1.3,1.28a1.4,1.4,0,0,0,2,0l1.3-1.28,1-1.03a3.07,3.07,0,0,1,3.1,0l0.4,0.42h0.1v-15.36h-0.1v-2.92h0.1v-2.9h-22.5v21.18Zm27.3-19.73v-5.83a1.5,1.5,0,0,0-1.5-1.45h-29.2a1.5,1.5,0,0,0-1.5,1.45v5.84c0,0.8-.4,1.46.5,1.46h1.5v-2.95a1.5,1.5,0,0,1-1.5-1.45,1.785,1.785,0,0,1,.4-1.03,1.767,1.767,0,0,1,1.1-.42h28.3a1.42,1.42,0,0,1,1.4,1.47,1.732,1.732,0,0,1-.4,1.03,1.471,1.471,0,0,1-1,.43v2.9h1.4C10857.4,1581.65,10857.1,1581.02,10857.1,1580.2Zm-10.3,13.14h-11.7a1.451,1.451,0,0,1,0-2.9h11.7a1.5,1.5,0,0,1,1.5,1.45A1.438,1.438,0,0,1,10846.8,1593.34Zm0-6.57h-11.7a1.456,1.456,0,0,1,0-2.91h11.7a1.5,1.5,0,0,1,1.5,1.46A1.438,1.438,0,0,1,10846.8,1586.77Z" transform="translate(-10816 -1563)"/>
</svg>
