<?xml version="1.0" encoding="UTF-8"?>
<svg width="22px" height="22px" viewBox="0 0 22 22" version="1.1" xmlns="http://www.w3.org/2000/svg" xmlns:xlink="http://www.w3.org/1999/xlink">
    <!-- Generator: Sketch 60 (88103) - https://sketch.com -->
    <g id="h5-svg/icon/mall/jiarugouwuche1" stroke="none" stroke-width="1" fill="none" fill-rule="evenodd">
        <circle id="椭圆形" fill="#EAEFF4" cx="11" cy="11" r="11"></circle>
        <g id="购物车" transform="translate(5.076923, 5.923077)" fill="#515151" fill-rule="nonzero">
            <path d="M3.65016169,8.72456835 C3.88714747,8.58773256 4.17913498,8.58773256 4.41612075,8.72456835 C4.65310653,8.86140413 4.79908111,9.11428381 4.79904997,9.3879374 C4.79908111,9.661591 4.65310653,9.91447067 4.41612075,10.0513065 C4.17913498,10.1881422 3.88714747,10.1881422 3.65016169,10.0513065 C3.41317591,9.91447067 3.26720134,9.661591 3.26723247,9.3879374 C3.26720134,9.11428381 3.41317591,8.86140413 3.65016169,8.72456835 Z M9.68532871,8.72456835 C9.92231449,8.58773256 10.214302,8.58773256 10.4512878,8.72456835 C10.6882736,8.86140413 10.8342481,9.11428381 10.834217,9.3879374 C10.8342481,9.661591 10.6882736,9.91447067 10.4512878,10.0513065 C10.214302,10.1881422 9.92231449,10.1881422 9.68532871,10.0513065 C9.44834293,9.91447067 9.30236836,9.661591 9.30239949,9.3879374 C9.30236836,9.11428381 9.44834293,8.86140413 9.68532871,8.72456835 Z M2.00202879,0.240660165 C2.40435855,0.593556763 2.6429456,1.09704561 2.66129201,1.63189947 C2.83580286,3.08615658 3.29631761,6.47942319 3.30116514,6.47942318 C3.30601267,6.47942317 3.39811561,7.27441707 4.05253132,7.32773983 C4.78935492,7.37136754 10.7711992,7.32773983 10.8390645,7.32773983 C10.9332602,7.32365802 11.0249075,7.35895158 11.0920346,7.42515916 C11.1591617,7.49136674 11.195716,7.58251848 11.1929337,7.67676154 C11.1929519,7.87032059 11.0374529,8.02797927 10.843912,8.03063076 L10.7711003,8.03091342 C10.3068262,8.03330185 7.97002298,8.05002086 6.15150909,8.05002086 L4.00890361,8.05002086 C3.25353208,7.9624069 2.66508691,7.35367052 2.60312173,6.59576375 L2.59689966,6.5466034 C2.53995311,6.12227918 2.10802797,3.07226035 1.9632486,1.72400242 C1.9573623,1.38374231 1.82014435,1.05893526 1.58029422,0.817515485 C1.49771464,0.755569895 1.39751611,0.721604292 1.29429032,0.720565005 L0.35871825,0.720565005 C0.160604458,0.720565005 1.49729573e-06,0.559962044 1.49729573e-06,0.361848252 C1.49729573e-06,0.16373446 0.160604458,0.0031314997 0.35871825,0.0031314997 L1.21188242,0.0031314997 C1.4955394,-0.017797837 1.77693053,0.0667921368 2.00202879,0.240660165 Z M11.4789376,0.899923386 C11.7514245,1.22362113 11.8425396,1.66279574 11.7213138,2.0681766 C11.5613455,2.89710316 11.0184229,4.97669083 10.9941853,5.0736413 C10.9699477,5.17059177 10.7227239,6.04314604 9.14243122,6.14494404 C7.83660862,6.22919066 4.57858852,6.29988035 4.31181868,6.30465533 L4.30945008,6.30491232 C4.11403663,6.30491232 3.95564008,6.14645654 3.95564008,5.9510431 C3.95564008,5.75562965 4.11403663,5.59720658 4.30945008,5.59717387 C4.34338275,5.59717387 7.77058201,5.52446102 9.11334608,5.43720558 C10.1604112,5.36934025 10.3203795,4.9088255 10.325227,4.8894354 C10.3300745,4.8700453 10.8778447,2.76137249 11.0329655,1.94214099 C11.0950666,1.7620326 11.0755976,1.56380335 10.9796427,1.39921832 C10.8675762,1.31858484 10.7281957,1.28548195 10.5918408,1.30711537 L3.65503438,1.30711537 C3.52859497,1.30713654 3.41175108,1.23969407 3.34852527,1.13019786 C3.28529945,1.02070165 3.28529945,0.885790642 3.34852527,0.77629443 C3.41175108,0.666798217 3.52859497,0.599355752 3.65503438,0.599376918 L10.5094329,0.599376918 C10.8612349,0.550156702 11.2166648,0.660339971 11.4789376,0.899923386 Z" id="形状结合"></path>
        </g>
    </g>
</svg>