<?xml version="1.0" encoding="UTF-8"?>
<svg width="44px" height="44px" viewBox="0 0 44 44" version="1.1" xmlns="http://www.w3.org/2000/svg" xmlns:xlink="http://www.w3.org/1999/xlink">
    <!-- Generator: Sketch 58 (84663) - https://sketch.com -->
    <desc>Created with Sketch.</desc>
    <g id="btn_common_close" stroke="none" stroke-width="1" fill-rule="evenodd">
        <path d="M22.0943816,-3 C23.7052121,-3 25.0110483,-1.69416385 25.0110483,-0.0833333333 L25.011,19.386 L44.0833333,19.3868795 C45.6941639,19.3868795 47,20.6927156 47,22.3035462 C47,23.9143767 45.6941639,25.2202128 44.0833333,25.2202128 L25.011,25.22 L25.0110483,44.0833333 C25.0110483,45.6941639 23.7052121,47 22.0943816,47 C20.4835511,47 19.1777149,45.6941639 19.1777149,44.0833333 L19.177,25.22 L-0.0833333333,25.2202128 C-1.69416385,25.2202128 -3,23.9143767 -3,22.3035462 C-3,20.6927156 -1.69416385,19.3868795 -0.0833333333,19.3868795 L19.177,19.386 L19.1777149,-0.0833333333 C19.1777149,-1.69416385 20.4835511,-3 22.0943816,-3 Z" id="合并形状" transform="translate(22.000000, 22.000000) rotate(45.000000) translate(-22.000000, -22.000000) "></path>
    </g>
</svg>