<?xml version="1.0" encoding="UTF-8"?>
<svg width="22px" height="22px" viewBox="0 0 22 22" version="1.1" xmlns="http://www.w3.org/2000/svg" xmlns:xlink="http://www.w3.org/1999/xlink">
    <!-- Generator: Sketch 60 (88103) - https://sketch.com -->
    <desc>Created with Sketch.</desc>
    <g id="h5-svg/icon/hotel/label" stroke="none" stroke-width="1" fill="none" fill-rule="evenodd">
        <path d="M11.0015666,1.1 C16.4700508,1.1 20.9031331,5.53308235 20.9031331,11.0015666 C20.9031331,16.4700508 16.4700508,20.9031331 11.0015666,20.9031331 C5.53308235,20.9031331 1.1,16.4700508 1.1,11.0015666 C1.1,5.53308235 5.53308235,1.1 11.0015666,1.1 Z M11.0015666,2.56666667 C6.34309999,2.56666667 2.56666667,6.34309999 2.56666667,11.0015666 C2.56666667,15.6600332 6.34309999,19.4364665 11.0015666,19.4364665 C15.6600332,19.4364665 19.4364665,15.6600332 19.4364665,11.0015666 C19.4364665,6.34309999 15.6600332,2.56666667 11.0015666,2.56666667 Z M16.3345143,7.80821224 C16.5937518,8.04983803 16.638649,8.43531744 16.4608279,8.72639061 L16.3709587,8.84466164 L10.7307195,14.8960089 C10.5076418,15.1353464 10.1591683,15.1936993 9.87547802,15.0565541 L9.73991197,14.9716228 L6.35032184,12.2960626 C6.0324177,12.0451261 5.97812965,11.5839897 6.22906609,11.2660856 C6.44863548,10.9879194 6.82913921,10.9115844 7.13380531,11.0649548 L7.25904308,11.1448298 L10.1163333,13.3998333 L15.2980649,7.84465663 C15.5742086,7.54838519 16.0382428,7.53206848 16.3345143,7.80821224 Z" id="形状结合" fill="#c2c2c2"></path>
    </g>
</svg>