<?xml version="1.0" encoding="UTF-8"?>
<svg width="14px" height="10px" viewBox="0 0 14 10" version="1.1" xmlns="http://www.w3.org/2000/svg" xmlns:xlink="http://www.w3.org/1999/xlink">
    <!-- Generator: Sketch 60 (88103) - https://sketch.com -->

    <g id="吴庚姿" stroke="none" stroke-width="1" fill="none" fill-rule="evenodd">
        <g id="h5-svg/icon/invoice/invoicetitle" transform="translate(-3.000000, -5.000000)">
            <g id="通用设置/企业发票抬头icon_management_invoicetitle">
                <g id="轮廓化">
                    <rect id="矩形" opacity="0" x="0" y="0" width="20" height="20"></rect>
                    <path d="M15.5555556,5.11111111 L4.44444444,5.11111111 C3.89215969,5.11111111 3.44444444,5.55882636 3.44444444,6.11111111 L3.444987,7.77792245 C3.44506689,8.02332583 3.64402803,8.22222222 3.88943142,8.22222222 C4.87127098,8.22222222 5.6672092,9.01816044 5.6672092,10 C5.6672092,10.9818396 4.87127098,11.7777778 3.88943142,11.7777778 C3.64402803,11.7777778 3.44506689,11.9766742 3.444987,12.2220775 L3.44444444,13.8887442 C3.44444444,14.4411736 3.89215969,14.8888889 4.44444444,14.8888889 L15.5555556,14.8888889 C16.1078403,14.8888889 16.5555556,14.4411736 16.5555556,13.8888889 L16.5560981,12.2223669 C16.5560981,11.9768505 16.35717,11.7777778 16.1116536,11.7777778 C15.1298141,11.7777778 14.3338759,10.9818396 14.3338759,10 C14.3338759,9.01816044 15.1298141,8.22222222 16.1116536,8.22222222 C16.35717,8.22222222 16.5560981,8.02314948 16.5560981,7.7776331 L16.5555555,6.11096644 C16.5555556,5.55882636 16.1078403,5.11111111 15.5555556,5.11111111 Z M15.5555556,6 L15.5850933,6.003969 C15.6321207,6.01690479 15.6666667,6.05997363 15.6666667,6.11111111 L15.6666667,7.37055556 L15.6449353,7.37403805 C14.3947058,7.5947345 13.444987,8.68645789 13.444987,10 L13.4475852,10.1187838 C13.5028216,11.3789073 14.4325916,12.4119533 15.6449353,12.625962 L15.6666667,12.6288889 L15.6666667,13.8887442 C15.6666667,13.9502539 15.6169205,14 15.5555556,14 L4.44444444,14 L4.41490671,13.996031 C4.36787926,13.9830952 4.33333331,13.9400264 4.33333331,13.8888889 L4.33333331,12.6288889 L4.35614979,12.625962 C5.60637925,12.4052655 6.55609809,11.3135421 6.55609809,10 L6.55349985,9.88121622 C6.49826342,8.62109268 5.56849351,7.58804673 4.35614979,7.37403805 L4.33333331,7.37055556 L4.33333331,6.11096644 C4.33333331,6.04974614 4.38307947,6 4.44444444,6 L15.5555556,6 Z" id="形状结合" fill="#E82B29"></path>
                    <g id="透明度层" opacity="0.700404576" transform="translate(7.056098, 8.166667)" fill="#E82B29">
                        <path d="M2.66666667,-4.61852778e-14 L1,-4.61852778e-14 C0.44771525,-4.61852778e-14 1.0658141e-14,0.44771525 1.0658141e-14,1 L1.0658141e-14,2.66666667 C1.0658141e-14,3.21895142 0.44771525,3.66666667 1,3.66666667 L2.66666667,3.66666667 C3.21895142,3.66666667 3.66666667,3.21895142 3.66666667,2.66666667 L3.66666667,1 C3.66666667,0.44771525 3.21895142,-4.61852778e-14 2.66666667,-4.61852778e-14 Z M1,0.888888889 L2.66666667,0.888888889 C2.72803164,0.888888889 2.77777778,0.938635028 2.77777778,1 L2.77777778,2.66666667 C2.77777778,2.72803164 2.72803164,2.77777778 2.66666667,2.77777778 L1,2.77777778 C0.938635028,2.77777778 0.888888889,2.72803164 0.888888889,2.66666667 L0.888888889,1 C0.888888889,0.938635028 0.938635028,0.888888889 1,0.888888889 Z" id="Rectangle备份"></path>
                        <path d="M5.72222222,0.229492187 C5.96768211,0.229492187 6.16666667,0.453349813 6.16666667,0.729492187 C6.16666667,0.984392841 5.9971177,1.19474318 5.77797239,1.22559648 L5.72222222,1.22949219 L4.61111111,1.22949219 C4.36565122,1.22949219 4.16666667,1.00563456 4.16666667,0.729492187 C4.16666667,0.474591534 4.33621564,0.264241199 4.55536094,0.233387897 L4.61111111,0.229492187 L5.72222222,0.229492187 Z" id="路径-9"></path>
                        <path d="M5.72222222,2.5 C5.96768211,2.5 6.16666667,2.72385763 6.16666667,3 C6.16666667,3.25490065 5.9971177,3.46525099 5.77797239,3.49610429 L5.72222222,3.5 L4.61111111,3.5 C4.36565122,3.5 4.16666667,3.27614237 4.16666667,3 C4.16666667,2.74509935 4.33621564,2.53474901 4.55536094,2.50389571 L4.61111111,2.5 L5.72222222,2.5 Z" id="路径-9备份"></path>
                    </g>
                </g>
            </g>
        </g>
    </g>
</svg>