<?xml version="1.0" encoding="UTF-8"?>
<svg width="22px" height="22px" viewBox="0 0 22 22" version="1.1" xmlns="http://www.w3.org/2000/svg" xmlns:xlink="http://www.w3.org/1999/xlink">
    <!-- Generator: Sketch 60 (88103) - https://sketch.com -->
   
    <defs>
        <linearGradient x1="43.4965938%" y1="20.4150281%" x2="84.322004%" y2="100%" id="linearGradient-1">
            <stop stop-color="#FAC96B" offset="0%"></stop>
            <stop stop-color="#F49939" offset="100%"></stop>
        </linearGradient>
        <linearGradient x1="15.1702601%" y1="0%" x2="86.8857938%" y2="100%" id="linearGradient-2">
            <stop stop-color="#FF7A77" offset="0%"></stop>
            <stop stop-color="#E82B29" offset="100%"></stop>
        </linearGradient>
        <linearGradient x1="14.0532257%" y1="45.5%" x2="88.0687684%" y2="54.5%" id="linearGradient-3">
            <stop stop-color="#FF7A77" offset="0%"></stop>
            <stop stop-color="#E82B29" offset="100%"></stop>
        </linearGradient>
    </defs>
    <g id="h5-svg/icon/mall/dingdan" stroke="none" stroke-width="1" fill="none" fill-rule="evenodd">
        <g id="我的订单" transform="translate(3.666667, 2.200000)">
            <path d="M13.596543,1.18976 L11.9673355,1.18976 L11.9673355,1.35490745 C11.9673355,2.30879551 11.2044827,3.08207457 10.263456,3.08207457 L5.51160088,3.08207457 C4.57057422,3.08207457 3.80772139,2.30879551 3.80772139,1.35490745 L3.80772139,1.18976 L2.1785139,1.18976 C1.23871695,1.23800389 0.513814986,2.04660178 0.556094786,2.99950084 L0.556094786,14.2800192 C0.552858263,14.7515438 0.72215888,15.207548 1.0312803,15.5599119 C1.3221888,15.8935517 1.73925407,16.0861727 2.1785139,16.08976 L13.596543,16.08976 C14.53634,16.0415161 15.2612419,15.2329182 15.2189621,14.2800192 L15.2189621,2.99950084 C15.2410909,2.54129234 15.0824756,2.09298462 14.7781063,1.75347335 C14.473737,1.41396209 14.0486228,1.21114389 13.596543,1.18976 Z" id="形状" fill="url(#linearGradient-2)"></path>
            <path d="M10.3490214,0.13376 C11.1443938,0.13376 11.54208,0.500426667 11.54208,1.23376 C11.54208,1.96709333 11.1443938,2.33376 10.3490214,2.33376 L5.40180523,2.33376 C4.60643286,2.33376 4.20874667,1.96709333 4.20874667,1.23376 C4.20874667,0.500426667 4.60643286,0.13376 5.40180523,0.13376 L10.3490214,0.13376 Z" id="路径" fill="url(#linearGradient-3)"></path>
            <rect id="矩形" fill="#FCBEBE" x="4.4" y="5.86666667" width="7.33333333" height="1.46666667" rx="0.733333333"></rect>
            <rect id="矩形备份" fill="#FCBEBE" x="4.4" y="10.2666667" width="7.33333333" height="1.46666667" rx="0.733333333"></rect>
        </g>
    </g>
</svg>