<?xml version="1.0" encoding="UTF-8"?>
<svg width="22px" height="22px" viewBox="0 0 22 22" version="1.1" xmlns="http://www.w3.org/2000/svg" xmlns:xlink="http://www.w3.org/1999/xlink">
    <!-- Generator: Sketch 60 (88103) - https://sketch.com -->
    <desc>Created with Sketch.</desc>
    <g id="h5-svg/icon/common/close" stroke="none" stroke-width="1" fill="none" fill-rule="evenodd">
        <g transform="translate(1.000000, 1.000000)" id="icon/common/failure备份">
            <g>
                <g id="h5-svg/icon/common/close">
                    <path d="M10,5.32907052e-15 C15.5228475,5.32907052e-15 20,4.4771525 20,10 C20,15.5228475 15.5228475,20 10,20 C4.4771525,20 5.32907052e-15,15.5228475 5.32907052e-15,10 C5.32907052e-15,4.4771525 4.4771525,5.32907052e-15 10,5.32907052e-15 Z M10,1 C5.02943725,1 1,5.02943725 1,10 C1,14.9705627 5.02943725,19 10,19 C14.9705627,19 19,14.9705627 19,10 C19,5.02943725 14.9705627,1 10,1 Z" id="椭圆形" fill="#D3D3D3"></path>
                    <path d="M13.8307919,6.25724735 C14.0609222,6.48737774 14.0753054,6.85155627 13.8739413,7.09844267 L13.8307919,7.14618159 L10.8958135,10.080143 L13.8307919,13.0141872 C14.0762643,13.2596596 14.0762643,13.657649 13.8307919,13.9031214 C13.599759,14.1341543 13.2336246,14.1477444 12.9866974,13.9438919 L12.9418576,13.9031214 L10.0078135,10.968143 L7.07385203,13.9031214 C6.82837962,14.1485938 6.4303902,14.1485938 6.18491779,13.9031214 C5.95478741,13.672991 5.94040426,13.3088125 6.14176834,13.0619261 L6.18491779,13.0141872 L9.11881348,10.080143 L6.18491779,7.14618159 C5.93944538,6.90070918 5.93944538,6.50271976 6.18491779,6.25724735 C6.41595065,6.02621449 6.78208508,6.01262432 7.02901224,6.21647684 L7.07385203,6.25724735 L10.0078135,9.19114304 L12.9418576,6.25724735 C13.18733,6.01177494 13.5853194,6.01177494 13.8307919,6.25724735 Z" id="形状结合" fill="#999999"></path>
                </g>
            </g>
        </g>
    </g>
</svg>