<?xml version="1.0" encoding="UTF-8"?>
<svg width="20px" height="20px" viewBox="0 0 20 20" version="1.1" xmlns="http://www.w3.org/2000/svg" xmlns:xlink="http://www.w3.org/1999/xlink">
    <!-- Generator: Sketch 60 (88103) - https://sketch.com -->
   
    <g id="h5-SVG/icon/mall/jiazai" stroke="none" stroke-width="1" fill="none" fill-rule="evenodd">
        <g id="h5-SVG/icon/mall/jiazai2备份" fill="#999999">
            <g id="编组" opacity="0.2">
                <rect id="矩形" x="9" y="0" width="2" height="5" rx="1"></rect>
                <rect id="矩形备份" x="9" y="15" width="2" height="5" rx="1"></rect>
                <rect id="矩形" transform="translate(17.500000, 10.000000) rotate(-270.000000) translate(-17.500000, -10.000000) " x="16.5" y="7.5" width="2" height="5" rx="1"></rect>
                <rect id="矩形备份" transform="translate(2.500000, 10.000000) rotate(-270.000000) translate(-2.500000, -10.000000) " x="1.5" y="7.5" width="2" height="5" rx="1"></rect>
                <rect id="矩形" transform="translate(16.495191, 6.250000) rotate(-300.000000) translate(-16.495191, -6.250000) " x="15.4951905" y="3.75" width="2" height="5" rx="1"></rect>
                <rect id="矩形备份" transform="translate(3.504809, 13.750000) rotate(-300.000000) translate(-3.504809, -13.750000) " x="2.50480947" y="11.25" width="2" height="5" rx="1"></rect>
                <rect id="矩形" transform="translate(13.750000, 16.495191) rotate(-210.000000) translate(-13.750000, -16.495191) " x="12.75" y="13.9951905" width="2" height="5" rx="1"></rect>
                <rect id="矩形备份" transform="translate(6.250000, 3.504809) rotate(-210.000000) translate(-6.250000, -3.504809) " x="5.25" y="1.00480947" width="2" height="5" rx="1"></rect>
                <rect id="矩形" transform="translate(13.750000, 3.504809) rotate(-330.000000) translate(-13.750000, -3.504809) " x="12.75" y="1.00480947" width="2" height="5" rx="1"></rect>
                <rect id="矩形备份" transform="translate(6.250000, 16.495191) rotate(-330.000000) translate(-6.250000, -16.495191) " x="5.25" y="13.9951905" width="2" height="5" rx="1"></rect>
                <rect id="矩形" transform="translate(16.495191, 13.750000) rotate(-240.000000) translate(-16.495191, -13.750000) " x="15.4951905" y="11.25" width="2" height="5" rx="1"></rect>
                <rect id="矩形备份" transform="translate(3.504809, 6.250000) rotate(-240.000000) translate(-3.504809, -6.250000) " x="2.50480947" y="3.75" width="2" height="5" rx="1"></rect>
            </g>
            <g id="编组">
                <rect id="矩形" opacity="0.84" x="9" y="0" width="2" height="5" rx="1"></rect>
                <rect id="矩形备份" opacity="0.1" x="9" y="15" width="2" height="5" rx="1"></rect>
                <rect id="矩形" opacity="0.1" transform="translate(17.500000, 10.000000) rotate(-270.000000) translate(-17.500000, -10.000000) " x="16.5" y="7.5" width="2" height="5" rx="1"></rect>
                <rect id="矩形备份" opacity="0.34" transform="translate(2.500000, 10.000000) rotate(-270.000000) translate(-2.500000, -10.000000) " x="1.5" y="7.5" width="2" height="5" rx="1"></rect>
                <rect id="矩形" opacity="0.1" transform="translate(16.495191, 6.250000) rotate(-300.000000) translate(-16.495191, -6.250000) " x="15.4951905" y="3.75" width="2" height="5" rx="1"></rect>
                <rect id="矩形备份" opacity="0.25" transform="translate(3.504809, 13.750000) rotate(-300.000000) translate(-3.504809, -13.750000) " x="2.50480947" y="11.25" width="2" height="5" rx="1"></rect>
                <rect id="矩形" opacity="0.1" transform="translate(13.750000, 16.495191) rotate(-210.000000) translate(-13.750000, -16.495191) " x="12.75" y="13.9951905" width="2" height="5" rx="1"></rect>
                <rect id="矩形备份" opacity="0.76" transform="translate(6.250000, 3.504809) rotate(-210.000000) translate(-6.250000, -3.504809) " x="5.25" y="1.00480947" width="2" height="5" rx="1"></rect>
                <rect id="矩形" opacity="0.1" transform="translate(13.750000, 3.504809) rotate(-330.000000) translate(-13.750000, -3.504809) " x="12.75" y="1.00480947" width="2" height="5" rx="1"></rect>
                <rect id="矩形备份" opacity="0.1" transform="translate(6.250000, 16.495191) rotate(-330.000000) translate(-6.250000, -16.495191) " x="5.25" y="13.9951905" width="2" height="5" rx="1"></rect>
                <rect id="矩形" opacity="0.1" transform="translate(16.495191, 13.750000) rotate(-240.000000) translate(-16.495191, -13.750000) " x="15.4951905" y="11.25" width="2" height="5" rx="1"></rect>
                <rect id="矩形备份" opacity="0.54" transform="translate(3.504809, 6.250000) rotate(-240.000000) translate(-3.504809, -6.250000) " x="2.50480947" y="3.75" width="2" height="5" rx="1"></rect>
            </g>
        </g>
    </g>
</svg>