<?xml version="1.0" encoding="UTF-8"?>
<svg width="22px" height="22px" viewBox="0 0 22 22" version="1.1" xmlns="http://www.w3.org/2000/svg" xmlns:xlink="http://www.w3.org/1999/xlink">
    <!-- Generator: Sketch 60 (88103) - https://sketch.com -->

    <desc>Created with Sketch.</desc>
    <g id="h5-svg/icon/common/locatoion" stroke="none" stroke-width="1" fill="none" fill-rule="evenodd">
        <g id="icon/clockin/blocatoion" transform="translate(2.000000, 1.000000)" fill="#262DD9">
            <g id="location" transform="translate(0.513889, 0.000000)">
                <path d="M8.66719381,4.64912781 C10.2433622,4.73083704 11.5757209,5.87294647 11.8861321,7.4357397 C12.2079224,9.056305 11.3412925,10.6788068 9.81537311,11.312451 C8.28947201,11.9461164 6.52836795,11.4147131 5.60767291,10.0427681 C4.68692273,8.67091504 4.86234365,6.8398231 6.0269057,5.66760555 C6.63235461,5.05836012 7.4406229,4.69716569 8.29355007,4.64977997 L8.49110019,4.6444453 L8.66719381,4.64912781 Z M8.48879022,6.24444363 L8.32362697,6.25150968 C7.88612777,6.28969808 7.47393204,6.48135265 7.16189202,6.79534934 C6.53487598,7.4264872 6.44041922,8.41245301 6.93621025,9.15114682 C7.43194626,9.88985235 8.38017215,10.1759742 9.20175564,9.83479286 C10.023399,9.4936021 10.4900403,8.61995773 10.3167808,7.74740704 C10.143451,6.87476262 9.37832325,6.24571088 8.48879022,6.24444363 Z" id="路径"></path>
                <path d="M8.48616832,0.2 C6.3706372,0.2 4.34640098,1.0684749 2.87747752,2.60545913 C-0.192511417,5.81703223 -0.192511417,10.9087085 2.87753425,14.120341 L8.48617487,19.9295621 L14.0919389,14.1232026 C17.1044735,10.9717475 17.1635519,6.01601462 14.2717646,2.7964892 L14.0947163,2.60542945 C12.6258013,1.06847015 10.6016032,0.2 8.48616832,0.2 Z M8.48616256,17.6259943 L4.03135663,13.0118834 C1.55529599,10.4216156 1.55529599,6.30412518 4.03411204,3.71098912 C5.20172608,2.48927513 6.80828452,1.8 8.48616832,1.8 C10.0756601,1.8 11.6011931,2.41863226 12.7501084,3.52248449 L12.9381102,3.71098912 C15.4169262,6.30412518 15.4169262,10.4216156 12.9381102,13.0147516 L8.48616256,17.6259943 Z" id="Fill-3"></path>
            </g>
        </g>
    </g>
</svg>