<?xml version="1.0" encoding="UTF-8"?>
<svg width="16px" height="16px" viewBox="0 0 16 16" version="1.1" xmlns="http://www.w3.org/2000/svg" xmlns:xlink="http://www.w3.org/1999/xlink">
    <!-- Generator: Sketch 60 (88103) - https://sketch.com -->
   
    <g id="17商城" stroke="none" stroke-width="1" fill="currentColor" fill-rule="evenodd">
        <g id="24.2搜索缺省" transform="translate(-289.000000, -36.000000)">
            <g id="A导航类/5/1/白色搜索search" transform="translate(15.000000, 27.500000)">
                <g id="h5-svg/icon/search/clean" transform="translate(274.000000, 8.500000)">
                    <g id="编组">
                        <circle id="椭圆形" cx="8" cy="8" r="8"></circle>
                        <g id="h5-svg/btn/common/关闭" fill="#FFFFFF">
                            <path d="M8.02066461,2.52631579 C8.37335171,2.52631579 8.6592611,2.81222518 8.6592611,3.16491228 L8.65831579,7.42731579 L12.8350877,7.42786414 C13.1877748,7.42786414 13.4736842,7.71377353 13.4736842,8.06646063 C13.4736842,8.41914774 13.1877748,8.70505712 12.8350877,8.70505712 L8.65831579,8.70431579 L8.6592611,12.8350877 C8.6592611,13.1877748 8.37335171,13.4736842 8.02066461,13.4736842 C7.6679775,13.4736842 7.38206812,13.1877748 7.38206812,12.8350877 L7.38131579,8.70431579 L3.16491228,8.70505712 C2.81222518,8.70505712 2.52631579,8.41914774 2.52631579,8.06646063 C2.52631579,7.71377353 2.81222518,7.42786414 3.16491228,7.42786414 L7.38131579,7.42731579 L7.38206812,3.16491228 C7.38206812,2.81222518 7.6679775,2.52631579 8.02066461,2.52631579 Z" id="合并形状" transform="translate(8.000000, 8.000000) rotate(45.000000) translate(-8.000000, -8.000000) "></path>
                        </g>
                    </g>
                </g>
            </g>
        </g>
    </g>
</svg>