<?xml version="1.0" encoding="UTF-8"?>
<svg width="22px" height="22px" viewBox="0 0 22 22" version="1.1" xmlns="http://www.w3.org/2000/svg" xmlns:xlink="http://www.w3.org/1999/xlink">
  
    <g id="icon/mall/moren" stroke="none" stroke-width="1" fill="none" fill-rule="evenodd">
        <path d="M11,2 C15.9705627,2 20,6.02943725 20,11 C20,15.9705627 15.9705627,20 11,20 C6.02943725,20 2,15.9705627 2,11 C2,6.02943725 6.02943725,2 11,2 Z M11,2.8 C6.47126505,2.8 2.8,6.47126505 2.8,11 C2.8,15.5287349 6.47126505,19.2 11,19.2 C15.5287349,19.2 19.2,15.5287349 19.2,11 C19.2,6.47126505 15.5287349,2.8 11,2.8 Z M6.88,13.54 L7.48,13.61 C7.42,14.34 7.29,14.99 7.07,15.55 L7.07,15.55 L6.47,15.36 C6.69,14.83 6.82,14.22 6.88,13.54 L6.88,13.54 Z M13.56,6.36 C13.56,7.1 13.55,8 13.54,9.04 L13.54,9.04 L15.3,9.04 L15.3,9.73 L13.58,9.73 C13.89,12 14.57,13.75 15.62,14.98 L15.62,14.98 L15.13,15.52 C14.24,14.39 13.63,12.97 13.31,11.26 C12.99,12.94 12.44,14.37 11.66,15.53 L11.66,15.53 L11.2,15.02 C11.21,15 11.22,14.98 11.23,14.97 L11.23,14.97 L10.75,15.15 C10.61,14.6 10.43,14.07 10.22,13.55 L10.22,13.55 L10.73,13.41 C10.96,13.95 11.14,14.45 11.27,14.91 C12.16,13.41 12.67,11.68 12.81,9.73 L12.81,9.73 L11.55,9.73 L11.55,9.04 L12.84,9.04 C12.86,7.87 12.87,6.98 12.87,6.36 L12.87,6.36 Z M8.51,13.61 C8.61,14.03 8.68,14.62 8.72,15.36 L8.72,15.36 L8.11,15.43 C8.09,14.67 8.03,14.09 7.95,13.67 L7.95,13.67 Z M9.62,13.5 C9.8,13.98 9.95,14.52 10.09,15.14 L10.09,15.14 L9.51,15.29 C9.4,14.73 9.26,14.19 9.1,13.67 L9.1,13.67 Z M11.08,6.7 L11.08,10.25 L9.18,10.25 L9.18,11.07 L11,11.07 L11,11.65 L9.18,11.65 L9.18,12.48 C9.94,12.44 10.6,12.4 11.17,12.34 L11.17,12.34 L11.17,12.91 C10.16,13.01 8.65,13.1 6.65,13.17 L6.65,13.17 L6.57,12.56 C7.28,12.55 7.94,12.53 8.54,12.51 L8.54,12.51 L8.54,11.65 L6.74,11.65 L6.74,11.07 L8.54,11.07 L8.54,10.25 L6.69,10.25 L6.69,6.7 L11.08,6.7 Z M10.5,7.26 L9.13,7.26 L9.13,9.69 L10.5,9.69 L10.5,7.26 Z M8.61,7.26 L7.27,7.26 L7.27,9.69 L8.61,9.69 L8.61,7.26 Z M9.76,7.78 L10.14,7.87 C10.08,8.35 9.97,8.82 9.81,9.28 L9.81,9.28 L9.43,9.15 C9.59,8.72 9.7,8.26 9.76,7.78 L9.76,7.78 Z M7.93,7.82 C8.08,8.22 8.21,8.67 8.33,9.18 L8.33,9.18 L7.96,9.28 C7.85,8.82 7.71,8.37 7.55,7.94 L7.55,7.94 Z M14.4,6.69 C14.84,7.25 15.17,7.75 15.4,8.17 L15.4,8.17 L14.9,8.53 C14.66,8.07 14.33,7.55 13.91,6.99 L13.91,6.99 Z" id="形状结合" fill="#FFFFFF"></path>
    </g>
</svg>