<?xml version="1.0" encoding="UTF-8"?>
<svg width="22px" height="22px" viewBox="0 0 22 22" version="1.1" xmlns="http://www.w3.org/2000/svg" xmlns:xlink="http://www.w3.org/1999/xlink">
    <!-- Generator: Sketch 60 (88103) - https://sketch.com -->

    <g id="h5-svg/icon/mall/tuihuo" stroke="none" stroke-width="1" fill="none" fill-rule="evenodd">
        <path d="M11,1 C16.5228475,1 21,5.4771525 21,11 C21,16.5228475 16.5228475,21 11,21 C5.4771525,21 1,16.5228475 1,11 C1,5.4771525 5.4771525,1 11,1 Z M11,2.2 C6.1398942,2.2 2.2,6.1398942 2.2,11 C2.2,15.8601058 6.1398942,19.8 11,19.8 C15.8601058,19.8 19.8,15.8601058 19.8,11 C19.8,6.1398942 15.8601058,2.2 11,2.2 Z" id="椭圆形" fill="currentColor"></path>
        <path d="M7.832,7.98 L8.66,7.164 C8.108,6.54 7.424,5.916 6.632,5.28 L5.84,6.036 C6.704,6.732 7.364,7.38 7.832,7.98 Z M9.524,14.328 C10.988,14.088 12.188,13.836 13.148,13.584 L12.896,12.564 C12.2,12.768 11.492,12.936 10.784,13.068 L10.784,10.224 L15.584,10.224 L15.584,5.568 L9.68,5.568 L9.68,12.924 C9.68,13.116 9.548,13.272 9.284,13.368 L9.524,14.328 Z M14.468,7.428 L10.784,7.428 L10.784,6.576 L14.468,6.576 L14.468,7.428 Z M14.468,9.216 L10.784,9.216 L10.784,8.364 L14.468,8.364 L14.468,9.216 Z M6.44,16.284 C7.052,15.204 7.484,14.664 7.736,14.664 C7.868,14.664 8.012,14.76 8.18,14.964 C8.54,15.372 8.948,15.66 9.428,15.804 C9.92,15.924 10.556,15.996 11.324,16.008 C12.092,16.02 12.8,16.032 13.448,16.032 L16.256,16.032 L16.544,14.904 C16.208,14.928 15.728,14.952 15.116,14.964 C14.492,14.976 13.892,14.988 13.292,14.988 C12.356,14.988 11.564,14.976 10.892,14.964 C10.196,14.94 9.668,14.832 9.308,14.664 C9.02,14.508 8.732,14.268 8.456,13.944 C8.396,13.872 8.336,13.824 8.288,13.776 L8.288,9.228 L5.612,9.228 L5.612,10.284 L7.22,10.284 L7.22,13.68 C6.74,13.92 6.2,14.532 5.6,15.504 L6.44,16.284 Z M15.668,14.304 L16.364,13.464 C15.908,13.02 15.404,12.588 14.852,12.18 C15.188,11.868 15.524,11.52 15.86,11.124 L15.044,10.5 C14.756,10.86 14.408,11.22 14.024,11.58 C13.484,11.208 12.908,10.848 12.284,10.5 L11.648,11.28 C13.28,12.216 14.612,13.224 15.668,14.304 Z" id="退" fill="currentColor"></path>
    </g>
</svg>