<?xml version="1.0" encoding="UTF-8"?>
<svg width="26px" height="26px" viewBox="0 0 26 26" version="1.1" xmlns="http://www.w3.org/2000/svg" xmlns:xlink="http://www.w3.org/1999/xlink">
    <!-- Generator: Sketch 60 (88103) - https://sketch.com -->
   
    <g id="icon/菜单栏/首页商城/默认" stroke="none" stroke-width="1" fill="none" fill-rule="evenodd">
        <g id="购物" transform="translate(4.000000, 4.000000)">
            <path d="M17.9792075,13.9114219 L16.2078073,1.64102564 C16.0842212,0.708624709 15.1779234,0 14.1480396,0 L3.80800568,0 C2.77812183,0 1.91301939,0.708624709 1.74823797,1.64102564 L0.0180330973,13.9114219 C-0.064357611,14.4335664 0.14161916,14.993007 0.512377347,15.3659674 C0.883135535,15.7389277 1.45987049,16 2.07780081,16 L15.9606352,16 C16.5373701,16 17.1141051,15.7762238 17.5260586,15.3659674 C17.8968168,14.955711 18.0615982,14.4335664 17.9792075,13.9114219 Z" id="形状" stroke="#A4ACB2" stroke-width="1.3" fill-rule="nonzero"></path>
            <circle id="椭圆形" fill="#A4ACB2" cx="5.5" cy="4" r="1"></circle>
            <circle id="椭圆形备份" fill="#A4ACB2" cx="12.5" cy="4" r="1"></circle>
            <path d="M5.5,4 C5.5,5.9882251 7.1117749,7.6 9.1,7.6 C11.0882251,7.6 12.7,5.9882251 12.7,4" id="路径" stroke="#A4ACB2"></path>
        </g>
    </g>
</svg>