<?xml version="1.0" encoding="UTF-8"?>
<svg width="22px" height="22px" viewBox="0 0 22 22" version="1.1" xmlns="http://www.w3.org/2000/svg" xmlns:xlink="http://www.w3.org/1999/xlink">
    <!-- Generator: Sketch 59 (86127) - https://sketch.com -->
   
    <g id="h5-svg/icon/mall/kefu1" stroke="none" stroke-width="1" fill="none" fill-rule="evenodd">
        <g id="轮廓化" fill="#666666" fill-rule="nonzero">
            <g id="客服" transform="translate(1.500000, 1.000000)">
                <path d="M2.06668137,14.3961681 C1.11726202,12.9578021 0.6,11.2671517 0.6,9.5 C0.6,4.58466573 4.58466573,0.6 9.5,0.6 C14.4153343,0.6 18.4,4.58466573 18.4,9.5 C18.4,14.4153343 14.4153343,18.4 9.5,18.4 C8.33949754,18.4 7.20868301,18.17731 6.15560274,17.7500116 C6.11379375,17.7611283 6.06216997,17.7777388 6.00184252,17.7998697 L5.90496247,17.8372095 C5.75359541,17.8981008 5.60637418,17.9649341 5.38466162,18.0745628 L4.28612771,18.6321781 L4.01825852,18.7623808 C3.93636212,18.8010884 3.86081089,18.8355651 3.78846042,18.8671977 L3.47387596,18.995029 C2.78461058,19.2538761 2.26951101,19.3087469 1.7876106,18.9170167 C1.28626492,18.5094797 1.27642661,18.0113124 1.44666152,17.2834327 C1.49452752,17.0787703 1.54960758,16.8865896 1.63753106,16.6190463 L2.1038319,15.2611002 L2.18531364,14.995975 L2.24700158,14.7555544 L2.26230212,14.6804254 L2.06668137,14.3961681 Z M3.74200159,16.0389002 L3.38484172,17.0694314 L3.6488016,16.9380557 L4.40840461,16.5499467 L4.80187734,16.3537335 C5.77049435,15.8811276 6.12560467,15.8078803 6.62661876,15.9977492 L7.05192296,16.1669282 C7.82788704,16.4519902 8.65297975,16.6 9.5,16.6 C13.4212217,16.6 16.6,13.4212217 16.6,9.5 C16.6,5.57877828 13.4212217,2.4 9.5,2.4 C5.57877828,2.4 2.4,5.57877828 2.4,9.5 C2.4,11.0679607 2.90855036,12.556402 3.83437928,13.7798472 C4.15346298,14.2015033 4.1346507,14.6349349 3.97172593,15.2828607 C3.91475186,15.5094375 3.85347414,15.7111744 3.74200159,16.0389002 Z" id="椭圆形"></path>
                <path d="M5.1,10.5 C5.1,12.6873476 7.09809448,14.4 9.5,14.4 C11.9019055,14.4 13.9,12.6873476 13.9,10.5 C13.9,10.0029437 13.4970563,9.6 13,9.6 C12.5411788,9.6 12.1625482,9.94333667 12.1070123,10.3871059 L12.1,10.5 C12.1,11.6263609 10.9640877,12.6 9.5,12.6 C8.03591227,12.6 6.9,11.6263609 6.9,10.5 C6.9,10.0029437 6.49705627,9.6 6,9.6 C5.50294373,9.6 5.1,10.0029437 5.1,10.5 Z" id="路径"></path>
            </g>
        </g>
    </g>
</svg>