<?xml version="1.0" encoding="UTF-8"?>
<svg width="22px" height="22px" viewBox="0 0 22 22" version="1.1" xmlns="http://www.w3.org/2000/svg" xmlns:xlink="http://www.w3.org/1999/xlink">
    <!-- Generator: Sketch 60 (88103) - https://sketch.com -->
    
    <g id="h5-svg/icon/mall/yixiadan" stroke="none" stroke-width="1" fill="none" fill-rule="evenodd">
        <path d="M11.05,21.05 C16.5728475,21.05 21.05,16.5728475 21.05,11.05 C21.05,5.5271525 16.5728475,1.05 11.05,1.05 C5.5271525,1.05 1.05,5.5271525 1.05,11.05 C1.05,16.5728475 5.5271525,21.05 11.05,21.05 Z M6.67591191,11.4446399 C6.40031885,11.2004838 5.97897887,11.2259685 5.73482274,11.5015615 C5.4906666,11.7771546 5.51615126,12.1984946 5.79174432,12.4426507 L9.47039556,15.7016779 C9.74386004,15.9439482 10.1613745,15.9209854 10.4066207,15.6501865 L16.8021187,8.58832848 C17.0492739,8.31542174 17.0283981,7.89382829 16.7554914,7.64667315 C16.4825846,7.399518 16.0609912,7.4203938 15.813836,7.69330054 L9.86098487,14.2663914 L6.67591191,11.4446399 Z" fill="currentColor"></path>
    </g>
</svg>