<?xml version="1.0" encoding="UTF-8"?>
<svg width="22px" height="22px" viewBox="0 0 22 22" version="1.1" xmlns="http://www.w3.org/2000/svg" xmlns:xlink="http://www.w3.org/1999/xlink">
    <!-- Generator: Sketch 60 (88103) - https://sketch.com -->
   
    <g id="h5-svg/icon/mall/yunshuzhong" stroke="none" stroke-width="1" fill="none" fill-rule="evenodd">
        <path d="M11,1 C16.5228475,1 21,5.4771525 21,11 C21,16.5228475 16.5228475,21 11,21 C5.4771525,21 1,16.5228475 1,11 C1,5.4771525 5.4771525,1 11,1 Z M13.3047619,6.28573845 L6.18095238,6.28573845 C5.72195708,6.28227665 5.34689058,6.65124832 5.34285714,7.11023914 L5.34285714,7.11023914 L5.34285714,13.4231915 C5.34689058,13.8821823 5.72195708,14.251154 6.18095238,14.2476677 L6.18095238,14.2476677 L6.84095238,14.2476677 C6.98967001,14.9800552 7.63361816,15.5063859 8.38095238,15.5063859 C9.1282866,15.5063859 9.77223475,14.9800552 9.92095238,14.2476677 L9.92095238,14.2476677 L13.3047619,14.2476677 L13.3047619,14.2476677 L13.3361905,14.2451534 C13.4843092,14.9776633 14.127828,15.5045208 14.8751629,15.5051309 C15.6224979,15.505741 16.266876,14.9799348 16.4161905,14.2476677 L16.4161905,14.2476677 L16.447619,14.2476677 C16.9104863,14.2476677 17.2857143,13.8724397 17.2857143,13.4095725 L17.2857143,13.4095725 L17.2857143,10.9751153 C17.2857143,10.8210425 17.2289652,10.6723659 17.1264762,10.5573249 L17.1264762,10.5573249 L15.5655238,8.38225819 C15.446315,8.24825767 15.2755417,8.17156215 15.0961905,8.17147724 L15.0961905,8.17147724 L14.1428571,8.17147724 L14.1428571,7.11023914 C14.1388237,6.65124832 13.7637572,6.28227665 13.3047619,6.28573845 L13.3047619,6.28573845 Z M8.38095238,13.2000487 C8.7859612,13.2000487 9.11428571,13.5283732 9.11428571,13.933382 C9.11428571,14.3383908 8.7859612,14.6667153 8.38095238,14.6667153 C7.97594356,14.6667153 7.64761905,14.3383908 7.64761905,13.933382 C7.64761905,13.5283732 7.97594356,13.2000487 8.38095238,13.2000487 Z M14.8761905,13.2000487 C15.2811993,13.2000487 15.6095238,13.5283732 15.6095238,13.933382 C15.6095238,14.3383908 15.2811993,14.6667153 14.8761905,14.6667153 C14.4711817,14.6667153 14.1428571,14.3383908 14.1428571,13.933382 C14.1428571,13.5283732 14.4711817,13.2000487 14.8761905,13.2000487 Z M13.3047619,7.11023914 L13.3089524,13.4095725 L13.3089524,13.4095725 L13.3047619,13.4095725 L9.86438095,13.4164868 C9.64476019,12.7841999 9.04827815,12.3608002 8.37893646,12.3620765 C7.70959476,12.3633528 7.11473172,12.7890241 6.89752381,13.4221439 L6.89752381,13.4221439 L6.18095238,13.4231915 L6.18095238,7.12385819 L13.3047619,7.11023914 Z M15.0019048,9.00957247 L16.0390476,10.4762391 L15.1904762,10.4762391 C14.9590426,10.4762391 14.7714286,10.6638532 14.7714286,10.8952868 C14.7714286,11.1267204 14.9590426,11.3143344 15.1904762,11.3143344 L15.1904762,11.3143344 L16.447619,11.3143344 L16.447619,13.4095725 L16.3554286,13.4095725 C16.2041839,12.9789368 15.8726784,12.6356583 15.4475807,12.4694837 C15.022483,12.3033092 14.5460561,12.3307595 14.1428571,12.5446582 L14.1428571,12.5446582 L14.1428571,9.00957247 L15.0019048,9.00957247 Z M11.4190476,10.0571915 L7.64761905,10.0571915 C7.41618544,10.0571915 7.22857143,10.2448055 7.22857143,10.4762391 C7.22857143,10.7076728 7.41618544,10.8952868 7.64761905,10.8952868 L7.64761905,10.8952868 L11.4190476,10.8952868 C11.6504812,10.8952868 11.8380952,10.7076728 11.8380952,10.4762391 C11.8380952,10.2448055 11.6504812,10.0571915 11.4190476,10.0571915 L11.4190476,10.0571915 Z M9.11428571,8.59052486 L7.64761905,8.59052486 C7.41618544,8.59052486 7.22857143,8.77813887 7.22857143,9.00957247 C7.22857143,9.24100608 7.41618544,9.42862009 7.64761905,9.42862009 L7.64761905,9.42862009 L9.11428571,9.42862009 C9.34571932,9.42862009 9.53333333,9.24100608 9.53333333,9.00957247 C9.53333333,8.77813887 9.34571932,8.59052486 9.11428571,8.59052486 L9.11428571,8.59052486 Z" id="形状结合" fill="currentColor"></path>
    </g>
</svg>