<?xml version="1.0" encoding="UTF-8"?>
<svg width="22px" height="22px" viewBox="0 0 22 22" version="1.1" xmlns="http://www.w3.org/2000/svg" xmlns:xlink="http://www.w3.org/1999/xlink">
    <!-- Generator: Sketch 60 (88103) - https://sketch.com -->
    
    <g id="h5-svg/icon/mall/yiqianshou" stroke="none" stroke-width="1" fill="none" fill-rule="evenodd">
        <path d="M11.05,1.05 C16.5728475,1.05 21.05,5.5271525 21.05,11.05 C21.05,16.5728475 16.5728475,21.05 11.05,21.05 C5.5271525,21.05 1.05,16.5728475 1.05,11.05 C1.05,5.5271525 5.5271525,1.05 11.05,1.05 Z M13.7465714,11.9048571 C13.4008571,12.9880952 13.0090476,13.9215238 12.559619,14.7051429 L6.19847619,14.7051429 L6.19847619,15.4772381 L15.9245714,15.4772381 L15.9245714,14.7051429 L13.4469524,14.7051429 C13.8848571,13.9445714 14.253619,13.0802857 14.5532381,12.1238095 L13.7465714,11.9048571 Z M8.23819048,12.0431429 L7.48914286,12.2851429 C7.85790476,12.9535238 8.15752381,13.6564762 8.388,14.394 L9.13704762,14.1980952 C8.872,13.3914286 8.57238095,12.6654286 8.23819048,12.0431429 Z M10.9001905,11.8126667 L10.139619,12.0546667 C10.4392381,12.7691429 10.6812381,13.5181905 10.8771429,14.3018095 L11.6146667,14.1059048 C11.4072381,13.241619 11.1652381,12.4810476 10.9001905,11.8126667 Z M14.0461905,10.706381 L8.06533333,10.706381 L8.06533333,11.4439048 L14.0461905,11.4439048 L14.0461905,10.706381 Z M11.3150476,8.17114286 L10.7849524,8.17114286 C9.45971429,9.15066667 7.80028571,9.96885714 5.81819048,10.6372381 L6.21,11.3517143 C8.21514286,10.6487619 9.82847619,9.81904762 11.05,8.85104762 C12.3867619,9.88819048 13.9885714,10.7179048 15.8784762,11.3632381 L16.2818095,10.6487619 C14.4034286,10.0495238 12.744,9.21980952 11.3150476,8.17114286 Z M7.43152381,5.26714286 C7.10885714,6.32733333 6.59028571,7.29533333 5.87580952,8.17114286 L6.59028571,8.62057143 C6.97057143,8.13657143 7.3047619,7.60647619 7.60438095,7.03028571 L8.48019048,7.03028571 C8.68761905,7.47971429 8.86047619,7.95219048 9.01028571,8.43619048 L9.77085714,8.15961905 C9.65561905,7.81390476 9.49428571,7.43361905 9.30990476,7.03028571 L10.9693333,7.03028571 L10.9693333,6.2927619 L7.93857143,6.2927619 C8.04228571,6.01619048 8.146,5.73961905 8.23819048,5.44 L7.43152381,5.26714286 Z M12.26,5.26714286 C12.018,6.166 11.6261905,6.97266667 11.0845714,7.71019048 L11.7875238,8.15961905 C12.0295238,7.81390476 12.2484762,7.43361905 12.4559048,7.03028571 L13.4584762,7.03028571 C13.712,7.51428571 13.9424762,8.02133333 14.1499048,8.53990476 L14.9104762,8.26333333 C14.7606667,7.87152381 14.5647619,7.46819048 14.3112381,7.03028571 L16.1435238,7.03028571 L16.1435238,6.2927619 L12.7785714,6.2927619 C12.8707619,6.01619048 12.9629524,5.73961905 13.0551429,5.44 L12.26,5.26714286 Z" fill="currentColor"></path>
    </g>
</svg>