<?xml version="1.0" encoding="UTF-8"?>
<svg width="13px" height="12px" viewBox="0 0 13 12" version="1.1" xmlns="http://www.w3.org/2000/svg" xmlns:xlink="http://www.w3.org/1999/xlink">
    
    <g id="06我" stroke="none" stroke-width="1" fill="none" fill-rule="evenodd">
        <g id="05.1商品详情" transform="translate(-57.000000, -701.000000)" fill="#FFA501">
            <g id="选择备份" transform="translate(0.000000, 656.000000)">
                <g id="编组-3" transform="translate(15.000000, 17.036145)">
                    <g id="h5-svg/icon/common/prompt" transform="translate(42.000000, 27.650602)">
                        <path d="M6.5,0.281215772 C9.92667583,0.281215772 12.7045455,2.92521216 12.7045455,6.18674699 C12.7045455,9.44828182 9.92667583,12.0922782 6.5,12.0922782 C3.07332417,12.0922782 0.295454545,9.44828182 0.295454545,6.18674699 C0.295454545,2.92521216 3.07332417,0.281215772 6.5,0.281215772 Z M6.5,1.16503677 C3.58616001,1.16503677 1.22402597,3.41333302 1.22402597,6.18674699 C1.22402597,8.96016096 3.58616001,11.2084572 6.5,11.2084572 C9.41383999,11.2084572 11.775974,8.96016096 11.775974,6.18674699 C11.775974,3.41333302 9.41383999,1.16503677 6.5,1.16503677 Z" id="椭圆形"></path>
                        <path d="M5.71598202,3.67138019 C5.71598202,3.43718947 5.80409265,3.23544035 5.98031656,3.06612679 C6.15654047,2.89681323 6.36767349,2.81215772 6.61372197,2.81215772 C6.86309543,2.81215772 7.07422845,2.89602206 7.24712738,3.06375325 C7.42002631,3.23148444 7.50647448,3.43402473 7.50647448,3.67138019 C7.50647448,3.90873565 7.41919508,4.11127593 7.24463366,4.27900712 C7.07007224,4.44673831 6.85977045,4.53060265 6.61372197,4.53060265 C6.35769856,4.53060265 6.14407183,4.44436479 5.97283539,4.27188649 C5.80159895,4.09940819 5.71598202,3.89924143 5.71598202,3.67138019 Z M7.39675071,5.31861883 L7.39675071,8.22858221 C7.39675071,8.46910241 7.43664986,8.63445756 7.51644937,8.72465264 C7.59624888,8.81484771 7.78244493,8.85994457 8.07504312,8.85994457 L8.07504312,9.36313563 L5.02272727,9.36313563 L5.02272727,8.85994457 L5.13743849,8.85994457 C5.42006174,8.85994457 5.5987767,8.81247419 5.67358874,8.71753201 C5.74840078,8.62258983 5.78580623,8.45960819 5.78580623,8.22858221 L5.78580623,6.81395075 C5.78580623,6.57976003 5.74756954,6.41598722 5.67109502,6.3226274 C5.59462049,6.22926759 5.41673676,6.18258838 5.13743849,6.18258838 L5.02272727,6.18258838 L5.02272727,5.67939733 L7.39675071,5.31861883 Z" id="i"></path>
                    </g>
                </g>
            </g>
        </g>
    </g>
</svg>