<?xml version="1.0" encoding="UTF-8"?>
<svg width="375px" height="304px" viewBox="0 0 375 304" version="1.1" xmlns="http://www.w3.org/2000/svg" xmlns:xlink="http://www.w3.org/1999/xlink">
   
    <defs>
        <linearGradient x1="92.943189%" y1="75.2346372%" x2="40.2498103%" y2="40.4255519%" id="linearGradient-1">
            <stop stop-color="#FFFFFF" stop-opacity="0.304195804" offset="0%"></stop>
            <stop stop-color="#F9F0F0" stop-opacity="0" offset="100%"></stop>
        </linearGradient>
        <path d="M134.5,0 C208.782299,0 269,60.2177012 269,134.5 C269,208.782299 208.782299,269 134.5,269 C60.2177012,269 0,208.782299 0,134.5 C0,60.2177012 60.2177012,0 134.5,0 Z M134.5,38.5 C81.2045216,38.5 38,81.480664 38,134.5 C38,187.519336 81.2045216,230.5 134.5,230.5 C187.795478,230.5 231,187.519336 231,134.5 C231,81.480664 187.795478,38.5 134.5,38.5 Z" id="path-2"></path>
        <filter x="-32.7%" y="-32.0%" width="165.4%" height="165.4%" filterUnits="objectBoundingBox" id="filter-3">
            <feOffset dx="0" dy="2" in="SourceAlpha" result="shadowOffsetOuter1"></feOffset>
            <feGaussianBlur stdDeviation="29" in="shadowOffsetOuter1" result="shadowBlurOuter1"></feGaussianBlur>
            <feComposite in="shadowBlurOuter1" in2="SourceAlpha" operator="out" result="shadowBlurOuter1"></feComposite>
            <feColorMatrix values="0 0 0 0 0.517889493   0 0 0 0 0   0 0 0 0 0  0 0 0 1 0" type="matrix" in="shadowBlurOuter1"></feColorMatrix>
        </filter>
        <linearGradient x1="92.943189%" y1="73.9490099%" x2="39.9054457%" y2="40.6974441%" id="linearGradient-4">
            <stop stop-color="#FFFFFF" stop-opacity="0.432200612" offset="0%"></stop>
            <stop stop-color="#FFFFFF" stop-opacity="0.126748252" offset="100%"></stop>
        </linearGradient>
        <path d="M313.5,209 C356.302068,209 391,242.802501 391,284.5 C391,326.197499 356.302068,360 313.5,360 C270.697932,360 236,326.197499 236,284.5 C236,242.802501 270.697932,209 313.5,209 Z M313.5,230 C282.848196,230 258,254.176624 258,284 C258,313.823376 282.848196,338 313.5,338 C344.151804,338 369,313.823376 369,284 C369,254.176624 344.151804,230 313.5,230 Z" id="path-5"></path>
        <filter x="-56.8%" y="-57.0%" width="213.5%" height="216.6%" filterUnits="objectBoundingBox" id="filter-6">
            <feOffset dx="0" dy="2" in="SourceAlpha" result="shadowOffsetOuter1"></feOffset>
            <feGaussianBlur stdDeviation="29" in="shadowOffsetOuter1" result="shadowBlurOuter1"></feGaussianBlur>
            <feComposite in="shadowBlurOuter1" in2="SourceAlpha" operator="out" result="shadowBlurOuter1"></feComposite>
            <feColorMatrix values="0 0 0 0 0.241423234   0 0 0 0 0.241423234   0 0 0 0 0.241423234  0 0 0 0.607626748 0" type="matrix" in="shadowBlurOuter1"></feColorMatrix>
        </filter>
        <linearGradient x1="92.943189%" y1="75.2346372%" x2="39.9054457%" y2="40.1980657%" id="linearGradient-7">
            <stop stop-color="#FFFFFF" stop-opacity="0.249726836" offset="0%"></stop>
            <stop stop-color="#FFFFFF" stop-opacity="0.238936844" offset="100%"></stop>
        </linearGradient>
        <circle id="path-8" cx="346.5" cy="155.5" r="20.5"></circle>
        <filter x="-214.6%" y="-209.8%" width="529.3%" height="529.3%" filterUnits="objectBoundingBox" id="filter-9">
            <feOffset dx="0" dy="2" in="SourceAlpha" result="shadowOffsetOuter1"></feOffset>
            <feGaussianBlur stdDeviation="29" in="shadowOffsetOuter1" result="shadowBlurOuter1"></feGaussianBlur>
            <feColorMatrix values="0 0 0 0 0.517889493   0 0 0 0 0   0 0 0 0 0  0 0 0 1 0" type="matrix" in="shadowBlurOuter1"></feColorMatrix>
        </filter>
    </defs>
    <g id="06我" stroke="none" stroke-width="1" fill="none" fill-rule="evenodd" opacity="0.925874256">
        <g id="12.1订单详情已完成" transform="translate(0.000000, 0.000000)">
            <g id="背景" transform="translate(0.000000, -114.000000)">
                <g id="完成">
                    <g id="bg_mall_digndanxiangqing">
                        <g id="形状结合" opacity="0.255836124">
                            <use fill="black" fill-opacity="1" filter="url(#filter-3)" xlink:href="#path-2"></use>
                            <use fill="url(#linearGradient-1)" fill-rule="evenodd" xlink:href="#path-2"></use>
                        </g>
                        <g id="形状结合备份" opacity="0.36874535">
                            <use fill="black" fill-opacity="1" filter="url(#filter-6)" xlink:href="#path-5"></use>
                            <use fill="url(#linearGradient-4)" fill-rule="evenodd" xlink:href="#path-5"></use>
                        </g>
                        <g id="Oval-Copy-3" opacity="0.408365885">
                            <use fill="black" fill-opacity="1" filter="url(#filter-9)" xlink:href="#path-8"></use>
                            <use fill="url(#linearGradient-7)" fill-rule="evenodd" xlink:href="#path-8"></use>
                        </g>
                    </g>
                </g>
            </g>
        </g>
    </g>
</svg>