<?xml version="1.0" encoding="UTF-8"?>
<svg width="22px" height="22px" viewBox="0 0 22 22" version="1.1" xmlns="http://www.w3.org/2000/svg" xmlns:xlink="http://www.w3.org/1999/xlink">
    
    <g id="h5-svg/icon/mall/baoguochuli" stroke="none" stroke-width="1" fill="none" fill-rule="evenodd">
        <path d="M11.05,1.05 C16.5728475,1.05 21.05,5.5271525 21.05,11.05 C21.05,16.5728475 16.5728475,21.05 11.05,21.05 C5.5271525,21.05 1.05,16.5728475 1.05,11.05 C1.05,5.5271525 5.5271525,1.05 11.05,1.05 Z M6.85952381,10.002381 C6.28093979,10.002381 5.81190476,10.471416 5.81190476,11.05 C5.81190476,11.628584 6.28093979,12.097619 6.85952381,12.097619 C7.43810783,12.097619 7.90714286,11.628584 7.90714286,11.05 C7.90714286,10.471416 7.43810783,10.002381 6.85952381,10.002381 Z M11.05,10.002381 C10.471416,10.002381 10.002381,10.471416 10.002381,11.05 C10.002381,11.628584 10.471416,12.097619 11.05,12.097619 C11.628584,12.097619 12.097619,11.628584 12.097619,11.05 C12.097619,10.471416 11.628584,10.002381 11.05,10.002381 Z M15.2404762,10.002381 C14.6618922,10.002381 14.1928571,10.471416 14.1928571,11.05 C14.1928571,11.628584 14.6618922,12.097619 15.2404762,12.097619 C15.8190602,12.097619 16.2880952,11.628584 16.2880952,11.05 C16.2880952,10.471416 15.8190602,10.002381 15.2404762,10.002381 Z" fill="#E82B29"></path>
    </g>
</svg>