<?xml version="1.0" encoding="UTF-8"?>
<svg width="22px" height="22px" viewBox="0 0 22 22" version="1.1" xmlns="http://www.w3.org/2000/svg" xmlns:xlink="http://www.w3.org/1999/xlink">
   
    <g id="h5-svg/icon/mall/daifukuai" stroke="none" stroke-width="1" fill="none" fill-rule="evenodd">
        <g id="icon/common/success">
            <g id="编组">
                <circle id="椭圆形" fill="#FFFFFF" cx="11" cy="11" r="11"></circle>
                <g id="编组-2" transform="translate(5.500000, 5.000000)" fill="#FFA501">
                    <path d="M9.44053489,0.803192798 L9.47767857,0.918170989 L9.80576388,2.10347639 C10.3770631,2.14706586 10.8351384,2.59551355 10.8936759,3.16250583 L10.9,3.28571429 L10.9,8.71428571 C10.9,9.32820939 10.4334217,9.83315787 9.83551811,9.89387829 L9.71428571,9.9 L1.78571429,9.9 C1.17179061,9.9 0.66684213,9.43342175 0.606121709,8.83551811 L0.6,8.71428571 L0.6,3.28571429 C0.6,2.67179061 1.06657825,2.16684213 1.66448189,2.10612171 L1.78571429,2.1 L1.8301683,2.0991377 C1.89414521,1.83317193 2.12699687,1.68101513 2.52693114,1.55874878 L2.66197635,1.52017591 L8.02631442,0.0828058541 C8.61931915,-0.0760892847 9.22782127,0.243900416 9.44053489,0.803192798 Z M9.71428571,2.9 L1.78571429,2.9 C1.59931818,2.9 1.44380276,3.03221591 1.40783634,3.2079794 L1.4,3.28571429 L1.4,8.71428571 C1.4,8.90068182 1.53221591,9.05619724 1.7079794,9.09216366 L1.78571429,9.1 L9.71428571,9.1 C9.90068182,9.1 10.0561972,8.96778409 10.0921637,8.7920206 L10.1,8.71428571 L10.1,7.39909618 L7,7.4 C6.0006276,7.4 5.18146567,6.62842723 5.1057164,5.64848388 L5.1,5.5 C5.1,4.5006276 5.87157277,3.68146567 6.85151612,3.6057164 L7,3.6 L10.1,3.59909618 L10.1,3.28571429 C10.1,3.09931818 9.96778409,2.94380276 9.7920206,2.90783634 L9.71428571,2.9 Z M10.1,4.4 L7,4.4 C6.47348854,4.4 6.03337472,4.76991229 5.92537124,5.26402417 L5.90645465,5.38014288 L5.9,5.5 C5.9,6.06701234 6.3290107,6.53382387 6.88014288,6.59354535 L7,6.6 L10.1,6.6 L10.1,4.4 Z M7,5 C7.27614237,5 7.5,5.22385763 7.5,5.5 C7.5,5.77614237 7.27614237,6 7,6 C6.72385763,6 6.5,5.77614237 6.5,5.5 C6.5,5.22385763 6.72385763,5 7,5 Z M8.31048399,0.842996574 L8.23336966,0.855546515 L3.589,2.09909618 L8.974,2.09909618 L8.70577125,1.1282877 C8.65752839,0.948242892 8.48956728,0.832246525 8.31048399,0.842996574 Z" id="形状结合"></path>
                </g>
            </g>
        </g>
    </g>
</svg>