<?xml version="1.0" encoding="UTF-8"?>
<svg width="22px" height="22px" viewBox="0 0 22 22" version="1.1" xmlns="http://www.w3.org/2000/svg" xmlns:xlink="http://www.w3.org/1999/xlink">
   
    <g id="h5-svg/icon/mall/daishenpi" stroke="none" stroke-width="1" fill="none" fill-rule="evenodd">
        <g id="icon/common/success">
            <g id="编组">
                <circle id="椭圆形" fill="#FFFFFF" cx="11" cy="11" r="11"></circle>
                <path d="M14.5520833,5.6 C14.9291277,5.6 15.2532184,5.86555938 15.3046152,6.22583349 L15.3117063,6.32631001 L15.3117063,9.93980582 C15.3117063,10.1607197 15.1326202,10.3398058 14.9117063,10.3398058 C14.7184067,10.3398058 14.5571314,10.202693 14.5198329,10.0204198 L14.5117063,9.93980582 L14.511,6.4 L7.399,6.4 L7.399,14.41 L10.9557654,14.4103703 C11.149065,14.4103703 11.3103403,14.5474831 11.3476388,14.7297564 L11.3557654,14.8103703 C11.3557654,15.00367 11.2186526,15.1649452 11.0363793,15.2022437 L10.9557654,15.2103703 L7.35962302,15.2103703 C6.98257866,15.2103703 6.65848795,14.9448109 6.6070912,14.5845368 L6.6,14.4840603 L6.6,6.32631001 C6.6,5.95022698 6.89267035,5.65332734 7.25827073,5.60645576 L7.35962302,5.6 L14.5520833,5.6 Z M14.25,11.2 C14.829899,11.2 15.3,11.670101 15.3,12.25 C15.3,12.4958984 15.2147062,12.728044 15.0650577,12.9120724 L15.0650577,12.9120724 L15.043,12.936 L15.109,13.2 L16,13.2 C16.1420161,13.2 16.2609842,13.2986801 16.2920768,13.4312128 L16.2920768,13.4312128 L16.3,13.5 L16.3,14.5 C16.3,14.6656854 16.1656854,14.8 16,14.8 L16,14.8 L12.5,14.8 C12.3343146,14.8 12.2,14.6656854 12.2,14.5 L12.2,14.5 L12.2,13.5 C12.2,13.3343146 12.3343146,13.2 12.5,13.2 L12.5,13.2 L13.391,13.2 L13.457,12.937 L13.4399336,12.917703 C13.3415378,12.7976927 13.269765,12.6549089 13.2306458,12.4949805 L13.2306458,12.4949805 L13.2075232,12.3719075 L13.2,12.25 C13.2,11.670101 13.670101,11.2 14.25,11.2 Z M14.25,11.8 C14.0014719,11.8 13.8,12.0014719 13.7993234,12.229863 L13.7993234,12.229863 L13.8041235,12.3114415 C13.8199921,12.4284133 13.8815718,12.5337525 13.9745432,12.6058868 L13.9745432,12.6058868 L14.0246108,12.6551172 C14.0826215,12.7273872 14.1048381,12.8238258 14.0815415,12.9162419 L14.0815415,12.9162419 L13.9158995,13.5733312 C13.8823038,13.706603 13.762441,13.8 13.625,13.8 L13.625,13.8 L12.8,13.8 L12.8,14.2 L15.7,14.2 L15.7,13.8 L14.875,13.8 C14.7602979,13.8 14.6578585,13.7349545 14.6075669,13.6359997 L14.6075669,13.6359997 L14.5839688,13.5728068 L14.4193808,12.9148983 C14.3905626,12.7997033 14.4324021,12.6783513 14.5260909,12.6053939 L14.5260909,12.6053939 L14.5860973,12.5493093 C14.6585646,12.468113 14.7,12.3626679 14.7,12.25 C14.7,12.0014719 14.4985281,11.8 14.25,11.8 Z M11.2946679,10.5302677 C11.5017747,10.5302677 11.6696679,10.6981609 11.6696679,10.9052677 C11.6696679,11.0864861 11.5411247,11.2376817 11.3702435,11.272649 L11.2946679,11.2802677 L8.97588656,11.2802677 C8.76877977,11.2802677 8.60088656,11.1123745 8.60088656,10.9052677 C8.60088656,10.7240493 8.7294298,10.5728537 8.90031098,10.5378864 L8.97588656,10.5302677 L11.2946679,10.5302677 Z M13.0061258,8.596251 C13.2132326,8.596251 13.3811258,8.76414422 13.3811258,8.971251 C13.3811258,9.15246944 13.2525826,9.30366499 13.0817014,9.33863233 L13.0061258,9.346251 L8.97588656,9.346251 C8.76877977,9.346251 8.60088656,9.17835778 8.60088656,8.971251 C8.60088656,8.79003257 8.7294298,8.63883702 8.90031098,8.60386967 L8.97588656,8.596251 L13.0061258,8.596251 Z" id="形状结合" fill="#FFA501"></path>
            </g>
        </g>
    </g>
</svg>