<?xml version="1.0" encoding="UTF-8"?>
<svg width="22px" height="22px" viewBox="0 0 22 22" version="1.1" xmlns="http://www.w3.org/2000/svg" xmlns:xlink="http://www.w3.org/1999/xlink">
    
    <g id="h5-svg/icon/mall/paisongzhong" stroke="none" stroke-width="1" fill="none" fill-rule="evenodd">
        <path d="M11.05,1.05 C16.5728475,1.05 21.05,5.5271525 21.05,11.05 C21.05,16.5728475 16.5728475,21.05 11.05,21.05 C5.5271525,21.05 1.05,16.5728475 1.05,11.05 C1.05,5.5271525 5.5271525,1.05 11.05,1.05 Z M15.771464,6.34661538 L7.37333598,6.34661538 C6.77974737,6.35111243 6.30053221,6.83285436 6.29915681,7.4264584 L6.29915681,7.4264584 L6.29915681,9.1756127 C6.28962722,9.66237851 6.61116731,10.0937245 7.08037802,10.223621 L7.08037802,10.223621 L7.08037802,12.8682501 C6.66292303,12.9577233 6.23776689,13.0064528 5.81089355,13.0137525 C5.67126313,13.0106076 5.54087212,13.0833011 5.47013324,13.2037276 C5.39939436,13.3241542 5.39939436,13.4734397 5.47013324,13.5938662 C5.54087212,13.7142928 5.67126313,13.7869862 5.81089355,13.7838413 C6.02572939,13.7838413 7.92019082,13.7590375 8.77953416,12.900866 C8.90122768,12.7581303 9.07906534,12.6754908 9.26663359,12.6745154 C9.45420185,12.6735401 9.63288932,12.7543257 9.75606067,12.8957881 C9.81465226,12.9498877 10.2247934,13.4440101 9.3849806,14.2824558 C8.33033196,15.3324171 5.77183249,15.7101375 5.75230196,15.7138483 C5.54222571,15.7457732 5.39532641,15.9385569 5.42028295,16.1495745 C5.44751914,16.3430524 5.6155741,16.485311 5.81089355,16.4802263 C5.81089355,16.4802263 5.83042408,16.4788592 5.84995461,16.4763202 C6.60221079,16.3604003 7.34136233,16.1713607 8.05690454,15.9118879 L8.05690454,15.9118879 C8.07643507,15.9150128 8.07643507,15.9165752 8.0959656,15.9165752 L8.0959656,15.9165752 L15.0878954,15.9165752 C15.6933419,15.9165752 16.064422,15.356049 16.064422,14.8367322 L16.064422,14.8367322 L16.064422,10.1728416 C16.5264188,10.0480532 16.8468993,9.62838398 16.8456469,9.1498324 L16.8456469,9.1498324 L16.8456469,7.4264584 C16.8442678,6.83285436 16.3650526,6.35111243 15.771464,6.34661538 L15.771464,6.34661538 Z M15.2832007,10.2527214 L15.2832007,14.837904 C15.2832007,14.942783 15.2050786,15.135354 15.0878954,15.135354 L15.0878954,15.135354 L9.56075537,15.135354 C9.69150303,15.0413559 9.81550033,14.9383076 9.93183545,14.8269669 C11.0646062,13.697907 10.6739956,12.7174744 10.3224461,12.3569408 C9.89277438,11.9378156 8.99436999,11.5921252 8.23267931,12.3569408 C8.12181454,12.4585233 7.99682427,12.5435167 7.86159923,12.6092752 L7.86159923,12.6092752 L7.86159923,10.2527214 L15.2832007,10.2527214 Z M14.3066742,11.0339427 L11.9630106,11.0339427 C11.8723109,11.0435115 11.789541,11.0899688 11.7341301,11.1624093 C11.6787192,11.2348498 11.6555469,11.3268942 11.6700526,11.4169364 C11.6700526,11.6157572 11.7677053,11.8151639 11.9630106,11.8151639 L11.9630106,11.8151639 L14.3066742,11.8151639 C14.5180807,11.7986465 14.6848528,11.6286224 14.6972848,11.4169364 C14.6836688,11.2084018 14.5154365,11.04345 14.3066742,11.0339427 L14.3066742,11.0339427 Z M15.771464,7.1278366 C15.9347304,7.13228496 16.0646944,7.26606127 16.0644224,7.42938798 L16.0644224,7.42938798 L16.0644224,9.16994884 C16.0644224,9.35021564 15.9081777,9.47150023 15.6738114,9.47150023 L15.6738114,9.47150023 L7.31474439,9.47150023 C7.16845449,9.4542683 7.06365735,9.32196191 7.08037802,9.1756127 L7.08037802,7.42938798 C7.08010559,7.26606127 7.21006962,7.13228496 7.37333598,7.1278366 L7.37333598,7.1278366 Z" id="形状结合" fill="#E82B29"></path>
    </g>
</svg>