<?xml version="1.0" encoding="UTF-8"?>
<svg width="22px" height="22px" viewBox="0 0 22 22" version="1.1" xmlns="http://www.w3.org/2000/svg" xmlns:xlink="http://www.w3.org/1999/xlink">
    
    <g id="h5-svg/icon/mall/daishouhuo" stroke="none" stroke-width="1" fill="none" fill-rule="evenodd">
        <g id="icon/common/success">
            <g id="编组">
                <circle id="椭圆形" fill="#FFFFFF" cx="11" cy="11" r="11"></circle>
                <g id="icon_待揽件" transform="translate(5.500000, 6.000000)" fill="#FFA501">
                    <path d="M10.0330763,8.37806602 C10.0330763,8.89052898 9.68340459,9.44365749 9.11288757,9.44365749 L2.52433618,9.44365749 C2.5059324,9.44365749 2.5059324,9.44211567 2.48752863,9.44153749 C1.81326749,9.69508034 1.11675908,9.88162508 0.407902074,9.99601509 C0.389498299,9.99852055 0.371094524,9.99986965 0.371094524,9.99986965 C0.187043441,10.0048872 0.0286839066,9.86450615 0.00301902731,9.67358164 C-0.0204977194,9.46534907 0.117926667,9.27510966 0.315883199,9.24360614 C0.334286974,9.23994431 2.74518148,8.86720893 3.73898532,7.83110479 C4.53034764,7.00372476 4.14386836,6.51612367 4.08865704,6.4627381 C3.97259169,6.32314265 3.80421306,6.24342326 3.62746599,6.24438574 C3.45071892,6.24534822 3.28314107,6.32689708 3.1684683,6.46774902 C2.35870221,7.31459455 0.573536047,7.33907097 0.371094524,7.33907097 C0.239519657,7.34217438 0.11665117,7.27044031 0.0499933585,7.15160312 C-0.0166644528,7.03276592 -0.0166644528,6.88545068 0.0499933585,6.76661348 C0.11665117,6.64777628 0.239519657,6.57604222 0.371094524,6.57914563 C0.773340683,6.57194223 1.17396872,6.52385591 1.56733989,6.43556349 L1.56733989,3.82583765 C1.12519888,3.69765559 0.822209082,3.27200237 0.831188895,2.79166079 L0.831188895,1.06559148 C0.832484945,0.479821692 1.28405322,0.00443769086 1.84339651,0 L9.75701969,0 C10.316363,0.00443769086 10.7679313,0.479821692 10.7692376,1.06559148 L10.7692376,2.76622073 C10.770411,3.23845649 10.4684196,3.65258704 10.0330763,3.77572845 L10.0330763,8.37806602 Z M2.65384615,5.8352 C3.36437247,5.11224615 4.20242915,5.43901538 4.60323887,5.8352 C4.93117409,6.176 5.29554656,7.10276923 4.2388664,8.17003077 C4.13034575,8.27527726 4.01467762,8.37268525 3.89271255,8.46153846 L9.048583,8.46153846 C9.15789474,8.46153846 9.23076923,8.27950769 9.23076923,8.18036923 L9.23076923,3.84615385 L2.30769231,3.84615385 L2.30769231,6.07372308 C2.433834,6.01156376 2.55042841,5.93122244 2.65384615,5.8352 L2.65384615,5.8352 Z M10,1.06615385 C10.0002561,0.905333921 9.8778746,0.773610861 9.72413369,0.769230769 L1.81597774,0.769230769 C1.66223683,0.773610861 1.5398553,0.905333921 1.54011183,1.06615385 L1.54011183,2.78557692 C1.52436669,2.92967992 1.62304965,3.05995563 1.76080456,3.07692308 L9.63217839,3.07692308 C9.85287111,3.07692308 10,2.9575 10,2.78 L10,1.06615385 L10,1.06615385 Z M5.6862583,4.61538462 L8.06506987,4.61538462 C8.27696294,4.62474601 8.44771824,4.78716606 8.46153846,4.9925 C8.44891999,5.20093701 8.27964684,5.36835155 8.06506987,5.38461538 L5.6862583,5.38461538 C5.488024,5.38461538 5.38890685,5.18826923 5.38890685,4.9925 C5.3741836,4.90383989 5.39770341,4.81320818 5.45394531,4.74187951 C5.51018721,4.67055083 5.59419838,4.62480658 5.6862583,4.61538462 L5.6862583,4.61538462 Z"></path>
                </g>
            </g>
        </g>
    </g>
</svg>