<?xml version="1.0" encoding="UTF-8"?>
<svg width="84px" height="84px" viewBox="0 0 84 84" version="1.1" xmlns="http://www.w3.org/2000/svg" xmlns:xlink="http://www.w3.org/1999/xlink">
    <title>icon_cj_jgg_sel</title>
    <g id="优惠券" stroke="none" stroke-width="1" fill="none" fill-rule="evenodd">
        <path d="M74,0 C79.6269673,0 84,4.37786726 84,10 L84,74 C84,79.6221327 79.6269673,84 74,84 L10,84 C4.37303268,84 0,79.6221327 0,74 L0,10 C0,4.37786726 4.37303268,0 10,0 L74,0 Z M74,4 L10,4 C6.63228461,4 4.12210901,6.43984127 4,9 L4,10 L4,74 C4,77.364493 6.43685812,79.8777415 9,80 L10,80 L74,80 C77.3677154,80 79.877891,77.5601587 80,75 L80,74 L80,10 C80,6.635507 77.5631419,4.12225849 75,4 L74,4 Z" id="icon_cj_jgg_sel" fill="#c7ff7e" fill-rule="nonzero"></path>
    </g>
</svg>