<?xml version="1.0" encoding="UTF-8"?>
<svg width="22px" height="22px" viewBox="0 0 22 22" version="1.1" xmlns="http://www.w3.org/2000/svg" xmlns:xlink="http://www.w3.org/1999/xlink">
    <title>icon/common/yilingjiang</title>
    <g id="icon/common/yilingjiang" stroke="none" stroke-width="1" fill="none" fill-rule="evenodd">
        <g id="轮廓" transform="translate(0.000000, -0.000000)" fill="#ff2c25">
            <path d="M18.1696537,10.5063741 C18.2174216,11.2075829 18.163838,11.9117609 18.0102275,12.6065466 C17.8049583,13.5333206 17.4309493,14.3992966 16.9009291,15.1781507 C16.3509366,15.9842343 15.6544326,16.6611828 14.8330451,17.1912012 C14.0116369,17.7211353 13.1119955,18.0700022 12.1602605,18.2303471 C11.24104,18.3852377 10.3112229,18.3580923 9.3984804,18.149227 C8.71516018,17.9934309 8.06596872,17.7419418 7.46293076,17.3999822 L7.46293076,17.3999822 L7.95602818,17.0827673 C9.9932604,18.1229872 12.502169,18.0863863 14.5651272,16.7572549 C16.6280646,15.43004 17.7354175,13.139429 17.676577,10.8225993 L17.676577,10.8225993 Z M15.5932327,4.39164116 C15.9379766,4.17150917 16.3941926,4.27499416 16.61248,4.62476668 L16.61248,4.62476668 L19.112634,8.63589455 C19.331087,8.98535118 19.2274382,9.44888559 18.882715,9.67116562 L18.882715,9.67116562 L6.40467024,17.7023715 C6.06081629,17.9225877 5.60468307,17.819187 5.38631284,17.47032 L5.38631284,17.47032 L2.8861589,13.4586235 C2.67021018,13.1097355 2.77183067,12.6456114 3.11566393,12.4234157 L3.11566393,12.4234157 Z M11.6321858,15.8922687 L11.5591681,16.4345435 L11.9570196,16.8038169 L11.4269165,16.900247 L11.2041793,17.3999822 L10.9487828,16.91661 L10.4124501,16.8552435 L10.7868523,16.4588248 L10.6789193,15.9234574 L11.1633449,16.1620162 L11.6321858,15.8922687 Z M16.1879506,4.89895768 C16.1193826,4.78707006 15.9745061,4.75392286 15.8640689,4.8241764 L15.8640689,4.8241764 L3.3855481,12.855972 C3.27519362,12.9276996 3.24259641,13.0742086 3.31221991,13.1864964 L3.31221991,13.1864964 L5.81229105,17.1981928 C5.88183176,17.3099962 6.0262943,17.3431434 6.13664877,17.2723844 L6.13664877,17.2723844 L18.6147142,9.24010452 C18.723206,9.16789247 18.7561965,9.02047795 18.6890773,8.9105699 L18.6890773,8.9105699 Z M13.9348317,14.926851 L14.1381762,15.4339991 L14.6627739,15.5507935 L14.2543464,15.9046094 L14.308344,16.4499378 L13.8497064,16.1599524 L13.3566297,16.3791788 L13.4840382,15.8477706 L13.1260485,15.4390112 L13.6619879,15.3994409 L13.9348317,14.926851 Z M15.1720354,12.4358406 C14.8500992,13.4116404 14.2144847,14.2410155 13.3473369,14.7986004 C12.4773537,15.3573225 11.4701725,15.5884684 10.4644401,15.4677149 L10.4644401,15.4677149 L11.2255176,14.9777512 C11.8636363,14.938202 12.498692,14.7402664 13.0765007,14.3681079 C13.65373,13.9970235 14.1021227,13.4962142 14.4113511,12.9267099 L14.4113511,12.9267099 Z M8.58130897,11.0615766 L9.34773856,12.2881203 L7.57956687,13.3929966 L8.05769,14.1581536 C8.12215604,14.2613208 8.20597268,14.2806714 8.30913991,14.2162053 L8.30913991,14.2162053 L9.73342083,13.3262158 C9.77927293,13.2975643 9.81151493,13.2535089 9.83014684,13.1940497 C9.84519731,13.128859 9.76533644,12.9436628 9.5998772,12.6406113 L9.5998772,12.6406113 L9.94948749,12.5496618 C10.1414452,12.939758 10.2270316,13.185132 10.2091124,13.2839931 C10.1797302,13.3900171 10.1066489,13.4835001 9.99560009,13.5608605 L9.99560009,13.5608605 L8.40223955,14.5565027 C8.1557845,14.7105049 7.95484018,14.6567562 7.79367508,14.3988382 L7.79367508,14.3988382 L6.8660804,12.9143764 L7.16411906,12.7281411 L7.40049454,13.106421 L8.86489605,12.1913613 L8.45661113,11.5379689 L6.57380919,12.7144741 L6.39473686,12.4278985 L8.58130897,11.0615766 Z M15.4526404,12.9202026 L15.8791981,13.2537805 L16.3922471,13.0875391 L16.2098476,13.600689 L16.5259681,14.0449753 L15.9876071,14.0296863 L15.6695619,14.4715929 L15.5182901,13.9466077 L15.0052412,13.7744276 L15.4507156,13.4670051 L15.4526404,12.9202026 Z M11.0295932,11.0897461 L11.1853861,11.3390669 C11.2193859,11.6485536 11.2265218,11.9469336 11.1992717,12.2349227 C11.358667,12.2668173 11.5094651,12.3040841 11.6516659,12.3467231 L11.6516659,12.3467231 L11.5739042,12.6941684 C11.2780425,12.5841736 10.9044491,12.5028275 10.454199,12.4454734 L10.454199,12.4454734 L10.5319577,12.1299078 C10.6515948,12.1428142 10.7730226,12.1585864 10.8915847,12.1761492 C10.8987655,11.9963342 10.8962771,11.7946682 10.8823286,11.5682855 L10.8823286,11.5682855 L10.1400977,12.0320828 L9.96639757,11.7541044 L11.0295932,11.0897461 Z M11.7550188,10.3057177 L12.0666047,10.8043593 C12.2503305,11.1238896 12.3448675,11.4154721 12.348425,11.676241 C12.3469697,11.9162338 12.250591,12.16374 12.0632298,12.4123121 L12.0632298,12.4123121 L11.7498203,12.2614811 C11.9217777,12.026519 12.0095561,11.8162648 12.0056332,11.631434 C11.9963383,11.4380059 11.9211369,11.2220051 11.7857606,10.9798502 L11.7857606,10.9798502 L11.4741747,10.4812086 L11.7550188,10.3057177 Z M11.7132273,9.05273536 L11.8887182,9.33357948 L11.3442245,9.67381692 C11.3829017,9.76122099 11.4179975,9.84289355 11.4502275,9.92635683 L11.4502275,9.92635683 L11.9775267,9.59686374 L12.8531904,10.9982186 L12.5608833,11.1808724 L11.857129,10.0546301 L11.2123338,10.4575429 L11.9339953,11.6124427 L11.6416882,11.7950965 L10.7481172,10.365084 L11.1579204,10.1090106 C11.1256904,10.0255473 11.0888039,9.94100901 11.0519174,9.8564707 L11.0519174,9.8564707 L10.5074237,10.1967081 L10.3319328,9.915864 L11.7132273,9.05273536 Z M12.4738386,11.2073709 C12.7557367,11.2503812 13.0147089,11.3077173 13.2450235,11.3829606 L13.2450235,11.3829606 L13.164396,11.7321966 C12.9587982,11.6454932 12.7048419,11.5770535 12.3932141,11.5247272 L12.3932141,11.5247272 Z M9.81467422,10.1275107 C10.1510128,10.2321363 10.4812605,10.352522 10.8082831,10.4868772 L10.8082831,10.4868772 L10.7430595,10.8225031 C10.3927575,10.6508931 10.1158811,10.5330197 9.91350538,10.4642266 C9.92923259,10.8209938 9.90627359,11.185996 9.84749414,11.5574423 L9.84749414,11.5574423 L9.525128,11.4241622 C9.58999531,11.0688353 9.61259796,10.6841322 9.59114523,10.2671871 L9.59114523,10.2671871 Z M9.79575238,3.76923602 C10.7149729,3.61533527 11.6447901,3.64149081 12.557636,3.85035612 C13.2408527,4.00623644 13.889651,4.25713594 14.4926061,4.60000104 L14.4926061,4.60000104 L14.0004815,4.9167106 C11.9628353,3.87651167 9.45434063,3.91418661 7.39098925,5.24182278 C5.32803111,6.56945895 4.22059537,8.86004884 4.2770351,11.1768996 L4.2770351,11.1768996 L3.78337888,11.493209 C3.73575592,10.791916 3.79016738,10.0882434 3.94338459,9.39402633 C4.14912988,8.46676798 4.52303535,7.60020229 5.05510453,6.82233802 C5.60468307,6.01574898 6.30110426,5.33880047 7.12249176,4.80886635 C7.94437597,4.278848 8.84403815,3.92949666 9.79575238,3.76923602 Z M15.4689672,8.75005228 L15.651621,9.04235943 L14.6342775,9.67806622 C14.9895983,9.80669287 15.4552613,9.75479783 16.0330571,9.52524687 L16.0330571,9.52524687 L16.0853204,9.8830921 C15.3889596,10.1269599 14.8595403,10.1469692 14.4963469,9.93559799 C14.4930828,10.3640031 14.2276126,10.8446806 13.7028018,11.3758397 L13.7028018,11.3758397 L13.4030084,11.1766531 C13.8776639,10.7246512 14.1266493,10.3259996 14.1470989,9.98248918 L14.1470989,9.98248918 L13.1412184,10.6110331 L12.9585646,10.3187259 L14.0704781,9.62392527 C14.0403952,9.5630287 14.0067308,9.49640061 13.9637534,9.42762246 L13.9637534,9.42762246 L14.2560605,9.24496868 C14.2972472,9.31088107 14.3337773,9.37571844 14.365651,9.43948077 L14.365651,9.43948077 L15.4689672,8.75005228 Z M10.1308986,10.8185054 C10.3486751,10.9055681 10.5270497,10.9933435 10.6653067,11.0743093 L10.6653067,11.0743093 L10.5481491,11.3587079 C10.3980727,11.265204 10.2161167,11.1716971 10.0012059,11.0828437 L10.0012059,11.0828437 Z M13.0347094,8.11939418 L13.8745586,9.46343393 L13.5707884,9.6532506 L13.3612738,9.3179571 C13.229437,9.52784905 13.0635705,9.74705096 12.8636743,9.97556283 L12.8636743,9.97556283 L12.5685373,9.77745132 C12.8124949,9.51742212 13.0159756,9.26276209 13.1750386,9.01991844 L13.1750386,9.01991844 L12.7309392,8.30921086 L13.0347094,8.11939418 Z M8.60869667,7.20089849 C9.47818315,6.64226066 10.4857783,6.41159906 11.4920696,6.53235261 L11.4920696,6.53235261 L10.7304954,7.0222321 C10.0923766,7.06180237 9.45684492,7.25980112 8.87903616,7.6309698 C8.3018897,8.00304404 7.85391096,8.50181052 7.5445997,9.07386307 L7.5445997,9.07386307 L6.78350151,9.56374256 C7.10591375,8.58794271 7.74152821,7.75905196 8.60869667,7.20089849 Z M14.5829095,7.41496316 L14.7404932,7.66714973 C14.8858742,8.17401429 14.6812915,8.7202478 14.1249544,9.30298452 L14.1249544,9.30298452 L13.8187108,9.13173685 C13.9849307,8.96411556 14.1228523,8.80222279 14.2231628,8.64390847 C14.10496,8.61416689 13.9949953,8.59123185 13.8904026,8.57689409 L13.8904026,8.57689409 L13.998963,8.29786764 C14.1221815,8.31650554 14.2461158,8.34266568 14.3632434,8.37706374 C14.4359744,8.20012051 14.4653626,8.03033717 14.4531989,7.87057949 L14.4531989,7.87057949 L13.9029736,8.21439837 C13.8621224,8.3913446 13.7958387,8.57222862 13.7051975,8.75239396 L13.7051975,8.75239396 L13.3760248,8.62735175 C13.5501382,8.31931738 13.6232375,8.03455643 13.5888754,7.7691281 L13.5888754,7.7691281 L13.915925,7.61656626 C13.9270226,7.68534142 13.9363296,7.75125082 13.9381143,7.81787591 L13.9381143,7.81787591 L14.5829095,7.41496316 Z M6.39148648,7.59674858 L6.53886725,8.12421877 L7.04908078,8.29993687 L6.60159876,8.60577987 L6.59536907,9.15308784 L6.17125355,8.81407657 L5.65714905,8.97686432 L5.84302556,8.46224025 L5.5312721,8.01589016 L6.06963306,8.03570688 L6.39148648,7.59674858 Z M12.2444643,8.74867473 C12.4665499,8.72147251 12.6839761,8.72507492 12.8967428,8.75948197 L12.8967428,8.75948197 L12.8873969,9.10800825 C12.6560043,9.06930107 12.4367874,9.0628329 12.2297462,9.08860374 L12.2297462,9.08860374 Z M7.681301,5.68372937 L8.1418012,5.96729172 L8.63206318,5.74305318 L8.50900096,6.27503005 L8.87030218,6.68183093 L8.33396949,6.72584469 L8.0654927,7.20041413 L7.85827795,6.69474023 L7.33107248,6.58287367 L7.73960343,6.22855236 L7.681301,5.68372937 Z M10.7776423,4.70792953 L11.0353775,5.18934321 L11.5708203,5.24635051 L11.2017578,5.6441591 L11.3140578,6.18051628 L10.8271901,5.94549543 L10.3603774,6.22008655 L10.4294214,5.67732737 L10.0292312,5.31207632 L10.5592721,5.20915993 L10.7776423,4.70792953 Z" id="形状结合" transform="translate(11.000000, 11.000000) rotate(45.000000) translate(-11.000000, -11.000000) "></path>
        </g>
    </g>
</svg>