<?xml version="1.0" encoding="UTF-8"?>
<svg width="22px" height="22px" viewBox="0 0 22 22" version="1.1" xmlns="http://www.w3.org/2000/svg" xmlns:xlink="http://www.w3.org/1999/xlink">
    <!-- Generator: Sketch 60 (88103) - https://sketch.com -->
    <title>icon_zixun_tishi_xian</title>
    <desc>Created with Sketch.</desc>
    <g id="icon_zixun_tishi_xian" stroke="none" stroke-width="1" fill="none" fill-rule="evenodd">
        <g id="h5-svg/icon/common/warning备份" fill="#FFFFFF">
            <g id="icon/common/succes">
                <path d="M11,0 C17.0751322,0 22,4.92486775 22,11 C22,17.0751322 17.0751322,22 11,22 C4.92486775,22 0,17.0751322 0,11 C0,4.92486775 4.92486775,0 11,0 Z M11,0.785714286 C5.35880577,0.785714286 0.785714286,5.35880577 0.785714286,11 C0.785714286,16.6411942 5.35880577,21.2142857 11,21.2142857 C16.6411942,21.2142857 21.2142857,16.6411942 21.2142857,11 C21.2142857,5.35880577 16.6411942,0.785714286 11,0.785714286 Z" id="椭圆形" fill-opacity="0.6" fill-rule="nonzero"></path>
                <rect id="矩形" x="10.2666667" y="5.5" width="1.46666667" height="7.33333333" rx="0.733333333"></rect>
                <rect id="矩形备份" x="9.9" y="14.3" width="2.2" height="2.2" rx="1.1"></rect>
            </g>
        </g>
    </g>
</svg>