<?xml version="1.0" encoding="UTF-8"?>
<svg width="31px" height="31px" viewBox="0 0 31 31" version="1.1" xmlns="http://www.w3.org/2000/svg" xmlns:xlink="http://www.w3.org/1999/xlink">
    <title>icon_zx_zhanweitu</title>
    <g id="巨拾惠首页确定稿" stroke="none" stroke-width="1" fill="none" fill-rule="evenodd">
        <g id="04资讯" transform="translate(-172.000000, -522.000000)" fill="#D5DEE6">
            <g id="新闻" transform="translate(-0.000000, 174.000000)">
                <g id="新闻2" transform="translate(15.000000, 249.500000)">
                    <g transform="translate(1.000000, 16.500000)" id="Bitmap">
                        <g transform="translate(0.000000, 60.000000)">
                            <g id="icon_zx_zhanweitu" transform="translate(156.727273, 22.909091)">
                                <path d="M27.0967742,2 C28.8221154,2 29.9130917,3.08173077 30,4 L30,5 L30,25 C30,26.775 28.9598743,27.9096154 28.0645161,28 L27.0967742,28 L2.90322581,28 C1.17788462,28 0.0869082843,26.9182692 0,26 L0,25 L0,5 C0,3.225 1.04012574,2.09038462 1.93548387,2 L2.90322581,2 L27.0967742,2 Z M10,12 L4,21 C3.7684509,21.148655 4.16612207,21.9184916 5,22 L5,22 L24,22 C24.8032535,22 25.1941026,21.381247 25,21 L25,21 L20,14 C19.3923419,13.8736866 18.8680908,13.8468197 19,14 L19,14 L16,17 C15.4370548,17.052012 14.9128037,17.0251451 15,17 L11,12 C10.8211044,11.9211718 10.2920511,11.8918927 10,12 Z M23,6 C21.125,6 20,7.125 20,9 C20,9.875 21.125,11 23,11 C23.875,11 25,9.875 25,9 C25,7.125 23.875,6 23,6 Z" id="形状"></path>
                            </g>
                        </g>
                    </g>
                </g>
            </g>
        </g>
    </g>
</svg>