<?xml version="1.0" encoding="UTF-8"?>
<svg width="90px" height="22px" viewBox="0 0 90 22" version="1.1" xmlns="http://www.w3.org/2000/svg" xmlns:xlink="http://www.w3.org/1999/xlink">
    <!-- Generator: Sketch 60 (88103) - https://sketch.com -->
    <title>h5 svg/icon/train/shikebiao2@2x</title>
    <desc>Created with Sketch.</desc>
    <defs>
        <path d="M36.26,16.065 C36.942,16.065 37.283,15.713 37.283,15.02 L37.283,8.871 L38.636,8.871 L38.636,8.112 L37.283,8.112 L37.283,6.176 L36.48,6.176 L36.48,8.112 L32.674,8.112 L32.674,8.871 L36.48,8.871 L36.48,14.822 C36.48,15.163 36.315,15.339 35.996,15.339 C35.413,15.339 34.808,15.317 34.17,15.295 L34.335,16.065 L36.26,16.065 Z M29.77,15.284 L29.77,14.283 L31.398,14.283 L31.398,15.02 L32.168,15.02 L32.168,6.913 L29,6.913 L29,15.284 L29.77,15.284 Z M31.398,10.158 L29.77,10.158 L29.77,7.639 L31.398,7.639 L31.398,10.158 Z M34.665,13.359 L35.325,12.897 C34.962,12.127 34.434,11.225 33.752,10.191 L33.103,10.598 C33.763,11.61 34.28,12.534 34.665,13.359 Z M31.398,13.546 L29.77,13.546 L29.77,10.895 L31.398,10.895 L31.398,13.546 Z M40.11,13.568 C42.112,12.798 43.619,11.346 44.653,9.234 L43.982,8.882 C43.773,9.3 43.542,9.707 43.278,10.092 C42.53,10.191 41.793,10.268 41.045,10.334 C41.463,9.85 41.936,9.08 42.486,8.013 L45.555,8.013 L45.555,7.276 L43.223,7.276 C43.047,6.792 42.871,6.374 42.684,6 L41.837,6.132 C42.035,6.473 42.222,6.858 42.398,7.276 L39.714,7.276 L39.714,8.013 L41.65,8.013 C41.023,9.234 40.517,9.982 40.121,10.268 C40.077,10.29 40.022,10.312 39.945,10.334 L40.143,11.071 C41.045,11.005 41.903,10.917 42.706,10.829 C41.892,11.764 40.88,12.446 39.67,12.886 L40.11,13.568 Z M48.162,16.076 C48.822,16.076 49.163,15.735 49.163,15.064 L49.163,6.121 L48.371,6.121 L48.371,14.866 C48.371,15.196 48.206,15.372 47.887,15.372 C47.403,15.372 46.897,15.35 46.369,15.317 L46.545,16.076 L48.162,16.076 Z M47.029,13.909 L47.029,7.056 L46.27,7.056 L46.27,13.909 L47.029,13.909 Z M39.956,16.175 C41.21,15.735 42.31,15.086 43.256,14.239 C44.015,14.888 44.62,15.515 45.082,16.109 L45.665,15.515 C45.148,14.921 44.521,14.316 43.784,13.722 C44.455,13.007 45.038,12.182 45.533,11.247 L44.84,10.895 C43.652,13.161 41.881,14.69 39.505,15.493 L39.956,16.175 Z M52.87,16.153 C54.047,15.867 55.202,15.493 56.346,15.031 L56.192,14.294 C55.378,14.624 54.564,14.921 53.739,15.163 L53.739,12.82 C54.344,12.358 54.839,11.852 55.224,11.302 L55.609,11.302 C56.533,13.689 58.029,15.295 60.075,16.12 L60.493,15.427 C59.47,15.042 58.59,14.459 57.864,13.689 C58.568,13.381 59.195,12.941 59.756,12.38 L59.206,11.852 C58.634,12.457 58.04,12.897 57.424,13.183 C56.995,12.633 56.632,12.006 56.335,11.302 L60.339,11.302 L60.339,10.587 L56.005,10.587 L56.005,9.542 L59.316,9.542 L59.316,8.816 L56.005,8.816 L56.005,7.771 L59.954,7.771 L59.954,7.045 L56.005,7.045 L56.005,6.11 L55.191,6.11 L55.191,7.045 L51.242,7.045 L51.242,7.771 L55.191,7.771 L55.191,8.816 L51.88,8.816 L51.88,9.542 L55.191,9.542 L55.191,10.587 L50.857,10.587 L50.857,11.302 L54.388,11.302 C53.574,12.259 52.298,13.04 50.538,13.656 L50.956,14.338 C51.704,14.041 52.364,13.711 52.958,13.348 L52.958,15.075 C52.958,15.251 52.837,15.383 52.606,15.471 L52.87,16.153 Z" id="path-1"></path>
    </defs>
    <g id="h5-svg/icon/train/shikebiao2" stroke="none" stroke-width="1" fill="none" fill-rule="evenodd">
        <path d="M70.7666668,10.6944444 L70.7666668,11.3055556 L67.7111112,11.3055556 L67.7111112,10.6944444 L70.7666668,10.6944444 Z M75.2888891,10.6944444 L75.2888891,11.3055556 L72.2333335,11.3055556 L72.2333335,10.6944444 L75.2888891,10.6944444 Z M79.8111113,10.6944444 L79.8111113,11.3055556 L76.7555558,11.3055556 L76.7555558,10.6944444 L79.8111113,10.6944444 Z M84.3333336,10.6944444 L84.3333336,11.3055556 L81.2777781,11.3055556 L81.2777781,10.6944444 L84.3333336,10.6944444 Z M88.8555559,10.6944444 L88.8555559,11.3055556 L85.8000003,11.3055556 L85.8000003,10.6944444 L88.8555559,10.6944444 Z M3.05555556,10.6944444 L3.05555556,11.3055556 L0,11.3055556 L0,10.6944444 L3.05555556,10.6944444 Z M7.57777784,10.6944444 L7.57777784,11.3055556 L4.52222228,11.3055556 L4.52222228,10.6944444 L7.57777784,10.6944444 Z M12.1000001,10.6944444 L12.1000001,11.3055556 L9.04444456,11.3055556 L9.04444456,10.6944444 L12.1000001,10.6944444 Z M16.6222224,10.6944444 L16.6222224,11.3055556 L13.5666668,11.3055556 L13.5666668,10.6944444 L16.6222224,10.6944444 Z M21.1444447,10.6944444 L21.1444447,11.3055556 L18.0888891,11.3055556 L18.0888891,10.6944444 L21.1444447,10.6944444 Z" id="形状结合" fill="#FFFFFF"></path>
        <rect id="形状结合" fill="#EFEFFF" x="22" y="3" width="46" height="16" rx="8"></rect>
        <g id="时刻表" fill-rule="nonzero">
            <use fill="#FFFFFF" xlink:href="#path-1"></use>
            <use fill="#478aee" xlink:href="#path-1"></use>
        </g>
    </g>
</svg>