<?xml version="1.0" encoding="UTF-8"?>
<svg width="40px" height="40px" viewBox="0 0 40 40" version="1.1" xmlns="http://www.w3.org/2000/svg" xmlns:xlink="http://www.w3.org/1999/xlink">
    <!-- Generator: Sketch 60 (88103) - https://sketch.com -->
    <title>train/btn_train_switch</title>
    <desc>Created with Sketch.</desc>
    <defs>
        <linearGradient x1="50%" y1="0%" x2="50%" y2="100%" id="linearGradient-1">
            <stop stop-color="#7C85FE" offset="0%"></stop>
            <stop stop-color="#262DD9" offset="100%"></stop>
        </linearGradient>
    </defs>
    <g id="train/btn_train_switch" stroke="none" stroke-width="1" fill="none" fill-rule="evenodd">
        <path d="M19.5894676,14 C23.5901278,14 26.3976748,15.8677522 28.0121086,19.6032566 C28.2312372,20.1102229 27.9978744,20.6988297 27.4908991,20.9179375 C27.3656397,20.9720728 27.2306264,21 27.0941693,21 L14,21 C13.4477153,21 13,20.5522847 13,20 L13,15.0000407 C12.9999593,14.4477335 13.4476928,14 14,14 L19.5894676,14 L19.5894676,14 Z M16.8536806,15.1666667 L15.6178935,15.1666667 C15.3417511,15.1666667 15.1178935,15.3905243 15.1178935,15.6666667 L15.1178935,15.6666667 L15.1178935,17 C15.1178935,17.2761424 15.3417511,17.5 15.6178935,17.5 L15.6178935,17.5 L16.8536806,17.5 C17.1298229,17.5 17.3536806,17.2761424 17.3536806,17 L17.3536806,17 L17.3536806,15.6666667 C17.3536806,15.3905243 17.1298229,15.1666667 16.8536806,15.1666667 L16.8536806,15.1666667 Z M20.2073611,15.1666667 L18.9715741,15.1666667 C18.6954317,15.1666667 18.4715741,15.3905243 18.4715741,15.6666667 L18.4715741,15.6666667 L18.4715741,17 C18.4715741,17.2761424 18.6954317,17.5 18.9715741,17.5 L18.9715741,17.5 L20.2073611,17.5 C20.4835035,17.5 20.7073611,17.2761424 20.7073611,17 L20.7073611,17 L20.7073611,15.6666667 C20.7073611,15.3905243 20.4835035,15.1666667 20.2073611,15.1666667 L20.2073611,15.1666667 Z M21.8252546,15.1666667 L21.8252546,17 C21.8252546,17.2761424 22.0491123,17.5 22.3252546,17.5 L22.3252546,17.5 L25.1789352,17.5 C24.4336728,15.9444444 23.3157793,15.1666667 21.8252546,15.1666667 L21.8252546,15.1666667 Z" id="形状结合" fill="url(#linearGradient-1)" fill-rule="nonzero"></path>
        <rect id="矩形" fill="#474FE7" x="13" y="23" width="15" height="2" rx="1"></rect>
        <rect id="矩形" fill="#FFFFFF" x="11.5" y="15" width="2.3" height="2.3" rx="0.4"></rect>
    </g>
</svg>