<?xml version="1.0" encoding="UTF-8"?>
<svg width="92px" height="5px" viewBox="0 0 92 5" version="1.1" xmlns="http://www.w3.org/2000/svg" xmlns:xlink="http://www.w3.org/1999/xlink">
    <!-- Generator: Sketch 60 (88103) - https://sketch.com -->
    <title>h5 svg/icon/train/xuxianarrow@2x</title>
    <desc>Created with Sketch.</desc>
    <g id="h5-svg/icon/train/xuxianarrow" stroke="none" stroke-width="1" fill="none" fill-rule="evenodd">
        <path d="M87.3014302,0.57638012 C87.3324792,0.57638012 87.3631018,0.583609138 87.3908729,0.597494682 L90.7436593,2.27388788 C90.842455,2.32328573 90.8824999,2.44342034 90.8331021,2.54221604 C90.8137493,2.58092152 90.7823648,2.61230602 90.7436593,2.63165876 L87.3908729,4.30805196 C87.2920772,4.35744981 87.1719426,4.31740494 87.1225448,4.21860924 C87.1086592,4.19083816 87.1014302,4.16021554 87.1014302,4.12916652 L87.101,2.74938012 L85,2.75 L85,2.25 L87.101,2.24938012 L87.1014302,0.77638012 C87.1014302,0.66592317 87.1909733,0.57638012 87.3014302,0.57638012 Z M3,2.25 L3,2.75 L0,2.75 L0,2.25 L3,2.25 Z M8,2.25 L8,2.75 L5,2.75 L5,2.25 L8,2.25 Z M13,2.25 L13,2.75 L10,2.75 L10,2.25 L13,2.25 Z M18,2.25 L18,2.75 L15,2.75 L15,2.25 L18,2.25 Z M23,2.25 L23,2.75 L20,2.75 L20,2.25 L23,2.25 Z M28,2.25 L28,2.75 L25,2.75 L25,2.25 L28,2.25 Z M33,2.25 L33,2.75 L30,2.75 L30,2.25 L33,2.25 Z M38,2.25 L38,2.75 L35,2.75 L35,2.25 L38,2.25 Z M43,2.25 L43,2.75 L40,2.75 L40,2.25 L43,2.25 Z M48,2.25 L48,2.75 L45,2.75 L45,2.25 L48,2.25 Z M53,2.25 L53,2.75 L50,2.75 L50,2.25 L53,2.25 Z M58,2.25 L58,2.75 L55,2.75 L55,2.25 L58,2.25 Z M63,2.25 L63,2.75 L60,2.75 L60,2.25 L63,2.25 Z M68,2.25 L68,2.75 L65,2.75 L65,2.25 L68,2.25 Z M73,2.25 L73,2.75 L70,2.75 L70,2.25 L73,2.25 Z M78,2.25 L78,2.75 L75,2.75 L75,2.25 L78,2.25 Z M83,2.25 L83,2.75 L80,2.75 L80,2.25 L83,2.25 Z" id="形状结合" fill="#999999"></path>
    </g>
</svg>