<?xml version="1.0" encoding="UTF-8"?>
<svg width="22px" height="22px" viewBox="0 0 22 22" version="1.1" xmlns="http://www.w3.org/2000/svg" xmlns:xlink="http://www.w3.org/1999/xlink">
    <!-- Generator: Sketch 60 (88103) - https://sketch.com -->
    <title>h5 svg/train/price@2x</title>
    <desc>Created with Sketch.</desc>
    <g id="h5-svg/train/price" stroke="none" stroke-width="1" fill="none" fill-rule="evenodd">
        <g id="价格-(1)" transform="translate(0.846154, 0.846154)" fill="#478aee" fill-rule="nonzero">
            <path d="M18.8057692,-2.84217094e-14 C19.4588942,-2.84217094e-14 19.9903846,0.531490385 19.9903846,1.18461538 L19.9903846,9.20192308 C19.9903846,9.42668269 19.9004808,9.64086538 19.7418269,9.79951923 L9.89206731,19.6492788 C9.66466346,19.8766827 9.36850962,19.9903846 9.06971154,19.9903846 C8.77091346,19.9903846 8.47475962,19.8766827 8.24735577,19.6492788 L0.341105769,11.7430288 C-0.113701923,11.2882212 -0.113701923,10.5504808 0.341105769,10.0983173 L10.1908654,0.248557692 C10.3495192,0.0899038462 10.5637019,-2.84217094e-14 10.7884615,-2.84217094e-14 L18.8057692,-2.84217094e-14 Z M18.2980769,1.69230769 L11.1401442,1.69230769 L1.91177885,10.9206731 L9.06971154,18.0786058 L18.2980769,8.85024038 L18.2980769,1.69230769 Z M13.75,3.54326923 C15.2360577,3.54326923 16.4471154,4.75432692 16.4471154,6.24038462 C16.4471154,7.72644231 15.2360577,8.9375 13.75,8.9375 C12.2639423,8.9375 11.0528846,7.72644231 11.0528846,6.24038462 C11.0528846,4.75432692 12.2639423,3.54326923 13.75,3.54326923 Z M13.75,5.23557692 C13.1947115,5.23557692 12.7451923,5.68509615 12.7451923,6.24038462 C12.7451923,6.79567308 13.1947115,7.24519231 13.75,7.24519231 C14.3052885,7.24519231 14.7548077,6.79567308 14.7548077,6.24038462 C14.7548077,5.68509615 14.3052885,5.23557692 13.75,5.23557692 Z" id="形状结合"></path>
        </g>
    </g>
</svg>