<?xml version="1.0" encoding="UTF-8"?>
<svg width="40px" height="40px" viewBox="0 0 40 40" version="1.1" xmlns="http://www.w3.org/2000/svg" xmlns:xlink="http://www.w3.org/1999/xlink">
    <!-- Generator: Sketch 60 (88103) - https://sketch.com -->
    <title>icon_plane_circle</title>
    <desc>Created with Sketch.</desc>
    <g id="icon_plane_circle" stroke="none" stroke-width="1" fill="none" fill-rule="evenodd">
        <path d="M4.74199391,21.5431787 C4.82089935,21.5657504 4.89303548,21.6073983 4.95203592,21.6644465 L7.90996775,24.5245063 C8.10848657,24.7164565 8.11381146,25.0329942 7.92186124,25.231513 C7.8588687,25.2966612 7.77935475,25.3434646 7.69182064,25.3669193 L6.63466093,25.6499011 C6.69700741,25.7917571 6.76171871,25.9326106 6.82877051,26.0724125 C9.18925186,30.9939768 14.213564,34.2 19.8260529,34.2 C26.832706,34.2 32.7835687,29.2132358 33.9823458,22.476204 C34.0478401,22.1081313 34.3553185,21.8439531 34.7119084,21.8182717 L34.8102329,21.8172819 L34.9101233,21.8287252 C35.3451183,21.9061275 35.6350045,22.3215077 35.5576021,22.7565027 C34.2229785,30.2569813 27.6083198,35.8 19.8260529,35.8 C13.5941654,35.8 8.01114057,32.2374612 5.3861199,26.7643368 C5.2759922,26.5347224 5.17152521,26.3025447 5.07280729,26.0679828 L3.60227458,26.4627098 C3.33554153,26.5341808 3.06137305,26.3758895 2.98990215,26.1091565 C2.96644746,26.0216224 2.96722344,25.9293595 2.99214713,25.8422323 L4.12376136,21.886382 C4.19970858,21.6208888 4.47650072,21.4672314 4.74199391,21.5431787 Z M19.7474782,4.2 C25.6659169,4.2 30.9811463,7.5910302 33.6096403,12.8382565 L34.5832933,12.2764841 C34.8224397,12.1384129 35.1282349,12.2203505 35.266306,12.4594968 C35.311617,12.5379777 35.3347469,12.6272976 35.3332226,12.7179068 L35.2640166,16.8318481 C35.2593719,17.1079514 35.0317807,17.3280121 34.7556774,17.3233674 C34.6736186,17.3219869 34.5931612,17.3004285 34.521406,17.2605945 L33.9211103,16.928398 C33.7010485,16.90657 33.4990552,16.7937049 33.3649614,16.6189649 L30.9240253,15.263558 C30.6825904,15.1295288 30.595521,14.825155 30.7295502,14.5837202 C30.7735348,14.5044883 30.8382257,14.4386999 30.9167067,14.3933889 L32.2198651,13.64 L32.1777262,13.5521427 C29.8159849,8.83994002 25.0499434,5.8 19.7474782,5.8 C12.9576361,5.8 7.18289687,10.7758017 6.01352814,17.5103463 C5.93794133,17.9456605 5.52377423,18.2372772 5.08846005,18.1616903 C4.65314587,18.0861035 4.36152922,17.6719364 4.43711604,17.2366223 C5.73825057,9.74322137 12.171517,4.2 19.7474782,4.2 Z" fill="#262DD9" fill-rule="nonzero" transform="translate(19.271487, 20.000000) rotate(-30.000000) translate(-19.271487, -20.000000) "></path>
    </g>
</svg>