<?xml version="1.0" encoding="UTF-8"?>
<svg width="90px" height="22px" viewBox="0 0 90 22" version="1.1" xmlns="http://www.w3.org/2000/svg" xmlns:xlink="http://www.w3.org/1999/xlink">
    <!-- Generator: Sketch 60 (88103) - https://sketch.com -->
    <title>h5 svg/icon/train/shikebiao@2x</title>
    <desc>Created with Sketch.</desc>
    <g id="h5-svg/icon/train/shikebiao" stroke="none" stroke-width="1" fill="none" fill-rule="evenodd">
        <path d="M70.7666668,10.6944444 L70.7666668,11.3055556 L67.7111112,11.3055556 L67.7111112,10.6944444 L70.7666668,10.6944444 Z M75.2888891,10.6944444 L75.2888891,11.3055556 L72.2333335,11.3055556 L72.2333335,10.6944444 L75.2888891,10.6944444 Z M79.8111113,10.6944444 L79.8111113,11.3055556 L76.7555558,11.3055556 L76.7555558,10.6944444 L79.8111113,10.6944444 Z M84.3333336,10.6944444 L84.3333336,11.3055556 L81.2777781,11.3055556 L81.2777781,10.6944444 L84.3333336,10.6944444 Z M88.8555559,10.6944444 L88.8555559,11.3055556 L85.8000003,11.3055556 L85.8000003,10.6944444 L88.8555559,10.6944444 Z M3.05555556,10.6944444 L3.05555556,11.3055556 L0,11.3055556 L0,10.6944444 L3.05555556,10.6944444 Z M7.57777784,10.6944444 L7.57777784,11.3055556 L4.52222228,11.3055556 L4.52222228,10.6944444 L7.57777784,10.6944444 Z M12.1000001,10.6944444 L12.1000001,11.3055556 L9.04444456,11.3055556 L9.04444456,10.6944444 L12.1000001,10.6944444 Z M16.6222224,10.6944444 L16.6222224,11.3055556 L13.5666668,11.3055556 L13.5666668,10.6944444 L16.6222224,10.6944444 Z M21.1444447,10.6944444 L21.1444447,11.3055556 L18.0888891,11.3055556 L18.0888891,10.6944444 L21.1444447,10.6944444 Z" id="形状结合" fill="#FFFFFF"></path>
        <path d="M59.5,3 C63.918278,3 67.5,6.581722 67.5,11 C67.5,15.418278 63.918278,19 59.5,19 L29.5,19 C25.081722,19 21.5,15.418278 21.5,11 C21.5,6.581722 25.081722,3 29.5,3 L59.5,3 Z M45.242,10.82 C44.054,13.086 42.283,14.615 39.907,15.418 L40.358,16.1 C41.612,15.66 42.712,15.011 43.658,14.164 C44.417,14.813 45.022,15.44 45.484,16.034 L46.067,15.44 C45.55,14.846 44.923,14.241 44.186,13.647 C44.857,12.932 45.44,12.107 45.935,11.172 L45.242,10.82 Z M56.407,6.035 L55.593,6.035 L55.593,6.97 L51.644,6.97 L51.644,7.696 L55.593,7.696 L55.593,8.741 L52.282,8.741 L52.282,9.467 L55.593,9.467 L55.593,10.512 L51.259,10.512 L51.259,11.227 L54.79,11.227 C53.976,12.184 52.7,12.965 50.94,13.581 L51.358,14.263 C52.106,13.966 52.766,13.636 53.36,13.273 L53.36,15 C53.36,15.176 53.239,15.308 53.008,15.396 L53.272,16.078 C54.449,15.792 55.604,15.418 56.748,14.956 L56.594,14.219 C55.78,14.549 54.966,14.846 54.141,15.088 L54.141,12.745 C54.746,12.283 55.241,11.777 55.626,11.227 L56.011,11.227 C56.935,13.614 58.431,15.22 60.477,16.045 L60.895,15.352 C59.872,14.967 58.992,14.384 58.266,13.614 C58.97,13.306 59.597,12.866 60.158,12.305 L59.608,11.777 C59.036,12.382 58.442,12.822 57.826,13.108 C57.397,12.558 57.034,11.931 56.737,11.227 L60.741,11.227 L60.741,10.512 L56.407,10.512 L56.407,9.467 L59.718,9.467 L59.718,8.741 L56.407,8.741 L56.407,7.696 L60.356,7.696 L60.356,6.97 L56.407,6.97 L56.407,6.035 Z M49.565,6.046 L48.773,6.046 L48.773,14.791 C48.773,15.121 48.608,15.297 48.289,15.297 C47.805,15.297 47.299,15.275 46.771,15.242 L46.947,16.001 L48.564,16.001 C49.224,16.001 49.565,15.66 49.565,14.989 L49.565,6.046 Z M37.685,6.101 L36.882,6.101 L36.882,8.037 L33.076,8.037 L33.076,8.796 L36.882,8.796 L36.882,14.747 C36.882,15.088 36.717,15.264 36.398,15.264 C35.815,15.264 35.21,15.242 34.572,15.22 L34.737,15.99 L36.662,15.99 C37.344,15.99 37.685,15.638 37.685,14.945 L37.685,8.796 L39.038,8.796 L39.038,8.037 L37.685,8.037 L37.685,6.101 Z M32.57,6.838 L29.402,6.838 L29.402,15.209 L30.172,15.209 L30.172,14.208 L31.8,14.208 L31.8,14.945 L32.57,14.945 L32.57,6.838 Z M47.431,6.981 L46.672,6.981 L46.672,13.834 L47.431,13.834 L47.431,6.981 Z M43.086,5.925 L42.239,6.057 C42.437,6.398 42.624,6.783 42.8,7.201 L40.116,7.201 L40.116,7.938 L42.052,7.938 C41.425,9.159 40.919,9.907 40.523,10.193 C40.479,10.215 40.424,10.237 40.347,10.259 L40.545,10.996 C41.447,10.93 42.305,10.842 43.108,10.754 C42.294,11.689 41.282,12.371 40.072,12.811 L40.512,13.493 C42.514,12.723 44.021,11.271 45.055,9.159 L44.384,8.807 C44.175,9.225 43.944,9.632 43.68,10.017 C42.932,10.116 42.195,10.193 41.447,10.259 C41.865,9.775 42.338,9.005 42.888,7.938 L45.957,7.938 L45.957,7.201 L43.625,7.201 C43.449,6.717 43.273,6.299 43.086,5.925 Z M31.8,10.82 L31.8,13.471 L30.172,13.471 L30.172,10.82 L31.8,10.82 Z M34.154,10.116 L33.505,10.523 C34.165,11.535 34.682,12.459 35.067,13.284 L35.727,12.822 C35.364,12.052 34.836,11.15 34.154,10.116 Z M31.8,7.564 L31.8,10.083 L30.172,10.083 L30.172,7.564 L31.8,7.564 Z" id="形状结合" fill="#FFFFFF"></path>
    </g>
</svg>