<?xml version="1.0" encoding="UTF-8"?>
<svg width="30px" height="31px" viewBox="0 0 30 31" version="1.1" xmlns="http://www.w3.org/2000/svg" xmlns:xlink="http://www.w3.org/1999/xlink">
    <!-- Generator: Sketch 60 (88103) - https://sketch.com -->
    <!-- <title>h5 svg_icon_zixun_touxiang</title> -->
    <desc>Created with Sketch.</desc>
    <g id="定稿" stroke="none" stroke-width="1" fill="none" fill-rule="evenodd">
        <g id="4资讯首页" transform="translate(-15.000000, -94.000000)">
            <g id="h5-svg_icon_zixun_touxiang" transform="translate(15.000000, 94.000000)">
                <circle id="椭圆形" stroke="#C2C2C2" stroke-width="0.5" cx="15" cy="15.5" r="14.75"></circle>
                <g id="-mockplus-" transform="translate(4.500000, 4.000000)">
                    <g id="h5-svg/icon/zixun/touxiang">
                        <rect id="背景板" opacity="0" x="0" y="0" width="22" height="22"></rect>
                        <path d="M10.8967774,1.35737531 L10.624,1.34996176 C9.36445189,1.34502888 8.15052114,1.82485783 7.25107259,2.68612681 C6.34712487,3.551704 5.83496973,4.73171998 5.82973101,5.9658097 L5.83344557,6.32501974 C5.83842816,6.56893775 5.84847706,6.82106199 5.86391541,7.0772939 L5.87,7.176 L5.79924176,7.27168605 C5.49307903,7.72102639 5.36691378,8.32509897 5.4569918,8.93553196 L5.48824544,9.106515 C5.62240791,9.72584897 5.96907845,10.2572149 6.43864412,10.5578591 L6.513,10.601 C6.87982296,11.6397704 7.38896187,12.4723835 8.07198333,13.0581628 L8.17,13.137 L8.17,13.196 L8.13400154,13.2318688 C7.96168815,13.3953864 7.71354855,13.5670079 7.37482597,13.7335425 C6.81973123,14.0064574 6.09862041,14.2271939 5.19004482,14.3722985 L4.84049967,14.4231217 C2.17390195,14.7739149 1.07307011,16.2700719 0.976039345,18.0098116 L0.969971428,18.6097094 C0.969971428,19.7450234 1.91113437,20.65 3.06075916,20.65 L18.180827,20.65 C19.3279091,20.65 20.2699455,19.7442085 20.2699455,18.6155131 L20.2699455,18.0443713 C20.1608272,16.3167965 19.1353683,14.8728409 16.6605363,14.4619078 L16.3993272,14.4231132 C15.3241424,14.2815627 14.4895467,14.0405717 13.8650651,13.7335425 L13.6725835,13.6331168 C13.4301197,13.4986835 13.2437402,13.3626829 13.1058895,13.2318688 L13.069,13.195 L13.069,13.087 L13.1898049,12.983609 C13.7481857,12.4701963 14.1927844,11.7819979 14.5368763,10.9516563 L14.669,10.609 L14.7482991,10.5648756 C15.2643419,10.2386006 15.6318736,9.63356057 15.7353299,8.93789255 L15.7565167,8.74817242 C15.7945823,8.24383423 15.6859895,7.7555961 15.4500168,7.36607963 L15.362,7.235 L15.3372686,7.51763467 C15.3924953,6.97974438 15.4186413,6.44921424 15.4186413,5.96856893 L15.4097776,5.68782487 C15.3744185,5.12913451 15.2338433,4.58831931 14.9983821,4.0849718 L14.98,4.049 L15.0370503,3.98248653 C15.252821,3.70453746 15.4201699,3.38309413 15.5256374,3.01559298 L15.9359264,1.58594268 L14.6080391,2.25598183 C14.3684291,2.37688677 13.7980054,2.28686003 12.9095596,1.91443542 C12.3250345,1.59367632 11.6221861,1.39687814 10.8967774,1.35737531 Z M10.6244878,2.64991634 C11.2287948,2.64971676 11.8225964,2.79973381 12.3480703,3.08510192 L12.5825071,3.18124787 C12.965793,3.33364588 13.3122528,3.44663911 13.6276606,3.51754969 L13.663,3.524 L13.3304019,3.80555802 L13.6292257,4.28375553 C13.9484234,4.79455667 14.1186413,5.36990844 14.1186413,5.96856893 C14.1186413,6.40566673 14.0946765,6.89193777 14.044067,7.38485811 L14.0108804,7.70808513 L14.24951,7.92861396 C14.4081004,8.07517475 14.5021469,8.39067487 14.4494017,8.74713507 C14.3895106,9.149858 14.1681757,9.44717432 13.9612609,9.50932368 L13.6376275,9.60653089 L13.5312756,9.92727552 C13.1762737,10.9979188 12.6762783,11.7937065 12.0430689,12.2431044 L11.7692675,12.4374252 L11.7692675,13.5950934 L11.8897822,13.8032482 L11.9586645,13.8989605 C12.0260896,13.9861017 12.1097354,14.0787329 12.2110334,14.1748601 C12.4795087,14.429631 12.8361532,14.676298 13.2914892,14.9001661 C13.9727644,15.2351182 14.8271717,15.4956531 15.873717,15.6605906 L16.2297077,15.712 C18.2066139,15.9720638 18.8959581,16.9073404 18.9712687,18.0858248 L18.9699455,18.6155131 C18.9699455,19.014579 18.6211028,19.35 18.180827,19.35 L3.06075916,19.35 C2.61794066,19.35 2.26994552,19.015394 2.26994552,18.6155131 L2.27500483,18.0518116 C2.33656663,16.9602845 2.97824075,16.0478613 4.77895176,15.7464688 L5.01011916,15.7120085 C6.22071368,15.552631 7.19142944,15.2723351 7.94840186,14.9001661 C8.74708403,14.5074903 9.19693778,14.0805995 9.38685407,13.7436967 L9.47062355,13.5950934 L9.47062355,12.4614882 L9.17929372,12.2687299 C8.51368446,11.8283296 8.00756347,11.0291979 7.66050645,9.93246948 L7.55792636,9.60830806 L7.23315064,9.50768979 C7.02469647,9.44310893 6.80269291,9.14468059 6.7428871,8.74455603 C6.68839482,8.37526974 6.79248234,8.04717939 6.95569667,7.91087683 L7.21399645,7.6951671 L7.18695013,7.35973013 C7.14800151,6.87667711 7.12972516,6.40106685 7.12972516,5.96856893 C7.13345337,5.09168984 7.49963759,4.24799386 8.15016719,3.62507777 C8.80518007,2.99786871 9.69452055,2.64634017 10.6244878,2.64991634 Z" id="路径" fill="#222222"></path>
                    </g>
                </g>
            </g>
        </g>
    </g>
</svg>