<?xml version="1.0" encoding="UTF-8"?>
<svg width="18px" height="18px" viewBox="0 0 18 18" version="1.1" xmlns="http://www.w3.org/2000/svg" xmlns:xlink="http://www.w3.org/1999/xlink">
    <!-- Generator: Sketch 60 (88103) - https://sketch.com -->
    <!-- <title>h5 svg/icon/zixun/zaiyue</title> -->
    <desc>Created with Sketch.</desc>
    <g id="定稿" stroke="none" stroke-width="1" fill="none" fill-rule="evenodd">
        <g id="7资讯详情" transform="translate(-223.000000, -721.000000)">
            <g id="E/3/4_长按头像浮层" transform="translate(90.000000, 712.000000)">
                <g id="bg_popover_upbubble">
                    <g id="编组-7" transform="translate(15.000000, 9.000000)">
                        <g id="编组-10" transform="translate(118.000000, 0.000000)">
                            <g id="h5-svg_icon_zixun_zaiyue_nor">
                                <g id="h5-svg/icon/zixun/zaiyue">
                                    <rect id="矩形" x="0" y="0" width="18" height="18"></rect>
                                    <g id="icon_zaiyue" transform="translate(1.000000, 1.000000)" stroke="#FFFFFF" stroke-linejoin="round">
                                        <path d="M9,16 C7.8954305,16 7,15.1045695 7,14 L7,14 L7,2 C7,0.8954305 7.8954305,2.02906125e-16 9,0 L9,0 L14,0 C15.1045695,-2.02906125e-16 16,0.8954305 16,2 L16,2 L16,14 C16,15.1045695 15.1045695,16 14,16 L14,16 Z" id="形状结合"></path>
                                        <path d="M3.95384375,0.21709375 L4.00950396,0.223278217 C5.10731762,0.345257513 5.89838767,1.33409508 5.77640837,2.43190874 C5.77630738,2.43281764 5.77620577,2.43372647 5.77610354,2.43463523 L4.4718451,14.0280436 C4.34904336,15.1196146 3.36886582,15.9078552 2.27636647,15.793607 L2.03680942,15.7685552 C0.9382306,15.6536712 0.140788434,14.6699651 0.255672494,13.5713863 C0.257314001,13.5556894 0.259141252,13.5400125 0.261153865,13.5243588 L1.74930915,1.94981773 C1.88845442,0.867576739 2.86936813,0.0965964584 3.95384375,0.21709375 Z" id="路径"></path>
                                        <line x1="13.5" y1="6" x2="13.5" y2="4" id="路径" stroke-linecap="round"></line>
                                        <line x1="9.5" y1="6" x2="9.5" y2="4" id="路径" stroke-linecap="round"></line>
                                    </g>
                                </g>
                            </g>
                        </g>
                    </g>
                </g>
            </g>
        </g>
    </g>
</svg>