<?xml version="1.0" encoding="UTF-8"?>
<svg width="22px" height="22px" viewBox="0 0 22 22" version="1.1" xmlns="http://www.w3.org/2000/svg" xmlns:xlink="http://www.w3.org/1999/xlink">
    <!-- Generator: Sketch 60 (88103) - https://sketch.com -->
    <!-- <title>h5 svg/icon/zixun/shoucang</title> -->
    <desc>Created with Sketch.</desc>
    <g id="h5-svg/icon/zixun/shoucang" stroke="none" stroke-width="1" fill-rule="evenodd">
        <path d="M14.9063644,1.33613065 C13.494757,1.40140316 12.1624876,2.01739682 11.1317626,3.04487482 L11,3.181 L10.8682374,3.04487482 C9.77688157,1.95695694 8.34746204,1.33035714 6.84375,1.33035714 C3.50864561,1.33035714 0.830357143,4.31374575 0.830357143,7.95962315 C0.830357143,9.73533078 1.31545565,10.9111482 2.47762562,12.750667 C2.80810631,13.2844701 3.22971576,13.8557566 3.7308132,14.4566232 C4.32691398,15.1714084 5.02791677,15.9191366 5.8129386,16.6890068 C6.68198309,17.5412779 7.61059448,18.3790437 8.54488504,19.1726078 L9.02880657,19.5791179 L9.71376668,20.1382326 C9.78221631,20.1930327 9.84165994,20.2402144 9.89505174,20.2823345 C10.2197198,20.5399163 10.6012509,20.6696429 11,20.6696429 C11.3987491,20.6696429 11.7802802,20.5399163 12.1049483,20.2823345 L12.5112933,19.9555872 C13.1534638,19.4326278 13.9382477,18.7635974 14.8072508,17.9714755 L15.0999576,17.7029075 C17.0460029,15.905626 18.5979581,14.2150097 19.5225009,12.7504666 L19.829122,12.2490666 L19.8776314,12.167509 C20.7364014,10.7172159 21.1696429,9.48854252 21.1696429,7.95962315 C21.1696429,4.32997593 18.484327,1.33035714 15.15625,1.33035714 L14.9063644,1.33613065 Z M15.15625,2.66964286 C17.709591,2.66964286 19.8303571,5.03863417 19.8303571,7.95962315 C19.8303571,9.1122783 19.5255041,10.0655078 18.8907895,11.1980401 L18.5845249,11.7192474 C18.5328567,11.8040055 18.4716543,11.9033598 18.3866206,12.0409447 C17.5428074,13.3775492 16.0579786,14.9950416 14.1912924,16.7190306 L13.6258888,17.234492 C12.704361,18.0637325 11.8923955,18.741378 11.2725517,19.2331433 C11.1875323,19.3005951 11.1000009,19.3303571 11,19.3303571 C10.8999991,19.3303571 10.8124677,19.3005951 10.7274483,19.2331433 L10.3225946,18.908661 C10.0424554,18.6812244 9.73733789,18.428257 9.41190154,18.1518392 C8.50034121,17.3775816 7.59478936,16.5606194 6.75068387,15.7328059 C5.99547993,14.9921781 5.32423989,14.2761966 4.75936499,13.5988543 C4.29594285,13.0431642 3.91076121,12.5212379 3.61309365,12.0404827 C2.5723223,10.3930659 2.16964286,9.41702187 2.16964286,7.95962315 C2.16964286,5.0231326 4.2824499,2.66964286 6.84375,2.66964286 C8.23905887,2.66964286 9.567969,3.38995628 10.4571702,4.62092127 L11,5.3723872 L11.5428298,4.62092127 C12.432031,3.38995628 13.7609411,2.66964286 15.15625,2.66964286 Z" id="路径备份-5"></path>
    </g>
</svg>