<?xml version="1.0" encoding="UTF-8"?>
<svg width="22px" height="22px" viewBox="0 0 22 22" version="1.1" xmlns="http://www.w3.org/2000/svg" xmlns:xlink="http://www.w3.org/1999/xlink">
    <!-- Generator: Sketch 60 (88103) - https://sketch.com -->
    <!-- <title>h5 svg/icon/zixun/pingbi</title> -->
    <desc>Created with Sketch.</desc>
    <g id="h5-svg/icon/zixun/pingbi" stroke="none" stroke-width="1" fill-rule="evenodd">
        <g id="编组" transform="translate(1.222222, 1.222222)">
            <path d="M9.77777778,-7.10542736e-15 C15.1778953,-7.10542736e-15 19.5555556,4.37766022 19.5555556,9.77777778 C19.5555556,15.1778953 15.1778953,19.5555556 9.77777778,19.5555556 C4.37766022,19.5555556 -4.05009359e-13,15.1778953 -4.05009359e-13,9.77777778 C-4.05009359e-13,4.37766022 4.37766022,-7.10542736e-15 9.77777778,-7.10542736e-15 Z M1.46666667,9.77777778 C1.46666667,14.3678777 5.18767786,18.0888889 9.77777778,18.0888889 C12.3756759,18.0888889 14.6951773,16.896931 16.2192259,15.0300712 L2.29248521,6.16161961 C1.76334106,7.25491056 1.46666667,8.48169816 1.46666667,9.77777778 Z M9.77777778,1.46666667 C7.00920966,1.46666667 4.55681853,2.8203813 3.04640638,4.90200859 L17.0437055,13.8158413 C17.7095513,12.6203053 18.0888889,11.2433411 18.0888889,9.77777778 C18.0888889,5.18767786 14.3678777,1.46666667 9.77777778,1.46666667 Z" id="形状结合"></path>
        </g>
    </g>
</svg>