<?xml version="1.0" encoding="UTF-8"?>
<svg width="22px" height="22px" viewBox="0 0 22 22" version="1.1" xmlns="http://www.w3.org/2000/svg" xmlns:xlink="http://www.w3.org/1999/xlink">
    <!-- Generator: Sketch 60 (88103) - https://sketch.com -->
    <!-- <title>h5 svg/icon/zixun/jubao</title> -->
    <desc>Created with Sketch.</desc>
    <g id="h5-svg/icon/zixun/jubao" stroke="none" stroke-width="1" fill-rule="evenodd">
        <g id="btn_taxi_alarm" transform="translate(0.222222, -0.777778)">
            <path d="M10.7777778,4.55555556 C14.3939279,4.55555556 17.3253968,7.48702446 17.3253968,11.1031746 L17.3253968,16.5396825 C17.3253968,17.2177107 17.8406941,17.2753847 18.5010294,17.3424454 L18.6349206,17.3492063 C19.3581507,17.3492063 19.9444444,17.9355001 19.9444444,18.6587302 L19.9444444,20.0555556 C19.9444444,20.7305702 19.3972369,21.2777778 18.7222222,21.2777778 L2.83333333,21.2777778 C2.15831864,21.2777778 1.61111111,20.7305702 1.61111111,20.0555556 L1.61111111,18.6587302 C1.61111111,17.9355001 2.19740489,17.3492063 2.92063492,17.3492063 L3.00793651,17.3492063 C3.6829512,17.3492063 4.23015873,17.3019988 4.23015873,16.6269841 L4.23015873,11.1031746 C4.23015873,7.48702446 7.16162763,4.55555556 10.7777778,4.55555556 Z M10.7777778,6.02222222 C8.04359738,6.02222222 5.81383214,8.18188027 5.70128283,10.8883956 L5.6968254,11.1031746 L5.6968254,16.6269841 C5.6968254,18.0548998 4.58379233,18.7228527 3.17798607,18.810583 L3.077,18.813 L3.077,19.811 L18.477,19.811 L18.477,18.809 L18.3528435,18.8016068 C16.9973824,18.6639523 15.9458318,18.0611365 15.8638764,16.7098373 L15.8587302,16.5396825 L15.8587302,11.1031746 C15.8587302,8.29704209 13.5839103,6.02222222 10.7777778,6.02222222 Z M13.2222222,10.5444444 C13.627231,10.5444444 13.9555556,10.872769 13.9555556,11.2777778 C13.9555556,13.032816 12.532816,14.4555556 10.7777778,14.4555556 C9.02273957,14.4555556 7.6,13.032816 7.6,11.2777778 C7.6,10.872769 7.92832452,10.5444444 8.33333333,10.5444444 C8.73834215,10.5444444 9.06666667,10.872769 9.06666667,11.2777778 C9.06666667,12.2227983 9.83275721,12.9888889 10.7777778,12.9888889 C11.7227983,12.9888889 12.4888889,12.2227983 12.4888889,11.2777778 C12.4888889,10.872769 12.8172134,10.5444444 13.2222222,10.5444444 Z M2.22222222,12.3777778 C2.62723104,12.3777778 2.95555556,12.7061023 2.95555556,13.1111111 C2.95555556,13.4823692 2.67967176,13.7891912 2.32173121,13.83775 L2.22222222,13.8444444 L1,13.8444444 C0.594991183,13.8444444 0.266666667,13.5161199 0.266666667,13.1111111 C0.266666667,12.739853 0.542550462,12.4330311 0.900491011,12.3844722 L1,12.3777778 L2.22222222,12.3777778 Z M20.5555556,12.3777778 L20.6550645,12.3844722 C21.0130051,12.4330311 21.2888889,12.739853 21.2888889,13.1111111 C21.2888889,13.5161199 20.9605644,13.8444444 20.5555556,13.8444444 L20.5555556,13.8444444 L19.3333333,13.8444444 L19.2338243,13.83775 C18.8758838,13.7891912 18.6,13.4823692 18.6,13.1111111 C18.6,12.7061023 18.9283245,12.3777778 19.3333333,12.3777778 L19.3333333,12.3777778 L20.5555556,12.3777778 Z M2.66311107,5.09873557 L2.75263562,5.14269248 L3.81111111,5.75380359 C4.16185903,5.956308 4.28203415,6.40480763 4.07952974,6.75555556 C3.8939007,7.07707449 3.50156734,7.20484821 3.16730233,7.0679311 L3.07777778,7.02397418 L2.01930228,6.41286307 C1.66855436,6.21035867 1.54837925,5.76185903 1.75088365,5.41111111 C1.9365127,5.08959218 2.32884606,4.96181846 2.66311107,5.09873557 Z M18.8924445,5.09873557 C19.2267095,4.96181846 19.6190429,5.08959218 19.8046719,5.41111111 C20.0071763,5.76185903 19.8870012,6.21035867 19.5362533,6.41286307 L19.5362533,6.41286307 L18.4777778,7.02397418 L18.3882532,7.0679311 C18.0539882,7.20484821 17.6616549,7.07707449 17.4760258,6.75555556 C17.2735214,6.40480763 17.3936965,5.956308 17.7444444,5.75380359 L17.7444444,5.75380359 L18.8029199,5.14269248 Z M10.7777778,0.766666667 C11.1490359,0.766666667 11.4558578,1.04255046 11.5044166,1.40049101 L11.5111111,1.5 L11.5111111,2.72222222 C11.5111111,3.12723104 11.1827866,3.45555556 10.7777778,3.45555556 C10.4065197,3.45555556 10.0996977,3.17967176 10.0511389,2.82173121 L10.0444444,2.72222222 L10.0444444,1.5 C10.0444444,1.09499118 10.372769,0.766666667 10.7777778,0.766666667 Z" id="形状结合"></path>
        </g>
    </g>
</svg>