<?xml version="1.0" encoding="UTF-8"?>
<svg width="22px" height="22px" viewBox="0 0 22 22" version="1.1" xmlns="http://www.w3.org/2000/svg" xmlns:xlink="http://www.w3.org/1999/xlink">
    <!-- Generator: Sketch 60 (88103) - https://sketch.com -->
    <!-- <title>h5 svg/icon/zixun/caiyicai_sel</title> -->
    <desc>Created with Sketch.</desc>
    <defs>
        <linearGradient x1="10.614681%" y1="95.3514739%" x2="79.2753797%" y2="25.3600642%" id="linearGradient-1">
            <stop stop-color="#C1BFBF" offset="0%"></stop>
            <stop stop-color="#928F8F" offset="100%"></stop>
        </linearGradient>
    </defs>
    <g id="h5-svg/icon/zixun/caiyicai_sel" stroke="none" stroke-width="1" fill="none" fill-rule="evenodd">
        <path d="M13.0355276,1.53333333 L13.1500029,1.54025809 C13.8003119,1.63804691 14.5380753,2.05752588 15.072947,2.98800149 C15.7775175,4.21368901 15.9164627,6.05502678 15.3524381,8.6270473 L15.3524381,8.6270473 L15.2636719,9.00756083 L19.661748,9.00687163 C20.4972722,9.02372071 21.2517459,9.40948012 21.4554488,10.4227573 L21.4554488,10.4227573 L21.4887065,10.6338562 L21.5,10.9189328 C21.4888404,11.2540849 21.4180941,11.8356111 21.2501828,12.7163746 L21.2501828,12.7163746 L21.182796,13.0592361 C20.9696947,14.1131171 20.6575106,15.3955386 20.2296024,16.930071 L20.2296024,16.930071 L19.9270033,17.9907011 L19.558016,19.2287677 C19.5468749,19.2634637 19.53144,19.3090543 19.5118884,19.3638137 L19.5118884,19.3638137 L19.3450781,19.7907906 C19.2782865,19.9482117 19.2059009,20.103959 19.1279967,20.2542806 C18.795542,20.8957754 18.4361334,21.3314668 17.8481951,21.5038619 L17.8481951,21.5038619 L17.615467,21.5320776 L10.0049804,21.5333333 L6.406,21.5293333 L6.406,9.00233333 L7.76630064,9.00489406 L8.07071531,8.75995102 C9.71026326,7.39127958 11.0100154,5.62381069 11.136213,3.76504587 L11.136213,3.76504587 L11.1462649,3.47002374 L11.1462649,3.28487438 L11.1789696,3.22732231 L11.2084845,2.9301658 C11.2219204,2.83502105 11.2405246,2.75375968 11.2716954,2.65079398 C11.4630405,2.01872908 11.9751493,1.60838003 12.8209004,1.53944082 L12.8209004,1.53944082 L13.0355276,1.53333333 Z M1.68346932,8.99825288 L5.093,9.00133333 L5.093,21.5283333 L2.1156099,21.5262726 L2.00093709,21.5099168 C1.53092441,21.4170892 1.12952837,21.0841309 1.03071476,20.4258012 L1.03071476,20.4258012 L1.01934025,20.26651 L0.5,10.2604818 C0.502096399,10.1018662 0.532702588,9.90588805 0.626347612,9.69406007 C0.770460853,9.3680714 1.03097858,9.11658014 1.48353463,9.01613858 L1.48353463,9.01613858 L1.68346932,8.99825288 Z" id="形状结合备份" fill="url(#linearGradient-1)" transform="translate(11.000000, 11.533333) scale(1, -1) translate(-11.000000, -11.533333) "></path>
    </g>
</svg>