<?xml version="1.0" encoding="UTF-8"?>
<svg width="22px" height="22px" viewBox="0 0 22 22" version="1.1" xmlns="http://www.w3.org/2000/svg" xmlns:xlink="http://www.w3.org/1999/xlink">
    <!-- Generator: Sketch 60 (88103) - https://sketch.com -->
    <!-- <title>h5 svg/icon/zixun/shoucang_sel</title> -->
    <desc>Created with Sketch.</desc>
    <defs>
        <linearGradient x1="17.8248067%" y1="12.1248871%" x2="77.8582761%" y2="72.6440915%" id="linearGradient-1">
            <stop stop-color="#FFAE93" offset="0%"></stop>
            <stop stop-color="#EF3C3C" offset="100%"></stop>
        </linearGradient>
    </defs>
    <g id="h5-svg/icon/zixun/shoucang_sel" stroke="none" stroke-width="1" fill="none" fill-rule="evenodd">
        <path d="M14.9063644,1.50577351 C13.494757,1.57104602 12.1624876,2.18703968 11.1317626,3.21451768 L11,3.35064286 L10.8682374,3.21451768 C9.77688157,2.12659979 8.34746204,1.5 6.84375,1.5 C3.50864561,1.5 0.830357143,4.4833886 0.830357143,8.12926601 C0.830357143,9.90497364 1.31545565,11.080791 2.47762562,12.9203099 C2.80810631,13.4541129 3.22971576,14.0253994 3.7308132,14.626266 C4.32691398,15.3410513 5.02791677,16.0887794 5.8129386,16.8586496 C6.68198309,17.7109208 7.61059448,18.5486866 8.54488504,19.3422507 L9.02880657,19.7487608 L9.71376668,20.3078755 C9.78221631,20.3626756 9.84165994,20.4098572 9.89505174,20.4519774 C10.2197198,20.7095592 10.6012509,20.8392857 11,20.8392857 C11.3987491,20.8392857 11.7802802,20.7095592 12.1049483,20.4519774 L12.5112933,20.1252301 C13.1534638,19.6022707 13.9382477,18.9332403 14.8072508,18.1411184 L15.0999576,17.8725503 C17.0460029,16.0752688 18.5979581,14.3846525 19.5225009,12.9201095 L19.829122,12.4187095 L19.8776314,12.3371519 C20.7364014,10.8868587 21.1696429,9.65818538 21.1696429,8.12926601 C21.1696429,4.49961879 18.484327,1.5 15.15625,1.5 L14.9063644,1.50577351 Z" id="路径备份-6" fill="url(#linearGradient-1)"></path>
    </g>
</svg>