<?xml version="1.0" encoding="UTF-8"?>
<svg width="22px" height="22px" viewBox="0 0 22 22" version="1.1" xmlns="http://www.w3.org/2000/svg" xmlns:xlink="http://www.w3.org/1999/xlink">
    <!-- Generator: Sketch 60 (88103) - https://sketch.com -->
    <!-- <title>h5 svg/icon/zixun/more</title> -->
    <desc>Created with Sketch.</desc>
    <g id="h5-svg/icon/zixun/more" stroke="none" stroke-width="1" fill-rule="evenodd">
        <g id="编组-4备份" transform="translate(0.500000, 8.000000)">
            <path d="M2.1,-5.32907052e-15 C3.25979797,-5.32907052e-15 4.2,0.940202025 4.2,2.1 C4.2,3.25979797 3.25979797,4.2 2.1,4.2 C0.940202025,4.2 -1.45483625e-12,3.25979797 -1.45483625e-12,2.1 C-1.45483625e-12,0.940202025 0.940202025,-5.32907052e-15 2.1,-5.32907052e-15 Z M10.5,-5.32907052e-15 C11.659798,-5.32907052e-15 12.6,0.940202025 12.6,2.1 C12.6,3.25979797 11.659798,4.2 10.5,4.2 C9.34020203,4.2 8.4,3.25979797 8.4,2.1 C8.4,0.940202025 9.34020203,-5.32907052e-15 10.5,-5.32907052e-15 Z M18.9,-5.32907052e-15 C20.059798,-5.32907052e-15 21,0.940202025 21,2.1 C21,3.25979797 20.059798,4.2 18.9,4.2 C17.740202,4.2 16.8,3.25979797 16.8,2.1 C16.8,0.940202025 17.740202,-5.32907052e-15 18.9,-5.32907052e-15 Z" id="形状结合"></path>
        </g>
    </g>
</svg>