<?xml version="1.0" encoding="UTF-8"?>
<svg width="22px" height="22px" viewBox="0 0 22 22" version="1.1" xmlns="http://www.w3.org/2000/svg" xmlns:xlink="http://www.w3.org/1999/xlink">
    <title>btn/wode/fapiaozhushou</title>
    <g id="btn/wode/fapiaozhushou" stroke="none" stroke-width="1" fill="none" fill-rule="evenodd">
        <rect id="矩形" x="0" y="0" width="22" height="22"></rect>
        <g id="轮廓" fill="#222222">
            <path d="M17.3961409,1.15384615 C18.77922,1.15384615 19.8461538,2.39021645 19.8461538,3.8585629 L19.8461538,3.8585629 L19.8461538,19.672674 C19.8461538,20.9601515 18.5034532,21.8320097 17.4254259,21.0673154 L17.4254259,21.0673154 L15.9266923,20.0044615 L13.9282709,21.1043275 C13.5260892,21.3645373 13.0363914,21.4154617 12.5492834,21.222417 L12.5492834,21.222417 L12.4165676,21.1636936 L12.2610527,21.0684982 L10.8150769,20.0450769 L9.30266978,21.0817197 C8.90541559,21.3539166 8.41455471,21.4178812 7.9206662,21.2349853 L7.9206662,21.2349853 L7.78596232,21.1789551 L7.62779918,21.0866954 L6.07238462,20.0340769 L4.55731787,21.0793813 C3.58588476,21.7488242 2.38324265,21.1030372 2.1792182,19.9546985 L2.1792182,19.9546985 L2.16123571,19.8297762 L2.15384615,19.672674 L2.15384615,3.8585629 C2.15384615,2.39021645 3.22078004,1.15384615 4.6038591,1.15384615 L4.6038591,1.15384615 Z M17.3961409,2.84615385 L4.6038591,2.84615385 C4.21536431,2.84615385 3.84615385,3.27399746 3.84615385,3.8585629 L3.84615385,3.8585629 L3.84446154,19.5145385 L5.58847399,18.313121 C5.84355164,18.1372845 6.17127154,18.1164662 6.44367339,18.2512136 L6.44367339,18.2512136 L6.54298113,18.3090371 L8.45769231,19.6084615 L10.3439151,18.3160268 C10.6035867,18.1380001 10.9373947,18.1204802 11.211433,18.2624744 L11.211433,18.2624744 L11.3111341,18.3231975 L13.1301538,19.6135385 L15.5763028,18.2666049 C15.8290199,18.127371 16.1327382,18.127553 16.383051,18.2612222 L16.383051,18.2612222 L16.474211,18.3175937 L18.1538462,19.5086154 L18.1538462,3.8585629 C18.1538462,3.31296849 17.8322228,2.9038962 17.4734791,2.8517781 L17.4734791,2.8517781 L17.3961409,2.84615385 Z M14,11.6538462 C14.4673179,11.6538462 14.8461538,12.0326821 14.8461538,12.5 C14.8461538,12.933938 14.5195045,13.291583 14.0986794,13.3404612 L14,13.3461538 L8,13.3461538 C7.53268213,13.3461538 7.15384615,12.9673179 7.15384615,12.5 C7.15384615,12.066062 7.48049555,11.708417 7.90132059,11.6595388 L8,11.6538462 L14,11.6538462 Z M14,6.65384615 C14.4673179,6.65384615 14.8461538,7.03268213 14.8461538,7.5 C14.8461538,7.93393802 14.5195045,8.29158298 14.0986794,8.34046115 L14,8.34615385 L8,8.34615385 C7.53268213,8.34615385 7.15384615,7.96731787 7.15384615,7.5 C7.15384615,7.06606198 7.48049555,6.70841702 7.90132059,6.65953885 L8,6.65384615 L14,6.65384615 Z"></path>
        </g>
    </g>
</svg>