<?xml version="1.0" encoding="UTF-8"?>
<svg width="22px" height="22px" viewBox="0 0 22 22" version="1.1" xmlns="http://www.w3.org/2000/svg" xmlns:xlink="http://www.w3.org/1999/xlink">
    <title>btn/wode/daifukuan2</title>
    <defs>
        <radialGradient cx="16.9191447%" cy="16.9388061%" fx="16.9191447%" fy="16.9388061%" r="96.0080418%" id="radialGradient-1">
            <stop stop-color="#93BDFF" offset="0%"></stop>
            <stop stop-color="#313BDE" offset="100%"></stop>
        </radialGradient>
    </defs>
    <g id="btn/wode/daifukuan2" stroke="none" stroke-width="1" fill="none" fill-rule="evenodd">
        <g id="轮廓" transform="translate(1.375000, 2.062500)">
            <path d="M8.59375,0 C12.6377256,0 16.0293023,2.79325208 16.9443758,6.55565209 C16.4655987,6.40481962 15.9600874,6.31320967 15.4370537,6.28856868 C14.4750889,3.43242619 11.7746883,1.375 8.59375,1.375 C4.60694446,1.375 1.375,4.60694446 1.375,8.59375 C1.375,12.5805555 4.60694446,15.8125 8.59375,15.8125 C9.13771215,15.8125 9.66762178,15.752334 10.1771871,15.6382937 C10.4634985,16.063664 10.8040813,16.450014 11.188236,16.7880161 C10.3699966,17.047782 9.49818972,17.1875 8.59375,17.1875 C3.84755293,17.1875 0,13.3399471 0,8.59375 C0,3.84755293 3.84755293,0 8.59375,0 Z M9.92771105,5.91571039 L10.0521577,6.03048792 L11.1570121,7.13534226 C11.2815175,7.25984766 11.3867772,7.39631083 11.4727911,7.54103495 C11.0636129,7.85822241 10.697418,8.22699506 10.3830662,8.63756175 C10.3946335,8.48271907 10.3521473,8.32474453 10.2572313,8.19283056 L10.1847403,8.10761409 L9.07988591,7.00275974 C8.83824901,6.76112284 8.46149157,6.73695915 8.19283056,6.93026867 L8.10761409,7.00275974 L7.00275974,8.10761409 C6.76112284,8.34925099 6.73695915,8.72600843 6.93026867,8.99466944 L7.00275974,9.07988591 L8.10761409,10.1847403 C8.34925099,10.4263772 8.72600843,10.4505409 8.99466944,10.2572313 L9.07988591,10.1847403 L9.9141821,9.34929835 C9.52106491,10.0496706 9.26440774,10.8369398 9.18024008,11.6750767 C8.53003831,11.8686396 7.80343719,11.7338025 7.25978895,11.2717896 L7.13534226,11.1570121 L6.03048792,10.0521577 C5.26530438,9.2869742 5.22704521,8.07013778 5.91571039,7.25978895 L6.03048792,7.13534226 L7.13534226,6.03048792 C7.9005258,5.26530438 9.11736222,5.22704521 9.92771105,5.91571039 Z" id="形状结合" fill="#222222" fill-rule="nonzero"></path>
            <g id="时间" transform="translate(10.337442, 7.469320)">
                <circle id="椭圆形" fill="url(#radialGradient-1)" cx="4.8125" cy="4.8125" r="4.8125"></circle>
                <path d="M4.74537351,2.53811692 C5.12823341,2.53811692 5.44464356,2.82262208 5.49471984,3.19174827 L5.50162351,3.29436692 L5.501,4.297 L6.99008307,4.31766628 C7.37290916,4.32275396 7.68551069,4.61143866 7.73067737,4.9811977 L7.73621677,5.08389902 C7.73112909,5.46672511 7.44244439,5.77932665 7.07268535,5.82449333 L6.96998402,5.83003273 L4.73532399,5.80033455 C4.35609029,5.79529461 4.04510269,5.51175219 3.99590499,5.14584033 L3.98912351,5.04415133 L3.98912351,3.29436692 C3.98912351,2.87670157 4.32770817,2.53811692 4.74537351,2.53811692 Z" id="路径-3" fill="#FFFFFF" fill-rule="nonzero"></path>
            </g>
        </g>
    </g>
</svg>