<?xml version="1.0" encoding="UTF-8"?>
<svg width="22px" height="22px" viewBox="0 0 22 22" version="1.1" xmlns="http://www.w3.org/2000/svg" xmlns:xlink="http://www.w3.org/1999/xlink">
    <title>btn/wode/changyongxinxi</title>
    <defs>
        <radialGradient cx="16.9191447%" cy="16.9388061%" fx="16.9191447%" fy="16.9388061%" r="96.0080418%" id="radialGradient-1">
            <stop stop-color="#93BDFF" offset="0%"></stop>
            <stop stop-color="#313BDE" offset="100%"></stop>
        </radialGradient>
    </defs>
    <g id="btn/wode/changyongxinxi" stroke="none" stroke-width="1" fill="none" fill-rule="evenodd">
        <g id="轮廓" transform="translate(1.375000, 1.375000)">
            <path d="M8.25,2.84217094e-14 C10.9078704,2.84217094e-14 13.0625,2.15462964 13.0625,4.8125 C13.0625,6.50873097 12.1849436,7.99999767 10.8590736,8.85705737 C11.2660719,8.95461014 11.6576011,9.07527262 12.0313927,9.21774122 C11.5615311,9.50400508 11.135251,9.85220313 10.7627769,10.2512705 L10.9324036,10.2963496 C10.1211632,10.0605795 9.21888376,9.93414925 8.25,9.93414925 C4.24286382,9.93414925 1.375,12.0967477 1.375,15.2129049 C1.375,16.3369071 1.6971918,16.8938793 2.41521425,17.1903187 L2.43,17.196 L3.51114282,16.6957259 L4.46281782,16.2416254 L5.23265975,15.8616172 L5.59444283,15.6768036 L5.92820826,15.5006703 L6.22451172,15.3371325 C6.27024912,15.3111434 6.31403209,15.2858421 6.35566387,15.2613104 C7.01500338,14.8727913 7.60553592,14.4693516 8.12202101,14.0460205 C8.5544377,13.6915951 8.96653595,13.2629411 9.35985629,12.7700996 C9.22260749,13.2712756 9.14994158,13.7993118 9.14994158,14.3443201 C9.14994158,14.5483459 9.16012503,14.7499933 9.18001138,14.9487817 L8.99365063,15.1094521 L8.99365063,15.1094521 C8.41845933,15.5809011 7.77051866,16.0235608 7.05371379,16.4459417 L6.77294763,16.6060714 L6.28509976,16.8679564 L5.55471435,17.2391245 L5.032,17.492 L5.60060527,17.4845034 L7.16006266,17.4432647 L8.07618462,17.429253 L8.88815098,17.4340221 L10.0227322,17.4623588 C10.3433692,17.9884778 10.7427074,18.4613698 11.2043912,18.8646794 L10.8965577,18.8599472 L9.1136968,18.8134923 L8.41827291,18.804245 L7.63019536,18.8089177 L5.34349327,18.8648108 L4.86532932,18.8700837 L4.24098881,18.8655756 L3.87780878,18.8532954 L3.54995436,18.8327982 L3.472796,18.8263099 L3.472796,18.8263099 L3.39736925,18.8192547 L3.11107326,18.7851506 L2.84486293,18.741121 L2.78073436,18.7284827 L2.78073436,18.7284827 L2.71738489,18.7151706 L2.46987307,18.6549716 L2.40899038,18.6381308 L2.40899038,18.6381308 L2.3483153,18.6205521 L2.10578604,18.5426461 C0.714596989,18.0623546 0,16.9736765 0,15.2129049 C0,12.0172693 2.29897035,9.65808563 5.6416611,8.85688249 C4.31505636,7.99999767 3.4375,6.50873097 3.4375,4.8125 C3.4375,2.15462964 5.59212964,2.84217094e-14 8.25,2.84217094e-14 Z M8.25,1.375 C6.35152117,1.375 4.8125,2.91402117 4.8125,4.8125 C4.8125,6.71097883 6.35152117,8.25 8.25,8.25 C10.1484788,8.25 11.6875,6.71097883 11.6875,4.8125 C11.6875,2.91402117 10.1484788,1.375 8.25,1.375 Z" id="形状结合" fill="#222222" fill-rule="nonzero"></path>
            <g id="时间" transform="translate(9.149942, 8.344320)">
                <circle id="椭圆形" fill="url(#radialGradient-1)" cx="6" cy="6" r="4.8125"></circle>
                <circle id="椭圆形" fill="#FFFFFF" cx="4.28125" cy="6" r="1.03125"></circle>
                <circle id="椭圆形备份-2" fill="#FFFFFF" cx="7.71875" cy="6" r="1.03125"></circle>
            </g>
        </g>
    </g>
</svg>