<?xml version="1.0" encoding="UTF-8"?>
<svg width="32px" height="32px" viewBox="0 0 32 32" version="1.1" xmlns="http://www.w3.org/2000/svg" xmlns:xlink="http://www.w3.org/1999/xlink">
    <title>daifahuo</title>
    <defs>
        <radialGradient cx="14.425617%" cy="-12.4511645%" fx="14.425617%" fy="-12.4511645%" r="122.877452%" id="radialGradient-1">
            <stop stop-color="#FFB093" offset="0%"></stop>
            <stop stop-color="#F30300" offset="100%"></stop>
        </radialGradient>
    </defs>
    <g id="页面-1" stroke="none" stroke-width="1" fill="none" fill-rule="evenodd">
        <g id="05商云_物流信息默认备份" transform="translate(-130.000000, -299.000000)">
            <g id="06卡片/b应用按钮卡片" transform="translate(15.000000, 254.000000)">
                <g id="编组-5" transform="translate(27.500000, 45.000000)">
                    <g id="线稿" transform="translate(87.500000, 0.000000)">
                        <path d="M10.2872027,4.50498339 L22.2014451,4.50498339 C23.1984143,4.50497721 24.1302518,5.00025 24.6880182,5.82659398 C25.7591356,7.41347942 26.5195774,8.53925427 26.9693436,9.20391853 C27.5352547,10.0402217 27.7281977,10.47391 27.5481728,10.5049834 L4.98671096,10.5049834 C5.02087073,10.1874616 5.18667071,9.77700662 5.48411091,9.27361843 C5.8951309,8.57800765 6.67958965,7.41121857 7.83748717,5.7732512 C8.39974765,4.97787617 9.31316048,4.50498339 10.2872027,4.50498339 Z" id="矩形" stroke="#222222" stroke-width="2" fill="#FFFFFF"></path>
                        <rect id="矩形" stroke="#222222" stroke-width="2" fill="#FFFFFF" x="4.76264463" y="8.39048505" width="23" height="20" rx="3"></rect>
                        <path d="M9.76264463,9.50498339 L22.7626446,9.50498339 L22.7626446,20.9530254 C22.7626488,21.5053125 22.3149317,21.9530296 21.7626446,21.9530296 C21.6246131,21.9530296 21.4880763,21.9244539 21.3616295,21.8691014 C18.935784,20.80718 17.2086884,20.2762192 16.1803428,20.2762192 C15.1603273,20.2762192 13.4914173,20.7986127 11.1736129,21.8433997 C10.6701149,22.0703848 10.0779506,21.846202 9.85098662,21.3426944 C9.79275707,21.2135152 9.76264463,21.0734363 9.76264463,20.9317397 L9.76264463,9.50498339 L9.76264463,9.50498339 Z" id="矩形" fill="url(#radialGradient-1)"></path>
                        <circle id="椭圆形" fill="#FFFFFF" cx="13.7626446" cy="14.890485" r="1.5"></circle>
                        <circle id="椭圆形备份-2" fill="#FFFFFF" cx="18.7626446" cy="14.890485" r="1.5"></circle>
                    </g>
                </g>
            </g>
        </g>
    </g>
</svg>