<?xml version="1.0" encoding="UTF-8"?>
<svg width="22px" height="22px" viewBox="0 0 22 22" version="1.1" xmlns="http://www.w3.org/2000/svg" xmlns:xlink="http://www.w3.org/1999/xlink">
    <title>btn/wode/daifukuai</title>
    <defs>
        <radialGradient cx="21.2341258%" cy="18.7952386%" fx="21.2341258%" fy="18.7952386%" r="134.650265%" gradientTransform="translate(0.212341,0.187952),scale(0.733333,1.000000),rotate(37.090742),translate(-0.212341,-0.187952)" id="radialGradient-1">
            <stop stop-color="#FFB093" offset="0%"></stop>
            <stop stop-color="#F30300" offset="100%"></stop>
        </radialGradient>
    </defs>
    <g id="btn/wode/daifukuai" stroke="none" stroke-width="1" fill="none" fill-rule="evenodd">
        <g id="轮廓" transform="translate(1.528125, 1.725554)">
            <path d="M16.4619649,2.12371012 C16.4940405,2.26070879 16.5155309,2.39986555 16.5262939,2.53994955 L16.534375,2.75061713 L16.5343231,2.95058018 C17.7396273,3.25665827 18.63125,4.3489271 18.63125,5.64944555 L18.63125,5.64944555 L18.63125,15.2744456 C18.63125,16.8122134 17.3846429,18.0588206 15.846875,18.0588206 L15.846875,18.0588206 L2.784375,18.0588206 C1.24660715,18.0588206 -9.23705556e-14,16.8122134 -9.23705556e-14,15.2744456 L-9.23705556e-14,15.2744456 L-9.23705556e-14,5.64944555 C-9.23705556e-14,4.90700473 0.290584036,4.23243344 0.764224605,3.73325919 C1.10961243,3.21823514 1.62834874,2.81915543 2.25693231,2.6305739 L2.42228426,2.58646738 L13.157468,0.073027241 C14.6362601,-0.273203939 16.1157337,0.64491806 16.4619649,2.12371012 Z M15.846875,4.30882055 L2.784375,4.30882055 C2.04396826,4.30882055 1.44375,4.90903881 1.44375,5.64944555 L1.44375,5.64944555 L1.44375,15.2744456 C1.44375,16.0148523 2.04396826,16.6150706 2.784375,16.6150706 L2.784375,16.6150706 L15.846875,16.6150706 C16.5872817,16.6150706 17.1875,16.0148523 17.1875,15.2744456 L17.1875,15.2744456 L17.1875,5.64944555 C17.1875,4.90903881 16.5872817,4.30882055 15.846875,4.30882055 L15.846875,4.30882055 Z M13.6012913,1.38776315 L13.4709215,1.41182218 L7.261,2.865 L15.159,2.865 L15.159375,2.75061713 C15.159375,2.64508949 15.1472267,2.53991262 15.1231699,2.43716362 C14.9602376,1.74126148 14.2953848,1.29368379 13.6012913,1.38776315 Z" id="形状结合" fill="#222222" fill-rule="nonzero"></path>
            <path d="M18.7136686,5.78269864 L19.0051678,5.78269864 C19.2629231,5.78269864 19.471875,5.99165059 19.471875,6.24940588 L19.471875,6.24940588 L19.471875,6.24940588 C19.4644292,6.76761917 19.4173683,7.03743064 19.3306924,7.05884028 C19.2440165,7.08024993 19.0383419,6.98658084 18.7136686,6.777833 L18.7136686,5.78269864 Z" id="矩形" fill="#830900"></path>
            <path d="M12.7065989,6.84665112 L18.4475577,6.84665112 L18.4475577,6.84665112 C19.1304359,6.84665112 19.471875,6.69845144 19.471875,6.40205208 C19.471875,6.10565272 19.471875,8.61866835 19.471875,13.941099 L12.7065989,13.941099 C10.7475213,13.941099 9.159375,12.3529527 9.159375,10.3938751 C9.159375,8.43479738 10.7475213,6.84665112 12.7065989,6.84665112 Z" id="矩形" fill="url(#radialGradient-1)"></path>
            <circle id="椭圆形" fill="#FFFFFF" cx="12.409375" cy="10.1181956" r="1.375"></circle>
        </g>
    </g>
</svg>