<?xml version="1.0" encoding="UTF-8"?>
<svg width="22px" height="22px" viewBox="0 0 22 22" version="1.1" xmlns="http://www.w3.org/2000/svg" xmlns:xlink="http://www.w3.org/1999/xlink">
    <title>btn/wode/refund2</title>
    <defs>
        <radialGradient cx="16.9191447%" cy="16.9388061%" fx="16.9191447%" fy="16.9388061%" r="114.790696%" gradientTransform="translate(0.169191,0.169388),scale(0.733333,1.000000),rotate(36.266936),translate(-0.169191,-0.169388)" id="radialGradient-1">
            <stop stop-color="#93BDFF" offset="0%"></stop>
            <stop stop-color="#313BDE" offset="100%"></stop>
        </radialGradient>
        <filter id="filter-2">
            <feColorMatrix in="SourceGraphic" type="matrix" values="0 0 0 0 1.000000 0 0 0 0 1.000000 0 0 0 0 1.000000 0 0 0 1.000000 0"></feColorMatrix>
        </filter>
    </defs>
    <g id="btn/wode/refund2" stroke="none" stroke-width="1" fill="none" fill-rule="evenodd">
        <g id="轮廓" transform="translate(2.586818, 2.143458)">
            <path d="M12.6767069,0.078717608 C13.5905806,0.078717608 14.4447588,0.532730365 14.9560427,1.29020942 L16.5239945,3.61144033 C16.7393913,3.92975356 16.8875049,4.17763128 16.9740315,4.3721216 C17.0300298,4.49799201 17.0670471,4.61190825 17.0798807,4.73393137 C17.1497296,4.97679404 17.1875,5.23398614 17.1875,5.5 L17.1875,5.5 L17.1875,15.125 C17.1875,16.6437831 15.9562831,17.875 14.4375,17.875 L14.4375,17.875 L2.75,17.875 C1.23121694,17.875 0,16.6437831 0,15.125 L0,15.125 L0,5.5 C0,5.00922845 0.128558813,4.54848341 0.353837233,4.14960411 C0.417462914,4.00613473 0.497252886,3.85461165 0.591612602,3.69491714 L0.745610061,3.44225943 L1.0441894,2.9787572 L1.42426787,2.41312753 L1.88629474,1.74457316 L2.24006141,1.24129617 C2.71865215,0.564280555 3.47479057,0.14215222 4.29525173,0.0853023334 L4.48563369,0.078717608 L12.6767069,0.078717608 Z M14.4375,4.125 L2.75,4.125 C2.25698974,4.125 1.82458165,4.38446872 1.58188336,4.77429851 C1.55875497,4.82986049 1.54330968,4.8765044 1.5340963,4.91498682 L1.52510126,4.96475619 L1.48487647,4.96050029 C1.41414758,5.12614594 1.375,5.30850127 1.375,5.5 L1.375,5.5 L1.375,15.125 C1.375,15.8843915 1.99060847,16.5 2.75,16.5 L2.75,16.5 L14.4375,16.5 C15.1968915,16.5 15.8125,15.8843915 15.8125,15.125 L15.8125,15.125 L15.8125,5.5 C15.8125,4.74060847 15.1968915,4.125 14.4375,4.125 L14.4375,4.125 Z M12.6767069,1.45371761 L4.48563369,1.45371761 C4.03919772,1.45371761 3.62054999,1.67046013 3.3628474,2.03500685 L2.862,2.74971761 L14.282,2.74971761 L13.8163657,2.05946965 C13.5891251,1.72280738 13.2264221,1.50603691 12.8277153,1.46202202 L12.6767069,1.45371761 Z" id="形状结合" fill="#222222" fill-rule="nonzero"></path>
            <rect id="矩形" fill="url(#radialGradient-1)" x="3.4375" y="6.1875" width="10.3125" height="7.5625" rx="1.375"></rect>
            <g filter="url(#filter-2)" id="编组-10">
                <g transform="translate(4.986813, 7.736868)">
                    <path d="M1.89864536,2.10783922 L1.96124636,2.17608032 C2.10889702,2.36943673 2.10192762,2.64655518 1.93224143,2.83273435 C1.74134446,3.04218591 1.41679786,3.05722738 1.2073463,2.86633042 L1.2073463,2.86633042 L0.167537164,1.91863442 L0.104936165,1.85039333 C0.0270801409,1.74843671 -0.00778469056,1.62319056 0.00152875037,1.50026823 C-0.00797437045,1.37770887 0.0268679992,1.25205781 0.104936165,1.14982339 L0.167537164,1.0815823 L1.2073463,0.133886296 C1.41679786,-0.0570106673 1.74134446,-0.0419691941 1.93224143,0.167482366 C2.10192762,0.353661531 2.10889702,0.630779989 1.96124636,0.824136399 L1.917,0.871 L4.73036553,0.871861114 C5.72224112,0.871861114 6.52631516,1.67593515 6.52631516,2.66781074 C6.52631516,3.61009254 5.80063834,4.38288345 4.87766133,4.45780684 L4.73036553,4.46376036 L3.15820169,4.46376036 C2.87480867,4.46376036 2.64507323,4.23402492 2.64507323,3.95063189 C2.64507323,3.69872698 2.82659259,3.48921819 3.0659662,3.44577062 L3.15820169,3.43750343 L4.73036553,3.43750343 C5.15545507,3.43750343 5.50005823,3.09290027 5.50005823,2.66781074 C5.50005823,2.27814533 5.21049585,1.95611083 4.83480827,1.90514443 L4.73036553,1.89811804 L1.668,1.898 L1.89864536,2.10783922 Z" id="形状结合" fill="#222222" fill-rule="nonzero"></path>
                </g>
            </g>
        </g>
    </g>
</svg>