<?xml version="1.0" encoding="UTF-8"?>
<svg width="22px" height="22px" viewBox="0 0 22 22" version="1.1" xmlns="http://www.w3.org/2000/svg" xmlns:xlink="http://www.w3.org/1999/xlink">
    <title>btn/wode/lishidingdan</title>
    <defs>
        <radialGradient cx="16.9191447%" cy="16.9388061%" fx="16.9191447%" fy="16.9388061%" r="96.0625059%" gradientTransform="translate(0.169191,0.169388),scale(1.000000,0.998868),rotate(45.046192),translate(-0.169191,-0.169388)" id="radialGradient-1">
            <stop stop-color="#FFA993" offset="0%"></stop>
            <stop stop-color="#DE7031" offset="100%"></stop>
        </radialGradient>
    </defs>
    <g id="btn/wode/lishidingdan" stroke="none" stroke-width="1" fill="none" fill-rule="evenodd">
        <g id="线稿" transform="translate(2.433607, 2.137652)">
            <path d="M13.0477077,5.68434189e-14 C14.5085833,5.68434189e-14 15.7031015,1.1404117 15.7895804,2.57955321 L15.7945935,2.74688583 L15.7949472,8.62412429 C15.3582929,8.46628126 14.8980751,8.35777238 14.4210078,8.30531916 L14.4211506,2.74688583 C14.4211506,2.07759326 13.9424134,1.52011576 13.3086938,1.39820815 L13.1799794,1.37973015 L13.0477077,1.37344292 L2.74688583,1.37344292 C2.03297376,1.37344292 1.44628238,1.91813947 1.37973015,2.61461411 L1.37344292,2.74688583 L1.37344292,15.1265571 C1.37344292,15.8404692 1.91813947,16.4271605 2.61461411,16.4937128 L2.74688583,16.5 L8.19398696,16.4997946 C8.39153903,16.9933503 8.65269897,17.454517 8.96731502,17.8731313 L2.74688583,17.8734429 C1.2860102,17.8734429 0.091491996,16.7330312 0.00501311055,15.2938897 L8.31157365e-12,15.1265571 L8.31157365e-12,2.74688583 C8.31157365e-12,1.2860102 1.1404117,0.091491996 2.57955321,0.00501311054 L2.74688583,5.68434189e-14 L13.0477077,5.68434189e-14 Z M8.58030923,9.20687665 C8.95956949,9.20483846 9.26868125,9.51062907 9.2707399,9.88988933 C9.27259187,10.2346714 9.02004165,10.5214795 8.68916419,10.572316 L8.58772723,10.5803098 L4.52377113,10.6022698 C4.14451088,10.604308 3.83539912,10.2985174 3.83334046,9.91925716 C3.83148849,9.5744751 4.08403871,9.28766702 4.41491617,9.23683052 L4.51635314,9.22883672 L8.58030923,9.20687665 Z M10.6698065,4.4163267 C11.0490723,4.4163267 11.356528,4.72378237 11.356528,5.10304816 C11.356528,5.44783524 11.1024324,5.73327511 10.7712852,5.78232379 L10.6698065,5.78976962 L4.52006214,5.78976962 C4.14079635,5.78976962 3.83334068,5.48231395 3.83334068,5.10304816 C3.83334068,4.75826108 4.08743627,4.4728212 4.41858347,4.42377252 L4.52006214,4.4163267 L10.6698065,4.4163267 Z" id="形状结合" fill="#222222" fill-rule="nonzero"></path>
            <g id="时间" transform="translate(7.766137, 8.269168)">
                <ellipse id="椭圆形" fill="url(#radialGradient-1)" cx="5.99320545" cy="6" rx="4.80705021" ry="4.8125"></ellipse>
                <path d="M5.92615498,3.72647331 C6.30858132,3.72647331 6.62463316,4.01065629 6.67465273,4.37936448 L6.68154858,4.48186692 L6.68115525,5.4855 L8.16833395,5.50602275 C8.55072644,5.51111043 8.86296964,5.79947292 8.9080796,6.16881391 L8.91361118,6.27139902 C8.9085235,6.65379151 8.62016102,6.96603471 8.25082002,7.01114467 L8.14823491,7.01667626 L5.91610546,6.98697808 C5.53730535,6.9819382 5.22667604,6.69871798 5.17753504,6.33322412 L5.17076138,6.23165133 L5.17076138,4.48186692 C5.17076138,4.06467455 5.50896261,3.72647331 5.92615498,3.72647331 Z" id="路径-3" fill="#FFFFFF" fill-rule="nonzero"></path>
            </g>
        </g>
    </g>
</svg>