<?xml version="1.0" encoding="UTF-8"?>
<svg width="22px" height="22px" viewBox="0 0 22 22" version="1.1" xmlns="http://www.w3.org/2000/svg" xmlns:xlink="http://www.w3.org/1999/xlink">
    <title>btn/wode/zhifuzhong</title>
    <defs>
        <radialGradient cx="14.425617%" cy="-12.4511645%" fx="14.425617%" fy="-12.4511645%" r="122.877452%" id="radialGradient-1">
            <stop stop-color="#FFB093" offset="0%"></stop>
            <stop stop-color="#F30300" offset="100%"></stop>
        </radialGradient>
    </defs>
    <g id="btn/wode/zhifuzhong" stroke="none" stroke-width="1" fill="none" fill-rule="evenodd">
        <g id="轮廓" transform="translate(2.586818, 1.643458)">
            <path d="M12.6767069,0.078717608 C13.5905806,0.078717608 14.4447588,0.532730365 14.9560427,1.29020942 L16.5239945,3.61144033 C16.7393913,3.92975356 16.8875049,4.17763128 16.9740315,4.3721216 C17.0300298,4.49799201 17.0670471,4.61190825 17.0798807,4.73393137 C17.1497296,4.97679404 17.1875,5.23398614 17.1875,5.5 L17.1875,5.5 L17.1875,15.125 C17.1875,16.6437831 15.9562831,17.875 14.4375,17.875 L14.4375,17.875 L2.75,17.875 C1.23121694,17.875 0,16.6437831 0,15.125 L0,15.125 L0,5.5 C0,5.00922845 0.128558813,4.54848341 0.353837233,4.14960411 C0.417462914,4.00613473 0.497252886,3.85461165 0.591612602,3.69491714 L0.745610061,3.44225943 L1.0441894,2.9787572 L1.42426787,2.41312753 L1.88629474,1.74457316 L2.24006141,1.24129617 C2.71865215,0.564280555 3.47479057,0.14215222 4.29525173,0.0853023334 L4.48563369,0.078717608 L12.6767069,0.078717608 Z M14.4375,4.125 L2.75,4.125 C2.25698974,4.125 1.82458165,4.38446872 1.58188336,4.77429851 C1.55875497,4.82986049 1.54330968,4.8765044 1.5340963,4.91498682 L1.52510126,4.96475619 L1.48487647,4.96050029 C1.41414758,5.12614594 1.375,5.30850127 1.375,5.5 L1.375,5.5 L1.375,15.125 C1.375,15.8843915 1.99060847,16.5 2.75,16.5 L2.75,16.5 L14.4375,16.5 C15.1968915,16.5 15.8125,15.8843915 15.8125,15.125 L15.8125,15.125 L15.8125,5.5 C15.8125,4.74060847 15.1968915,4.125 14.4375,4.125 L14.4375,4.125 Z M12.6767069,1.45371761 L4.48563369,1.45371761 C4.03919772,1.45371761 3.62054999,1.67046013 3.3628474,2.03500685 L2.862,2.74971761 L14.282,2.74971761 L13.8163657,2.05946965 C13.5891251,1.72280738 13.2264221,1.50603691 12.8277153,1.46202202 L12.6767069,1.45371761 Z" id="形状结合" fill="#222222" fill-rule="nonzero"></path>
            <path d="M4.125,4.20371761 L13.0625,4.20371761 L13.0625,12.074192 C13.0625528,12.4539169 12.754725,12.7617448 12.375,12.7617448 C12.2800966,12.7617448 12.1862208,12.7420976 12.0992824,12.7040401 C10.431524,11.9739749 9.24415234,11.6089423 8.53716751,11.6089423 C7.83590683,11.6089423 6.68853123,11.9680878 5.09504071,12.6863788 C4.74888578,12.8424311 4.34177287,12.6883054 4.18573512,12.3421439 C4.14570231,12.2533333 4.125,12.157029 4.125,12.0596126 L4.125,4.20371761 L4.125,4.20371761 Z" id="矩形" fill="url(#radialGradient-1)"></path>
            <circle id="椭圆形" fill="#FFFFFF" cx="6.875" cy="7.90625" r="1.03125"></circle>
            <circle id="椭圆形备份-2" fill="#FFFFFF" cx="10.3125" cy="7.90625" r="1.03125"></circle>
        </g>
    </g>
</svg>