<?xml version="1.0" encoding="UTF-8"?>
<svg width="40px" height="40px" viewBox="0 0 40 40" version="1.1" xmlns="http://www.w3.org/2000/svg" xmlns:xlink="http://www.w3.org/1999/xlink">
    <title>btn/wode/daifukuai</title>
    <defs>
        <linearGradient x1="27.4825439%" y1="5.94807938%" x2="86.8321585%" y2="56.9577514%" id="linearGradient-1">
            <stop stop-color="#FF9B93" offset="0%"></stop>
            <stop stop-color="#F60000" offset="100%"></stop>
        </linearGradient>
        <linearGradient x1="27.4825439%" y1="2.30104025%" x2="86.8321585%" y2="57.5337806%" id="linearGradient-2">
            <stop stop-color="#FF9B93" offset="0%"></stop>
            <stop stop-color="#F60000" offset="100%"></stop>
        </linearGradient>
        <linearGradient x1="28.7250306%" y1="-30.1190885%" x2="84.7998034%" y2="62.6543563%" id="linearGradient-3">
            <stop stop-color="#FF9B93" offset="0%"></stop>
            <stop stop-color="#F60000" offset="100%"></stop>
        </linearGradient>
    </defs>
    <g id="btn/wode/daifukuai" stroke="none" stroke-width="1" fill="none" fill-rule="evenodd">
        <g id="h5-svg_icon_my_daifukuai" transform="translate(7.000000, 7.000000)">
            <g id="编组-2" transform="translate(0.000000, 0.000000)">
                <path d="M6.30682039,2.41905098 L21.7158458,2.30837203 C22.855806,2.300184 23.786564,3.21766664 23.7947521,4.35762687 C23.7948222,4.3673906 23.7948231,4.3771547 23.7947546,4.38691844 L23.7226157,14.6801907 C23.7147065,15.8087302 22.8018964,16.7216994 21.6733583,16.7298054 L6.26433297,16.8404844 C5.12437274,16.8486724 4.19361468,15.9311898 4.18542665,14.7912295 C4.18535652,14.7814658 4.18535566,14.7717017 4.18542409,14.761938 L4.257563,4.46866573 C4.26547221,3.34012625 5.1782823,2.42715697 6.30682039,2.41905098 Z" id="矩形" fill="url(#linearGradient-1)" opacity="0.486237282" transform="translate(13.990089, 9.574428) rotate(-15.000000) translate(-13.990089, -9.574428) "></path>
                <rect id="矩形" fill="url(#linearGradient-2)" x="0" y="5.9386663" width="26" height="20.0613337" rx="3"></rect>
                <path d="M17.1794445,10.9539997 L26,10.9539997 L26,10.9539997 L26,19.3128888 L17.1794445,19.3128888 C14.871201,19.3128888 13,17.4416877 13,15.1334442 C13,12.8252008 14.871201,10.9539997 17.1794445,10.9539997 Z" id="矩形" fill="#FFFFFF"></path>
                <ellipse id="椭圆形" fill="url(#linearGradient-3)" cx="17.0625" cy="15.1334442" rx="2.4375" ry="2.50766671"></ellipse>
            </g>
        </g>
    </g>
</svg>