<?xml version="1.0" encoding="UTF-8"?>
<svg width="22px" height="22px" viewBox="0 0 22 22" version="1.1" xmlns="http://www.w3.org/2000/svg" xmlns:xlink="http://www.w3.org/1999/xlink">
    <title>btn/wode/daishouhuo</title>
    <defs>
        <radialGradient cx="14.425617%" cy="-12.4511645%" fx="14.425617%" fy="-12.4511645%" r="172.38152%" gradientTransform="translate(0.144256,-0.124512),scale(0.500379,1.000000),rotate(35.899440),translate(-0.144256,0.124512)" id="radialGradient-1">
            <stop stop-color="#FFB093" offset="0%"></stop>
            <stop stop-color="#F30300" offset="100%"></stop>
        </radialGradient>
    </defs>
    <g id="btn/wode/daishouhuo" stroke="none" stroke-width="1" fill="none" fill-rule="evenodd">
        <g id="轮廓" transform="translate(1.450970, 2.437500)">
            <path d="M15.708121,0 C17.1706528,0 18.3665253,1.1417046 18.4531022,2.58247767 L18.458121,2.75 L18.458121,13.0625 C18.458121,14.3729059 17.541574,15.4692407 16.3145761,15.7454083 C16.0415543,16.7734302 15.1039618,17.53125 13.989371,17.53125 C12.8995268,17.53125 11.9789086,16.8067075 11.6829249,15.8130311 L6.67081708,15.8130311 C6.37483342,16.8067075 5.45421519,17.53125 4.364371,17.53125 C3.24013471,17.53125 2.2959734,16.7602573 2.03178436,15.7181693 C0.707621581,15.3617002 -0.172666978,14.0620004 0.0286357288,12.6691431 L1.02224512,5.79414313 C1.21775524,4.44136598 2.37713489,3.4375 3.74396707,3.4375 L6.0830018,3.437 L6.083121,2.75 C6.083121,1.28746816 7.2248256,0.0915957212 8.66559867,0.00501879394 L8.833121,0 L15.708121,0 Z M4.364371,14.09375 C3.79482735,14.09375 3.333121,14.5554564 3.333121,15.125 C3.333121,15.6945436 3.79482735,16.15625 4.364371,16.15625 C4.93391465,16.15625 5.395621,15.6945436 5.395621,15.125 C5.395621,14.5554564 4.93391465,14.09375 4.364371,14.09375 Z M13.989371,14.09375 C13.4198274,14.09375 12.958121,14.5554564 12.958121,15.125 C12.958121,15.6945436 13.4198274,16.15625 13.989371,16.15625 C14.4913358,16.15625 14.9095358,15.7976104 15.0017112,15.3225908 L15.0017112,14.9274092 C14.9095358,14.4523896 14.4913358,14.09375 13.989371,14.09375 Z M6.20504659,10.4372508 L1.7400018,10.437 L1.3894967,12.8658216 C1.30383138,13.4585586 1.6099116,14.0175546 2.11178275,14.2806452 C2.45409774,13.3669564 3.33353601,12.71875 4.364371,12.71875 C5.45421519,12.71875 6.37483342,13.4432925 6.67081708,14.4369689 L11.6829249,14.4369689 C11.9789086,13.4432925 12.8995268,12.71875 13.989371,12.71875 C15.0365143,12.71875 15.9274326,13.3876285 16.2581772,14.3214368 C16.7437157,14.1109515 17.083121,13.6263619 17.083121,13.0625 L17.0830018,12.375 L8.833121,12.375 C7.59708416,12.375 6.55150964,11.5595339 6.20504659,10.4372508 Z M15.708121,4.8125 L7.4580018,4.812 L7.458121,9.625 C7.458121,10.3397214 8.00343508,10.927078 8.70069932,10.9937056 L8.833121,11 L17.082346,10.9995 L17.0830018,6.179 L17.0768266,6.05507832 C17.010199,5.35781408 16.4228424,4.8125 15.708121,4.8125 Z M6.0830018,4.812 L3.74396707,4.8125 C3.06055098,4.8125 2.48086116,5.31443299 2.3831061,5.99082156 L1.9390018,9.062 L6.0830018,9.062 L6.0830018,4.812 Z M15.708121,1.375 L8.833121,1.375 C8.11839956,1.375 7.53104305,1.92031408 7.46441536,2.61757832 L7.458121,2.75 L7.4580018,3.437 L15.708121,3.4375 C16.2091211,3.4375 16.6788301,3.57147345 17.0833761,3.80554861 L17.083121,2.75 C17.083121,2.07994865 16.6038411,1.52183913 15.969403,1.39979331 L15.8405427,1.38129436 L15.708121,1.375 Z" id="形状结合" fill="#222222" fill-rule="nonzero"></path>
            <polygon id="矩形" fill="url(#radialGradient-1)" points="7.458121 3.398201 17.0758337 3.398201 17.0758337 8.210701 7.458121 8.210701"></polygon>
        </g>
    </g>
</svg>