<?xml version="1.0" encoding="UTF-8"?>
<svg width="22px" height="22px" viewBox="0 0 22 22" version="1.1" xmlns="http://www.w3.org/2000/svg" xmlns:xlink="http://www.w3.org/1999/xlink">
    <title>btn/wode/kefu</title>
    <g id="btn/wode/kefu" stroke="none" stroke-width="1" fill="none" fill-rule="evenodd">
        <g id="轮廓" fill="#222222">
            <path d="M10.8063084,0.921136084 C14.2874977,0.921136084 17.3103999,3.29418514 18.4446035,6.70504761 L18.6,6.7 C20.2016258,6.7 21.5,7.99837423 21.5,9.6 L21.5,9.6 L21.5,10.6 C21.5,12.2016258 20.2016258,13.5 18.6,13.5 L18.7471687,13.4959137 C17.7412523,16.3204701 15.826023,18.4100554 13.5182885,19.1642334 C13.275408,19.9943344 12.5084344,20.6 11.6,20.6 L10.2666667,20.6 C9.16209717,20.6 8.26666667,19.7045695 8.26666667,18.6 C8.26666667,17.4954305 9.16209717,16.6 10.2666667,16.6 L11.6,16.6 C12.2411846,16.6 12.8118975,16.9017255 13.1778996,17.3709374 C14.7991455,16.7490979 16.2028265,15.1843724 17.0047882,13.0209356 C16.2182147,12.5026637 15.7,11.6118496 15.7,10.6 L15.7,10.6 L15.7,9.6 C15.7,8.69603791 16.1135978,7.88867677 16.7618795,7.35683048 C15.8870887,4.61004237 13.5087983,2.72113608 10.8063084,2.72113608 C8.20726346,2.72113608 5.91082479,4.46792136 4.95836599,7.03838413 C5.87571821,7.52464069 6.5,8.48941593 6.5,9.6 L6.5,9.6 L6.5,10.6 C6.5,12.2016258 5.20162577,13.5 3.6,13.5 C1.99837423,13.5 0.7,12.2016258 0.7,10.6 L0.7,10.6 L0.7,9.6 C0.7,8.14813664 1.76691367,6.94546431 3.15948076,6.73324328 C4.28387894,3.31104075 7.3122485,0.921136084 10.8063084,0.921136084 Z M12.6,11.85 C13.0142136,11.85 13.35,12.1857864 13.35,12.6 C13.35,14.1187831 12.1187831,15.35 10.6,15.35 C9.08121694,15.35 7.85,14.1187831 7.85,12.6 C7.85,12.1857864 8.18578644,11.85 8.6,11.85 C8.97969577,11.85 9.29349096,12.1321539 9.34315338,12.4982294 L9.35,12.6 C9.35,13.2903559 9.90964406,13.85 10.6,13.85 C11.2472087,13.85 11.7795339,13.3581253 11.8435464,12.7278052 L11.85,12.6 C11.85,12.1857864 12.1857864,11.85 12.6,11.85 Z M3.6,8.5 C2.99248678,8.5 2.5,8.99248678 2.5,9.6 L2.5,9.6 L2.5,10.6 C2.5,11.2075132 2.99248678,11.7 3.6,11.7 C4.20751322,11.7 4.7,11.2075132 4.7,10.6 L4.7,10.6 L4.7,9.6 C4.7,8.99248678 4.20751322,8.5 3.6,8.5 Z M18.6,8.5 C17.9924868,8.5 17.5,8.99248678 17.5,9.6 L17.5,9.6 L17.5,10.6 C17.5,11.2075132 17.9924868,11.7 18.6,11.7 C19.2075132,11.7 19.7,11.2075132 19.7,10.6 L19.7,10.6 L19.7,9.6 C19.7,8.99248678 19.2075132,8.5 18.6,8.5 Z" id="形状结合"></path>
        </g>
    </g>
</svg>