<?xml version="1.0" encoding="UTF-8"?>
<svg width="22px" height="22px" viewBox="0 0 22 22" version="1.1" xmlns="http://www.w3.org/2000/svg" xmlns:xlink="http://www.w3.org/1999/xlink">
    <title>btn/wode/daichuxing</title>
    <defs>
        <radialGradient cx="16.9191447%" cy="16.9388061%" fx="16.9191447%" fy="16.9388061%" r="96.0080418%" id="radialGradient-1">
            <stop stop-color="#93BDFF" offset="0%"></stop>
            <stop stop-color="#313BDE" offset="100%"></stop>
        </radialGradient>
    </defs>
    <g id="btn/wode/daichuxing" stroke="none" stroke-width="1" fill="none" fill-rule="evenodd">
        <g id="轮廓" transform="translate(2.431192, 1.969320)">
            <path d="M8.25,5.5067062e-13 C9.3373106,5.5067062e-13 10.2281078,0.841373972 10.3068428,1.90857321 L10.3125,2.0625 L10.312,2.75 L11,2.75 C12.4625318,2.75 13.6584043,3.8917046 13.7449812,5.33247767 L13.75,5.5 L13.7506223,7.07214706 C13.275427,7.09893866 12.8150141,7.18102851 12.3757157,7.31208442 L12.375,5.5 C12.375,4.74060847 11.7593915,4.125 11,4.125 L2.75,4.125 C2.03527856,4.125 1.44792205,4.67031408 1.38129436,5.36757832 L1.375,5.5 L1.375,15.125 C1.375,15.8397214 1.92031408,16.427078 2.61757832,16.4937056 L2.75,16.5 L9.17592958,16.5007021 C9.54489324,17.0274694 9.99633816,17.4922289 10.5115183,17.8762346 L10.293,17.875 L10.2875037,18.3206046 C10.2827128,18.7002702 9.97104927,19.0041661 9.59138373,18.9993752 C9.24623324,18.9950198 8.96370225,18.7370507 8.91878494,18.4049349 L8.91261315,18.3032552 L8.917,17.875 L4.793,17.875 L4.78750369,18.3206046 C4.78271279,18.7002702 4.47104927,19.0041661 4.09138373,18.9993752 C3.74623324,18.9950198 3.46370225,18.7370507 3.41878494,18.4049349 L3.41261315,18.3032552 L3.417,17.875 L2.75,17.875 C1.28746816,17.875 0.0915957212,16.7332954 0.00501879394,15.2925223 L0,15.125 L0,5.5 C0,4.03746816 1.1417046,2.84159572 2.58247767,2.75501879 L2.75,2.75 L3.437,2.75 L3.4375,2.0625 C3.4375,0.975189399 4.27887397,0.0843922181 5.34607321,0.0056571657 L5.5,5.5067062e-13 L8.25,5.5067062e-13 Z M8.25,1.375 L5.5,1.375 C5.15482203,1.375 4.86905855,1.62938366 4.81995427,1.96090629 L4.8125,2.0625 L4.812,2.75 L8.937,2.75 L8.9375,2.0625 C8.9375,1.71732203 8.68311634,1.43155855 8.35159371,1.38245427 L8.25,1.375 Z" id="形状结合" fill="#222222" fill-rule="nonzero"></path>
            <g id="时间" transform="translate(8.093750, 7.062500)">
                <circle id="椭圆形" fill="url(#radialGradient-1)" cx="6" cy="6" r="4.8125"></circle>
                <path d="M5.93287351,3.72561692 C6.31573341,3.72561692 6.63214356,4.01012208 6.68221984,4.37924827 L6.68912351,4.48186692 L6.6885,5.4845 L8.17758307,5.50516628 C8.56040916,5.51025396 8.87301069,5.79893866 8.91817737,6.1686977 L8.92371677,6.27139902 C8.91862909,6.65422511 8.62994439,6.96682665 8.26018535,7.01199333 L8.15748402,7.01753273 L5.92282399,6.98783455 C5.54359029,6.98279461 5.23260269,6.69925219 5.18340499,6.33334033 L5.17662351,6.23165133 L5.17662351,4.48186692 C5.17662351,4.06420157 5.51520817,3.72561692 5.93287351,3.72561692 Z" id="路径-3" fill="#FFFFFF" fill-rule="nonzero"></path>
            </g>
        </g>
    </g>
</svg>