<?xml version="1.0" encoding="UTF-8"?>
<svg width="22px" height="22px" viewBox="0 0 22 22" version="1.1" xmlns="http://www.w3.org/2000/svg" xmlns:xlink="http://www.w3.org/1999/xlink">
    <title>btn/wode/dingdan2</title>
    <defs>
        <radialGradient cx="16.9191447%" cy="16.9388061%" fx="16.9191447%" fy="16.9388061%" r="96.0080418%" id="radialGradient-1">
            <stop stop-color="#93BDFF" offset="0%"></stop>
            <stop stop-color="#313BDE" offset="100%"></stop>
        </radialGradient>
    </defs>
    <g id="btn/wode/dingdan2" stroke="none" stroke-width="1" fill="none" fill-rule="evenodd">
        <g id="线稿" transform="translate(2.937500, 2.136873)">
            <path d="M13.0625,0 C14.5250318,0 15.7209043,1.1417046 15.8074812,2.58247767 L15.8125,2.75 L15.812,9.781 L14.437,9.781 L14.4375,2.75 C14.4375,2.07994865 13.9582201,1.52183913 13.323782,1.39979331 L13.1949217,1.38129436 L13.0625,1.375 L2.75,1.375 C2.03527856,1.375 1.44792205,1.92031408 1.38129436,2.61757832 L1.375,2.75 L1.375,15.125 C1.375,15.8397214 1.92031408,16.427078 2.61757832,16.4937056 L2.75,16.5 L7.8805,16.4995 L8.062,16.314 L8.062,17.875 L2.75,17.875 C1.28746816,17.875 0.0915957212,16.7332954 0.00501879394,15.2925223 L0,15.125 L0,2.75 C0,1.28746816 1.1417046,0.0915957212 2.58247767,0.00501879394 L2.75,0 L13.0625,0 Z M8.590041,9.20687665 C8.96973124,9.20483845 9.27919157,9.51097763 9.28125022,9.89066787 L9.2761135,9.96348627 C8.96704925,10.1032396 8.69858613,10.3169556 8.49329807,10.5820602 L4.52889556,10.6038269 C4.14920532,10.6058651 3.83974499,10.2997259 3.83768635,9.9200357 C3.83583437,9.57486275 4.08867267,9.28773105 4.41992555,9.23683895 L4.52147757,9.2288367 L8.590041,9.20687665 Z M10.681903,4.4163267 C11.0615988,4.4163267 11.369403,4.72413093 11.369403,5.1038267 C11.369403,5.44900467 11.1150193,5.73476815 10.7834967,5.78387243 L10.681903,5.7913267 L4.52518657,5.7913267 C4.1454908,5.7913267 3.83768657,5.48352247 3.83768657,5.1038267 C3.83768657,4.75864873 4.09207023,4.47288525 4.42359286,4.42378097 L4.52518657,4.4163267 L10.681903,4.4163267 Z" id="形状结合" fill="#222222" fill-rule="nonzero"></path>
            <path d="M11,10.65625 L15.5277282,10.65625 C15.9074239,10.65625 16.2152282,10.9640542 16.2152282,11.34375 C16.2152282,11.5260863 16.1427953,11.7009547 16.0138641,11.8298859 L10.1111359,17.7326141 C9.84265046,18.0010995 9.40734954,18.0010995 9.13886409,17.7326141 C9.00993283,17.6036828 8.9375,17.4288145 8.9375,17.2464782 L8.9375,12.71875 C8.9375,11.5796627 9.8609127,10.65625 11,10.65625 Z" id="矩形" fill="url(#radialGradient-1)"></path>
        </g>
    </g>
</svg>