<?xml version="1.0" encoding="UTF-8"?>
<svg width="22px" height="22px" viewBox="0 0 22 22" version="1.1" xmlns="http://www.w3.org/2000/svg" xmlns:xlink="http://www.w3.org/1999/xlink">
    <title>btn/wode/xczs</title>
    <defs>
        <radialGradient cx="16.9191447%" cy="16.9388061%" fx="16.9191447%" fy="16.9388061%" r="96.0080418%" id="radialGradient-1">
            <stop stop-color="#93BDFF" offset="0%"></stop>
            <stop stop-color="#313BDE" offset="100%"></stop>
        </radialGradient>
    </defs>
    <g id="btn/wode/xczs" stroke="none" stroke-width="1" fill="none" fill-rule="evenodd">
        <g id="轮廓" transform="translate(2.406250, 1.718750)">
            <path d="M0.6875,-2.38031816e-13 C1.03267797,-2.38031816e-13 1.31844145,0.254383665 1.36754573,0.585906289 L1.375,0.6875 L11.6875,0.6875 C12.7748106,0.6875 13.6656078,1.52887397 13.7443428,2.59607321 L13.75,2.75 L13.75,9.625 C13.75,10.6044425 13.0672846,11.4244282 12.151777,11.6350341 C12.2328464,11.8195621 12.3799422,11.9374848 12.5642394,11.9658736 L12.6527161,11.9725332 L15.125,11.9725332 C15.470178,11.9725332 15.7559414,11.7181495 15.8050457,11.3866269 L15.8125,11.2850332 L15.8125,4.8125 C15.8125,4.46732203 15.5581163,4.18155855 15.2265937,4.13245427 L15.125,4.125 L13.7685263,4.125 L13.7685263,2.75 L15.125,2.75 C16.2123106,2.75 17.1031078,3.59137397 17.1818428,4.65857321 L17.1875,4.8125 L17.1875,11.2850332 C17.1875,12.3723438 16.346126,13.2631409 15.2789268,13.341876 L15.125,13.3475332 L12.6527161,13.3475332 C11.6560578,13.3475332 10.9115269,12.6364088 10.7426232,11.6883067 L1.375,11.6875 L1.375,17.875 C1.375,18.2546958 1.06719577,18.5625 0.6875,18.5625 C0.342322031,18.5625 0.0565585512,18.3081163 0.00745426524,17.9765937 L0,17.875 L0,0.6875 C0,0.307804234 0.307804234,-2.38031816e-13 0.6875,-2.38031816e-13 Z M11.6875,2.0625 L1.375,2.0625 L1.375,10.3125 L11.6875,10.3125 C12.032678,10.3125 12.3184414,10.0581163 12.3675457,9.72659371 L12.375,9.625 L12.375,2.75 C12.375,2.40482203 12.1206163,2.11905855 11.7890937,2.06995427 L11.6875,2.0625 Z" id="形状结合" fill="#222222" fill-rule="nonzero"></path>
            <path d="M6.55507798,8.24631796 L5.76371851,8.66236025 C5.46081782,8.82160457 5.08617528,8.70514807 4.92693097,8.40224739 C4.86351905,8.28163075 4.84163717,8.14347399 4.86467289,8.00916538 L5.0158091,7.12797367 C5.05406019,6.90495274 4.9801206,6.67739011 4.81808642,6.51944581 L4.17786316,5.89538237 C3.93281136,5.6565159 3.92779716,5.26422263 4.16666363,5.01917083 C4.26178151,4.92158992 4.38641452,4.85808623 4.52126803,4.83849087 L5.40603481,4.70992673 C5.62996055,4.67738841 5.82353689,4.53674697 5.92367952,4.33383583 L6.31935925,3.53210112 C6.4708096,3.22522921 6.84235319,3.09923514 7.1492251,3.25068548 C7.27142311,3.3109938 7.37033243,3.40990312 7.43064075,3.53210112 L7.82632048,4.33383583 C7.92646311,4.53674697 8.12003945,4.67738841 8.34396519,4.70992673 L9.22873197,4.83849087 C9.56738523,4.88770007 9.802026,5.20212471 9.7528168,5.54077797 C9.73322144,5.67563148 9.66971775,5.80026449 9.57213684,5.89538237 L8.93191358,6.51944581 C8.7698794,6.67739011 8.69593981,6.90495274 8.7341909,7.12797367 L8.88532711,8.00916538 C8.94317599,8.34645025 8.71664836,8.66676945 8.3793635,8.72461833 C8.24505489,8.74765406 8.10689813,8.72577218 7.98628149,8.66236025 L7.19492202,8.24631796 C6.99463676,8.14102177 6.75536324,8.14102177 6.55507798,8.24631796 Z" id="星形" fill="url(#radialGradient-1)"></path>
        </g>
    </g>
</svg>