<?xml version="1.0" encoding="UTF-8"?>
<svg width="32px" height="32px" viewBox="0 0 32 32" version="1.1" xmlns="http://www.w3.org/2000/svg" xmlns:xlink="http://www.w3.org/1999/xlink">
    <title>changyongchengke</title>
    <defs>
        <radialGradient cx="16.9191447%" cy="16.9388061%" fx="16.9191447%" fy="16.9388061%" r="96.0080418%" id="radialGradient-1">
            <stop stop-color="#93BDFF" offset="0%"></stop>
            <stop stop-color="#313BDE" offset="100%"></stop>
        </radialGradient>
    </defs>
    <g id="页面-1" stroke="none" stroke-width="1" fill="none" fill-rule="evenodd">
        <g id="05商云_物流信息默认备份" transform="translate(-48.000000, -504.000000)">
            <g id="功能入口备份" transform="translate(15.000000, 386.000000)">
                <g id="btn/wode/daifukuan2备份-10" transform="translate(32.000000, 118.000000)">
                    <g id="线稿" transform="translate(1.000000, 0.000000)">
                        <g transform="translate(2.000000, 3.000000)" stroke="#222222" stroke-width="2">
                            <circle id="椭圆形" fill="#FFFFFF" cx="11" cy="6" r="6"></circle>
                            <path d="M11,25.3511149 C17.0751322,25.3511149 22,26.4756196 22,21.1278617 C22,15.7801039 17.0751322,12.4496716 11,12.4496716 C4.92486775,12.4496716 0,15.7801039 0,21.1278617 C0,26.4756196 4.92486775,25.3511149 11,25.3511149 Z" id="椭圆形" fill="#FFFFFF"></path>
                            <path d="M2.58346053,25.0862355 C3.57477071,24.4800171 8.11568855,22.9350755 11.4477612,20.2039801 C14.0520224,18.069427 15.6165124,14.7209467 16.1575456,13.7562189" id="路径"></path>
                        </g>
                        <g id="时间" transform="translate(16.036279, 15.864466)">
                            <circle id="椭圆形" stroke="#FFFFFF" stroke-width="2" fill="url(#radialGradient-1)" cx="7" cy="7" r="8"></circle>
                            <circle id="椭圆形" fill="#FFFFFF" cx="4.5" cy="7" r="1.5"></circle>
                            <circle id="椭圆形备份-2" fill="#FFFFFF" cx="9.5" cy="7" r="1.5"></circle>
                        </g>
                    </g>
                </g>
            </g>
        </g>
    </g>
</svg>