<?xml version="1.0" encoding="UTF-8"?>
<svg width="24px" height="18px" viewBox="0 0 24 18" version="1.1" xmlns="http://www.w3.org/2000/svg" xmlns:xlink="http://www.w3.org/1999/xlink">
    <title>bg_bnj_time1</title>
    <g id="确定稿" stroke="none" stroke-width="1" fill="none" fill-rule="evenodd">
        <g id="03.7商品详情限时秒杀备份-3" transform="translate(-258.000000, -398.000000)" fill="#151921">
            <g id="金额" transform="translate(0.000000, 368.000000)">
                <g id="倒计时" transform="translate(258.000000, 7.000000)">
                    <g id="编组-4" transform="translate(-0.000000, 20.000000)">
                        <g id="编组-10" transform="translate(-0.000000, 0.000000)">
                            <g id="bg_miaosha_shijian" transform="translate(-0.000000, 0.000000)">
                                <path d="M-4.54747351e-13,6 C-4.54950257e-13,4.34314575 1.34314575,3 3,3 L12,3 L12,5 L13,5 L13,3 L21,3 C22.6568542,3 24,4.34314575 24,6 L24,11 L21,11 L21,12 L24,12 L24,18 C24,19.6568542 22.6568542,21 21,21 L13,21 L13,19 L12,19 L12,21 L3,21 C1.34314575,21 -4.54544445e-13,19.6568542 -4.54747351e-13,18 L5.91171556e-12,12 L3,12 L3,11 L5.91171556e-12,11 L-4.54747351e-13,6 Z" id="bg_bnj_time1"></path>
                            </g>
                        </g>
                    </g>
                </g>
            </g>
        </g>
    </g>
</svg>