<?xml version="1.0" encoding="UTF-8"?>
<svg width="3px" height="12px" viewBox="0 0 3 12" version="1.1" xmlns="http://www.w3.org/2000/svg" xmlns:xlink="http://www.w3.org/1999/xlink">
    <title>bg_bnj_time2</title>
    <g id="确定稿" stroke="none" stroke-width="1" fill="none" fill-rule="evenodd">
        <g id="03.7商品详情限时秒杀备份-3" transform="translate(-288.000000, -401.000000)" fill="#151921">
            <g id="金额" transform="translate(0.000000, 368.000000)">
                <g id="倒计时" transform="translate(258.000000, 7.000000)">
                    <g id="编组-4" transform="translate(-0.000000, 20.000000)">
                        <path d="M31.5,15 C32.3284271,15 33,15.6715729 33,16.5 C33,17.3284271 32.3284271,18 31.5,18 C30.6715729,18 30,17.3284271 30,16.5 C30,15.6715729 30.6715729,15 31.5,15 Z M31.5,6 C32.3284271,6 33,6.67157288 33,7.5 C33,8.32842712 32.3284271,9 31.5,9 C30.6715729,9 30,8.32842712 30,7.5 C30,6.67157288 30.6715729,6 31.5,6 Z" id="bg_bnj_time2"></path>
                    </g>
                </g>
            </g>
        </g>
    </g>
</svg>