<?xml version="1.0" encoding="UTF-8"?>
<svg width="40px" height="38px" viewBox="0 0 40 38" version="1.1" xmlns="http://www.w3.org/2000/svg" xmlns:xlink="http://www.w3.org/1999/xlink">
    <title>icon_home_renqi</title>
    <g id="确定稿" stroke="none" stroke-width="1" fill="none" fill-rule="evenodd">
        <g id="01巨拾惠首页" transform="translate(-163.000000, -238.000000)">
            <g id="内容" transform="translate(40.000000, 145.000000)">
                <g id="一起买" transform="translate(14.000000, 13.000000)">
                    <g id="icon_home_renqi" transform="translate(109.000000, 80.000000)">
                        <polygon id="蒙版" fill="#FC8848" points="0 0 23.1319817 0 40 15.5051264 40 38"></polygon>
                        <path d="M15.006464,18.4717225 C17.5899606,16.7986008 19.287687,14.6825941 20.099643,12.1237022 C21.0346228,14.7564083 22.6831397,16.872415 25.0451937,18.4471177 L25.8202427,17.4260214 C23.0153035,15.7036904 21.243763,13.2063103 20.5302258,9.93388121 C20.5794353,9.17113459 20.6163424,8.26075959 20.6163424,7.17815148 L19.4353153,7.17815148 C19.4353153,7.64564134 19.423013,8.28536432 19.423013,9.10962277 C19.3245941,12.6404015 17.6145653,15.4084336 14.2929268,17.4260214 L15.006464,18.4717225 Z M27.4687596,11.9391667 C28.1945991,11.2133272 28.8466245,10.3398593 29.437138,9.31876297 L37.0030924,9.31876297 L37.0030924,8.1869454 L30.0153491,8.1869454 C30.1383728,7.91629337 30.2736988,7.62103661 30.3967225,7.31347749 L29.2156954,7.05512783 C28.526763,8.74055182 27.6902022,10.0692072 26.7183154,11.0287917 L27.4687596,11.9391667 Z M36.4371836,11.2256295 L36.4371836,10.1553238 L29.1787883,10.1553238 L29.1787883,11.2256295 L36.4371836,11.2256295 Z M36.6463238,18.4963272 C36.9538829,18.4963272 37.2368373,18.3117917 37.4828846,17.9550231 C37.7289319,17.5859522 37.9503745,16.8601127 38.1595147,15.7652022 L37.1876279,15.2977123 C37.089209,15.7775045 37.0030924,16.1957849 36.9169759,16.5525535 C36.7939522,16.9708339 36.6709286,17.1922765 36.5356025,17.1922765 C36.2649505,17.1922765 36.080415,16.9831363 35.9696938,16.5894606 C35.8319073,16.2105478 35.7691379,15.3815324 35.761381,14.1124168 L35.7605536,12.049888 L27.8255282,12.049888 L27.8255282,13.1571008 L34.6902478,13.1571008 L34.6902478,13.8337309 C34.6902478,15.7036904 34.8501786,16.9585316 35.17004,17.5736498 C35.4899015,18.1764657 35.9819961,18.4840248 36.6463238,18.4963272 Z" id="人气" fill="#FFFFFF" fill-rule="nonzero" transform="translate(26.226221, 12.775728) rotate(43.000000) translate(-26.226221, -12.775728) "></path>
                    </g>
                </g>
            </g>
        </g>
    </g>
</svg>