<svg xmlns="http://www.w3.org/2000/svg" width="100" height="100" viewBox="0 0 100 100">
  <defs>
    <style>
      .cls-1 {
        fill: #f83939;
        fill-rule: evenodd;
      }
    </style>
  </defs>
  <path id="icon_work_refuse" class="cls-1" d="M2727.5,259h13a2.5,2.5,0,0,0,0-5h-13A2.5,2.5,0,0,0,2727.5,259Zm6.5-31h0a50,50,0,0,0-50,50h0a50,50,0,0,0,50,50h0a50,50,0,0,0,50-50h0A50,50,0,0,0,2734,228Zm5,76h-22a6.005,6.005,0,0,1-6-6V261a6.005,6.005,0,0,1,6-6h4.18a6.506,6.506,0,0,1,6.32-5h13a6.506,6.506,0,0,1,6.32,5H2751a6.005,6.005,0,0,1,6,6v12a2,2,0,0,1-4,0V261a2,2,0,0,0-2-2h-4.5a6.509,6.509,0,0,1-6,4h-13a6.509,6.509,0,0,1-6-4H2717a2,2,0,0,0-2,2v37a2,2,0,0,0,2,2h22A2,2,0,0,1,2739,304Zm-16-30a2,2,0,0,1,0-4h22a2,2,0,0,1,0,4h-22Zm15,13a2,2,0,0,1-2,2h-13a2,2,0,0,1,0-4h13A2,2,0,0,1,2738,287Zm16,19a14,14,0,1,1,14-14A14,14,0,0,1,2754,306Zm6.51-20.01h0a2,2,0,0,0-2.83,0l-3.18,3.182-3.18-3.182a2,2,0,0,0-2.83,0h0a2,2,0,0,0,0,2.828l3.18,3.182-3.18,3.182a2,2,0,0,0,0,2.828h0a2,2,0,0,0,2.83,0l3.18-3.182,3.18,3.182a2,2,0,0,0,2.83,0h0a2,2,0,0,0,0-2.828L2757.33,292l3.18-3.182A2,2,0,0,0,2760.51,285.99Z" transform="translate(-2684 -228)"/>
</svg>
