<svg xmlns="http://www.w3.org/2000/svg" width="100" height="100" viewBox="0 0 100 100">
  <defs>
    <style>
      .cls-1 {
        fill: #c2c2c2;
        fill-rule: evenodd;
      }
    </style>
  </defs>
  <path id="icon_work_repeal" class="cls-1" d="M3578.5,259h13a2.5,2.5,0,0,0,0-5h-13A2.5,2.5,0,0,0,3578.5,259Zm6.5-31h0a50,50,0,0,0-50,50h0a50,50,0,0,0,50,50h0a50,50,0,0,0,50-50h0A50,50,0,0,0,3585,228Zm5,76h-22a6.005,6.005,0,0,1-6-6V261a6.005,6.005,0,0,1,6-6h4.18a6.506,6.506,0,0,1,6.32-5h13a6.506,6.506,0,0,1,6.32,5H3602a6.005,6.005,0,0,1,6,6v12a2,2,0,0,1-4,0V261a2,2,0,0,0-2-2h-4.5a6.509,6.509,0,0,1-6,4h-13a6.509,6.509,0,0,1-6-4H3568a2,2,0,0,0-2,2v37a2,2,0,0,0,2,2h22A2,2,0,0,1,3590,304Zm-16-30a2,2,0,0,1,0-4h22a2,2,0,0,1,0,4h-22Zm15,13a2,2,0,0,1-2,2h-13a2,2,0,0,1,0-4h13A2,2,0,0,1,3589,287Zm16,19a14,14,0,1,1,14-14A14,14,0,0,1,3605,306Zm1.79-6a0.485,0.485,0,0,1-.3-0.1l-0.18-.12-0.03-.248a0.517,0.517,0,0,1,.33-0.521,3.716,3.716,0,0,0,2.45-3.538,3.939,3.939,0,0,0-3.87-3.522v1a0.936,0.936,0,0,1-.51.825,0.96,0.96,0,0,1-.98-0.056l-5.28-3.506a0.938,0.938,0,0,1-.42-0.769,0.926,0.926,0,0,1,.42-0.768l5.29-3.514a0.972,0.972,0,0,1,.98-0.056,0.936,0.936,0,0,1,.51.824v1.009a6.947,6.947,0,0,1,6.8,6.852,6.747,6.747,0,0,1-5.06,6.18A0.49,0.49,0,0,1,3606.79,300Z" transform="translate(-3535 -228)"/>
</svg>
