<?xml version="1.0" encoding="UTF-8"?>
<svg width="22px" height="22px" viewBox="0 0 22 22" version="1.1" xmlns="http://www.w3.org/2000/svg" xmlns:xlink="http://www.w3.org/1999/xlink">
    <title>icon/common/yiguoqi</title>
    <g id="icon/common/yiguoqi" stroke="none" stroke-width="1" fill="none" fill-rule="evenodd">
        <g transform="translate(-0.000000, -0.000000)">
            <rect id="矩形" x="0" y="4.03588274e-12" width="22" height="22"></rect>
            <g id="轮廓" transform="translate(11.000000, 11.000000) rotate(45.000000) translate(-11.000000, -11.000000) translate(2.772867, 3.670784)" fill="#666666">
                <path d="M15.3967866,6.83559045 C15.4445544,7.53679917 15.3909708,8.24097725 15.2373604,8.93576291 C15.0320911,9.8625369 14.6580822,10.7285129 14.128062,11.507367 C13.5780695,12.3134506 12.8815655,12.9903991 12.060178,13.5204175 C11.2387698,14.0503516 10.3391283,14.3992186 9.38739341,14.5595634 C8.46817291,14.714454 7.53835573,14.6873086 6.62561327,14.4784433 C5.94229305,14.3226473 5.29310159,14.0711581 4.69006363,13.7291985 L4.69006363,13.7291985 L5.18316105,13.4119836 C7.22039327,14.4522036 9.72930188,14.4156026 11.79226,13.0864713 C13.8551975,11.7592563 14.9625504,9.46864532 14.9037099,7.15181564 L14.9037099,7.15181564 Z M12.8203655,0.720857472 C13.1651095,0.500725485 13.6213255,0.604210474 13.8396129,0.953982997 L13.8396129,0.953982997 L16.3397668,4.96511086 C16.5582199,5.3145675 16.4545711,5.7781019 16.1098479,6.00038193 L16.1098479,6.00038193 L3.63180311,14.0315878 C3.28794916,14.2518041 2.83181594,14.1484033 2.61344571,13.7995363 L2.61344571,13.7995363 L0.113291776,9.78783986 C-0.102656951,9.43895182 -0.00103645566,8.97482776 0.3427968,8.75263197 L0.3427968,8.75263197 Z M8.85931868,12.221485 L8.78630094,12.7637598 L9.18415242,13.1330332 L8.65404942,13.2294633 L8.4313122,13.7291985 L8.17591568,13.2458263 L7.63958298,13.1844598 L8.01398518,12.7880411 L7.90605221,12.2526737 L8.39047773,12.4912325 L8.85931868,12.221485 Z M13.4150835,1.22817399 C13.3465155,1.11628638 13.201639,1.08313917 13.0912018,1.15339272 L13.0912018,1.15339272 L0.612680967,9.18518827 C0.50232649,9.25691596 0.469729284,9.40342493 0.539352776,9.51571267 L0.539352776,9.51571267 L3.03942392,13.5274091 C3.10896463,13.6392125 3.25342717,13.6723597 3.36378164,13.6016007 L3.36378164,13.6016007 L15.8418471,5.56932083 C15.9503389,5.49710878 15.9833293,5.34969427 15.9162101,5.23978622 L15.9162101,5.23978622 Z M11.1619646,11.2560674 L11.3653091,11.7632154 L11.8899068,11.8800098 L11.4814793,12.2338257 L11.5354768,12.7791541 L11.0768393,12.4891687 L10.5837626,12.7083951 L10.7111711,12.1769869 L10.3531814,11.7682275 L10.8891208,11.7286572 L11.1619646,11.2560674 Z M12.3991683,8.7650569 C12.077232,9.74085675 11.4416176,10.5702319 10.5744698,11.1278167 C9.70448661,11.6865388 8.69730539,11.9176848 7.69157294,11.7969312 L7.69157294,11.7969312 L8.45265043,11.3069675 C9.09076919,11.2674183 9.72582485,11.0694827 10.3036336,10.6973242 C10.8808628,10.3262398 11.3292555,9.82543056 11.638484,9.25592618 L11.638484,9.25592618 Z M5.41595934,7.42792566 L6.30236739,8.84647507 L5.9470136,9.06852476 L5.8628496,8.93383421 L4.5617962,9.74682261 L4.94322027,10.3572287 C5.05424512,10.5349056 5.12194524,10.5284644 5.43717845,10.3314848 L5.43717845,10.3314848 L6.37428078,9.7459183 C6.66945369,9.5614738 6.66874698,9.45831256 6.45207845,9.01591703 C6.57494064,9.01485398 6.76550595,8.97547005 6.87834249,8.93285503 C7.14908607,9.51280386 7.12148258,9.74921229 6.59991492,10.0751239 L6.59991492,10.0751239 L5.65134956,10.6678534 C5.09825857,11.013463 4.86113146,11.0102169 4.59073224,10.5774877 L4.59073224,10.5774877 L3.75625517,9.24204521 L4.1087432,9.02178624 L4.35228157,9.41152911 L5.65333497,8.59854072 L5.2719109,7.98813461 L3.50373921,9.0930109 L3.29243386,8.75485165 L5.41595934,7.42792566 Z M12.6797733,9.24941888 L13.106331,9.58299686 L13.61938,9.41675541 L13.4369805,9.92990533 L13.753101,10.3741916 L13.21474,10.3589026 L12.8966947,10.8008092 L12.745423,10.275824 L12.232374,10.1036439 L12.6778485,9.79622143 L12.6797733,9.24941888 Z M9.9561259,7.42405385 C9.97581487,7.55121617 10.0295246,7.76470754 10.0864684,7.86859046 C9.89768482,8.00647915 9.44131087,8.31556159 9.14900372,8.49821537 C8.78505266,8.72563723 8.51997469,8.84345964 8.23914554,8.85955219 C8.06147763,8.87493803 7.90387301,8.84590914 7.84082637,8.88530506 C7.75771943,8.93723603 7.75160461,9.20803354 7.75695582,9.43978848 L7.75695582,9.43978848 L7.29955476,9.24345272 C7.34649987,9.01886666 7.41887444,8.82222247 7.50807822,8.690772 L7.50807822,8.690772 L7.11232837,8.05743984 L6.77990063,8.26516374 L6.58113034,7.94706479 L7.24885157,7.52982625 L7.86306967,8.51278069 C7.92682901,8.51278668 8.00276706,8.51315201 8.09195886,8.50922021 C8.35666851,8.49921552 8.63392819,8.34987279 8.94916139,8.15289322 C9.24720005,7.966658 9.69820183,7.64897829 9.9561259,7.42405385 Z M8.17390998,5.50931533 L8.4675886,5.97929938 L8.82007664,5.75904041 L9.02063765,6.08000512 L8.66814962,6.30026409 L9.25550687,7.24023219 C9.37906678,7.43796938 9.39338358,7.55653443 9.29665756,7.68870059 C9.20745378,7.82015107 9.01508876,7.95230825 8.74857342,8.11884552 C8.67156932,8.02749766 8.52507737,7.90784559 8.41726564,7.84371793 C8.60604622,7.7377089 8.81238068,7.60877683 8.86969581,7.57296236 C8.92808597,7.53249141 8.93740192,7.50276181 8.90695963,7.45404395 L8.90695963,7.45404395 L8.3213931,6.51694162 L7.25819748,7.18129997 L7.05763647,6.86033526 L8.12083208,6.1959769 L7.82715346,5.72599286 L8.17390998,5.50931533 Z M7.02288525,0.0984523356 C7.94210575,-0.0554484169 8.87192293,-0.0292928703 9.78476887,0.179572437 C10.4679856,0.335452755 11.1167838,0.586352258 11.719739,0.929217358 L11.719739,0.929217358 L11.2276143,1.24592691 C9.18996818,0.205727983 6.6814735,0.243402921 4.61812212,1.57103909 C2.55516398,2.89867526 1.44772824,5.18926516 1.50416797,7.5061159 L1.50416797,7.5061159 L1.01051175,7.82242532 C0.962888787,7.12113236 1.01730025,6.41745971 1.17051747,5.72324265 C1.37626275,4.79598429 1.75016822,3.9294186 2.2822374,3.15155433 C2.83181594,2.34496529 3.52823713,1.66801678 4.34962463,1.13808267 C5.17150884,0.60806431 6.07117102,0.258712971 7.02288525,0.0984523356 Z M7.68768662,7.08426853 C7.93483639,7.16094623 8.26329339,7.2784662 8.44309938,7.38128607 L8.44309938,7.38128607 L8.26181708,7.74161675 C8.09060835,7.63342471 7.76358573,7.49906954 7.5103481,7.40627233 L7.5103481,7.40627233 Z M10.7449366,6.8116085 C10.7753579,7.08348403 10.7459547,7.41266571 10.6789493,7.64978683 C10.5782975,7.62900186 10.3855881,7.61393941 10.2795611,7.61643684 C10.3587422,7.41155473 10.394946,7.13789447 10.3677437,6.91580883 L10.3677437,6.91580883 Z M6.27963603,6.78862246 C6.52678879,6.83342049 6.84235438,6.91117922 7.01499748,7.00253606 L7.01499748,7.00253606 L6.85484751,7.37755486 C6.68972665,7.28548233 6.37487974,7.18336617 6.12701129,7.1310459 L6.12701129,7.1310459 Z M10.0054847,4.38474408 L10.1953013,4.68851425 L10.3901728,4.56674507 L10.576408,4.86478373 L10.3815366,4.98655292 L11.0458949,6.04974853 L11.220706,5.94051441 L11.4069413,6.23855307 L9.99985489,7.11779823 L9.81361966,6.81975956 L10.0715377,6.65859446 L9.40717938,5.59539885 L9.18365038,5.73507527 L8.99741516,5.4370366 L9.22094416,5.29736018 L9.03112748,4.99359001 L9.33776342,4.80198261 L9.52758009,5.10575279 L9.88293388,4.8837031 L9.69311721,4.57993292 L10.0054847,4.38474408 Z M11.4154248,3.63122687 L12.7727931,5.8034702 C12.8784458,5.97254983 12.9024349,6.08108623 12.8361571,6.19821092 C12.7698794,6.31533561 12.629098,6.41525977 12.4152413,6.54490754 C12.3482659,6.46323198 12.2121619,6.3410735 12.1154539,6.28196166 C12.2440536,6.21355783 12.3798191,6.12473735 12.4199397,6.09966722 C12.4629261,6.07280637 12.4683012,6.04952398 12.4396497,6.00367187 L12.4396497,6.00367187 L12.0868772,5.43911787 L11.6512822,5.71130781 C11.8310642,6.06916502 11.9832607,6.47215265 11.989675,6.82676979 C11.8976204,6.80061265 11.6927323,6.78519086 11.6003154,6.8030921 C11.5981684,6.78052539 11.6006778,6.75903372 11.5985307,6.73646701 L11.5985307,6.73646701 L11.4448369,7.0197876 C11.3176836,6.94383756 11.0619395,6.84065236 10.8678018,6.77866578 L10.8678018,6.77866578 L11.0379744,6.47707862 C11.2127706,6.52724283 11.4459509,6.60069544 11.5910145,6.67342337 C11.5333879,6.21134187 11.2450844,5.71807542 11.0122904,5.34552709 L11.0122904,5.34552709 L10.3550949,4.2937945 L11.4154248,3.63122687 Z M5.83582954,3.5301148 C6.70531602,2.97147697 7.71291118,2.74081538 8.71920244,2.86156892 L8.71920244,2.86156892 L7.95762823,3.35144841 C7.31950947,3.39101868 6.68397779,3.58901743 6.10616904,3.96018612 C5.52902257,4.33226035 5.08104383,4.83102683 4.77173257,5.40307938 L4.77173257,5.40307938 L4.01063438,5.89295887 C4.33304662,4.91715902 4.96866109,4.08826827 5.83582954,3.5301148 Z M3.61861935,3.92596489 L3.76600012,4.45343508 L4.27621365,4.62915318 L3.82873163,4.93499618 L3.82250194,5.48230415 L3.39838642,5.14329289 L2.88428192,5.30608063 L3.07015843,4.79145656 L2.75840497,4.34510647 L3.29676593,4.3649232 L3.61861935,3.92596489 Z M11.6768015,4.78285966 L11.2641326,5.04072382 L11.3303894,5.1467568 C11.3769482,5.22126647 11.4288792,5.3043734 11.4815258,5.39500257 L11.4815258,5.39500257 L11.8970605,5.13534769 L11.6768015,4.78285966 Z M11.2792609,4.14666174 L10.866592,4.4045259 L11.0761067,4.7398194 L11.4887756,4.48195524 L11.2792609,4.14666174 Z M4.90843387,2.01294569 L5.36893407,2.29650803 L5.85919605,2.0722695 L5.73613384,2.60424636 L6.09743505,3.01104724 L5.56110236,3.055061 L5.29262557,3.52963044 L5.08541082,3.02395654 L4.55820535,2.91208998 L4.9667363,2.55776867 L4.90843387,2.01294569 Z M8.00477517,1.03714584 L8.26251041,1.51855953 L8.79795315,1.57556682 L8.42889069,1.97337542 L8.54119065,2.5097326 L8.05432292,2.27471174 L7.58751024,2.54930287 L7.65655423,2.00654368 L7.25636403,1.64129264 L7.78640494,1.53837625 L8.00477517,1.03714584 Z" id="形状结合"></path>
            </g>
        </g>
    </g>
</svg>