<?xml version="1.0" encoding="UTF-8"?>
<svg width="22px" height="22px" viewBox="0 0 22 22" version="1.1" xmlns="http://www.w3.org/2000/svg" xmlns:xlink="http://www.w3.org/1999/xlink">
    <title>icon/common/yishixiao</title>
    <g id="icon/common/yishixiao" stroke="none" stroke-width="1" fill="none" fill-rule="evenodd">
        <g id="轮廓" transform="translate(11.000000, 11.000000) rotate(45.000000) translate(-11.000000, -11.000000) translate(2.772867, 3.670784)" fill="#666666">
            <g id="编组" transform="translate(0.000000, -0.000000)">
                <path d="M16.3397668,4.96511086 L13.8396129,0.953982997 C13.6213255,0.604210474 13.1651095,0.500725485 12.8203655,0.720857472 L0.3427968,8.75263197 C-0.00103645566,8.97482776 -0.102656951,9.43895182 0.113291776,9.78783986 L2.61344571,13.7995363 C2.83181594,14.1484033 3.28794916,14.2518041 3.63180311,14.0315878 L16.1098479,6.00038193 C16.4545711,5.7781019 16.5582199,5.3145675 16.3397668,4.96511086 Z M15.8418471,5.56932083 L3.36378164,13.6016007 C3.25342717,13.6723597 3.10896463,13.6392125 3.03942392,13.5274091 L0.539352776,9.51571267 C0.469729284,9.40342493 0.50232649,9.25691596 0.612680967,9.18518827 L13.0912018,1.15339272 C13.201639,1.08313917 13.3465155,1.11628638 13.4150835,1.22817399 L15.9162101,5.23978622 C15.9833293,5.34969427 15.9503389,5.49710878 15.8418471,5.56932083 Z M5.08541082,3.02395654 L5.29262557,3.52963044 L5.56110236,3.055061 L6.09743505,3.01104724 L5.73613384,2.60424636 L5.85919605,2.0722695 L5.36893407,2.29650803 L4.90843387,2.01294569 L4.9667363,2.55776867 L4.55820535,2.91208998 L5.08541082,3.02395654 Z M8.26251041,1.51855953 L8.00477517,1.03714584 L7.78640494,1.53837625 L7.25636403,1.64129264 L7.65655423,2.00654368 L7.58751024,2.54930287 L8.05432292,2.27471174 L8.54119065,2.5097326 L8.42889069,1.97337542 L8.79795315,1.57556682 L8.26251041,1.51855953 Z M13.106331,9.58299686 L12.6797733,9.24941888 L12.6778485,9.79622143 L12.232374,10.1036439 L12.745423,10.275824 L12.8966947,10.8008092 L13.21474,10.3589026 L13.753101,10.3741916 L13.4369805,9.92990533 L13.61938,9.41675541 L13.106331,9.58299686 Z M11.3653091,11.7632154 L11.1619646,11.2560674 L10.8891208,11.7286572 L10.3531814,11.7682275 L10.7111711,12.1769869 L10.5837626,12.7083951 L11.0768393,12.4891687 L11.5354768,12.7791541 L11.4814793,12.2338257 L11.8899068,11.8800098 L11.3653091,11.7632154 Z M8.17591568,13.2458263 L8.4313122,13.7291985 L8.65404942,13.2294633 L9.18415242,13.1330332 L8.78630094,12.7637598 L8.85931868,12.221485 L8.39047773,12.4912325 L7.90605221,12.2526737 L8.01398518,12.7880411 L7.63958298,13.1844598 L8.17591568,13.2458263 Z M3.39838642,5.14329289 L3.82250194,5.48230415 L3.82873163,4.93499618 L4.27621365,4.62915318 L3.76600012,4.45343508 L3.61861935,3.92596489 L3.29676593,4.3649232 L2.75840497,4.34510647 L3.07015843,4.79145656 L2.88428192,5.30608063 L3.39838642,5.14329289 Z M1.50416797,7.5061159 C1.44772824,5.18926516 2.55516398,2.89867526 4.61812212,1.57103909 C6.6814735,0.243402921 9.18996818,0.205727983 11.2276143,1.24592691 L11.719739,0.929217358 C11.1167838,0.586352258 10.4679856,0.335452755 9.78476887,0.179572437 C8.87192293,-0.0292928703 7.94210575,-0.0554484169 7.02288525,0.0984523356 C6.07117102,0.258712971 5.17150884,0.60806431 4.34962463,1.13808267 C3.52823713,1.66801678 2.83181594,2.34496529 2.2822374,3.15155433 C1.75016822,3.9294186 1.37626275,4.79598429 1.17051747,5.72324265 C1.01730025,6.41745971 0.962888787,7.12113236 1.01051175,7.82242532 L1.50416797,7.5061159 Z M14.9037099,7.15181564 C14.9625504,9.46864532 13.8551975,11.7592563 11.79226,13.0864713 C9.72930188,14.4156026 7.22039327,14.4522036 5.18316105,13.4119836 L4.69006363,13.7291985 C5.29310159,14.0711581 5.94229305,14.3226473 6.62561327,14.4784433 C7.53835573,14.6873086 8.46817291,14.714454 9.38739341,14.5595634 C10.3391283,14.3992186 11.2387698,14.0503516 12.060178,13.5204175 C12.8815655,12.9903991 13.5780695,12.3134506 14.128062,11.507367 C14.6580822,10.7285129 15.0320911,9.8625369 15.2373604,8.93576291 C15.3909708,8.24097725 15.4445544,7.53679917 15.3967866,6.83559045 L14.9037099,7.15181564 Z M6.10616904,3.96018612 C6.68397779,3.58901743 7.31950947,3.39101868 7.95762823,3.35144841 L8.71920244,2.86156892 C7.71291118,2.74081538 6.70531602,2.97147697 5.83582954,3.5301148 C4.96866109,4.08826827 4.33304662,4.91715902 4.01063438,5.89295887 L4.77173257,5.40307938 C5.08104383,4.83102683 5.52902257,4.33226035 6.10616904,3.96018612 Z M10.3036336,10.6973242 C9.72582485,11.0694827 9.09076919,11.2674183 8.45265043,11.3069675 L7.69157294,11.7969312 C8.69730539,11.9176848 9.70448661,11.6865388 10.5744698,11.1278167 C11.4416176,10.5702319 12.077232,9.74085675 12.3991683,8.7650569 L11.638484,9.25592618 C11.3292555,9.82543056 10.8808628,10.3262398 10.3036336,10.6973242 Z" id="Fill-1"></path>
            </g>
            <path d="M6.09479937,8.83561572 C6.22996889,8.82885724 6.34148375,8.78830639 6.42258546,8.71396315 C6.49017022,8.63961991 6.54761727,8.38617706 6.59154736,7.95363459 L6.24686508,7.84549898 C6.22658965,8.19018125 6.19617651,8.3895563 6.14886718,8.43686563 C6.10155785,8.47741649 6.05086928,8.49769192 5.99680147,8.49769192 L4.31732017,8.49769192 C4.1956676,8.49769192 4.13484131,8.43686563 4.13484131,8.31521306 L4.13484131,7.41295651 L6.21983118,7.41295651 L6.21983118,5.96664263 L3.64147256,5.96664263 L3.64147256,6.30456643 L5.86163195,6.30456643 L5.86163195,7.0750327 L4.13484131,7.0750327 L4.13484131,6.62897328 L3.78340056,6.62897328 L3.78340056,8.37941858 C3.78340056,8.68355001 3.92532856,8.83561572 4.21594303,8.83561572 L6.09479937,8.83561572 Z M9.76803111,8.94713057 L9.96402692,8.63286144 C9.30169626,8.38617706 8.88942922,8.04825326 8.73060504,7.61909003 L9.92009682,7.61909003 L9.92009682,7.27778699 L8.56840161,7.27778699 C8.58867704,7.1459967 8.60219399,7.00744794 8.60895247,6.86214071 L8.60895247,6.72359195 L9.70044635,6.72359195 L9.70044635,6.37890967 L8.60895247,6.37890967 L8.60895247,5.81795616 L8.25075323,5.81795616 L8.25075323,6.37890967 L7.71007515,6.37890967 C7.75738448,6.26739482 7.80469381,6.14912148 7.85200315,6.02071044 L7.52083782,5.88892016 C7.37890982,6.32146262 7.15925935,6.6661449 6.8618864,6.92972547 L7.16263859,7.19330604 C7.29780811,7.06489499 7.41946068,6.9060708 7.53097553,6.72359195 L8.25075323,6.72359195 L8.25075323,6.86214071 C8.24399476,7.00744794 8.22709857,7.1459967 8.2034439,7.27778699 L6.93622964,7.27778699 L6.93622964,7.61909003 L8.11896295,7.61909003 C8.07165362,7.74750107 8.01420657,7.86915364 7.94662181,7.97728926 C7.76414296,8.24424906 7.40932297,8.46727877 6.88216183,8.64299915 L7.0747784,8.94375134 C7.60193953,8.77478943 7.98041419,8.53486353 8.21358162,8.21721516 C8.30820028,8.08204564 8.38930199,7.92322145 8.45350752,7.74750107 C8.64612408,8.24424906 9.08542503,8.64299915 9.76803111,8.94713057 Z M11.8766756,6.47690757 L11.8766756,6.13560453 L11.2582751,6.13560453 C11.2177242,6.01057272 11.1737941,5.89905787 11.1264848,5.79768073 L10.7615271,5.85850701 C10.8155949,5.9463672 10.8629042,6.03760663 10.9102136,6.13560453 L10.2816753,6.13560453 L10.2816753,6.47690757 L11.8766756,6.47690757 Z M11.7415061,8.96402676 C12.065913,8.78154791 12.3328728,8.5585182 12.5423855,8.2915584 C12.7214851,8.56865591 12.9343771,8.78830639 13.1810615,8.94713057 L13.3939535,8.63624067 C13.1405107,8.48417496 12.9242394,8.26790373 12.7417606,7.98742697 C12.9445149,7.61571079 13.059409,7.17640985 13.0864429,6.66952414 L13.3365065,6.66952414 L13.3365065,6.32484186 L12.4443876,6.32484186 C12.47818,6.17953463 12.5052139,6.02746892 12.5322478,5.86526549 L12.1841863,5.80443921 C12.1030846,6.41946053 11.9442604,6.9060708 11.7144722,7.26764927 L11.9341227,7.54136755 C11.9881905,7.46364508 12.0422583,7.37916413 12.0929469,7.29130394 C12.1672901,7.53460908 12.2551503,7.75763879 12.3565274,7.96377231 C12.1605316,8.24424906 11.8868134,8.47065801 11.5421311,8.63961991 L11.7415061,8.96402676 Z M11.5826819,7.23385689 L11.8158494,7.00406871 C11.6367497,6.79455595 11.484684,6.639111 11.356273,6.53435462 L11.143381,6.74386738 C11.3055844,6.90269156 11.4508917,7.06489499 11.5826819,7.23385689 Z M10.4844296,7.51771289 C10.6804254,7.2879247 10.8493873,7.01758566 10.9946945,6.70669576 L10.6905631,6.55800929 C10.5553936,6.85538223 10.3898109,7.10544585 10.2005736,7.3149586 L10.4844296,7.51771289 Z M12.5457648,7.6258485 C12.4443876,7.39606032 12.3565274,7.13923823 12.2889427,6.85538223 C12.3092181,6.79455595 12.3328728,6.73035043 12.3531482,6.66952414 L12.762036,6.66952414 C12.7417606,7.02772337 12.6707966,7.34537175 12.5457648,7.6258485 Z M10.4269825,8.93023438 C10.7311139,8.75451401 10.9845568,8.52134658 11.1873111,8.23073211 C11.2886882,8.33886773 11.3934446,8.45376182 11.4948217,8.57541439 L11.7415061,8.29831687 C11.626612,8.16314735 11.5015802,8.03473631 11.3731692,7.9097045 C11.4542709,7.74412183 11.5252349,7.56164298 11.5860612,7.36226794 L11.2785505,7.22709842 C11.2312412,7.37916413 11.1737941,7.52447136 11.1062094,7.65964088 C10.9980738,7.56164298 10.8831797,7.46702432 10.7649063,7.37240565 L10.5452559,7.62246927 C10.6736669,7.72722564 10.7986987,7.84211974 10.9271098,7.96715154 C10.7378724,8.23749059 10.4979465,8.45376182 10.2073321,8.60920677 L10.4269825,8.93023438 Z" id="已失效" fill-rule="nonzero" transform="translate(8.517713, 7.380854) rotate(-32.000000) translate(-8.517713, -7.380854) "></path>
        </g>
    </g>
</svg>