<?xml version="1.0" encoding="UTF-8"?>
<svg width="22px" height="22px" viewBox="0 0 22 22" version="1.1" xmlns="http://www.w3.org/2000/svg" xmlns:xlink="http://www.w3.org/1999/xlink">
    <title>icon/common/yiguoqi</title>
    <g id="icon/common/yiguoqi" stroke="none" stroke-width="1" fill="none" fill-rule="evenodd">
        <g transform="translate(-0.000000, -0.000000)">
            <rect id="矩形" x="0" y="0" width="22" height="22"></rect>
            <g id="轮廓" transform="translate(11.000000, 11.000000) rotate(45.000000) translate(-11.000000, -11.000000) translate(2.772867, 3.670784)" fill="#666666">
                <path d="M15.3967866,6.83559045 C15.4445544,7.53679917 15.3909708,8.24097725 15.2373604,8.93576291 C15.0320911,9.8625369 14.6580822,10.7285129 14.128062,11.507367 C13.5780695,12.3134506 12.8815655,12.9903991 12.060178,13.5204175 C11.2387698,14.0503516 10.3391283,14.3992186 9.38739341,14.5595634 C8.46817291,14.714454 7.53835573,14.6873086 6.62561327,14.4784433 C5.94229305,14.3226473 5.29310159,14.0711581 4.69006363,13.7291985 L4.69006363,13.7291985 L5.18316105,13.4119836 C7.22039327,14.4522036 9.72930188,14.4156026 11.79226,13.0864713 C13.8551975,11.7592563 14.9625504,9.46864532 14.9037099,7.15181564 L14.9037099,7.15181564 Z M12.8203655,0.720857472 C13.1651095,0.500725485 13.6213255,0.604210473 13.8396129,0.953982997 L13.8396129,0.953982997 L16.3397668,4.96511086 C16.5582199,5.3145675 16.4545711,5.7781019 16.1098479,6.00038193 L16.1098479,6.00038193 L3.63180311,14.0315878 C3.28794916,14.2518041 2.83181594,14.1484033 2.61344571,13.7995363 L2.61344571,13.7995363 L0.113291776,9.78783986 C-0.102656951,9.43895182 -0.00103645566,8.97482776 0.3427968,8.75263197 L0.3427968,8.75263197 Z M8.85931868,12.221485 L8.78630094,12.7637598 L9.18415242,13.1330332 L8.65404942,13.2294633 L8.4313122,13.7291985 L8.17591568,13.2458263 L7.63958298,13.1844598 L8.01398518,12.7880411 L7.90605221,12.2526737 L8.39047773,12.4912325 L8.85931868,12.221485 Z M13.4150835,1.22817399 C13.3465155,1.11628638 13.201639,1.08313917 13.0912018,1.15339272 L13.0912018,1.15339272 L0.612680967,9.18518827 C0.50232649,9.25691596 0.469729284,9.40342493 0.539352776,9.51571267 L0.539352776,9.51571267 L3.03942392,13.5274091 C3.10896463,13.6392125 3.25342717,13.6723597 3.36378164,13.6016007 L3.36378164,13.6016007 L15.8418471,5.56932083 C15.9503389,5.49710878 15.9833293,5.34969427 15.9162101,5.23978622 L15.9162101,5.23978622 Z M11.1619646,11.2560674 L11.3653091,11.7632154 L11.8899068,11.8800098 L11.4814793,12.2338257 L11.5354768,12.7791541 L11.0768393,12.4891687 L10.5837626,12.7083951 L10.7111711,12.1769869 L10.3531814,11.7682275 L10.8891208,11.7286572 L11.1619646,11.2560674 Z M12.3991683,8.7650569 C12.077232,9.74085675 11.4416176,10.5702319 10.5744698,11.1278167 C9.70448661,11.6865388 8.69730539,11.9176848 7.69157294,11.7969312 L7.69157294,11.7969312 L8.45265043,11.3069675 C9.09076919,11.2674183 9.72582485,11.0694827 10.3036336,10.6973242 C10.8808628,10.3262398 11.3292555,9.82543056 11.638484,9.25592618 L11.638484,9.25592618 Z M5.41428142,7.471061 L6.20200042,8.68404189 L4.45338078,9.81960875 L4.94478492,10.5763048 C5.01104166,10.6783312 5.09518324,10.696216 5.19720967,10.6299593 L5.19720967,10.6299593 L6.60574121,9.71524823 C6.65108629,9.68580079 6.68255451,9.64118941 6.70014588,9.5814141 C6.71405631,9.51597064 6.63097549,9.33219648 6.46025247,9.0320788 L6.46025247,9.0320788 L6.80822223,8.93504154 C7.00695886,9.32172822 7.09681459,9.56557118 7.08062347,9.66472997 C7.05309608,9.77125061 6.98165743,9.86599476 6.87197566,9.9452815 L6.87197566,9.9452815 L5.29623414,10.96858 C5.05250434,11.12686 4.85065258,11.0766265 4.68501074,10.8215604 L4.68501074,10.8215604 L3.7316499,9.35351345 L4.02639292,9.1621051 L4.26933429,9.53620201 L5.71754277,8.59572442 L5.29791676,7.94955704 L3.43593443,9.1587425 L3.25188793,8.87533575 L5.41428142,7.471061 Z M12.6797733,9.24941888 L13.106331,9.58299686 L13.61938,9.41675541 L13.4369805,9.92990533 L13.753101,10.3741916 L13.21474,10.3589026 L12.8966947,10.8008092 L12.745423,10.275824 L12.232374,10.1036439 L12.6778485,9.79622143 L12.6797733,9.24941888 Z M7.179842,7.49701286 L7.87921868,8.5739585 L7.87921868,8.5739585 L7.93347261,8.58304766 C8.04934231,8.61256226 8.1570033,8.62323198 8.24894696,8.6159037 C8.36256956,8.59852623 8.50950085,8.53937145 8.68889397,8.43093076 C8.86077848,8.32333693 9.06383774,8.19549799 9.2933972,8.04642033 C9.42376431,7.96175894 9.55512501,7.87242302 9.68931979,7.78124664 C9.8216741,7.68723619 9.92285366,7.61347085 9.99002442,7.56179109 L9.99002442,7.56179109 L10.1124216,7.9053798 L9.51159925,8.29555837 C9.3500574,8.40046487 9.17250475,8.51173963 8.98078176,8.63221671 C8.78622471,8.75453426 8.61647414,8.84059589 8.47620459,8.89139521 C8.33225411,8.93652639 8.18789699,8.93759958 8.04029916,8.89645523 L8.04029916,8.89645523 L7.97499747,8.8823035 C7.93533296,8.87821542 7.90359737,8.88449842 7.88092483,8.89922214 C7.82424348,8.93603144 7.80971251,9.13081482 7.83449784,9.48541274 L7.83449784,9.48541274 L7.48560164,9.42590975 C7.47638688,9.10149297 7.51104981,8.86946007 7.58392228,8.73349199 L7.58392228,8.73349199 L7.07963489,7.9569575 L6.69986985,8.2035798 L6.51950428,7.92584119 L7.179842,7.49701286 Z M8.06618887,5.57966243 L8.34225862,6.00477256 L8.736194,5.74894793 L8.92392142,6.03802281 L8.52998604,6.29384744 L9.2882576,7.46148324 C9.41893061,7.66270203 9.38316091,7.8309852 9.17910806,7.96349867 L9.17910806,7.96349867 L8.78233861,8.22116376 L8.53310856,7.98008771 C8.66516939,7.91044352 8.79255569,7.83980573 8.90591839,7.76618714 C8.97960414,7.71833505 8.99351458,7.65289159 8.94566249,7.57920584 L8.94566249,7.57920584 L8.23524302,6.48525579 L7.17530179,7.17358968 L6.98757436,6.8845148 L8.0475156,6.19618091 L7.77144586,5.77107079 L8.06618887,5.57966243 Z M7.02288525,0.0984523356 C7.94210575,-0.0554484169 8.87192293,-0.0292928703 9.78476887,0.179572437 C10.4679856,0.335452755 11.1167838,0.586352258 11.719739,0.929217358 L11.719739,0.929217358 L11.2276143,1.24592691 C9.18996818,0.205727983 6.6814735,0.243402921 4.61812212,1.57103909 C2.55516398,2.89867526 1.44772824,5.18926516 1.50416797,7.5061159 L1.50416797,7.5061159 L1.01051175,7.82242532 C0.962888787,7.12113236 1.01730025,6.41745971 1.17051747,5.72324265 C1.37626275,4.79598429 1.75016822,3.9294186 2.2822374,3.15155433 C2.83181594,2.34496529 3.52823713,1.66801678 4.34962463,1.13808267 C5.17150884,0.60806431 6.07117102,0.258712971 7.02288525,0.0984523356 Z M7.67270984,7.12053083 C7.97526737,7.21415579 8.2262583,7.30903426 8.41916763,7.40133856 L8.41916763,7.40133856 L8.28785293,7.72031353 C8.08474767,7.61851342 7.83574394,7.51428589 7.53517363,7.41131186 L7.53517363,7.41131186 Z M10.658265,6.86592745 C10.688752,7.13623705 10.6848236,7.38457423 10.6473266,7.61844759 L10.6473266,7.61844759 L10.298837,7.60300259 C10.3502109,7.38429317 10.3680162,7.15111993 10.3494188,6.90532334 L10.3494188,6.90532334 Z M6.16140205,6.84082114 C6.44698875,6.8648815 6.70239431,6.90451244 6.93129965,6.96538209 L6.93129965,6.96538209 L6.85578586,7.32064656 C6.65323398,7.25072131 6.3961347,7.19607318 6.08533487,7.16421074 L6.08533487,7.16421074 Z M9.96004607,4.36992359 L10.1404116,4.6476622 L10.2792809,4.55747942 L10.457806,4.83238396 L10.3189367,4.92256674 L11.0385585,6.03068713 L11.1915982,5.93130202 L11.3701233,6.20620657 L10.0069368,7.0914702 L9.82841171,6.81656566 L10.0041239,6.70245683 L9.28450211,5.59433645 L9.13996467,5.68820016 L8.96143957,5.41329561 L9.10597701,5.3194319 L8.92193051,5.03602515 L9.20533726,4.85197866 L9.38938376,5.13538541 L9.85700489,4.83170869 L9.67663933,4.55397008 L9.96004607,4.36992359 Z M11.2805412,3.60505745 L12.7271466,5.83263449 C12.8486173,6.01968294 12.8148348,6.17861704 12.6221183,6.30376866 L12.6221183,6.30376866 L12.3273752,6.49517701 L12.0602939,6.25763515 C12.1678417,6.19988061 12.2650469,6.14481341 12.3500689,6.08959946 C12.4067503,6.05279016 12.4093244,5.99470856 12.3596319,5.91818874 L12.3596319,5.91818874 L12.0430719,5.43072914 L11.5896211,5.72520353 C11.788211,6.12407334 11.875459,6.50660529 11.8513651,6.87279938 L11.8513651,6.87279938 L11.5230074,6.82010487 L11.4302629,7.0495636 C11.273903,6.95769952 11.0781596,6.86723569 10.8487009,6.77449116 L10.8487009,6.77449116 L10.9843966,6.48087606 C11.1869485,6.5508013 11.355785,6.61844586 11.4909063,6.68380973 C11.4809914,6.33970122 11.3642624,5.99243158 11.1388788,5.63916675 L11.1388788,5.63916675 L10.2517747,4.27314622 L11.2805412,3.60505745 Z M10.6281597,6.01918297 L10.1605386,6.32285968 L10.2875306,6.51841034 L10.7551518,6.21473362 L10.6281597,6.01918297 Z M10.3318448,5.5628981 L9.86422371,5.86657482 L9.99305626,6.06495954 L10.4606774,5.76128283 L10.3318448,5.5628981 Z M5.83582954,3.5301148 C6.70531602,2.97147697 7.71291118,2.74081538 8.71920244,2.86156892 L8.71920244,2.86156892 L7.95762823,3.35144841 C7.31950947,3.39101868 6.68397779,3.58901743 6.10616904,3.96018612 C5.52902257,4.33226035 5.08104383,4.83102683 4.77173257,5.40307938 L4.77173257,5.40307938 L4.01063438,5.89295887 C4.33304662,4.91715902 4.96866109,4.08826827 5.83582954,3.5301148 Z M10.03553,5.10661324 L9.56790885,5.41028995 L9.6967414,5.60867468 L10.1643625,5.30499796 L10.03553,5.10661324 Z M3.61861935,3.92596489 L3.76600012,4.45343508 L4.27621365,4.62915318 L3.82873163,4.93499618 L3.82250194,5.48230415 L3.39838642,5.14329289 L2.88428192,5.30608063 L3.07015843,4.79145656 L2.75840497,4.34510647 L3.29676593,4.3649232 L3.61861935,3.92596489 Z M11.6032008,4.75338701 L11.1667544,5.03681861 L11.4317814,5.44492433 L11.8682278,5.16149273 L11.6032008,4.75338701 Z M11.1633297,4.07604488 L10.7268833,4.35947648 L10.9919102,4.7675822 L11.4283566,4.4841506 L11.1633297,4.07604488 Z M4.90843387,2.01294569 L5.36893407,2.29650803 L5.85919605,2.0722695 L5.73613384,2.60424636 L6.09743505,3.01104724 L5.56110236,3.055061 L5.29262557,3.52963044 L5.08541082,3.02395654 L4.55820535,2.91208998 L4.9667363,2.55776867 L4.90843387,2.01294569 Z M8.00477517,1.03714584 L8.26251041,1.51855953 L8.79795315,1.57556682 L8.42889069,1.97337542 L8.54119065,2.5097326 L8.05432292,2.27471174 L7.58751024,2.54930287 L7.65655423,2.00654368 L7.25636403,1.64129264 L7.78640494,1.53837625 L8.00477517,1.03714584 Z" id="形状结合"></path>
            </g>
        </g>
    </g>
</svg>