<?xml version="1.0" encoding="UTF-8"?>
<svg width="22px" height="22px" viewBox="0 0 22 22" version="1.1" xmlns="http://www.w3.org/2000/svg" xmlns:xlink="http://www.w3.org/1999/xlink">
    <title>icon/common/yishiyong</title>
    <g id="icon/common/yishiyong" stroke="none" stroke-width="1" fill="none" fill-rule="evenodd">
        <g id="icon/common/yiguoqi" transform="translate(-0.000000, -0.000000)">
            <rect id="矩形" x="0" y="0" width="22" height="22"></rect>
            <g id="轮廓" transform="translate(11.000000, 11.000000) rotate(45.000000) translate(-11.000000, -11.000000) translate(2.772867, 3.670784)" fill="#ffffff">
                <path d="M15.3967866,6.83559045 C15.4445544,7.53679917 15.3909708,8.24097725 15.2373604,8.93576291 C15.0320911,9.8625369 14.6580822,10.7285129 14.128062,11.507367 C13.5780695,12.3134506 12.8815655,12.9903991 12.060178,13.5204175 C11.2387698,14.0503516 10.3391283,14.3992186 9.38739341,14.5595634 C8.46817291,14.714454 7.53835573,14.6873086 6.62561327,14.4784433 C5.94229305,14.3226473 5.29310159,14.0711581 4.69006363,13.7291985 L4.69006363,13.7291985 L5.18316105,13.4119836 C7.22039327,14.4522036 9.72930188,14.4156026 11.79226,13.0864713 C13.8551975,11.7592563 14.9625504,9.46864532 14.9037099,7.15181564 L14.9037099,7.15181564 Z M12.8203655,0.720857472 C13.1651095,0.500725485 13.6213255,0.604210474 13.8396129,0.953982997 L13.8396129,0.953982997 L16.3397668,4.96511086 C16.5582199,5.3145675 16.4545711,5.7781019 16.1098479,6.00038193 L16.1098479,6.00038193 L3.63180311,14.0315878 C3.28794916,14.2518041 2.83181594,14.1484033 2.61344571,13.7995363 L2.61344571,13.7995363 L0.113291776,9.78783986 C-0.102656951,9.43895182 -0.00103645566,8.97482776 0.3427968,8.75263197 L0.3427968,8.75263197 Z M8.85931868,12.221485 L8.78630094,12.7637598 L9.18415242,13.1330332 L8.65404942,13.2294633 L8.4313122,13.7291985 L8.17591568,13.2458263 L7.63958298,13.1844598 L8.01398518,12.7880411 L7.90605221,12.2526737 L8.39047773,12.4912325 L8.85931868,12.221485 Z M13.4150835,1.22817399 C13.3465155,1.11628638 13.201639,1.08313917 13.0912018,1.15339272 L13.0912018,1.15339272 L0.612680967,9.18518827 C0.50232649,9.25691596 0.469729284,9.40342493 0.539352776,9.51571267 L0.539352776,9.51571267 L3.03942392,13.5274091 C3.10896463,13.6392125 3.25342717,13.6723597 3.36378164,13.6016007 L3.36378164,13.6016007 L15.8418471,5.56932083 C15.9503389,5.49710878 15.9833293,5.34969427 15.9162101,5.23978622 L15.9162101,5.23978622 Z M11.1619646,11.2560674 L11.3653091,11.7632154 L11.8899068,11.8800098 L11.4814793,12.2338257 L11.5354768,12.7791541 L11.0768393,12.4891687 L10.5837626,12.7083951 L10.7111711,12.1769869 L10.3531814,11.7682275 L10.8891208,11.7286572 L11.1619646,11.2560674 Z M12.3991683,8.7650569 C12.077232,9.74085675 11.4416176,10.5702319 10.5744698,11.1278167 C9.70448661,11.6865388 8.69730539,11.9176848 7.69157294,11.7969312 L7.69157294,11.7969312 L8.45265043,11.3069675 C9.09076919,11.2674183 9.72582485,11.0694827 10.3036336,10.6973242 C10.8808628,10.3262398 11.3292555,9.82543056 11.638484,9.25592618 L11.638484,9.25592618 Z M5.80365659,7.33693313 L6.57008618,8.56347686 L4.80191449,9.66835316 L5.28003762,10.4335101 C5.34450366,10.5366773 5.4283203,10.5560279 5.53148753,10.4915619 L5.53148753,10.4915619 L6.95576845,9.6015724 C7.00162055,9.57292082 7.03386256,9.52886544 7.05249447,9.46940623 C7.06754493,9.40421552 6.98768406,9.21901938 6.82222482,8.91596789 L6.82222482,8.91596789 L7.17183511,8.82501831 C7.36379287,9.21511453 7.44937926,9.46048856 7.43146005,9.55934967 C7.40207781,9.66537367 7.32899652,9.75885661 7.21794772,9.83621706 L7.21794772,9.83621706 L5.62458717,10.8318592 C5.37813212,10.9858614 5.1771878,10.9321128 5.0160227,10.6741947 L5.0160227,10.6741947 L4.08842802,9.1897329 L4.38646668,9.00349768 L4.62284216,9.38177752 L6.08724367,8.4667179 L5.67895875,7.81332544 L3.79615681,8.98983067 L3.61708448,8.70325503 L5.80365659,7.33693313 Z M12.6797733,9.24941888 L13.106331,9.58299686 L13.61938,9.41675541 L13.4369805,9.92990533 L13.753101,10.3741916 L13.21474,10.3589026 L12.8966947,10.8008092 L12.745423,10.275824 L12.232374,10.1036439 L12.6778485,9.79622143 L12.6797733,9.24941888 Z M7.20393943,6.43404623 C7.27125625,6.69482108 7.31134988,6.95666796 7.32493601,7.22710912 L7.32493601,7.22710912 L8.52830209,9.1528974 L8.22739767,9.34092335 L7.30338443,7.86219306 C7.28904367,7.99866535 7.2682557,8.13119685 7.24173622,8.26730979 L7.24173622,8.26730979 L6.94553022,8.01009543 C7.01650037,7.51148976 6.98180287,7.00320281 6.83785627,6.47950305 L6.83785627,6.47950305 Z M9.07454168,5.48033934 L9.25182329,5.76404922 L8.4895321,6.24038162 L8.61846418,6.44671608 L9.27472239,6.03664044 L9.81910228,6.90783038 L9.14851529,7.32685964 C9.26526566,7.56471442 9.33616991,7.76746144 9.35549655,7.93868215 C9.70617589,7.90683543 10.0611613,7.79260346 10.4157965,7.5949112 L10.4157965,7.5949112 L10.5232249,7.92625492 C10.123097,8.14042004 9.72584389,8.25715543 9.33325623,8.27932685 C9.2651758,8.52110445 9.08175541,8.76322942 8.78765155,9.00677678 L8.78765155,9.00677678 L8.48857379,8.81511247 C8.73109105,8.6356778 8.88835729,8.45372773 8.95750677,8.27105298 C8.73399275,8.25133106 8.51406317,8.20546099 8.30058378,8.13165204 L8.30058378,8.13165204 L8.43135451,7.83077757 C8.61797005,7.89347984 8.80530427,7.93182469 8.99156645,7.94294634 C8.97366821,7.81864977 8.92353394,7.67464926 8.84761087,7.51488559 L8.84761087,7.51488559 L8.23147325,7.8998911 L7.68709335,7.02870117 L8.31755976,6.63474203 L8.18862768,6.42840757 L7.48365161,6.86892551 L7.30637,6.58521563 L8.01134607,6.14469769 L7.84839024,5.88391386 L8.14929466,5.69588791 L8.31225049,5.95667174 L9.07454168,5.48033934 Z M7.02288525,0.0984523356 C7.94210575,-0.0554484169 8.87192293,-0.0292928703 9.78476887,0.179572437 C10.4679856,0.335452755 11.1167838,0.586352258 11.719739,0.929217358 L11.719739,0.929217358 L11.2276143,1.24592691 C9.18996818,0.205727983 6.6814735,0.243402921 4.61812212,1.57103909 C2.55516398,2.89867526 1.44772824,5.18926516 1.50416797,7.5061159 L1.50416797,7.5061159 L1.01051175,7.82242532 C0.962888787,7.12113236 1.01730025,6.41745971 1.17051747,5.72324265 C1.37626275,4.79598429 1.75016822,3.9294186 2.2822374,3.15155433 C2.83181594,2.34496529 3.52823713,1.66801678 4.34962463,1.13808267 C5.17150884,0.60806431 6.07117102,0.258712971 7.02288525,0.0984523356 Z M11.6666408,3.62153258 L13.0186369,5.78517864 C13.1565226,6.00584188 13.1117306,6.18923531 12.8853358,6.33070246 L12.8853358,6.33070246 L12.5557738,6.53663564 L12.2928789,6.29446874 C12.414672,6.23430284 12.5214207,6.17556831 12.6188564,6.11468372 C12.7048291,6.06096202 12.7148667,5.97499531 12.6468192,5.86609657 L12.6468192,5.86609657 L12.3979087,5.46775644 L11.7158587,5.89394859 L12.2208427,6.70209189 L11.9170725,6.89190856 L11.4120885,6.08376526 L10.7672933,6.48667801 C10.9520882,6.86531121 11.0322904,7.22960663 11.0043186,7.57383278 L11.0043186,7.57383278 L10.646126,7.51075619 C10.6647849,7.16437997 10.5591502,6.80402234 10.3320876,6.42789256 L10.3320876,6.42789256 L9.4456796,5.00934316 L11.6666408,3.62153258 Z M8.48409703,6.90125738 L8.13447475,7.11972562 L8.3457801,7.45788487 L8.69540238,7.23941663 L8.48409703,6.90125738 Z M9.16041553,6.47864667 L8.78500145,6.71323143 L8.9963068,7.05139068 L9.37172089,6.81680592 L9.16041553,6.47864667 Z M10.9823149,5.39598373 L10.3518485,5.78994286 L10.6097127,6.20261178 L11.2401791,5.80865265 L10.9823149,5.39598373 Z M5.83582954,3.5301148 C6.70531602,2.97147697 7.71291118,2.74081538 8.71920244,2.86156892 L8.71920244,2.86156892 L7.95762823,3.35144841 C7.31950947,3.39101868 6.68397779,3.58901743 6.10616904,3.96018612 C5.52902257,4.33226035 5.08104383,4.83102683 4.77173257,5.40307938 L4.77173257,5.40307938 L4.01063438,5.89295887 C4.33304662,4.91715902 4.96866109,4.08826827 5.83582954,3.5301148 Z M11.9681351,4.7799749 L11.2860851,5.20616706 L11.5439492,5.61883598 L12.2259993,5.19264382 L11.9681351,4.7799749 Z M10.5597042,4.71966523 L9.9292378,5.11362436 L10.1799391,5.51483025 L10.8104055,5.12087112 L10.5597042,4.71966523 Z M3.61861935,3.92596489 L3.76600012,4.45343508 L4.27621365,4.62915318 L3.82873163,4.93499618 L3.82250194,5.48230415 L3.39838642,5.14329289 L2.88428192,5.30608063 L3.07015843,4.79145656 L2.75840497,4.34510647 L3.29676593,4.3649232 L3.61861935,3.92596489 Z M11.5455244,4.1036564 L10.8634744,4.52984855 L11.1141756,4.93105445 L11.7962257,4.50486229 L11.5455244,4.1036564 Z M4.90843387,2.01294569 L5.36893407,2.29650803 L5.85919605,2.0722695 L5.73613384,2.60424636 L6.09743505,3.01104724 L5.56110236,3.055061 L5.29262557,3.52963044 L5.08541082,3.02395654 L4.55820535,2.91208998 L4.9667363,2.55776867 L4.90843387,2.01294569 Z M8.00477517,1.03714584 L8.26251041,1.51855953 L8.79795315,1.57556682 L8.42889069,1.97337542 L8.54119065,2.5097326 L8.05432292,2.27471174 L7.58751024,2.54930287 L7.65655423,2.00654368 L7.25636403,1.64129264 L7.78640494,1.53837625 L8.00477517,1.03714584 Z" id="形状结合"></path>
            </g>
        </g>
    </g>
</svg>