<?xml version="1.0" encoding="UTF-8"?>
<svg width="22px" height="22px" viewBox="0 0 22 22" version="1.1" xmlns="http://www.w3.org/2000/svg" xmlns:xlink="http://www.w3.org/1999/xlink">
    <!-- Generator: Sketch 60 (88103) - https://sketch.com -->
    <title>h5 svg/icon/common/add</title>
    <desc>Created with Sketch.</desc>
    <g id="h5-svg/icon/common/add" stroke="none" stroke-width="1">
        <g id="编组">
            <path d="M11.0000004,3.57627869e-07 C17.0751326,3.57627869e-07 22.0000004,4.92486811 22.0000004,11.0000004 C22.0000004,17.0751326 17.0751326,22.0000004 11.0000004,22.0000004 C4.92486811,22.0000004 3.57627869e-07,17.0751326 3.57627869e-07,11.0000004 C3.57627869e-07,4.92486811 4.92486811,3.57627869e-07 11.0000004,3.57627869e-07 Z M11.0000004,1.20000036 C5.58760981,1.20000036 1.20000036,5.58760981 1.20000036,11.0000004 C1.20000036,16.4123909 5.58760981,20.8000004 11.0000004,20.8000004 C16.4123909,20.8000004 20.8000004,16.4123909 20.8000004,11.0000004 C20.8000004,5.58760981 16.4123909,1.20000036 11.0000004,1.20000036 Z" id="Rectangle"></path>
            <path d="M11.0000004,5.40000036 C11.2982341,5.40000036 11.5456471,5.61758997 11.5921474,5.90267724 L11.6000004,6.00000036 L11.6000004,16.0040818 C11.6000004,16.3354526 11.3313712,16.6040818 11.0000004,16.6040818 C10.7017666,16.6040818 10.4543536,16.3864922 10.4078533,16.1014049 L10.4000004,16.0040818 L10.4000004,6.00000036 C10.4000004,5.66862951 10.6686295,5.40000036 11.0000004,5.40000036 Z" id="路径-45"></path>
            <path d="M11.0000004,5.4 C11.2982341,5.4 11.5456471,5.61758961 11.5921474,5.90267688 L11.6000004,6 L11.6000004,16 C11.6000004,16.3313708 11.3313712,16.6 11.0000004,16.6 C10.7017666,16.6 10.4543536,16.3824104 10.4078533,16.0973231 L10.4000004,16 L10.4000004,6 C10.4000004,5.66862915 10.6686295,5.4 11.0000004,5.4 Z" id="路径-45" transform="translate(11.000000, 11.000000) rotate(-270.000000) translate(-11.000000, -11.000000) "></path>
        </g>
    </g>
</svg>