<?xml version="1.0" encoding="UTF-8"?>
<svg width="22px" height="22px" viewBox="0 0 22 22" version="1.1" xmlns="http://www.w3.org/2000/svg" xmlns:xlink="http://www.w3.org/1999/xlink">
    <title>btn/common/weizhi</title>
    <g id="btn/common/weizhi" stroke="none" stroke-width="1" fill="none" fill-rule="evenodd">
        <rect id="矩形" x="0" y="0" width="22" height="22"></rect>
        <g id="轮廓" transform="translate(3.100000, 1.100000)" fill="#1F73FF">
            <path d="M11.8908554,17.9610861 C12.3878881,17.9562452 12.794737,18.3552455 12.7996215,18.8522782 C12.8040464,19.3110776 12.4644136,19.693034 12.0212063,19.7528893 L11.9083858,19.7610007 L3.90876523,19.8389139 C3.41173253,19.8437548 3.00488359,19.4447545 2.9999991,18.9477218 C2.99557416,18.4889224 3.335207,18.106966 3.77841433,18.0471107 L3.89123477,18.0389993 L11.8908554,17.9610861 Z M7.9,2.13162821e-14 C12.2662497,2.13162821e-14 15.8,3.58984156 15.8,8.01111111 C15.8,12.0270665 12.6962155,14.9942486 8.746124,16.992065 L8.746124,16.992065 L8.55160911,17.088557 L8.31091342,17.2021741 L7.89973818,17.3821208 L7.4399482,17.1800405 L7.19707015,17.0644224 L6.9000629,16.9137676 L6.55397768,16.7282715 L6.36410934,16.622519 C5.50152976,16.1360059 4.63906182,15.5620129 3.83025462,14.9005884 C1.45411832,12.9574369 -3.55271368e-15,10.6613149 -3.55271368e-15,8.01111111 C-3.55271368e-15,3.58984156 3.53375028,2.13162821e-14 7.9,2.13162821e-14 Z M7.9,1.8 C4.53426322,1.8 1.8,4.57766423 1.8,8.01111111 C1.8,10.0236851 2.97088168,11.8725631 4.96974538,13.5071894 C5.69218818,14.0979871 6.47034524,14.6158691 7.24839066,15.0547032 C7.38429296,15.131355 7.51514258,15.2027014 7.6400707,15.268674 L7.6400707,15.268674 L7.899,15.402 L8.23657582,15.2295274 C11.3809366,13.5717426 13.8507946,11.1668323 13.9934851,8.27553318 L13.9934851,8.27553318 L14,8.01111111 C14,4.57766423 11.2657368,1.8 7.9,1.8 Z M7.9,5 C9.50162577,5 10.8,6.29837423 10.8,7.9 C10.8,9.50162577 9.50162577,10.8 7.9,10.8 C6.29837423,10.8 5,9.50162577 5,7.9 C5,6.29837423 6.29837423,5 7.9,5 Z M7.9,6.8 C7.29248678,6.8 6.8,7.29248678 6.8,7.9 C6.8,8.50751322 7.29248678,9 7.9,9 C8.50751322,9 9,8.50751322 9,7.9 C9,7.29248678 8.50751322,6.8 7.9,6.8 Z" id="形状结合"></path>
        </g>
    </g>
</svg>