<?xml version="1.0" encoding="UTF-8"?>
<svg width="22px" height="22px" viewBox="0 0 22 22" version="1.1" xmlns="http://www.w3.org/2000/svg" xmlns:xlink="http://www.w3.org/1999/xlink">
    <title>btn/common/downarrow5</title>
    <g id="btn/common/downarrow5" stroke="none" stroke-width="1" fill="none" fill-rule="evenodd">
        <g id="轮廓" transform="translate(1.936362, 1.936363)">
            <path d="M16.3189234,8.30421396 C16.738341,7.89291959 17.4117661,7.89950476 17.8230605,8.31892234 C18.2027168,8.70607704 18.2263101,9.30966417 17.8978101,9.72372704 L17.8083521,9.8230594 L9.65034918,17.8230594 C9.27142469,18.1946449 8.68324155,18.2261914 8.26878539,17.915669 L8.16901229,17.8309108 L0.327015198,10.3021906 C-0.0967385817,9.89536523 -0.110461744,9.22204777 0.296363657,8.79829399 C0.674130102,8.40480834 1.28167796,8.3648695 1.70582413,8.68689872 L1.8002603,8.76764245 L8.89763775,15.5816367 L16.3189234,8.30421396 Z" id="路径-3" fill="#999999"></path>
            <path d="M16.3189234,0.304213964 C16.738341,-0.107080409 17.4117661,-0.100495243 17.8230605,0.318922343 C18.2027168,0.706077038 18.2263101,1.30966417 17.8978101,1.72372704 L17.8083521,1.8230594 L9.65034918,9.8230594 C9.27142469,10.1946449 8.68324155,10.2261914 8.26878539,9.915669 L8.16901229,9.83091077 L0.327015198,2.30219064 C-0.0967385817,1.89536523 -0.110461744,1.22204777 0.296363657,0.798293994 C0.674130102,0.404808341 1.28167796,0.364869496 1.70582413,0.686898716 L1.8002603,0.767642453 L8.89763775,7.58163668 L16.3189234,0.304213964 Z" id="路径-3备份" fill="#666666"></path>
        </g>
    </g>
</svg>