<?xml version="1.0" encoding="UTF-8"?>
<svg width="20px" height="20px" viewBox="0 0 20 20" version="1.1" xmlns="http://www.w3.org/2000/svg" xmlns:xlink="http://www.w3.org/1999/xlink">
    <title>-mockplus-</title>
    <g id="我的" stroke="none" stroke-width="1" fill="none" fill-rule="evenodd">
        <g id="地址管理" transform="translate(-340.000000, -284.000000)">
            <g id="list备份-2" transform="translate(0.000000, 244.000000)">
                <g id="btn/common/radio_sel2" transform="translate(340.000000, 40.000000)">
                    <rect id="矩形" x="0" y="0" width="20" height="20"></rect>
                    <g id="轮廓" transform="translate(1.187942, 0.733072)" fill="#222222">
                        <path d="M16.5393305,16.1760186 C16.9911999,16.1760186 17.3575123,16.5423311 17.3575123,16.9942004 C17.3575123,17.4113106 17.0453881,17.7555202 16.6419615,17.8060075 L16.5393305,17.8123823 L6.53933051,17.8123823 C6.08746117,17.8123823 5.72114869,17.4460698 5.72114869,16.9942004 C5.72114869,16.5770903 6.03327293,16.2328806 6.43669952,16.1823934 L6.53933051,16.1760186 L16.5393305,16.1760186 Z M10.7340651,0.31099945 L13.0683151,1.88547097 C13.8591725,2.41891101 14.0969595,3.46546045 13.6373314,4.2825306 L13.5382396,4.43956408 L5.34953904,16.0694821 L1.23545016,17.6519054 C0.766841859,17.8321486 0.240843765,17.5983826 0.0606005301,17.1297743 C0.0205425454,17.0256289 1.56319402e-13,16.9149987 1.56319402e-13,16.803415 L1.56319402e-13,12.4611724 L8.23071182,0.771588414 C8.80063187,-0.0378346824 9.9133704,-0.24256611 10.7340651,0.31099945 Z M7.919,4.054 L1.63636364,12.9781196 L1.63636364,15.7435741 L4.29727273,14.7208469 L10.555,5.832 L7.919,4.054 Z M16.5393305,13.4487459 C16.9911999,13.4487459 17.3575123,13.8150584 17.3575123,14.2669277 C17.3575123,14.6840379 17.0453881,15.0282475 16.6419615,15.0787347 L16.5393305,15.0851095 L11.993876,15.0851095 C11.5420066,15.0851095 11.1756941,14.718797 11.1756941,14.2669277 C11.1756941,13.8498175 11.4878184,13.5056079 11.891245,13.4551207 L11.993876,13.4487459 L16.5393305,13.4487459 Z M9.60872797,1.67247908 L9.56868683,1.71366528 L8.862,2.716 L11.498,4.494 L12.2013073,3.49599052 C12.2470506,3.42818634 12.242141,3.34230179 12.1957243,3.28191052 L12.1532722,3.2420779 L9.81902216,1.66760639 C9.75336658,1.62332114 9.6690202,1.6275669 9.60872797,1.67247908 Z" id="形状结合"></path>
                    </g>
                </g>
            </g>
        </g>
    </g>
</svg>