<?xml version="1.0" encoding="UTF-8"?>
<svg width="18px" height="18px" viewBox="0 0 18 18" version="1.1" xmlns="http://www.w3.org/2000/svg" xmlns:xlink="http://www.w3.org/1999/xlink">
    <title>-mockplus-</title>
    <g id="*购物车" stroke="none" stroke-width="1" fill="none" fill-rule="evenodd">
        <g id="05配送地址" transform="translate(-15.000000, -201.000000)">
            <g id="编组-4" transform="translate(0.000000, 150.000000)">
                <g id="list" transform="translate(0.000000, 40.000000)">
                    <g id="btn/common/weizhi" transform="translate(15.000000, 11.000000)">
                        <rect id="矩形" x="0" y="0" width="18" height="18"></rect>
                        <g id="轮廓" transform="translate(2.536364, 0.900000)">
                            <path d="M9.72888165,14.6954341 C10.1355448,14.6914733 10.4684212,15.0179281 10.4724176,15.4245912 C10.476038,15.7999726 10.1981566,16.1124824 9.8355324,16.1614549 L9.74322476,16.1680915 L3.19808065,16.2318387 C2.79141753,16.2357994 2.45854112,15.9093446 2.45454472,15.5026815 C2.45092431,15.1273002 2.72880573,14.8147903 3.0914299,14.7658179 L3.18373754,14.7591812 L9.72888165,14.6954341 Z M6.46363636,1.77635684e-14 C10.0360225,1.77635684e-14 12.9272727,2.93714309 12.9272727,6.55454546 C12.9272727,9.84032714 10.3878127,12.2680216 7.15591964,13.9025987 L7.15591964,13.9025987 L6.99677109,13.9815466 L6.79983825,14.074506 L6.46342214,14.2217352 L6.08723035,14.0563968 L5.88851194,13.9618001 L5.64550601,13.8385371 L5.36234537,13.6867676 L5.20699855,13.6002428 C4.50125163,13.2021866 3.79559603,12.732556 3.13384469,12.1913905 C1.18973317,10.6015393 -3.73034936e-14,8.72289398 -3.73034936e-14,6.55454546 C-3.73034936e-14,2.93714309 2.89125023,1.77635684e-14 6.46363636,1.77635684e-14 Z" id="形状结合" fill="#F30300"></path>
                            <path d="M6.46363636,4.09090909 C5.15321528,4.09090909 4.09090909,5.15321528 4.09090909,6.46363636 C4.09090909,7.77405745 5.15321528,8.83636364 6.46363636,8.83636364 C7.77405745,8.83636364 8.83636364,7.77405745 8.83636364,6.46363636 C8.83636364,5.15321528 7.77405745,4.09090909 6.46363636,4.09090909 Z M6.46363636,5.56363636 C6.96069264,5.56363636 7.36363636,5.96658009 7.36363636,6.46363636 C7.36363636,6.96069264 6.96069264,7.36363636 6.46363636,7.36363636 C5.96658009,7.36363636 5.56363636,6.96069264 5.56363636,6.46363636 C5.56363636,5.96658009 5.96658009,5.56363636 6.46363636,5.56363636 Z" id="椭圆形" fill="#FFFFFF"></path>
                        </g>
                    </g>
                </g>
            </g>
        </g>
    </g>
</svg>