<?xml version="1.0" encoding="UTF-8"?>
<svg width="12px" height="12px" viewBox="0 0 12 12" version="1.1" xmlns="http://www.w3.org/2000/svg" xmlns:xlink="http://www.w3.org/1999/xlink">
    <title>-mockplus-</title>
    <g id="领券中心" stroke="none" stroke-width="1" fill="none" fill-rule="evenodd">
        <g id="04.2我的优惠券-优惠券备份-2" transform="translate(-118.000000, -606.000000)" fill="#FF711E">
            <g id="卡片2" transform="translate(16.000000, 504.000000)">
                <g id="门店" transform="translate(0.000000, 0.000000)">
                    <g id="卡片2备份" transform="translate(16.000000, 48.000000)">
                        <g id="电话" transform="translate(10.000000, 10.000000)">
                            <g transform="translate(76.000000, 41.000000)">
                                <g id="-mockplus-" transform="translate(0.000000, 3.000000)">
                                    <g id="btn/common/phone" transform="translate(1.090909, 0.818182)">
                                        <path d="M1.72682828,0.0238346476 C1.37990295,0.0951641301 1.10971824,0.285558893 0.76939446,0.638502831 L0.368098171,1.07532378 C-0.613612153,2.11336708 0.433217758,5.0429649 2.73637068,7.47497294 C5.04142481,9.90652818 7.81881769,11.0122878 8.80069766,9.97406514 L9.0818713,9.68861512 C9.50154183,9.26112488 9.71984831,8.95212071 9.7956842,8.54043561 C9.89943133,7.97723065 9.64410922,7.43555323 9.03488482,6.91837075 C7.97185369,6.01700324 7.28592038,5.98782475 6.59608328,6.6612999 L6.26091958,7.01263597 L6.23662821,7.00655522 C6.181234,6.98931311 6.03137829,6.93033316 5.78946014,6.76430353 C5.43790131,6.52302694 5.00410847,6.12487678 4.50999115,5.60409019 C4.01654024,5.08329532 3.63883342,4.62525541 3.41017704,4.25413796 C3.20801616,3.92602363 3.17366109,3.75881345 3.17652578,3.75578099 L3.45849651,3.45842401 C3.47564585,3.43953884 3.49196871,3.42124255 3.50798594,3.4029425 C4.14557666,2.6744811 4.11794349,1.95059644 3.26416034,0.827939081 C2.77439173,0.183932075 2.26092327,-0.0859777961 1.72682828,0.0238346476 Z M1.88317474,0.870867449 C2.07921528,0.830560592 2.30993751,0.951842057 2.62650832,1.36810766 C3.24158866,2.17688969 3.2510497,2.42473322 2.90737972,2.81738372 L2.82036225,2.91310923 L2.59793134,3.14603404 C1.97157226,3.80907449 2.56411092,4.77078588 3.93202461,6.21450036 C5.30143315,7.65782091 6.21083823,8.28195017 6.83851995,7.62342969 L7.00557996,7.44486896 C7.06508092,7.38149008 7.10950211,7.33560197 7.15130747,7.29478817 C7.52286099,6.93204738 7.75727776,6.94201909 8.52260026,7.59095283 C8.91632414,7.9251928 9.03117582,8.16885585 8.99306478,8.37574664 C8.96328111,8.53743122 8.84799595,8.71389358 8.60938394,8.96844765 L8.22226443,9.36414764 C7.68479061,9.93246278 5.33625561,8.99744374 3.31453459,6.86477098 C1.29416058,4.73136247 0.408848212,2.25377833 0.946841736,1.6849134 L1.22682863,1.37751326 C1.52019681,1.05636264 1.71064375,0.906340632 1.88317474,0.870867449 Z" id="Path"></path>
                                    </g>
                                </g>
                            </g>
                        </g>
                    </g>
                </g>
            </g>
        </g>
    </g>
</svg>