<?xml version="1.0" encoding="UTF-8"?>
<svg width="12px" height="12px" viewBox="0 0 12 12" version="1.1" xmlns="http://www.w3.org/2000/svg" xmlns:xlink="http://www.w3.org/1999/xlink">
    <title>-mockplus-</title>
    <g id="购物车" stroke="none" stroke-width="1" fill="none" fill-rule="evenodd">
        <g id="01.1购物车【红】" transform="translate(-244.000000, -214.000000)">
            <g id="列表备份-3" transform="translate(10.000000, 162.000000)">
                <g id="运费凑单" transform="translate(42.000000, 42.000000)">
                    <g id="轮廓" transform="translate(192.000000, 10.000000)">
                        <rect id="矩形" opacity="0" x="0" y="0" width="12" height="12"></rect>
                        <path d="M6,0.545454545 C9.01246227,0.545454545 11.4545455,2.98753773 11.4545455,6 C11.4545455,9.01246227 9.01246227,11.4545455 6,11.4545455 C2.98753773,11.4545455 0.545454545,9.01246227 0.545454545,6 C0.545454545,2.98753773 2.98753773,0.545454545 6,0.545454545 Z M6,1.52727273 C3.52978094,1.52727273 1.52727273,3.52978094 1.52727273,6 C1.52727273,8.47021906 3.52978094,10.4727273 6,10.4727273 C8.47021906,10.4727273 10.4727273,8.47021906 10.4727273,6 C10.4727273,3.52978094 8.47021906,1.52727273 6,1.52727273 Z M6,7.96363636 C6.2502661,7.96363636 6.45679188,8.15091091 6.48708421,8.39296686 L6.49090909,8.45454545 L6.49090909,8.86363636 C6.49090909,9.13475797 6.2711216,9.35454545 6,9.35454545 C5.7497339,9.35454545 5.54320812,9.16727091 5.51291579,8.92521496 L5.50909091,8.86363636 L5.50909091,8.45454545 C5.50909091,8.18342385 5.7288784,7.96363636 6,7.96363636 Z M6,2.76725534 C6.2502661,2.76725534 6.45679188,2.95452988 6.48708421,3.19658584 L6.49090909,3.25816443 L6.49090909,6.54545455 C6.49090909,6.81657615 6.2711216,7.03636364 6,7.03636364 C5.7497339,7.03636364 5.54320812,6.84908909 5.51291579,6.60703314 L5.50909091,6.54545455 L5.50909091,3.25816443 C5.50909091,2.98704283 5.7288784,2.76725534 6,2.76725534 Z" id="形状结合" fill="#222222"></path>
                    </g>
                </g>
            </g>
        </g>
    </g>
</svg>