<?xml version="1.0" encoding="UTF-8"?>
<svg width="22px" height="22px" viewBox="0 0 22 22" version="1.1" xmlns="http://www.w3.org/2000/svg" xmlns:xlink="http://www.w3.org/1999/xlink">
    <title>btn/common/yihang</title>
    <g id="btn/common/yihang" stroke="none" stroke-width="1" fill="none" fill-rule="evenodd">
        <rect id="矩形" x="0" y="0" width="22" height="22"></rect>
        <g id="线稿" fill="#666666">
            <path d="M7,11.1 C8.60162577,11.1 9.9,12.3983742 9.9,14 L9.9,14 L9.9,17 C9.9,18.6016258 8.60162577,19.9 7,19.9 L7,19.9 L4,19.9 C2.39837423,19.9 1.1,18.6016258 1.1,17 L1.1,17 L1.1,14 C1.1,12.3983742 2.39837423,11.1 4,11.1 L4,11.1 Z M19.5,16.8180967 C19.9970563,16.8180967 20.4,17.2210404 20.4,17.7180967 C20.4,18.1769178 20.0566633,18.5555484 19.6128941,18.6110844 L19.5,18.6180967 L12.5,18.6180967 C12.0029437,18.6180967 11.6,18.2151529 11.6,17.7180967 C11.6,17.2592755 11.9433367,16.8806449 12.3871059,16.8251089 L12.5,16.8180967 L19.5,16.8180967 Z M7,12.9 L4,12.9 C3.39248678,12.9 2.9,13.3924868 2.9,14 L2.9,14 L2.9,17 C2.9,17.6075132 3.39248678,18.1 4,18.1 L4,18.1 L7,18.1 C7.60751322,18.1 8.1,17.6075132 8.1,17 L8.1,17 L8.1,14 C8.1,13.3924868 7.60751322,12.9 7,12.9 L7,12.9 Z M19.5,12.8180967 C19.9970563,12.8180967 20.4,13.2210404 20.4,13.7180967 C20.4,14.1769178 20.0566633,14.5555484 19.6128941,14.6110844 L19.5,14.6180967 L12.5,14.6180967 C12.0029437,14.6180967 11.6,14.2151529 11.6,13.7180967 C11.6,13.2592755 11.9433367,12.8806449 12.3871059,12.8251089 L12.5,12.8180967 L19.5,12.8180967 Z M7,1.1 C8.60162577,1.1 9.9,2.39837423 9.9,4 L9.9,4 L9.9,7 C9.9,8.60162577 8.60162577,9.9 7,9.9 L7,9.9 L4,9.9 C2.39837423,9.9 1.1,8.60162577 1.1,7 L1.1,7 L1.1,4 C1.1,2.39837423 2.39837423,1.1 4,1.1 L4,1.1 Z M19.5,6.81809666 C19.9970563,6.81809666 20.4,7.22104039 20.4,7.71809666 C20.4,8.17691784 20.0566633,8.55554844 19.6128941,8.61108438 L19.5,8.61809666 L12.5,8.61809666 C12.0029437,8.61809666 11.6,8.21515294 11.6,7.71809666 C11.6,7.25927549 11.9433367,6.88064488 12.3871059,6.82510894 L12.5,6.81809666 L19.5,6.81809666 Z M7,2.9 L4,2.9 C3.39248678,2.9 2.9,3.39248678 2.9,4 L2.9,4 L2.9,7 C2.9,7.60751322 3.39248678,8.1 4,8.1 L4,8.1 L7,8.1 C7.60751322,8.1 8.1,7.60751322 8.1,7 L8.1,7 L8.1,4 C8.1,3.39248678 7.60751322,2.9 7,2.9 L7,2.9 Z M19.5,2.81809666 C19.9970563,2.81809666 20.4,3.22104039 20.4,3.71809666 C20.4,4.17691784 20.0566633,4.55554844 19.6128941,4.61108438 L19.5,4.61809666 L12.5,4.61809666 C12.0029437,4.61809666 11.6,4.21515294 11.6,3.71809666 C11.6,3.25927549 11.9433367,2.88064488 12.3871059,2.82510894 L12.5,2.81809666 L19.5,2.81809666 Z" id="形状结合"></path>
        </g>
    </g>
</svg>