<?xml version="1.0" encoding="UTF-8"?>
<svg width="22px" height="22px" viewBox="0 0 22 22" version="1.1" xmlns="http://www.w3.org/2000/svg" xmlns:xlink="http://www.w3.org/1999/xlink">
    <title>btn/common/soucang_sel</title>
    <defs>
        <linearGradient x1="27.4928915%" y1="-30.1190885%" x2="86.8152328%" y2="62.6543563%" id="linearGradient-1">
            <stop stop-color="#FFD786" offset="0%"></stop>
            <stop stop-color="#FFAA00" offset="100%"></stop>
        </linearGradient>
    </defs>
    <g id="btn/common/soucang_sel" stroke="none" stroke-width="1" fill="none" fill-rule="evenodd">
        <rect id="矩形" x="0" y="0" width="22" height="22"></rect>
        <g id="轮廓" transform="translate(0.558875, 0.554545)" fill="url(#linearGradient-1)">
            <path d="M10.4479021,9.9475983e-14 C11.3368568,9.9475983e-14 12.1782254,0.551716962 12.4987307,1.34049694 L12.4987307,1.34049694 L14.5026706,5.578 L19.0958425,6.41368802 C19.8552263,6.57730668 20.4834567,7.14065367 20.7246214,7.84967715 L20.7246214,7.84967715 L20.8181971,8.17423828 C21.0118265,8.97336905 20.7871076,9.81512488 20.1989396,10.4264297 L20.1989396,10.4264297 L16.9936706,13.568 L17.8055355,18.1150353 C17.9531205,18.9432598 17.6563745,19.7621558 17.0871991,20.2769455 L17.0871991,20.2769455 L16.9611257,20.3824955 C16.5859903,20.7111127 16.0958643,20.8909091 15.5772969,20.8909091 C15.2233099,20.8909091 14.8498273,20.7855892 14.5083877,20.6102907 L14.5083877,20.6102907 L10.4446706,18.497 L6.37434897,20.5985131 C6.09971908,20.751138 5.79636445,20.8427255 5.48477048,20.8690151 L5.48477048,20.8690151 L5.29698925,20.876919 C4.80589106,20.876919 4.32387951,20.7176039 3.94063112,20.4162621 C3.25369178,19.8826431 2.89302133,18.9676493 3.05645791,18.108679 L3.05645791,18.108679 L3.89867064,13.568 L0.678062846,10.4410198 C0.127043869,9.86782485 -0.109092257,9.02088781 0.0474293883,8.22094595 L0.0474293883,8.22094595 L0.0905554246,8.0373242 C0.369918234,7.16550648 1.06829788,6.53630624 1.91532296,6.42597324 L1.91532296,6.42597324 L6.38667064,5.579 L8.39760575,1.33096187 C8.76075573,0.579628999 9.47417177,0.0713684804 10.2750439,0.0069396685 L10.2750439,0.0069396685 Z M11.9750993,11.8666786 C11.5910472,11.7115115 11.1539236,11.8970594 10.9987565,12.2811115 L10.9987565,12.2811115 L10.9444634,12.3981256 C10.6466158,12.9630718 9.9633468,13.2217797 9.35844377,12.977383 L9.35844377,12.977383 L9.26151897,12.9456071 C8.90349575,12.854519 8.52433747,13.0397681 8.38210094,13.3918159 C8.2269338,13.7758681 8.41248175,14.2129916 8.79653388,14.3681588 C10.209868,14.9391828 11.8185082,14.2563556 12.3895323,12.8430214 C12.5446994,12.4589693 12.3591514,12.0218457 11.9750993,11.8666786 Z" id="形状结合"></path>
        </g>
    </g>
</svg>