<?xml version="1.0" encoding="UTF-8"?>
<svg width="20px" height="20px" viewBox="0 0 20 20" version="1.1" xmlns="http://www.w3.org/2000/svg" xmlns:xlink="http://www.w3.org/1999/xlink">
    <title>btn_common_soucang</title>
    <g id="详情页" stroke="none" stroke-width="1" fill="none" fill-rule="evenodd">
        <g id="常规详情页" transform="translate(-165.000000, -490.000000)">
            <g id="编组-5" transform="translate(10.000000, 354.000000)">
                <g id="icon" transform="translate(14.000000, 136.000000)">
                    <g id="btn/common/soucang" transform="translate(141.000000, 0.000000)">
                        <rect id="矩形" x="0" y="0" width="20" height="20"></rect>
                        <g id="轮廓" transform="translate(0.508068, 0.504132)" fill="#222222">
                            <path d="M9.49809285,9.30165036e-14 C10.3062335,9.30165036e-14 11.071114,0.501560874 11.3624824,1.21863358 L11.3624824,1.21863358 L13.184246,5.07090909 L17.3598568,5.83062548 C18.0502057,5.97936971 18.6213242,6.49150334 18.8405649,7.13607014 L18.8405649,7.13607014 L18.9256338,7.43112571 C19.1016605,8.15760822 18.8973705,8.9228408 18.3626724,9.47857242 L18.3626724,9.47857242 L15.4487915,12.3345455 L16.1868505,16.468214 C16.3210186,17.2211453 16.0512495,17.9655962 15.5338173,18.4335869 L15.5338173,18.4335869 L15.4192052,18.5295414 C15.078173,18.8282843 14.632604,18.9917355 14.161179,18.9917355 C13.8393727,18.9917355 13.499843,18.8959901 13.1894434,18.7366279 L13.1894434,18.7366279 L9.49515513,16.8154545 L5.7948627,18.725921 C5.54519917,18.8646709 5.26942223,18.9479322 4.98615498,18.9718319 L4.98615498,18.9718319 L4.81544477,18.9790173 C4.36899187,18.9790173 3.93079955,18.8341853 3.58239193,18.5602383 C2.95790162,18.0751301 2.63001939,17.2433175 2.7785981,16.4624355 L2.7785981,16.4624355 L3.54424604,12.3345455 L0.616420769,9.49183619 C0.115494426,8.97074986 -0.0991747786,8.2008071 0.0431176257,7.47358723 L0.0431176257,7.47358723 L0.0823231133,7.30665837 C0.336289303,6.5140968 0.971179894,5.94209658 1.74120269,5.84179385 L1.74120269,5.84179385 L5.80606422,5.07181818 L7.63418704,1.20996534 C7.96432339,0.526935453 8.61288342,0.0648804367 9.34094896,0.00630878955 L9.34094896,0.00630878955 Z M9.49809285,1.63636364 C9.35237704,1.63636364 9.19500891,1.74097911 9.11040989,1.91594406 L9.11040989,1.91594406 L7.10775257,6.14858936 C6.99582462,6.38515069 6.77748657,6.55389471 6.5203485,6.60256852 L6.5203485,6.60256852 L2.00039281,7.4568527 C1.83778829,7.47830569 1.70824417,7.59501755 1.65059849,7.77246344 C1.59840903,7.96301013 1.66030626,8.21653907 1.77616475,8.33776464 L1.77616475,8.33776464 L4.99900035,11.4664628 C5.19547997,11.6572033 5.28351116,11.9335902 5.23353787,12.2028277 L5.23353787,12.2028277 L4.38680378,16.764672 C4.35415585,16.9362688 4.44017839,17.1545016 4.59001211,17.2709111 C4.64726504,17.3159252 4.72813247,17.3426536 4.81544477,17.3426536 C4.88114794,17.3426536 4.94462869,17.3263511 5.02218225,17.2836951 L5.02218225,17.2836951 L9.12286153,15.1673724 C9.35908107,15.0454617 9.63980255,15.0459079 9.87563339,15.1685688 L9.87563339,15.1685688 L13.9406494,17.2828891 C14.0312895,17.3294208 14.1233166,17.3553719 14.161179,17.3553719 C14.2405284,17.3553719 14.3019318,17.3328469 14.3781576,17.2679631 C14.5339835,17.1469165 14.6113225,16.9542706 14.5759256,16.7556279 L14.5759256,16.7556279 L13.7616583,12.1973945 C13.7140946,11.9311347 13.8011919,11.6585741 13.9943432,11.4692354 L13.9943432,11.4692354 L17.2000862,8.32727346 C17.3390416,8.1827258 17.3873784,7.97401259 17.3101719,7.72823165 C17.2689873,7.56694375 17.1338414,7.44536342 16.9539407,7.42014894 L16.9539407,7.42014894 L12.4791386,6.6061787 C12.2196314,6.55897412 11.9987974,6.38955756 11.8859879,6.151133 L11.8859879,6.151133 L9.86539251,1.87774349 C9.81015304,1.74240395 9.64844152,1.63636364 9.49809285,1.63636364 Z M10.8864539,10.7878896 C11.2355922,10.9289507 11.4042722,11.3263357 11.2632111,11.675474 C10.7440984,12.9603233 9.28169821,13.5810753 7.99684898,13.0619625 C7.64771069,12.9209015 7.47903073,12.5235164 7.62009176,12.1743781 C7.7493977,11.8543347 8.09408704,11.6859264 8.4195627,11.7687338 L8.50767616,11.7976209 C9.057588,12.0197997 9.67874168,11.7846108 9.94951214,11.2710233 L9.99886953,11.1646469 C10.1399306,10.8155086 10.5373156,10.6468286 10.8864539,10.7878896 Z" id="形状结合"></path>
                        </g>
                    </g>
                </g>
            </g>
        </g>
    </g>
</svg>