<?xml version="1.0" encoding="UTF-8"?>
<svg width="20px" height="20px" viewBox="0 0 20 20" version="1.1" xmlns="http://www.w3.org/2000/svg" xmlns:xlink="http://www.w3.org/1999/xlink">
    <title>轮廓</title>
    <g id="确定稿" stroke="none" stroke-width="1" fill="none" fill-rule="evenodd">
        <g id="08.2使用优惠券最大" transform="translate(-340.000000, -241.000000)">
            <g id="编组-6" transform="translate(0.000000, 226.000000)">
                <g id="轮廓" transform="translate(340.000000, 15.000000)">
                    <circle id="椭圆形" fill="#EFEFEF" cx="10" cy="10" r="10"></circle>
                    <g id="编组-10" transform="translate(6.250000, 6.250000)" fill="#999999">
                        <path d="M7.28033009,0.219669914 C7.54881554,0.488155365 7.57118932,0.909554998 7.34745145,1.20352615 L7.28033009,1.28033009 L4.811,3.75 L7.28033009,6.21966991 C7.5732233,6.51256313 7.5732233,6.98743687 7.28033009,7.28033009 C7.01184464,7.54881554 6.590445,7.57118932 6.29647385,7.34745145 L6.21966991,7.28033009 L3.75,4.811 L1.28033009,7.28033009 C0.987436867,7.5732233 0.512563133,7.5732233 0.219669914,7.28033009 C-0.0488155365,7.01184464 -0.071189324,6.590445 0.152548551,6.29647385 L0.219669914,6.21966991 L2.689,3.75 L0.219669914,1.28033009 C-0.0732233047,0.987436867 -0.0732233047,0.512563133 0.219669914,0.219669914 C0.488155365,-0.0488155365 0.909554998,-0.071189324 1.20352615,0.152548551 L1.28033009,0.219669914 L3.75,2.689 L6.21966991,0.219669914 C6.51256313,-0.0732233047 6.98743687,-0.0732233047 7.28033009,0.219669914 Z" id="形状结合"></path>
                    </g>
                </g>
            </g>
        </g>
    </g>
</svg>