<svg xmlns="http://www.w3.org/2000/svg" width="60" height="32" viewBox="0 0 60 32">
  <defs>
  </defs>
  <path id="icon_bill_default" fill="#E82B29" class="cls-1" d="M1190,677h-47V659c0-13.7,14-14,14-14h46v18C1203,677.257,1190,677,1190,677Zm11-30h-42.93s-13.07.262-13.07,12.25V675h43.87s12.13,0.225,12.13-12.25V647Zm-6.27,23.171a30.362,30.362,0,0,1-5.28-10.724c-0.11.6-.21,1.154-0.32,1.709a15.843,15.843,0,0,1-5.53,9.058l-1.06-1.26a14.959,14.959,0,0,0,5.01-7.9,46.921,46.921,0,0,0,.93-10.212h1.6c0,1.795-.07,3.483-0.19,5.021,1.14,5.469,3.13,9.827,5.96,13.032Zm-16.15-2.179a1.161,1.161,0,0,0,.5-0.918v-8.332h-3.18v-1.474h4.67V666.6c0.78-.641,1.62-1.368,2.51-2.2l0.39,1.581a30.674,30.674,0,0,1-4.28,3.376Zm-1.23-16,1.08-1.047a24.909,24.909,0,0,1,3.7,3.29l-1.06,1.068A23.422,23.422,0,0,0,1177.35,651.991Zm-9.31,9.272a24.128,24.128,0,0,1-3.57,9.122l-0.99-1.09a0.474,0.474,0,0,1,.06-0.106l-1.03.384a26.7,26.7,0,0,0-1.15-3.418l1.1-.3a26.222,26.222,0,0,1,1.17,3.2,24.668,24.668,0,0,0,3.33-11.066h-2.72V656.52h2.78c0.05-2.5.07-4.4,0.07-5.725h1.49c0,1.581-.02,3.5-0.04,5.725h3.8v1.474h-3.72q1.005,7.275,4.41,11.216l-1.06,1.154A20.472,20.472,0,0,1,1168.04,661.263Zm1.3-9.122,1.05-.641a22.957,22.957,0,0,1,2.16,3.161l-1.08.77A24.1,24.1,0,0,0,1169.34,652.141Zm-15.86,11.9c1.53-.021,2.96-0.064,4.25-0.107V662.1h-3.89v-1.239h3.89v-1.752h-4v-7.584h9.49v7.584h-4.11v1.752h3.94V662.1h-3.94v1.773c1.65-.085,3.07-0.171,4.3-0.3v1.218c-2.18.213-5.44,0.406-9.76,0.555Zm5.53-6.131h2.96v-5.192h-2.96v5.192Zm-1.13-5.192h-2.89v5.192h2.89v-5.192Zm-0.6,4.1-0.8.214a24.178,24.178,0,0,0-.89-2.863l0.82-.256A22.761,22.761,0,0,1,1157.28,656.819Zm2.38-.064a13.227,13.227,0,0,0,.71-2.927l0.82,0.193a14.954,14.954,0,0,1-.71,3.012Zm-4.22,9.528a14.71,14.71,0,0,1-.88,4.145l-1.3-.406a13.214,13.214,0,0,0,.89-3.888Zm2.68,3.739-1.32.149a23.946,23.946,0,0,0-.34-3.76l1.21-.128A23.162,23.162,0,0,1,1158.12,670.022Zm2.96-.47-1.25.32a33.354,33.354,0,0,0-.89-3.461l1.13-.363A27.707,27.707,0,0,1,1161.08,669.552Z" transform="translate(-1143 -645)"/>
</svg>
