<?xml version="1.0" encoding="UTF-8"?>
<svg width="33px" height="32px" viewBox="0 0 33 32" version="1.1" xmlns="http://www.w3.org/2000/svg" xmlns:xlink="http://www.w3.org/1999/xlink">
    <title>icon_fwh_mianzexieyi</title>
    <defs>
        <radialGradient cx="10.7467225%" cy="14.1180828%" fx="10.7467225%" fy="14.1180828%" r="108.458752%" gradientTransform="translate(0.107467,0.141181),scale(1.000000,0.872131),rotate(47.038252),translate(-0.107467,-0.141181)" id="radialGradient-1">
            <stop stop-color="#93FFBA" offset="0%"></stop>
            <stop stop-color="#00C099" offset="100%"></stop>
        </radialGradient>
    </defs>
    <g id="确定稿" stroke="none" stroke-width="1" fill="none" fill-rule="evenodd">
        <g id="01.2用户协议最大" transform="translate(-171.000000, -247.000000)">
            <g id="弹框备份-8" transform="translate(40.000000, 231.000000)">
                <g id="编组-9" transform="translate(115.000000, 16.000000)">
                    <g id="icon_fwh_mianzexieyi" transform="translate(16.934426, 0.000000)">
                        <path d="M2.00275897,5.88734492 C2.00275897,5.88734492 1.92205905,4.64872797 2.93675705,4.56241146 C3.95145505,4.47609495 10.8373307,4.15053702 15.3704933,0.588110012 C15.6700019,0.470629996 16.0052415,0.470629996 16.3047501,0.588110012 C16.3047501,0.588110012 24.7702231,5.03291127 28.4498289,4.56241146 C28.7674555,4.61380221 29.3261473,4.97877635 29.3840857,5.44553412 C29.4420241,5.91229189 29.3840857,20.4598667 29.3840857,20.4598667 C29.3840857,20.4598667 29.5718455,28.2228642 16.7390068,31.8356841 C16.280703,31.9595339 15.7959254,31.9595339 15.3376217,31.8356841 C15.3376217,31.8356841 4.34072869,29.8785944 2.00275897,20.9016775 C1.99655129,12.4880631 2.00275897,5.88734492 2.00275897,5.88734492 Z" id="形状_40" fill="url(#radialGradient-1)"></path>
                        <path d="M4.88750911,7.76491994 C4.88750911,7.76491994 4.8233471,6.75149144 5.63301053,6.6810458 C6.44267396,6.61060017 11.7062501,6.34389545 15.3230013,3.42917623 C15.561655,3.33313173 15.829849,3.33313173 16.0685027,3.42917623 C16.0685027,3.42917623 22.8225725,7.06590145 25.7584935,6.6810458 C26.1271021,6.76674312 26.4150906,7.04584625 26.503995,7.40354617 C26.5503342,7.78568286 26.503995,19.6882769 26.503995,19.6882769 C26.503995,19.6882769 27.052682,26.0407433 16.8137496,28.9955054 C16.448378,29.0967363 16.0611236,29.0967363 15.695752,28.9955054 C15.695752,28.9955054 6.75304494,27.3942883 4.88750911,20.0496507 C4.88241689,13.1655051 4.88750911,7.76491994 4.88750911,7.76491994 Z M10.3951442,14.2661037 C10.962259,13.8601548 11.4239518,14.1840687 11.868284,14.6292951 C12.3126162,15.0745214 14.4464675,16.809686 14.4464675,16.809686 L19.970679,11.3590816 C20.313023,11.1660204 20.7331269,11.1660204 21.075471,11.3590816 C21.6352893,11.6926906 21.4438188,12.4491527 21.4438188,12.4491527 C21.4438188,12.4491527 15.2707213,18.818052 14.8145637,18.9898283 C14.3584062,19.1616047 14.1546071,19.0721119 13.7097717,18.6263884 C13.2649363,18.1806649 10.0267963,15.3561749 10.0267963,15.3561749 C10.0267963,15.3561749 9.65769365,14.7938623 10.3951442,14.2661037 L10.3951442,14.2661037 Z" id="形状_40_拷贝" fill="#FFFFFF"></path>
                        <path d="M15.704918,15.5638991 L14.4334761,16.8169428 C14.4334761,16.8169428 12.3064634,15.0897075 11.8632522,14.6462048 C11.4200409,14.202702 10.9602751,13.8804696 10.3946603,14.2846213 C9.65948643,14.8100434 10.0274496,15.3698666 10.0274496,15.3698666 C10.0274496,15.3698666 13.2555927,18.1820997 13.6990548,18.6256025 C14.1425168,19.0691052 14.3459375,19.1584492 14.800436,18.9874334 C15.1255801,18.7540897 15.4283429,18.4918057 15.704918,18.2038789 L15.704918,29.0714286 C15.6471942,29.0619703 15.590327,29.047984 15.5348573,29.0296027 C15.5348573,29.0296027 6.72506172,27.4263601 4.88725252,20.0724312 C4.88273763,13.1800718 4.88725252,7.77215971 4.88725252,7.77215971 C4.88725252,7.77215971 4.82404412,6.75744919 5.62167388,6.68691443 C6.41930364,6.61637967 11.6046496,6.34933756 15.1676467,3.4309311 C15.3366258,3.35813771 15.5242633,3.33860363 15.704918,3.37499828 L15.704918,15.5631566 L15.704918,15.5638991 Z" id="矩形_3346" fill="#CDFFFA"></path>
                    </g>
                </g>
            </g>
        </g>
    </g>
</svg>