<?xml version="1.0" encoding="UTF-8"?>
<svg width="11px" height="10px" viewBox="0 0 11 10" version="1.1" xmlns="http://www.w3.org/2000/svg" xmlns:xlink="http://www.w3.org/1999/xlink">
    <title>icon_bnj_circle</title>
    <g id="确定稿" stroke="none" stroke-width="1" fill="none" fill-rule="evenodd">
        <g id="01.3比N家方案二" transform="translate(-146.000000, -1523.000000)">
            <g id="list" transform="translate(15.000000, 662.000000)">
                <g id="编组-6备份-3" transform="translate(0.000000, 543.000000)">
                    <g id="内容" transform="translate(0.000000, 201.000000)">
                        <g id="文本" transform="translate(14.000000, 12.000000)">
                            <g id="编组-2" transform="translate(0.000000, 26.000000)">
                                <g id="比价" transform="translate(0.000000, 23.000000)">
                                    <g id="编组-2备份" transform="translate(89.000000, 0.000000)">
                                        <g id="icon_bnj_circle" transform="translate(28.805031, 56.000000)">
                                            <circle id="椭圆形" fill="#FFFFFF" cx="5" cy="5" r="4"></circle>
                                            <path d="M5,0 C2.23857625,0 0,2.23857625 0,5 C0,7.76142375 2.23857625,10 5,10 C7.76142375,10 10,7.76142375 10,5 C10,2.23857625 7.76142375,0 5,0 Z M5,2 C6.65685425,2 8,3.34314575 8,5 C8,6.65685425 6.65685425,8 5,8 C3.34314575,8 2,6.65685425 2,5 C2,3.34314575 3.34314575,2 5,2 Z" id="椭圆形" fill="#222222" fill-rule="nonzero"></path>
                                        </g>
                                    </g>
                                </g>
                            </g>
                        </g>
                    </g>
                </g>
            </g>
        </g>
    </g>
</svg>