<?xml version="1.0" encoding="UTF-8"?>
<svg width="15px" height="15px" viewBox="0 0 15 15" version="1.1" xmlns="http://www.w3.org/2000/svg" xmlns:xlink="http://www.w3.org/1999/xlink">
    <title>icon_choice_select</title>
    <g id="控件" stroke="none" stroke-width="1" fill="none" fill-rule="evenodd">
        <g id="icon_choice_select" transform="translate(0.000000, -0.000000)">
            <path d="M15,-1.70530257e-13 L15,11 C15,13.209139 13.209139,15 11,15 L0,15 L0,15 C1.94252506,11.5592375 3.99399598,8.77094433 6.15441276,6.63512053 C8.31482954,4.49929674 11.2633586,2.2875899 15,-1.70530257e-13 Z" id="矩形" fill="#F30300"></path>
            <path d="M11.868512,6.88984819 C12.0297626,6.66567669 12.3422089,6.61466919 12.5663804,6.77591976 C12.765644,6.91925361 12.8280866,7.18205076 12.7262513,7.39612339 L12.6803089,7.47378817 L9.15868717,12.3695676 L6.59093593,10.7796723 C6.3561554,10.6343014 6.28367463,10.3261277 6.42904558,10.0913472 C6.55826421,9.88265337 6.81611708,9.80219641 7.03671629,9.88899222 L7.11737073,9.92945682 L8.891,11.027 L11.868512,6.88984819 Z" id="路径" fill="#FFFFFF"></path>
        </g>
    </g>
</svg>