<?xml version="1.0" encoding="UTF-8"?>
<svg width="22px" height="22px" viewBox="0 0 22 22" version="1.1" xmlns="http://www.w3.org/2000/svg" xmlns:xlink="http://www.w3.org/1999/xlink">
    <!-- Generator: Sketch 60 (88103) - https://sketch.com -->
    <title>h5 svg/icon/common/delect4</title>
    <desc>Created with Sketch.</desc>
    <g id="h5-svg/icon/common/delect4" stroke="none" stroke-width="1" fill="none" fill-rule="evenodd">
        <g id="icon_tpan_delect">
            <rect id="矩形" fill="#fff" opacity="0" x="0" y="0" width="22" height="22"></rect>
            <path d="M13.3554829,1 C14.3289099,1 15.1277289,1.74758598 15.2091186,2.69993674 L15.2159476,2.86046477 L15.215,4.579 L20.5517995,4.57928242 C20.9500761,4.57928242 21.272943,4.90214935 21.272943,5.30042588 C21.272943,5.66249545 21.0061108,5.96224303 20.6583648,6.01375028 L20.5517995,6.02156933 L19.711,6.021 L19.7112984,18.7619014 C19.7112984,19.7353284 18.9637125,20.5341474 18.0113617,20.6155371 L17.8508337,20.6223662 L4.42210933,20.6223662 C3.44868229,20.6223662 2.64986331,19.8747802 2.56847358,18.9224294 L2.56164456,18.7619014 L2.561,6.021 L1.72114345,6.02156933 C1.32286692,6.02156933 1,5.69870241 1,5.30042588 C1,4.9383563 1.26683217,4.63860872 1.61457816,4.58710147 L1.72114345,4.57928242 L7.056,4.579 L7.05699535,2.86046477 C7.05699535,1.88703773 7.80458133,1.08821875 8.7569321,1.00682902 L8.91746012,1 L13.3554829,1 Z M18.379,6.021 L3.892,6.021 L3.89298632,18.7619014 C3.89298632,19.0216583 4.08016375,19.2376977 4.3269988,19.2824995 L4.42210933,19.2910244 L17.8508337,19.2910244 C18.1105906,19.2910244 18.3266299,19.103847 18.3714318,18.8570119 L18.3799567,18.7619014 L18.379,6.021 Z M13.8316772,8.97968308 C14.1625531,8.97968308 14.4370458,9.2210882 14.4886356,9.53737869 L14.4973481,9.64535396 L14.4973481,15.2102501 C14.4973481,15.57789 14.1993171,15.875921 13.8316772,15.875921 C13.5008013,15.875921 13.2263086,15.6345159 13.1747188,15.3182254 L13.1660063,15.2102501 L13.1660063,9.64535396 C13.1660063,9.27771409 13.4640373,8.97968308 13.8316772,8.97968308 Z M8.44126579,8.97968308 C8.77214168,8.97968308 9.04663438,9.2210882 9.09822416,9.53737869 L9.10693667,9.64535396 L9.10693667,15.2102501 C9.10693667,15.57789 8.80890567,15.875921 8.44126579,15.875921 C8.1103899,15.875921 7.8358972,15.6345159 7.78430742,15.3182254 L7.77559491,15.2102501 L7.77559491,9.64535396 C7.77559491,9.27771409 8.07362592,8.97968308 8.44126579,8.97968308 Z M13.3554829,2.33134176 L8.91746012,2.33134176 C8.65770317,2.33134176 8.44166385,2.51851919 8.39686199,2.76535424 L8.38833711,2.86046477 L8.388,4.579 L13.884,4.579 L13.8846059,2.86046477 C13.8846059,2.60070782 13.6974285,2.3846685 13.4505934,2.33986664 L13.3554829,2.33134176 Z" id="形状结合" fill="#06c7c3" fill-rule="nonzero"></path>
        </g>
    </g>
</svg>