<?xml version="1.0" encoding="UTF-8"?>
<svg width="14px" height="14px" viewBox="0 0 14 14" version="1.1" xmlns="http://www.w3.org/2000/svg" xmlns:xlink="http://www.w3.org/1999/xlink">
    <title>-mockplus-</title>
    <g id="确定稿" stroke="none" stroke-width="1" fill="none" fill-rule="evenodd">
        <g id="01.1搜索默认" transform="translate(-299.000000, -103.000000)">
            <g id="-mockplus-" transform="translate(0.000000, 88.000000)">
                <g id="icon/search/clean" transform="translate(299.000000, 15.000000)">
                    <circle id="椭圆形" fill="#A4ACB2" cx="7" cy="7" r="7"></circle>
                    <path d="M7.01808153,2.21052632 C7.32668275,2.21052632 7.57685346,2.46069703 7.57685346,2.76929825 L7.57652632,6.49852632 L11.2307018,6.49938112 C11.539303,6.49938112 11.7894737,6.74955184 11.7894737,7.05815305 C11.7894737,7.36675427 11.539303,7.61692498 11.2307018,7.61692498 L7.57652632,7.61652632 L7.57685346,11.2307018 C7.57685346,11.539303 7.32668275,11.7894737 7.01808153,11.7894737 C6.70948032,11.7894737 6.4593096,11.539303 6.4593096,11.2307018 L6.45852632,7.61652632 L2.76929825,7.61692498 C2.46069703,7.61692498 2.21052632,7.36675427 2.21052632,7.05815305 C2.21052632,6.74955184 2.46069703,6.49938112 2.76929825,6.49938112 L6.45852632,6.49852632 L6.4593096,2.76929825 C6.4593096,2.46069703 6.70948032,2.21052632 7.01808153,2.21052632 Z" id="合并形状" fill="#FFFFFF" transform="translate(7.000000, 7.000000) rotate(45.000000) translate(-7.000000, -7.000000) "></path>
                </g>
            </g>
        </g>
    </g>
</svg>