<?xml version="1.0" encoding="UTF-8"?>
<svg width="18px" height="18px" viewBox="0 0 18 18" version="1.1" xmlns="http://www.w3.org/2000/svg" xmlns:xlink="http://www.w3.org/1999/xlink">
    <title>kefu</title>
    <g id="订单" stroke="none" stroke-width="1" fill="none" fill-rule="evenodd">
        <g id="01.2订单详情_待发货" transform="translate(-65.000000, -1224.000000)" fill="#222222">
            <g id="编组-2备份-14" transform="translate(10.000000, 1172.000000)">
                <g id="编组-3" transform="translate(16.000000, 44.000000)">
                    <g id="编组-2" transform="translate(39.000000, 7.000000)">
                        <g id="轮廓" transform="translate(0.000000, 1.000000)">
                            <path d="M8.84152504,0.753656796 C11.6897762,0.753656796 14.1630637,2.69524964 15.0910444,5.48596369 L15.2181818,5.48181818 C16.5286029,5.48181818 17.5909091,6.54412437 17.5909091,7.85454545 L17.5909091,7.85454545 L17.5909091,8.67272727 C17.5909091,9.98314836 16.5286029,11.0454545 15.2181818,11.0454545 L15.338716,11.0417644 C14.5156098,13.3532695 12.9482131,15.0632279 11.0596124,15.6800905 C10.8620623,16.3587127 10.2343897,16.8545455 9.49090909,16.8545455 L8.4,16.8545455 C7.49626132,16.8545455 6.76363636,16.1219205 6.76363636,15.2181818 C6.76363636,14.3144431 7.49626132,13.5818182 8.4,13.5818182 L9.49090909,13.5818182 C10.0154475,13.5818182 10.4823419,13.8286212 10.7818027,14.2124376 C12.1083369,13.7037136 13.2565355,12.4238659 13.9126935,10.6543424 C13.2694737,10.2294957 12.8454545,9.50062897 12.8454545,8.67272727 L12.8454545,8.67272727 L12.8454545,7.85454545 C12.8454545,7.11440021 13.184347,6.45340753 13.7154269,6.01827235 C12.9989534,3.7721914 11.0528953,2.22638407 8.84152504,2.22638407 C6.71481955,2.22638407 4.83575086,3.65585995 4.05660945,5.75931346 C4.80815574,6.15768365 5.31818182,6.94655306 5.31818182,7.85454545 L5.31818182,7.85454545 L5.31818182,8.67272727 C5.31818182,9.98314836 4.25587563,11.0454545 2.94545455,11.0454545 C1.63503346,11.0454545 0.572727273,9.98314836 0.572727273,8.67272727 L0.572727273,8.67272727 L0.572727273,7.85454545 C0.572727273,6.66697634 1.44518772,5.68318129 2.58411158,5.50915734 C3.50468684,2.70927406 5.98257281,0.753656796 8.84152504,0.753656796 Z M10.3090909,9.69545455 C10.6479929,9.69545455 10.9227273,9.9701889 10.9227273,10.3090909 C10.9227273,11.5517316 9.91536796,12.5590909 8.67272727,12.5590909 C7.43008659,12.5590909 6.42272727,11.5517316 6.42272727,10.3090909 C6.42272727,9.9701889 6.69746163,9.69545455 7.03636364,9.69545455 C7.34702381,9.69545455 7.60376533,9.92630772 7.64439822,10.2258241 L7.65,10.3090909 C7.65,10.8739276 8.1078906,11.3318182 8.67272727,11.3318182 C9.20226166,11.3318182 9.63780046,10.9293753 9.69017432,10.4136588 L9.69545455,10.3090909 C9.69545455,9.9701889 9.9701889,9.69545455 10.3090909,9.69545455 Z M2.94545455,6.95454545 C2.44839827,6.95454545 2.04545455,7.35748918 2.04545455,7.85454545 L2.04545455,7.85454545 L2.04545455,8.67272727 C2.04545455,9.16978355 2.44839827,9.57272727 2.94545455,9.57272727 C3.44251082,9.57272727 3.84545455,9.16978355 3.84545455,8.67272727 L3.84545455,8.67272727 L3.84545455,7.85454545 C3.84545455,7.35748918 3.44251082,6.95454545 2.94545455,6.95454545 Z M15.2181818,6.95454545 C14.7211255,6.95454545 14.3181818,7.35748918 14.3181818,7.85454545 L14.3181818,7.85454545 L14.3181818,8.67272727 C14.3181818,9.16978355 14.7211255,9.57272727 15.2181818,9.57272727 C15.7152381,9.57272727 16.1181818,9.16978355 16.1181818,8.67272727 L16.1181818,8.67272727 L16.1181818,7.85454545 C16.1181818,7.35748918 15.7152381,6.95454545 15.2181818,6.95454545 Z" id="形状结合"></path>
                        </g>
                    </g>
                </g>
            </g>
        </g>
    </g>
</svg>