<?xml version="1.0" encoding="UTF-8"?>
<svg width="20px" height="20px" viewBox="0 0 20 20" version="1.1" xmlns="http://www.w3.org/2000/svg" xmlns:xlink="http://www.w3.org/1999/xlink">
    <title>select</title>
    <g id="购物车" stroke="none" stroke-width="1" fill="none" fill-rule="evenodd">
        <g id="02.2配送地址-展开最大" transform="translate(-340.000000, -348.000000)">
            <g id="编组-4" transform="translate(0.000000, 210.000000)">
                <g id="list备份" transform="translate(0.000000, 116.000000)">
                    <g id="轮廓" transform="translate(340.000000, 22.000000)">
                        <rect id="矩形" fill="#D8D8D8" opacity="0" x="0" y="0" width="20" height="20"></rect>
                        <path d="M17.2850417,4.28672921 C17.6789702,3.89963915 18.312111,3.90518285 18.699201,4.29911143 C19.0586418,4.66490225 19.0795361,5.23695252 18.7652859,5.62673368 L18.6868188,5.71327079 L8.51015422,15.7132708 C8.14043628,16.0765705 7.56100247,16.0934859 7.17172751,15.7705496 L7.08545244,15.689996 L1.69466961,10.0350066 C1.31359536,9.63525556 1.32873586,9.00227163 1.72848686,8.62119738 C2.09968422,8.26734273 2.67198548,8.25512221 3.05695832,8.57524483 L3.14229604,8.65501464 L7.83181818,13.5745455 L17.2850417,4.28672921 Z" id="路径-20" fill="#06C7C3"></path>
                    </g>
                </g>
            </g>
        </g>
    </g>
</svg>