<?xml version="1.0" encoding="UTF-8"?>
<svg width="24px" height="24px" viewBox="0 0 24 24" version="1.1" xmlns="http://www.w3.org/2000/svg" xmlns:xlink="http://www.w3.org/1999/xlink">
    <title>warning</title>
    <g id="领券中心" stroke="none" stroke-width="1" fill="none" fill-rule="evenodd">
        <g id="04.3已过期" transform="translate(-95.000000, -109.000000)">
            <g id="编组-3" transform="translate(95.000000, 104.000000)">
                <g id="icon/common/succes" transform="translate(0.000000, 5.000000)">
                    <circle id="椭圆形" fill="#999999" cx="12" cy="12" r="12"></circle>
                    <path d="M12,5.45454545 C12.6024925,5.45454545 13.0909091,5.94296209 13.0909091,6.54545455 L13.0909091,12.3636364 C13.0909091,12.9661288 12.6024925,13.4545455 12,13.4545455 C11.3975075,13.4545455 10.9090909,12.9661288 10.9090909,12.3636364 L10.9090909,6.54545455 C10.9090909,5.94296209 11.3975075,5.45454545 12,5.45454545 Z" id="矩形" fill="#FFFFFF"></path>
                    <path d="M12,15.8181818 C12.6024925,15.8181818 13.0909091,16.3065985 13.0909091,16.9090909 C13.0909091,17.5115834 12.6024925,18 12,18 C11.3975075,18 10.9090909,17.5115834 10.9090909,16.9090909 C10.9090909,16.3065985 11.3975075,15.8181818 12,15.8181818 Z" id="矩形备份" fill="#FFFFFF"></path>
                </g>
            </g>
        </g>
    </g>
</svg>