<?xml version="1.0" encoding="UTF-8"?>
<svg width="18px" height="18px" viewBox="0 0 18 18" version="1.1" xmlns="http://www.w3.org/2000/svg" xmlns:xlink="http://www.w3.org/1999/xlink">
    <title>weizhi</title>
    <g id="*购物车" stroke="none" stroke-width="1" fill="none" fill-rule="evenodd">
        <g id="05配送地址" transform="translate(-15.000000, -357.000000)" fill="#222222">
            <g id="编组-4" transform="translate(0.000000, 150.000000)">
                <g id="list备份-2" transform="translate(0.000000, 196.000000)">
                    <g id="轮廓" transform="translate(15.000000, 11.000000)">
                        <path d="M12.2652453,15.5954341 C12.6719084,15.5914733 13.0047848,15.9179281 13.0087812,16.3245912 C13.0124016,16.6999726 12.7345202,17.0124824 12.371896,17.0614549 L12.2795884,17.0680915 L5.73444428,17.1318387 C5.32778116,17.1357994 4.99490475,16.8093446 4.99090835,16.4026815 C4.98728795,16.0273002 5.26516936,15.7147903 5.62779354,15.6658179 L5.72010117,15.6591812 L12.2652453,15.5954341 Z M9,0.9 C12.5723861,0.9 15.4636364,3.83714309 15.4636364,7.45454546 C15.4636364,10.7403271 12.9241763,13.1680216 9.69228327,14.8025987 L9.69228327,14.8025987 L9.53313473,14.8815466 L9.33620189,14.974506 L8.99978578,15.1217352 L8.62359398,14.9563968 L8.42487558,14.8618001 L8.18186964,14.7385371 L7.89870901,14.5867676 L7.74336219,14.5002428 C7.03761526,14.1021866 6.33195967,13.632556 5.67020833,13.0913905 C3.72609681,11.5015393 2.53636364,9.62289398 2.53636364,7.45454546 C2.53636364,3.83714309 5.42761387,0.9 9,0.9 Z M9,2.37272727 C6.24621536,2.37272727 4.00909091,4.64536164 4.00909091,7.45454546 C4.00909091,9.10119694 4.96708501,10.6139152 6.60251894,11.9513368 C7.19360851,12.4347167 7.83028247,12.8584384 8.46686509,13.2174844 C8.57805788,13.2801995 8.68511666,13.3385739 8.78733057,13.3925515 L8.78733057,13.3925515 L8.99918182,13.5016364 L9.27538021,13.3605224 C11.848039,12.004153 13.8688319,10.0364992 13.9855787,7.67089078 L13.9855787,7.67089078 L13.9909091,7.45454546 C13.9909091,4.64536164 11.7537846,2.37272727 9,2.37272727 Z M9,4.99090909 C10.3104211,4.99090909 11.3727273,6.05321528 11.3727273,7.36363636 C11.3727273,8.67405745 10.3104211,9.73636364 9,9.73636364 C7.68957891,9.73636364 6.62727273,8.67405745 6.62727273,7.36363636 C6.62727273,6.05321528 7.68957891,4.99090909 9,4.99090909 Z M9,6.46363636 C8.50294373,6.46363636 8.1,6.86658009 8.1,7.36363636 C8.1,7.86069264 8.50294373,8.26363636 9,8.26363636 C9.49705627,8.26363636 9.9,7.86069264 9.9,7.36363636 C9.9,6.86658009 9.49705627,6.46363636 9,6.46363636 Z" id="形状结合"></path>
                    </g>
                </g>
            </g>
        </g>
    </g>
</svg>