<?xml version="1.0" encoding="UTF-8"?>
<svg width="12px" height="12px" viewBox="0 0 12 12" version="1.1" xmlns="http://www.w3.org/2000/svg" xmlns:xlink="http://www.w3.org/1999/xlink">
    <title>weizhi</title>
    <g id="领券中心" stroke="none" stroke-width="1" fill="none" fill-rule="evenodd">
        <g id="05门店信息" transform="translate(-106.000000, -268.000000)" fill="#666666">
            <g id="卡片2备份-7" transform="translate(16.000000, 207.000000)">
                <g id="编组" transform="translate(13.999999, 14.000000)">
                    <g transform="translate(76.000000, 44.000000)">
                        <g id="轮廓" transform="translate(0.000000, 3.000000)">
                            <path d="M8.17683019,10.396956 C8.44793894,10.3943156 8.66985654,10.6119521 8.67252081,10.8830608 C8.67493442,11.133315 8.48968014,11.3416549 8.24793069,11.3743032 L8.18639227,11.3787277 L3.82296286,11.4212258 C3.55185411,11.4238663 3.3299365,11.2062297 3.32727223,10.935121 C3.32485863,10.6848668 3.51011291,10.4765269 3.75186236,10.4438786 L3.81340078,10.4394542 L8.17683019,10.396956 Z M6,0.6 C8.38159076,0.6 10.3090909,2.55809539 10.3090909,4.96969697 C10.3090909,7.16021809 8.61611755,8.77868108 6.46152218,9.86839911 L6.46152218,9.86839911 L6.35542315,9.92103109 L6.22413459,9.98300403 L5.99985719,10.0811568 L5.74906266,9.97093118 L5.61658372,9.90786677 L5.45457976,9.82569142 L5.26580601,9.72451173 L5.16224146,9.66682857 C4.69174351,9.40145776 4.22130644,9.0883707 3.78013889,8.72759367 C2.48406454,7.66769287 1.69090909,6.41526265 1.69090909,4.96969697 C1.69090909,2.55809539 3.61840924,0.6 6,0.6 Z M6,1.58181818 C4.16414358,1.58181818 2.67272727,3.09690776 2.67272727,4.96969697 C2.67272727,6.06746462 3.31139001,7.07594349 4.4016793,7.96755784 C4.79573901,8.28981112 5.22018831,8.57229224 5.64457672,8.81165628 C5.71870525,8.85346634 5.79007777,8.89238258 5.85822038,8.92836763 L5.85822038,8.92836763 L5.99945455,9.00109091 L6.18358681,8.90701495 C7.89869267,8.00276867 9.24588795,6.69099944 9.32371912,5.11392719 L9.32371912,5.11392719 L9.32727273,4.96969697 C9.32727273,3.09690776 7.83585642,1.58181818 6,1.58181818 Z M6,3.32727273 C6.87361406,3.32727273 7.58181818,4.03547685 7.58181818,4.90909091 C7.58181818,5.78270497 6.87361406,6.49090909 6,6.49090909 C5.12638594,6.49090909 4.41818182,5.78270497 4.41818182,4.90909091 C4.41818182,4.03547685 5.12638594,3.32727273 6,3.32727273 Z M6,4.30909091 C5.66862915,4.30909091 5.4,4.57772006 5.4,4.90909091 C5.4,5.24046176 5.66862915,5.50909091 6,5.50909091 C6.33137085,5.50909091 6.6,5.24046176 6.6,4.90909091 C6.6,4.57772006 6.33137085,4.30909091 6,4.30909091 Z" id="形状结合"></path>
                        </g>
                    </g>
                </g>
            </g>
        </g>
    </g>
</svg>